<?xml version="1.0" encoding="UTF-8"?>
<svg version="1.1" xmlns="http://www.w3.org/2000/svg" width="360" height="209">
<path d="M0 0 C5.62530251 0.01137964 11.25041543 0.00461876 16.87571144 -0.00687599 C37.59966952 -0.04283522 58.29767828 0.01827812 78.99511719 1.15917969 C79.7169154 1.19854393 80.43871361 1.23790817 81.18238449 1.27846527 C139.72957872 4.57955565 139.72957872 4.57955565 158.38574219 18.26074219 C159.35511719 18.94136719 160.32449219 19.62199219 161.32324219 20.32324219 C174.42237787 31.53142652 177.93420294 51.03323493 179.38574219 67.26074219 C179.61912847 70.52981482 179.79422299 73.799542 179.94824219 77.07324219 C180.01084229 78.3989624 180.01084229 78.3989624 180.07470703 79.75146484 C180.36742931 86.26423691 180.56029854 92.74144186 180.38574219 99.26074219 C180.35891357 100.41582275 180.35891357 100.41582275 180.33154297 101.59423828 C179.7563598 124.08515987 178.71836527 147.85643876 162.88574219 165.44824219 C142.23876533 184.84151267 104.87624529 184.57296854 78.38574219 186.26074219 C77.5770166 186.31327148 76.76829102 186.36580078 75.93505859 186.41992188 C47.85133027 188.16454373 19.51403138 188.64926489 -8.61425781 188.26074219 C-9.28596008 188.25214172 -9.95766235 188.24354126 -10.64971924 188.23468018 C-43.8870548 187.79783309 -77.79348709 186.89697925 -110.61425781 181.26074219 C-111.7625708 181.06641602 -111.7625708 181.06641602 -112.93408203 180.86816406 C-127.9065666 178.20152237 -143.17538856 172.84612582 -152.21191406 159.98730469 C-160.19729512 147.54816072 -162.72785133 134.14505491 -163.73925781 119.63574219 C-163.82272461 118.44787109 -163.90619141 117.26 -163.9921875 116.03613281 C-168.47237894 47.53491999 -168.47237894 47.53491999 -149.73535156 23.88964844 C-136.38667575 9.62409389 -117.09887633 6.61591043 -98.61425781 4.26074219 C-97.91123535 4.16696289 -97.20821289 4.07318359 -96.48388672 3.9765625 C-64.53404532 -0.20097164 -32.15386598 -0.0657074 0 0 Z " fill="#AD37B3" transform="translate(171.6142578125,6.7392578125)"/>
<path d="M0 0 C5.62530251 0.01137964 11.25041543 0.00461876 16.87571144 -0.00687599 C37.59966952 -0.04283522 58.29767828 0.01827812 78.99511719 1.15917969 C79.7169154 1.19854393 80.43871361 1.23790817 81.18238449 1.27846527 C139.72957872 4.57955565 139.72957872 4.57955565 158.38574219 18.26074219 C159.35511719 18.94136719 160.32449219 19.62199219 161.32324219 20.32324219 C174.42237787 31.53142652 177.93420294 51.03323493 179.38574219 67.26074219 C179.61912847 70.52981482 179.79422299 73.799542 179.94824219 77.07324219 C180.01084229 78.3989624 180.01084229 78.3989624 180.07470703 79.75146484 C180.36742931 86.26423691 180.56029854 92.74144186 180.38574219 99.26074219 C180.35891357 100.41582275 180.35891357 100.41582275 180.33154297 101.59423828 C179.7563598 124.08515987 178.71836527 147.85643876 162.88574219 165.44824219 C142.23876533 184.84151267 104.87624529 184.57296854 78.38574219 186.26074219 C77.5770166 186.31327148 76.76829102 186.36580078 75.93505859 186.41992188 C47.85133027 188.16454373 19.51403138 188.64926489 -8.61425781 188.26074219 C-9.28596008 188.25214172 -9.95766235 188.24354126 -10.64971924 188.23468018 C-43.8870548 187.79783309 -77.79348709 186.89697925 -110.61425781 181.26074219 C-111.7625708 181.06641602 -111.7625708 181.06641602 -112.93408203 180.86816406 C-127.9065666 178.20152237 -143.17538856 172.84612582 -152.21191406 159.98730469 C-160.19729512 147.54816072 -162.72785133 134.14505491 -163.73925781 119.63574219 C-163.82272461 118.44787109 -163.90619141 117.26 -163.9921875 116.03613281 C-168.47237894 47.53491999 -168.47237894 47.53491999 -149.73535156 23.88964844 C-136.38667575 9.62409389 -117.09887633 6.61591043 -98.61425781 4.26074219 C-97.91123535 4.16696289 -97.20821289 4.07318359 -96.48388672 3.9765625 C-64.53404532 -0.20097164 -32.15386598 -0.0657074 0 0 Z M-49.39550781 24.18261719 C-50.60191925 24.24464042 -50.60191925 24.24464042 -51.83270264 24.30791664 C-94.27923447 23.86876084 -94.27923447 23.86876084 -130.37207031 40.59667969 C-134.11261489 45.60759789 -136.20071207 51.20268899 -137.61425781 57.26074219 C-137.78320557 57.98245605 -137.95215332 58.70416992 -138.1262207 59.44775391 C-140.08603152 69.25320961 -139.95133146 79.09382833 -139.92993164 89.05029297 C-139.92677184 92.12210618 -139.9502954 95.19295365 -139.97558594 98.26464844 C-140.00950639 109.08407062 -139.37901196 118.76335958 -136.61425781 129.26074219 C-136.30390846 131.04926733 -136.00877633 132.84061025 -135.73925781 134.63574219 C-134.80277244 139.42927749 -132.83897451 143.56058649 -129.61425781 147.26074219 C-128.95425781 147.26074219 -128.29425781 147.26074219 -127.61425781 147.26074219 C-127.3603125 147.87691406 -127.10636719 148.49308594 -126.84472656 149.12792969 C-124.33911406 153.47099136 -118.96011214 154.78573478 -114.42675781 156.38574219 C-105.18487743 158.50682949 -95.98451639 159.43096552 -86.53222656 159.97949219 C-78.88744463 160.52827015 -71.21508891 161.44173422 -63.66978455 162.78489685 C-58.16595543 163.56551984 -52.61621782 163.39128663 -47.06958008 163.37426758 C-45.19536125 163.37448662 -45.19536125 163.37448662 -43.28327942 163.37471008 C-39.87468769 163.37413476 -36.4661573 163.36913592 -33.05757642 163.36213613 C-29.4888205 163.35586464 -25.92006368 163.35529579 -22.3513031 163.35411072 C-15.60124504 163.35100856 -8.85120327 163.34281027 -2.10115236 163.33276123 C5.58689045 163.32156538 13.27493407 163.3160809 20.96298301 163.31106579 C36.77057882 163.30062668 52.5781584 163.28304892 68.38574219 163.26074219 C68.38574219 162.60074219 68.38574219 161.94074219 68.38574219 161.26074219 C69.00578125 161.28692627 69.62582031 161.31311035 70.26464844 161.34008789 C88.43921897 161.99319518 105.35053193 160.01702973 123.1796875 156.83325195 C126.24486163 156.28589943 129.31352318 155.7668743 132.38574219 155.26074219 C132.38574219 154.60074219 132.38574219 153.94074219 132.38574219 153.26074219 C133.53042969 153.04417969 133.53042969 153.04417969 134.69824219 152.82324219 C137.46747127 152.29748278 137.46747127 152.29748278 140.38574219 151.26074219 C140.38574219 150.60074219 140.38574219 149.94074219 140.38574219 149.26074219 C141.70574219 148.60074219 143.02574219 147.94074219 144.38574219 147.26074219 C144.38574219 146.60074219 144.38574219 145.94074219 144.38574219 145.26074219 C145.00449219 145.01324219 145.62324219 144.76574219 146.26074219 144.51074219 C148.88228636 142.96865738 149.24092457 142.06021522 150.38574219 139.26074219 C150.95785329 136.9394493 151.47412666 134.60401474 151.94824219 132.26074219 C153.36073779 125.35195543 153.36073779 125.35195543 153.94042969 123.23730469 C158.82542073 101.55480059 159.37826881 64.69864619 148.49511719 44.98339844 C146.66644853 42.14381084 144.7163336 39.7139963 142.38574219 37.26074219 C141.72574219 37.26074219 141.06574219 37.26074219 140.38574219 37.26074219 C140.38574219 36.60074219 140.38574219 35.94074219 140.38574219 35.26074219 C126.25162394 30.05560112 112.38567888 27.22045468 97.33886719 26.47167969 C94.38574219 26.26074219 94.38574219 26.26074219 92.0012207 25.76513672 C89.48829094 25.28051869 87.13924563 25.07588996 84.58496094 24.97949219 C83.68970703 24.94210938 82.79445312 24.90472656 81.87207031 24.86621094 C80.94845703 24.83140625 80.02484375 24.79660156 79.07324219 24.76074219 C77.24369431 24.69092199 75.41426016 24.61804907 73.58496094 24.54199219 C72.77889404 24.51169922 71.97282715 24.48140625 71.14233398 24.45019531 C68.99932528 24.3029121 66.86340291 24.05106871 64.73542786 23.75798035 C60.48713318 23.22136487 56.31207152 23.11282737 52.03417969 23.11547852 C51.23894897 23.1121199 50.44371826 23.10876129 49.62438965 23.1053009 C47.00315761 23.09583797 44.38199025 23.09384748 41.76074219 23.09277344 C39.89501929 23.0895484 38.02929663 23.08618347 36.16357422 23.08268738 C32.23632223 23.076701 28.30909217 23.07484605 24.38183594 23.07543945 C20.44168374 23.07551942 16.50165101 23.06879013 12.56152344 23.05493164 C-8.11476416 22.98333299 -28.74257852 23.11962688 -49.39550781 24.18261719 Z " fill="#E8791B" transform="translate(171.6142578125,6.7392578125)"/>
<path d="M0 0 C4.05875965 0.01086234 8.11748643 0.01041739 12.17625809 0.01000786 C39.77986082 0.01058149 67.29557342 0.12398304 94.78320312 2.94561768 C95.63319885 3.03109863 96.48319458 3.11657959 97.35894775 3.20465088 C143.74260522 7.93416047 143.74260522 7.93416047 157.47460938 23.37921143 C172.15837196 42.69327496 170.59741802 69.21832615 170.70843506 92.27441406 C170.71660809 93.88742803 170.72771244 95.50042982 170.74176025 97.11340332 C170.75958553 99.40133391 170.763656 101.68887584 170.76367188 103.97686768 C170.77437462 105.02413528 170.77437462 105.02413528 170.78529358 106.09255981 C170.76235783 110.96646297 170.76235783 110.96646297 168.53320312 113.19561768 C165.40820312 113.32061768 165.40820312 113.32061768 162.53320312 113.19561768 C161.87320312 114.51561768 161.21320313 115.83561768 160.53320312 117.19561768 C159.21320313 116.86561768 157.89320313 116.53561768 156.53320312 116.19561768 C156.52511627 115.63424103 156.51702942 115.07286438 156.50869751 114.49447632 C156.42141915 108.55497763 156.32189284 102.61576677 156.21582031 96.67657471 C156.177963 94.47154647 156.14304228 92.26646548 156.11132812 90.06134033 C155.95539244 79.34563464 155.77684309 68.66905978 154.60742188 58.00811768 C154.52976593 57.29769318 154.45210999 56.58726868 154.37210083 55.85531616 C153.09006419 45.40956812 149.2435535 34.76699625 140.90820312 27.94561768 C132.58894412 22.33256229 123.06830468 20.45072067 113.28320312 19.07061768 C112.15640137 18.90521484 111.02959961 18.73981201 109.86865234 18.56939697 C84.42494181 14.95521328 58.81875014 14.04077156 33.15039062 13.95733643 C31.51733664 13.95122313 31.51733664 13.95122313 29.85129166 13.94498634 C24.06183325 13.92427739 18.2723973 13.90992438 12.48291016 13.90045166 C7.82001222 13.89170371 3.15742324 13.87107688 -1.50537109 13.83892822 C-26.65394266 13.66964844 -51.6313722 13.98822037 -76.70898438 16.02764893 C-78.24220526 16.15106942 -78.24220526 16.15106942 -79.8064003 16.27698326 C-89.90260805 17.11018711 -99.94766055 18.14967356 -109.96337891 19.68267822 C-110.72516386 19.79738622 -111.48694881 19.91209421 -112.27181816 20.03027821 C-121.2680809 21.49289829 -130.13627505 24.41291572 -136.46679688 31.19561768 C-147.80783073 47.12907018 -147.80257529 64.97547391 -147.72753906 83.80523682 C-147.71685463 86.99089753 -147.72746331 90.17599008 -147.74023438 93.3616333 C-147.93347633 121.29985711 -147.93347633 121.29985711 -136.46679688 146.19561768 C-136.79679687 146.85561768 -137.12679687 147.51561768 -137.46679688 148.19561768 C-138.46679688 148.19561768 -139.46679688 148.19561768 -140.46679688 148.19561768 C-141.82856269 150.17636795 -143.16272803 152.17641431 -144.46679688 154.19561768 C-145.80013021 153.52895101 -147.13346354 152.86228434 -148.46679688 152.19561768 C-149.12164062 151.93651611 -149.77648437 151.67741455 -150.45117188 151.41046143 C-156.14625328 147.97796081 -157.66024282 138.94227969 -159.19140625 132.83453369 C-161.68812778 122.37313126 -162.62107015 112.17662222 -162.66992188 101.42218018 C-162.67847198 99.91643936 -162.67847198 99.91643936 -162.68719482 98.38027954 C-162.69658563 96.26421135 -162.70315504 94.14812893 -162.70703125 92.03204346 C-162.71666606 88.86363753 -162.74771797 85.6959013 -162.77929688 82.52764893 C-162.88507594 62.22659371 -162.66308544 38.41352221 -148.56835938 22.31280518 C-135.35135791 8.99753604 -116.69874905 6.15074886 -98.74658203 4.29473877 C-96.65272819 4.0769552 -94.56198893 3.83901614 -92.47070312 3.59796143 C-61.70522764 0.18023416 -30.91424859 -0.10422076 0 0 Z " fill="#EB811C" transform="translate(175.466796875,11.80438232421875)"/>
<path d="M0 0 C5.62530251 0.01137964 11.25041543 0.00461876 16.87571144 -0.00687599 C37.59966952 -0.04283522 58.29767828 0.01827812 78.99511719 1.15917969 C79.7169154 1.19854393 80.43871361 1.23790817 81.18238449 1.27846527 C139.72957872 4.57955565 139.72957872 4.57955565 158.38574219 18.26074219 C159.35511719 18.94136719 160.32449219 19.62199219 161.32324219 20.32324219 C174.42237787 31.53142652 177.93420294 51.03323493 179.38574219 67.26074219 C179.61912847 70.52981482 179.79422299 73.799542 179.94824219 77.07324219 C180.01084229 78.3989624 180.01084229 78.3989624 180.07470703 79.75146484 C180.36742931 86.26423691 180.56029854 92.74144186 180.38574219 99.26074219 C180.35891357 100.41582275 180.35891357 100.41582275 180.33154297 101.59423828 C179.7563598 124.08515987 178.71836527 147.85643876 162.88574219 165.44824219 C142.23876533 184.84151267 104.87624529 184.57296854 78.38574219 186.26074219 C77.5770166 186.31327148 76.76829102 186.36580078 75.93505859 186.41992188 C47.85133027 188.16454373 19.51403138 188.64926489 -8.61425781 188.26074219 C-9.28596008 188.25214172 -9.95766235 188.24354126 -10.64971924 188.23468018 C-43.8870548 187.79783309 -77.79348709 186.89697925 -110.61425781 181.26074219 C-111.7625708 181.06641602 -111.7625708 181.06641602 -112.93408203 180.86816406 C-127.9065666 178.20152237 -143.17538856 172.84612582 -152.21191406 159.98730469 C-160.19729512 147.54816072 -162.72785133 134.14505491 -163.73925781 119.63574219 C-163.82272461 118.44787109 -163.90619141 117.26 -163.9921875 116.03613281 C-168.47237894 47.53491999 -168.47237894 47.53491999 -149.73535156 23.88964844 C-136.38667575 9.62409389 -117.09887633 6.61591043 -98.61425781 4.26074219 C-97.91123535 4.16696289 -97.20821289 4.07318359 -96.48388672 3.9765625 C-64.53404532 -0.20097164 -32.15386598 -0.0657074 0 0 Z M-92.55175781 9.07324219 C-93.29223358 9.15689026 -94.03270935 9.24053833 -94.79562378 9.32672119 C-113.98871761 11.5269232 -133.57805335 13.97574971 -146.67675781 29.62402344 C-159.398358 46.93668498 -158.95782417 69.55628551 -158.875 90.09667969 C-158.86427483 93.25572904 -158.87495728 96.41420993 -158.88769531 99.57324219 C-158.90345142 120.19293096 -158.878313 145.62892207 -143.50097656 161.43261719 C-133.28672017 170.32620868 -120.74361597 174.07028976 -107.61425781 176.26074219 C-106.7010376 176.41470459 -105.78781738 176.56866699 -104.84692383 176.72729492 C-96.83975354 178.02533831 -88.82000572 178.92006282 -80.74291992 179.63842773 C-78.70912532 179.82034697 -76.67638829 180.01177654 -74.64355469 180.20410156 C-50.70276575 182.41592876 -26.7704185 182.41980558 -2.74951172 182.39111328 C2.0303169 182.38544086 6.81008956 182.38879214 11.58991623 182.3945446 C51.29044097 182.49093934 51.29044097 182.49093934 90.88574219 179.88574219 C92.23307174 179.75356875 93.5804025 179.62140756 94.92773438 179.48925781 C116.91576198 177.30139168 116.91576198 177.30139168 138.38574219 172.26074219 C139.45050781 171.9475 140.51527344 171.63425781 141.61230469 171.31152344 C153.02961033 167.50129849 160.74617086 161.06317325 166.38574219 150.38574219 C173.76379115 134.06246919 174.74043343 116.58823348 174.57324219 98.94824219 C174.56435472 97.39046325 174.55564854 95.83268328 174.54711914 94.27490234 C175.10724879 57.09577374 175.10724879 57.09577374 158.38574219 25.26074219 C143.0245281 12.02646543 120.74963863 10.12206478 101.29077148 8.30493164 C98.84625053 8.07540256 96.40427465 7.8265679 93.96191406 7.57519531 C67.04255737 4.89115437 40.00721857 5.07272142 12.98535156 5.07543945 C8.93322264 5.07552052 4.88120725 5.06859245 0.82910156 5.05493164 C-30.40294303 4.95141751 -61.48793485 5.489677 -92.55175781 9.07324219 Z " fill="#AD4209" transform="translate(171.6142578125,6.7392578125)"/>
<path d="M0 0 C5.88794052 0.01134088 11.77569919 0.00465407 17.66363335 -0.00687599 C38.60612289 -0.04173092 59.5360327 -0.06564548 80.44921875 1.15917969 C81.46813957 1.21822605 81.46813957 1.21822605 82.50764465 1.27846527 C137.48154311 4.58318701 137.48154311 4.58318701 150.59765625 19.26074219 C161.49362379 34.96688077 160.77203498 54.22272348 160.72802734 72.54174805 C160.72267357 75.18967431 160.7279986 77.83743047 160.734375 80.48535156 C160.75615266 119.64823732 160.75615266 119.64823732 148.59765625 134.26074219 C142.17271095 140.36709516 134.01997992 142.26407063 125.59765625 144.26074219 C124.94788818 144.42574219 124.29812012 144.59074219 123.62866211 144.76074219 C87.77147689 153.4464143 47.70219349 151.58633628 11.043396 151.45635986 C7.18625035 151.44550018 3.32913933 151.44594251 -0.52801895 151.44635201 C-27.82856974 151.44575539 -55.09907264 151.4016003 -82.27734375 148.51074219 C-83.10244446 148.42459656 -83.92754517 148.33845093 -84.77764893 148.24969482 C-124.1717912 144.0772571 -124.1717912 144.0772571 -134.65234375 131.69824219 C-145.49556952 115.76472432 -144.75674508 95.94127938 -144.71801758 77.47973633 C-144.71485207 74.3315175 -144.73842822 71.18423675 -144.76367188 68.03613281 C-144.81617114 51.60926676 -144.41340459 35.5894414 -135.40234375 21.26074219 C-134.97308594 20.57496094 -134.54382813 19.88917969 -134.1015625 19.18261719 C-127.26957685 9.91207619 -115.11425175 7.24896745 -104.40234375 5.26074219 C-99.3717807 4.58419826 -94.33472363 4.12346468 -89.27734375 3.69824219 C-88.03597656 3.58544922 -86.79460937 3.47265625 -85.515625 3.35644531 C-82.7493639 3.11058596 -79.9841109 2.87728923 -77.21582031 2.65771484 C-73.8638149 2.39068479 -70.52028336 2.07353931 -67.17480469 1.73486328 C-44.83649716 -0.3755672 -22.41485024 -0.04359347 0 0 Z M-49.18359375 6.18261719 C-50.39000519 6.24464042 -50.39000519 6.24464042 -51.62078857 6.30791664 C-94.0673204 5.86876084 -94.0673204 5.86876084 -130.16015625 22.59667969 C-133.90070083 27.60759789 -135.988798 33.20268899 -137.40234375 39.26074219 C-137.5712915 39.98245605 -137.74023926 40.70416992 -137.91430664 41.44775391 C-139.87411746 51.25320961 -139.7394174 61.09382833 -139.71801758 71.05029297 C-139.71485778 74.12210618 -139.73838134 77.19295365 -139.76367188 80.26464844 C-139.79759233 91.08407062 -139.1670979 100.76335958 -136.40234375 111.26074219 C-136.0919944 113.04926733 -135.79686227 114.84061025 -135.52734375 116.63574219 C-134.59085838 121.42927749 -132.62706045 125.56058649 -129.40234375 129.26074219 C-128.74234375 129.26074219 -128.08234375 129.26074219 -127.40234375 129.26074219 C-127.14839844 129.87691406 -126.89445312 130.49308594 -126.6328125 131.12792969 C-124.1272 135.47099136 -118.74819808 136.78573478 -114.21484375 138.38574219 C-104.97296337 140.50682949 -95.77260233 141.43096552 -86.3203125 141.97949219 C-78.67553056 142.52827015 -71.00317485 143.44173422 -63.45787048 144.78489685 C-57.95404137 145.56551984 -52.40430376 145.39128663 -46.85766602 145.37426758 C-44.98344719 145.37448662 -44.98344719 145.37448662 -43.07136536 145.37471008 C-39.66277363 145.37413476 -36.25424324 145.36913592 -32.84566236 145.36213613 C-29.27690644 145.35586464 -25.70814962 145.35529579 -22.13938904 145.35411072 C-15.38933098 145.35100856 -8.6392892 145.34281027 -1.8892383 145.33276123 C5.79880452 145.32156538 13.48684813 145.3160809 21.17489707 145.31106579 C36.98249288 145.30062668 52.79007246 145.28304892 68.59765625 145.26074219 C68.59765625 144.60074219 68.59765625 143.94074219 68.59765625 143.26074219 C69.21769531 143.28692627 69.83773437 143.31311035 70.4765625 143.34008789 C88.65113303 143.99319518 105.56244599 142.01702973 123.39160156 138.83325195 C126.4567757 138.28589943 129.52543724 137.7668743 132.59765625 137.26074219 C132.59765625 136.60074219 132.59765625 135.94074219 132.59765625 135.26074219 C133.74234375 135.04417969 133.74234375 135.04417969 134.91015625 134.82324219 C137.67938533 134.29748278 137.67938533 134.29748278 140.59765625 133.26074219 C140.59765625 132.60074219 140.59765625 131.94074219 140.59765625 131.26074219 C141.91765625 130.60074219 143.23765625 129.94074219 144.59765625 129.26074219 C144.59765625 128.60074219 144.59765625 127.94074219 144.59765625 127.26074219 C145.21640625 127.01324219 145.83515625 126.76574219 146.47265625 126.51074219 C149.09420043 124.96865738 149.45283864 124.06021522 150.59765625 121.26074219 C151.16976735 118.9394493 151.68604072 116.60401474 152.16015625 114.26074219 C153.57265185 107.35195543 153.57265185 107.35195543 154.15234375 105.23730469 C159.03733479 83.55480059 159.59018287 46.69864619 148.70703125 26.98339844 C146.87836259 24.14381084 144.92824766 21.7139963 142.59765625 19.26074219 C141.93765625 19.26074219 141.27765625 19.26074219 140.59765625 19.26074219 C140.59765625 18.60074219 140.59765625 17.94074219 140.59765625 17.26074219 C126.463538 12.05560112 112.59759294 9.22045468 97.55078125 8.47167969 C94.59765625 8.26074219 94.59765625 8.26074219 92.21313477 7.76513672 C89.700205 7.28051869 87.3511597 7.07588996 84.796875 6.97949219 C83.90162109 6.94210938 83.00636719 6.90472656 82.08398438 6.86621094 C81.16037109 6.83140625 80.23675781 6.79660156 79.28515625 6.76074219 C77.45560837 6.69092199 75.62617422 6.61804907 73.796875 6.54199219 C72.99080811 6.51169922 72.18474121 6.48140625 71.35424805 6.45019531 C69.21123935 6.3029121 67.07531698 6.05106871 64.94734192 5.75798035 C60.69904725 5.22136487 56.52398558 5.11282737 52.24609375 5.11547852 C51.45086304 5.1121199 50.65563232 5.10876129 49.83630371 5.1053009 C47.21507167 5.09583797 44.59390431 5.09384748 41.97265625 5.09277344 C40.10693335 5.0895484 38.24121069 5.08618347 36.37548828 5.08268738 C32.44823629 5.076701 28.52100623 5.07484605 24.59375 5.07543945 C20.6535978 5.07551942 16.71356507 5.06879013 12.7734375 5.05493164 C-7.9028501 4.98333299 -28.53066445 5.11962688 -49.18359375 6.18261719 Z " fill="#B14205" transform="translate(171.40234375,24.7392578125)"/>
<path d="M0 0 C5.0575974 0.00576306 10.11514248 0.0023616 15.17273808 -0.00357246 C19.10790908 -0.00718936 23.04306768 -0.00603543 26.97823906 -0.00344467 C28.84444625 -0.00278196 30.71065459 -0.00358065 32.57686043 -0.00592422 C35.17334109 -0.00847678 37.76973659 -0.00457661 40.36621094 0.00097656 C41.1210376 -0.00104767 41.87586426 -0.0030719 42.65356445 -0.00515747 C47.50352877 0.01396147 52.15107216 0.46459018 56.95581055 1.13037109 C58.68733274 1.24937395 60.42064689 1.34644091 62.1550293 1.41162109 C63.50371094 1.46769531 63.50371094 1.46769531 64.87963867 1.52490234 C66.73378835 1.59566141 68.58795534 1.66596832 70.44213867 1.73583984 C71.78501953 1.79191406 71.78501953 1.79191406 73.1550293 1.84912109 C73.9577124 1.87941406 74.76039551 1.90970703 75.58740234 1.94091797 C78.10578373 2.14236771 80.48152477 2.62772129 82.95581055 3.13037109 C84.53281648 3.2882862 86.11273357 3.4191146 87.6940918 3.52490234 C102.07964149 4.59054657 115.5324383 6.53729933 128.95581055 12.13037109 C128.95581055 12.79037109 128.95581055 13.45037109 128.95581055 14.13037109 C129.61581055 14.13037109 130.27581055 14.13037109 130.95581055 14.13037109 C136.5997748 19.64398975 138.83150878 24.29935993 138.95581055 32.13037109 C136.40552071 30.85522618 136.02499344 29.72695812 134.95581055 27.13037109 C134.95581055 26.14037109 134.95581055 25.15037109 134.95581055 24.13037109 C134.29581055 24.13037109 133.63581055 24.13037109 132.95581055 24.13037109 C132.62581055 23.14037109 132.29581055 22.15037109 131.95581055 21.13037109 C131.29581055 20.80037109 130.63581055 20.47037109 129.95581055 20.13037109 C129.95581055 19.47037109 129.95581055 18.81037109 129.95581055 18.13037109 C109.38017934 9.75342556 88.02335951 7.92542516 65.97094727 7.22753906 C63.82128835 7.15826261 61.67188415 7.08088396 59.52270508 6.99804688 C17.43531213 5.38410811 -24.82870208 5.42911612 -66.91918945 6.94287109 C-67.96574707 6.9778067 -69.01230469 7.01274231 -70.09057617 7.04873657 C-81.75193525 7.45187014 -93.32696798 8.24037273 -104.92700195 9.51708984 C-105.99022675 9.63027054 -107.05345154 9.74345123 -108.14889526 9.86006165 C-119.46867037 10.87151848 -119.46867037 10.87151848 -129.04418945 16.13037109 C-129.84856445 16.37787109 -130.65293945 16.62537109 -131.48168945 16.88037109 C-134.97916839 18.58645838 -135.46880066 20.63711768 -137.04418945 24.13037109 C-139.10668945 27.00537109 -139.10668945 27.00537109 -141.04418945 29.13037109 C-141.70418945 29.13037109 -142.36418945 29.13037109 -143.04418945 29.13037109 C-145.59235706 35.6166159 -146.65267833 41.73989532 -147.30932617 48.63232422 C-147.67600177 52.20417589 -148.01024091 54.07944828 -150.04418945 57.13037109 C-149.59567103 26.45712436 -149.59567103 26.45712436 -139.62231445 15.57958984 C-126.07056835 2.57636679 -101.48004812 3.88215601 -83.85668945 2.50537109 C-83.06508423 2.44284149 -82.273479 2.38031189 -81.45788574 2.31588745 C-75.65653108 1.86442279 -69.85284551 1.47511571 -64.04418945 1.13037109 C-62.76631058 1.05408478 -62.76631058 1.05408478 -61.46261597 0.97625732 C-40.99384711 -0.17925104 -20.49342026 -0.02354387 0 0 Z " fill="#C84FBF" transform="translate(183.044189453125,29.86962890625)"/>
<path d="M0 0 C5.88785985 0.01134072 11.77553766 0.00467408 17.66339111 -0.0069046 C43.70957 -0.05003758 69.61844367 0.286644 95.59765625 2.26074219 C92.0814087 4.20232235 89.62609115 4.44385286 85.59765625 4.26074219 C85.59765625 4.92074219 85.59765625 5.58074219 85.59765625 6.26074219 C83.80607136 6.28770584 82.01437152 6.30712136 80.22265625 6.32324219 C79.22492188 6.33484375 78.2271875 6.34644531 77.19921875 6.35839844 C74.59765625 6.26074219 74.59765625 6.26074219 72.59765625 5.26074219 C71.19221781 5.16687352 69.7824251 5.13444638 68.37385559 5.13375854 C67.48720215 5.13093872 66.60054871 5.1281189 65.68702698 5.12521362 C64.71112106 5.12723785 63.73521515 5.12926208 62.72973633 5.13134766 C61.70324982 5.12959534 60.67676331 5.12784302 59.61917114 5.1260376 C56.20182636 5.12161389 52.78453288 5.12456341 49.3671875 5.12792969 C46.9813384 5.12725571 44.59548937 5.12628491 42.2096405 5.12503052 C37.18654736 5.12355198 32.16347194 5.12570912 27.14038086 5.13037109 C20.76642561 5.13600393 14.39251306 5.13283194 8.01855946 5.12679863 C3.0756347 5.12314157 -1.86728037 5.124356 -6.81020546 5.12692642 C-9.15524615 5.12758496 -11.50028778 5.12680566 -13.84532738 5.12444687 C-25.57936728 5.11525301 -37.3018024 5.20257671 -49.02856445 5.64404297 C-50.42339318 5.68955701 -50.42339318 5.68955701 -51.84640026 5.73599052 C-57.31100672 5.97313963 -62.13283468 6.80025828 -67.40234375 8.26074219 C-69.79039444 8.57508381 -72.18616152 8.83542015 -74.5859375 9.04199219 C-75.23954254 9.10028198 -75.89314758 9.15857178 -76.56655884 9.21862793 C-77.94861065 9.3414223 -79.33090272 9.46153934 -80.71340942 9.57910156 C-83.58425999 9.82433043 -86.45350022 10.08631772 -89.32292175 10.34765625 C-91.42057477 10.53867239 -93.51837976 10.72794404 -95.61621094 10.91699219 C-100.23584831 11.33641761 -104.8527042 11.76544998 -109.46484375 12.26074219 C-110.67269531 12.38449219 -111.88054687 12.50824219 -113.125 12.63574219 C-115.80590548 13.14699949 -117.70133356 13.73535669 -120.1484375 14.82324219 C-123.40234375 16.26074219 -123.40234375 16.26074219 -126.40234375 16.26074219 C-127.06234375 17.58074219 -127.72234375 18.90074219 -128.40234375 20.26074219 C-129.06234375 20.26074219 -129.72234375 20.26074219 -130.40234375 20.26074219 C-131.39234375 22.73574219 -131.39234375 22.73574219 -132.40234375 25.26074219 C-133.72234375 25.26074219 -135.04234375 25.26074219 -136.40234375 25.26074219 C-136.40234375 28.56074219 -136.40234375 31.86074219 -136.40234375 35.26074219 C-137.06234375 35.26074219 -137.72234375 35.26074219 -138.40234375 35.26074219 C-138.40234375 38.23074219 -138.40234375 41.20074219 -138.40234375 44.26074219 C-139.06234375 44.26074219 -139.72234375 44.26074219 -140.40234375 44.26074219 C-140.39568192 44.99101624 -140.38902008 45.72129028 -140.38215637 46.47369385 C-140.32201772 53.3595532 -140.27635533 60.24537324 -140.24690723 67.13142776 C-140.23125855 70.67155419 -140.21003539 74.21146342 -140.17602539 77.75146484 C-140.13716087 81.82228671 -140.12262801 85.8928808 -140.109375 89.96386719 C-140.09389114 91.23377502 -140.07840729 92.50368286 -140.06245422 93.81207275 C-140.06222763 94.992995 -140.06200104 96.17391724 -140.06176758 97.390625 C-140.05510574 98.42987122 -140.04844391 99.46911743 -140.0415802 100.53985596 C-140.45003085 103.62039932 -141.34100536 104.9841639 -143.40234375 107.26074219 C-144.24604765 100.6362294 -144.57561382 94.15426215 -144.60546875 87.47949219 C-144.61116882 86.46713501 -144.6168689 85.45477783 -144.6227417 84.41174316 C-144.63214049 82.27711006 -144.63870516 80.14246278 -144.64257812 78.0078125 C-144.65223295 74.79758281 -144.68328537 71.58800827 -144.71484375 68.37792969 C-144.8011559 51.81449092 -144.49547125 35.71993753 -135.40234375 21.26074219 C-134.97308594 20.57496094 -134.54382813 19.88917969 -134.1015625 19.18261719 C-127.26957685 9.91207619 -115.11425175 7.24896745 -104.40234375 5.26074219 C-99.3717807 4.58419826 -94.33472363 4.12346468 -89.27734375 3.69824219 C-88.03597656 3.58544922 -86.79460937 3.47265625 -85.515625 3.35644531 C-82.7493639 3.11058596 -79.9841109 2.87728923 -77.21582031 2.65771484 C-73.8638149 2.39068479 -70.52028336 2.07353931 -67.17480469 1.73486328 C-44.83649716 -0.3755672 -22.41485024 -0.04359347 0 0 Z " fill="#B04505" transform="translate(171.40234375,24.7392578125)"/>
<path d="M0 0 C-2.12012304 1.07230241 -4.24649325 2.11422858 -6.40234375 3.11328125 C-14.80703003 7.08899571 -19.4326241 11.40511296 -23 20 C-24.2046876 23.29827466 -24.2046876 23.29827466 -25 27 C-25.16894775 27.72171387 -25.33789551 28.44342773 -25.51196289 29.18701172 C-27.47177371 38.99246742 -27.33707365 48.83308614 -27.31567383 58.78955078 C-27.31251403 61.86136399 -27.33603759 64.93221147 -27.36132812 68.00390625 C-27.39528873 78.81863741 -26.77995699 88.50930081 -24 99 C-23.67031163 100.80945243 -23.35468099 102.62161378 -23.0625 104.4375 C-21.82053831 110.68836505 -19.03597731 115.9432405 -14 120 C-2.09789498 127.05792223 11.55624167 127.93383371 25.08203125 128.71875 C32.72790259 129.26760617 40.39560445 130.18932917 47.94447327 131.51841736 C53.44718174 132.29928867 58.99784349 132.17807652 64.54467773 132.20532227 C65.79415695 132.21522186 67.04363617 132.22512146 68.33097839 132.23532104 C71.73954086 132.26140658 75.14808118 132.28331037 78.55668139 132.30332303 C82.12546407 132.32527559 85.69420544 132.35261868 89.26295471 132.37937927 C96.0129823 132.42918137 102.76303296 132.47416621 109.51310545 132.51740164 C117.20117779 132.56688108 124.88920866 132.62175931 132.57724082 132.67708123 C148.38478884 132.7907095 164.19237508 132.89758982 180 133 C180 132.34 180 131.68 180 131 C180.62003906 130.99589111 181.24007812 130.99178223 181.87890625 130.98754883 C197.35686623 130.81153491 212.18473429 129.33692024 227.41015625 126.7277832 C228.70308594 126.50695068 229.99601562 126.28611816 231.328125 126.05859375 C232.4718457 125.85548584 233.61556641 125.65237793 234.79394531 125.44311523 C237.90970144 125.01248035 240.85944761 124.91955674 244 125 C244 124.34 244 123.68 244 123 C245.32 123 246.64 123 248 123 C247.67 123.99 247.34 124.98 247 126 C244.67793475 126.70491267 242.34406932 127.37212429 240 128 C239.67 128.66 239.34 129.32 239 130 C232.77470234 131.0205406 226.70453585 131.0647381 220.40625 130.9375 C218.04805213 130.72244515 218.04805213 130.72244515 217 132 C215.49885769 132.14495849 213.99152664 132.22707323 212.484375 132.28125 C211.56269531 132.31863281 210.64101563 132.35601562 209.69140625 132.39453125 C208.72074219 132.42933594 207.75007812 132.46414062 206.75 132.5 C204.8488221 132.56927369 202.94776898 132.64207973 201.046875 132.71875 C200.19963867 132.74904297 199.35240234 132.77933594 198.47949219 132.81054688 C196.00647417 132.94454864 196.00647417 132.94454864 193.65136719 133.49780273 C190.28028799 134.13632114 186.95074276 134.23419584 183.53125 134.31640625 C182.39273338 134.34771385 182.39273338 134.34771385 181.23121643 134.37965393 C178.65425873 134.44707429 176.07721389 134.50574489 173.5 134.5625 C172.59361786 134.58334656 171.68723572 134.60419312 170.75338745 134.62567139 C128.22241073 135.57172664 85.50885754 135.76591873 43 134 C43 133.34 43 132.68 43 132 C36.07 132 29.14 132 22 132 C22 131.34 22 130.68 22 130 C17.05 130 12.1 130 7 130 C7 129.34 7 128.68 7 128 C4.69 128 2.38 128 0 128 C-0.33 128.99 -0.66 129.98 -1 131 C-10.23963455 129.88121335 -17.23151537 126.69960008 -23.25 119.4375 C-28.69297925 111.50108892 -31.94643972 102.62213715 -31 93 C-30.505 92.01 -30.505 92.01 -30 91 C-29.88017743 89.12155092 -29.82270839 87.23899169 -29.79467773 85.35693359 C-29.77473251 84.17586029 -29.75478729 82.99478699 -29.73423767 81.77792358 C-29.71752518 80.49769318 -29.70081268 79.21746277 -29.68359375 77.8984375 C-29.66281265 76.59170074 -29.64203156 75.28496399 -29.62062073 73.93862915 C-29.56540706 70.463311 -29.51599475 66.98793347 -29.46777344 63.51251221 C-29.41755323 59.966621 -29.36186988 56.4208161 -29.30664062 52.875 C-29.19906772 45.9167415 -29.09762083 38.95840504 -29 32 C-28.34 32 -27.68 32 -27 32 C-27 29.03 -27 26.06 -27 23 C-26.34 23 -25.68 23 -25 23 C-25.185625 21.72125 -25.37125 20.4425 -25.5625 19.125 C-26.125 15.25 -26.125 15.25 -25 13 C-23.68 13 -22.36 13 -21 13 C-20.7525 12.071875 -20.505 11.14375 -20.25 10.1875 C-18.60976321 6.00489618 -16.5694122 4.76301504 -12.59765625 2.83203125 C-11.76105469 2.49558594 -10.92445312 2.15914062 -10.0625 1.8125 C-9.22847656 1.46832031 -8.39445312 1.12414063 -7.53515625 0.76953125 C-4.88633868 -0.0345012 -2.75111666 -0.1427234 0 0 Z " fill="#AA3D0C" transform="translate(60,37)"/>
<path d="M0 0 C2.31 0 4.62 0 7 0 C7 0.66 7 1.32 7 2 C11.95 2 16.9 2 22 2 C22 2.66 22 3.32 22 4 C28.93 4 35.86 4 43 4 C43 4.66 43 5.32 43 6 C88.87 6 134.74 6 182 6 C182.33 7.32 182.66 8.64 183 10 C169.93514011 10.8112629 156.93216116 11.14985091 143.84375 11.1328125 C141.96260567 11.13348965 140.08146142 11.13446305 138.20031738 11.13571167 C134.28425248 11.13717225 130.36821063 11.13508954 126.45214844 11.13037109 C121.51858366 11.12470568 116.58507312 11.12804885 111.65151024 11.13379383 C57.06473238 11.18838007 57.06473238 11.18838007 30.79492188 8.32543945 C28.30964259 8.05539851 25.82305348 7.80134309 23.3359375 7.54882812 C21.71084276 7.37850568 20.08583852 7.20731697 18.4609375 7.03515625 C17.73901215 6.96112076 17.01708679 6.88708527 16.27328491 6.81080627 C2.25967883 5.25967883 2.25967883 5.25967883 -1 2 C-0.67 1.34 -0.34 0.68 0 0 Z " fill="#B04105" transform="translate(60,165)"/>
<path d="M0 0 C5.17074605 -0.07656583 10.16865029 0.02480609 15.30090332 0.65124512 C39.06724377 3.50184449 62.96856163 3.15896305 86.86474609 3.13037109 C91.6445455 3.1246987 96.42428887 3.12803626 101.2040863 3.13382244 C120.27089521 3.15327494 139.29903996 3.06239437 158.35009766 2.22045898 C166.23228311 1.87943206 174.11258905 1.90610225 182 2 C182 2.33 182 2.66 182 3 C179.69 3.33 177.38 3.66 175 4 C175.99 4.99 175.99 4.99 177 6 C151.3387697 9.10581058 125.15132666 8.15744686 99.35253906 8.13037109 C93.80041261 8.12460308 88.24833377 8.12801181 82.69620895 8.13394356 C78.38624714 8.13755344 74.07629669 8.13640983 69.76633453 8.13381577 C67.71705367 8.13315136 65.66777176 8.13395782 63.61849213 8.13629532 C60.77265153 8.13883665 57.92688944 8.13496355 55.08105469 8.12939453 C54.24580261 8.13141876 53.41055054 8.13344299 52.54998779 8.13552856 C48.24849502 8.11994667 44.23965535 7.82500564 40 7 C38.36009614 6.87578669 36.71764262 6.78097207 35.07421875 6.71875 C33.75647461 6.66267578 33.75647461 6.66267578 32.41210938 6.60546875 C30.57620094 6.53440133 28.74026253 6.46410469 26.90429688 6.39453125 C26.03224609 6.35714844 25.16019531 6.31976563 24.26171875 6.28125 C23.46725342 6.25095703 22.67278809 6.22066406 21.85424805 6.18945312 C20 6 20 6 19 5 C17.44051458 4.84313751 15.87457332 4.74923361 14.30859375 4.68359375 C13.36435547 4.64169922 12.42011719 4.59980469 11.44726562 4.55664062 C10.45404297 4.51732422 9.46082031 4.47800781 8.4375 4.4375 C7.44041016 4.39431641 6.44332031 4.35113281 5.41601562 4.30664062 C2.9441585 4.20019702 0.4721969 4.09818072 -2 4 C-1.34 2.68 -0.68 1.36 0 0 Z " fill="#B14105" transform="translate(82,185)"/>
<path d="M0 0 C1.08539063 0.14888672 2.17078125 0.29777344 3.2890625 0.45117188 C14.01127391 2.08253459 23.47519812 5.5314076 32 12.3125 C31.67 12.9725 31.34 13.6325 31 14.3125 C25.39779185 13.48896457 20.14433228 12.48758944 14.875 10.375 C4.1115909 6.26003047 -7.60954143 5.09259391 -19.046875 4.5234375 C-22 4.3125 -22 4.3125 -24.38452148 3.81689453 C-26.89745125 3.33227651 -29.24649655 3.12764778 -31.80078125 3.03125 C-32.69603516 2.99386719 -33.59128906 2.95648438 -34.51367188 2.91796875 C-35.43728516 2.88316406 -36.36089844 2.84835938 -37.3125 2.8125 C-39.14204788 2.7426798 -40.97148203 2.66980689 -42.80078125 2.59375 C-43.60684814 2.56345703 -44.41291504 2.53316406 -45.2434082 2.50195312 C-47.38448488 2.3548027 -49.5184499 2.10260746 -51.6443634 1.80874634 C-55.92708601 1.26782889 -60.13441819 1.17132018 -64.44677734 1.18310547 C-65.25164581 1.18135315 -66.05651428 1.17960083 -66.88577271 1.17779541 C-69.53584996 1.17341361 -72.1858596 1.17630921 -74.8359375 1.1796875 C-76.71603406 1.17901172 -78.59613054 1.17803942 -80.47622681 1.17678833 C-84.42865832 1.17531487 -88.38106722 1.17744838 -92.33349609 1.18212891 C-97.29040265 1.18772519 -102.24725429 1.18452251 -107.20415878 1.17867661 C-130.82130872 1.15523418 -154.39835482 1.42819326 -178 2.3125 C-175.60302313 -0.08447687 -174.96974727 0.03051815 -171.68818665 -0.09689331 C-170.79164714 -0.13496157 -169.89510763 -0.17302982 -168.97140026 -0.21225166 C-167.99124101 -0.24259436 -167.01108175 -0.27293705 -166.0012207 -0.30419922 C-164.46250164 -0.36059728 -164.46250164 -0.36059728 -162.89269733 -0.41813469 C-150.92384589 -0.81891292 -138.95467395 -0.83235692 -126.98046875 -0.8203125 C-124.57432546 -0.8209882 -122.16818224 -0.82196042 -119.76203918 -0.82321167 C-114.77632991 -0.82467019 -109.79063878 -0.82259035 -104.80493164 -0.81787109 C-98.40596966 -0.81210923 -92.00704904 -0.81550463 -85.60808849 -0.82144356 C-80.66605818 -0.82504402 -75.72403782 -0.8239141 -70.78200722 -0.82131577 C-68.41960966 -0.82064842 -66.05721119 -0.82146822 -63.69481468 -0.82379532 C-60.41915827 -0.82632032 -57.14357113 -0.82248641 -53.86791992 -0.81689453 C-52.40406105 -0.81993088 -52.40406105 -0.81993088 -50.91062927 -0.82302856 C-50.02397583 -0.82020874 -49.13732239 -0.81738892 -48.22380066 -0.81448364 C-47.45171359 -0.81410662 -46.67962652 -0.81372959 -45.88414288 -0.81334114 C-44 -0.6875 -44 -0.6875 -42 0.3125 C-40.12943209 0.5400015 -38.25314042 0.72212811 -36.375 0.875 C-35.37210938 0.95878906 -34.36921875 1.04257812 -33.3359375 1.12890625 C-32.17964844 1.21978516 -32.17964844 1.21978516 -31 1.3125 C-31 0.6525 -31 -0.0075 -31 -0.6875 C-20.76599121 -2.96172418 -10.22883147 -1.5853474 0 0 Z " fill="#B34607" transform="translate(288,29.6875)"/>
<path d="M0 0 C1.32 0 2.64 0 4 0 C3.67 0.99 3.34 1.98 3 3 C0.67793475 3.70491267 -1.65593068 4.37212429 -4 5 C-4.33 5.66 -4.66 6.32 -5 7 C-11.22529766 8.0205406 -17.29546415 8.0647381 -23.59375 7.9375 C-25.95194787 7.72244515 -25.95194787 7.72244515 -27 9 C-28.50114231 9.14495849 -30.00847336 9.22707323 -31.515625 9.28125 C-32.43730469 9.31863281 -33.35898437 9.35601562 -34.30859375 9.39453125 C-35.27925781 9.42933594 -36.24992188 9.46414062 -37.25 9.5 C-39.1511779 9.56927369 -41.05223102 9.64207973 -42.953125 9.71875 C-44.22397949 9.76418945 -44.22397949 9.76418945 -45.52050781 9.81054688 C-47.99352583 9.94454864 -47.99352583 9.94454864 -50.34863281 10.49780273 C-53.71971201 11.13632114 -57.04925724 11.23419584 -60.46875 11.31640625 C-61.22776108 11.33727798 -61.98677216 11.35814972 -62.76878357 11.37965393 C-65.34574127 11.44707429 -67.92278611 11.50574489 -70.5 11.5625 C-71.40638214 11.58334656 -72.31276428 11.60419312 -73.24661255 11.62567139 C-115.77758927 12.57172664 -158.49114246 12.76591873 -201 11 C-201 10.34 -201 9.68 -201 9 C-207.93 9 -214.86 9 -222 9 C-222 8.34 -222 7.68 -222 7 C-226.95 7 -231.9 7 -237 7 C-237 6.01 -237 5.02 -237 4 C-207.10960042 6.57077275 -207.10960042 6.57077275 -196.07090759 8.51622009 C-190.56269093 9.29789197 -185.00775551 9.17804901 -179.45532227 9.20532227 C-177.58110344 9.22017166 -177.58110344 9.22017166 -175.66902161 9.23532104 C-172.26045914 9.26140658 -168.85191882 9.28331037 -165.44331861 9.30332303 C-161.87453593 9.32527559 -158.30579456 9.35261868 -154.73704529 9.37937927 C-147.9870177 9.42918137 -141.23696704 9.47416621 -134.48689455 9.51740164 C-126.79882221 9.56688108 -119.11079134 9.62175931 -111.42275918 9.67708123 C-95.61521116 9.7907095 -79.80762492 9.89758982 -64 10 C-64 9.34 -64 8.68 -64 8 C-63.37996094 7.99589111 -62.75992188 7.99178223 -62.12109375 7.98754883 C-46.64313377 7.81153491 -31.81526571 6.33692024 -16.58984375 3.7277832 C-15.29691406 3.50695068 -14.00398437 3.28611816 -12.671875 3.05859375 C-11.5281543 2.85548584 -10.38443359 2.65237793 -9.20605469 2.44311523 C-6.09029856 2.01248035 -3.14055239 1.91955674 0 2 C0 1.34 0 0.68 0 0 Z " fill="#A93C2F" transform="translate(304,160)"/>
<path d="M0 0 C20.81842773 -0.11131196 41.63354818 0.20301914 62.4498291 0.46356201 C67.37148863 0.52486967 72.29316697 0.58462783 77.21484375 0.64453125 C86.80991444 0.76153708 96.40496366 0.8802125 106 1 C106 1.99 106 2.98 106 4 C107.32 4.33 108.64 4.66 110 5 C70.07 5 30.14 5 -11 5 C-7.32326162 3.16163081 -3.95007553 2.06348187 0 1 C0 0.67 0 0.34 0 0 Z " fill="#AC3B02" transform="translate(124,8)"/>
<path d="M0 0 C13.03230182 -0.0233513 26.06459853 -0.04102967 39.09691715 -0.05181217 C45.15080069 -0.05699179 51.20466973 -0.06399799 57.25854492 -0.07543945 C63.12005693 -0.08644581 68.98155515 -0.0923137 74.84307671 -0.09487724 C77.05972955 -0.09669998 79.2763818 -0.10025766 81.49302864 -0.10573006 C92.86705068 -0.1326479 104.21834271 -0.03493866 115.58374023 0.43969727 C116.99264699 0.49719477 116.99264699 0.49719477 118.43001652 0.55585384 C125.0678974 0.86522564 131.50019455 1.56025815 138 3 C138 4.32 138 5.64 138 7 C110.80589032 7.35164797 110.80589032 7.35164797 103 5 C103 4.01 103 3.02 103 2 C101.98983322 2.00222061 100.97966644 2.00444122 99.93888855 2.00672913 C90.33516694 2.0271594 80.73144985 2.0420667 71.1277113 2.05181217 C66.19247202 2.05699111 61.25725053 2.06399598 56.32202148 2.07543945 C51.54333132 2.08644834 46.76465808 2.09231421 41.98595619 2.09487724 C40.17907762 2.09669954 38.37219979 2.1002563 36.5653286 2.10573006 C24.34242354 2.14122485 12.19955529 1.76248234 0 1 C0 0.67 0 0.34 0 0 Z " fill="#A64A1B" transform="translate(127,7)"/>
<path d="M0 0 C2.95867918 0.14046255 5.91682264 0.28712224 8.875 0.4375 C9.71675781 0.47681641 10.55851562 0.51613281 11.42578125 0.55664062 C12.23144531 0.59853516 13.03710938 0.64042969 13.8671875 0.68359375 C14.98262939 0.73858032 14.98262939 0.73858032 16.12060547 0.79467773 C18 1 18 1 20 2 C20 2.66 20 3.32 20 4 C21.65 4 23.3 4 25 4 C25 3.01 25 2.02 25 1 C29.51617599 0.92345464 33.59085217 0.89771304 38 2 C37.34 3.32 36.68 4.64 36 6 C36.63091553 5.99476318 37.26183105 5.98952637 37.91186523 5.98413086 C40.75373347 5.96342174 43.59558588 5.95035934 46.4375 5.9375 C47.92733398 5.92493164 47.92733398 5.92493164 49.44726562 5.91210938 C50.86362305 5.90727539 50.86362305 5.90727539 52.30859375 5.90234375 C53.62041626 5.89448853 53.62041626 5.89448853 54.95874023 5.88647461 C57 6 57 6 58 7 C59.41628976 7.14470584 60.8390895 7.22700514 62.26171875 7.28125 C63.13376953 7.31863281 64.00582031 7.35601562 64.90429688 7.39453125 C66.28198242 7.44673828 66.28198242 7.44673828 67.6875 7.5 C69.48320797 7.56951128 71.27879072 7.64234881 73.07421875 7.71875 C73.87432373 7.74904297 74.67442871 7.77933594 75.4987793 7.81054688 C78 8 78 8 80.4138031 8.50474548 C85.57317064 9.21725518 90.67821281 9.13023633 95.88037109 9.11352539 C97.07118286 9.11367142 98.26199463 9.11381744 99.4888916 9.1139679 C102.74051607 9.11339214 105.99209706 9.10838966 109.2437129 9.10139394 C112.64698058 9.0951269 116.05024918 9.09455395 119.45352173 9.09336853 C125.89195295 9.09026508 132.33036712 9.082065 138.76879084 9.07201904 C146.10131531 9.06082726 153.4338406 9.05533973 160.76637149 9.05032361 C175.84425715 9.03988155 190.92212687 9.02230123 206 9 C206 9.33 206 9.66 206 10 C177.06323286 11.64851886 147.98080159 12.40029805 119 12 C117.99244659 11.9870993 117.99244659 11.9870993 116.96453857 11.97393799 C37.55335414 10.93021579 37.55335414 10.93021579 0 1 C0 0.67 0 0.34 0 0 Z " fill="#A44C20" transform="translate(44,183)"/>
<path d="M0 0 C0 0.66 0 1.32 0 2 C3.42232972 3.14077657 6.08673217 3.09815117 9.6875 3.0625 C10.86699219 3.05347656 12.04648438 3.04445312 13.26171875 3.03515625 C14.16535156 3.02355469 15.06898437 3.01195312 16 3 C16.33 3.66 16.66 4.32 17 5 C19.50580398 5.28696929 21.92355619 5.46732761 24.4375 5.5625 C31.76449644 5.88224822 31.76449644 5.88224822 34 7 C36.10528933 7.08543895 38.21331157 7.10714725 40.3203125 7.09765625 C42.20556641 7.09282227 42.20556641 7.09282227 44.12890625 7.08789062 C45.44761719 7.07951172 46.76632813 7.07113281 48.125 7.0625 C49.46484211 7.05748489 50.804686 7.05292201 52.14453125 7.04882812 C55.42973206 7.03701086 58.71484397 7.02053617 62 7 C62.495 7.99 62.495 7.99 63 9 C76.20499773 9.04648849 89.40997575 9.0819528 102.61503887 9.10362434 C108.74770196 9.11402936 114.88030875 9.12812826 121.01293945 9.15087891 C126.93924826 9.17272475 132.86550315 9.18459327 138.79184914 9.18975449 C141.04468445 9.19342925 143.29751705 9.20060474 145.55032921 9.21146011 C161.07762464 9.3598537 161.07762464 9.3598537 176.44863892 7.4462738 C180.84745857 6.67684999 185.2378313 6.82428561 189.6875 6.9375 C191.42049167 6.97182926 193.15357248 7.00199365 194.88671875 7.02734375 C196.00373169 7.05429321 196.00373169 7.05429321 197.14331055 7.08178711 C199.09526963 7.12212311 199.09526963 7.12212311 201 6 C202.37548156 5.91691362 203.75485796 5.89263984 205.1328125 5.90234375 C205.93847656 5.90556641 206.74414062 5.90878906 207.57421875 5.91210938 C208.41597656 5.92048828 209.25773438 5.92886719 210.125 5.9375 C210.97449219 5.94201172 211.82398438 5.94652344 212.69921875 5.95117188 C214.79950909 5.96297126 216.8997633 5.98090694 219 6 C219 6.33 219 6.66 219 7 C205.38465836 9.51636677 191.79802764 9.20381134 178 9 C178 9.66 178 10.32 178 11 C161.63902585 11.04697068 145.27807398 11.08211051 128.91704845 11.10362434 C121.31829241 11.11388442 113.71957855 11.12784237 106.12084961 11.15087891 C99.48853263 11.17097584 92.85624625 11.18375457 86.22389966 11.18817699 C82.72054425 11.19075715 79.21727625 11.19670785 75.7139492 11.21146011 C39.75028644 11.35696305 39.75028644 11.35696305 27 8 C24.68966536 7.82314571 22.37653704 7.68147987 20.0625 7.5625 C9.66874621 6.94034762 -0.19793533 5.65500717 -10 2 C-9.38382813 1.84660156 -8.76765625 1.69320312 -8.1328125 1.53515625 C-6.71120619 1.17845283 -5.29187523 0.81255521 -3.875 0.4375 C-2 0 -2 0 0 0 Z " fill="#A63087" transform="translate(62,159)"/>
<path d="M0 0 C0.99 0.33 1.98 0.66 3 1 C3 1.99 3 2.98 3 4 C3.99 4.33 4.98 4.66 6 5 C6.19412181 6.47831221 6.38012131 7.95769316 6.5625 9.4375 C6.66691406 10.26121094 6.77132813 11.08492187 6.87890625 11.93359375 C6.91886719 12.61550781 6.95882813 13.29742187 7 14 C6.67 14.33 6.34 14.66 6 15 C5.95907063 17.33297433 5.95758277 19.66705225 6 22 C6.66 22 7.32 22 8 22 C9.04168998 25.4319837 9.13889226 28.59657642 9.16113281 32.17382812 C9.17074036 33.42192261 9.1803479 34.67001709 9.19024658 35.95593262 C9.19509362 37.31436988 9.19937268 38.67280927 9.203125 40.03125 C9.20888024 41.42842612 9.21463793 42.82560222 9.22039795 44.22277832 C9.23088682 47.14803433 9.23674393 50.07326301 9.24023438 52.99853516 C9.24572815 56.74457632 9.26978343 60.49025567 9.29820633 64.23618317 C9.31683501 67.12039243 9.32203832 70.00451434 9.32357025 72.88877869 C9.32659459 74.2698719 9.33461581 75.65096366 9.34775543 77.03199768 C9.36482581 78.96331581 9.36108942 80.89478389 9.35644531 82.82617188 C9.36009094 83.92441284 9.36373657 85.02265381 9.36749268 86.1541748 C8.95664975 89.33569987 8.24535966 90.73865031 6 93 C5.34 93 4.68 93 4 93 C4.0707373 92.18950195 4.14147461 91.37900391 4.21435547 90.54394531 C4.98523198 80.92763342 5.1607468 71.39175607 5.125 61.75 C5.12217514 60.59446625 5.12217514 60.59446625 5.11929321 59.41558838 C5.07393422 43.59330545 4.70017914 28.32189795 1.69921875 12.75 C0.90694351 8.50092609 0.39106769 4.30174464 0 0 Z " fill="#B14205" transform="translate(340,44)"/>
<path d="M0 0 C0.99 0.99 1.98 1.98 3 3 C1.625 4.5 1.625 4.5 0 6 C-0.66 6 -1.32 6 -2 6 C-2 7.32 -2 8.64 -2 10 C-2.66 10 -3.32 10 -4 10 C-4.33 12.31 -4.66 14.62 -5 17 C-4.67 17 -4.34 17 -4 17 C-3.80400875 22.95323426 -4.5614625 28.56529914 -5.5 34.4375 C-5.71462891 35.82098633 -5.71462891 35.82098633 -5.93359375 37.23242188 C-6.28436653 39.48906007 -6.63993865 41.74482853 -7 44 C-8.32 44 -9.64 44 -11 44 C-11.02546877 50.26219814 -11.0429166 56.5243828 -11.05493164 62.78662109 C-11.05994349 64.91455586 -11.06675472 67.04248721 -11.07543945 69.17041016 C-11.08764336 72.23861537 -11.09325993 75.30677484 -11.09765625 78.375 C-11.10281754 79.31802979 -11.10797882 80.26105957 -11.11329651 81.23266602 C-11.11374602 86.5908882 -10.74175116 91.69474076 -10 97 C-9.93650202 99.4992803 -9.91346182 102.00002876 -9.9375 104.5 C-9.94652344 105.7271875 -9.95554687 106.954375 -9.96484375 108.21875 C-9.98224609 109.59546875 -9.98224609 109.59546875 -10 111 C-11.85512898 107.79950168 -12.35339602 105.18497073 -12.6328125 101.51171875 C-12.71692383 100.42503906 -12.80103516 99.33835937 -12.88769531 98.21875 C-12.96600586 97.0534375 -13.04431641 95.888125 -13.125 94.6875 C-13.2084668 93.47707031 -13.29193359 92.26664062 -13.37792969 91.01953125 C-15.28203425 61.36213123 -17.31908858 27.08484238 -1 1 C-0.67 0.67 -0.34 0.34 0 0 Z " fill="#AD4C18" transform="translate(21,32)"/>
<path d="M0 0 C-0.33 0.33 -0.66 0.66 -1 1 C1.475 1.495 1.475 1.495 4 2 C4 2.33 4 2.66 4 3 C2.69804688 3.18175781 1.39609375 3.36351562 0.0546875 3.55078125 C-1.67195437 3.80414718 -3.3985126 4.0580836 -5.125 4.3125 C-5.9809375 4.43044922 -6.836875 4.54839844 -7.71875 4.66992188 C-12.69058522 5.41569716 -16.57773237 6.47107842 -21 9 C-22.051875 9.433125 -23.10375 9.86625 -24.1875 10.3125 C-27.69549371 12.41729623 -28.3735903 14.30361432 -30 18 C-32.0625 20.875 -32.0625 20.875 -34 23 C-34.66 23 -35.32 23 -36 23 C-38.5481676 29.48624481 -39.60848888 35.60952422 -40.26513672 42.50195312 C-40.63181231 46.07380479 -40.96605146 47.94907719 -43 51 C-42.55148158 20.32675326 -42.55148158 20.32675326 -32.578125 9.44921875 C-25.19264748 2.36267722 -10.06868516 -3.30862231 0 0 Z " fill="#C650B8" transform="translate(76,36)"/>
<path d="M0 0 C1.85782287 2.7867343 2.3256016 3.83146842 2.81640625 6.96484375 C2.94039795 7.75503906 3.06438965 8.54523437 3.19213867 9.359375 C3.31435791 10.21015625 3.43657715 11.0609375 3.5625 11.9375 C3.69180908 12.82050781 3.82111816 13.70351562 3.9543457 14.61328125 C5.2601606 24.05057177 5.75579978 33.48279152 6 43 C6.02964844 44.03898437 6.05929687 45.07796875 6.08984375 46.1484375 C6.12795736 49.10436004 6.07912931 52.04469234 6 55 C5.98211426 55.77005371 5.96422852 56.54010742 5.94580078 57.33349609 C5.4524427 76.62487723 4.34781469 95.70654282 -5 113 C-5.12375 112.360625 -5.2475 111.72125 -5.375 111.0625 C-5.58125 110.381875 -5.7875 109.70125 -6 109 C-6.66 108.67 -7.32 108.34 -8 108 C-6.515 107.01 -6.515 107.01 -5 106 C-3.80767387 103.94996045 -3.80767387 103.94996045 -3 102 C-2.34 102 -1.68 102 -1 102 C-0.67 98.37 -0.34 94.74 0 91 C-1.485 91.495 -1.485 91.495 -3 92 C-3.3125 89.8125 -3.3125 89.8125 -3 87 C-2.18026199 86.2555513 -1.36052399 85.5111026 -0.51594543 84.74409485 C2.6093613 81.33538097 2.61053045 79.8383339 2.56762695 75.28198242 C2.56835709 74.62776306 2.56908722 73.9735437 2.56983948 73.29949951 C2.56637338 71.150627 2.52756664 69.00395944 2.48828125 66.85546875 C2.47894945 65.36047042 2.47183507 63.86545674 2.46684265 62.37043762 C2.44780118 58.44586571 2.39872681 54.52222702 2.34332275 50.59802246 C2.2920676 46.58956526 2.26931536 42.58095645 2.24414062 38.57226562 C2.19060369 30.71441668 2.10532735 22.85732461 2 15 C1.34 15 0.68 15 0 15 C-0.69371494 10.99186924 -1.21053264 7.90060516 0 4 C0 2.68 0 1.36 0 0 Z " fill="#AB562B" transform="translate(346,51)"/>
<path d="M0 0 C1.859375 0.24609375 1.859375 0.24609375 4 1 C5.265625 2.84765625 5.265625 2.84765625 6.25 5.0625 C6.75273437 6.16271484 6.75273437 6.16271484 7.265625 7.28515625 C7.50796875 7.85105469 7.7503125 8.41695312 8 9 C8.33 9 8.66 9 9 9 C9 11.64 9 14.28 9 17 C9.66 17 10.32 17 11 17 C11.99 34.16 12.98 51.32 14 69 C14.33 69 14.66 69 15 69 C15.44685243 76.55925353 15.56042258 81.78124193 11 88 C10.505 88.495 10.505 88.495 10 89 C9.79160985 90.64107242 9.63248275 92.28856293 9.5 93.9375 C9.10977702 98.78044597 9.10977702 98.78044597 8 101 C5.9375 101.625 5.9375 101.625 4 102 C4.64548853 99.24991865 5.29137766 96.49993244 5.9375 93.75 C6.11990234 92.97269531 6.30230469 92.19539063 6.49023438 91.39453125 C6.75610352 90.26337891 6.75610352 90.26337891 7.02734375 89.109375 C7.18968506 88.41811523 7.35202637 87.72685547 7.51928711 87.01464844 C7.84508984 85.64922226 8.18618104 84.28737022 8.54101562 82.92919922 C13.90113885 60.39957488 13.61667424 23.23549706 2 3 C1.34 2.01 0.68 1.02 0 0 Z " fill="#AA4011" transform="translate(316,47)"/>
<path d="M0 0 C-2.12012304 1.07230241 -4.24649325 2.11422858 -6.40234375 3.11328125 C-14.80703003 7.08899571 -19.4326241 11.40511296 -23 20 C-24.2046876 23.29827466 -24.2046876 23.29827466 -25 27 C-25.16894775 27.72171387 -25.33789551 28.44342773 -25.51196289 29.18701172 C-27.47177371 38.99246742 -27.33707365 48.83308614 -27.31567383 58.78955078 C-27.31251403 61.86136399 -27.33603759 64.93221147 -27.36132812 68.00390625 C-27.39109102 77.71603919 -27.18957126 86.73848986 -24.64526367 96.16455078 C-23.95594388 99.19359356 -23.89104831 101.90393223 -24 105 C-27.32901247 102.78065836 -27.75023244 101.65316671 -29 98 C-29.66 98 -30.32 98 -31 98 C-30.84152588 97.12529053 -30.68305176 96.25058105 -30.51977539 95.34936523 C-29.67624631 89.40601114 -29.76341978 83.40182275 -29.68359375 77.41015625 C-29.66281265 76.11049423 -29.64203156 74.81083221 -29.62062073 73.4717865 C-29.56575967 70.03763825 -29.5161938 66.60343375 -29.46777344 63.16918945 C-29.4172936 59.6563626 -29.36174661 56.14361616 -29.30664062 52.63085938 C-29.19949989 45.75397611 -29.09795943 38.87702002 -29 32 C-28.34 32 -27.68 32 -27 32 C-27 29.03 -27 26.06 -27 23 C-26.34 23 -25.68 23 -25 23 C-25.185625 21.72125 -25.37125 20.4425 -25.5625 19.125 C-26.125 15.25 -26.125 15.25 -25 13 C-23.68 13 -22.36 13 -21 13 C-20.7525 12.071875 -20.505 11.14375 -20.25 10.1875 C-18.60976321 6.00489618 -16.5694122 4.76301504 -12.59765625 2.83203125 C-11.76105469 2.49558594 -10.92445312 2.15914062 -10.0625 1.8125 C-9.22847656 1.46832031 -8.39445312 1.12414063 -7.53515625 0.76953125 C-4.88633868 -0.0345012 -2.75111666 -0.1427234 0 0 Z " fill="#AB4121" transform="translate(60,37)"/>
<path d="M0 0 C2.25 1.5 2.25 1.5 4 3 C4 3.66 4 4.32 4 5 C4.66 5.33 5.32 5.66 6 6 C-0.37720566 9.43387997 -6.9542768 12.23314941 -14 14 C-14.66 13.67 -15.32 13.34 -16 13 C-16 10.03 -16 7.06 -16 4 C-15.34 4 -14.68 4 -14 4 C-14 3.01 -14 2.02 -14 1 C-14.99 0.67 -15.98 0.34 -17 0 C-15.39935157 -0.53154742 -13.79431126 -1.04988353 -12.1875 -1.5625 C-11.29417969 -1.85253906 -10.40085937 -2.14257812 -9.48046875 -2.44140625 C-5.78098501 -3.27451834 -3.20701324 -1.74927995 0 0 Z M0 3 C0.33 4.32 0.66 5.64 1 7 C1.33 6.01 1.66 5.02 2 4 C1.34 3.67 0.68 3.34 0 3 Z " fill="#E5741B" transform="translate(318,167)"/>
<path d="M0 0 C2.40614329 -0.0006757 4.81228651 -0.00164792 7.21842957 -0.00289917 C12.20413884 -0.00435769 17.18982997 -0.00227785 22.17553711 0.00244141 C28.57449909 0.00820327 34.97341971 0.00480787 41.37238026 -0.00113106 C46.31441057 -0.00473152 51.25643093 -0.0036016 56.19846153 -0.00100327 C58.56085909 -0.00033592 60.92325756 -0.00115572 63.28565407 -0.00348282 C66.56131048 -0.00600782 69.83689762 -0.00217391 73.11254883 0.00341797 C74.5764077 0.00038162 74.5764077 0.00038162 76.06983948 -0.00271606 C76.95649292 0.00010376 77.84314636 0.00292358 78.75666809 0.00582886 C79.52875516 0.00620588 80.30084223 0.00658291 81.09632587 0.00697136 C82.98046875 0.1328125 82.98046875 0.1328125 84.98046875 1.1328125 C87.52661884 1.36454077 90.054431 1.55175779 92.60546875 1.6953125 C93.66507812 1.76008789 93.66507812 1.76008789 94.74609375 1.82617188 C96.49065412 1.93226001 98.23553572 2.03304139 99.98046875 2.1328125 C99.98046875 2.4628125 99.98046875 2.7928125 99.98046875 3.1328125 C96.64715436 3.16218688 93.31387392 3.17973584 89.98046875 3.1953125 C89.04589844 3.20369141 88.11132812 3.21207031 87.1484375 3.22070312 C86.22675781 3.22392578 85.30507812 3.22714844 84.35546875 3.23046875 C83.09863281 3.23832397 83.09863281 3.23832397 81.81640625 3.24633789 C78.98046875 3.1328125 78.98046875 3.1328125 75.33114624 2.63380432 C71.0495686 2.08834865 66.84543062 1.99163438 62.53369141 2.00341797 C61.72882294 2.00166565 60.92395447 1.99991333 60.09469604 1.99810791 C57.44461879 1.99372611 54.79460915 1.99662171 52.14453125 2 C50.26443469 1.99932422 48.38433821 1.99835192 46.50424194 1.99710083 C42.55181043 1.99562737 38.59940153 1.99776088 34.64697266 2.00244141 C29.6900661 2.00803769 24.73321446 2.00483501 19.77630997 1.99898911 C-3.84083997 1.97554668 -27.41788607 2.24850576 -51.01953125 3.1328125 C-48.62255438 0.73583563 -47.98927852 0.85083065 -44.7077179 0.72341919 C-43.81117839 0.68535093 -42.91463888 0.64728268 -41.99093151 0.60806084 C-41.01077226 0.57771814 -40.030613 0.54737545 -39.02075195 0.51611328 C-37.48203289 0.45971522 -37.48203289 0.45971522 -35.91222858 0.40217781 C-23.94337714 0.00139958 -11.9742052 -0.01204442 0 0 Z " fill="#AE4334" transform="translate(161.01953125,28.8671875)"/>
<path d="M0 0 C8.78719635 -0.31989793 17.3682174 0.8924244 26.0625 2 C27.61126553 2.19321073 29.1600933 2.38592326 30.70898438 2.578125 C34.4733987 3.04633996 38.2369055 3.52129797 42 4 C42 4.33 42 4.66 42 5 C39.03 5 36.06 5 33 5 C33 5.99 33 6.98 33 8 C22.27807975 8.4519779 11.6459824 7.1148557 1 6 C1 5.67 1 5.34 1 5 C2.98 5 4.96 5 7 5 C6.67 4.01 6.34 3.02 6 2 C3.03 1.505 3.03 1.505 0 1 C0 0.67 0 0.34 0 0 Z " fill="#B94704" transform="translate(258,9)"/>
<path d="M0 0 C-0.24609375 1.8359375 -0.24609375 1.8359375 -1 4 C-2.78515625 5.3515625 -2.78515625 5.3515625 -5.0625 6.625 C-13.88318646 12.21518027 -18.83235982 20.20532313 -22 30 C-22.99 29.34 -23.98 28.68 -25 28 C-24.125 22.25 -24.125 22.25 -23 20 C-22.34 20 -21.68 20 -21 20 C-21 18.68 -21 17.36 -21 16 C-19 14.25 -19 14.25 -17 13 C-17.33 11.68 -17.66 10.36 -18 9 C-16.54405245 7.68485396 -15.08516421 6.37296283 -13.625 5.0625 C-12.81289063 4.33160156 -12.00078125 3.60070312 -11.1640625 2.84765625 C-7.40805795 -0.35918518 -4.8721345 -0.09022471 0 0 Z " fill="#B0480D" transform="translate(40,22)"/>
<path d="M0 0 C5.88999463 1.15490091 9.45823124 4.86621737 12.90234375 9.6328125 C14.6758442 12.38492525 16.36484372 15.16376243 18 18 C18.37640625 18.65097656 18.7528125 19.30195312 19.140625 19.97265625 C20 21.5625 20 21.5625 21 24 C20.67 24.66 20.34 25.32 20 26 C18 25 18 25 17 22 C16.34 21.67 15.68 21.34 15 21 C14.67 22.32 14.34 23.64 14 25 C13.68546875 24.33613281 13.3709375 23.67226563 13.046875 22.98828125 C9.37270558 15.40754012 5.57890354 10.23321872 -1 5 C-0.67 3.35 -0.34 1.7 0 0 Z " fill="#B34813" transform="translate(325,23)"/>
<path d="M0 0 C1.32 0 2.64 0 4 0 C3.67 0.99 3.34 1.98 3 3 C0.67793475 3.70491267 -1.65593068 4.37212429 -4 5 C-4.33 5.66 -4.66 6.32 -5 7 C-11.22529766 8.0205406 -17.29546415 8.0647381 -23.59375 7.9375 C-25.95194787 7.72244515 -25.95194787 7.72244515 -27 9 C-28.50114231 9.14495849 -30.00847336 9.22707323 -31.515625 9.28125 C-32.89814453 9.33732422 -32.89814453 9.33732422 -34.30859375 9.39453125 C-35.27925781 9.42933594 -36.24992187 9.46414062 -37.25 9.5 C-39.1511779 9.56927369 -41.05223102 9.64207973 -42.953125 9.71875 C-44.22397949 9.76418945 -44.22397949 9.76418945 -45.52050781 9.81054688 C-48.07980564 10.00609779 -50.48596037 10.4953681 -53 11 C-55.33301986 11.03824623 -57.66711508 11.04574284 -60 11 C-60 10.67 -60 10.34 -60 10 C-52.15245186 8.45255489 -44.32619205 7.40492797 -36.375 6.5625 C-27.29389148 5.56662836 -18.35257332 4.31958684 -9.390625 2.55078125 C-6.18837063 2.03059938 -3.23652982 1.89575594 0 2 C0 1.34 0 0.68 0 0 Z " fill="#AC3E1F" transform="translate(304,160)"/>
<path d="M0 0 C1.45833333 0.4375 2.91666667 0.875 4.375 1.3125 C5.29539062 1.58578125 6.21578125 1.8590625 7.1640625 2.140625 C8.91546788 2.6713539 10.66173192 3.21985881 12.3984375 3.796875 C19.479672 6.10239321 26.62143991 7.09628587 34 8 C33.01 8.33 32.02 8.66 31 9 C31 9.99 31 10.98 31 12 C28.625 12.125 28.625 12.125 26 12 C25.34 11.34 24.68 10.68 24 10 C22.14057941 10 20.28098608 10.00513712 18.421875 10.0390625 C13.26902071 9.95595195 7.39529365 9.84809295 3.1875 6.6015625 C1.3714251 4.48624799 0 2.86499312 0 0 Z " fill="#B74405" transform="translate(38,175)"/>
<path d="M0 0 C0.33 0 0.66 0 1 0 C0.99555878 0.55995163 0.99111755 1.11990326 0.98654175 1.69682312 C0.94189145 7.58667417 0.91196277 13.47647623 0.89013672 19.36645508 C0.88015156 21.55723019 0.86655875 23.74799223 0.84912109 25.9387207 C0.73724984 40.36682179 0.64193454 53.98460282 5.4140625 67.78125 C6.06954902 70.26335895 6.09900893 72.44376934 6 75 C6.66 75 7.32 75 8 75 C8 76.32 8 77.64 8 79 C8.66 79 9.32 79 10 79 C10.33 79.99 10.66 80.98 11 82 C7.1959535 80.36402175 5.71873273 78.54819135 3.9453125 74.75 C1.86663462 68.70293709 1.01497279 62.29671019 0 56 C-0.2623645 54.72237793 -0.2623645 54.72237793 -0.5300293 53.41894531 C-1.1696871 48.7655594 -1.14267758 44.18379259 -1.1328125 39.4921875 C-1.13376923 38.48914581 -1.13472595 37.48610413 -1.13571167 36.45266724 C-1.13639016 34.33970069 -1.13455901 32.22673203 -1.13037109 30.11376953 C-1.12500694 26.87918431 -1.13033309 23.64473724 -1.13671875 20.41015625 C-1.13605813 18.35416636 -1.1347773 16.29817656 -1.1328125 14.2421875 C-1.13483673 13.27546112 -1.13686096 12.30873474 -1.13894653 11.31271362 C-1.13579437 10.41142731 -1.13264221 9.51014099 -1.12939453 8.58154297 C-1.12859894 7.79133759 -1.12780334 7.0011322 -1.12698364 6.1869812 C-1.00035506 4.006115 -0.60149257 2.09539129 0 0 Z " fill="#AF3E75" transform="translate(33,72)"/>
<path d="M0 0 C4.95 0 9.9 0 15 0 C15 0.33 15 0.66 15 1 C4.90966046 3.52265192 -5.13168142 3.25634548 -15.44921875 3.1953125 C-17.31679634 3.19157561 -19.18437591 3.18873184 -21.05195618 3.18673706 C-25.93286693 3.17915377 -30.81365592 3.1595517 -35.69451904 3.1373291 C-40.6889074 3.11675553 -45.68331572 3.10771088 -50.67773438 3.09765625 C-60.45187599 3.0763001 -70.22592781 3.0422293 -80 3 C-80 2.67 -80 2.34 -80 2 C-53.6 2 -27.2 2 0 2 C0 1.34 0 0.68 0 0 Z " fill="#A83850" transform="translate(240,168)"/>
<path d="M0 0 C-2 3 -2 3 -3.93359375 3.73046875 C-10.30928262 4.89420603 -16.59582733 5.23281473 -23.0625 5.3125 C-23.90804443 5.33014404 -24.75358887 5.34778809 -25.62475586 5.3659668 C-28.03515625 5.36328125 -28.03515625 5.36328125 -32 5 C-32.66 4.01 -33.32 3.02 -34 2 C-22.64650681 0.78913248 -11.43227487 -0.38178283 0 0 Z " fill="#B24704" transform="translate(101,28)"/>
<path d="M0 0 C0.33 0 0.66 0 1 0 C1.03758423 1.80017578 1.03758423 1.80017578 1.07592773 3.63671875 C1.17056534 8.11712118 1.27064525 12.59738879 1.37231445 17.07763672 C1.41545128 19.01152376 1.45713996 20.94544369 1.49731445 22.87939453 C1.5555356 25.66969691 1.6190767 28.45983693 1.68359375 31.25 C1.70866249 32.533302 1.70866249 32.533302 1.73423767 33.8425293 C1.85882017 38.96598045 2.31973014 43.92119812 3 49 C3.06349798 51.4992803 3.08653818 54.00002876 3.0625 56.5 C3.05347656 57.7271875 3.04445313 58.954375 3.03515625 60.21875 C3.01775391 61.59546875 3.01775391 61.59546875 3 63 C1.14487102 59.79950168 0.64660398 57.18497073 0.3671875 53.51171875 C0.24114136 51.87952393 0.24114136 51.87952393 0.11254883 50.21435547 C0.03415771 49.05049316 -0.0442334 47.88663086 -0.125 46.6875 C-0.20919189 45.49012207 -0.29338379 44.29274414 -0.38012695 43.05908203 C-0.89499484 35.16235457 -1.18094761 27.28832606 -1.1875 19.375 C-1.18830566 18.45936279 -1.18911133 17.54372559 -1.18994141 16.6003418 C-1.14332053 11.00013878 -0.70436447 5.55602697 0 0 Z " fill="#A1522A" transform="translate(8,80)"/>
<path d="M0 0 C1.32 0 2.64 0 4 0 C4.226875 0.804375 4.45375 1.60875 4.6875 2.4375 C5.79576836 5.44565697 6.9843626 7.72324435 8.625 10.4375 C11.03046811 14.59945362 11.50501643 17.25284556 11 22 C10.01 22 9.02 22 8 22 C7.03654556 20.12762629 6.07946898 18.2519701 5.125 16.375 C4.59132813 15.33085937 4.05765625 14.28671875 3.5078125 13.2109375 C1.35977893 8.63662768 0 5.08303476 0 0 Z " fill="#B34304" transform="translate(29,135)"/>
<path d="M0 0 C0.495 0.99 0.495 0.99 1 2 C-11.34584137 2.67707648 -23.63407511 3.1574163 -36 3 C-36 3.66 -36 4.32 -36 5 C-37.98 5.66 -39.96 6.32 -42 7 C-42.66 6.34 -43.32 5.68 -44 5 C-46.32275177 4.59952556 -48.65739357 4.2602896 -51 4 C-51 3.67 -51 3.34 -51 3 C-33.98075973 1.09458506 -17.13738882 -0.20510173 0 0 Z " fill="#AA542A" transform="translate(124,8)"/>
<path d="M0 0 C6.75 0.75 6.75 0.75 9 3 C8.625 6.625 8.625 6.625 8 10 C9.65 10 11.3 10 13 10 C13 10.33 13 10.66 13 11 C4.585 11.495 4.585 11.495 -4 12 C-4 11.67 -4 11.34 -4 11 C-1.69 10.34 0.62 9.68 3 9 C2.319375 8.443125 1.63875 7.88625 0.9375 7.3125 C0.298125 6.549375 -0.34125 5.78625 -1 5 C-0.75 2.25 -0.75 2.25 0 0 Z " fill="#D76415" transform="translate(256,175)"/>
<path d="M0 0 C2.97 0 5.94 0 9 0 C9 0.33 9 0.66 9 1 C20.22 1 31.44 1 43 1 C43 1.33 43 1.66 43 2 C38.66251332 2.40977145 34.32494492 2.8186646 29.98730469 3.22680664 C28.51723085 3.36524768 27.04717808 3.50391272 25.57714844 3.64282227 C16.72195856 4.47941421 7.86618396 5.28666554 -1 6 C-1 5.34 -1 4.68 -1 4 C0.32 3.67 1.64 3.34 3 3 C3 2.34 3 1.68 3 1 C2.01 0.67 1.02 0.34 0 0 Z " fill="#B2432A" transform="translate(61,31)"/>
<path d="M0 0 C3.3125 -0.25 3.3125 -0.25 7 0 C9 1.75 9 1.75 10 4 C9.875 6.125 9.875 6.125 9 8 C5.79593538 10.13604308 5.00399253 10.24208908 1.33203125 10.1953125 C0.43935547 10.18886719 -0.45332031 10.18242187 -1.37304688 10.17578125 C-2.76620117 10.15064453 -2.76620117 10.15064453 -4.1875 10.125 C-5.12787109 10.11597656 -6.06824219 10.10695312 -7.03710938 10.09765625 C-9.35832968 10.07409056 -11.67903644 10.04119116 -14 10 C-14 9.67 -14 9.34 -14 9 C-9.05 8.67 -4.1 8.34 1 8 C1 5.16032769 0.59732819 2.76264289 0 0 Z " fill="#D36113" transform="translate(146,179)"/>
<path d="M0 0 C1.859375 0.24609375 1.859375 0.24609375 4 1 C5.265625 2.84765625 5.265625 2.84765625 6.25 5.0625 C6.75273437 6.16271484 6.75273437 6.16271484 7.265625 7.28515625 C7.50796875 7.85105469 7.7503125 8.41695312 8 9 C8.33 9 8.66 9 9 9 C9 11.64 9 14.28 9 17 C9.66 17 10.32 17 11 17 C11.96093685 33.00989437 12.11862496 48.96373068 12 65 C11.67 65 11.34 65 11 65 C10.95512451 63.82606689 10.91024902 62.65213379 10.86401367 61.44262695 C10.69190266 57.02686185 10.50340019 52.61191446 10.31030273 48.19702148 C10.22943283 46.29746301 10.1528257 44.39771751 10.08081055 42.49780273 C9.49557402 27.17267804 8.76199482 13.14299223 0 0 Z " fill="#AA3E2F" transform="translate(316,47)"/>
<path d="M0 0 C2 3 2 3 3 6 C-0.84919283 10.33034194 -4.72289646 12.6560756 -10 15 C-10.66 14.34 -11.32 13.68 -12 13 C-11.505 12.566875 -11.01 12.13375 -10.5 11.6875 C-8.66781808 10.00259517 -8.66781808 10.00259517 -9 7 C-8.01 7 -7.02 7 -6 7 C-6 6.34 -6 5.68 -6 5 C-4.04072937 3.2856382 -2.04119788 1.61594832 0 0 Z " fill="#AB3E02" transform="translate(318,151)"/>
<path d="M0 0 C9.69527822 -0.19219715 19.32867432 0.40418676 29 1 C29 1.66 29 2.32 29 3 C29.60585938 3.02578125 30.21171875 3.0515625 30.8359375 3.078125 C37.51604747 3.53031706 42.92814517 5.22244939 49 8 C49 8.66 49 9.32 49 10 C47.783125 9.566875 46.56625 9.13375 45.3125 8.6875 C32.75289321 4.57849284 20.50478152 3.20960832 7.38085938 2.24951172 C4.87620189 1.98702608 2.46077092 1.529886 0 1 C0 0.67 0 0.34 0 0 Z " fill="#AE4037" transform="translate(261,32)"/>
<path d="M0 0 C0.66 0.33 1.32 0.66 2 1 C-4.7446939 9.30440437 -11.7926557 15.39989931 -22 19 C-22.66 19 -23.32 19 -24 19 C-24 18.34 -24 17.68 -24 17 C-23.01 17 -22.02 17 -21 17 C-20.67 16.01 -20.34 15.02 -20 14 C-18.68 14.33 -17.36 14.66 -16 15 C-16 13.68 -16 12.36 -16 11 C-11.56 8.04 -11.56 8.04 -9 7 C-8.01 7.33 -7.02 7.66 -6 8 C-5.67 7.01 -5.34 6.02 -5 5 C-4.34 5 -3.68 5 -3 5 C-3 4.01 -3 3.02 -3 2 C-2.01 2 -1.02 2 0 2 C0 1.34 0 0.68 0 0 Z " fill="#A44115" transform="translate(338,164)"/>
<path d="M0 0 C-1 2 -1 2 -2.98046875 3.0859375 C-7.08807809 4.32937939 -11.04201872 4.46321381 -15.3125 4.625 C-16.56643555 4.68300781 -16.56643555 4.68300781 -17.84570312 4.7421875 C-19.89679259 4.83595159 -21.94836515 4.91904245 -24 5 C-24.33 4.34 -24.66 3.68 -25 3 C-24.67 2.34 -24.34 1.68 -24 1 C-16.29107532 -0.78027454 -7.84876 -0.10178507 0 0 Z " fill="#B64407" transform="translate(118,10)"/>
<path d="M0 0 C0.80566406 0.00322266 1.61132812 0.00644531 2.44140625 0.00976562 C3.70404297 0.02233398 3.70404297 0.02233398 4.9921875 0.03515625 C5.84167969 0.03966797 6.69117188 0.04417969 7.56640625 0.04882812 C9.66669659 0.06062751 11.7669508 0.07856319 13.8671875 0.09765625 C13.8671875 0.42765625 13.8671875 0.75765625 13.8671875 1.09765625 C2.20427426 2.97581675 -9.27446946 3.50755492 -21.0703125 3.72265625 C-22.83269898 3.76095841 -24.5950692 3.80001657 -26.35742188 3.83984375 C-30.61574892 3.93446699 -34.8741625 4.01896415 -39.1328125 4.09765625 C-32.03770173 0.1880446 -23.5806211 0.98075027 -15.6953125 1.09765625 C-13.92584151 1.12309796 -12.15630028 1.14415401 -10.38671875 1.16015625 C-9.61658447 1.17175781 -8.8464502 1.18335938 -8.05297852 1.1953125 C-5.17645108 1.0490174 -3.02678105 -0.02131536 0 0 Z " fill="#A43094" transform="translate(267.1328125,164.90234375)"/>
<path d="M0 0 C2.89589652 -0.02706445 5.79153795 -0.04687029 8.6875 -0.0625 C9.91243164 -0.07506836 9.91243164 -0.07506836 11.16210938 -0.08789062 C11.95810547 -0.09111328 12.75410156 -0.09433594 13.57421875 -0.09765625 C14.66609497 -0.10551147 14.66609497 -0.10551147 15.7800293 -0.11352539 C18.26536988 0.01357055 20.56376407 0.49957639 23 1 C24.71754702 1.18061078 26.43806051 1.33455833 28.16015625 1.46484375 C29.11857422 1.54283203 30.07699219 1.62082031 31.06445312 1.70117188 C33.06673153 1.8590062 35.06934558 2.01263773 37.07226562 2.16210938 C38.50795898 2.28102539 38.50795898 2.28102539 39.97265625 2.40234375 C40.84156494 2.46929443 41.71047363 2.53624512 42.60571289 2.60522461 C45 3 45 3 49 5 C44.38 5 39.76 5 35 5 C35 4.34 35 3.68 35 3 C34.44014404 3.00523682 33.88028809 3.01047363 33.3034668 3.01586914 C30.76482263 3.03666691 28.22619641 3.04966904 25.6875 3.0625 C24.36588867 3.07506836 24.36588867 3.07506836 23.01757812 3.08789062 C22.17001953 3.09111328 21.32246094 3.09433594 20.44921875 3.09765625 C19.27879028 3.10551147 19.27879028 3.10551147 18.0847168 3.11352539 C16 3 16 3 13 2 C10.77425665 1.77548542 8.54418481 1.59217122 6.3125 1.4375 C5.13300781 1.35371094 3.95351562 1.26992188 2.73828125 1.18359375 C1.83464844 1.12300781 0.93101562 1.06242187 0 1 C0 0.67 0 0.34 0 0 Z " fill="#C850A7" transform="translate(243,32)"/>
<path d="M0 0 C7.59 0 15.18 0 23 0 C23 0.99 23 1.98 23 3 C24.32 3.33 25.64 3.66 27 4 C8.28102688 4.38029517 8.28102688 4.38029517 0 2 C0 1.34 0 0.68 0 0 Z " fill="#B84104" transform="translate(207,9)"/>
<path d="M0 0 C-4.625 3 -4.625 3 -8 3 C-8 3.66 -8 4.32 -8 5 C-12.95 5 -17.9 5 -23 5 C-23.33 4.01 -23.66 3.02 -24 2 C-20.75198175 1.46626918 -17.50138509 0.95028732 -14.25 0.4375 C-13.32960938 0.28603516 -12.40921875 0.13457031 -11.4609375 -0.02148438 C-10.12675781 -0.2293457 -10.12675781 -0.2293457 -8.765625 -0.44140625 C-7.94868164 -0.57232666 -7.13173828 -0.70324707 -6.29003906 -0.83813477 C-3.93889793 -1.00431883 -2.23573504 -0.70259545 0 0 Z " fill="#BA4807" transform="translate(302,182)"/>
<path d="M0 0 C0.33 0 0.66 0 1 0 C2.06012385 5.49336904 2.14261685 7.89275881 -0.25415039 13.07983398 C-1.53273029 16.37149714 -1.75277777 19.75502918 -2.0625 23.25 C-2.74086818 30.61130228 -2.74086818 30.61130228 -5 34 C-4.63167408 8.81095208 -4.63167408 8.81095208 0 0 Z " fill="#B9489F" transform="translate(38,53)"/>
<path d="M0 0 C1.99954746 -0.04254356 4.00041636 -0.04080783 6 0 C6.33 0.33 6.66 0.66 7 1 C6.91062197 2.52519276 6.75462854 4.04681929 6.5625 5.5625 C6.46066406 6.38878906 6.35882813 7.21507812 6.25390625 8.06640625 C6.12822266 9.02353516 6.12822266 9.02353516 6 10 C4.1875 10.625 4.1875 10.625 2 11 C1.01 10.34 0.02 9.68 -1 9 C-0.67 6.03 -0.34 3.06 0 0 Z " fill="#D66613" transform="translate(338,124)"/>
<path d="M0 0 C1.65 0.33 3.3 0.66 5 1 C3.96552339 3.93101707 2.83489928 6.23966234 1.0625 8.8125 C-1.30449623 12.47058508 -2.58303343 15.89079696 -4 20 C-4.99 19.34 -5.98 18.68 -7 18 C-6.125 12.25 -6.125 12.25 -5 10 C-4.34 10 -3.68 10 -3 10 C-3 8.68 -3 7.36 -3 6 C-1 4.25 -1 4.25 1 3 C0.67 2.01 0.34 1.02 0 0 Z " fill="#B94504" transform="translate(22,32)"/>
<path d="M0 0 C5.28 0.33 10.56 0.66 16 1 C16 2.65 16 4.3 16 6 C14.22950311 6.05410687 12.45853151 6.09284119 10.6875 6.125 C9.20830078 6.15980469 9.20830078 6.15980469 7.69921875 6.1953125 C5 6 5 6 2 4 C2.33 3.34 2.66 2.68 3 2 C2.01 1.34 1.02 0.68 0 0 Z " fill="#AB3E04" transform="translate(288,13)"/>
<path d="M0 0 C8.78719635 -0.31989793 17.3682174 0.8924244 26.0625 2 C27.61126553 2.19321073 29.1600933 2.38592326 30.70898438 2.578125 C34.4733987 3.04633996 38.2369055 3.52129797 42 4 C42 4.33 42 4.66 42 5 C37.89584811 5.02898097 33.79172247 5.0467922 29.6875 5.0625 C28.52025391 5.07087891 27.35300781 5.07925781 26.15039062 5.08789062 C24.47299805 5.09272461 24.47299805 5.09272461 22.76171875 5.09765625 C21.2142395 5.10551147 21.2142395 5.10551147 19.63549805 5.11352539 C17 5 17 5 14 4 C14 3.34 14 2.68 14 2 C7.07 1.505 7.07 1.505 0 1 C0 0.67 0 0.34 0 0 Z " fill="#B26136" transform="translate(258,9)"/>
<path d="M0 0 C1.4540625 0.0309375 1.4540625 0.0309375 2.9375 0.0625 C4.29189668 2.77129335 4.00251451 5.07183268 3.9375 8.0625 C1.625 8.6875 1.625 8.6875 -1.0625 9.0625 C-2.0525 8.4025 -3.0425 7.7425 -4.0625 7.0625 C-4.3125 4 -4.3125 4 -4.0625 1.0625 C-3.0625 0.0625 -3.0625 0.0625 0 0 Z " fill="#DC6B12" transform="translate(21.0625,65.9375)"/>
<path d="M0 0 C2.64 0 5.28 0 8 0 C8.625 2.875 8.625 2.875 9 6 C8.34 6.66 7.68 7.32 7 8 C3.375 7.625 3.375 7.625 0 7 C0 4.69 0 2.38 0 0 Z " fill="#DE6E13" transform="translate(213,14)"/>
<path d="M0 0 C0.66 0 1.32 0 2 0 C1.67 3.63 1.34 7.26 1 11 C0.34 11 -0.32 11 -1 11 C-1.33 12.98 -1.66 14.96 -2 17 C-3.5390625 15.7734375 -3.5390625 15.7734375 -5 14 C-4.90673801 9.01981 -3.03466657 3.91977765 0 0 Z " fill="#A93F04" transform="translate(344,142)"/>
<path d="M0 0 C1.86306266 2.79459399 3.46318545 5.61143065 5.0625 8.5625 C5.58972656 9.53316406 6.11695313 10.50382813 6.66015625 11.50390625 C7.45920289 12.99250917 8.24443211 14.48886422 9 16 C8.34 16.66 7.68 17.32 7 18 C5.125 17.4375 5.125 17.4375 3 16 C2.25740651 13.68970915 1.588562 11.354248 1 9 C0.34 8.34 -0.32 7.68 -1 7 C-0.625 3.375 -0.625 3.375 0 0 Z " fill="#B74504" transform="translate(18,151)"/>
<path d="M0 0 C0.66 0 1.32 0 2 0 C2.07476562 0.556875 2.14953125 1.11375 2.2265625 1.6875 C3.21402226 7.41863902 5.05981825 10.68622404 8.734375 15.13671875 C10.5279323 17.77723366 10.46397634 19.90682443 10 23 C3.59984695 17.28216604 0.57630174 8.45242558 0 0 Z " fill="#A34B21" transform="translate(11,144)"/>
<path d="M0 0 C0 0.66 0 1.32 0 2 C-1.98 2 -3.96 2 -6 2 C-6 2.99 -6 3.98 -6 5 C-11.20333134 7.24281523 -14.34264585 8.55577239 -20 7 C-16.85988091 4.36562124 -13.88491259 3.07995273 -10 1.8125 C-8.96875 1.46832031 -7.9375 1.12414062 -6.875 0.76953125 C-4 0 -4 0 0 0 Z " fill="#B15B31" transform="translate(54,15)"/>
<path d="M0 0 C0.66 0.33 1.32 0.66 2 1 C1.67 1.99 1.34 2.98 1 4 C-0.32 4 -1.64 4 -3 4 C-3 5.32 -3 6.64 -3 8 C-4.32 8 -5.64 8 -7 8 C-7.33 8.66 -7.66 9.32 -8 10 C-8.99 10 -9.98 10 -11 10 C-11 10.66 -11 11.32 -11 12 C-11.99 11.67 -12.98 11.34 -14 11 C-14 10.01 -14 9.02 -14 8 C-13.15695312 7.59007812 -12.31390625 7.18015625 -11.4453125 6.7578125 C-10.34960938 6.21898437 -9.25390625 5.68015625 -8.125 5.125 C-6.48917969 4.32449219 -6.48917969 4.32449219 -4.8203125 3.5078125 C-1.96117453 2.15464063 -1.96117453 2.15464063 0 0 Z " fill="#A93C04" transform="translate(325,171)"/>
<path d="M0 0 C2.375 -0.125 2.375 -0.125 5 0 C7.35953094 2.35953094 7.49141413 3.77895617 8 7 C5.36 7.66 2.72 8.32 0 9 C0 6.03 0 3.06 0 0 Z " fill="#D56611" transform="translate(302,172)"/>
<path d="M0 0 C0.33 0 0.66 0 1 0 C4.25968109 14.59681093 4.25968109 14.59681093 5 22 C5.66 22 6.32 22 7 22 C7 23.32 7 24.64 7 26 C7.66 26 8.32 26 9 26 C9.33 26.99 9.66 27.98 10 29 C5.85825809 27.25838886 4.71468869 25.3840294 2.8828125 21.41015625 C0.34065277 14.4698352 -0.27675777 7.33408094 0 0 Z " fill="#AA3588" transform="translate(34,125)"/>
<path d="M0 0 C0.66 0.33 1.32 0.66 2 1 C0.07848152 5.13126473 -2.04250209 8.53258866 -5 12 C-5.99 11.67 -6.98 11.34 -8 11 C-8.375 8.75 -8.375 8.75 -8 6 C-5.125 3.8125 -5.125 3.8125 -2 2 C-1.34 1.34 -0.68 0.68 0 0 Z " fill="#BC4ABD" transform="translate(47,47)"/>
<path d="M0 0 C-1.125 2.5 -1.125 2.5 -3 5 C-6.1875 5.3125 -6.1875 5.3125 -9 5 C-9.103125 4.360625 -9.20625 3.72125 -9.3125 3.0625 C-9.539375 2.381875 -9.76625 1.70125 -10 1 C-10.99 0.67 -11.98 0.34 -13 0 C-11.58456585 -0.19658808 -10.16755969 -0.38187546 -8.75 -0.5625 C-7.96109375 -0.66691406 -7.1721875 -0.77132813 -6.359375 -0.87890625 C-3.99467126 -1.00027349 -2.2488963 -0.69633257 0 0 Z " fill="#D4690F" transform="translate(90,16)"/>
<path d="M0 0 C0.99 0.33 1.98 0.66 3 1 C3 1.99 3 2.98 3 4 C3.99 4.33 4.98 4.66 6 5 C6.20086443 8.71599191 6.1519437 9.77208445 4 13 C3.34 13 2.68 13 2 13 C0.54815522 8.46298506 -0.23509196 4.81938524 0 0 Z " fill="#B03F02" transform="translate(340,44)"/>
<path d="M0 0 C0.5775 0.165 1.155 0.33 1.75 0.5 C4.26664369 1.14462031 4.26664369 1.14462031 8 1 C10.75 3.5 10.75 3.5 13 6 C10.60042386 6.84119973 9.35077442 7.11193544 6.89453125 6.328125 C6.20746094 5.97234375 5.52039063 5.6165625 4.8125 5.25 C4.11769531 4.90453125 3.42289063 4.5590625 2.70703125 4.203125 C1 3 1 3 0 0 Z " fill="#AA4209" transform="translate(21,167)"/>
<path d="M0 0 C0.66 0.66 1.32 1.32 2 2 C1.27554688 2.03738281 0.55109375 2.07476562 -0.1953125 2.11328125 C-5.88363826 2.5000874 -9.95624042 3.15480229 -15 6 C-15.66 5.67 -16.32 5.34 -17 5 C-17 4.34 -17 3.68 -17 3 C-17.66 2.67 -18.32 2.34 -19 2 C-12.6103233 0.68447833 -6.53557462 -0.47531452 0 0 Z " fill="#B05429" transform="translate(73,12)"/>
<path d="M0 0 C5.23880078 0.55145271 9.97350697 1.42922093 15 3 C15 3.33 15 3.66 15 4 C12.69 4 10.38 4 8 4 C7.67 4.99 7.34 5.98 7 7 C6.01 7 5.02 7 4 7 C4 6.34 4 5.68 4 5 C3.34 5 2.68 5 2 5 C2 4.01 2 3.02 2 2 C1.34 2 0.68 2 0 2 C0 1.34 0 0.68 0 0 Z " fill="#A73C15" transform="translate(52,161)"/>
<path d="M0 0 C3.58450505 0.27827785 7.16725737 0.57494531 10.75 0.875 C11.76578125 0.95363281 12.7815625 1.03226563 13.828125 1.11328125 C14.8078125 1.19707031 15.7875 1.28085938 16.796875 1.3671875 C17.69760742 1.44050293 18.59833984 1.51381836 19.52636719 1.58935547 C22 2 22 2 26 4 C13.13 3.505 13.13 3.505 0 3 C0 2.01 0 1.02 0 0 Z " fill="#AB3E39" transform="translate(67,164)"/>
<path d="M0 0 C0.66 0.33 1.32 0.66 2 1 C0.423671 4.32780566 -0.47076594 5.75839315 -3.875 7.3125 C-6.71794995 7.93794899 -9.10533028 8.17027469 -12 8 C-12 7.01 -12 6.02 -12 5 C-9.195261 3.76261515 -6.79629321 2.96866049 -3.75 2.5 C-2.38875 2.2525 -2.38875 2.2525 -1 2 C-0.67 1.34 -0.34 0.68 0 0 Z " fill="#A83B04" transform="translate(308,160)"/>
<path d="M0 0 C2.27057377 -0.05398987 4.54151288 -0.09278742 6.8125 -0.125 C8.07707031 -0.14820313 9.34164062 -0.17140625 10.64453125 -0.1953125 C14 0 14 0 17 2 C13.36576791 4.32590854 10.22911669 4.16265833 6 4 C6 3.34 6 2.68 6 2 C3.03 1.505 3.03 1.505 0 1 C0 0.67 0 0.34 0 0 Z " fill="#B9460B" transform="translate(218,188)"/>
<path d="M0 0 C2 3 2 3 3 6 C2.34 6.66 1.68 7.32 1 8 C1 7.34 1 6.68 1 6 C-0.98 6 -2.96 6 -5 6 C-5.33 6.99 -5.66 7.98 -6 9 C-7.32 8.67 -8.64 8.34 -10 8 C-8.68 7.67 -7.36 7.34 -6 7 C-6 6.34 -6 5.68 -6 5 C-4.04072937 3.2856382 -2.04119788 1.61594832 0 0 Z " fill="#AF422A" transform="translate(318,151)"/>
<path d="M0 0 C0.33 0 0.66 0 1 0 C1.02692484 2.29160319 1.04636124 4.58329546 1.0625 6.875 C1.07410156 8.15117187 1.08570313 9.42734375 1.09765625 10.7421875 C1 14 1 14 0 16 C-1.32 16.33 -2.64 16.66 -4 17 C-2.68 11.39 -1.36 5.78 0 0 Z " fill="#AD461A" transform="translate(324,132)"/>
<path d="M0 0 C0.99 0.99 1.98 1.98 3 3 C1.625 4.5 1.625 4.5 0 6 C-0.66 6 -1.32 6 -2 6 C-2 7.32 -2 8.64 -2 10 C-2.66 10 -3.32 10 -4 10 C-4.33 11.32 -4.66 12.64 -5 14 C-5.66 14 -6.32 14 -7 14 C-5.53967505 8.68972746 -3.01679014 4.53669968 0 0 Z " fill="#AC5627" transform="translate(21,32)"/>
<path d="M0 0 C1.60294922 0.01353516 1.60294922 0.01353516 3.23828125 0.02734375 C4.04652344 0.03894531 4.85476563 0.05054688 5.6875 0.0625 C5.6875 0.3925 5.6875 0.7225 5.6875 1.0625 C3.3775 1.3925 1.0675 1.7225 -1.3125 2.0625 C-0.6525 2.7225 0.0075 3.3825 0.6875 4.0625 C-0.74989513 4.08962066 -2.18743863 4.10895067 -3.625 4.125 C-4.82576172 4.14240234 -4.82576172 4.14240234 -6.05078125 4.16015625 C-8.3125 4.0625 -8.3125 4.0625 -11.3125 3.0625 C-11.3125 2.4025 -11.3125 1.7425 -11.3125 1.0625 C-7.47525828 0.15836327 -3.93747726 -0.04326898 0 0 Z " fill="#AB3B04" transform="translate(258.3125,186.9375)"/>
<path d="M0 0 C2.9389507 0.0868803 5.87481289 0.19373767 8.8125 0.3125 C9.64587891 0.33505859 10.47925781 0.35761719 11.33789062 0.38085938 C12.54155273 0.4340332 12.54155273 0.4340332 13.76953125 0.48828125 C14.87711792 0.52755737 14.87711792 0.52755737 16.00708008 0.56762695 C18.47166391 1.10232963 19.40052324 2.09965347 21 4 C17.95501389 4.95827504 15.97726069 4.99431517 12.890625 4.22265625 C11.75947266 3.94711914 11.75947266 3.94711914 10.60546875 3.66601562 C9.82816406 3.46685547 9.05085938 3.26769531 8.25 3.0625 C7.06083984 2.76956055 7.06083984 2.76956055 5.84765625 2.47070312 C3.89637115 1.98875921 1.94789217 1.49547912 0 1 C0 0.67 0 0.34 0 0 Z " fill="#A94F21" transform="translate(44,183)"/>
<path d="M0 0 C2.1875 0.3125 2.1875 0.3125 4 1 C3.34 1 2.68 1 2 1 C2 1.66 2 2.32 2 3 C-1.08809695 4.76462683 -2.23312136 5 -6 5 C-6 5.66 -6 6.32 -6 7 C-9.63 7.33 -13.26 7.66 -17 8 C-13.90785395 4.90785395 -10.04076286 4.77051458 -5.84765625 3.87890625 C-2.93617746 2.98030169 -1.98816089 2.18574209 0 0 Z " fill="#A33290" transform="translate(310,155)"/>
<path d="M0 0 C0.66 0 1.32 0 2 0 C1.52412884 6.02770138 -1.19722957 10.76678289 -4 16 C-4.12375 15.360625 -4.2475 14.72125 -4.375 14.0625 C-4.58125 13.381875 -4.7875 12.70125 -5 12 C-5.66 11.67 -6.32 11.34 -7 11 C-6.01 10.34 -5.02 9.68 -4 9 C-2.80767387 6.94996045 -2.80767387 6.94996045 -2 5 C-1.34 5 -0.68 5 0 5 C0 3.35 0 1.7 0 0 Z " fill="#A8522A" transform="translate(345,148)"/>
<path d="M0 0 C2.475 0.99 2.475 0.99 5 2 C5 2.66 5 3.32 5 4 C5.99 4.33 6.98 4.66 8 5 C7.34 6.32 6.68 7.64 6 9 C5.01 8.67 4.02 8.34 3 8 C3 7.01 3 6.02 3 5 C2.01 4.67 1.02 4.34 0 4 C0 2.68 0 1.36 0 0 Z " fill="#B440B8" transform="translate(308,46)"/>
<path d="M0 0 C0.66 0.33 1.32 0.66 2 1 C0.92173635 2.27513763 -0.16285519 3.54492569 -1.25 4.8125 C-1.85328125 5.52019531 -2.4565625 6.22789062 -3.078125 6.95703125 C-4.92370398 8.91889671 -6.79945332 10.45669625 -9 12 C-9.33 10.68 -9.66 9.36 -10 8 C-8.68 8 -7.36 8 -6 8 C-5.67 7.01 -5.34 6.02 -5 5 C-4.34 5 -3.68 5 -3 5 C-3 4.01 -3 3.02 -3 2 C-2.01 2 -1.02 2 0 2 C0 1.34 0 0.68 0 0 Z " fill="#A75024" transform="translate(338,164)"/>
<path d="M0 0 C-1.98 0.99 -1.98 0.99 -4 2 C-4 2.66 -4 3.32 -4 4 C-5.27875 4.061875 -6.5575 4.12375 -7.875 4.1875 C-8.59429687 4.22230469 -9.31359375 4.25710937 -10.0546875 4.29296875 C-10.69664063 4.19628906 -11.33859375 4.09960938 -12 4 C-12.66 3.01 -13.32 2.02 -14 1 C-4.58997722 -0.14806378 -4.58997722 -0.14806378 0 0 Z " fill="#BB4E03" transform="translate(81,29)"/>
<path d="M0 0 C3.96480297 1.67741664 6.84041677 4.12126862 10 7 C10.33 7.99 10.66 8.98 11 10 C10.34 10 9.68 10 9 10 C9 9.34 9 8.68 9 8 C7.88625 7.9071875 7.88625 7.9071875 6.75 7.8125 C3.14877223 6.74850088 2.03243704 5.08629328 0 2 C0 1.34 0 0.68 0 0 Z " fill="#B36038" transform="translate(326,23)"/>
<path d="M0 0 C3.125 -0.1875 3.125 -0.1875 6 0 C5.875 1.8125 5.875 1.8125 5 4 C1.9375 5.75 1.9375 5.75 -1 7 C-1.625 5.1875 -1.625 5.1875 -2 3 C-1.34 2.01 -0.68 1.02 0 0 Z " fill="#A63F05" transform="translate(34,22)"/>
<path d="M0 0 C-1.32 0.33 -2.64 0.66 -4 1 C-4 1.66 -4 2.32 -4 3 C-9.28 3 -14.56 3 -20 3 C-20 2.67 -20 2.34 -20 2 C-6.3667426 -0.29612756 -6.3667426 -0.29612756 0 0 Z " fill="#A93A44" transform="translate(292,164)"/>
<path d="M0 0 C6.90352555 -0.51137226 11.74827614 1.13035626 18 4 C18 4.66 18 5.32 18 6 C17.45472656 5.80664062 16.90945313 5.61328125 16.34765625 5.4140625 C10.9561948 3.55239547 5.59078274 2.12344334 0 1 C0 0.67 0 0.34 0 0 Z " fill="#B24541" transform="translate(292,36)"/>
<path d="M0 0 C2.15478516 -0.2487793 2.15478516 -0.2487793 4.7890625 -0.07421875 C5.73007813 -0.01943359 6.67109375 0.03535156 7.640625 0.09179688 C8.62546875 0.16462891 9.6103125 0.23746094 10.625 0.3125 C12.11386719 0.4043457 12.11386719 0.4043457 13.6328125 0.49804688 C16.08976785 0.65160658 18.54490157 0.81948735 21 1 C21 1.33 21 1.66 21 2 C13.41 2.33 5.82 2.66 -2 3 C-1.34 2.01 -0.68 1.02 0 0 Z " fill="#DD731B" transform="translate(94,25)"/>
<path d="M0 0 C1.52519276 0.08937803 3.04681929 0.24537146 4.5625 0.4375 C5.38878906 0.53933594 6.21507812 0.64117187 7.06640625 0.74609375 C7.70449219 0.82988281 8.34257812 0.91367188 9 1 C5.7188698 3.18742014 3.66915644 3.54442806 -0.1875 4.125 C-1.27417969 4.29257813 -2.36085938 4.46015625 -3.48046875 4.6328125 C-4.31191406 4.75398437 -5.14335937 4.87515625 -6 5 C-4 3 -4 3 -1 1 C-0.67 0.67 -0.34 0.34 0 0 Z " fill="#A64C21" transform="translate(304,182)"/>
<path d="M0 0 C0.66 0 1.32 0 2 0 C2 0.66 2 1.32 2 2 C2.66 2 3.32 2 4 2 C3.67 3.32 3.34 4.64 3 6 C3.66 6 4.32 6 5 6 C5.33 7.65 5.66 9.3 6 11 C3.17621961 9.96461386 2.1756855 9.33380245 0.75 6.625 C0 4 0 4 0 0 Z " fill="#AF3E05" transform="translate(333,31)"/>
<path d="M0 0 C0 0.66 0 1.32 0 2 C0.99 2.33 1.98 2.66 3 3 C3 3.66 3 4.32 3 5 C-1.38332057 4.17812739 -5.67940177 3.09845718 -10 2 C-9.38382813 1.84660156 -8.76765625 1.69320312 -8.1328125 1.53515625 C-6.71120619 1.17845283 -5.29187523 0.81255521 -3.875 0.4375 C-2 0 -2 0 0 0 Z " fill="#A3317B" transform="translate(62,159)"/>
<path d="M0 0 C2.04219706 1.69179328 2.91793306 2.63727666 3.51171875 5.26171875 C3.56972656 6.06222656 3.62773437 6.86273438 3.6875 7.6875 C3.75324219 8.49574219 3.81898438 9.30398437 3.88671875 10.13671875 C3.92410156 10.75160156 3.96148437 11.36648437 4 12 C1.36170741 10.68085371 1.01736771 9.76142665 0 7 C-0.0777346 4.66796188 -0.08967728 2.33160941 0 0 Z " fill="#C24AAE" transform="translate(318,50)"/>
<path d="M0 0 C0 2.83967231 -0.40267181 5.23735711 -1 8 C-1.66 8 -2.32 8 -3 8 C-3 7.34 -3 6.68 -3 6 C-4.32 5.67 -5.64 5.34 -7 5 C-4.69 3.35 -2.38 1.7 0 0 Z " fill="#A64D19" transform="translate(33,22)"/>
<path d="M0 0 C-0.33 2.64 -0.66 5.28 -1 8 C-1.99 8.33 -2.98 8.66 -4 9 C-4.33 6.69 -4.66 4.38 -5 2 C-1.125 0 -1.125 0 0 0 Z " fill="#A93C03" transform="translate(16,55)"/>
<path d="M0 0 C5.75 1.75 5.75 1.75 8 4 C7.34 5.65 6.68 7.3 6 9 C5.34 8.67 4.68 8.34 4 8 C4.33 7.01 4.66 6.02 5 5 C3.7625 4.319375 3.7625 4.319375 2.5 3.625 C1.675 3.08875 0.85 2.5525 0 2 C0 1.34 0 0.68 0 0 Z " fill="#B15521" transform="translate(318,19)"/>
<path d="M0 0 C5.28 0.33 10.56 0.66 16 1 C16 1.33 16 1.66 16 2 C15.37351562 2.04898437 14.74703125 2.09796875 14.1015625 2.1484375 C13.28429687 2.22320312 12.46703125 2.29796875 11.625 2.375 C10.81289063 2.44460938 10.00078125 2.51421875 9.1640625 2.5859375 C6.79665809 2.82892588 6.79665809 2.82892588 5 5 C4.01 4.67 3.02 4.34 2 4 C2.33 3.34 2.66 2.68 3 2 C2.01 1.34 1.02 0.68 0 0 Z " fill="#AB4612" transform="translate(288,13)"/>
<path d="M0 0 C2.31 0 4.62 0 7 0 C7 1.32 7 2.64 7 4 C4.125 4.125 4.125 4.125 1 4 C0.34 3.34 -0.32 2.68 -1 2 C-0.67 1.34 -0.34 0.68 0 0 Z " fill="#B04102" transform="translate(60,165)"/>
<path d="M0 0 C0.33 0 0.66 0 1 0 C2.33583899 4.84241633 3.25328119 8.93437617 3 14 C2.01 13.34 1.02 12.68 0 12 C-0.29296875 9.1796875 -0.29296875 9.1796875 -0.1875 5.875 C-0.16042969 4.77929688 -0.13335937 3.68359375 -0.10546875 2.5546875 C-0.07066406 1.71164063 -0.03585938 0.86859375 0 0 Z " fill="#A63B39" transform="translate(33,128)"/>
<path d="M0 0 C0.66 0.99 1.32 1.98 2 3 C0.741875 3.04125 -0.51625 3.0825 -1.8125 3.125 C-2.52019531 3.14820313 -3.22789063 3.17140625 -3.95703125 3.1953125 C-6 3 -6 3 -9 1 C-5.95699684 -0.52150158 -3.345915 -0.23899393 0 0 Z " fill="#AD4B16" transform="translate(101,189)"/>
<path d="M0 0 C4.71403788 0.47939368 8.66579301 0.96834048 13 3 C12.34 3.66 11.68 4.32 11 5 C9.68 5 8.36 5 7 5 C7 4.01 7 3.02 7 2 C5.02 2 3.04 2 1 2 C0.67 1.34 0.34 0.68 0 0 Z " fill="#CB54B0" transform="translate(293,37)"/>
<path d="M0 0 C0.66 0 1.32 0 2 0 C2 0.66 2 1.32 2 2 C3.65 2 5.3 2 7 2 C7 2.33 7 2.66 7 3 C-1.415 3.495 -1.415 3.495 -10 4 C-10 3.67 -10 3.34 -10 3 C-9.04287109 2.80083984 -9.04287109 2.80083984 -8.06640625 2.59765625 C-7.24011719 2.42105469 -6.41382813 2.24445313 -5.5625 2.0625 C-4.73878906 1.88847656 -3.91507812 1.71445313 -3.06640625 1.53515625 C-1.02338796 1.19247006 -1.02338796 1.19247006 0 0 Z " fill="#DD6C19" transform="translate(262,183)"/>
<path d="M0 0 C1.32 0 2.64 0 4 0 C3.67 0.99 3.34 1.98 3 3 C-1.62 3.33 -6.24 3.66 -11 4 C-11 3.67 -11 3.34 -11 3 C-5.555 2.505 -5.555 2.505 0 2 C0 1.34 0 0.68 0 0 Z " fill="#A3383C" transform="translate(304,160)"/>
<path d="M0 0 C-0.375 2.4375 -0.375 2.4375 -1 5 C-1.99 5.495 -1.99 5.495 -3 6 C-3.66 5.67 -4.32 5.34 -5 5 C-5 3.68 -5 2.36 -5 1 C-3 0 -3 0 0 0 Z " fill="#DA6A0E" transform="translate(38,161)"/>
<path d="M0 0 C1.98 0 3.96 0 6 0 C4.25 3.875 4.25 3.875 2 5 C1.01 4.34 0.02 3.68 -1 3 C-0.67 2.01 -0.34 1.02 0 0 Z " fill="#B34306" transform="translate(313,157)"/>
<path d="M0 0 C1.57619796 3.15239592 0.68832865 5.61571748 0 9 C-1.5625 11.9375 -1.5625 11.9375 -3 14 C-4.33332095 11.3333581 -3.67102033 9.83319697 -3 7 C-2.34 7 -1.68 7 -1 7 C-1.020625 6.030625 -1.04125 5.06125 -1.0625 4.0625 C-1 1 -1 1 0 0 Z " fill="#AA3983" transform="translate(322,137)"/>
<path d="M0 0 C0.33 0.99 0.66 1.98 1 3 C1.99 3.33 2.98 3.66 4 4 C4 5.65 4 7.3 4 9 C3.01 9 2.02 9 1 9 C0.67 6.03 0.34 3.06 0 0 Z " fill="#AC3E0E" transform="translate(342,45)"/>
<path d="M0 0 C2.15377564 2.62198774 3.40072174 4.64404172 4 8 C1.525 7.01 1.525 7.01 -1 6 C-0.67 4.02 -0.34 2.04 0 0 Z " fill="#B0411A" transform="translate(35,142)"/>
<path d="M0 0 C-0.99 0.495 -0.99 0.495 -2 1 C-2 1.66 -2 2.32 -2 3 C-4.97 3 -7.94 3 -11 3 C-7.63114177 -0.36885823 -4.54278442 -0.10095076 0 0 Z " fill="#F18526" transform="translate(59,20)"/>
<path d="M0 0 C-1.98 0.99 -3.96 1.98 -6 3 C-6.99 2.34 -7.98 1.68 -9 1 C-9.33 1.66 -9.66 2.32 -10 3 C-10 2.34 -10 1.68 -10 1 C-10.99 0.67 -11.98 0.34 -13 0 C-11.58456585 -0.19658808 -10.16755969 -0.38187546 -8.75 -0.5625 C-7.96109375 -0.66691406 -7.1721875 -0.77132813 -6.359375 -0.87890625 C-3.99467126 -1.00027349 -2.2488963 -0.69633257 0 0 Z " fill="#CB5F10" transform="translate(90,16)"/>
<path d="M0 0 C0.33 0.99 0.66 1.98 1 3 C-5.93 2.505 -5.93 2.505 -13 2 C-13 1.67 -13 1.34 -13 1 C-11.20843648 0.83222817 -9.4167455 0.66581706 -7.625 0.5 C-6.62726563 0.4071875 -5.62953125 0.314375 -4.6015625 0.21875 C-2 0 -2 0 0 0 Z " fill="#A73199" transform="translate(78,162)"/>
<path d="M0 0 C0.66 0.66 1.32 1.32 2 2 C0.71034824 3.37562854 -0.62689293 4.70766393 -2 6 C-2.66 6 -3.32 6 -4 6 C-3.67 4.35 -3.34 2.7 -3 1 C-2.01 0.67 -1.02 0.34 0 0 Z " fill="#B341BC" transform="translate(44,53)"/>
<path d="M0 0 C0.99 0.33 1.98 0.66 3 1 C2.67 3.31 2.34 5.62 2 8 C1.01 7.34 0.02 6.68 -1 6 C-0.67 4.02 -0.34 2.04 0 0 Z " fill="#B14102" transform="translate(16,44)"/>
<path d="M0 0 C0 0.66 0 1.32 0 2 C-0.99 2 -1.98 2 -3 2 C-3.66 3.32 -4.32 4.64 -5 6 C-6.32 5.67 -7.64 5.34 -9 5 C-7.87926138 4.16094435 -6.75325453 3.32892169 -5.625 2.5 C-4.99851562 2.0359375 -4.37203125 1.571875 -3.7265625 1.09375 C-2 0 -2 0 0 0 Z " fill="#C3509B" transform="translate(53,40)"/>
<path d="M0 0 C0 0.99 0 1.98 0 3 C-2.86177057 4.43088528 -4.93375773 3.59991697 -8 3 C-5.4345406 0.4345406 -3.52313332 0.45953913 0 0 Z " fill="#AA4E1E" transform="translate(42,19)"/>
<path d="M0 0 C1.65 0.33 3.3 0.66 5 1 C2.3144406 3.6855594 -0.37621328 4.06049974 -4 5 C-4 4.34 -4 3.68 -4 3 C-3.01 3 -2.02 3 -1 3 C-0.67 2.01 -0.34 1.02 0 0 Z " fill="#A0481C" transform="translate(318,178)"/>
<path d="M0 0 C2.64 0.33 5.28 0.66 8 1 C7.01 2.485 7.01 2.485 6 4 C3.69 3.34 1.38 2.68 -1 2 C-0.67 1.34 -0.34 0.68 0 0 Z " fill="#B44504" transform="translate(316,22)"/>
<path d="M0 0 C0.33 0 0.66 0 1 0 C1.36923077 7.38461538 1.36923077 7.38461538 -0.5 10.5 C-0.995 10.995 -1.49 11.49 -2 12 C-1.44687265 7.97007218 -0.8441938 3.97977076 0 0 Z " fill="#A93F45" transform="translate(324,132)"/>
</svg>
