<?xml version="1.0" encoding="UTF-8"?>
<svg version="1.1" xmlns="http://www.w3.org/2000/svg" width="360" height="209">
<path d="M0 0 C5.92236344 0.01141326 11.84454745 0.00460293 17.76690483 -0.00688362 C139.77424307 -0.2074634 139.77424307 -0.2074634 163.84692383 23.13574219 C180.81067293 41.23040789 180.3199746 69.61353323 180.22583008 92.88574219 C180.2243396 93.80051331 180.22284912 94.71528442 180.22131348 95.65777588 C180.08819257 141.21194856 180.08819257 141.21194856 166.91333008 160.26074219 C166.47375977 160.89753906 166.03418945 161.53433594 165.58129883 162.19042969 C152.7633152 178.81317503 128.94921238 181.12811767 109.68237305 183.69042969 C40.80521167 192.32170394 -33.22744779 191.82114018 -102.08666992 183.26074219 C-103.00996094 183.15149414 -103.93325195 183.04224609 -104.88452148 182.9296875 C-123.98340658 180.61272682 -142.15816015 176.18622865 -155.03198242 160.95996094 C-168.69409597 143.0122034 -168.44191481 119.23254601 -168.34741211 97.72045898 C-168.33669266 94.82937601 -168.347379 91.93891589 -168.36010742 89.04785156 C-168.3779757 66.32978491 -168.22978959 39.59685077 -151.82495117 21.87792969 C-130.76447106 2.28458415 -95.64708179 2.58216293 -68.34838867 1.15136719 C-67.56306952 1.10949532 -66.77775036 1.06762344 -65.96863365 1.02448273 C-43.99365614 -0.11018681 -21.99820321 -0.04273087 0 0 Z " fill="#7BC31C" transform="translate(175.086669921875,12.7392578125)"/>
<path d="M0 0 C5.92236344 0.01141326 11.84454745 0.00460293 17.76690483 -0.00688362 C139.77424307 -0.2074634 139.77424307 -0.2074634 163.84692383 23.13574219 C180.81067293 41.23040789 180.3199746 69.61353323 180.22583008 92.88574219 C180.2243396 93.80051331 180.22284912 94.71528442 180.22131348 95.65777588 C180.08819257 141.21194856 180.08819257 141.21194856 166.91333008 160.26074219 C166.47375977 160.89753906 166.03418945 161.53433594 165.58129883 162.19042969 C152.7633152 178.81317503 128.94921238 181.12811767 109.68237305 183.69042969 C40.80521167 192.32170394 -33.22744779 191.82114018 -102.08666992 183.26074219 C-103.00996094 183.15149414 -103.93325195 183.04224609 -104.88452148 182.9296875 C-123.98340658 180.61272682 -142.15816015 176.18622865 -155.03198242 160.95996094 C-168.69409597 143.0122034 -168.44191481 119.23254601 -168.34741211 97.72045898 C-168.33669266 94.82937601 -168.347379 91.93891589 -168.36010742 89.04785156 C-168.3779757 66.32978491 -168.22978959 39.59685077 -151.82495117 21.87792969 C-130.76447106 2.28458415 -95.64708179 2.58216293 -68.34838867 1.15136719 C-67.56306952 1.10949532 -66.77775036 1.06762344 -65.96863365 1.02448273 C-43.99365614 -0.11018681 -21.99820321 -0.04273087 0 0 Z M-80.46166992 25.63574219 C-81.1813797 25.70076935 -81.90108948 25.76579651 -82.64260864 25.83279419 C-109.90179775 27.38692539 -109.90179775 27.38692539 -133.14526367 39.92089844 C-144.69457811 53.84049471 -143.27341654 73.754956 -143.27197266 90.69311523 C-143.274157 93.55630416 -143.29236054 96.41910556 -143.3112793 99.28222656 C-143.66363685 124.80435663 -143.66363685 124.80435663 -133.08666992 147.26074219 C-123.46551869 155.64045455 -111.38314985 157.89757177 -99.08666992 159.38574219 C-97.78157471 159.55114502 -96.47647949 159.71654785 -95.13183594 159.88696289 C-82.15492987 161.49717134 -69.14010278 162.52244974 -56.08666992 163.26074219 C-55.44139343 163.30311005 -54.79611694 163.34547791 -54.13128662 163.38912964 C-36.06006079 164.57252472 -17.95476004 164.44815688 0.14624023 164.44604492 C3.80286654 164.44596409 7.4593664 164.45285084 11.1159668 164.46655273 C41.24500761 164.57745131 71.10828688 163.76484293 101.06030273 160.19335938 C103.73759538 159.87696576 106.41689043 159.58416725 109.09692383 159.29199219 C129.5998331 157.0586359 129.5998331 157.0586359 145.91333008 145.26074219 C149.20925188 140.92111182 150.88967188 136.83181512 152.10083008 131.57324219 C152.26518555 130.92935547 152.42954102 130.28546875 152.59887695 129.62207031 C155.2233886 118.75212935 155.09975344 107.61499238 155.09863281 96.50170898 C155.10081036 94.09503232 155.11900537 91.68882212 155.13793945 89.28222656 C155.19987465 72.19292694 154.93464486 53.29228392 143.91333008 39.26074219 C132.13533944 27.96744252 112.22202785 27.71634834 96.91333008 26.26074219 C95.53343274 26.12123736 94.1535504 25.9815841 92.77368164 25.84179688 C63.41554568 22.94616571 34.00646447 22.98903575 4.53833008 23.01074219 C3.54872536 23.01107578 2.55912064 23.01140938 1.53952789 23.01175308 C-25.84600504 23.02408552 -53.16917189 23.12542265 -80.46166992 25.63574219 Z " fill="#E97E1A" transform="translate(175.086669921875,12.7392578125)"/>
<path d="M0 0 C5.92236344 0.01141326 11.84454745 0.00460293 17.76690483 -0.00688362 C139.77424307 -0.2074634 139.77424307 -0.2074634 163.84692383 23.13574219 C180.81067293 41.23040789 180.3199746 69.61353323 180.22583008 92.88574219 C180.2243396 93.80051331 180.22284912 94.71528442 180.22131348 95.65777588 C180.08819257 141.21194856 180.08819257 141.21194856 166.91333008 160.26074219 C166.47375977 160.89753906 166.03418945 161.53433594 165.58129883 162.19042969 C152.7633152 178.81317503 128.94921238 181.12811767 109.68237305 183.69042969 C40.80521167 192.32170394 -33.22744779 191.82114018 -102.08666992 183.26074219 C-103.00996094 183.15149414 -103.93325195 183.04224609 -104.88452148 182.9296875 C-123.98340658 180.61272682 -142.15816015 176.18622865 -155.03198242 160.95996094 C-168.69409597 143.0122034 -168.44191481 119.23254601 -168.34741211 97.72045898 C-168.33669266 94.82937601 -168.347379 91.93891589 -168.36010742 89.04785156 C-168.3779757 66.32978491 -168.22978959 39.59685077 -151.82495117 21.87792969 C-130.76447106 2.28458415 -95.64708179 2.58216293 -68.34838867 1.15136719 C-67.56306952 1.10949532 -66.77775036 1.06762344 -65.96863365 1.02448273 C-43.99365614 -0.11018681 -21.99820321 -0.04273087 0 0 Z M-118.52416992 12.19824219 C-119.65822266 12.41649658 -119.65822266 12.41649658 -120.81518555 12.63916016 C-131.48913828 14.9379034 -145.11270128 20.96655493 -151.42651367 30.22558594 C-160.4567904 45.84329858 -162.2174626 61.51018522 -162.28979492 79.26074219 C-162.295495 80.37650635 -162.30119507 81.49227051 -162.30706787 82.6418457 C-162.31645708 84.991527 -162.32302744 87.34122111 -162.3269043 89.69091797 C-162.33656818 93.22355068 -162.36763418 96.75559022 -162.39916992 100.28808594 C-162.60742754 132.46414889 -162.60742754 132.46414889 -148.08666992 160.26074219 C-147.53624023 160.86402344 -146.98581055 161.46730469 -146.41870117 162.08886719 C-130.25738913 177.94004744 -102.23365163 178.24213515 -80.89916992 180.01074219 C-80.18718445 180.06990814 -79.47519897 180.1290741 -78.74163818 180.19003296 C-73.52695982 180.61188257 -68.30946983 180.95662346 -63.08666992 181.26074219 C-62.26304962 181.30913239 -61.43942932 181.35752258 -60.59085083 181.40737915 C-40.54163065 182.53028611 -20.47250252 182.46027635 -0.39916992 182.44824219 C0.48384796 182.4481226 1.36686584 182.44800301 2.27664185 182.44787979 C30.19151512 182.44309839 58.05569805 182.23797175 85.91333008 180.26074219 C86.67552856 180.20746765 87.43772705 180.15419312 88.22302246 180.0993042 C126.91910331 178.45242629 126.91910331 178.45242629 159.75708008 160.32324219 C167.67091099 150.46828293 170.7728925 139.56825827 172.91333008 127.26074219 C173.17351929 125.79000244 173.17351929 125.79000244 173.43896484 124.28955078 C174.17521678 119.04111885 174.07584449 113.76542566 174.08129883 108.47558594 C174.08462723 107.34230362 174.08795563 106.2090213 174.09138489 105.04139709 C174.09643545 102.64682418 174.09879379 100.25224426 174.09863281 97.85766602 C174.10080816 94.23474177 174.11895347 90.61212782 174.13793945 86.98925781 C174.19753335 70.02969528 174.19753335 70.02969528 171.91333008 53.26074219 C171.77258057 52.53959229 171.63183105 51.81844238 171.48681641 51.07543945 C168.7559716 38.31976225 162.62870328 27.8428641 151.91333008 20.26074219 C114.97499402 -2.34963045 52.83618002 5.0708231 11.25634766 5.07543945 C7.41873434 5.07552044 3.58124109 5.06860252 -0.25634766 5.05493164 C-59.67218459 4.81811866 -59.67218459 4.81811866 -118.52416992 12.19824219 Z " fill="#AC4813" transform="translate(175.086669921875,12.7392578125)"/>
<path d="M0 0 C6.09738615 0.01135529 12.19459688 0.00465283 18.29197693 -0.0068903 C87.06530781 -0.11703715 87.06530781 -0.11703715 117.71728516 4.26074219 C118.76601807 4.40914551 118.76601807 4.40914551 119.8359375 4.56054688 C131.78024392 6.32946899 145.08221807 9.14181359 153.71728516 18.26074219 C163.22862521 31.33883476 164.84596709 45.26414095 164.95556641 60.96777344 C164.96363815 62.08778244 164.9717099 63.20779144 164.98002625 64.36174011 C164.99381189 66.72934448 165.00455853 69.09696826 165.01245117 71.46459961 C165.02391285 73.85072792 165.044271 76.23683178 165.07397461 78.62280273 C165.55474973 117.33460022 165.55474973 117.33460022 154.71728516 131.26074219 C154.10240234 132.10765625 153.48751953 132.95457031 152.85400391 133.82714844 C141.90719185 146.29490695 118.72932726 146.92781856 103.39379883 148.21655273 C100.70759622 148.44377497 98.02422683 148.69341728 95.34033203 148.94628906 C66.34559761 151.5725472 37.15725986 151.4720848 8.06762695 151.50097656 C4.31199336 151.5053433 0.55659179 151.51920982 -3.19897461 151.54199219 C-24.08073687 151.66581106 -44.837338 151.34716312 -65.67333984 149.86621094 C-67.01066634 149.77168766 -67.01066634 149.77168766 -68.37500954 149.67525482 C-119.10493849 146.00597503 -119.10493849 146.00597503 -134.03271484 130.57324219 C-144.96781958 117.32685395 -144.7811229 96.16930105 -144.61889648 79.80175781 C-144.59522396 77.26172068 -144.59838085 74.7227378 -144.60498047 72.18261719 C-144.53667874 31.42786205 -144.53667874 31.42786205 -130.65771484 16.51464844 C-103.0392838 -9.12190445 -34.83729033 -0.06550477 0 0 Z M-75.65771484 7.63574219 C-76.37742462 7.70076935 -77.0971344 7.76579651 -77.83865356 7.83279419 C-105.09784267 9.38692539 -105.09784267 9.38692539 -128.34130859 21.92089844 C-139.89062303 35.84049471 -138.46946146 55.754956 -138.46801758 72.69311523 C-138.47020192 75.55630416 -138.48840546 78.41910556 -138.50732422 81.28222656 C-138.85968177 106.80435663 -138.85968177 106.80435663 -128.28271484 129.26074219 C-118.66156361 137.64045455 -106.57919477 139.89757177 -94.28271484 141.38574219 C-92.97761963 141.55114502 -91.67252441 141.71654785 -90.32788086 141.88696289 C-77.35097479 143.49717134 -64.3361477 144.52244974 -51.28271484 145.26074219 C-50.63743835 145.30311005 -49.99216187 145.34547791 -49.32733154 145.38912964 C-31.25610571 146.57252472 -13.15080496 146.44815688 4.95019531 146.44604492 C8.60682162 146.44596409 12.26332148 146.45285084 15.91992188 146.46655273 C46.04896269 146.57745131 75.91224195 145.76484293 105.86425781 142.19335938 C108.54155046 141.87696576 111.22084551 141.58416725 113.90087891 141.29199219 C134.40378817 139.0586359 134.40378817 139.0586359 150.71728516 127.26074219 C154.01320695 122.92111182 155.69362696 118.83181512 156.90478516 113.57324219 C157.06914062 112.92935547 157.23349609 112.28546875 157.40283203 111.62207031 C160.02734368 100.75212935 159.90370852 89.61499238 159.90258789 78.50170898 C159.90476544 76.09503232 159.92296045 73.68882212 159.94189453 71.28222656 C160.00382973 54.19292694 159.73859994 35.29228392 148.71728516 21.26074219 C136.93929452 9.96744252 117.02598293 9.71634834 101.71728516 8.26074219 C100.33738782 8.12123736 98.95750548 7.9815841 97.57763672 7.84179688 C68.21950076 4.94616571 38.81041955 4.98903575 9.34228516 5.01074219 C8.35268044 5.01107578 7.36307571 5.01140938 6.34348297 5.01175308 C-21.04204996 5.02408552 -48.36521682 5.12542265 -75.65771484 7.63574219 Z " fill="#AD4203" transform="translate(170.28271484375,30.7392578125)"/>
<path d="M0 0 C1.49963413 -0.00110464 1.49963413 -0.00110464 3.0295639 -0.0022316 C32.2100037 -0.01973888 61.28378942 0.11609416 90.34692383 3.04754639 C92.31556015 3.24406639 94.28570838 3.42525244 96.25585938 3.60595703 C128.65434524 6.62191364 128.65434524 6.62191364 138.69140625 15.18359375 C143.74218845 21.38281367 147.96897676 29.13231761 147.375 37.25 C144.7607412 33.32861181 142.90844243 29.12951658 140.91015625 24.8671875 C139.58808982 21.95530615 139.58808982 21.95530615 136.375 21.25 C135.6875 19.1875 135.6875 19.1875 135.375 17.25 C134.67375 17.146875 133.9725 17.04375 133.25 16.9375 C130.375 16.25 130.375 16.25 127.5625 14.8125 C121.61725096 11.89816224 116.01900438 10.85135974 109.375 11.25 C108.715 11.58 108.055 11.91 107.375 12.25 C107.375 11.59 107.375 10.93 107.375 10.25 C97.16171582 8.76056272 87.64892599 7.537679 77.375 9.25 C77.045 8.59 76.715 7.93 76.375 7.25 C47.32480435 6.56791722 18.28407457 6.14086 -10.77371979 6.12661743 C-12.91952484 6.12501344 -15.06531887 6.12146491 -17.21112061 6.11743164 C-38.95178059 5.85332757 -38.95178059 5.85332757 -60.625 7.25 C-60.955 7.58 -61.285 7.91 -61.625 8.25 C-63.2132131 8.32494222 -64.80468578 8.33320149 -66.39453125 8.3125 C-67.36583984 8.30476563 -68.33714844 8.29703125 -69.33789062 8.2890625 C-71.39257999 8.26316849 -73.44726752 8.23712852 -75.50195312 8.2109375 C-76.47712891 8.20320313 -77.45230469 8.19546875 -78.45703125 8.1875 C-79.35139893 8.17589844 -80.2457666 8.16429687 -81.16723633 8.15234375 C-83.48954123 8.24461771 -85.38694345 8.67382733 -87.625 9.25 C-90.29166667 9.25 -92.95833333 9.25 -95.625 9.25 C-96.23988281 9.40597656 -96.85476562 9.56195313 -97.48828125 9.72265625 C-100.26322977 10.40751557 -102.9602954 10.52052506 -105.8125 10.6875 C-113.98582298 11.29089968 -120.71417951 12.39492836 -127.8984375 16.4453125 C-129.625 17.25 -129.625 17.25 -132.625 17.25 C-132.625 18.24 -132.625 19.23 -132.625 20.25 C-134.2686814 21.93933922 -135.9392876 23.60259924 -137.625 25.25 C-138.346875 26.343125 -139.06875 27.43625 -139.8125 28.5625 C-140.410625 29.449375 -141.00875 30.33625 -141.625 31.25 C-142.285 31.25 -142.945 31.25 -143.625 31.25 C-143.955 32.24 -144.285 33.23 -144.625 34.25 C-144.1138407 26.24183759 -140.79098558 19.99066276 -135 14.4375 C-121.7376224 3.80303796 -101.22488813 4.0909498 -85 2.625 C-84.32017059 2.5624704 -83.64034119 2.4999408 -82.93991089 2.43551636 C-55.34662415 -0.06533935 -27.68134877 0.00933137 0 0 Z " fill="#A4DC2F" transform="translate(179.625,35.75)"/>
<path d="M0 0 C-1.18078125 0.04898437 -2.3615625 0.09796875 -3.578125 0.1484375 C-5.13543937 0.22348879 -6.69272991 0.29903561 -8.25 0.375 C-9.02730469 0.4059375 -9.80460937 0.436875 -10.60546875 0.46875 C-14.61899197 0.6745717 -17.45012417 0.99063632 -21 3 C-24.25 2.625 -24.25 2.625 -27 2 C-27 2.66 -27 3.32 -27 4 C-33.6 4 -40.2 4 -47 4 C-47.66 5.32 -48.32 6.64 -49 8 C-53.4684467 11.62611882 -58.74776179 13.76293558 -64 16 C-66.04291182 17.26660533 -68.04690112 18.59886384 -70 20 C-70.845625 20.556875 -71.69125 21.11375 -72.5625 21.6875 C-83.2592587 31.83570698 -86.12547411 48.96570098 -87 63 C-87.12557889 68.0250672 -87.11736846 73.04802507 -87.09765625 78.07421875 C-87.09578629 79.49339243 -87.09436512 80.91256677 -87.09336853 82.33174133 C-87.0895888 86.0289393 -87.07979853 89.72609666 -87.06866455 93.42327881 C-87.05835154 97.21121675 -87.05384993 100.99916138 -87.04882812 104.78710938 C-87.03817118 112.19142457 -87.02115088 119.59570655 -87 127 C-87.66 127 -88.32 127 -89 127 C-89 129.31 -89 131.62 -89 134 C-88.34 134 -87.68 134 -87 134 C-86.61114961 135.78871178 -86.23930804 137.58112874 -85.875 139.375 C-85.66617188 140.37273437 -85.45734375 141.37046875 -85.2421875 142.3984375 C-85.16226563 143.25695312 -85.08234375 144.11546875 -85 145 C-85.99 145.99 -85.99 145.99 -87 147 C-87.8157058 144.71477841 -88.60125814 142.42449127 -89.375 140.125 C-89.59671875 139.51269531 -89.8184375 138.90039062 -90.046875 138.26953125 C-94.7397269 124.05295048 -94.32573174 108.25358762 -94.26074219 93.4597168 C-94.25002274 90.56863383 -94.26070908 87.6781737 -94.2734375 84.78710938 C-94.29130578 62.06904273 -94.14311967 35.33610858 -77.73828125 17.6171875 C-64.34442649 5.15638779 -17.05373186 -11.36915458 0 0 Z " fill="#AB4D17" transform="translate(101,17)"/>
<path d="M0 0 C1.06253494 -0.00281982 2.12506989 -0.00563965 3.21980286 -0.00854492 C4.38039719 -0.00652069 5.54099152 -0.00449646 6.73675537 -0.00241089 C7.9631926 -0.00416321 9.18962982 -0.00591553 10.45323181 -0.00772095 C13.81501679 -0.01136877 17.17674023 -0.01051209 20.53852177 -0.00734186 C24.06218103 -0.00480737 27.5858377 -0.00715905 31.10949707 -0.00872803 C37.0309903 -0.01054749 42.95247106 -0.00815024 48.8739624 -0.00338745 C55.70624872 0.00204469 62.53850514 0.00029925 69.37079072 -0.00521386 C75.24526036 -0.00976334 81.11972105 -0.01038626 86.99419188 -0.00777519 C90.4987803 -0.00622121 94.0033547 -0.00599427 97.5079422 -0.00931168 C101.42146448 -0.01275722 105.3349538 -0.00797071 109.24847412 -0.00241089 C110.97722023 -0.00544724 110.97722023 -0.00544724 112.7408905 -0.00854492 C118.5142487 0.00661585 124.03991072 0.28937072 129.75140381 1.12698364 C132.04026294 1.25221488 134.33104597 1.34651988 136.62249756 1.40823364 C137.85548584 1.44561646 139.08847412 1.48299927 140.35882568 1.52151489 C142.93953424 1.59257979 145.52026405 1.66287653 148.10101318 1.73245239 C149.32497803 1.76983521 150.54894287 1.80721802 151.80999756 1.84573364 C152.92688965 1.87602661 154.04378174 1.90631958 155.19451904 1.93753052 C157.75140381 2.12698364 157.75140381 2.12698364 158.75140381 3.12698364 C160.56168881 3.22577929 162.37593108 3.25669879 164.18890381 3.25198364 C165.17761475 3.25456177 166.16632568 3.25713989 167.18499756 3.25979614 C169.74049457 3.29926779 169.74049457 3.29926779 171.75140381 2.12698364 C183.01242751 1.5445169 194.95597497 5.0662399 203.85687256 12.15432739 C208.13221268 16.6059702 212.4444071 22.67806749 213.00140381 28.93557739 C212.75140381 31.12698364 212.75140381 31.12698364 211.75140381 32.12698364 C211.59086566 34.00020312 211.59086566 34.00020312 211.62640381 36.12698364 C211.62253662 37.20979614 211.62253662 37.20979614 211.61859131 38.31448364 C211.55445105 40.14787779 211.55445105 40.14787779 212.75140381 41.12698364 C212.85563317 42.92662024 212.88994482 44.73034964 212.89666748 46.5329895 C212.90623726 48.26499855 212.90623726 48.26499855 212.91600037 50.03199768 C212.9176696 51.91786339 212.9176696 51.91786339 212.91937256 53.84182739 C212.92270096 55.1230397 212.92602936 56.40425201 212.92945862 57.72428894 C212.93545573 60.44047894 212.93729793 63.15663709 212.93670654 65.87283325 C212.93660491 69.35788956 212.95025597 72.84274219 212.96747875 76.32775021 C212.98125447 79.64494597 212.98068705 82.96210334 212.98187256 86.27932739 C212.98905807 87.53454697 212.99624359 88.78976654 213.00364685 90.08302307 C213.00057022 91.24084793 212.99749359 92.39867279 212.99432373 93.59158325 C212.99574875 94.61448959 212.99717377 95.63739594 212.99864197 96.69129944 C212.75140381 99.12698364 212.75140381 99.12698364 210.75140381 101.12698364 C210.75584503 100.56116577 210.76028625 99.9953479 210.76486206 99.41238403 C210.80964016 93.44097459 210.83949223 87.46961399 210.86126709 81.49807739 C210.8712297 79.27930764 210.88480466 77.06055067 210.90228271 74.84182739 C211.69958297 44.37002715 211.69958297 44.37002715 199.75140381 17.12698364 C188.67582704 6.56775078 168.06036409 6.48753115 153.75140381 5.12698364 C152.37150647 4.98747881 150.99162413 4.84782556 149.61175537 4.70803833 C120.25361941 1.81240717 90.8445382 1.85527721 61.37640381 1.87698364 C60.38679909 1.87731724 59.39719437 1.87765083 58.37760162 1.87799454 C18.28959765 1.8893995 18.28959765 1.8893995 -21.706604 4.3742981 C-23.77994969 4.56740382 -25.85398242 4.75109543 -27.92828369 4.93362427 C-37.39763483 5.78230035 -46.82230844 6.89195079 -56.24859619 8.12698364 C-56.24859619 7.46698364 -56.24859619 6.80698364 -56.24859619 6.12698364 C-49.91305907 4.22632251 -43.82413752 3.7192765 -37.22515869 3.37307739 C-34.32241911 3.31889329 -34.32241911 3.31889329 -32.24859619 2.12698364 C-30.55655096 1.98607067 -28.85965677 1.90115064 -27.16265869 1.84573364 C-25.642854 1.78965942 -25.642854 1.78965942 -24.09234619 1.73245239 C-23.03015869 1.69764771 -21.96797119 1.66284302 -20.87359619 1.62698364 C-18.78231837 1.55795613 -16.69115988 1.48518673 -14.60015869 1.40823364 C-13.67026123 1.37794067 -12.74036377 1.34764771 -11.7822876 1.31643677 C-9.34134508 1.21579184 -9.34134508 1.21579184 -7.41827774 0.6230793 C-4.8861299 0.04410606 -2.59817211 0.00106191 0 0 Z " fill="#AB4204" transform="translate(118.24859619140625,34.873016357421875)"/>
<path d="M0 0 C1.28863953 0.00960754 2.57727905 0.01921509 3.90496826 0.02911377 C7.41683112 0.05541608 10.92860577 0.08823056 14.44040108 0.12226367 C18.11856161 0.15678513 21.79676905 0.18524902 25.47497559 0.21437073 C32.43044594 0.27035238 39.38585756 0.33173805 46.34126425 0.39509207 C54.26387652 0.46699084 62.18653562 0.53282441 70.10920429 0.59816253 C86.39773398 0.73262894 102.68618843 0.87466652 118.97460938 1.02172852 C118.97460938 1.68172852 118.97460938 2.34172852 118.97460938 3.02172852 C119.96460938 3.51672852 119.96460938 3.51672852 120.97460938 4.02172852 C119.14014252 4.0338588 119.14014252 4.0338588 117.26861572 4.04623413 C105.56569847 4.12477768 93.86288233 4.212756 82.16009903 4.3092556 C76.14809576 4.35854588 70.13610467 4.40486213 64.12402344 4.44360352 C-0.30369988 4.21560107 -0.30369988 4.21560107 -64.08056641 12.28320312 C-65.71546143 12.60651423 -67.37035159 12.82613299 -69.02539062 13.02172852 C-69.68539062 12.36172852 -70.34539062 11.70172852 -71.02539062 11.02172852 C-70.22101563 10.73297852 -69.41664062 10.44422852 -68.58789062 10.14672852 C-65.89274383 9.28910284 -65.89274383 9.28910284 -65.02539062 7.02172852 C-62.25489036 6.82704471 -59.48426061 6.6407006 -56.71289062 6.45922852 C-55.92720703 6.4031543 -55.14152344 6.34708008 -54.33203125 6.28930664 C-53.19604492 6.21679688 -53.19604492 6.21679688 -52.03710938 6.14282227 C-50.9923645 6.07212524 -50.9923645 6.07212524 -49.92651367 6 C-48.02539062 6.02172852 -48.02539062 6.02172852 -45.02539062 7.02172852 C-45.02539062 6.36172852 -45.02539062 5.70172852 -45.02539062 5.02172852 C-43.74664062 5.06297852 -42.46789062 5.10422852 -41.15039062 5.14672852 C-39.00667571 5.26385724 -39.00667571 5.26385724 -37.02539062 5.02172852 C-36.36539063 4.36172852 -35.70539063 3.70172852 -35.02539062 3.02172852 C-32.66029702 2.72112909 -30.28097181 2.5265784 -27.90039062 2.39672852 C-26.6190625 2.32196289 -25.33773437 2.24719727 -24.01757812 2.17016602 C-23.03015625 2.12118164 -22.04273438 2.07219727 -21.02539062 2.02172852 C-21.02539062 1.69172852 -21.02539062 1.36172852 -21.02539062 1.02172852 C-13.98969295 -0.07946101 -7.11097115 -0.07636337 0 0 Z " fill="#B03D02" transform="translate(119.025390625,13.978271484375)"/>
<path d="M0 0 C0.66 0 1.32 0 2 0 C2.66 0.99 3.32 1.98 4 3 C4.65742188 3.11730469 5.31484375 3.23460937 5.9921875 3.35546875 C8 4 8 4 9.1953125 6.30078125 C9.65550781 7.79158203 9.65550781 7.79158203 10.125 9.3125 C10.43695313 10.27800781 10.74890625 11.24351563 11.0703125 12.23828125 C13.56999627 22.35254793 14.24434056 31.89649895 13.9765625 42.296875 C13.95153656 43.61165833 13.92651062 44.92644165 13.90072632 46.28106689 C13.83488722 49.73353797 13.75583124 53.1855769 13.67376709 56.63769531 C13.59204151 60.17756894 13.52316685 63.71769184 13.453125 67.2578125 C13.31447166 74.1721671 13.16181679 81.08614966 13 88 C12.67 88 12.34 88 12 88 C11.67 90.97 11.34 93.94 11 97 C9.515 97.495 9.515 97.495 8 98 C8.165 98.495 8.33 98.99 8.5 99.5 C9.20688818 103.03444089 9.06005155 106.39690701 9 110 C8.34 109.01 7.68 108.02 7 107 C6.34 109.31 5.68 111.62 5 114 C4.34 113.67 3.68 113.34 3 113 C3.27714844 111.70964844 3.55429687 110.41929687 3.83984375 109.08984375 C4.20585168 107.37242194 4.57173024 105.65497255 4.9375 103.9375 C5.11990234 103.08994141 5.30230469 102.24238281 5.49023438 101.36914062 C5.66748047 100.53447266 5.84472656 99.69980469 6.02734375 98.83984375 C6.18968506 98.08050537 6.35202637 97.32116699 6.51928711 96.53881836 C7.87659129 89.37040488 8.16046697 82.49038652 8.16796875 75.21484375 C8.17296135 73.51492027 8.17296135 73.51492027 8.17805481 71.78065491 C8.18310537 69.38608199 8.18546371 66.99150207 8.18530273 64.59692383 C8.18747808 60.97399959 8.2056234 57.35138563 8.22460938 53.72851562 C8.2597404 39.64121856 8.14151996 26.08936236 4 12.5 C3.67 11.3965625 3.34 10.293125 3 9.15625 C2.02966234 6.09362178 1.02692094 3.04408709 0 0 Z " fill="#AB4714" transform="translate(340,46)"/>
<path d="M0 0 C11.04784083 -0.13382311 21.97937862 0.24398131 33 1 C34.46871861 1.09683145 35.93746865 1.19318734 37.40625 1.2890625 C40.93787693 1.5205979 44.46904314 1.75843527 48 2 C48.495 3.485 48.495 3.485 49 5 C51.31 5.33 53.62 5.66 56 6 C56 5.34 56 4.68 56 4 C80.75 3.67 105.5 3.34 131 3 C131 3.33 131 3.66 131 4 C133.97 4.33 136.94 4.66 140 5 C140 5.33 140 5.66 140 6 C129.69447013 7.11251557 119.44066773 7.1809351 109.08984375 7.203125 C107.7305585 7.20736607 107.7305585 7.20736607 106.34381294 7.21169281 C101.51558274 7.22663735 96.68738186 7.23588769 91.85913086 7.24023438 C87.96677944 7.24455361 84.07465791 7.25819174 80.18237305 7.28125 C52.32190256 7.44314239 24.76365434 6.34153363 -3 4 C-2.01 3.67 -1.02 3.34 0 3 C0 2.01 0 1.02 0 0 Z " fill="#B13E04" transform="translate(88,175)"/>
<path d="M0 0 C1.64630328 0.14042877 3.29204179 0.28749329 4.9375 0.4375 C6.31228516 0.55931641 6.31228516 0.55931641 7.71484375 0.68359375 C10 1 10 1 11 2 C13.35313555 2.07271741 15.70833668 2.08370868 18.0625 2.0625 C19.35285156 2.05347656 20.64320312 2.04445312 21.97265625 2.03515625 C22.97167969 2.02355469 23.97070312 2.01195312 25 2 C25 2.99 25 3.98 25 5 C25.71285156 4.91621094 26.42570312 4.83242187 27.16015625 4.74609375 C32.69019573 4.15810839 37.54028471 3.90805694 43 5 C43 5.66 43 6.32 43 7 C43.65597168 6.99476318 44.31194336 6.98952637 44.98779297 6.98413086 C47.95018563 6.96338728 50.91256303 6.95034824 53.875 6.9375 C55.42380859 6.92493164 55.42380859 6.92493164 57.00390625 6.91210938 C57.99003906 6.90888672 58.97617188 6.90566406 59.9921875 6.90234375 C61.35899658 6.89448853 61.35899658 6.89448853 62.75341797 6.88647461 C65 7 65 7 67 8 C68.58075491 8.09469744 70.1654805 8.1263005 71.74906921 8.12698364 C72.75140091 8.12980347 73.7537326 8.13262329 74.78643799 8.13552856 C76.44228912 8.13249222 76.44228912 8.13249222 78.1315918 8.12939453 C79.29106827 8.13114685 80.45054474 8.13289917 81.64515686 8.13470459 C85.49652584 8.13912272 89.34784926 8.13618428 93.19921875 8.1328125 C95.87002113 8.13348578 98.54082211 8.13445445 101.21162415 8.13571167 C106.81971737 8.13753293 112.42779744 8.13512952 118.03588867 8.13037109 C124.50915419 8.1249418 130.98238815 8.12668158 137.45565289 8.1321975 C143.01669353 8.13674572 148.57772469 8.13737042 154.13876659 8.13475883 C157.45835365 8.13320375 160.77792274 8.13337633 164.09750938 8.13629532 C167.80550632 8.13883896 171.51344308 8.1349564 175.22143555 8.12939453 C176.31521515 8.13141876 177.40899475 8.13344299 178.53591919 8.13552856 C183.80554781 8.12090934 188.80708196 7.90077918 194 7 C195.38366314 6.88318945 196.7692624 6.78533674 198.15625 6.71875 C198.86910156 6.68136719 199.58195313 6.64398438 200.31640625 6.60546875 C201.77213542 6.53515625 203.22786458 6.46484375 204.68359375 6.39453125 C208.03383741 6.21884035 211.27280184 5.96001276 214.59765625 5.47265625 C218.09321448 4.98705057 221.41113475 4.90114572 224.9375 4.9375 C226.65259766 4.95103516 226.65259766 4.95103516 228.40234375 4.96484375 C229.25957031 4.97644531 230.11679687 4.98804688 231 5 C231 5.33 231 5.66 231 6 C225.68866613 6.5589038 220.37657213 7.10976328 215.0637207 7.65405273 C213.26695767 7.83916604 211.4703966 8.02625319 209.67407227 8.21557617 C184.74484717 10.83933688 159.97660696 11.18806068 134.93188477 11.18530273 C131.29576581 11.18522206 127.65977443 11.19208293 124.02368164 11.20581055 C105.10458214 11.27605384 86.23674403 11.16033445 67.34375 10.08203125 C66.62229231 10.04094931 65.90083462 9.99986736 65.15751457 9.95754051 C16.37052265 7.10426268 16.37052265 7.10426268 0 1 C0 0.67 0 0.34 0 0 Z " fill="#8B991B" transform="translate(53,166)"/>
<path d="M0 0 C0 0.33 0 0.66 0 1 C-1.98 1 -3.96 1 -6 1 C-6 1.66 -6 2.32 -6 3 C-1.38 3 3.24 3 8 3 C4.70662445 5.1955837 3.55282381 5.28616692 -0.29296875 5.40966797 C-1.92540527 5.46684494 -1.92540527 5.46684494 -3.59082031 5.525177 C-4.77772461 5.55554047 -5.96462891 5.58590393 -7.1875 5.6171875 C-8.42983398 5.65472137 -9.67216797 5.69225525 -10.95214844 5.73092651 C-24.2719616 6.09779808 -37.59382323 6.15273876 -50.91796875 6.13037109 C-54.31877296 6.1246746 -57.71949876 6.12806332 -61.12030029 6.13382339 C-79.1028429 6.15939664 -97.03431244 5.78233041 -115 5 C-115 4.67 -115 4.34 -115 4 C-79.36 3.505 -79.36 3.505 -43 3 C-48.28 2.67 -53.56 2.34 -59 2 C-59 1.67 -59 1.34 -59 1 C-39.31987233 0.03030691 -19.69768948 -0.1194579 0 0 Z " fill="#AC4E22" transform="translate(235,195)"/>
<path d="M0 0 C1.06253494 -0.00281982 2.12506989 -0.00563965 3.21980286 -0.00854492 C4.38039719 -0.00652069 5.54099152 -0.00449646 6.73675537 -0.00241089 C7.9631926 -0.00416321 9.18962982 -0.00591553 10.45323181 -0.00772095 C13.81501679 -0.01136877 17.17674023 -0.01051209 20.53852177 -0.00734186 C24.06218103 -0.00480737 27.5858377 -0.00715905 31.10949707 -0.00872803 C37.0309903 -0.01054749 42.95247106 -0.00815024 48.8739624 -0.00338745 C55.70624872 0.00204469 62.53850514 0.00029925 69.37079072 -0.00521386 C75.24526036 -0.00976334 81.11972105 -0.01038626 86.99419188 -0.00777519 C90.4987803 -0.00622121 94.0033547 -0.00599427 97.5079422 -0.00931168 C101.42146448 -0.01275722 105.3349538 -0.00797071 109.24847412 -0.00241089 C110.97722023 -0.00544724 110.97722023 -0.00544724 112.7408905 -0.00854492 C118.5142487 0.00661585 124.03991072 0.28937072 129.75140381 1.12698364 C132.04026294 1.25221488 134.33104597 1.34651988 136.62249756 1.40823364 C137.85548584 1.44561646 139.08847412 1.48299927 140.35882568 1.52151489 C142.93953424 1.59257979 145.52026405 1.66287653 148.10101318 1.73245239 C149.32497803 1.76983521 150.54894287 1.80721802 151.80999756 1.84573364 C152.92688965 1.87602661 154.04378174 1.90631958 155.19451904 1.93753052 C157.75140381 2.12698364 157.75140381 2.12698364 158.75140381 3.12698364 C161.2773664 3.36351887 163.78247588 3.54872056 166.31390381 3.68948364 C167.02482178 3.73266724 167.73573975 3.77585083 168.46820068 3.82034302 C170.22902293 3.92670141 171.99018701 4.0273721 173.75140381 4.12698364 C173.75140381 4.78698364 173.75140381 5.44698364 173.75140381 6.12698364 C174.70015381 6.08573364 175.64890381 6.04448364 176.62640381 6.00198364 C179.75140381 6.12698364 179.75140381 6.12698364 181.75140381 8.12698364 C180.67898438 8.00073608 179.60656494 7.87448853 178.50164795 7.74441528 C167.90313429 6.51897269 157.30388913 5.54279431 146.66473389 4.7492981 C144.18618018 4.56428033 141.7080418 4.3743242 139.22991943 4.18362427 C137.58996737 4.05898691 135.94999406 3.93462864 134.30999756 3.81057739 C133.601129 3.75639145 132.89226044 3.70220551 132.16191101 3.64637756 C129.69236417 3.46313216 127.22208628 3.29425993 124.75140381 3.12698364 C122.93946785 2.99806732 122.93946785 2.99806732 121.09092712 2.86654663 C109.80409124 2.10303044 98.55698844 1.97996378 87.24749756 1.99417114 C85.31146737 1.99349457 83.37543726 1.99252163 81.43940735 1.99127197 C77.40464459 1.98980913 73.36990417 1.99190191 69.33514404 1.99661255 C64.23770303 2.00228278 59.14031447 1.99893913 54.04287529 1.99318218 C28.73391787 1.96873388 3.51538534 2.02141065 -21.706604 4.3742981 C-23.77994969 4.56740382 -25.85398242 4.75109543 -27.92828369 4.93362427 C-37.39763483 5.78230035 -46.82230844 6.89195079 -56.24859619 8.12698364 C-56.24859619 7.46698364 -56.24859619 6.80698364 -56.24859619 6.12698364 C-49.91305907 4.22632251 -43.82413752 3.7192765 -37.22515869 3.37307739 C-34.32241911 3.31889329 -34.32241911 3.31889329 -32.24859619 2.12698364 C-30.55655096 1.98607067 -28.85965677 1.90115064 -27.16265869 1.84573364 C-25.642854 1.78965942 -25.642854 1.78965942 -24.09234619 1.73245239 C-23.03015869 1.69764771 -21.96797119 1.66284302 -20.87359619 1.62698364 C-18.78231837 1.55795613 -16.69115988 1.48518673 -14.60015869 1.40823364 C-13.67026123 1.37794067 -12.74036377 1.34764771 -11.7822876 1.31643677 C-9.34134508 1.21579184 -9.34134508 1.21579184 -7.41827774 0.6230793 C-4.8861299 0.04410606 -2.59817211 0.00106191 0 0 Z " fill="#935302" transform="translate(118.24859619140625,34.873016357421875)"/>
<path d="M0 0 C2.58671783 3.88007674 2.30497418 7.13523341 2.30078125 11.63671875 C2.3063353 12.50044601 2.31188934 13.36417328 2.31761169 14.2540741 C2.32945307 17.06538564 2.32310625 19.87618812 2.3125 22.6875 C2.31100952 23.6397345 2.30951904 24.59196899 2.3079834 25.57305908 C2.17761298 71.64538093 2.17761298 71.64538093 -11 91 C-11.4125 91.64453125 -11.825 92.2890625 -12.25 92.953125 C-13.4375 94.625 -13.4375 94.625 -16 97 C-19.8125 97.375 -19.8125 97.375 -23 97 C-23 97.66 -23 98.32 -23 99 C-25.97 99.99 -25.97 99.99 -29 101 C-29 100.01 -29 99.02 -29 98 C-27.49609375 96.9296875 -27.49609375 96.9296875 -25.4375 95.875 C-18.06289157 91.54160177 -14.02893776 84.31177594 -10 77 C-9.01 76.01 -9.01 76.01 -8 75 C-5.99082483 70.50890257 -5 66.92728647 -5 62 C-4.01 61.505 -4.01 61.505 -3 61 C-2.53248212 58.64400765 -2.53248212 58.64400765 -2.375 55.9375 C-2.30023438 55.01839844 -2.22546875 54.09929687 -2.1484375 53.15234375 C-2.09945313 52.44207031 -2.05046875 51.73179687 -2 51 C-1.67 51 -1.34 51 -1 51 C-0.67 34.17 -0.34 17.34 0 0 Z " fill="#AA3A07" transform="translate(353,82)"/>
<path d="M0 0 C1.23363281 0.00676758 1.23363281 0.00676758 2.4921875 0.01367188 C4.49482396 0.02531511 6.49742227 0.04324444 8.5 0.0625 C5.23747692 3.60872073 3.35222386 4.62138874 -1.5 5.0625 C-1.5 5.3925 -1.5 5.7225 -1.5 6.0625 C-3.02246338 6.16739746 -3.02246338 6.16739746 -4.57568359 6.27441406 C-9.34312685 6.60705192 -14.10925568 6.95639837 -18.875 7.3125 C-19.73347534 7.37641937 -20.59195068 7.44033875 -21.47644043 7.50619507 C-33.77158529 8.43786774 -45.86337053 9.75682568 -58.00537109 11.96777344 C-59.46450928 12.2254248 -59.46450928 12.2254248 -60.953125 12.48828125 C-61.79004883 12.64723877 -62.62697266 12.80619629 -63.48925781 12.9699707 C-64.4845752 13.01577271 -64.4845752 13.01577271 -65.5 13.0625 C-66.16 12.4025 -66.82 11.7425 -67.5 11.0625 C-66.695625 10.77375 -65.89125 10.485 -65.0625 10.1875 C-62.3673532 9.32987432 -62.3673532 9.32987432 -61.5 7.0625 C-58.72949974 6.8678162 -55.95886998 6.68147208 -53.1875 6.5 C-52.40181641 6.44392578 -51.61613281 6.38785156 -50.80664062 6.33007812 C-49.6706543 6.25756836 -49.6706543 6.25756836 -48.51171875 6.18359375 C-47.46697388 6.11289673 -47.46697388 6.11289673 -46.40112305 6.04077148 C-44.5 6.0625 -44.5 6.0625 -41.5 7.0625 C-41.5 6.4025 -41.5 5.7425 -41.5 5.0625 C-40.22125 5.10375 -38.9425 5.145 -37.625 5.1875 C-35.48128508 5.30462873 -35.48128508 5.30462873 -33.5 5.0625 C-32.84 4.4025 -32.18 3.7425 -31.5 3.0625 C-29.13490639 2.76190057 -26.75558119 2.56734988 -24.375 2.4375 C-23.09367187 2.36273437 -21.81234375 2.28796875 -20.4921875 2.2109375 C-19.50476563 2.16195313 -18.51734375 2.11296875 -17.5 2.0625 C-17.5 1.7325 -17.5 1.4025 -17.5 1.0625 C-11.61599345 0.20554033 -5.94090708 -0.06289234 0 0 Z " fill="#A94109" transform="translate(115.5,13.9375)"/>
<path d="M0 0 C7.05993385 -0.09760277 14.07960935 -0.08955544 21.12695312 0.35488892 C38.02470676 1.37890801 54.97110999 1.15128894 71.89208984 1.13037109 C76.56133616 1.12467429 81.23052543 1.12805024 85.89976978 1.13382244 C111.03800908 1.21001965 111.03800908 1.21001965 136.15112305 0.22045898 C141.43895584 -0.08242164 146.70423137 -0.09867892 152 0 C152 0.66 152 1.32 152 2 C150.6087793 2.03758423 150.6087793 2.03758423 149.18945312 2.07592773 C145.71539461 2.17163362 142.2414708 2.2708291 138.76757812 2.37231445 C137.27022126 2.41535863 135.77282487 2.45705201 134.27539062 2.49731445 C132.11055644 2.55576498 129.94591566 2.61923453 127.78125 2.68359375 C125.8331543 2.73858032 125.8331543 2.73858032 123.84570312 2.79467773 C120.00302243 2.94847475 120.00302243 2.94847475 116.22949219 3.5057373 C112.29924295 4.00869041 108.44829002 4.12050755 104.48242188 4.11352539 C103.42728394 4.11374443 103.42728394 4.11374443 102.35083008 4.1139679 C100.05677052 4.11327869 97.76279513 4.10553345 95.46875 4.09765625 C93.86592656 4.09578854 92.26310254 4.0943663 90.66027832 4.09336853 C86.46490878 4.08957117 82.26957448 4.07976496 78.07421875 4.06866455 C73.78385901 4.05839031 69.49349352 4.05385809 65.203125 4.04882812 C56.80206726 4.03813991 48.40103803 4.02109732 40 4 C40 4.66 40 5.32 40 6 C36.7 6 33.4 6 30 6 C30.99 5.67 31.98 5.34 33 5 C32.505 4.01 32.505 4.01 32 3 C29.60504161 2.67765704 27.30976558 2.48300225 24.90234375 2.3671875 C23.83905602 2.30484421 23.83905602 2.30484421 22.75428772 2.24124146 C20.48243157 2.11012563 18.21010082 1.99242849 15.9375 1.875 C14.4003409 1.78864093 12.86323037 1.70141271 11.32617188 1.61328125 C7.55127163 1.39875191 3.77589255 1.1962568 0 1 C0 0.67 0 0.34 0 0 Z " fill="#9B4701" transform="translate(104,175)"/>
<path d="M0 0 C36.63 0.495 36.63 0.495 74 1 C74 1.33 74 1.66 74 2 C73.04287109 2.07347656 73.04287109 2.07347656 72.06640625 2.1484375 C71.24011719 2.22320312 70.41382813 2.29796875 69.5625 2.375 C68.73878906 2.44460937 67.91507812 2.51421875 67.06640625 2.5859375 C66.38449219 2.72257813 65.70257813 2.85921875 65 3 C64.67 3.66 64.34 4.32 64 5 C42.88 5 21.76 5 0 5 C0 3.33333333 0 1.66666667 0 0 Z " fill="#B34104" transform="translate(128,194)"/>
<path d="M0 0 C0 0.33 0 0.66 0 1 C-0.804375 1.12375 -1.60875 1.2475 -2.4375 1.375 C-3.283125 1.58125 -4.12875 1.7875 -5 2 C-5.33 2.66 -5.66 3.32 -6 4 C-7.18078125 4.06058594 -8.3615625 4.12117188 -9.578125 4.18359375 C-11.1354277 4.26802582 -12.69271879 4.35267249 -14.25 4.4375 C-15.02730469 4.47681641 -15.80460937 4.51613281 -16.60546875 4.55664062 C-17.73662109 4.61948242 -17.73662109 4.61948242 -18.890625 4.68359375 C-19.58188477 4.72025146 -20.27314453 4.75690918 -20.98535156 4.79467773 C-23.00288495 4.94826572 -23.00288495 4.94826572 -24.92236328 5.50219727 C-27.42707576 6.10232755 -29.7775628 6.19739764 -32.3515625 6.28125 C-33.36734375 6.31863281 -34.383125 6.35601562 -35.4296875 6.39453125 C-37.56769985 6.46510134 -39.70572077 6.53541197 -41.84375 6.60546875 C-43.36355469 6.66154297 -43.36355469 6.66154297 -44.9140625 6.71875 C-45.8417041 6.74904297 -46.7693457 6.77933594 -47.72509766 6.81054688 C-50.03109595 6.86078124 -50.03109595 6.86078124 -52 8 C-55.29926241 8.41405643 -58.61873039 8.56009134 -61.9375 8.75 C-62.85724609 8.81832031 -63.77699219 8.88664062 -64.72460938 8.95703125 C-65.60826172 9.00730469 -66.49191406 9.05757812 -67.40234375 9.109375 C-68.61651978 9.18623535 -68.61651978 9.18623535 -69.85522461 9.26464844 C-72.52192322 8.93559877 -73.33793071 8.04655039 -75 6 C-58.96684985 3.81496248 -42.96271637 1.81518774 -26.8125 0.75 C-25.6167334 0.67023926 -24.4209668 0.59047852 -23.18896484 0.50830078 C-15.45182982 0.03849578 -7.75028741 -0.08665815 0 0 Z " fill="#B34403" transform="translate(136,31)"/>
<path d="M0 0 C0.33 1.32 0.66 2.64 1 4 C1.66 4 2.32 4 3 4 C3 16.54 3 29.08 3 42 C2.67 42 2.34 42 2 42 C1.67 44.97 1.34 47.94 1 51 C-0.485 51.495 -0.485 51.495 -2 52 C-1.835 52.495 -1.67 52.99 -1.5 53.5 C-0.79311182 57.03444089 -0.93994845 60.39690701 -1 64 C-1.66 63.01 -2.32 62.02 -3 61 C-3.66 63.31 -4.32 65.62 -5 68 C-5.66 67.67 -6.32 67.34 -7 67 C-6.72285156 65.70964844 -6.44570313 64.41929687 -6.16015625 63.08984375 C-5.79414832 61.37242194 -5.42826976 59.65497255 -5.0625 57.9375 C-4.88009766 57.08994141 -4.69769531 56.24238281 -4.50976562 55.36914062 C-4.24389648 54.11713867 -4.24389648 54.11713867 -3.97265625 52.83984375 C-3.81031494 52.08050537 -3.64797363 51.32116699 -3.48071289 50.53881836 C-2.26979245 44.14351023 -1.75570255 37.83548126 -1.46484375 31.34765625 C-1.42186661 30.44752304 -1.37888947 29.54738983 -1.33460999 28.61997986 C-1.19913314 25.767623 -1.06824613 22.91507722 -0.9375 20.0625 C-0.84600711 18.11912629 -0.75421335 16.17576672 -0.66210938 14.23242188 C-0.43792495 9.48843776 -0.21785439 4.74427885 0 0 Z " fill="#B13F04" transform="translate(350,92)"/>
<path d="M0 0 C1.66362417 0.34820041 3.32995171 0.68404492 5 1 C5 1.33 5 1.66 5 2 C4.16597656 2.10957031 3.33195312 2.21914063 2.47265625 2.33203125 C-5.01292473 3.38670073 -12.31563551 4.51115359 -19.05859375 8.09375 C-21 9 -21 9 -24 9 C-24 9.99 -24 10.98 -24 12 C-25.6436814 13.68933922 -27.3142876 15.35259924 -29 17 C-29.721875 18.093125 -30.44375 19.18625 -31.1875 20.3125 C-31.785625 21.199375 -32.38375 22.08625 -33 23 C-33.66 23 -34.32 23 -35 23 C-35.33 23.99 -35.66 24.98 -36 26 C-35.47645073 17.7977281 -32.07455848 11.58586981 -26 6.0625 C-21.0691677 1.85737487 -16.22422801 0.7089409 -9.875 -0.1875 C-8.65554687 -0.36667969 -7.43609375 -0.54585937 -6.1796875 -0.73046875 C-3 -1 -3 -1 0 0 Z " fill="#A2D832" transform="translate(71,44)"/>
<path d="M0 0 C2.58670998 3.88006496 2.30500153 7.13524047 2.30078125 11.63671875 C2.30628998 12.50053665 2.31179871 13.36435455 2.31747437 14.25434875 C2.32920433 17.06556329 2.32283973 19.87628465 2.3125 22.6875 C2.31076279 24.11485474 2.31076279 24.11485474 2.30899048 25.57104492 C2.26492088 43.78237211 1.67458613 61.54687619 -4 79 C-4.33 79 -4.66 79 -5 79 C-5 73.39 -5 67.78 -5 62 C-4.01 61.505 -4.01 61.505 -3 61 C-2.53248212 58.64400765 -2.53248212 58.64400765 -2.375 55.9375 C-2.30023438 55.01839844 -2.22546875 54.09929687 -2.1484375 53.15234375 C-2.09945313 52.44207031 -2.05046875 51.73179687 -2 51 C-1.67 51 -1.34 51 -1 51 C-0.67 34.17 -0.34 17.34 0 0 Z " fill="#AB592F" transform="translate(353,82)"/>
<path d="M0 0 C0.66 0 1.32 0 2 0 C1.67 2.97 1.34 5.94 1 9 C0.34 8.34 -0.32 7.68 -1 7 C-1.66 9.31 -2.32 11.62 -3 14 C-4.32 14 -5.64 14 -7 14 C-6.979375 15.27875 -6.95875 16.5575 -6.9375 17.875 C-6.875 21.75 -6.875 21.75 -8 24 C-8.15733249 26.98763355 -8.25861415 29.95541151 -8.31640625 32.9453125 C-8.33718735 33.8303244 -8.35796844 34.7153363 -8.37937927 35.62716675 C-8.44486598 38.45969741 -8.50375562 41.29232225 -8.5625 44.125 C-8.60568606 46.04297857 -8.64930037 47.96094754 -8.69335938 49.87890625 C-8.80054647 54.58584051 -8.9018164 59.29286967 -9 64 C-9.33 64 -9.66 64 -10 64 C-10.05010671 58.16912025 -10.08604754 52.33837073 -10.10986328 46.50732422 C-10.11981036 44.53106498 -10.13337281 42.55482002 -10.15087891 40.57861328 C-10.38521211 13.40974607 -10.38521211 13.40974607 -8 5 C-5.92236328 3.58007812 -5.92236328 3.58007812 -4 3 C-4 2.34 -4 1.68 -4 1 C-2.68 1.33 -1.36 1.66 0 2 C0 1.34 0 0.68 0 0 Z " fill="#92BD23" transform="translate(42,64)"/>
<path d="M0 0 C17.02597388 -0.15224767 33.99038594 0.25563141 51 1 C51 1.33 51 1.66 51 2 C41.86533168 2.6888091 33.11348853 3.30192693 24 2 C23.814375 3.11375 23.62875 4.2275 23.4375 5.375 C22.963125 6.57125 22.48875 7.7675 22 9 C18.375 10.4375 18.375 10.4375 15 11 C13.39274365 7.78548731 13.94251815 4.56387464 14 1 C9.38 1 4.76 1 0 1 C0 0.67 0 0.34 0 0 Z " fill="#E4771E" transform="translate(200,18)"/>
<path d="M0 0 C2 2 2 2 2.22705078 5.99072266 C2.22673337 7.71520169 2.21539124 9.43970033 2.1953125 11.1640625 C2.1924826 12.07127045 2.18965271 12.97847839 2.18673706 13.91317749 C2.17552153 16.81725123 2.15041463 19.72101912 2.125 22.625 C2.11497197 24.59114139 2.10584581 26.5572876 2.09765625 28.5234375 C2.07557772 33.34907659 2.04103865 38.1744864 2 43 C1.01 43 0.02 43 -1 43 C-1.02464574 37.03686834 -1.042834 31.07376605 -1.05493164 25.1105957 C-1.05997278 23.08031702 -1.06680557 21.05004198 -1.07543945 19.01977539 C-1.08751467 16.10822653 -1.09323034 13.1967255 -1.09765625 10.28515625 C-1.10281754 9.3716188 -1.10797882 8.45808136 -1.11329651 7.51686096 C-1.11349168 5.34424573 -1.06211805 3.17172704 -1 1 C-0.67 0.67 -0.34 0.34 0 0 Z " fill="#AC3B03" transform="translate(10,85)"/>
<path d="M0 0 C0.99 0 1.98 0 3 0 C3.32871094 1.50626953 3.32871094 1.50626953 3.6640625 3.04296875 C5.78735657 12.33980043 8.62308515 20.47960576 13 29 C12.01 29 11.02 29 10 29 C9.67 28.67 9.34 28.34 9 28 C8.01 28.33 7.02 28.66 6 29 C2.99182242 24.84661808 2.47974565 21.1809774 2.3125 16.1875 C2.27833984 15.49462891 2.24417969 14.80175781 2.20898438 14.08789062 C2.12713656 12.39247151 2.06187635 10.69626542 2 9 C1.34 9 0.68 9 0 9 C-1.125 2.25 -1.125 2.25 0 0 Z " fill="#A83D0A" transform="translate(12,142)"/>
<path d="M0 0 C-1.18078125 0.04898437 -2.3615625 0.09796875 -3.578125 0.1484375 C-5.13543937 0.22348879 -6.69272991 0.29903561 -8.25 0.375 C-9.02730469 0.4059375 -9.80460937 0.436875 -10.60546875 0.46875 C-14.61899197 0.6745717 -17.45012417 0.99063632 -21 3 C-24.25 2.625 -24.25 2.625 -27 2 C-27 2.66 -27 3.32 -27 4 C-33.6 4 -40.2 4 -47 4 C-47.66 5.32 -48.32 6.64 -49 8 C-50.32 8 -51.64 8 -53 8 C-53 7.34 -53 6.68 -53 6 C-54.98 6.33 -56.96 6.66 -59 7 C-55.44189278 4.62792852 -52.05309549 3.91819682 -47.9375 3.0625 C-47.11983154 2.89137695 -46.30216309 2.72025391 -45.4597168 2.54394531 C-38.12032669 1.08570741 -30.74313068 0.11197209 -23.3125 -0.75 C-21.66592407 -0.94130493 -21.66592407 -0.94130493 -19.98608398 -1.13647461 C-4.2781541 -2.85210273 -4.2781541 -2.85210273 0 0 Z " fill="#AB572A" transform="translate(101,17)"/>
<path d="M0 0 C42.13904069 -0.79533951 42.13904069 -0.79533951 54.421875 10.16015625 C55.20304687 11.07087891 55.20304687 11.07087891 56 12 C53.36 11.67 50.72 11.34 48 11 C48 10.01 48 9.02 48 8 C46.02 8 44.04 8 42 8 C42 7.67 42 7.34 42 7 C35.39801528 4.99274574 29.49331001 4.81805801 22.625 5 C20.65907062 5.05086493 18.69288915 5.09298383 16.7265625 5.125 C15.86627441 5.14820313 15.00598633 5.17140625 14.11962891 5.1953125 C12 5 12 5 10 3 C7.57284794 2.32059533 7.57284794 2.32059533 4.875 1.875 C3.96492188 1.70742188 3.05484375 1.53984375 2.1171875 1.3671875 C1.41851562 1.24601562 0.71984375 1.12484375 0 1 C0 0.67 0 0.34 0 0 Z " fill="#ABD933" transform="translate(260,39)"/>
<path d="M0 0 C0.8206897 0.08302368 0.8206897 0.08302368 1.65795898 0.16772461 C13.76359012 1.38245903 25.84824243 2.39480106 38 3 C38 3.33 38 3.66 38 4 C35.36 4 32.72 4 30 4 C30 4.66 30 5.32 30 6 C29.01 6.33 28.02 6.66 27 7 C26.67 6.67 26.34 6.34 26 6 C24.59556848 5.92553385 23.18750051 5.9167009 21.78125 5.9375 C20.93175781 5.94523438 20.08226563 5.95296875 19.20703125 5.9609375 C17.86705078 5.98027344 17.86705078 5.98027344 16.5 6 C14.73964333 6.02540197 12.97921697 6.04647147 11.21875 6.0625 C10.43435547 6.07410156 9.64996094 6.08570313 8.84179688 6.09765625 C7 6 7 6 6 5 C3.67182036 4.63239269 1.3381615 4.29758419 -1 4 C-0.67 2.68 -0.34 1.36 0 0 Z " fill="#B54204" transform="translate(66,189)"/>
<path d="M0 0 C0.33 0 0.66 0 1 0 C3.8795515 11.28022653 2.77624492 22.50666619 2 34 C1.34 34 0.68 34 0 34 C-0.33 40.27 -0.66 46.54 -1 53 C-1.33 53 -1.66 53 -2 53 C-2 40.46 -2 27.92 -2 15 C-1.01 16.485 -1.01 16.485 0 18 C0 12.06 0 6.12 0 0 Z " fill="#BB4706" transform="translate(351,62)"/>
<path d="M0 0 C1.98 0 3.96 0 6 0 C6 0.66 6 1.32 6 2 C8.31 2 10.62 2 13 2 C13 2.33 13 2.66 13 3 C11.95827637 3.12060791 11.95827637 3.12060791 10.89550781 3.24365234 C7.67997487 3.61771285 4.46499408 3.99633705 1.25 4.375 C0.15816406 4.50132813 -0.93367188 4.62765625 -2.05859375 4.7578125 C-8.64870389 5.53770719 -15.13660271 6.51337641 -21.64550781 7.81494141 C-22.42249023 7.87601074 -23.19947266 7.93708008 -24 8 C-24.66 7.34 -25.32 6.68 -26 6 C-25.195625 5.71125 -24.39125 5.4225 -23.5625 5.125 C-20.8673532 4.26737432 -20.8673532 4.26737432 -20 2 C-17.22949974 1.8053162 -14.45886998 1.61897208 -11.6875 1.4375 C-10.90181641 1.38142578 -10.11613281 1.32535156 -9.30664062 1.26757812 C-8.1706543 1.19506836 -8.1706543 1.19506836 -7.01171875 1.12109375 C-6.31522217 1.0739624 -5.61872559 1.02683105 -4.90112305 0.97827148 C-3 1 -3 1 0 2 C0 1.34 0 0.68 0 0 Z " fill="#B64202" transform="translate(74,19)"/>
<path d="M0 0 C0.99 0.495 0.99 0.495 2 1 C2.81640625 3.6875 2.81640625 3.6875 3.5625 7 C4.15573784 10.81005673 4.15573784 10.81005673 6 14 C6.10422936 15.7996366 6.13854102 17.603366 6.14526367 19.40600586 C6.15164352 20.56067856 6.15802338 21.71535126 6.16459656 22.90501404 C6.16570938 24.16225784 6.1668222 25.41950165 6.16796875 26.71484375 C6.17129715 27.99605606 6.17462555 29.27726837 6.17805481 30.5973053 C6.18405192 33.3134953 6.18589413 36.02965345 6.18530273 38.74584961 C6.1852011 42.23090592 6.19885216 45.71575855 6.21607494 49.20076656 C6.22985066 52.51796233 6.22928324 55.8351197 6.23046875 59.15234375 C6.23765427 60.40756332 6.24483978 61.6627829 6.25224304 62.95603943 C6.24916641 64.11386429 6.24608978 65.27168915 6.24291992 66.46459961 C6.24434494 67.48750595 6.24576996 68.51041229 6.24723816 69.5643158 C6 72 6 72 4 74 C4.00444122 73.43418213 4.00888245 72.86836426 4.01345825 72.28540039 C4.05823635 66.31399095 4.08808842 60.34263035 4.10986328 54.37109375 C4.11982589 52.15232399 4.13340085 49.93356703 4.15087891 47.71484375 C4.27582721 31.42746519 3.60358308 15.94777193 0 0 Z " fill="#955201" transform="translate(325,62)"/>
<path d="M0 0 C0.79019531 -0.00773438 1.58039063 -0.01546875 2.39453125 -0.0234375 C7.03011318 -0.00801127 10.76537661 0.48372171 15.125 2.25 C15.125 2.58 15.125 2.91 15.125 3.25 C10.505 3.58 5.885 3.91 1.125 4.25 C1.125 4.58 1.125 4.91 1.125 5.25 C-3.165 5.25 -7.455 5.25 -11.875 5.25 C-12.205 4.26 -12.535 3.27 -12.875 2.25 C-8.88094102 -0.47027801 -4.63760276 -0.04495253 0 0 Z " fill="#A83C04" transform="translate(269.875,191.75)"/>
<path d="M0 0 C0 0.66 0 1.32 0 2 C-1.07121094 2.20496094 -2.14242187 2.40992188 -3.24609375 2.62109375 C-4.64326851 2.89302709 -6.04040181 3.16517352 -7.4375 3.4375 C-8.14455078 3.57220703 -8.85160156 3.70691406 -9.58007812 3.84570312 C-13.08429264 4.28406898 -13.08429264 4.28406898 -16 6 C-19.2098693 6.26998901 -22.41230859 6.44611437 -25.62890625 6.60546875 C-29.10944277 6.4970552 -29.10944277 6.4970552 -32 8 C-33.56172745 8.08685603 -35.12729344 8.10702219 -36.69140625 8.09765625 C-37.63564453 8.09443359 -38.57988281 8.09121094 -39.55273438 8.08789062 C-40.54595703 8.07951172 -41.53917969 8.07113281 -42.5625 8.0625 C-43.55958984 8.05798828 -44.55667969 8.05347656 -45.58398438 8.04882812 C-48.05604849 8.03700007 -50.52799518 8.02051849 -53 8 C-53 7.67 -53 7.34 -53 7 C-51.10109009 6.78851318 -51.10109009 6.78851318 -49.16381836 6.57275391 C-44.44616877 6.04573372 -39.72943836 5.51084533 -35.01293945 4.97363281 C-32.97541968 4.74265891 -30.93766002 4.5137906 -28.8996582 4.28710938 C-25.96238952 3.96002891 -23.0260802 3.62526836 -20.08984375 3.2890625 C-19.18540024 3.19001617 -18.28095673 3.09096985 -17.34910583 2.98892212 C-11.58766564 2.31958711 -5.69240922 0 0 0 Z " fill="#955704" transform="translate(309,167)"/>
<path d="M0 0 C0.33 0 0.66 0 1 0 C1.05434116 2.5419589 1.0938339 5.08273682 1.125 7.625 C1.14175781 8.33785156 1.15851563 9.05070313 1.17578125 9.78515625 C1.21684602 14.2612164 0.69086567 17.77949278 -1 22 C-2.98 22.33 -4.96 22.66 -7 23 C-7.33 24.32 -7.66 25.64 -8 27 C-9.65 27.33 -11.3 27.66 -13 28 C-7 20 -7 20 -5.4375 18.25 C-3.34068477 14.96802834 -2.66819381 11.51904822 -1.8125 7.75 C-1.63525391 7.00492188 -1.45800781 6.25984375 -1.27539062 5.4921875 C-0.84165807 3.66347729 -0.41965403 1.83199221 0 0 Z " fill="#9C4A05" transform="translate(328,136)"/>
<path d="M0 0 C0.33 1.32 0.66 2.64 1 4 C1.66 3.67 2.32 3.34 3 3 C8.53846154 2.76923077 8.53846154 2.76923077 11 4 C11.125 10.75 11.125 10.75 10 13 C2.56338028 12.15492958 2.56338028 12.15492958 0 9 C-0.33346117 5.97195744 -0.22892292 3.03322873 0 0 Z " fill="#D96C14" transform="translate(14,69)"/>
<path d="M0 0 C3.60008519 -0.32728047 5.41611492 -0.40422813 8.4375 1.6875 C8.953125 2.450625 9.46875 3.21375 10 4 C9.67 5.65 9.34 7.3 9 9 C2.73 9 -3.54 9 -10 9 C-10 8.67 -10 8.34 -10 8 C-6.37 8 -2.74 8 1 8 C0.67 7.34 0.34 6.68 0 6 C-0.039992 4.00039988 -0.04346799 1.99952758 0 0 Z " fill="#D56715" transform="translate(146,186)"/>
<path d="M0 0 C0.99 0 1.98 0 3 0 C4.51553092 3.97450493 3.49888623 7.20481149 2.5625 11.25 C2.27503906 12.51328125 1.98757812 13.7765625 1.69140625 15.078125 C1.46324219 16.04234375 1.23507813 17.0065625 1 18 C0.34 17.67 -0.32 17.34 -1 17 C-1.33 18.32 -1.66 19.64 -2 21 C-2.66 21 -3.32 21 -4 21 C-3.91262287 18.43593328 -3.80570881 15.87517784 -3.6875 13.3125 C-3.66494141 12.59126953 -3.64238281 11.87003906 -3.61914062 11.12695312 C-3.39722241 6.70876318 -2.9349817 3.53452666 0 0 Z " fill="#A53A01" transform="translate(13,56)"/>
<path d="M0 0 C2.125 0.9375 2.125 0.9375 4 2 C-12.25280899 13 -12.25280899 13 -20 13 C-20 12.34 -20 11.68 -20 11 C-18.2984375 10.38125 -18.2984375 10.38125 -16.5625 9.75 C-12.90456616 8.43314602 -12.90456616 8.43314602 -12.0625 5.8125 C-12.041875 5.214375 -12.02125 4.61625 -12 4 C-8.57015811 3.05383672 -5.55824425 3 -2 3 C-2 2.34 -2 1.68 -2 1 C-1.34 0.67 -0.68 0.34 0 0 Z " fill="#A44919" transform="translate(332,178)"/>
<path d="M0 0 C6.40818182 -0.36272727 6.40818182 -0.36272727 8.9375 1.1875 C10.34443368 3.58756334 10.28792759 5.26468791 10 8 C9 9 9 9 5.5625 9.1875 C2 9 2 9 0 7 C-0.125 3.375 -0.125 3.375 0 0 Z " fill="#D46410" transform="translate(255,181)"/>
<path d="M0 0 C0.33 0 0.66 0 1 0 C1.33 2.31 1.66 4.62 2 7 C1.01 7 0.02 7 -1 7 C-1 8.32 -1 9.64 -1 11 C-1.99 11 -2.98 11 -4 11 C-4 12.32 -4 13.64 -4 15 C-5.98 15 -7.96 15 -10 15 C-10 15.66 -10 16.32 -10 17 C-11.98 17.66 -13.96 18.32 -16 19 C-16 18.01 -16 17.02 -16 16 C-14.49609375 14.9296875 -14.49609375 14.9296875 -12.4375 13.875 C-6.91153331 10.65971333 -2.85529902 5.71059803 0 0 Z " fill="#B64307" transform="translate(340,164)"/>
<path d="M0 0 C1.96792836 1.96792836 2.85283135 3.46756819 4.0625 5.9375 C4.40410156 6.62714844 4.74570312 7.31679687 5.09765625 8.02734375 C6 10 6 10 7 13 C7.99 13.33 8.98 13.66 10 14 C6.65979228 15.11340257 4.32199049 15.24574643 1 14 C-1.99826633 10.35345986 -3 8.78447394 -3 4 C-2.34 4 -1.68 4 -1 4 C-0.67 2.68 -0.34 1.36 0 0 Z " fill="#A14102" transform="translate(35,147)"/>
<path d="M0 0 C0.94875 0.04125 1.8975 0.0825 2.875 0.125 C2.00875 1.0325 1.1425 1.94 0.25 2.875 C-3.93610769 7.70895769 -6.45588001 13.36083661 -9.125 19.125 C-9.785 18.465 -10.445 17.805 -11.125 17.125 C-10.78380371 10.86973463 -10.78380371 10.86973463 -8.6875 8.5 C-8.171875 8.04625 -7.65625 7.5925 -7.125 7.125 C-6.43746699 5.46683216 -5.76938717 3.80040664 -5.125 2.125 C-3.125 0.125 -3.125 0.125 0 0 Z " fill="#B64306" transform="translate(27.125,36.875)"/>
<path d="M0 0 C13.75022459 -0.36885848 27.31312253 0.7688359 41 2 C41 2.33 41 2.66 41 3 C36.4467813 3.02489563 31.89360307 3.04295187 27.34033203 3.05493164 C25.79442656 3.05993092 24.24852575 3.06673253 22.70263672 3.07543945 C20.46841272 3.08769956 18.23425174 3.09327249 16 3.09765625 C15.31945557 3.10281754 14.63891113 3.10797882 13.93774414 3.11329651 C9.20012279 3.11383862 4.68023665 2.66044355 0 2 C0 1.34 0 0.68 0 0 Z " fill="#B46034" transform="translate(240,14)"/>
<path d="M0 0 C5.33297572 4.15972106 10.27029691 8.67105131 13 15 C12.65625 17.77734375 12.65625 17.77734375 12 20 C10 18.6875 10 18.6875 8 17 C8 16.01 8 15.02 8 14 C7.01 14.33 6.02 14.66 5 15 C4.34 13.68 3.68 12.36 3 11 C3.99 10.67 4.98 10.34 6 10 C6.33 9.34 6.66 8.68 7 8 C5.35 7.67 3.7 7.34 2 7 C2 5.68 2 4.36 2 3 C1.34 3 0.68 3 0 3 C0 2.01 0 1.02 0 0 Z " fill="#B7531F" transform="translate(334,32)"/>
<path d="M0 0 C5.94 0 11.88 0 18 0 C13.96314468 4.03685532 13.2676092 4.52112644 8 5 C8 5.33 8 5.66 8 6 C6.37536158 6.05395478 4.75021459 6.09277195 3.125 6.125 C2.22007813 6.14820313 1.31515625 6.17140625 0.3828125 6.1953125 C-2 6 -2 6 -4 4 C-1.03 3.34 1.94 2.68 5 2 C3.35 1.67 1.7 1.34 0 1 C0 0.67 0 0.34 0 0 Z " fill="#B75019" transform="translate(106,14)"/>
<path d="M0 0 C0.66 0.33 1.32 0.66 2 1 C1.21625 1.886875 0.4325 2.77375 -0.375 3.6875 C-2.59223456 6.33447946 -3.80194024 8.74812351 -5 12 C-5.53625 12.61875 -6.0725 13.2375 -6.625 13.875 C-8.33754634 16.07721813 -8.33754634 16.07721813 -7.875 19.5625 C-7.91625 20.696875 -7.9575 21.83125 -8 23 C-10.5 24.9375 -10.5 24.9375 -13 26 C-14 24 -14 24 -13.28515625 21.56640625 C-10.07937473 13.69022098 -6.08576885 6.08576885 0 0 Z " fill="#AD5E34" transform="translate(25,33)"/>
<path d="M0 0 C0 0.99 0 1.98 0 3 C0.66 3.33 1.32 3.66 2 4 C-0.625 5.625 -0.625 5.625 -4 7 C-7.375 6.1875 -7.375 6.1875 -10 5 C-10.37125 5.495 -10.7425 5.99 -11.125 6.5 C-13.74694393 8.59755514 -15.73842472 8.21743835 -19 8 C-14.0437412 2.62944093 -7.28348184 0 0 0 Z " fill="#AB4209" transform="translate(48,23)"/>
<path d="M0 0 C0.66 0 1.32 0 2 0 C2 0.66 2 1.32 2 2 C3.65 2.33 5.3 2.66 7 3 C7 3.99 7 4.98 7 6 C8.31266518 7.35368596 9.64567325 8.68799596 11 10 C11 10.66 11 11.32 11 12 C11.66 12.33 12.32 12.66 13 13 C11.375 13.8125 11.375 13.8125 9 14 C5.03390377 11.19068184 1.64296966 8.12303267 -1 4 C-0.75 1.6875 -0.75 1.6875 0 0 Z " fill="#B24B10" transform="translate(20,169)"/>
<path d="M0 0 C3.79228144 0.10952116 7.5835384 0.24023241 11.375 0.375 C12.99535156 0.42140625 12.99535156 0.42140625 14.6484375 0.46875 C16.1953125 0.52675781 16.1953125 0.52675781 17.7734375 0.5859375 C19.20308838 0.63306885 19.20308838 0.63306885 20.66162109 0.68115234 C23 1 23 1 25 3 C23.02 3 21.04 3 19 3 C19 3.66 19 4.32 19 5 C14.71 5 10.42 5 6 5 C6.33 4.01 6.66 3.02 7 2 C4.69 1.67 2.38 1.34 0 1 C0 0.67 0 0.34 0 0 Z " fill="#A63E07" transform="translate(262,16)"/>
<path d="M0 0 C0.33 0.99 0.66 1.98 1 3 C-3.625 6 -3.625 6 -7 6 C-7 6.66 -7 7.32 -7 8 C-9.97 8 -12.94 8 -16 8 C-15.67 7.01 -15.34 6.02 -15 5 C-12.12890625 3.61328125 -12.12890625 3.61328125 -8.5625 2.3125 C-6.80099609 1.65701172 -6.80099609 1.65701172 -5.00390625 0.98828125 C-2 0 -2 0 0 0 Z " fill="#B13F05" transform="translate(319,183)"/>
<path d="M0 0 C0.33 0.66 0.66 1.32 1 2 C-1.82411765 2.94137255 -3.52918032 3.11725382 -6.44921875 3.09765625 C-7.29677734 3.09443359 -8.14433594 3.09121094 -9.01757812 3.08789062 C-9.89865234 3.07951172 -10.77972656 3.07113281 -11.6875 3.0625 C-12.58017578 3.05798828 -13.47285156 3.05347656 -14.39257812 3.04882812 C-16.59511987 3.03704983 -18.79752599 3.02060164 -21 3 C-21.33 2.34 -21.66 1.68 -22 1 C-19.08418447 0.63702296 -16.16774334 0.28431765 -13.25 -0.0625 C-12.0125 -0.2181543 -12.0125 -0.2181543 -10.75 -0.37695312 C-9.95078125 -0.47041016 -9.1515625 -0.56386719 -8.328125 -0.66015625 C-7.5949707 -0.74918213 -6.86181641 -0.83820801 -6.10644531 -0.92993164 C-3.83699714 -1.00542209 -2.1351197 -0.76998118 0 0 Z " fill="#A3E432" transform="translate(108,40)"/>
<path d="M0 0 C7.78808563 0.51648735 15.34925042 1.44876534 23 3 C23.33 3.99 23.66 4.98 24 6 C18.22192976 6.2358396 13.48675196 5.86783046 8 4 C8 3.34 8 2.68 8 2 C7.05125 2.04125 6.1025 2.0825 5.125 2.125 C2 2 2 2 0 0 Z " fill="#B35928" transform="translate(285,17)"/>
<path d="M0 0 C5.80417802 -0.18301462 10.87050118 0.36429683 16.5 1.75 C17.2425 1.92901855 17.985 2.10803711 18.75 2.29248047 C23.92077038 3.59541447 28.44830412 5.15519008 33 8 C33.495 8.99 33.495 8.99 34 10 C31.36 9.67 28.72 9.34 26 9 C26 8.01 26 7.02 26 6 C24.02 6 22.04 6 20 6 C20 5.67 20 5.34 20 5 C13.39324562 3.22125844 6.75710231 2.0586127 0 1 C0 0.67 0 0.34 0 0 Z " fill="#B2D238" transform="translate(282,41)"/>
<path d="M0 0 C3 0.125 3 0.125 4 1.125 C4.04080783 3.12458364 4.04254356 5.12545254 4 7.125 C1.69 7.785 -0.62 8.445 -3 9.125 C-4.36623674 6.39252652 -4.128426 4.14301098 -4 1.125 C-3 0.125 -3 0.125 0 0 Z " fill="#DA6E12" transform="translate(218,19.875)"/>
<path d="M0 0 C0.33 0 0.66 0 1 0 C1.33 6.27 1.66 12.54 2 19 C0.66666667 19 -0.66666667 19 -2 19 C-2.25011345 16.77308629 -2.47428352 14.54324878 -2.6875 12.3125 C-2.81511719 11.07113281 -2.94273437 9.82976562 -3.07421875 8.55078125 C-2.99368508 4.69788082 -2.33335713 3.01319946 0 0 Z " fill="#B84104" transform="translate(350,61)"/>
<path d="M0 0 C0.66 0.66 1.32 1.32 2 2 C2.66 1.67 3.32 1.34 4 1 C4 1.99 4 2.98 4 4 C4.66 4 5.32 4 6 4 C6.268125 4.639375 6.53625 5.27875 6.8125 5.9375 C7.88667752 8.33131686 7.88667752 8.33131686 11 9 C10.67 10.32 10.34 11.64 10 13 C10 12.34 10 11.68 10 11 C9.01 11.33 8.02 11.66 7 12 C6.55269531 11.54109375 6.10539062 11.0821875 5.64453125 10.609375 C2.25029352 7.16447701 -1.13576712 3.92744915 -5 1 C-3 0 -3 0 0 0 Z " fill="#B94502" transform="translate(330,31)"/>
<path d="M0 0 C2.4375 1.1875 2.4375 1.1875 3.4375 3.1875 C3.15807545 4.86404729 2.82921753 6.53358154 2.4375 8.1875 C0.43795254 8.23004356 -1.56291636 8.22830783 -3.5625 8.1875 C-4.5625 7.1875 -4.5625 7.1875 -4.625 3.625 C-4.604375 2.490625 -4.58375 1.35625 -4.5625 0.1875 C-2.5625 -0.8125 -2.5625 -0.8125 0 0 Z " fill="#DD6C12" transform="translate(343.5625,131.8125)"/>
<path d="M0 0 C1.66362417 0.34820041 3.32995171 0.68404492 5 1 C5 1.33 5 1.66 5 2 C4.14277344 2.12117188 3.28554687 2.24234375 2.40234375 2.3671875 C-3.54304491 3.23855224 -9.28148588 4.13815819 -15 6 C-15.33 4.68 -15.66 3.36 -16 2 C-10.71064991 0.06487192 -5.49841672 -1.83280557 0 0 Z " fill="#9BDE2A" transform="translate(71,44)"/>
<path d="M0 0 C2.6875 0 2.6875 0 6 1 C8.22221126 3.39779338 9.98184805 5.88190964 11 9 C10.125 11.26171875 10.125 11.26171875 9 13 C8.34 13 7.68 13 7 13 C7 11.68 7 10.36 7 9 C6.34 9 5.68 9 5 9 C5 7.68 5 6.36 5 5 C3.68 4.67 2.36 4.34 1 4 C0.67 2.68 0.34 1.36 0 0 Z " fill="#B54503" transform="translate(318,48)"/>
<path d="M0 0 C4.25983217 3.49914785 6.15672955 7.92120163 8 13 C8 13.66 8 14.32 8 15 C7.34 15 6.68 15 6 15 C5.67 15.66 5.34 16.32 5 17 C2.57142857 10.71428571 2.57142857 10.71428571 4 7 C2.35 6.67 0.7 6.34 -1 6 C-0.67 4.02 -0.34 2.04 0 0 Z " fill="#8BCF22" transform="translate(318,57)"/>
<path d="M0 0 C-1.07401108 2.91517292 -1.77810176 4.77810176 -4 7 C-6.125 6.625 -6.125 6.625 -8 6 C-8.33 4.68 -8.66 3.36 -9 2 C-10.65 2 -12.3 2 -14 2 C-14 1.67 -14 1.34 -14 1 C-12.22932584 0.83165067 -10.45845388 0.66538091 -8.6875 0.5 C-7.70136719 0.4071875 -6.71523437 0.314375 -5.69921875 0.21875 C-3 0 -3 0 0 0 Z " fill="#D76912" transform="translate(90,21)"/>
<path d="M0 0 C0.99 0 1.98 0 3 0 C3.66 4.29 4.32 8.58 5 13 C4.01 13.33 3.02 13.66 2 14 C2 12.35 2 10.7 2 9 C1.34 9 0.68 9 0 9 C-1.125 2.25 -1.125 2.25 0 0 Z " fill="#B64503" transform="translate(12,142)"/>
<path d="M0 0 C0.66 0 1.32 0 2 0 C2.25523438 1.15628906 2.25523438 1.15628906 2.515625 2.3359375 C2.87914062 3.84027344 2.87914062 3.84027344 3.25 5.375 C3.48203125 6.37273437 3.7140625 7.37046875 3.953125 8.3984375 C4.7561221 11.10157815 4.7561221 11.10157815 6.94140625 12.29296875 C7.62074219 12.52628906 8.30007812 12.75960937 9 13 C11.6875 13.9375 11.6875 13.9375 14 15 C14.33 15.99 14.66 16.98 15 18 C7.54375596 15.91918771 3.93721276 12.31093692 -0.1796875 6 C-1.17648254 3.56971876 -0.87794585 2.42789964 0 0 Z " fill="#88A720" transform="translate(38,148)"/>
<path d="M0 0 C5.16441764 4.2790889 7.93025601 9.64984929 10 16 C10.13671875 19.34765625 10.13671875 19.34765625 10 22 C5.51890125 15.27835187 1.79543555 7.89991641 0 0 Z " fill="#B5D63D" transform="translate(317,51)"/>
<path d="M0 0 C4.97093824 0.41153737 9.44508386 0.79600832 14 3 C12.02 3.99 12.02 3.99 10 5 C10 4.34 10 3.68 10 3 C8.02463255 3.34786708 8.02463255 3.34786708 6 4 C5.67 4.66 5.34 5.32 5 6 C3.35 5.67 1.7 5.34 0 5 C0 3.33333333 0 1.66666667 0 0 Z " fill="#AF4006" transform="translate(310,22)"/>
<path d="M0 0 C1.98 0 3.96 0 6 0 C7.04449911 3.13349732 6.93423645 3.98968256 6 7 C6.99 7.33 7.98 7.66 9 8 C5.87709365 7.51421457 3.00419641 7.0013988 0 6 C0 4.02 0 2.04 0 0 Z " fill="#D6670F" transform="translate(303,178)"/>
<path d="M0 0 C2.75 0.25 2.75 0.25 5 1 C4.01 2.485 4.01 2.485 3 4 C5.31 4.66 7.62 5.32 10 6 C10 6.99 10 7.98 10 9 C8.41531323 8.54636829 6.83230076 8.08688548 5.25 7.625 C4.36828125 7.36976562 3.4865625 7.11453125 2.578125 6.8515625 C0.23919428 6.0790066 -1.83442562 5.16374324 -4 4 C-2.3125 1.9375 -2.3125 1.9375 0 0 Z " fill="#9F4203" transform="translate(304,39)"/>
<path d="M0 0 C-2.58265114 3.09011944 -5.48956659 4.21627918 -9.1875 5.6875 C-10.81751953 6.34298828 -10.81751953 6.34298828 -12.48046875 7.01171875 C-13.31191406 7.33785156 -14.14335937 7.66398438 -15 8 C-15.66 6.68 -16.32 5.36 -17 4 C-16.4225 4.20625 -15.845 4.4125 -15.25 4.625 C-12.48032433 5.08661261 -11.35438733 4.42944945 -9 3 C-9 2.34 -9 1.68 -9 1 C-6.04335481 -0.4783226 -3.25770263 -0.06032783 0 0 Z " fill="#DD7018" transform="translate(329,177)"/>
<path d="M0 0 C0.66 0 1.32 0 2 0 C0.68618385 4.6188849 -1.13822843 7.96699445 -4 11.8125 C-4.70125 12.76769531 -5.4025 13.72289062 -6.125 14.70703125 C-8 17 -8 17 -10 18 C-10 16.68 -10 15.36 -10 14 C-9.01 14 -8.02 14 -7 14 C-7 12.68 -7 11.36 -7 10 C-6.01 10 -5.02 10 -4 10 C-3.67 8.35 -3.34 6.7 -3 5 C-2.34 5 -1.68 5 -1 5 C-0.67 3.35 -0.34 1.7 0 0 Z " fill="#A55B32" transform="translate(346,161)"/>
<path d="M0 0 C1.98 0 3.96 0 6 0 C5.01 0.66 4.02 1.32 3 2 C1.66150329 2.99307821 0.32848691 3.99357052 -1 5 C-3.30137058 6.74346256 -5.5951753 8.39678353 -8 10 C-8.6875 8.1875 -8.6875 8.1875 -9 6 C-7.6875 4.25 -7.6875 4.25 -6 3 C-5.34 3 -4.68 3 -4 3 C-3.67 2.34 -3.34 1.68 -3 1 C-2.01 1.33 -1.02 1.66 0 2 C0 1.34 0 0.68 0 0 Z " fill="#9E4C03" transform="translate(48,45)"/>
<path d="M0 0 C-1 1 -1 1 -4.5625 1.0625 C-5.696875 1.041875 -6.83125 1.02125 -8 1 C-8.66 2.32 -9.32 3.64 -10 5 C-11.32 5 -12.64 5 -14 5 C-14 4.34 -14 3.68 -14 3 C-15.98 3.33 -17.96 3.66 -20 4 C-16.76538003 1.84358669 -14.32927039 1.18899027 -10.5625 0.3125 C-9.42941406 0.04050781 -8.29632813 -0.23148438 -7.12890625 -0.51171875 C-4.25083111 -0.96085657 -2.68974913 -0.98469931 0 0 Z " fill="#B4643A" transform="translate(62,20)"/>
<path d="M0 0 C0.99 0 1.98 0 3 0 C3.98120464 3.05263664 3.98120464 4.94736336 3 8 C1.02 8.33 -0.96 8.66 -3 9 C-2.5020163 5.26512223 -2.12508244 3.18762365 0 0 Z " fill="#A8410F" transform="translate(13,56)"/>
<path d="M0 0 C0 0.66 0 1.32 0 2 C1.3303125 2.433125 1.3303125 2.433125 2.6875 2.875 C5.50382424 3.83148748 8.25083156 4.86798946 11 6 C6.83326479 7.79341438 3.25336659 6.01173384 -0.75 4.5625 C-1.44738281 4.31951172 -2.14476562 4.07652344 -2.86328125 3.82617188 C-4.57885098 3.22689752 -6.28989715 2.61470115 -8 2 C-8 1.67 -8 1.34 -8 1 C-5.23735711 0.40267181 -2.83967231 0 0 0 Z " fill="#9E512A" transform="translate(47,186)"/>
<path d="M0 0 C2.64 0.33 5.28 0.66 8 1 C8 2.98 8 4.96 8 7 C3.545 5.02 3.545 5.02 -1 3 C-0.67 2.01 -0.34 1.02 0 0 Z " fill="#A63C03" transform="translate(316,25)"/>
<path d="M0 0 C0.33 0.66 0.66 1.32 1 2 C1.66 2 2.32 2 3 2 C3 2.66 3 3.32 3 4 C3.66 4 4.32 4 5 4 C5 5.32 5 6.64 5 8 C4.01 8.33 3.02 8.66 2 9 C0.68 7.68 -0.64 6.36 -2 5 C-1.34 3.35 -0.68 1.7 0 0 Z " fill="#71B317" transform="translate(43,151)"/>
<path d="M0 0 C0.33 0 0.66 0 1 0 C2.25841946 6.74153283 3.26404456 13.13484138 3 20 C-0.0103245 16.9896755 0.02180327 14.77096379 -0.09765625 10.546875 C-0.08605469 9.29390625 -0.07445312 8.0409375 -0.0625 6.75 C-0.05347656 5.48671875 -0.04445313 4.2234375 -0.03515625 2.921875 C-0.02355469 1.95765625 -0.01195312 0.9934375 0 0 Z " fill="#AD5832" transform="translate(351,62)"/>
<path d="M0 0 C1.2065625 0.0309375 1.2065625 0.0309375 2.4375 0.0625 C1.2249262 3.78683382 -0.07109979 7.44052806 -1.5625 11.0625 C-1.8925 11.0625 -2.2225 11.0625 -2.5625 11.0625 C-2.75656478 9.41742782 -2.94257935 7.77140406 -3.125 6.125 C-3.22941406 5.20847656 -3.33382812 4.29195312 -3.44140625 3.34765625 C-3.48136719 2.59355469 -3.52132812 1.83945312 -3.5625 1.0625 C-2.5625 0.0625 -2.5625 0.0625 0 0 Z " fill="#A44F05" transform="translate(37.5625,54.9375)"/>
<path d="M0 0 C1.32 0.33 2.64 0.66 4 1 C4.38885039 2.78871178 4.76069196 4.58112874 5.125 6.375 C5.33382813 7.37273437 5.54265625 8.37046875 5.7578125 9.3984375 C5.83773438 10.25695312 5.91765625 11.11546875 6 12 C5.34 12.66 4.68 13.32 4 14 C3.32968281 12.0429132 2.66385317 10.08428887 2 8.125 C1.62875 7.03445312 1.2575 5.94390625 0.875 4.8203125 C0 2 0 2 0 0 Z " fill="#A8572E" transform="translate(10,150)"/>
<path d="M0 0 C0.66 0 1.32 0 2 0 C2 0.66 2 1.32 2 2 C2.99 2.33 3.98 2.66 5 3 C5 5 5 7 5 9 C5.66 9 6.32 9 7 9 C6.67 9.66 6.34 10.32 6 11 C0.21293801 5.51752022 0.21293801 5.51752022 -1 2 C-0.67 1.34 -0.34 0.68 0 0 Z " fill="#A75022" transform="translate(20,169)"/>
<path d="M0 0 C-3.11930825 1.7435756 -5.99110451 2.54645178 -9.5 3.1875 C-10.4384375 3.36667969 -11.376875 3.54585937 -12.34375 3.73046875 C-14.91111354 3.99098064 -16.57415258 3.80670869 -19 3 C-15.04206597 -0.95793403 -5.21751694 -0.19324137 0 0 Z " fill="#859B1D" transform="translate(306,167)"/>
<path d="M0 0 C2 0.75 2 0.75 4 3.75 C3.01 3.75 2.02 3.75 1 3.75 C0.67 4.74 0.34 5.73 0 6.75 C-2 5.4375 -2 5.4375 -4 3.75 C-4 2.76 -4 1.77 -4 0.75 C-2 -0.25 -2 -0.25 0 0 Z " fill="#AB4B02" transform="translate(318,45.25)"/>
<path d="M0 0 C3.4375 0.3125 3.4375 0.3125 5.4375 2.3125 C4.4475 2.3125 3.4575 2.3125 2.4375 2.3125 C2.4375 2.9725 2.4375 3.6325 2.4375 4.3125 C-0.5325 3.9825 -3.5025 3.6525 -6.5625 3.3125 C-3.5625 0.3125 -3.5625 0.3125 0 0 Z " fill="#B14003" transform="translate(265.5625,16.6875)"/>
<path d="M0 0 C0.99 0 1.98 0 3 0 C3.66 0.66 4.32 1.32 5 2 C5.66 1.67 6.32 1.34 7 1 C7 1.99 7 2.98 7 4 C7.66 4.33 8.32 4.66 9 5 C6.875 5.75 6.875 5.75 4 6 C0.6875 4.0625 0.6875 4.0625 -2 2 C-1.34 1.34 -0.68 0.68 0 0 Z " fill="#AE4105" transform="translate(327,31)"/>
<path d="M0 0 C1.32 0 2.64 0 4 0 C4 0.66 4 1.32 4 2 C6.97 1.34 9.94 0.68 13 0 C13 0.66 13 1.32 13 2 C7.19233704 3.5056904 2.0018137 4.21824777 -4 4 C-4 3.67 -4 3.34 -4 3 C-2.35 2.67 -0.7 2.34 1 2 C0.67 1.34 0.34 0.68 0 0 Z " fill="#77AF1A" transform="translate(236,171)"/>
<path d="M0 0 C0.33 0 0.66 0 1 0 C1 2.97 1 5.94 1 9 C-0.32 9 -1.64 9 -3 9 C-2.44271087 5.65626525 -1.64826111 2.96687001 0 0 Z " fill="#AA3A05" transform="translate(350,61)"/>
<path d="M0 0 C2.76276177 0.52268466 5.3260876 1.10869587 8 2 C10 5 10 5 10 8 C9.01 8 8.02 8 7 8 C6.67 6.68 6.34 5.36 6 4 C5.34 4 4.68 4 4 4 C4 3.34 4 2.68 4 2 C2.68 1.34 1.36 0.68 0 0 Z " fill="#A2E232" transform="translate(309,49)"/>
<path d="M0 0 C0.33 0.99 0.66 1.98 1 3 C-0.65 3.66 -2.3 4.32 -4 5 C-4 4.34 -4 3.68 -4 3 C-6.64 2.67 -9.28 2.34 -12 2 C-12 1.67 -12 1.34 -12 1 C-7.9472484 0.01751476 -4.16138263 -0.08159574 0 0 Z " fill="#95DB25" transform="translate(291,43)"/>
<path d="M0 0 C7.875 0.875 7.875 0.875 9 2 C10.51469448 2.23192865 12.03754562 2.41215238 13.5625 2.5625 C14.38878906 2.64628906 15.21507813 2.73007812 16.06640625 2.81640625 C16.70449219 2.87699219 17.34257813 2.93757813 18 3 C14.68329587 5.04990741 12.78105696 5.12519669 9 4.3125 C8.154375 4.14363281 7.30875 3.97476563 6.4375 3.80078125 C3.80798362 2.9369177 2.10729549 1.77071357 0 0 Z " fill="#9ED728" transform="translate(78,40)"/>
<path d="M0 0 C1.32 0.66 2.64 1.32 4 2 C3.01 2.495 3.01 2.495 2 3 C2 3.99 2 4.98 2 6 C0.02 6.33 -1.96 6.66 -4 7 C-2.92598892 4.08482708 -2.22189824 2.22189824 0 0 Z " fill="#B64604" transform="translate(38,49)"/>
<path d="M0 0 C0.66 0 1.32 0 2 0 C2.66 0.99 3.32 1.98 4 3 C4.33 3 4.66 3 5 3 C5.59732819 5.76264289 6 8.16032769 6 11 C5.01 11.495 5.01 11.495 4 12 C3.3291288 10.3767313 2.66342971 8.75132422 2 7.125 C1.62875 6.22007813 1.2575 5.31515625 0.875 4.3828125 C0 2 0 2 0 0 Z " fill="#B34002" transform="translate(340,46)"/>
<path d="M0 0 C0.33 0.66 0.66 1.32 1 2 C3.31 2 5.62 2 8 2 C8 2.33 8 2.66 8 3 C-0.415 3.495 -0.415 3.495 -9 4 C-7.68 3.67 -6.36 3.34 -5 3 C-5 2.34 -5 1.68 -5 1 C-3.35 0.67 -1.7 0.34 0 0 Z " fill="#DB6D1B" transform="translate(264,189)"/>
<path d="M0 0 C0.99 0 1.98 0 3 0 C3.33 1.65 3.66 3.3 4 5 C1.525 6.485 1.525 6.485 -1 8 C-2 6 -2 6 -1.0625 2.875 C-0.5365625 1.451875 -0.5365625 1.451875 0 0 Z " fill="#AC5224" transform="translate(13,51)"/>
<path d="M0 0 C1.13199353 0.9080162 2.25532363 1.82683826 3.375 2.75 C4.00148438 3.26046875 4.62796875 3.7709375 5.2734375 4.296875 C7.08312318 6.08199481 8.00117455 7.67949644 9 10 C8.34 10 7.68 10 7 10 C7 9.34 7 8.68 7 8 C5.35 7.67 3.7 7.34 2 7 C2 5.68 2 4.36 2 3 C1.34 3 0.68 3 0 3 C0 2.01 0 1.02 0 0 Z " fill="#AD582B" transform="translate(334,32)"/>
<path d="M0 0 C1.65 0.33 3.3 0.66 5 1 C0.5 5 0.5 5 -4 5 C-4 4.34 -4 3.68 -4 3 C-3.01 3 -2.02 3 -1 3 C-0.67 2.01 -0.34 1.02 0 0 Z " fill="#85A91B" transform="translate(310,162)"/>
<path d="M0 0 C0.66 0.33 1.32 0.66 2 1 C-2.18461538 5.92307692 -2.18461538 5.92307692 -6.3125 6.3125 C-7.199375 6.209375 -8.08625 6.10625 -9 6 C-6.45368965 3.02930459 -3.57769851 1.5224249 0 0 Z " fill="#AA5D31" transform="translate(38,25)"/>
<path d="M0 0 C0.66 0.33 1.32 0.66 2 1 C1.67 2.65 1.34 4.3 1 6 C-0.65 6.33 -2.3 6.66 -4 7 C-4.33 5.68 -4.66 4.36 -5 3 C-2.625 1.4375 -2.625 1.4375 0 0 Z " fill="#E37518" transform="translate(317,168)"/>
<path d="M0 0 C0.99 0 1.98 0 3 0 C3.99 1.98 4.98 3.96 6 6 C5.01 6 4.02 6 3 6 C2.67 5.67 2.34 5.34 2 5 C1.01 5.495 1.01 5.495 0 6 C0 4.02 0 2.04 0 0 Z " fill="#A93A02" transform="translate(19,165)"/>
<path d="M0 0 C1.37562854 1.28965176 2.70766393 2.62689293 4 4 C4 4.66 4 5.32 4 6 C4.99 6.33 5.98 6.66 7 7 C3.98968256 7.93423645 3.13349732 8.04449911 0 7 C0 4.69 0 2.38 0 0 Z " fill="#9A4E03" transform="translate(38,154)"/>
<path d="M0 0 C1.8871875 0.0309375 1.8871875 0.0309375 3.8125 0.0625 C2.75 1.5625 2.75 1.5625 0.8125 3.0625 C-2.875 3.25 -2.875 3.25 -6.1875 3.0625 C-6.5175 2.4025 -6.8475 1.7425 -7.1875 1.0625 C-4.43671116 0.14557039 -2.82801087 -0.04636083 0 0 Z " fill="#EE7E27" transform="translate(268.1875,178.9375)"/>
<path d="M0 0 C0 1.65 0 3.3 0 5 C-1.65 5 -3.3 5 -5 5 C-5 4.01 -5 3.02 -5 2 C-5.66 1.67 -6.32 1.34 -7 1 C-2.25 0 -2.25 0 0 0 Z " fill="#DF6E18" transform="translate(308,173)"/>
<path d="M0 0 C3 1 3 1 4.1875 3.1875 C5.07334979 6.25390311 5.14770318 8.82438155 5 12 C3.20931427 9.3139714 2.33944209 7.3373411 1.375 4.3125 C1.11460937 3.50425781 0.85421875 2.69601563 0.5859375 1.86328125 C0.39257812 1.24839844 0.19921875 0.63351563 0 0 Z " fill="#ADCC34" transform="translate(322,61)"/>
<path d="M0 0 C0.66 0 1.32 0 2 0 C1.67 2.97 1.34 5.94 1 9 C0.01 8.34 -0.98 7.68 -2 7 C-1.42415568 4.61435923 -0.77772405 2.33317216 0 0 Z " fill="#85D01A" transform="translate(42,64)"/>
<path d="M0 0 C2.33528415 0.17298401 3.69177582 0.70225369 5.37890625 2.33203125 C9 6.57211538 9 6.57211538 9 9 C8.34 9 7.68 9 7 9 C5.60861839 7.25185388 4.43705154 5.40327432 3.21875 3.53125 C2.8165625 3.0259375 2.414375 2.520625 2 2 C1.34 2 0.68 2 0 2 C0 1.34 0 0.68 0 0 Z " fill="#F38428" transform="translate(329,37)"/>
<path d="M0 0 C-0.33 0.99 -0.66 1.98 -1 3 C-3.91517292 1.92598892 -5.77810176 1.22189824 -8 -1 C-4.59745511 -2.2151946 -3.06748874 -1.86240388 0 0 Z " fill="#B25626" transform="translate(39,184)"/>
<path d="M0 0 C-0.99 0.495 -0.99 0.495 -2 1 C-2 1.66 -2 2.32 -2 3 C-3.98 3.66 -5.96 4.32 -8 5 C-8 4.01 -8 3.02 -8 2 C-3.71900826 -1.23966942 -3.71900826 -1.23966942 0 0 Z " fill="#B03C02" transform="translate(332,178)"/>
<path d="M0 0 C0.66 1.32 1.32 2.64 2 4 C1.34 4 0.68 4 0 4 C0 5.98 0 7.96 0 10 C-1.5 8.6875 -1.5 8.6875 -3 7 C-3 6.01 -3 5.02 -3 4 C-2.34 3.67 -1.68 3.34 -1 3 C-0.67 2.01 -0.34 1.02 0 0 Z " fill="#A14518" transform="translate(19,161)"/>
<path d="M0 0 C1.32 0.33 2.64 0.66 4 1 C4 2.32 4 3.64 4 5 C4.66 5 5.32 5 6 5 C6 6.65 6 8.3 6 10 C3.47650757 6.87567603 1.72743854 3.61939504 0 0 Z " fill="#9E5603" transform="translate(319,52)"/>
<path d="M0 0 C1.46015291 0.28241641 2.91809793 0.57626614 4.375 0.875 C5.18710937 1.03742187 5.99921875 1.19984375 6.8359375 1.3671875 C9 2 9 2 11 4 C9.68 4.33 8.36 4.66 7 5 C7 4.34 7 3.68 7 3 C5.824375 3.0928125 5.824375 3.0928125 4.625 3.1875 C3.75875 3.125625 2.8925 3.06375 2 3 C1.34 2.01 0.68 1.02 0 0 Z " fill="#B0683D" transform="translate(313,22)"/>
<path d="M0 0 C0.99 0.33 1.98 0.66 3 1 C1.6875 2.5 1.6875 2.5 0 4 C-0.99 4 -1.98 4 -3 4 C-3 4.66 -3 5.32 -3 6 C-3.99 5.67 -4.98 5.34 -6 5 C-2.25 1.125 -2.25 1.125 0 0 Z " fill="#73B317" transform="translate(309,161)"/>
<path d="M0 0 C0 2.64 0 5.28 0 8 C-0.66 8 -1.32 8 -2 8 C-2.33 5.69 -2.66 3.38 -3 1 C-1 0 -1 0 0 0 Z " fill="#E37815" transform="translate(18,63)"/>
<path d="M0 0 C2 0.6875 2 0.6875 4 2.6875 C1.6875 3.375 1.6875 3.375 -1 3.6875 C-2.8125 2.25 -2.8125 2.25 -4 0.6875 C-2 -0.3125 -2 -0.3125 0 0 Z " fill="#A83B04" transform="translate(309,41.3125)"/>
<path d="M0 0 C6.52307692 -0.36923077 6.52307692 -0.36923077 8.9375 1.5 C9.288125 1.995 9.63875 2.49 10 3 C8.72125 3.061875 7.4425 3.12375 6.125 3.1875 C5.40570313 3.22230469 4.68640625 3.25710937 3.9453125 3.29296875 C3.30335937 3.19628906 2.66140625 3.09960938 2 3 C1.34 2.01 0.68 1.02 0 0 Z " fill="#AB3E04" transform="translate(58,38)"/>
<path d="M0 0 C2.64 0 5.28 0 8 0 C8.33 0.99 8.66 1.98 9 3 C7.35 3 5.7 3 4 3 C4 2.34 4 1.68 4 1 C2.68 0.67 1.36 0.34 0 0 Z " fill="#AE3F03" transform="translate(248,194)"/>
<path d="M0 0 C-0.66 0.66 -1.32 1.32 -2 2 C-2.99 2 -3.98 2 -5 2 C-5 2.66 -5 3.32 -5 4 C-6.32 3.67 -7.64 3.34 -9 3 C-5.92807025 0.26939578 -4.09590633 -0.34132553 0 0 Z " fill="#A33D07" transform="translate(317,187)"/>
<path d="M0 0 C-0.33 1.32 -0.66 2.64 -1 4 C-3.31 3.34 -5.62 2.68 -8 2 C-8 1.67 -8 1.34 -8 1 C-5.23735711 0.40267181 -2.83967231 0 0 0 Z " fill="#A74B1F" transform="translate(47,186)"/>
<path d="M0 0 C2.125 0.9375 2.125 0.9375 4 2 C0.25 5 0.25 5 -2 5 C-2 3.68 -2 2.36 -2 1 C-1.34 0.67 -0.68 0.34 0 0 Z " fill="#A95224" transform="translate(332,178)"/>
<path d="M0 0 C0.33 1.32 0.66 2.64 1 4 C-1.9375 3.625 -1.9375 3.625 -5 3 C-5.33 2.34 -5.66 1.68 -6 1 C-3.92446352 0.4465236 -2.15634036 0 0 0 Z " fill="#79A218" transform="translate(78,168)"/>
<path d="M0 0 C0.33 0 0.66 0 1 0 C1.33 2.64 1.66 5.28 2 8 C0.68 8.33 -0.64 8.66 -2 9 C-1.34 6.03 -0.68 3.06 0 0 Z " fill="#E1701A" transform="translate(332,144)"/>
<path d="M0 0 C0.33 0 0.66 0 1 0 C1.33 3.63 1.66 7.26 2 11 C1.01 11.33 0.02 11.66 -1 12 C-0.67 8.04 -0.34 4.08 0 0 Z " fill="#9C3B09" transform="translate(10,65)"/>
<path d="M0 0 C2.475 0.495 2.475 0.495 5 1 C5 1.66 5 2.32 5 3 C4.34 3 3.68 3 3 3 C2.67 4.32 2.34 5.64 2 7 C0.5393715 4.35261084 0 3.10551666 0 0 Z " fill="#F1831F" transform="translate(329,56)"/>
<path d="M0 0 C3.3 0.33 6.6 0.66 10 1 C10 1.99 10 2.98 10 4 C6.7 3.01 3.4 2.02 0 1 C0 0.67 0 0.34 0 0 Z " fill="#925402" transform="translate(304,44)"/>
</svg>
