<?xml version="1.0" encoding="UTF-8"?>
<svg version="1.1" xmlns="http://www.w3.org/2000/svg" width="198" height="206">
<path d="M0 0 C18.88268273 16.31138753 30.88171433 39.79705632 33.125 64.625 C34.42517243 82.69222784 31.1976323 99.03777796 24.125 115.625 C23.73441406 116.54925781 23.34382812 117.47351563 22.94140625 118.42578125 C13.31374795 139.31346899 -6.44419657 156.66007573 -27.875 164.625 C-54.14064187 174.18122289 -80.33700524 173.62653878 -105.875 161.8125 C-122.23693517 153.8520336 -135.76939882 141.68585736 -145.875 126.625 C-146.50148437 125.69171875 -147.12796875 124.7584375 -147.7734375 123.796875 C-151.32023732 118.12819056 -153.93283035 112.33288716 -156.1875 106.0625 C-156.43008545 105.39065674 -156.6726709 104.71881348 -156.92260742 104.02661133 C-165.05034816 80.13180053 -162.64286073 52.99387406 -151.84765625 30.40625 C-140.80942869 8.58482173 -120.86462226 -9.92629096 -97.6015625 -17.91015625 C-63.10661356 -28.91629657 -27.95487541 -23.21905829 0 0 Z M-85.53515625 57.84375 C-87.64041382 60.64257639 -87.40111141 63.06047463 -87.3125 66.4609375 C-87.01373115 68.94644598 -87.01373115 68.94644598 -84.375 71.1875 C-83.1375 71.8990625 -83.1375 71.8990625 -81.875 72.625 C-81.215 72.295 -80.555 71.965 -79.875 71.625 C-80.555625 71.068125 -81.23625 70.51125 -81.9375 69.9375 C-83.875 67.625 -83.875 67.625 -83.6875 65 C-82.875 62.625 -82.875 62.625 -81.875 60.625 C-78.905 61.12 -78.905 61.12 -75.875 61.625 C-76.43862302 59.57663118 -76.43862302 59.57663118 -77.875 57.625 C-81.8805614 56.25589351 -81.8805614 56.25589351 -85.53515625 57.84375 Z M-51.875 56.625 C-53.64909808 58.54522703 -53.64909808 58.54522703 -54.875 60.625 C-52.895 60.625 -50.915 60.625 -48.875 60.625 C-47.75 67.25 -47.75 67.25 -48.875 70.625 C-46.81097032 70.13794288 -46.81097032 70.13794288 -44.875 68.625 C-43.69738259 65.30083445 -43.69738259 65.30083445 -43.875 61.625 C-45.39837952 58.61551026 -45.39837952 58.61551026 -47.875 56.625 C-49.195 56.625 -50.515 56.625 -51.875 56.625 Z M-49.875 61.625 C-48.875 64.625 -48.875 64.625 -48.875 64.625 Z " fill="#E06F1F" transform="translate(163.875,28.375)"/>
<path d="M0 0 C5.22098265 4.27504618 9.87700117 8.64667578 14 14 C14.34636188 9.12207023 13.49209217 6.42656188 11 2.25 C8 -2.83333333 8 -2.83333333 8 -5 C15.0538499 -4.25883461 19.4422812 0.96395989 24 6 C28.52558258 12.75445622 30.44579673 19.92129369 29 28 C28.0546875 29.89453125 28.0546875 29.89453125 26.9375 31.5625 C24.6087349 35.69418001 24.95723552 37.222658 25.62890625 41.73046875 C27.99632076 62.58863659 24.66820775 81.98810457 11.83203125 98.92578125 C10 101 10 101 7 103 C6.41605469 101.65808594 6.41605469 101.65808594 5.8203125 100.2890625 C1.44704232 90.67879795 -3.96405192 82.12896831 -13.5625 76.9375 C-16 75 -16 75 -16.51171875 72.98046875 C-16.67175496 71.39847143 -16.78572791 69.8111975 -16.85546875 68.22265625 C-16.90751595 65.82956351 -16.90751595 65.82956351 -18.0625 63.0625 C-19.39588709 58.70676884 -19.16080918 54.52052477 -19 50 C-18.56429687 50.39832031 -18.12859375 50.79664062 -17.6796875 51.20703125 C-12.9413196 55.42233256 -8.9495203 58.68952418 -2.4375 59.375 C1.18759376 58.97953523 3.07994469 58.12367659 6 56 C5.76318919 51.97421628 5.50194052 49.61704718 2.921875 46.4453125 C-0.36630548 43.69343953 -3.55508648 42.37548797 -7.5625 41.0625 C-13.67339683 38.9231288 -19.36782421 36.44739837 -25.11328125 33.4375 C-28.16574882 31.91746202 -31.26120226 30.67552104 -34.4375 29.4375 C-39.02744199 27.58467938 -41.91319369 25.85850789 -45 22 C-47.41755949 23.07447088 -49.23842729 24.1983285 -51.28491211 25.90063477 C-54.03061617 28.02367309 -56.60224636 29.40259214 -59.75390625 30.83984375 C-60.85669922 31.34580078 -61.95949219 31.85175781 -63.09570312 32.37304688 C-64.23974609 32.88931641 -65.38378906 33.40558594 -66.5625 33.9375 C-67.67947266 34.44990234 -68.79644531 34.96230469 -69.94726562 35.49023438 C-76.41793598 38.4423605 -82.92773055 41.24840116 -89.5300293 43.89355469 C-92.93111032 45.41709914 -94.95736613 46.86309799 -97 50 C-97.3818608 52.80379984 -97.24168907 55.14806903 -97 58 C-91.37366193 59.87544602 -86.05412997 59.82056564 -80.6875 57.1875 C-77.96204999 55.65885439 -75.40558637 54.00465531 -73 52 C-72.80665567 56.64026383 -73.21267243 60.32600541 -74.52734375 64.8359375 C-75.05718903 67.26184069 -75.00383803 69.45813444 -75 71.9375 C-75.2788546 75.38372199 -75.71994408 76.69146381 -78.07421875 79.28515625 C-79.84064312 80.78226032 -81.62383464 82.25976868 -83.421875 83.71875 C-89.74195987 89.31106752 -92.80078346 97.0133715 -95 105 C-101.38556857 102.87147714 -105.62562471 94.47091988 -108.81640625 88.734375 C-115.29970689 75.2803075 -116.36779952 63.10509685 -115.86303711 48.46533203 C-115.79646059 46.36495035 -115.75470615 44.2650955 -115.71484375 42.1640625 C-115.67480225 40.93123535 -115.63476074 39.6984082 -115.59350586 38.42822266 C-116.07987218 34.3263873 -117.59039701 32.29559817 -120 29 C-121.02365096 22.3583591 -120.9301885 15.63327018 -117 10 C-116.55140625 9.34386719 -116.1028125 8.68773438 -115.640625 8.01171875 C-112.80347201 4.01191801 -109.98876334 0.91071919 -106 -2 C-105.484375 -2.598125 -104.96875 -3.19625 -104.4375 -3.8125 C-103.963125 -4.204375 -103.48875 -4.59625 -103 -5 C-100.91015625 -4.57421875 -100.91015625 -4.57421875 -99 -4 C-99.33773437 -3.42894531 -99.67546875 -2.85789062 -100.0234375 -2.26953125 C-103.84334414 4.67474989 -105.17632572 11.15665388 -106 19 C-105.34 19 -104.68 19 -104 19 C-103.77183594 18.29488281 -103.54367188 17.58976562 -103.30859375 16.86328125 C-101.7427265 13.43707023 -99.60419834 10.91219358 -97.0625 8.1875 C-96.57378418 7.66269043 -96.08506836 7.13788086 -95.58154297 6.59716797 C-69.37335126 -20.8210204 -29.82349883 -21.40422458 0 0 Z " fill="#C99C72" transform="translate(144,45)"/>
<path d="M0 0 C2.3864823 1.0606588 4.14725285 2.12884624 6.125 3.859375 C9.65652095 6.48882266 13.22727631 7.92627267 17.3125 9.5 C22.37782797 11.48267529 27.26220874 13.59668309 32.10473633 16.07617188 C35.91861836 17.93521215 39.95566797 19.24057212 43.94921875 20.65625 C47.82636162 22.36398002 50.91630796 24.40026413 53.3125 27.9375 C54.16204717 30.4861415 54.34223183 32.33059172 54 35 C52.12139167 37.5048111 51.03898126 37.98700625 48 39 C42.30316391 39.5477727 38.54211599 38.37691759 34 35 C32.20996388 33.40835579 30.62236813 31.76985614 29 30 C28.742063 36.08953781 28.742063 36.08953781 30 42 C31.34706337 46.0411901 31.16881063 49.77973429 31 54 C31.58136719 54.26554687 32.16273438 54.53109375 32.76171875 54.8046875 C40.90405696 59.15295188 49.90474814 68.26046535 53 77 C53.61620949 79.85644772 53.80825615 82.17110348 53 85 C50.98129912 87.48131984 48.74503063 89.36043419 46 91 C45.34 91 44.68 91 44 91 C44 91.66 44 92.32 44 93 C35.738041 97.40774487 35.738041 97.40774487 31 98 C31 98.66 31 99.32 31 100 C22.65075603 102.39194557 14.67461776 103.65517047 6 104 C5.09636719 104.04125 4.19273438 104.0825 3.26171875 104.125 C-13.84446425 104.53047989 -28.03296658 100.79909329 -42 91 C-43.00160156 90.33097656 -43.00160156 90.33097656 -44.0234375 89.6484375 C-45.6875 88.4375 -45.6875 88.4375 -48 86 C-48.85016294 78.00175651 -44.49430367 71.18150979 -39.703125 65.0703125 C-36.64249055 61.61959718 -33.84757211 58.56504807 -30 56 C-29.22393092 53.26665045 -29.22393092 53.26665045 -28.875 50.0625 C-28.7203125 48.90492187 -28.565625 47.74734375 -28.40625 46.5546875 C-27.85245011 41.70893843 -27.37034717 36.86324313 -27 32 C-27.54269531 32.42152344 -28.08539063 32.84304687 -28.64453125 33.27734375 C-29.35996094 33.82519531 -30.07539062 34.37304688 -30.8125 34.9375 C-31.52019531 35.48277344 -32.22789063 36.02804688 -32.95703125 36.58984375 C-37.25788561 39.5585023 -41.95240047 39.64689452 -47 39 C-49.5625 37.375 -49.5625 37.375 -51 35 C-51.6023916 31.46094937 -51.32275509 29.63014089 -49.6875 26.4375 C-45.64948332 22.77511278 -41.01224043 21.04106698 -36 19 C-28.61423509 15.98626834 -21.30517264 12.84298398 -14.0625 9.5 C-13.24523437 9.13229492 -12.42796875 8.76458984 -11.5859375 8.38574219 C-6.822905 6.15971336 -3.46228106 3.97288008 0 0 Z M-18.66015625 20.21875 C-20.76541382 23.01757639 -20.52611141 25.43547463 -20.4375 28.8359375 C-20.13873115 31.32144598 -20.13873115 31.32144598 -17.5 33.5625 C-16.2625 34.2740625 -16.2625 34.2740625 -15 35 C-14.34 34.67 -13.68 34.34 -13 34 C-13.680625 33.443125 -14.36125 32.88625 -15.0625 32.3125 C-17 30 -17 30 -16.8125 27.375 C-16 25 -16 25 -15 23 C-12.03 23.495 -12.03 23.495 -9 24 C-9.56362302 21.95163118 -9.56362302 21.95163118 -11 20 C-15.0055614 18.63089351 -15.0055614 18.63089351 -18.66015625 20.21875 Z M15 19 C13.22590192 20.92022703 13.22590192 20.92022703 12 23 C13.98 23 15.96 23 18 23 C19.125 29.625 19.125 29.625 18 33 C20.06402968 32.51294288 20.06402968 32.51294288 22 31 C23.17761741 27.67583445 23.17761741 27.67583445 23 24 C21.47662048 20.99051026 21.47662048 20.99051026 19 19 C17.68 19 16.36 19 15 19 Z M17 24 C18 27 18 27 18 27 Z " fill="#83503A" transform="translate(97,66)"/>
<path d="M0 0 C0.66 0.99 1.32 1.98 2 3 C1.67 3.66 1.34 4.32 1 5 C1.99 4.67 2.98 4.34 4 4 C3.42582888 7.49861602 2.26480957 9.04783182 -0.3125 11.4375 C-3.13501668 14.13224844 -5.63769662 16.88175954 -8 20 C-7.52412884 13.97229862 -4.80277043 9.23321711 -2 4 C-3.65 4 -5.3 4 -7 4 C-7.20625 4.556875 -7.4125 5.11375 -7.625 5.6875 C-9.18055822 8.3036661 -11.11682044 9.77215479 -13.4765625 11.6484375 C-18.00698919 15.66773913 -20.76828614 21.2160261 -21.265625 27.19140625 C-21.26046875 28.30386719 -21.2553125 29.41632813 -21.25 30.5625 C-21.25515625 31.67753906 -21.2603125 32.79257813 -21.265625 33.94140625 C-21.01167605 36.86555372 -20.52132851 38.53085968 -19 41 C-19.66 41 -20.32 41 -21 41 C-22.69030023 57.2691397 -23.84795406 73.47267371 -18 89 C-17.68804688 89.91007812 -17.37609375 90.82015625 -17.0546875 91.7578125 C-10.70567156 109.20426806 3.29718733 121.87368458 19.125 130.6875 C19.78709473 131.06865967 20.44918945 131.44981934 21.13134766 131.8425293 C32.46949779 137.92199873 44.7698671 138.43780559 57.375 138.1875 C58.70831784 138.17239296 60.04165267 138.15871542 61.375 138.14648438 C64.58378565 138.11160627 67.7916563 138.06260026 71 138 C69.69604492 139.96191406 69.69604492 139.96191406 68 142 C64.86328125 142.609375 64.86328125 142.609375 61.3125 142.75 C60.13300781 142.80671875 58.95351562 142.8634375 57.73828125 142.921875 C56.38283203 142.96054687 56.38283203 142.96054687 55 143 C55 143.66 55 144.32 55 145 C58.96 145 62.92 145 67 145 C66.34 145.66 65.68 146.32 65 147 C65 147.99 65 148.98 65 150 C65.66 150.66 66.32 151.32 67 152 C62.00327715 154.94153056 56.83362981 154.34062518 51.1875 154.3125 C50.06126221 154.30831055 48.93502441 154.30412109 47.7746582 154.29980469 C24.74844325 153.98893012 3.38684517 146.56155328 -13.51953125 130.625 C-28.76066973 114.49579519 -40.10866515 94.44485248 -40.1328125 71.71875 C-40.13410156 70.54699219 -40.13539062 69.37523438 -40.13671875 68.16796875 C-40.13285156 66.95753906 -40.12898438 65.74710937 -40.125 64.5 C-40.12886719 63.28957031 -40.13273437 62.07914063 -40.13671875 60.83203125 C-40.13542969 59.66027344 -40.13414063 58.48851562 -40.1328125 57.28125 C-40.13168457 56.21970703 -40.13055664 55.15816406 -40.12939453 54.06445312 C-39.99867684 50.96866352 -39.57369487 48.04223494 -39 45 C-39.66 45 -40.32 45 -41 45 C-40.67 42.36 -40.34 39.72 -40 37 C-39.34 37.99 -38.68 38.98 -38 40 C-37.60167969 38.98679688 -37.20335937 37.97359375 -36.79296875 36.9296875 C-36.25795321 35.57806929 -35.72278904 34.22650991 -35.1875 32.875 C-34.92646484 32.20984375 -34.66542969 31.5446875 -34.39648438 30.859375 C-32.78354539 26.7971583 -31.01497248 22.88472171 -29 19 C-28.34 19 -27.68 19 -27 19 C-26.773125 18.34 -26.54625 17.68 -26.3125 17 C-24.6121185 13.11341372 -22.60376916 9.36320183 -20 6 C-19.34 6 -18.68 6 -18 6 C-18 5.34 -18 4.68 -18 4 C-16.68 4.33 -15.36 4.66 -14 5 C-14 5.66 -14 6.32 -14 7 C-10.34683329 5.75023244 -9.21934164 5.32901247 -7 2 C-3.375 0.8125 -3.375 0.8125 0 0 Z " fill="#E17120" transform="translate(46,37)"/>
<path d="M0 0 C18.88268273 16.31138753 30.88171433 39.79705632 33.125 64.625 C34.42517243 82.69222784 31.1976323 99.03777796 24.125 115.625 C23.73441406 116.54925781 23.34382812 117.47351563 22.94140625 118.42578125 C13.31374795 139.31346899 -6.44419657 156.66007573 -27.875 164.625 C-54.14064187 174.18122289 -80.33700524 173.62653878 -105.875 161.8125 C-122.23693517 153.8520336 -135.76939882 141.68585736 -145.875 126.625 C-146.50148437 125.69171875 -147.12796875 124.7584375 -147.7734375 123.796875 C-151.32023732 118.12819056 -153.93283035 112.33288716 -156.1875 106.0625 C-156.43008545 105.39065674 -156.6726709 104.71881348 -156.92260742 104.02661133 C-160.43671968 93.69544424 -161.17631982 83.67330657 -161.0625 72.8125 C-161.06185547 71.62462891 -161.06121094 70.43675781 -161.06054688 69.21289062 C-161.033645 63.88333035 -160.85672562 58.87637522 -159.875 53.625 C-158.885 53.625 -157.895 53.625 -156.875 53.625 C-156.89594727 54.53564209 -156.91689453 55.44628418 -156.93847656 56.38452148 C-157.77266721 80.34971557 -157.77266721 80.34971557 -152.875 103.625 C-152.31425781 105.25115234 -152.31425781 105.25115234 -151.7421875 106.91015625 C-147.60229203 117.7533924 -141.11635277 126.66135579 -133.59765625 135.41015625 C-131.875 137.625 -131.875 137.625 -131.875 139.625 C-131.34777344 139.85574219 -130.82054687 140.08648437 -130.27734375 140.32421875 C-127.73231274 141.70225993 -125.50752463 143.35414175 -123.20703125 145.10302734 C-116.15592564 150.42054159 -109.36742466 153.99495832 -100.875 156.625 C-99.66070312 157.00398437 -98.44640625 157.38296875 -97.1953125 157.7734375 C-79.796042 162.96011222 -59.32946778 164.37141541 -41.875 158.625 C-40.41310733 158.18244615 -38.95083739 157.74113749 -37.48828125 157.30078125 C-28.74702456 154.59444253 -20.69280208 151.4809916 -12.875 146.625 C-12.96394531 145.24441406 -12.96394531 145.24441406 -13.0546875 143.8359375 C-12.85794511 140.32023662 -12.53362791 139.54117548 -10 137.25 C-9.46632812 136.74726563 -8.93265625 136.24453125 -8.3828125 135.7265625 C-6.875 134.625 -6.875 134.625 -4.875 134.625 C-5.205 135.223125 -5.535 135.82125 -5.875 136.4375 C-7.08287988 138.67886471 -7.08287988 138.67886471 -6.875 141.625 C8.96723283 128.58861222 18.23196781 113.15289098 24.125 93.625 C24.44339844 92.62855469 24.76179687 91.63210937 25.08984375 90.60546875 C30.98308381 69.44955166 26.24918664 48.05361633 17.125 28.625 C15.32272389 25.45000582 13.3255585 22.53430981 11.125 19.625 C10.61839844 18.91730469 10.11179688 18.20960937 9.58984375 17.48046875 C6.70863671 13.50867695 3.72510329 9.9796417 0.125 6.625 C-0.63039062 5.91085938 -1.38578125 5.19671875 -2.1640625 4.4609375 C-3.44410156 3.27371094 -3.44410156 3.27371094 -4.75 2.0625 C-5.55179688 1.31871094 -6.35359375 0.57492188 -7.1796875 -0.19140625 C-10.22395616 -2.65770506 -13.43390306 -4.53686173 -16.875 -6.375 C-17.47425293 -6.70443604 -18.07350586 -7.03387207 -18.69091797 -7.37329102 C-33.56172193 -15.467601 -46.50450347 -18.72023439 -63.4375 -18.8125 C-64.73953369 -18.8228125 -66.04156738 -18.833125 -67.38305664 -18.84375 C-85.19968832 -18.68193386 -104.10117353 -14.35097964 -117.875 -2.375 C-118.535 -1.385 -119.195 -0.395 -119.875 0.625 C-117.75714887 1.74285113 -117.75714887 1.74285113 -114.875 2.625 C-113.885 1.965 -112.895 1.305 -111.875 0.625 C-110.885 0.955 -109.895 1.285 -108.875 1.625 C-110.49839805 3.33384005 -112.16819053 4.99946717 -113.875 6.625 C-114.535 6.625 -115.195 6.625 -115.875 6.625 C-115.875 7.285 -115.875 7.945 -115.875 8.625 C-118.875 10.625 -118.875 10.625 -121.875 11 C-124.99071153 11.29863975 -124.99071153 11.29863975 -126.375 13.6875 C-126.87 14.326875 -127.365 14.96625 -127.875 15.625 C-131.0625 15.875 -131.0625 15.875 -133.875 15.625 C-133.875 14.635 -133.875 13.645 -133.875 12.625 C-134.535 12.625 -135.195 12.625 -135.875 12.625 C-135.875 13.285 -135.875 13.945 -135.875 14.625 C-136.535 14.625 -137.195 14.625 -137.875 14.625 C-138.101875 15.285 -138.32875 15.945 -138.5625 16.625 C-140.2628815 20.51158628 -142.27123084 24.26179817 -144.875 27.625 C-145.535 27.625 -146.195 27.625 -146.875 27.625 C-146.99875 28.615 -146.99875 28.615 -147.125 29.625 C-147.91465544 32.78362176 -149.24947457 35.35156137 -150.75390625 38.22265625 C-152.91378047 42.85095815 -154.35002164 47.75804779 -155.875 52.625 C-156.205 52.625 -156.535 52.625 -156.875 52.625 C-158.85340727 39.56123136 -150.73895431 26.86349499 -143.3125 16.71484375 C-125.84144893 -5.43195336 -103.4409991 -19.44511302 -75.1640625 -23.09375 C-47.23312744 -25.4821435 -21.61836642 -17.95601313 0 0 Z " fill="#C2571E" transform="translate(163.875,28.375)"/>
<path d="M0 0 C5.80450704 4.66507323 11.34505702 9.44630914 15 16 C15.1875 18.625 15.1875 18.625 14 21 C11.29279831 24.12369426 9.67760704 25.70906977 5.58984375 26.41796875 C-2.28329596 26.66734422 -7.21363048 24.05884595 -12.9375 18.6875 C-13.7934375 17.89601562 -14.649375 17.10453125 -15.53125 16.2890625 C-16.3459375 15.53367187 -17.160625 14.77828125 -18 14 C-24.93963277 7.56262194 -24.93963277 7.56262194 -33.875 5.6875 C-34.90367188 5.67074219 -35.93234375 5.65398438 -36.9921875 5.63671875 C-40.36586724 6.04418916 -42.15831353 7.21726678 -45 9 C-47.6875 8.25 -47.6875 8.25 -50 7 C-54.02302604 4.98848698 -58.63683906 5.3997768 -63 6 C-68.73392113 8.49300919 -72.57375003 12.44170172 -76.39453125 17.2578125 C-80.36261195 21.56380762 -86.15277457 25.62536382 -92.0859375 26.203125 C-96.83952797 26.30046815 -100.24565565 26.28505131 -104 23 C-104.83984375 21.21875 -104.83984375 21.21875 -105 19 C-96.34815653 3.12596241 -80.90735637 -7.41333545 -64.05078125 -12.97265625 C-41.42009968 -19.07754526 -18.79116638 -13.45246651 0 0 Z " fill="#FCF7CD" transform="translate(144,45)"/>
<path d="M0 0 C2.3864823 1.0606588 4.14725285 2.12884624 6.125 3.859375 C9.65652095 6.48882266 13.22727631 7.92627267 17.3125 9.5 C22.37782797 11.48267529 27.26220874 13.59668309 32.10473633 16.07617188 C35.91861836 17.93521215 39.95566797 19.24057212 43.94921875 20.65625 C47.82636162 22.36398002 50.91630796 24.40026413 53.3125 27.9375 C54.16204717 30.4861415 54.34223183 32.33059172 54 35 C52.12139167 37.5048111 51.03898126 37.98700625 48 39 C42.30316391 39.5477727 38.54211599 38.37691759 34 35 C32.20996388 33.40835579 30.62236813 31.76985614 29 30 C28.34 30.66 27.68 31.32 27 32 C26.01 32.66 25.02 33.32 24 34 C22.4375 32.9375 22.4375 32.9375 21 31 C21.165 29.865625 21.33 28.73125 21.5 27.5625 C22.37012414 24.04939172 22.37012414 24.04939172 20.5625 21.5625 C20.046875 21.046875 19.53125 20.53125 19 20 C17.35 20.33 15.7 20.66 14 21 C14 21.33 14 21.66 14 22 C15.65 22.33 17.3 22.66 19 23 C20.25 29.625 20.25 29.625 18 33 C15.375 33.6875 15.375 33.6875 13 34 C14.485 34.495 14.485 34.495 16 35 C17.6875 36.4375 17.6875 36.4375 19 38 C19 38.66 19 39.32 19 40 C5.47 40.33 -8.06 40.66 -22 41 C-22.33 42.65 -22.66 44.3 -23 46 C-24.485 46.495 -24.485 46.495 -26 47 C-26.80212628 48.87387216 -26.80212628 48.87387216 -27.1875 51.0625 C-27.34605469 51.79597656 -27.50460938 52.52945313 -27.66796875 53.28515625 C-27.83232422 54.13400391 -27.83232422 54.13400391 -28 55 C-28.33 55 -28.66 55 -29 55 C-29.18981227 50.44450559 -29.21443149 46.23405689 -28 41.8125 C-27.0859788 38.32779418 -26.8213792 35.57241598 -27 32 C-27.54269531 32.42152344 -28.08539063 32.84304687 -28.64453125 33.27734375 C-29.35996094 33.82519531 -30.07539062 34.37304688 -30.8125 34.9375 C-31.52019531 35.48277344 -32.22789063 36.02804688 -32.95703125 36.58984375 C-37.25788561 39.5585023 -41.95240047 39.64689452 -47 39 C-49.5625 37.375 -49.5625 37.375 -51 35 C-51.6023916 31.46094937 -51.32275509 29.63014089 -49.6875 26.4375 C-45.64948332 22.77511278 -41.01224043 21.04106698 -36 19 C-28.61423509 15.98626834 -21.30517264 12.84298398 -14.0625 9.5 C-13.24523437 9.13229492 -12.42796875 8.76458984 -11.5859375 8.38574219 C-6.822905 6.15971336 -3.46228106 3.97288008 0 0 Z M-18.66015625 20.21875 C-20.76541382 23.01757639 -20.52611141 25.43547463 -20.4375 28.8359375 C-20.13873115 31.32144598 -20.13873115 31.32144598 -17.5 33.5625 C-16.2625 34.2740625 -16.2625 34.2740625 -15 35 C-14.34 34.67 -13.68 34.34 -13 34 C-13.680625 33.443125 -14.36125 32.88625 -15.0625 32.3125 C-17 30 -17 30 -16.8125 27.375 C-16 25 -16 25 -15 23 C-12.03 23.495 -12.03 23.495 -9 24 C-9.56362302 21.95163118 -9.56362302 21.95163118 -11 20 C-15.0055614 18.63089351 -15.0055614 18.63089351 -18.66015625 20.21875 Z M17 24 C18 27 18 27 18 27 Z " fill="#945C41" transform="translate(97,66)"/>
<path d="M0 0 C0.66 0 1.32 0 2 0 C3.69049414 6.38556242 4.32469941 12.34179551 4.25 18.9375 C4.23767334 20.26334106 4.23767334 20.26334106 4.22509766 21.6159668 C3.94870632 37.6957017 -1.24144119 52.81920101 -12 65 C-13.485 65.99 -13.485 65.99 -15 67 C-15.58394531 65.65808594 -15.58394531 65.65808594 -16.1796875 64.2890625 C-20.55295768 54.67879795 -25.96405192 46.12896831 -35.5625 40.9375 C-38 39 -38 39 -38.51171875 36.98046875 C-38.67175496 35.39847143 -38.78572791 33.8111975 -38.85546875 32.22265625 C-38.90751595 29.82956351 -38.90751595 29.82956351 -40.0625 27.0625 C-41.39588709 22.70676884 -41.16080918 18.52052477 -41 14 C-40.56429687 14.39832031 -40.12859375 14.79664062 -39.6796875 15.20703125 C-34.9413196 19.42233256 -30.9495203 22.68952418 -24.4375 23.375 C-20.81240624 22.97953523 -18.92005531 22.12367659 -16 20 C-16.45003347 14.37458159 -17.68441485 11.38512875 -21 7 C-20.2265625 6.90203125 -19.453125 6.8040625 -18.65625 6.703125 C-8.53039598 5.32736993 -8.53039598 5.32736993 0 0 Z " fill="#FCF7CE" transform="translate(166,81)"/>
<path d="M0 0 C6 2 6 2 8.6875 3.0625 C13.39946011 4.39607362 18.12756592 4.67054716 23 5 C22.566875 5.4125 22.13375 5.825 21.6875 6.25 C18.51333413 9.54172757 16.57459719 11.72483755 16.625 16.4375 C16.74875 17.613125 16.8725 18.78875 17 20 C22.62633807 21.87544602 27.94587003 21.82056564 33.3125 19.1875 C36.03795001 17.65885439 38.59441363 16.00465531 41 14 C41.19334433 18.64026383 40.78732757 22.32600541 39.47265625 26.8359375 C38.94281097 29.26184069 38.99616197 31.45813444 39 33.9375 C38.7211454 37.38372199 38.28005592 38.69146381 35.92578125 41.28515625 C34.15935688 42.78226032 32.37616536 44.25976868 30.578125 45.71875 C24.25804013 51.31106752 21.19921654 59.0133715 19 67 C12.61443143 64.87147714 8.37437529 56.47091988 5.18359375 50.734375 C-0.1395842 39.68778016 -2.24231561 29.88654927 -2.3125 17.6875 C-2.31813965 16.74398682 -2.3237793 15.80047363 -2.32958984 14.82836914 C-2.27395039 9.50914342 -1.74207995 5.03190423 0 0 Z " fill="#FCF8CF" transform="translate(30,83)"/>
<path d="M0 0 C7.32047936 13.6874509 4.87108753 32.53125839 1 47 C-5.5311428 66.98141709 -18.89478391 81.81001299 -37 92 C-37.67546875 92.41121094 -38.3509375 92.82242188 -39.046875 93.24609375 C-54.09987675 101.80499076 -74.80179485 102.44920475 -91.3125 98.5625 C-111.25580262 92.72444007 -127.98407393 79.98620373 -138.74609375 62.09765625 C-142.47247402 55.02589719 -144.91458724 47.69998559 -147 40 C-147.17724609 39.37536865 -147.35449219 38.7507373 -147.53710938 38.10717773 C-148.40689012 34.14774863 -148.19034078 30.10031615 -148.1875 26.0625 C-148.1884668 24.66028198 -148.1884668 24.66028198 -148.18945312 23.22973633 C-148.13446216 15.98280151 -147.47712819 9.10867942 -146 2 C-144.68 2.66 -143.36 3.32 -142 4 C-142.02094727 4.89605957 -142.04189453 5.79211914 -142.06347656 6.71533203 C-142.13255844 10.11127457 -142.18223059 13.50644714 -142.21972656 16.90283203 C-142.23956904 18.35933375 -142.26665236 19.81575887 -142.30175781 21.27197266 C-142.72941962 39.49791281 -137.88309437 56.61651617 -126.00390625 70.9140625 C-111.37800606 86.13868375 -95.27316778 92.48945824 -74.453125 93.19140625 C-65.86702303 93.35579406 -57.37256304 93.14400212 -49 91 C-48.67 90.67 -48.34 90.34 -48 90 C-46.33382885 89.95936168 -44.66611905 89.957279 -43 90 C-43 89.34 -43 88.68 -43 88 C-41.58521865 87.35004703 -40.16808513 86.70521278 -38.75 86.0625 C-37.96109375 85.70285156 -37.1721875 85.34320313 -36.359375 84.97265625 C-34.24176302 84.09966721 -32.23330638 83.48661492 -30 83 C-30 82.34 -30 81.68 -30 81 C-28.7262007 80.01055681 -27.40490671 79.0816514 -26.0625 78.1875 C-22.69655471 75.82128029 -22.69655471 75.82128029 -21 72.125 C-21 71.42375 -21 70.7225 -21 70 C-20.01 70 -19.02 70 -18 70 C-8.40062494 60.85773804 -2.44543206 44.78176972 -1.90600586 31.72485352 C-1.86588756 29.21153025 -1.86245093 26.70110151 -1.875 24.1875 C-1.8747583 23.30255859 -1.8745166 22.41761719 -1.87426758 21.50585938 C-1.8990913 16.22181474 -2.12565915 11.0872871 -3.07421875 5.875 C-2.96908393 3.21896242 -1.70222911 1.96040782 0 0 Z " fill="#BD5011" transform="translate(171,76)"/>
<path d="M0 0 C0.33 0 0.66 0 1 0 C0.96519531 0.70125 0.93039063 1.4025 0.89453125 2.125 C0.71165983 8.53420796 1.16051474 13.21586336 4 19 C4.99 19.66 5.98 20.32 7 21 C7 21.66 7 22.32 7 23 C12.64399358 25.44064587 17.97751478 25.19289099 24 25 C24.99 23.02 25.98 21.04 27 19 C28.24546405 21.49092811 27.7767578 22.41080733 27 25 C28.4391134 24.71640113 29.87625518 24.42278601 31.3125 24.125 C32.51326172 23.88136719 32.51326172 23.88136719 33.73828125 23.6328125 C36.25301118 23.05521001 36.25301118 23.05521001 39 21 C40.32 21 41.64 21 43 21 C43 20.34 43 19.68 43 19 C47.32002271 15.8795007 52.07438777 13.28064352 57 11.25 C60.05212646 10.20170674 60.05212646 10.20170674 62 8 C62.804375 7.71125 63.60875 7.4225 64.4375 7.125 C67.35297793 5.84503408 68.15885125 4.51065738 70 2 C70.99 2 71.98 2 73 2 C77 6.34285714 77 6.34285714 77 9 C78.98 9.66 80.96 10.32 83 11 C83 11.66 83 12.32 83 13 C83.69351563 13.09796875 84.38703125 13.1959375 85.1015625 13.296875 C88.55284502 14.13411335 91.24526881 15.57205554 94.375 17.25 C101.65641333 21.05203493 109.15712258 23.61638039 117 26 C116.01 21.545 116.01 21.545 115 17 C117.53101025 19.97118595 118.34820749 22.18416621 119 26 C128.79895101 25.96397444 133.57721336 23.42278664 140.375 16.625 C142.52889608 13.14562942 143.18558059 10.00422875 144 6 C144.99 6.495 144.99 6.495 146 7 C146.54610275 13.60177542 146.60621003 18.78225849 142.6171875 24.28125 C138.03961307 29.14630495 132.48436396 31.63487075 126 33 C125.38125 33.18046875 124.7625 33.3609375 124.125 33.546875 C113.4485376 35.89246144 101.05521212 28.24063977 91.88671875 23.4375 C88.83425118 21.91746202 85.73879774 20.67552104 82.5625 19.4375 C77.97255801 17.58467938 75.08680631 15.85850789 72 12 C69.58373238 13.07389672 67.76276951 14.19729458 65.71728516 15.8984375 C62.96221227 18.02922523 60.36988539 19.42341142 57.2109375 20.875 C56.10363281 21.38546875 54.99632812 21.8959375 53.85546875 22.421875 C52.70691406 22.94265625 51.55835938 23.4634375 50.375 24 C49.24964844 24.52078125 48.12429687 25.0415625 46.96484375 25.578125 C25.30216827 35.49537296 25.30216827 35.49537296 11 32 C8.06000339 30.88280129 5.69304809 29.64880495 3 28 C2.67 28.99 2.34 29.98 2 31 C1.731875 29.948125 1.46375 28.89625 1.1875 27.8125 C0.22912764 24.10829858 0.22912764 24.10829858 -1.55078125 21.6640625 C-4.19360977 16.80581709 -3.5260956 11.38236272 -3 6 C-2.24864586 3.59048499 -1.43595624 2.09410285 0 0 Z " fill="#B48660" transform="translate(27,55)"/>
<path d="M0 0 C0.33 0.66 0.66 1.32 1 2 C0.67 2.99 0.34 3.98 0 5 C1.98 5.33 3.96 5.66 6 6 C3 8 3 8 1 8 C1 11.63 1 15.26 1 19 C1.66 19.33 2.32 19.66 3 20 C2.773125 19.0925 2.54625 18.185 2.3125 17.25 C2 14 2 14 3.4375 11.625 C3.953125 11.08875 4.46875 10.5525 5 10 C7.78211944 10.37596209 9.5879284 10.67318459 11.8125 12.4375 C13 14 13 14 13 16 C13.66 16 14.32 16 15 16 C15 18 15 18 13 20.125 C12.34 20.74375 11.68 21.3625 11 22 C11.69480469 21.83628906 12.38960937 21.67257813 13.10546875 21.50390625 C16.2352816 20.95904004 19.13798083 20.90261517 22.3125 20.9375 C23.91544922 20.95103516 23.91544922 20.95103516 25.55078125 20.96484375 C26.35902344 20.97644531 27.16726562 20.98804687 28 21 C28 19.68 28 18.36 28 17 C28.66 17 29.32 17 30 17 C30.33 13.7 30.66 10.4 31 7 C32.32 7 33.64 7 35 7 C34.67 7.99 34.34 8.98 34 10 C35.65 10.33 37.3 10.66 39 11 C40.25 17.625 40.25 17.625 38 21 C35.375 21.6875 35.375 21.6875 33 22 C34.485 22.495 34.485 22.495 36 23 C37.6875 24.4375 37.6875 24.4375 39 26 C39 26.66 39 27.32 39 28 C25.47 28.33 11.94 28.66 -2 29 C-2.33 30.65 -2.66 32.3 -3 34 C-4.485 34.495 -4.485 34.495 -6 35 C-6.80212628 36.87387216 -6.80212628 36.87387216 -7.1875 39.0625 C-7.34605469 39.79597656 -7.50460938 40.52945313 -7.66796875 41.28515625 C-7.83232422 42.13400391 -7.83232422 42.13400391 -8 43 C-8.33 43 -8.66 43 -9 43 C-9.18981227 38.44450559 -9.21443149 34.23405689 -8 29.8125 C-7.0859788 26.32779418 -6.8213792 23.57241598 -7 20 C-7.54269531 20.42152344 -8.08539063 20.84304687 -8.64453125 21.27734375 C-9.35996094 21.82519531 -10.07539062 22.37304688 -10.8125 22.9375 C-11.52019531 23.48277344 -12.22789063 24.02804688 -12.95703125 24.58984375 C-17.25788561 27.5585023 -21.95240047 27.64689452 -27 27 C-29.5625 25.375 -29.5625 25.375 -31 23 C-31.6023916 19.46094937 -31.32275509 17.63014089 -29.6875 14.4375 C-25.64785617 10.77363699 -21.0111935 9.04629014 -16 7 C-14.92878906 6.55269531 -13.85757813 6.10539062 -12.75390625 5.64453125 C-10.71521365 4.79362038 -8.67378947 3.94920555 -6.62890625 3.11328125 C-4.36658058 2.15523843 -2.18077897 1.12905578 0 0 Z M37 12 C38 15 38 15 38 15 Z " fill="#905E47" transform="translate(77,78)"/>
<path d="M0 0 C7.9499058 6.24488724 7.9499058 6.24488724 8.8984375 10.6875 C10.3834375 11.1825 10.3834375 11.1825 11.8984375 11.6875 C11.8984375 13.9975 11.8984375 16.3075 11.8984375 18.6875 C9.26778325 16.71450931 7.05104732 14.88150089 5.01171875 12.2890625 C-5.2761427 -0.37584642 -23.10720532 -8.32082655 -39.1015625 -10.3125 C-59.14100672 -11.5180287 -77.48940039 -7.6656803 -93.06005859 5.67041016 C-98.08947053 10.21233395 -102.1964457 15.12782312 -105.796875 20.88671875 C-106.22742188 21.48097656 -106.65796875 22.07523438 -107.1015625 22.6875 C-107.7615625 22.6875 -108.4215625 22.6875 -109.1015625 22.6875 C-109.68112265 18.05101878 -109.39342126 15.56050992 -106.6015625 11.75 C-105.46120007 10.37360907 -104.29318224 9.01976156 -103.1015625 7.6875 C-102.52148438 7.02621094 -101.94140625 6.36492188 -101.34375 5.68359375 C-74.42596583 -23.09253117 -30.19131441 -22.51040067 0 0 Z " fill="#BD5214" transform="translate(147.1015625,41.3125)"/>
<path d="M0 0 C0.99 0 1.98 0 3 0 C2.97905273 0.91064209 2.95810547 1.82128418 2.93652344 2.75952148 C2.10233279 26.72471557 2.10233279 26.72471557 7 50 C7.37382812 51.08410156 7.74765625 52.16820312 8.1328125 53.28515625 C12.27270797 64.1283924 18.75864723 73.03635579 26.27734375 81.78515625 C28 84 28 84 28 86 C28.52722656 86.23074219 29.05445312 86.46148437 29.59765625 86.69921875 C32.14268726 88.07725993 34.36747537 89.72914175 36.66796875 91.47802734 C47.72410564 99.81589217 59.77913383 103.45197145 73 107 C72.67 108.65 72.34 110.3 72 112 C73.62324086 112.22162329 75.248721 112.42689803 76.875 112.625 C78.23238281 112.79902344 78.23238281 112.79902344 79.6171875 112.9765625 C80.40351562 112.98429687 81.18984375 112.99203125 82 113 C82.66 112.34 83.32 111.68 84 111 C84.66 111.33 85.32 111.66 86 112 C86 111.34 86 110.68 86 110 C87.98 110 89.96 110 92 110 C91.01 111.98 91.01 111.98 90 114 C97.59 114.33 105.18 114.66 113 115 C109.04283541 118.95716459 100.85667441 117.90767617 95.421875 118.00683594 C68.53752044 117.93095268 43.20538304 105.17639158 24.41210938 86.48242188 C20.46319959 82.33688588 17.18307714 77.74389103 14 73 C13.37351562 72.06671875 12.74703125 71.1334375 12.1015625 70.171875 C8.55476268 64.50319056 5.94216965 58.70788716 3.6875 52.4375 C3.44491455 51.76565674 3.2023291 51.09381348 2.95239258 50.40161133 C-0.56171968 40.07044424 -1.30131982 30.04830657 -1.1875 19.1875 C-1.18685547 17.99962891 -1.18621094 16.81175781 -1.18554688 15.58789062 C-1.158645 10.25833035 -0.98172562 5.25137522 0 0 Z " fill="#BF5821" transform="translate(4,82)"/>
<path d="M0 0 C7.32047936 13.6874509 4.87108753 32.53125839 1 47 C-5.5311428 66.98141709 -18.89478391 81.81001299 -37 92 C-37.67546875 92.41121094 -38.3509375 92.82242188 -39.046875 93.24609375 C-49.19861966 99.01821406 -60.92075474 100.35562871 -72.375 100.375 C-73.27750488 100.37661133 -74.18000977 100.37822266 -75.10986328 100.37988281 C-81.25767448 100.27845238 -87.01758014 99.39938704 -93 98 C-93 97.67 -93 97.34 -93 97 C-88.78242697 96.19416 -84.83375652 95.89197105 -80.54296875 95.9375 C-78.75149414 95.94910156 -78.75149414 95.94910156 -76.92382812 95.9609375 C-75.69083984 95.97382813 -74.45785156 95.98671875 -73.1875 96 C-70.72269878 96.02537109 -68.25784829 96.04645087 -65.79296875 96.0625 C-64.7052417 96.07410156 -63.61751465 96.08570313 -62.49682617 96.09765625 C-60.05895659 96.28526699 -60.05895659 96.28526699 -59 95 C-57.845 94.896875 -56.69 94.79375 -55.5 94.6875 C-51.23207575 94.22009716 -47.88213906 92.75515281 -44.0390625 90.90625 C-42 90 -42 90 -39.1875 89.5 C-36.23040211 88.82409191 -35.07795385 87.14498462 -33 85 C-30.75 84.25 -30.75 84.25 -29 84 C-29 83.34 -29 82.68 -29 82 C-27.35546875 80.6328125 -27.35546875 80.6328125 -25.1875 79.125 C-22.80864585 77.46976815 -21.10332042 76.13858252 -19.36328125 73.8046875 C-18.91339844 73.20914063 -18.46351563 72.61359375 -18 72 C-17.34 72 -16.68 72 -16 72 C-15.62488281 70.89978516 -15.62488281 70.89978516 -15.2421875 69.77734375 C-13.90248346 66.78196773 -12.30343746 64.9998838 -10.125 62.5625 C0.45933894 48.24477605 -0.50773524 24.94271703 -2.6875 8 C-2.81511719 7.29875 -2.94273437 6.5975 -3.07421875 5.875 C-2.96908393 3.21896242 -1.70222911 1.96040782 0 0 Z " fill="#BD5011" transform="translate(171,76)"/>
<path d="M0 0 C3.92830383 0.07662002 7.86122762 -0.07230976 11.78710938 -0.21484375 C17.57198183 -0.31625187 21.69607515 0.66847032 27 3 C26.06445443 7.3014221 24.63479659 8.5083575 21.0078125 10.89453125 C13.54060616 15.00585303 4.12189967 15.15868167 -4.0390625 13.3125 C-10.03509738 11.37308171 -13.61784214 9.36480212 -17 4 C-17 3.34 -17 2.68 -17 2 C-15.10787298 1.46585888 -13.21108364 0.94821671 -11.3125 0.4375 C-10.25675781 0.14746094 -9.20101562 -0.14257812 -8.11328125 -0.44140625 C-4.86057814 -1.02501547 -3.18347625 -0.68944471 0 0 Z " fill="#754534" transform="translate(93,130)"/>
<path d="M0 0 C0.99 0.33 1.98 0.66 3 1 C2.67 1.99 2.34 2.98 2 4 C4.475 4.495 4.475 4.495 7 5 C8.25 11.625 8.25 11.625 6 15 C3.375 15.6875 3.375 15.6875 1 16 C1.99 16.33 2.98 16.66 4 17 C5.6875 18.4375 5.6875 18.4375 7 20 C7 20.66 7 21.32 7 22 C-4.88 22 -16.76 22 -29 22 C-27.68 20.35 -26.36 18.7 -25 17 C-25.845625 16.278125 -26.69125 15.55625 -27.5625 14.8125 C-30 12 -30 12 -29.9375 9.375 C-29 7 -29 7 -27 4 C-24.21788056 4.37596209 -22.4120716 4.67318459 -20.1875 6.4375 C-19 8 -19 8 -19 10 C-18.34 10 -17.68 10 -17 10 C-17 12 -17 12 -19 14.125 C-19.66 14.74375 -20.32 15.3625 -21 16 C-20.30519531 15.83628906 -19.61039063 15.67257813 -18.89453125 15.50390625 C-15.7647184 14.95904004 -12.86201917 14.90261517 -9.6875 14.9375 C-8.08455078 14.95103516 -8.08455078 14.95103516 -6.44921875 14.96484375 C-5.64097656 14.97644531 -4.83273438 14.98804687 -4 15 C-4 13.68 -4 12.36 -4 11 C-3.34 11 -2.68 11 -2 11 C-1.90912109 9.93458984 -1.90912109 9.93458984 -1.81640625 8.84765625 C-1.73261719 7.92855469 -1.64882812 7.00945312 -1.5625 6.0625 C-1.48128906 5.14597656 -1.40007812 4.22945313 -1.31640625 3.28515625 C-1 1 -1 1 0 0 Z M5 6 C6 9 6 9 6 9 Z " fill="#AD6C48" transform="translate(109,84)"/>
<path d="M0 0 C0.495 0.99 0.495 0.99 1 2 C3.11785113 3.11785113 3.11785113 3.11785113 6 4 C6.99 3.34 7.98 2.68 9 2 C9.99 2.33 10.98 2.66 12 3 C10.37660195 4.70884005 8.70680947 6.37446717 7 8 C6.34 8 5.68 8 5 8 C5 8.66 5 9.32 5 10 C2 12 2 12 -1 12.375 C-4.11571153 12.67363975 -4.11571153 12.67363975 -5.5 15.0625 C-5.995 15.701875 -6.49 16.34125 -7 17 C-10.1875 17.25 -10.1875 17.25 -13 17 C-13 16.01 -13 15.02 -13 14 C-13.66 14 -14.32 14 -15 14 C-15 14.66 -15 15.32 -15 16 C-15.66 16 -16.32 16 -17 16 C-17.226875 16.66 -17.45375 17.32 -17.6875 18 C-19.3878815 21.88658628 -21.39623084 25.63679817 -24 29 C-24.66 29 -25.32 29 -26 29 C-26.0825 29.66 -26.165 30.32 -26.25 31 C-27.03965544 34.15862176 -28.37447457 36.72656137 -29.87890625 39.59765625 C-32.03878047 44.22595815 -33.47502164 49.13304779 -35 54 C-35.33 54 -35.66 54 -36 54 C-37.99365287 40.835562 -29.77964643 28.23149189 -22.35546875 17.99609375 C-18.78761075 13.45787305 -14.98556202 9.17400467 -11 5 C-10.37351562 5.19464844 -9.74703125 5.38929687 -9.1015625 5.58984375 C-8.06128906 5.79287109 -8.06128906 5.79287109 -7 6 C-5.35405861 4.60411246 -5.35405861 4.60411246 -4 3 C-3.34 3 -2.68 3 -2 3 C-2 2.34 -2 1.68 -2 1 C-1.34 0.67 -0.68 0.34 0 0 Z " fill="#DD6D1D" transform="translate(43,27)"/>
<path d="M0 0 C1 1 2 2 3 3 C3.47566406 3.37898438 3.95132813 3.75796875 4.44140625 4.1484375 C6.72363549 6.8596572 7.5775591 9.98590528 8.625 13.3125 C8.8415625 13.96412109 9.058125 14.61574219 9.28125 15.28710938 C11.87624692 23.28834988 12.15534324 30.59816675 12.125 38.9375 C12.12886719 39.99646484 12.13273438 41.05542969 12.13671875 42.14648438 C12.12999171 47.53820621 11.9517636 52.68976338 11 58 C10.34 58 9.68 58 9 58 C9.061875 59.794375 9.061875 59.794375 9.125 61.625 C9.13851708 65.42329953 8.42009753 68.44975618 7 72 C6.34 71.34 5.68 70.68 5 70 C5 71.98 5 73.96 5 76 C4.34 76 3.68 76 3 76 C2.67 75.34 2.34 74.68 2 74 C1.01 74.495 1.01 74.495 0 75 C0.17015625 74.45214844 0.3403125 73.90429688 0.515625 73.33984375 C1.04432327 71.61032547 1.5596474 69.87669839 2.06640625 68.140625 C2.70450327 65.99405595 3.38092006 63.85860514 4.08984375 61.734375 C9.64772977 43.77508495 8.0014857 25.69192252 1.25 8.3125 C0.08882596 5.2353888 -0.30386942 3.24127378 0 0 Z " fill="#C34E0F" transform="translate(184,59)"/>
<path d="M0 0 C1.32 0.66 2.64 1.32 4 2 C3.98952637 2.92748047 3.97905273 3.85496094 3.96826172 4.81054688 C3.93397327 8.284531 3.90900123 11.75833265 3.89013672 15.23242188 C3.88014099 16.72984676 3.86653986 18.22725244 3.84912109 19.72460938 C3.82458712 21.88937143 3.81345256 24.05387323 3.8046875 26.21875 C3.78897705 28.1668457 3.78897705 28.1668457 3.77294922 30.15429688 C4.02295558 34.38881325 4.89534241 37.91308898 6 42 C6.25911412 45.09456291 6.372499 48.16223757 6.4609375 51.265625 C7.13791819 54.69958503 8.42257482 55.70323818 11 58 C12.0612409 59.45044906 13.08312253 60.93056453 14.0625 62.4375 C14.57167969 63.21867187 15.08085938 63.99984375 15.60546875 64.8046875 C17.11352367 67.17871233 18.58767171 69.56765683 20 72 C18.515 71.505 18.515 71.505 17 71 C17 70.34 17 69.68 17 69 C16.13375 68.9071875 16.13375 68.9071875 15.25 68.8125 C9.54008237 66.7505853 6.9558601 59.45527839 4.45703125 54.34375 C2.14542192 49.03882349 0.51093735 43.57884561 -1 38 C-1.17724609 37.37536865 -1.35449219 36.7507373 -1.53710938 36.10717773 C-2.40689012 32.14774863 -2.19034078 28.10031615 -2.1875 24.0625 C-2.1884668 22.66028198 -2.1884668 22.66028198 -2.18945312 21.22973633 C-2.13446216 13.98280151 -1.47712819 7.10867942 0 0 Z " fill="#C25012" transform="translate(25,78)"/>
<path d="M0 0 C-0.3125 2.75 -0.3125 2.75 -2 6 C-5.5300014 7.78792279 -9.22364727 8.85090235 -13 10 C-17.58996412 11.66403605 -17.58996412 11.66403605 -21 15 C-21.72197162 17.60611077 -21.72197162 17.60611077 -22 20 C-15.91799729 19.72968877 -11.81347306 19.04769325 -7 15 C-5.24679464 13.05674528 -3.63081349 11.05016553 -2 9 C-1.67 9 -1.34 9 -1 9 C-0.46553556 12.63435821 -0.95604113 13.93268798 -3 17.0625 C-7.32559823 21.76476549 -12.36582071 24.18499115 -18.75 24.5 C-21.80778319 24.34156564 -22.90506727 24.06020124 -25.5625 22.375 C-27.45045796 19.25576511 -27.58675681 17.59388548 -27 14 C-23.97257505 8.08931319 -17.82928491 6.36550692 -12 4 C-10.57880859 3.40445313 -10.57880859 3.40445313 -9.12890625 2.796875 C-2.34352993 0 -2.34352993 0 0 0 Z " fill="#6C3E2A" transform="translate(73,81)"/>
<path d="M0 0 C17.77508766 4.99215228 17.77508766 4.99215228 22.5625 9.3125 C24.34714843 12.64901664 24.92997395 15.21859325 25 19 C23.23468433 21.6479735 22.06900421 21.9769986 19 23 C13.3191962 23.54623113 9.44960901 22.5107904 5 19 C-1.89306202 12.53859744 -1.89306202 12.53859744 -2.19140625 8.24609375 C-2.12824219 7.50488281 -2.06507812 6.76367188 -2 6 C0.17323993 8.09562422 2.11345222 10.15004971 3.9375 12.5625 C6.60822922 15.71881635 8.84097573 17.81505565 13.09765625 18.1796875 C15.06600343 18.18663052 17.03418022 18.09995694 19 18 C18.96219702 15.62766389 18.96219702 15.62766389 18 13 C13.8659624 9.50196819 9.20400828 7.74576678 4.171875 5.83203125 C2 5 2 5 0 4 C0 2.68 0 1.36 0 0 Z " fill="#6D402D" transform="translate(126,82)"/>
<path d="M0 0 C0.495 0.99 0.495 0.99 1 2 C-2.96 3.98 -6.92 5.96 -11 8 C-10.01 8.99 -9.02 9.98 -8 11 C-8 12.32 -8 13.64 -8 15 C-13.41588946 17.22438317 -18.11888764 18.80396292 -24 19 C-26.5 17.5625 -26.5 17.5625 -28 16 C-27.01 16 -26.02 16 -25 16 C-25.33 14.68 -25.66 13.36 -26 12 C-28.97 11.67 -31.94 11.34 -35 11 C-35 10.34 -35 9.68 -35 9 C-33.97261719 8.81824219 -32.94523437 8.63648438 -31.88671875 8.44921875 C-20.92829214 6.47606546 -10.38235959 4.11376512 0 0 Z " fill="#DF6D1D" transform="translate(136,171)"/>
<path d="M0 0 C1.49532885 3.88785501 0.51287253 6.21339507 -1 10 C-2.53812622 12.71537089 -4.24881543 15.29325361 -6 17.875 C-6.45117188 18.56335938 -6.90234375 19.25171875 -7.3671875 19.9609375 C-8.52051493 21.68069201 -9.75422702 23.34598385 -11 25 C-11.66 25 -12.32 25 -13 25 C-13.2578125 25.59296875 -13.515625 26.1859375 -13.78125 26.796875 C-15.09769895 29.17660965 -16.42580782 30.50978792 -18.5 32.25 C-19.1084375 32.77078125 -19.716875 33.2915625 -20.34375 33.828125 C-22 35 -22 35 -24 35 C-24 35.66 -24 36.32 -24 37 C-28.38461538 40 -28.38461538 40 -31 40 C-31.33 40.99 -31.66 41.98 -32 43 C-34.90625 44.1328125 -34.90625 44.1328125 -38.5 45.125 C-42.55920659 45.96888396 -42.55920659 45.96888396 -46 48 C-52.66287035 49.10785934 -59.2571375 49.18332744 -66 49.1875 C-67.56234375 49.20586914 -67.56234375 49.20586914 -69.15625 49.22460938 C-75.13551629 49.23593374 -80.27382143 48.74125382 -86 47 C-86 46.34 -86 45.68 -86 45 C-79.56480687 44.87381974 -79.56480687 44.87381974 -76.796875 45.4921875 C-72.9974942 46.18201921 -69.29170692 46.1911349 -65.4375 46.1875 C-64.24846069 46.18737915 -64.24846069 46.18737915 -63.03540039 46.18725586 C-52.30466131 46.60232271 -52.30466131 46.60232271 -43 43 C-41.33382885 42.95936168 -39.66611905 42.957279 -38 43 C-38 42.34 -38 41.68 -38 41 C-36.58521865 40.35004703 -35.16808513 39.70521278 -33.75 39.0625 C-32.96109375 38.70285156 -32.1721875 38.34320313 -31.359375 37.97265625 C-29.24176302 37.09966721 -27.23330638 36.48661492 -25 36 C-25 35.34 -25 34.68 -25 34 C-23.7262007 33.01055681 -22.40490671 32.0816514 -21.0625 31.1875 C-17.69655471 28.82128029 -17.69655471 28.82128029 -16 25.125 C-16 24.42375 -16 23.7225 -16 23 C-15.01 23 -14.02 23 -13 23 C-6.84461187 17.13772559 -2.6490194 7.94705819 0 0 Z " fill="#AC501F" transform="translate(166,123)"/>
<path d="M0 0 C0.33 0.99 0.66 1.98 1 3 C2.65 3 4.3 3 6 3 C5 6 5 6 1.9453125 7.71875 C0.67659553 8.32252097 -0.59710995 8.91589457 -1.875 9.5 C-5.74746327 11.29150321 -9.0027591 12.90850624 -12 16 C-12.99 16 -13.98 16 -15 16 C-14.979375 15.0925 -14.95875 14.185 -14.9375 13.25 C-14.9889755 10.57327412 -15.2215017 8.53011948 -16 6 C-17.32 6.33 -18.64 6.66 -20 7 C-17.37739925 3.82674642 -14.35249579 2.71265445 -10.5625 1.25 C-9.42941406 0.80140625 -8.29632813 0.3528125 -7.12890625 -0.109375 C-2.72143726 -1.36393546 -2.72143726 -1.36393546 0 0 Z " fill="#DE6D1E" transform="translate(75,13)"/>
<path d="M0 0 C0.66 0.33 1.32 0.66 2 1 C2 2.65 2 4.3 2 6 C1.34 6 0.68 6 0 6 C0.33 7.32 0.66 8.64 1 10 C0.01 9.67 -0.98 9.34 -2 9 C-2.45375 9.66 -2.9075 10.32 -3.375 11 C-3.91125 11.66 -4.4475 12.32 -5 13 C-5.66 13 -6.32 13 -7 13 C-6.67 14.65 -6.34 16.3 -6 18 C-7.98 18.99 -9.96 19.98 -12 21 C-12 21.99 -12 22.98 -12 24 C-12.66 24 -13.32 24 -14 24 C-14 24.66 -14 25.32 -14 26 C-14.66 26 -15.32 26 -16 26 C-16 26.99 -16 27.98 -16 29 C-17.98 28.67 -19.96 28.34 -22 28 C-22.33 28.66 -22.66 29.32 -23 30 C-23.99 30 -24.98 30 -26 30 C-26.875 26.875 -26.875 26.875 -27 23 C-25.3658298 20.54608319 -23.42357062 18.67502476 -21 17 C-20.34 17 -19.68 17 -19 17 C-19.495 17.8971875 -19.495 17.8971875 -20 18.8125 C-21.20787988 21.05386471 -21.20787988 21.05386471 -21 24 C-12.69231394 17.16370248 -4.85678726 9.71357453 0 0 Z " fill="#C64F0E" transform="translate(178,146)"/>
<path d="M0 0 C0.33 0.66 0.66 1.32 1 2 C2.84501625 2.76756736 2.84501625 2.76756736 5.0625 3.375 C10.78890773 5.18333928 17.09396127 7.19350374 21 12 C20.6875 14.6875 20.6875 14.6875 20 17 C14.88662978 17.54786109 11.98289383 17.43032186 7.75 14.375 C4.4492459 11.61354233 1.97599422 8.86965534 0 5 C-0.25 2.125 -0.25 2.125 0 0 Z " fill="#C4684D" transform="translate(125,84)"/>
<path d="M0 0 C0.33 0.99 0.66 1.98 1 3 C-1.7093471 8.13405461 -5.75001728 12.5294199 -11 15 C-14.03397807 15.2989141 -16.96407411 15.24287407 -20 15 C-20.47497729 11.67515898 -20.17882695 10.27155204 -18.3125 7.4375 C-14.61168935 4.02715995 -9.59675478 3.10487901 -4.86328125 1.796875 C-2.08402202 1.12160559 -2.08402202 1.12160559 0 0 Z " fill="#C56C55" transform="translate(71,86)"/>
<path d="M0 0 C0.99 0.33 1.98 0.66 3 1 C1.71937515 2.7074998 0.38232443 4.37373596 -1 6 C-1.66 6 -2.32 6 -3 6 C-3.226875 6.66 -3.45375 7.32 -3.6875 8 C-5.3878815 11.88658628 -7.39623084 15.63679817 -10 19 C-10.66 19 -11.32 19 -12 19 C-12.0825 19.66 -12.165 20.32 -12.25 21 C-13.03965544 24.15862176 -14.37447457 26.72656137 -15.87890625 29.59765625 C-18.03878047 34.22595815 -19.47502164 39.13304779 -21 44 C-21.33 44 -21.66 44 -22 44 C-24.01812518 30.67396708 -15.63116953 18.23611204 -8.30859375 7.76953125 C-5.70595874 4.64724999 -3.31079882 2.35977742 0 0 Z " fill="#BD5419" transform="translate(29,37)"/>
<path d="M0 0 C1.32 0.66 2.64 1.32 4 2 C3.99214478 3.3912207 3.99214478 3.3912207 3.98413086 4.81054688 C3.96698673 8.28451166 3.95450035 11.75843082 3.94506836 15.23242188 C3.94007057 16.72982497 3.9332701 18.22722327 3.92456055 19.72460938 C3.91229377 21.88933505 3.90672603 24.05399565 3.90234375 26.21875 C3.89710693 27.51748047 3.89187012 28.81621094 3.88647461 30.15429688 C4.0053392 34.18086673 4.43973231 38.01415096 5 42 C4.34 42 3.68 42 3 42 C-0.02093215 38.97906785 0.53323166 35.43627928 0.375 31.375 C0.31699219 30.17230469 0.31699219 30.17230469 0.2578125 28.9453125 C0.16346069 26.96392444 0.08063785 24.98199355 0 23 C-0.66 23.33 -1.32 23.66 -2 24 C-2.29599372 15.7943963 -1.43794854 8.07562173 0 0 Z " fill="#C1500F" transform="translate(25,78)"/>
<path d="M0 0 C0 0.99 0 1.98 0 3 C-0.99 2.67 -1.98 2.34 -3 2 C-5.05893621 1.77674186 -7.12233653 1.59294241 -9.1875 1.4375 C-10.27417969 1.35371094 -11.36085938 1.26992188 -12.48046875 1.18359375 C-13.31191406 1.12300781 -14.14335938 1.06242187 -15 1 C-14.01 0.34 -13.02 -0.32 -12 -1 C-12.83772949 -0.98428955 -13.67545898 -0.9685791 -14.53857422 -0.95239258 C-17.64336877 -0.90129993 -20.74794931 -0.86366766 -23.85302734 -0.83520508 C-25.85919374 -0.81267749 -27.86516526 -0.7745643 -29.87109375 -0.73632812 C-31.12792969 -0.72666016 -32.38476562 -0.71699219 -33.6796875 -0.70703125 C-35.42354736 -0.68346558 -35.42354736 -0.68346558 -37.20263672 -0.65942383 C-38.1257666 -0.77181396 -39.04889648 -0.8842041 -40 -1 C-40.66 -1.99 -41.32 -2.98 -42 -4 C-28.25956951 -6.62529026 -12.91805209 -5.59538979 0 0 Z " fill="#C65112" transform="translate(127,30)"/>
<path d="M0 0 C3 1 3 1 4.1875 2.5625 C5.37688368 6.13065103 5.94373259 9.35090064 5 13 C2.98951009 15.48817811 0.74472519 17.36061663 -2 19 C-2.66 19 -3.32 19 -4 19 C-4 19.66 -4 20.32 -4 21 C-7.96 22.98 -7.96 22.98 -12 25 C-12.33 24.34 -12.66 23.68 -13 23 C-12.34 23 -11.68 23 -11 23 C-11 20.03 -11 17.06 -11 14 C-10.01 13.67 -9.02 13.34 -8 13 C-7.34 13.66 -6.68 14.32 -6 15 C-3.78918149 15.10540926 -3.78918149 15.10540926 -1 14 C0.22520264 10.99152582 0.22520264 10.99152582 1 8 C0.34 7.67 -0.32 7.34 -1 7 C-0.67 4.69 -0.34 2.38 0 0 Z " fill="#7B3E22" transform="translate(145,138)"/>
<path d="M0 0 C3.68040867 2.32446864 5.2994906 4.07965475 6.3125 8.25 C6.6528125 10.10625 6.6528125 10.10625 7 12 C5.02 12.99 5.02 12.99 3 14 C3 13.01 3 12.02 3 11 C2.46117187 11.22171875 1.92234375 11.4434375 1.3671875 11.671875 C-2.04842729 12.14532656 -3.86488824 10.85845666 -6.875 9.25 C-7.88304687 8.71890625 -8.89109375 8.1878125 -9.9296875 7.640625 C-10.94289062 7.09921875 -11.95609375 6.5578125 -13 6 C-14.09570312 5.47921875 -15.19140625 4.9584375 -16.3203125 4.421875 C-19 3 -19 3 -20 1 C-15.97492333 0.71604397 -13.838224 1.37085106 -10.4375 3.5 C-7.07479602 5.59804754 -6.16408692 6 -2 6 C-1.855625 5.195625 -1.71125 4.39125 -1.5625 3.5625 C-1 1 -1 1 0 0 Z " fill="#DE6E1B" transform="translate(157,28)"/>
<path d="M0 0 C3.92830383 0.07662002 7.86122762 -0.07230976 11.78710938 -0.21484375 C17.57198183 -0.31625187 21.69607515 0.66847032 27 3 C24.18813032 4.99174103 22.18282387 5.08443886 18.875 4.6875 C15 4 15 4 13 3 C7.31539816 2.65812884 1.80614025 2.47958671 -3.6875 4.0625 C-8.28098526 5.362543 -12.33059265 4.69524375 -17 4 C-17 3.34 -17 2.68 -17 2 C-15.10787298 1.46585888 -13.21108364 0.94821671 -11.3125 0.4375 C-10.25675781 0.14746094 -9.20101562 -0.14257812 -8.11328125 -0.44140625 C-4.86057814 -1.02501547 -3.18347625 -0.68944471 0 0 Z " fill="#683B2C" transform="translate(93,130)"/>
<path d="M0 0 C0.44601563 0.47050781 0.89203125 0.94101563 1.3515625 1.42578125 C4.16347586 4.11109187 6.96928773 4.95419057 10.8125 5.125 C11.8953125 5.063125 11.8953125 5.063125 13 5 C12.01 5.495 12.01 5.495 11 6 C10.67 6.99 10.34 7.98 10 9 C7.56723614 10.18519265 5.71982714 11 3 11 C2.67 12.65 2.34 14.3 2 16 C1.01 16.33 0.02 16.66 -1 17 C-1.80212628 18.87387216 -1.80212628 18.87387216 -2.1875 21.0625 C-2.34605469 21.79597656 -2.50460938 22.52945313 -2.66796875 23.28515625 C-2.83232422 24.13400391 -2.83232422 24.13400391 -3 25 C-3.33 25 -3.66 25 -4 25 C-4.62774507 16.21156902 -2.30784711 8.39685444 0 0 Z " fill="#8E5A40" transform="translate(72,96)"/>
<path d="M0 0 C1.8871875 0.0309375 1.8871875 0.0309375 3.8125 0.0625 C3.8125 0.3925 3.8125 0.7225 3.8125 1.0625 C13.0525 1.0625 22.2925 1.0625 31.8125 1.0625 C31.4825 1.7225 31.1525 2.3825 30.8125 3.0625 C26.3508241 3.99847577 22.12885858 4.10034504 17.60864258 3.9465332 C5.14335157 3.5473278 -5.77650278 5.95025606 -17.1875 11.0625 C-17.1875 10.4025 -17.1875 9.7425 -17.1875 9.0625 C-15.8675 8.7325 -14.5475 8.4025 -13.1875 8.0625 C-13.1875 7.4025 -13.1875 6.7425 -13.1875 6.0625 C-12.1975 6.0625 -11.2075 6.0625 -10.1875 6.0625 C-10.1875 5.4025 -10.1875 4.7425 -10.1875 4.0625 C-9.5275 4.0625 -8.8675 4.0625 -8.1875 4.0625 C-7.8575 3.0725 -7.5275 2.0825 -7.1875 1.0625 C-4.43671116 0.14557039 -2.82801087 -0.04636083 0 0 Z " fill="#B25019" transform="translate(84.1875,26.9375)"/>
<path d="M0 0 C2.13282971 0.70593659 4.25616064 1.44062062 6.375 2.1875 C7.55835937 2.59355469 8.74171875 2.99960938 9.9609375 3.41796875 C13 5 13 5 14.4140625 7.67578125 C14.60742188 8.44277344 14.80078125 9.20976563 15 10 C13.68 10 12.36 10 11 10 C11 10.66 11 11.32 11 12 C8.36 12.33 5.72 12.66 3 13 C1.5393715 10.35261084 1 9.10551666 1 6 C0.67619874 4.66431979 0.34342449 3.33076989 0 2 C0 1.34 0 0.68 0 0 Z " fill="#86533A" transform="translate(105,72)"/>
<path d="M0 0 C0.33 0 0.66 0 1 0 C0.96519531 0.70125 0.93039063 1.4025 0.89453125 2.125 C0.70920845 8.62012283 1.43681752 13.05341666 4 19 C4.185625 19.94875 4.37125 20.8975 4.5625 21.875 C4.8393739 24.20603428 4.8393739 24.20603428 7 26 C5.68 26.33 4.36 26.66 3 27 C2.67 28.32 2.34 29.64 2 31 C1.731875 29.948125 1.46375 28.89625 1.1875 27.8125 C0.22912764 24.10829858 0.22912764 24.10829858 -1.55078125 21.6640625 C-4.19360977 16.80581709 -3.5260956 11.38236272 -3 6 C-2.24864586 3.59048499 -1.43595624 2.09410285 0 0 Z " fill="#B58559" transform="translate(27,55)"/>
<path d="M0 0 C1.98 0 3.96 0 6 0 C5.34 1.32 4.68 2.64 4 4 C11.59 4.33 19.18 4.66 27 5 C24.01161148 7.98838852 20.58479063 7.51369481 16.5625 7.6875 C15.75224365 7.72584961 14.9419873 7.76419922 14.10717773 7.80371094 C-2.31003513 8.46438969 -2.31003513 8.46438969 -5.78515625 5.453125 C-6.38650391 4.73382813 -6.38650391 4.73382813 -7 4 C-6.01 3.67 -5.02 3.34 -4 3 C-3.34 2.34 -2.68 1.68 -2 1 C-1.34 1.33 -0.68 1.66 0 2 C0 1.34 0 0.68 0 0 Z " fill="#BB5A28" transform="translate(90,192)"/>
<path d="M0 0 C0.99 0.33 1.98 0.66 3 1 C2.071875 2.3303125 2.071875 2.3303125 1.125 3.6875 C-2.5542565 9.42281161 -3.29751698 13.96356751 -3.65625 20.671875 C-3.7696875 21.44015625 -3.883125 22.2084375 -4 23 C-4.66 23.33 -5.32 23.66 -6 24 C-6.59896093 26.30710878 -6.95654965 28.61688718 -7.33984375 30.96875 C-7.55769531 31.6390625 -7.77554687 32.309375 -8 33 C-9.485 33.495 -9.485 33.495 -11 34 C-10.59866464 29.43745059 -10.09874411 25.09392339 -8.8125 20.6875 C-7.6971119 17.16288453 -7.6971119 17.16288453 -8.875 14.5 C-9.24625 14.005 -9.6175 13.51 -10 13 C-9.34 13 -8.68 13 -8 13 C-7.67 12.34 -7.34 11.68 -7 11 C-6.34 11 -5.68 11 -5 11 C-5 10.34 -5 9.68 -5 9 C-4.34 9 -3.68 9 -3 9 C-3.061875 8.2575 -3.12375 7.515 -3.1875 6.75 C-2.96905704 3.54616994 -2.09749995 2.35968744 0 0 Z " fill="#D56A24" transform="translate(28,49)"/>
<path d="M0 0 C0.66 0.99 1.32 1.98 2 3 C1.67 3.66 1.34 4.32 1 5 C1.99 4.67 2.98 4.34 4 4 C3.42582888 7.49861602 2.26480957 9.04783182 -0.3125 11.4375 C-3.13501668 14.13224844 -5.63769662 16.88175954 -8 20 C-7.52412884 13.97229862 -4.80277043 9.23321711 -2 4 C-3.65 4 -5.3 4 -7 4 C-7.226875 4.598125 -7.45375 5.19625 -7.6875 5.8125 C-9.33811133 8.56351888 -11.1972081 9.52484637 -14 11 C-14 9.68 -14 8.36 -14 7 C-13.21625 6.731875 -12.4325 6.46375 -11.625 6.1875 C-8.71885077 5.15185568 -8.71885077 5.15185568 -7 2 C-3.375 0.8125 -3.375 0.8125 0 0 Z " fill="#D86D26" transform="translate(46,37)"/>
<path d="M0 0 C0.66 1.65 1.32 3.3 2 5 C-2.2929834 10.88752009 -2.2929834 10.88752009 -5.75 11.4375 C-8 11 -8 11 -9 10 C-9.04092937 7.66702567 -9.04241723 5.33294775 -9 3 C-8.34 3 -7.68 3 -7 3 C-7 2.34 -7 1.68 -7 1 C-4.53721199 -0.231394 -2.7204945 -0.07159196 0 0 Z " fill="#4E2A1E" transform="translate(117,112)"/>
<path d="M0 0 C3.0572921 0.1951463 5.26911153 0.53710397 7.875 2.1875 C9.49664405 4.80014875 9.20031953 6.99520702 9 10 C5.85190601 10.98940097 4.37166741 11.14359877 1.25 9.9375 C-1 8 -1 8 -1.9375 4.9375 C-1.958125 3.968125 -1.97875 2.99875 -2 2 C-1.34 1.34 -0.68 0.68 0 0 Z " fill="#4B291A" transform="translate(80,112)"/>
<path d="M0 0 C0.495 0.99 0.495 0.99 1 2 C-10.678794 8.50224747 -21.58540534 11.72583979 -35 11 C-35 10.34 -35 9.68 -35 9 C-33.97261719 8.81824219 -32.94523437 8.63648438 -31.88671875 8.44921875 C-20.92829214 6.47606546 -10.38235959 4.11376512 0 0 Z " fill="#CA550D" transform="translate(136,171)"/>
<path d="M0 0 C6.44111379 -0.12629635 6.44111379 -0.12629635 9.1953125 0.49609375 C13.03952366 1.18676679 16.78993254 1.14764617 20.6875 1.125 C21.48462402 1.12306641 22.28174805 1.12113281 23.10302734 1.11914062 C28.79178723 1.07749016 34.35346022 0.72858578 40 0 C36.77208445 2.1519437 35.71599191 2.20086443 32 2 C32 2.66 32 3.32 32 4 C28.16673205 4.05859888 24.33358112 4.09379643 20.5 4.125 C19.42234375 4.14175781 18.3446875 4.15851563 17.234375 4.17578125 C11.11175408 4.2131143 5.85894386 3.80603367 0 2 C0 1.34 0 0.68 0 0 Z " fill="#9F542E" transform="translate(80,168)"/>
<path d="M0 0 C1.03253906 0.01353516 1.03253906 0.01353516 2.0859375 0.02734375 C3.76577838 0.05067487 5.44543746 0.08653674 7.125 0.125 C7.125 1.115 7.125 2.105 7.125 3.125 C5.805 3.455 4.485 3.785 3.125 4.125 C3.125 4.455 3.125 4.785 3.125 5.125 C-2.485 5.125 -8.095 5.125 -13.875 5.125 C-13.875 4.135 -13.875 3.145 -13.875 2.125 C-9.17038677 0.26367327 -4.9992304 -0.1259496 0 0 Z " fill="#BD774D" transform="translate(100.875,99.875)"/>
<path d="M0 0 C-1.03447266 0.60134766 -1.03447266 0.60134766 -2.08984375 1.21484375 C-11.13174705 6.68463711 -18.43793497 12.96164432 -24 22 C-24.33 22 -24.66 22 -25 22 C-25 20.02 -25 18.04 -25 16 C-24.01 16 -23.02 16 -22 16 C-22 15.34 -22 14.68 -22 14 C-21.34 14 -20.68 14 -20 14 C-19.7834375 12.824375 -19.7834375 12.824375 -19.5625 11.625 C-18.826756 8.19152798 -18.52691186 7.35127457 -15.5625 5.375 C-13 4 -13 4 -11 4 C-10.67 3.34 -10.34 2.68 -10 2 C-9.34 2.33 -8.68 2.66 -8 3 C-8 2.34 -8 1.68 -8 1 C-4.85571151 -0.9090323 -3.47925125 -1.04523725 0 0 Z " fill="#B4561C" transform="translate(66,39)"/>
<path d="M0 0 C2.4375 0.375 2.4375 0.375 5 1 C6.38125018 3.76250036 6.19079306 5.94731099 6 9 C4 11 4 11 1.5 11.3125 C0.2625 11.1578125 0.2625 11.1578125 -1 11 C-3 8 -3 8 -2.75 5.5 C-2 3 -2 3 0 0 Z " fill="#5B2C18" transform="translate(82,88)"/>
<path d="M0 0 C0.66 0 1.32 0 2 0 C2.07516846 0.55872803 2.15033691 1.11745605 2.2277832 1.69311523 C2.58045105 4.27588073 2.94640271 6.85660519 3.3125 9.4375 C3.43044922 10.31599609 3.54839844 11.19449219 3.66992188 12.09960938 C4.51892499 17.99909258 5.91364994 23.41677364 8 29 C6.07910156 28.61914062 6.07910156 28.61914062 4 28 C-1.44901567 19.7928406 -0.39555443 9.37244237 0 0 Z " fill="#CC550E" transform="translate(11,100)"/>
<path d="M0 0 C0.99 0.99 1.98 1.98 3 3 C1.3982422 6.9761282 -1.3736223 9.67101247 -4.375 12.625 C-4.85710937 13.11484375 -5.33921875 13.6046875 -5.8359375 14.109375 C-8.37243881 16.63209098 -10.66236091 18.65545345 -14 20 C-14 19.01 -14 18.02 -14 17 C-12.68 16.67 -11.36 16.34 -10 16 C-10 14.68 -10 13.36 -10 12 C-9.34 12 -8.68 12 -8 12 C-7.67 10.02 -7.34 8.04 -7 6 C-4.66682784 5.22227595 -2.38564077 4.57584432 0 4 C-0.33 3.01 -0.66 2.02 -1 1 C-0.67 0.67 -0.34 0.34 0 0 Z " fill="#B95926" transform="translate(172,160)"/>
<path d="M0 0 C-1.450954 3.82524236 -3.38181932 5.19090966 -7 7 C-7.66 7 -8.32 7 -9 7 C-9 7.66 -9 8.32 -9 9 C-9.55429688 9.20496094 -10.10859375 9.40992187 -10.6796875 9.62109375 C-11.40414062 9.89050781 -12.12859375 10.15992187 -12.875 10.4375 C-13.95394531 10.83775391 -13.95394531 10.83775391 -15.0546875 11.24609375 C-17.03648845 11.97916854 -17.03648845 11.97916854 -19 13 C-18.13502248 8.78845427 -17.48295133 7.32436137 -13.84765625 4.8828125 C-12.59583047 4.27602656 -11.33352328 3.69047042 -10.0625 3.125 C-9.42892578 2.81820312 -8.79535156 2.51140625 -8.14257812 2.1953125 C-5.25925957 0.83702994 -3.22087195 0 0 0 Z " fill="#7D4D33" transform="translate(95,71)"/>
<path d="M0 0 C2.625 0.375 2.625 0.375 5 1 C6.25 7.625 6.25 7.625 4 11 C1.625 10.6875 1.625 10.6875 -1 10 C-3 7 -3 7 -2.75 4.4375 C-2 2 -2 2 0 0 Z M3 2 C4 5 4 5 4 5 Z " fill="#785646" transform="translate(111,88)"/>
<path d="M0 0 C0.0825 0.515625 0.165 1.03125 0.25 1.5625 C1.85816034 6.7890211 3.58527755 10.15660777 8.25 12.9375 C9.1575 13.288125 10.065 13.63875 11 14 C11 14.99 11 15.98 11 17 C6.36711185 15.70931268 3.30246056 13.9561156 -0.375 10.875 C-1.24898437 10.15054688 -2.12296875 9.42609375 -3.0234375 8.6796875 C-4.00183594 7.84824219 -4.00183594 7.84824219 -5 7 C-3.64062915 4.1394109 -2.35479531 2.14072301 0 0 Z " fill="#79391C" transform="translate(54,145)"/>
<path d="M0 0 C10.53723329 0.53579152 20.10871684 4.41710127 29 10 C29 10.33 29 10.66 29 11 C24.07383531 10.58948628 20.87012587 9.50256309 16.46484375 7.12109375 C11.23938576 4.7443799 5.53697257 3.46200961 0 2 C0 1.34 0 0.68 0 0 Z " fill="#C9550A" transform="translate(114,14)"/>
<path d="M0 0 C0.66 0.33 1.32 0.66 2 1 C3.936556 6.80966801 4.24065062 11.00352201 3 17 C2.34 17.66 1.68 18.32 1 19 C-1.4793824 12.75726932 -2.31985731 7.71700347 -2 1 C-1.34 0.67 -0.68 0.34 0 0 Z " fill="#E57728" transform="translate(9,111)"/>
<path d="M0 0 C3.43445445 3.14889307 5.76194832 6.53174285 8.1875 10.5 C8.54263672 11.06847656 8.89777344 11.63695312 9.26367188 12.22265625 C12.7562189 17.9353233 12.7562189 17.9353233 13 21 C12.34 21.66 11.68 22.32 11 23 C8.23131586 20.23131586 6.50575053 18.21468372 4.9375 14.625 C4.42509766 13.46871094 4.42509766 13.46871094 3.90234375 12.2890625 C3.07655566 10.19420614 2.50918572 8.1886053 2 6 C1.34490497 3.99617991 0.68025637 1.99541868 0 0 Z " fill="#C26635" transform="translate(175,41)"/>
<path d="M0 0 C0 0.66 0 1.32 0 2 C-0.66 2 -1.32 2 -2 2 C-2 2.66 -2 3.32 -2 4 C-2.99 4 -3.98 4 -5 4 C-5 4.66 -5 5.32 -5 6 C-6.32 6.33 -7.64 6.66 -9 7 C-9 7.66 -9 8.32 -9 9 C-10.45463481 9.38909985 -11.91391207 9.76088029 -13.375 10.125 C-14.18710937 10.33382812 -14.99921875 10.54265625 -15.8359375 10.7578125 C-16.55007812 10.83773437 -17.26421875 10.91765625 -18 11 C-18.66 10.34 -19.32 9.68 -20 9 C-6.46311475 0 -6.46311475 0 0 0 Z " fill="#C55311" transform="translate(76,29)"/>
<path d="M0 0 C4.90911386 1.87143015 9.4958508 4.25448043 14.16015625 6.66015625 C16.49085885 7.75978623 18.48721874 8.5119058 21 9 C21 9.99 21 10.98 21 12 C16.09215557 11.43458013 12.06382206 9.88256375 7.6875 7.6875 C7.05521484 7.39166016 6.42292969 7.09582031 5.77148438 6.79101562 C1.2188593 4.53178153 1.2188593 4.53178153 0.08203125 1.76953125 C0.05496094 1.18558594 0.02789062 0.60164062 0 0 Z " fill="#CA570D" transform="translate(53,171)"/>
<path d="M0 0 C-0.42641923 3.09313052 -0.94084703 6.05609789 -2 9 C-4.375 10.25 -4.375 10.25 -7 11 C-9.29577243 13.51406311 -9.29577243 13.51406311 -11 16 C-11.671875 14.28515625 -11.671875 14.28515625 -12 12 C-10.890625 9.74609375 -10.890625 9.74609375 -9.25 7.4375 C-8.71890625 6.67308594 -8.1878125 5.90867188 -7.640625 5.12109375 C-3.67955801 0 -3.67955801 0 0 0 Z " fill="#724D32" transform="translate(65,126)"/>
<path d="M0 0 C0.66 0 1.32 0 2 0 C1.99476318 0.74572266 1.98952637 1.49144531 1.98413086 2.25976562 C1.96320761 5.67316834 1.95029127 9.08655751 1.9375 12.5 C1.92912109 13.67304687 1.92074219 14.84609375 1.91210938 16.0546875 C1.89502156 22.13794882 2.05497248 27.98754144 3 34 C2.34 34 1.68 34 1 34 C-1 32 -1 32 -1.24291992 29.91210938 C-1.23881104 29.06455078 -1.23470215 28.21699219 -1.23046875 27.34375 C-1.22853516 26.40273437 -1.22660156 25.46171875 -1.22460938 24.4921875 C-1.21236328 23.50476563 -1.20011719 22.51734375 -1.1875 21.5 C-1.18685547 20.54351562 -1.18621094 19.58703125 -1.18554688 18.6015625 C-1.1474194 12.3486572 -0.7386525 6.20842102 0 0 Z " fill="#B35926" transform="translate(27,86)"/>
<path d="M0 0 C2.51541821 2.51541821 3.6934513 5.38951614 5.1875 8.5625 C8.76493078 15.94972384 13.09390951 22.25401437 19 28 C18.01 28.33 17.02 28.66 16 29 C14.58126158 27.12653773 13.16498375 25.25129507 11.75 23.375 C10.96109375 22.33085937 10.1721875 21.28671875 9.359375 20.2109375 C7.78990196 18.07499903 6.27312275 15.89930016 4.8125 13.6875 C3.21741768 11.02626068 3.21741768 11.02626068 1.25 9.625 C-0.93567179 6.78362668 -0.17083569 3.47365897 0 0 Z " fill="#B35B26" transform="translate(31,124)"/>
<path d="M0 0 C1.49532885 3.88785501 0.51287253 6.21339507 -1 10 C-2.53812622 12.71537089 -4.24881543 15.29325361 -6 17.875 C-6.45117188 18.56335938 -6.90234375 19.25171875 -7.3671875 19.9609375 C-8.52051493 21.68069201 -9.75422702 23.34598385 -11 25 C-11.66 25 -12.32 25 -13 25 C-13.226875 25.5775 -13.45375 26.155 -13.6875 26.75 C-15.33038023 29.5663661 -17.39533227 31.08077114 -20 33 C-19.71125 32.46375 -19.4225 31.9275 -19.125 31.375 C-17.83288192 28.64719516 -16.91441408 25.87387282 -16 23 C-15.01 23 -14.02 23 -13 23 C-6.84461187 17.13772559 -2.6490194 7.94705819 0 0 Z " fill="#AA5723" transform="translate(166,123)"/>
<path d="M0 0 C-0.4375 2.8125 -0.4375 2.8125 -2 6 C-4.89403604 7.44437265 -7.85835465 8.26307084 -11 9 C-12.32 7.68 -13.64 6.36 -15 5 C-12.8765984 4.16260219 -10.7512272 3.33019717 -8.625 2.5 C-7.44164063 2.0359375 -6.25828125 1.571875 -5.0390625 1.09375 C-2 0 -2 0 0 0 Z " fill="#774530" transform="translate(73,81)"/>
<path d="M0 0 C0.66 0.33 1.32 0.66 2 1 C2.474377 8.28695785 2.28670939 12.97181491 -2 19 C-2.66 18.67 -3.32 18.34 -4 18 C-4.32044942 12.65917639 -3.53420127 9.66293035 -1 5 C-0.30092586 2.26427415 -0.30092586 2.26427415 0 0 Z " fill="#BC8353" transform="translate(171,61)"/>
<path d="M0 0 C-1 3 -1 3 -4.0546875 4.71875 C-5.32340447 5.32252097 -6.59710995 5.91589457 -7.875 6.5 C-11.74746327 8.29150321 -15.0027591 9.90850624 -18 13 C-18.99 13 -19.98 13 -21 13 C-21 12.01 -21 11.02 -21 10 C-18.37532366 8.5202565 -15.75027507 7.04118057 -13.125 5.5625 C-12.37863281 5.14162109 -11.63226563 4.72074219 -10.86328125 4.28710938 C-9.79013672 3.68286133 -9.79013672 3.68286133 -8.6953125 3.06640625 C-8.03547363 2.69459229 -7.37563477 2.32277832 -6.69580078 1.93969727 C-4.09900918 0.50073227 -3.08506811 0 0 0 Z " fill="#CB580C" transform="translate(81,16)"/>
<path d="M0 0 C2 1 2 1 3 3 C0.80861021 5.35729943 -1.43931973 7.02057098 -4.1875 8.6875 C-4.90292969 9.12449219 -5.61835937 9.56148437 -6.35546875 10.01171875 C-6.89816406 10.33785156 -7.44085938 10.66398437 -8 11 C-8.99 10.34 -9.98 9.68 -11 9 C-9.63016497 5.83884224 -9.0109362 5.0072908 -6 3 C-2.8125 2.875 -2.8125 2.875 0 3 C0 2.01 0 1.02 0 0 Z " fill="#D06949" transform="translate(64,89)"/>
<path d="M0 0 C1.24881179 3.54734944 0.73522457 5.67616446 -0.43359375 9.203125 C-0.75263672 10.1828125 -1.07167969 11.1625 -1.40039062 12.171875 C-1.74263672 13.18765625 -2.08488281 14.2034375 -2.4375 15.25 C-2.77587891 16.28125 -3.11425781 17.3125 -3.46289062 18.375 C-4.2993977 20.9198666 -5.14537912 23.46117074 -6 26 C-6.33 26 -6.66 26 -7 26 C-8.47822019 16.23905399 -4.14645411 8.52561738 0 0 Z " fill="#BB6538" transform="translate(14,55)"/>
<path d="M0 0 C0.99 0.33 1.98 0.66 3 1 C2.484375 2.051875 1.96875 3.10375 1.4375 4.1875 C0.01311263 7.51331013 -0.26300849 9.50243803 1 13 C1.99 14.485 1.99 14.485 3 16 C-0.90480249 17.35862973 -4.7101776 16.89469712 -8.75 16.5625 C-9.44738281 16.51029297 -10.14476563 16.45808594 -10.86328125 16.40429688 C-12.57596203 16.27525928 -14.28805066 16.13840386 -16 16 C-16 15.67 -16 15.34 -16 15 C-12.04 15 -8.08 15 -4 15 C-4 13.68 -4 12.36 -4 11 C-3.34 11 -2.68 11 -2 11 C-1.93941406 10.28972656 -1.87882812 9.57945313 -1.81640625 8.84765625 C-1.73261719 7.92855469 -1.64882812 7.00945312 -1.5625 6.0625 C-1.48128906 5.14597656 -1.40007812 4.22945313 -1.31640625 3.28515625 C-1 1 -1 1 0 0 Z " fill="#9E6246" transform="translate(109,84)"/>
<path d="M0 0 C0.309375 0.639375 0.61875 1.27875 0.9375 1.9375 C1.8345163 3.93610821 1.8345163 3.93610821 3 5 C3.04080783 6.99958364 3.04254356 9.00045254 3 11 C3.66 11.33 4.32 11.66 5 12 C-0.44567686 10.97137215 -5.11817117 9.75385216 -10 7 C-6.25 5.875 -6.25 5.875 -4 7 C-3.67 6.01 -3.34 5.02 -3 4 C-2.34 4 -1.68 4 -1 4 C-0.67 2.68 -0.34 1.36 0 0 Z " fill="#804832" transform="translate(75,156)"/>
<path d="M0 0 C2.15242738 2.07555497 4.03081166 4.04401665 5.75 6.5 C8.70493122 9.78325691 11.99493902 11.2599371 16 13 C12.2890625 15.046875 12.2890625 15.046875 9.6875 14.625 C5.68671274 12.20591933 2.48297255 8.97132497 0 5 C-0.19921875 2.23828125 -0.19921875 2.23828125 0 0 Z " fill="#643322" transform="translate(124,88)"/>
<path d="M0 0 C3.390052 3.67174687 4.14166985 7.63824398 5.1875 12.375 C5.36474609 13.1175 5.54199219 13.86 5.72460938 14.625 C6.68659119 18.82949194 7.19989032 22.65755513 7 27 C6.34 27 5.68 27 5 27 C4.3509032 23.81315572 3.70632052 20.62541405 3.0625 17.4375 C2.88009766 16.54224609 2.69769531 15.64699219 2.50976562 14.72460938 C1.52319496 9.82763134 0.64555127 4.95375656 0 0 Z " fill="#C8560D" transform="translate(173,68)"/>
<path d="M0 0 C2.1875 0.25 2.1875 0.25 4 1 C4.66 0.67 5.32 0.34 6 0 C6.375 2.1875 6.375 2.1875 6 5 C3.125 7.6875 3.125 7.6875 0 10 C-0.66 10.66 -1.32 11.32 -2 12 C-2.625 10.125 -2.625 10.125 -3 8 C-2.34 7.34 -1.68 6.68 -1 6 C-2.32 5.67 -3.64 5.34 -5 5 C-2.75 2.4375 -2.75 2.4375 0 0 Z " fill="#DF6C21" transform="translate(32,32)"/>
<path d="M0 0 C4.91694235 7.37541353 6.61320532 16.25844026 7 25 C6.34 25.33 5.68 25.66 5 26 C3.79727181 23.59454362 3.89928528 22.05003047 3.9375 19.375 C3.94652344 18.55773437 3.95554688 17.74046875 3.96484375 16.8984375 C3.97644531 16.27195312 3.98804688 15.64546875 4 15 C3.34 15 2.68 15 2 15 C1.66223316 13.2508503 1.32996329 11.50063855 1 9.75 C0.814375 8.77546875 0.62875 7.8009375 0.4375 6.796875 C0 4 0 4 0 0 Z " fill="#C1673B" transform="translate(189,65)"/>
<path d="M0 0 C0.66 0 1.32 0 2 0 C1.35729017 5.9129304 -0.19003784 11.34244531 -2 17 C-2.66 17 -3.32 17 -4 17 C-4 17.99 -4 18.98 -4 20 C-4.66 20 -5.32 20 -6 20 C-2.28571429 2.28571429 -2.28571429 2.28571429 0 0 Z " fill="#C5510A" transform="translate(178,121)"/>
<path d="M0 0 C0.33 0 0.66 0 1 0 C1.29245968 9.26122332 1.26817871 18.22961132 -0.375 27.375 C-0.50108643 28.08132568 -0.62717285 28.78765137 -0.75708008 29.51538086 C-1.45318024 33.08707384 -2.35069012 35.70138025 -4 39 C-3.67 34.05 -3.34 29.1 -3 24 C-2.34 24 -1.68 24 -1 24 C-0.67 16.08 -0.34 8.16 0 0 Z " fill="#C17C54" transform="translate(196,93)"/>
<path d="M0 0 C0.45375 0.474375 0.9075 0.94875 1.375 1.4375 C2.93258204 3.09027808 2.93258204 3.09027808 5 4 C6.77603255 10.23804027 7.24339399 16.55005923 7 23 C5.11689112 19.47137074 3.74530052 15.81680289 2.375 12.0625 C1.92898437 10.85722656 1.48296875 9.65195313 1.0234375 8.41015625 C0.10662932 5.35529539 -0.22713778 3.15004242 0 0 Z " fill="#CE5712" transform="translate(184,59)"/>
<path d="M0 0 C4.95155263 -0.60592613 8.23343097 1.51307017 12.3125 4 C12.95767578 4.3815625 13.60285156 4.763125 14.26757812 5.15625 C15.85083481 6.09447618 17.42623205 7.04594311 19 8 C19 8.66 19 9.32 19 10 C14.51262272 9.57930838 11.6005905 7.61544044 7.93359375 5.203125 C5.721054 3.8264336 3.4184203 2.95271103 1 2 C0.67 1.34 0.34 0.68 0 0 Z " fill="#CE570E" transform="translate(137,29)"/>
<path d="M0 0 C0.391875 0.45375 0.78375 0.9075 1.1875 1.375 C4.13206477 4.01495462 6.88071878 4.95025417 10.8125 5.125 C11.8953125 5.063125 11.8953125 5.063125 13 5 C12.01 5.495 12.01 5.495 11 6 C10.67 6.99 10.34 7.98 10 9 C7.9375 9.6875 7.9375 9.6875 6 10 C6 9.34 6 8.68 6 8 C5.21625 8.04125 4.4325 8.0825 3.625 8.125 C1 8 1 8 -1 6 C-0.625 2.875 -0.625 2.875 0 0 Z " fill="#915537" transform="translate(72,96)"/>
<path d="M0 0 C0.99 0.33 1.98 0.66 3 1 C3.34342449 2.33076989 3.67619874 3.66431979 4 5 C4.99 5.66 5.98 6.32 7 7 C6.67 7.66 6.34 8.32 6 9 C5.21496094 8.66226563 4.42992187 8.32453125 3.62109375 7.9765625 C-1.8651887 5.64741682 -7.21387072 3.44653232 -13 2 C-13 1.67 -13 1.34 -13 1 C-11.39620659 0.94583812 -9.79188594 0.90713362 -8.1875 0.875 C-7.29417969 0.85179688 -6.40085937 0.82859375 -5.48046875 0.8046875 C-3 1 -3 1 0 3 C0 2.01 0 1.02 0 0 Z " fill="#B6561C" transform="translate(127,30)"/>
<path d="M0 0 C2.31 0.66 4.62 1.32 7 2 C7 2.66 7 3.32 7 4 C8.65 3.67 10.3 3.34 12 3 C12 4.32 12 5.64 12 7 C13.32 6.67 14.64 6.34 16 6 C16.99 7.32 17.98 8.64 19 10 C16 11 16 11 13.22265625 9.70703125 C12.17980469 9.08183594 11.13695312 8.45664063 10.0625 7.8125 C9.02222656 7.20019531 7.98195313 6.58789062 6.91015625 5.95703125 C4.249193 4.16757811 2.16399179 2.35171156 0 0 Z " fill="#BD6235" transform="translate(40,178)"/>
<path d="M0 0 C0.66 0 1.32 0 2 0 C3.40234375 2.08203125 3.40234375 2.08203125 4.9375 4.8125 C6.7314382 7.99203753 8.4243551 10.43973209 11 13 C11 13.66 11 14.32 11 15 C8.70703125 14.8359375 8.70703125 14.8359375 6 14 C4.19921875 11.6015625 4.19921875 11.6015625 2.6875 8.625 C1.91986328 7.15933594 1.91986328 7.15933594 1.13671875 5.6640625 C0 3 0 3 0 0 Z " fill="#CE590D" transform="translate(23,139)"/>
<path d="M0 0 C0.33 0 0.66 0 1 0 C0.55177525 4.70635989 0.01954794 9.35580527 -0.875 14 C-1.01679688 14.7425 -1.15859375 15.485 -1.3046875 16.25 C-1.53414062 16.8275 -1.76359375 17.405 -2 18 C-2.99 18.33 -3.98 18.66 -5 19 C-4.5464821 11.97047248 -2.87940913 6.4150557 0 0 Z " fill="#CD5511" transform="translate(22,64)"/>
<path d="M0 0 C0.33 0 0.66 0 1 0 C1.0825 1.2375 1.165 2.475 1.25 3.75 C1.63475459 6.98882964 1.90024003 7.87907883 4.0625 10.5 C4.701875 10.995 5.34125 11.49 6 12 C5.01 12.33 4.02 12.66 3 13 C-0.1875 11.0625 -0.1875 11.0625 -3 9 C-3.99 9.495 -3.99 9.495 -5 10 C-6 7 -6 7 -5.0625 4.8125 C-4.711875 4.214375 -4.36125 3.61625 -4 3 C-3.34 3 -2.68 3 -2 3 C-2 3.99 -2 4.98 -2 6 C-1.34 6 -0.68 6 0 6 C0 4.02 0 2.04 0 0 Z " fill="#A37661" transform="translate(76,89)"/>
<path d="M0 0 C4.18651997 2.18427129 7.4292666 5.3022226 10.875 8.5 C9.885 8.83 8.895 9.16 7.875 9.5 C7.215 9.17 6.555 8.84 5.875 8.5 C5.875 7.84 5.875 7.18 5.875 6.5 C5.23691406 6.31824219 4.59882812 6.13648438 3.94140625 5.94921875 C3.11511719 5.69785156 2.28882812 5.44648437 1.4375 5.1875 C0.61378906 4.94386719 -0.20992188 4.70023438 -1.05859375 4.44921875 C-1.74050781 4.13597656 -2.42242187 3.82273437 -3.125 3.5 C-3.455 2.51 -3.785 1.52 -4.125 0.5 C-2.125 -0.5 -2.125 -0.5 0 0 Z " fill="#C7A27B" transform="translate(116.125,50.5)"/>
<path d="M0 0 C0.99 0.33 1.98 0.66 3 1 C4.7812961 4.64741582 5.15369786 6.4071654 4.125 10.375 C3.75375 11.24125 3.3825 12.1075 3 13 C2.01 12.67 1.02 12.34 0 12 C0.33 10.68 0.66 9.36 1 8 C0.34 7.67 -0.32 7.34 -1 7 C-0.67 4.69 -0.34 2.38 0 0 Z " fill="#764631" transform="translate(145,138)"/>
<path d="M0 0 C4.97093824 0.41153737 9.44508386 0.79600832 14 3 C14 3.99 14 4.98 14 6 C13.01 5.67 12.02 5.34 11 5 C8.94106379 4.77674186 6.87766347 4.59294241 4.8125 4.4375 C3.72582031 4.35371094 2.63914062 4.26992188 1.51953125 4.18359375 C0.68808594 4.12300781 -0.14335938 4.06242187 -1 4 C-0.01 3.34 0.98 2.68 2 2 C1.34 1.34 0.68 0.68 0 0 Z " fill="#BC4E0E" transform="translate(113,27)"/>
<path d="M0 0 C2 1 2 1 3.25 3.875 C3.4975 4.90625 3.745 5.9375 4 7 C2 10 2 10 -1 12 C-1.99 11.01 -2.98 10.02 -4 9 C-3.34 7.02 -2.68 5.04 -2 3 C-1.34 3.33 -0.68 3.66 0 4 C0 2.68 0 1.36 0 0 Z " fill="#955F47" transform="translate(122,88)"/>
<path d="M0 0 C0.66 0.99 1.32 1.98 2 3 C0.35 4.98 -1.3 6.96 -3 9 C-3 6 -3 6 -2 4 C-3.65 4 -5.3 4 -7 4 C-7.226875 4.598125 -7.45375 5.19625 -7.6875 5.8125 C-9.33811133 8.56351888 -11.1972081 9.52484637 -14 11 C-14 9.68 -14 8.36 -14 7 C-13.21625 6.731875 -12.4325 6.46375 -11.625 6.1875 C-8.71885077 5.15185568 -8.71885077 5.15185568 -7 2 C-3.375 0.8125 -3.375 0.8125 0 0 Z " fill="#D07431" transform="translate(46,37)"/>
<path d="M0 0 C4.98012761 1.50912958 8.24259942 4.55661849 12 8 C11.34 8.66 10.68 9.32 10 10 C2.19748654 5.87791741 2.19748654 5.87791741 0 2 C0 1.34 0 0.68 0 0 Z " fill="#C1622D" transform="translate(152,21)"/>
<path d="M0 0 C0.33 0 0.66 0 1 0 C0.67 2.64 0.34 5.28 0 8 C-0.66 8 -1.32 8 -2 8 C-2 11.3 -2 14.6 -2 18 C-1.01 18.33 -0.02 18.66 1 19 C1 20.65 1 22.3 1 24 C-3.61802347 19.0893493 -3.5239416 15.61215958 -3.33984375 9.1171875 C-2.92789033 5.33858031 -2.12936957 3.10533062 0 0 Z " fill="#C68555" transform="translate(27,55)"/>
<path d="M0 0 C-0.28875 0.53625 -0.5775 1.0725 -0.875 1.625 C-2.11346577 4.08024809 -2.11346577 4.08024809 -2.9375 7.1875 C-3.288125 8.115625 -3.63875 9.04375 -4 10 C-4.99 10.33 -5.98 10.66 -7 11 C-7.875 8.875 -7.875 8.875 -8 6 C-5.98960691 3.2037855 -3.61259363 0 0 0 Z " fill="#D35E10" transform="translate(159,163)"/>
<path d="M0 0 C0.99 0.33 1.98 0.66 3 1 C1.37660195 2.70884005 -0.29319053 4.37446717 -2 6 C-2.66 6 -3.32 6 -4 6 C-4 6.66 -4 7.32 -4 8 C-7 10 -7 10 -10 10 C-10 9.34 -10 8.68 -10 8 C-9.34 8 -8.68 8 -8 8 C-8 7.34 -8 6.68 -8 6 C-6.35546875 4.45703125 -6.35546875 4.45703125 -4.1875 2.8125 C-3.47980469 2.26207031 -2.77210937 1.71164063 -2.04296875 1.14453125 C-1.36878906 0.76683594 -0.69460937 0.38914062 0 0 Z " fill="#CC550C" transform="translate(52,29)"/>
<path d="M0 0 C0.99 0.66 1.98 1.32 3 2 C2.67 3.65 2.34 5.3 2 7 C-0.64 7 -3.28 7 -6 7 C-6.33 6.34 -6.66 5.68 -7 5 C-6.21625 4.731875 -5.4325 4.46375 -4.625 4.1875 C-1.71885077 3.15185568 -1.71885077 3.15185568 0 0 Z " fill="#C16D58" transform="translate(143,94)"/>
<path d="M0 0 C1.79639296 1.09646058 3.58697154 2.20245148 5.375 3.3125 C6.37273438 3.92738281 7.37046875 4.54226562 8.3984375 5.17578125 C11 7 11 7 13 10 C11.68 10 10.36 10 9 10 C8.67 9.34 8.34 8.68 8 8 C7.030625 7.690625 6.06125 7.38125 5.0625 7.0625 C2 6 2 6 0 3 C0 2.01 0 1.02 0 0 Z " fill="#CA5311" transform="translate(38,172)"/>
<path d="M0 0 C5.02478761 2.37281637 6.72324217 5.0962139 9 10 C8.67 10.99 8.34 11.98 8 13 C6.65472507 11.59466816 5.3241269 10.17527548 4 8.75 C3.2575 7.96109375 2.515 7.1721875 1.75 6.359375 C0 4 0 4 0 0 Z " fill="#C85111" transform="translate(170,38)"/>
<path d="M0 0 C1.60379341 -0.05416188 3.20811406 -0.09286638 4.8125 -0.125 C5.70582031 -0.14820313 6.59914063 -0.17140625 7.51953125 -0.1953125 C10 0 10 0 13 2 C12.01 3.485 12.01 3.485 11 5 C10.01 5 9.02 5 8 5 C8 4.34 8 3.68 8 3 C7.05125 3.061875 6.1025 3.12375 5.125 3.1875 C4.09375 3.125625 3.0625 3.06375 2 3 C1.34 2.01 0.68 1.02 0 0 Z " fill="#DB6A19" transform="translate(106,9)"/>
<path d="M0 0 C1.32 0.33 2.64 0.66 4 1 C2.35 4.3 0.7 7.6 -1 11 C-1.33 11 -1.66 11 -2 11 C-1.95875 10.21625 -1.9175 9.4325 -1.875 8.625 C-1.71271266 5.83883881 -1.71271266 5.83883881 -4 4 C-2.25 1.9375 -2.25 1.9375 0 0 Z " fill="#D49664" transform="translate(41,40)"/>
<path d="M0 0 C-0.66 0 -1.32 0 -2 0 C-2 3.3 -2 6.6 -2 10 C-2.66 9.01 -3.32 8.02 -4 7 C-4.99 7.495 -4.99 7.495 -6 8 C-6 5.36 -6 2.72 -6 0 C-3 -1 -3 -1 0 0 Z " fill="#DD6919" transform="translate(13,100)"/>
<path d="M0 0 C4.56756196 0.8783773 6.52067674 1.385483 9.4375 5.125 C10.2109375 6.548125 10.2109375 6.548125 11 8 C10.67 8.66 10.34 9.32 10 10 C8.33037631 8.52417192 6.6643694 7.04425109 5 5.5625 C4.071875 4.73878906 3.14375 3.91507813 2.1875 3.06640625 C1.465625 2.38449219 0.74375 1.70257813 0 1 C0 0.67 0 0.34 0 0 Z " fill="#B96138" transform="translate(29,168)"/>
<path d="M0 0 C1.65 0.33 3.3 0.66 5 1 C4.67 3.64 4.34 6.28 4 9 C3.34 9 2.68 9 2 9 C2 8.01 2 7.02 2 6 C1.34 6 0.68 6 0 6 C-1 3 -1 3 0 0 Z " fill="#89533A" transform="translate(72,86)"/>
<path d="M0 0 C1.32 0 2.64 0 4 0 C4 0.66 4 1.32 4 2 C3.34 2 2.68 2 2 2 C2 2.66 2 3.32 2 4 C-3.625 7 -3.625 7 -7 7 C-8.32 6.34 -9.64 5.68 -11 5 C-7.37 4.01 -3.74 3.02 0 2 C0 1.34 0 0.68 0 0 Z " fill="#BD8F65" transform="translate(121,62)"/>
<path d="M0 0 C3.3 0 6.6 0 10 0 C10 0.66 10 1.32 10 2 C10.94875 2.12375 11.8975 2.2475 12.875 2.375 C16 3 16 3 18 5 C5.33029613 3.07289294 5.33029613 3.07289294 0 1 C0 0.67 0 0.34 0 0 Z " fill="#C44D0C" transform="translate(116,9)"/>
<path d="M0 0 C0.33 1.32 0.66 2.64 1 4 C-2.3 3.67 -5.6 3.34 -9 3 C-8.67 2.01 -8.34 1.02 -8 0 C-5.04215769 -1.22393475 -3.00272755 -0.96516243 0 0 Z " fill="#572B15" transform="translate(119,78)"/>
<path d="M0 0 C0.99 0.33 1.98 0.66 3 1 C3 2.32 3 3.64 3 5 C3.66 5 4.32 5 5 5 C7.24828052 9.49656104 7.16682272 13.07872966 7 18 C6.67 18 6.34 18 6 18 C5.62875 16.6078125 5.62875 16.6078125 5.25 15.1875 C3.78472663 10.02718944 1.87144906 5.02384141 0 0 Z " fill="#D07834" transform="translate(167,50)"/>
<path d="M0 0 C0.99 0.33 1.98 0.66 3 1 C1.71937515 2.7074998 0.38232443 4.37373596 -1 6 C-1.66 6 -2.32 6 -3 6 C-3.4021875 7.1446875 -3.4021875 7.1446875 -3.8125 8.3125 C-4.94424112 10.87380884 -5.91223401 12.19692938 -8 14 C-7.34048737 10.76171886 -6.16784772 8.19450407 -4.5625 5.3125 C-4.13066406 4.52488281 -3.69882812 3.73726562 -3.25390625 2.92578125 C-2 1 -2 1 0 0 Z " fill="#C3520D" transform="translate(29,37)"/>
<path d="M0 0 C-0.99 0.33 -1.98 0.66 -3 1 C-3 1.66 -3 2.32 -3 3 C-5.3125 5.1875 -5.3125 5.1875 -8 7 C-8.99 6.67 -9.98 6.34 -11 6 C-9.89210592 2.67631776 -9.51563783 2.38436907 -6.625 0.75 C-6.01914062 0.39421875 -5.41328125 0.0384375 -4.7890625 -0.328125 C-3 -1 -3 -1 0 0 Z " fill="#B8521A" transform="translate(44,27)"/>
<path d="M0 0 C-0.33 0.33 -0.66 0.66 -1 1 C-0.34 1.66 0.32 2.32 1 3 C1 3.99 1 4.98 1 6 C-0.98 6 -2.96 6 -5 6 C-5 5.01 -5 4.02 -5 3 C-4.34 2.67 -3.68 2.34 -3 2 C-3.99 1.34 -4.98 0.68 -6 0 C-3.50907189 -1.24546405 -2.58919267 -0.7767578 0 0 Z " fill="#C24B0E" transform="translate(142,183)"/>
<path d="M0 0 C2.96783129 1.45668783 5.86415313 3.01232086 8.75 4.625 C9.94882813 5.29402344 9.94882813 5.29402344 11.171875 5.9765625 C11.77515625 6.31429687 12.3784375 6.65203125 13 7 C11.02 7.99 11.02 7.99 9 9 C7.82780457 8.21654285 6.66236332 7.42297164 5.5 6.625 C4.8503125 6.18414062 4.200625 5.74328125 3.53125 5.2890625 C3.0259375 4.86367187 2.520625 4.43828125 2 4 C2 3.34 2 2.68 2 2 C1.34 2 0.68 2 0 2 C0 1.34 0 0.68 0 0 Z " fill="#BA571F" transform="translate(55,157)"/>
<path d="M0 0 C0.99 0.33 1.98 0.66 3 1 C2.21516341 2.48280196 1.42190666 3.9611498 0.625 5.4375 C0.18414062 6.26121094 -0.25671875 7.08492187 -0.7109375 7.93359375 C-2 10 -2 10 -4 11 C-4 9.68 -4 8.36 -4 7 C-3.34 7 -2.68 7 -2 7 C-2.33 5.35 -2.66 3.7 -3 2 C-2.01 2 -1.02 2 0 2 C0 1.34 0 0.68 0 0 Z " fill="#BE6030" transform="translate(181,150)"/>
<path d="M0 0 C0.33 0.66 0.66 1.32 1 2 C1.66 2 2.32 2 3 2 C4.65 5.3 6.3 8.6 8 12 C7.34 12 6.68 12 6 12 C4.66666667 10 3.33333333 8 2 6 C0.68441297 4.97676564 -0.64377755 3.96873032 -2 3 C-2 2.34 -2 1.68 -2 1 C-1.34 0.67 -0.68 0.34 0 0 Z " fill="#CB6822" transform="translate(150,40)"/>
<path d="M0 0 C0.99 0.66 1.98 1.32 3 2 C2.67 2.66 2.34 3.32 2 4 C2 5.32 2 6.64 2 8 C0.68 8 -0.64 8 -2 8 C-2 5.69 -2 3.38 -2 1 C-1.34 0.67 -0.68 0.34 0 0 Z " fill="#683C2C" transform="translate(136,151)"/>
<path d="M0 0 C0.12375 0.598125 0.2475 1.19625 0.375 1.8125 C0.95475985 4.26231348 0.95475985 4.26231348 3 7 C3 7.99 3 8.98 3 10 C1.68 9.34 0.36 8.68 -1 8 C-1 7.01 -1 6.02 -1 5 C-1.99 4.67 -2.98 4.34 -4 4 C-2.68 2.68 -1.36 1.36 0 0 Z " fill="#6A3D29" transform="translate(54,145)"/>
<path d="M0 0 C2.72727273 4.09090909 2.72727273 4.09090909 3 7 C1.5625 8.75 1.5625 8.75 0 10 C-0.99 7.69 -1.98 5.38 -3 3 C-2.01 2.01 -1.02 1.02 0 0 Z " fill="#E57425" transform="translate(186,69)"/>
<path d="M0 0 C0.66 0.33 1.32 0.66 2 1 C1.01 2.485 1.01 2.485 0 4 C1.2375 5.175625 1.2375 5.175625 2.5 6.375 C5 9 5 9 5 11 C2.10144578 9.70064811 0.14336722 8.33821878 -2 6 C-2.66 5.34 -3.32 4.68 -4 4 C-2.68 2.68 -1.36 1.36 0 0 Z " fill="#BA8C61" transform="translate(71,58)"/>
<path d="M0 0 C1.41750563 0.11509661 2.83401169 0.24253658 4.25 0.375 C5.03890625 0.44460938 5.8278125 0.51421875 6.640625 0.5859375 C9.085877 1.01507113 10.84836903 1.78600638 13 3 C12.67 3.66 12.34 4.32 12 5 C6.06 3.515 6.06 3.515 0 2 C0 1.34 0 0.68 0 0 Z " fill="#CF5A10" transform="translate(114,14)"/>
<path d="M0 0 C1.43793392 0.31049726 2.8753318 0.6234776 4.3125 0.9375 C5.11300781 1.11152344 5.91351563 1.28554687 6.73828125 1.46484375 C9 2 9 2 12 3 C12 3.66 12 4.32 12 5 C9.69 5 7.38 5 5 5 C5 4.34 5 3.68 5 3 C2.525 2.01 2.525 2.01 0 1 C0 0.67 0 0.34 0 0 Z " fill="#B2521E" transform="translate(68,165)"/>
<path d="M0 0 C0.66 0.66 1.32 1.32 2 2 C1.34 2 0.68 2 0 2 C0.020625 3.11375 0.04125 4.2275 0.0625 5.375 C0 9 0 9 -1 11 C-1.66 11 -2.32 11 -3 11 C-3.36923077 4.6 -3.36923077 4.6 -1.5 1.5625 C-1.005 1.046875 -0.51 0.53125 0 0 Z " fill="#B75012" transform="translate(41,53)"/>
<path d="M0 0 C0.99 0.33 1.98 0.66 3 1 C2.071875 2.3303125 2.071875 2.3303125 1.125 3.6875 C-0.65397741 6.46061184 -1.91083602 8.9140354 -3 12 C-4.27099045 8.18702864 -3.45398157 6.6732166 -2 3 C-1.34 2.01 -0.68 1.02 0 0 Z " fill="#CE7330" transform="translate(28,49)"/>
<path d="M0 0 C0.721875 0.144375 1.44375 0.28875 2.1875 0.4375 C3.5796875 0.7159375 3.5796875 0.7159375 5 1 C6.66666667 1.33333333 8.33333333 1.66666667 10 2 C10 2.66 10 3.32 10 4 C11.65 4.33 13.3 4.66 15 5 C11.26221645 6.24592785 10.0089867 5.54425229 6.375 4.1875 C4.90160156 3.65189453 4.90160156 3.65189453 3.3984375 3.10546875 C1 2 1 2 0 0 Z " fill="#914924" transform="translate(65,162)"/>
<path d="M0 0 C1.98 1.65 3.96 3.3 6 5 C5.34 5.66 4.68 6.32 4 7 C3.01 6.67 2.02 6.34 1 6 C0.67 7.32 0.34 8.64 0 10 C0 6.7 0 3.4 0 0 Z " fill="#E8D5BA" transform="translate(125,95)"/>
<path d="M0 0 C0.66 0 1.32 0 2 0 C2.33 1.32 2.66 2.64 3 4 C3.66 4 4.32 4 5 4 C5 4.66 5 5.32 5 6 C3.46875 7.2890625 3.46875 7.2890625 1.5 8.625 C0.8503125 9.07101563 0.200625 9.51703125 -0.46875 9.9765625 C-0.9740625 10.31429687 -1.479375 10.65203125 -2 11 C-2.66 10.34 -3.32 9.68 -4 9 C-2.68 8.34 -1.36 7.68 0 7 C0 4.69 0 2.38 0 0 Z " fill="#A9745B" transform="translate(87,90)"/>
<path d="M0 0 C1.65 0.33 3.3 0.66 5 1 C3.1875 3 3.1875 3 1 5 C0.01 5 -0.98 5 -2 5 C-2.33 5.99 -2.66 6.98 -3 8 C-2.45276317 4.62537285 -1.9451 2.91765 0 0 Z " fill="#9B8578" transform="translate(82,88)"/>
<path d="M0 0 C2.64 0 5.28 0 8 0 C8 0.66 8 1.32 8 2 C7.16855469 2.30744141 7.16855469 2.30744141 6.3203125 2.62109375 C5.59585938 2.89050781 4.87140625 3.15992187 4.125 3.4375 C3.04605469 3.83775391 3.04605469 3.83775391 1.9453125 4.24609375 C-0.03648845 4.97916854 -0.03648845 4.97916854 -2 6 C-1.34 4.02 -0.68 2.04 0 0 Z " fill="#592D18" transform="translate(78,78)"/>
<path d="M0 0 C0.45375 0.474375 0.9075 0.94875 1.375 1.4375 C2.93258204 3.09027808 2.93258204 3.09027808 5 4 C5 5.98 5 7.96 5 10 C3.0625 9.5 3.0625 9.5 1 8 C0.31209578 5.30341548 0.18053536 2.7982981 0 0 Z " fill="#BC5118" transform="translate(184,59)"/>
<path d="M0 0 C0.99 0 1.98 0 3 0 C3.66 1.98 4.32 3.96 5 6 C4.34 6.66 3.68 7.32 3 8 C1.66666667 6.66666667 0.33333333 5.33333333 -1 4 C-0.625 1.875 -0.625 1.875 0 0 Z " fill="#BF5C28" transform="translate(183,56)"/>
<path d="M0 0 C2.15234375 0.93359375 2.15234375 0.93359375 4 2 C-5.41002278 6.22323462 -5.41002278 6.22323462 -10 8 C-6.93325757 4.75801514 -4.1309195 1.80065722 0 0 Z " fill="#C9A880" transform="translate(81,50)"/>
<path d="M0 0 C0.66 0 1.32 0 2 0 C1.34 2.64 0.68 5.28 0 8 C-3 7 -3 7 -4.1875 4.9375 C-4.5896875 3.9784375 -4.5896875 3.9784375 -5 3 C-3.35 2.67 -1.7 2.34 0 2 C0 1.34 0 0.68 0 0 Z " fill="#F7E7C1" transform="translate(49,142)"/>
<path d="M0 0 C0.99 0.33 1.98 0.66 3 1 C0.69 3.64 -1.62 6.28 -4 9 C-4.66 7.68 -5.32 6.36 -6 5 C-5.195625 4.54625 -4.39125 4.0925 -3.5625 3.625 C-0.91143428 2.25274335 -0.91143428 2.25274335 0 0 Z " fill="#F9E9B8" transform="translate(156,139)"/>
<path d="M0 0 C0.66 1.32 1.32 2.64 2 4 C1.54625 4.433125 1.0925 4.86625 0.625 5.3125 C-1.20024334 7.10798342 -1.20024334 7.10798342 -3 10 C-3.75 8.375 -3.75 8.375 -4 6 C-2.0625 2.75 -2.0625 2.75 0 0 Z " fill="#694027" transform="translate(57,132)"/>
<path d="M0 0 C0.33 0 0.66 0 1 0 C1 4.62 1 9.24 1 14 C-0.97179598 11.04230603 -1.36929854 9.83582038 -1.75 6.4375 C-1.84796875 5.65246094 -1.9459375 4.86742188 -2.046875 4.05859375 C-2 2 -2 2 0 0 Z " fill="#C1703E" transform="translate(6,115)"/>
<path d="M0 0 C0.66 1.32 1.32 2.64 2 4 C-1 6 -1 6 -4.1875 5.625 C-5.115625 5.41875 -6.04375 5.2125 -7 5 C-4.702779 3.25728062 -2.40133271 1.60088848 0 0 Z " fill="#683523" transform="translate(65,97)"/>
<path d="M0 0 C2.64 0.66 5.28 1.32 8 2 C6.35 3.32 4.7 4.64 3 6 C2.01 5.34 1.02 4.68 0 4 C0 2.68 0 1.36 0 0 Z " fill="#74452E" transform="translate(126,82)"/>
<path d="M0 0 C-0.33 0.66 -0.66 1.32 -1 2 C-1 2.99 -1 3.98 -1 5 C-6.75 4.25 -6.75 4.25 -9 2 C-5.86501708 0.14223235 -3.62528568 -0.20140476 0 0 Z " fill="#84533C" transform="translate(87,80)"/>
<path d="M0 0 C-2.86299506 2.86299506 -4.65852284 2.99421225 -8.6875 3.0625 C-9.780625 3.041875 -10.87375 3.02125 -12 3 C-8.61613364 -0.38386636 -4.56431325 -1.75550509 0 0 Z " fill="#F8E3B6" transform="translate(84,33)"/>
<path d="M0 0 C1.29409592 0.45142881 2.58521059 0.91141021 3.875 1.375 C4.95394531 1.75785156 4.95394531 1.75785156 6.0546875 2.1484375 C8 3 8 3 10 5 C1.42857143 4.14285714 1.42857143 4.14285714 -2 2 C-1.34 2 -0.68 2 0 2 C0 1.34 0 0.68 0 0 Z " fill="#BF6332" transform="translate(75,193)"/>
<path d="M0 0 C3.16115776 1.36983503 3.9927092 1.9890638 6 5 C6 6.32 6 7.64 6 9 C5.34 9 4.68 9 4 9 C0 2.25 0 2.25 0 0 Z " fill="#65452F" transform="translate(144,89)"/>
<path d="M0 0 C0.66 0 1.32 0 2 0 C2.33 3.3 2.66 6.6 3 10 C2.01 10.495 2.01 10.495 1 11 C-0.20272819 8.59454362 -0.10071472 7.05003047 -0.0625 4.375 C-0.05347656 3.55773437 -0.04445312 2.74046875 -0.03515625 1.8984375 C-0.02355469 1.27195312 -0.01195312 0.64546875 0 0 Z " fill="#B95F35" transform="translate(193,80)"/>
<path d="M0 0 C0.33 0.66 0.66 1.32 1 2 C-0.11375 2.474375 -1.2275 2.94875 -2.375 3.4375 C-4.26710994 4.25306463 -6.15712709 5.07856355 -8 6 C-8.5625 4.0625 -8.5625 4.0625 -9 2 C-6.95301586 -0.04698414 -2.69588759 0.29954307 0 0 Z " fill="#C4A57D" transform="translate(152,70)"/>
<path d="M0 0 C3.3 0 6.6 0 10 0 C10.66 1.32 11.32 2.64 12 4 C6.06 2.515 6.06 2.515 0 1 C0 0.67 0 0.34 0 0 Z " fill="#B05B26" transform="translate(114,31)"/>
<path d="M0 0 C9.59453303 1.74259681 9.59453303 1.74259681 13 5 C8.428721 4.45144652 4.32564205 3.58255197 0 2 C0 1.34 0 0.68 0 0 Z " fill="#C17345" transform="translate(126,9)"/>
<path d="M0 0 C0.66 0.33 1.32 0.66 2 1 C0.35 2.65 -1.3 4.3 -3 6 C-4.32 5.34 -5.64 4.68 -7 4 C-1.7265625 0.77734375 -1.7265625 0.77734375 0 0 Z " fill="#B5470F" transform="translate(142,159)"/>
<path d="M0 0 C2.4375 0.375 2.4375 0.375 5 1 C5.33 1.66 5.66 2.32 6 3 C5.01 3.495 5.01 3.495 4 4 C4 4.66 4 5.32 4 6 C4.66 6 5.32 6 6 6 C5.67 6.99 5.34 7.98 5 9 C0.57142857 3.85714286 0.57142857 3.85714286 0 0 Z " fill="#DA9563" transform="translate(152,40)"/>
<path d="M0 0 C-4.95 2.97 -4.95 2.97 -10 6 C-10.33 4.68 -10.66 3.36 -11 2 C-10.01 2.33 -9.02 2.66 -8 3 C-8 2.34 -8 1.68 -8 1 C-4.59449725 -1.06762667 -4.18836538 -1.04709135 0 0 Z " fill="#AE5C22" transform="translate(66,39)"/>
<path d="M0 0 C2.97 0 5.94 0 9 0 C9.66 1.98 10.32 3.96 11 6 C7.66666667 4.33333333 4.33333333 2.66666667 1 1 C0.67 1.66 0.34 2.32 0 3 C0 2.01 0 1.02 0 0 Z " fill="#D2732E" transform="translate(151,39)"/>
<path d="M0 0 C0.4125 0.45375 0.825 0.9075 1.25 1.375 C3.06408095 3.05950374 4.75285627 3.99265971 7 5 C3.59068103 6.13643966 2.99664544 5.86747764 -0.1875 4.5625 C-0.90292969 4.27503906 -1.61835937 3.98757812 -2.35546875 3.69140625 C-2.89816406 3.46324219 -3.44085938 3.23507813 -4 3 C-2.68 2.01 -1.36 1.02 0 0 Z " fill="#BE6534" transform="translate(66,189)"/>
<path d="M0 0 C2 0 2 0 3.625 1.375 C5 3 5 3 5 5 C2.36 5 -0.28 5 -3 5 C-2.34 4.67 -1.68 4.34 -1 4 C-0.34786708 1.97536745 -0.34786708 1.97536745 0 0 Z " fill="#A26545" transform="translate(111,101)"/>
<path d="M0 0 C0.33 0 0.66 0 1 0 C1.1875 2.875 1.1875 2.875 1 6 C0.01 6.66 -0.98 7.32 -2 8 C-3 7 -3 7 -3.0625 4.4375 C-3.041875 3.633125 -3.02125 2.82875 -3 2 C-2.01 2 -1.02 2 0 2 C0 1.34 0 0.68 0 0 Z " fill="#6C4537" transform="translate(83,91)"/>
<path d="M0 0 C0.33 0.99 0.66 1.98 1 3 C1.66 3 2.32 3 3 3 C3.33 3.99 3.66 4.98 4 6 C4.66 6.66 5.32 7.32 6 8 C4.33388095 8.042721 2.66617115 8.04063832 1 8 C0 7 0 7 -0.0625 3.4375 C-0.041875 2.303125 -0.02125 1.16875 0 0 Z " fill="#573123" transform="translate(108,115)"/>
<path d="M0 0 C0.33 0 0.66 0 1 0 C1.17942163 3.94727588 1.09350689 6.5980513 -1 10 C-2.42944945 7.64561267 -3.08661261 6.51967567 -2.625 3.75 C-2.41875 3.1725 -2.2125 2.595 -2 2 C-1.34 2 -0.68 2 0 2 C0 1.34 0 0.68 0 0 Z " fill="#885134" transform="translate(123,83)"/>
<path d="M0 0 C0 2.31 0 4.62 0 7 C-1.7074998 5.71937515 -3.37373596 4.38232443 -5 3 C-5 2.34 -5 1.68 -5 1 C-2 0 -2 0 0 0 Z " fill="#B25D2B" transform="translate(159,53)"/>
<path d="M0 0 C0.91007812 0.00902344 1.82015625 0.01804688 2.7578125 0.02734375 C3.45648438 0.03894531 4.15515625 0.05054688 4.875 0.0625 C4.875 0.3925 4.875 0.7225 4.875 1.0625 C4.17632812 1.18367188 3.47765625 1.30484375 2.7578125 1.4296875 C1.39269531 1.68105469 1.39269531 1.68105469 0 1.9375 C-0.90492187 2.09992187 -1.80984375 2.26234375 -2.7421875 2.4296875 C-5.29005988 2.89294703 -5.29005988 2.89294703 -7.125 5.0625 C-7.125 3.7425 -7.125 2.4225 -7.125 1.0625 C-4.60024538 -0.19987731 -2.81299534 -0.03606404 0 0 Z " fill="#BA9A6F" transform="translate(109.125,49.9375)"/>
<path d="M0 0 C0.33 0.66 0.66 1.32 1 2 C0.00390625 3.9453125 0.00390625 3.9453125 -1.4375 6.125 C-1.91058594 6.84945312 -2.38367188 7.57390625 -2.87109375 8.3203125 C-3.24363281 8.87460937 -3.61617187 9.42890625 -4 10 C-4.66 9.67 -5.32 9.34 -6 9 C-4.47291037 5.56404834 -2.40072955 2.88087546 0 0 Z " fill="#C26E3D" transform="translate(25,40)"/>
<path d="M0 0 C0.99 0.99 1.98 1.98 3 3 C0.4345406 5.5654594 -1.47686668 5.54046087 -5 6 C-3.35 4.02 -1.7 2.04 0 0 Z " fill="#C06B38" transform="translate(32,32)"/>
<path d="M0 0 C0.99 0.33 1.98 0.66 3 1 C2.82374165 3.37948772 2.30280227 4.70225849 0.59765625 6.37890625 C-0.90649092 7.62115486 -2.45129851 8.81376056 -4 10 C-3.71125 9.46375 -3.4225 8.9275 -3.125 8.375 C-1.83288192 5.64719516 -0.91441408 2.87387282 0 0 Z " fill="#B05C30" transform="translate(150,146)"/>
<path d="M0 0 C0.66 0 1.32 0 2 0 C1.54965877 1.62723299 1.08944646 3.25173664 0.625 4.875 C0.36976563 5.77992188 0.11453125 6.68484375 -0.1484375 7.6171875 C-1 10 -1 10 -3 12 C-3.43200679 7.24792529 -1.98489083 4.21789302 0 0 Z " fill="#B56540" transform="translate(190,132)"/>
<path d="M0 0 C0.66 0.99 1.32 1.98 2 3 C1.125 5.6875 1.125 5.6875 0 8 C-0.99 7.34 -1.98 6.68 -3 6 C-2.67 4.68 -2.34 3.36 -2 2 C-1.34 2 -0.68 2 0 2 C0 1.34 0 0.68 0 0 Z " fill="#74422E" transform="translate(62,128)"/>
<path d="M0 0 C0 1.98 0 3.96 0 6 C-0.99 6.495 -0.99 6.495 -2 7 C-2 6.01 -2 5.02 -2 4 C-3.32 3.67 -4.64 3.34 -6 3 C-2.25 0 -2.25 0 0 0 Z " fill="#FAEBC9" transform="translate(168,81)"/>
<path d="M0 0 C-2.52788007 2.79872437 -4.20411134 4.45773019 -8 5 C-8 4.01 -8 3.02 -8 2 C-4.77208445 -0.1519437 -3.71599191 -0.20086443 0 0 Z " fill="#B8683B" transform="translate(153,183)"/>
<path d="M0 0 C0.66 0 1.32 0 2 0 C0.515 5.445 0.515 5.445 -1 11 C-1.33 11 -1.66 11 -2 11 C-2.25 3.375 -2.25 3.375 0 0 Z " fill="#BA4E11" transform="translate(9,70)"/>
<path d="M0 0 C0.66 0.99 1.32 1.98 2 3 C-0.64 3.99 -3.28 4.98 -6 6 C-6.66 5.34 -7.32 4.68 -8 4 C-5.36 2.68 -2.72 1.36 0 0 Z " fill="#C4A47A" transform="translate(62,66)"/>
<path d="M0 0 C0.66 0 1.32 0 2 0 C1.67 2.31 1.34 4.62 1 7 C0.01 7 -0.98 7 -2 7 C-1.34 4.69 -0.68 2.38 0 0 Z " fill="#CB5A0D" transform="translate(178,121)"/>
<path d="M0 0 C0.66 0 1.32 0 2 0 C2.33 2.31 2.66 4.62 3 7 C2.01 7 1.02 7 0 7 C-0.66 6.01 -1.32 5.02 -2 4 C-1.34 2.68 -0.68 1.36 0 0 Z " fill="#A56B4F" transform="translate(72,92)"/>
<path d="M0 0 C0.99 0.33 1.98 0.66 3 1 C1.68 3.64 0.36 6.28 -1 9 C-2.60031344 5.79937313 -1.03173691 3.27728194 0 0 Z " fill="#AE866F" transform="translate(109,84)"/>
<path d="M0 0 C1.32 1.32 2.64 2.64 4 4 C1 5 1 5 -1.1875 4.0625 C-1.785625 3.711875 -2.38375 3.36125 -3 3 C-3 2.34 -3 1.68 -3 1 C-2.01 0.67 -1.02 0.34 0 0 Z " fill="#B8582A" transform="translate(55,184)"/>
<path d="M0 0 C0.33 0 0.66 0 1 0 C1.125 5.75 1.125 5.75 0 8 C-1.32 8 -2.64 8 -4 8 C-4 7.34 -4 6.68 -4 6 C-3.01 5.34 -2.02 4.68 -1 4 C-0.27617533 1.94074861 -0.27617533 1.94074861 0 0 Z " fill="#724A31" transform="translate(69,117)"/>
<path d="M0 0 C2.4375 0.75 2.4375 0.75 5 2 C5.8125 4.125 5.8125 4.125 6 6 C2.34683329 4.75023244 1.21934164 4.32901247 -1 1 C-0.67 0.67 -0.34 0.34 0 0 Z " fill="#B86652" transform="translate(130,93)"/>
<path d="M0 0 C2 1.75 2 1.75 4 4 C4 5.32 4 6.64 4 8 C3.34 8 2.68 8 2 8 C-0.1519437 4.77208445 -0.20086443 3.71599191 0 0 Z " fill="#6F3D28" transform="translate(124,88)"/>
<path d="M0 0 C1.485 0.99 1.485 0.99 3 2 C3.1875 5.125 3.1875 5.125 3 8 C2.01 7.67 1.02 7.34 0 7 C0 4.69 0 2.38 0 0 Z " fill="#B24B19" transform="translate(26,78)"/>
<path d="M0 0 C1.84765625 0.33984375 1.84765625 0.33984375 4.0625 0.9375 C5.16271484 1.22947266 5.16271484 1.22947266 6.28515625 1.52734375 C7.13400391 1.76130859 7.13400391 1.76130859 8 2 C7.34 2.66 6.68 3.32 6 4 C4.68 4 3.36 4 2 4 C2 3.34 2 2.68 2 2 C1.01 1.67 0.02 1.34 -1 1 C-0.67 0.67 -0.34 0.34 0 0 Z " fill="#FDF0BC" transform="translate(119,33)"/>
</svg>
