<?xml version="1.0" encoding="UTF-8"?>
<svg version="1.1" xmlns="http://www.w3.org/2000/svg" width="198" height="206">
<path d="M0 0 C19.0969873 16.26837234 31.74710878 37.64405382 35.44799805 62.61547852 C37.42135835 92.79789945 31.21546702 117.67408424 11.13549805 140.67797852 C-4.45605801 157.4789976 -25.78347246 171.29142084 -49.32836914 172.79248047 C-79.5536496 173.4056833 -105.62681758 167.23159268 -128.21606445 146.04296875 C-146.26202798 128.3628835 -157.60595062 105.12064544 -157.93237305 79.64355469 C-157.91401411 67.37060598 -157.4660358 56.28464774 -153.55200195 44.61547852 C-153.33769531 43.96836914 -153.12338867 43.32125977 -152.90258789 42.65454102 C-144.59061176 18.16627365 -126.33660354 -0.73292043 -103.55200195 -12.38452148 C-70.15084686 -28.32941679 -28.60152381 -23.53309057 0 0 Z " fill="#62A52C" transform="translate(161.552001953125,27.384521484375)"/>
<path d="M0 0 C19.0969873 16.26837234 31.74710878 37.64405382 35.44799805 62.61547852 C37.42135835 92.79789945 31.21546702 117.67408424 11.13549805 140.67797852 C-4.45605801 157.4789976 -25.78347246 171.29142084 -49.32836914 172.79248047 C-79.5536496 173.4056833 -105.62681758 167.23159268 -128.21606445 146.04296875 C-146.26202798 128.3628835 -157.60595062 105.12064544 -157.93237305 79.64355469 C-157.91401411 67.37060598 -157.4660358 56.28464774 -153.55200195 44.61547852 C-153.33769531 43.96836914 -153.12338867 43.32125977 -152.90258789 42.65454102 C-144.59061176 18.16627365 -126.33660354 -0.73292043 -103.55200195 -12.38452148 C-70.15084686 -28.32941679 -28.60152381 -23.53309057 0 0 Z M-89.55200195 8.61547852 C-90.49430664 8.99961914 -91.43661133 9.38375977 -92.4074707 9.77954102 C-98.89239924 12.73546193 -104.22834575 16.92214321 -109.55200195 21.61547852 C-110.7140918 22.63448242 -110.7140918 22.63448242 -111.8996582 23.67407227 C-124.39523678 35.35518775 -132.07185366 51.57076063 -132.82543945 68.67016602 C-133.12650347 80.95463431 -132.31562727 91.25101701 -127.55200195 102.61547852 C-126.95838867 104.0424707 -126.95838867 104.0424707 -126.3527832 105.49829102 C-118.82791339 121.84800815 -104.74771411 134.00958151 -88.36450195 140.99047852 C-79.55189874 144.12993888 -70.99331828 144.9776122 -61.67700195 144.92797852 C-60.6199707 144.92451416 -59.56293945 144.9210498 -58.47387695 144.91748047 C-51.14449234 144.81511792 -44.47766452 144.1610035 -37.55200195 141.61547852 C-36.7321582 141.32930664 -35.91231445 141.04313477 -35.06762695 140.74829102 C-33.21416581 140.07721026 -31.37979003 139.3536237 -29.55200195 138.61547852 C-29.55200195 137.95547852 -29.55200195 137.29547852 -29.55200195 136.61547852 C-28.23200195 136.61547852 -26.91200195 136.61547852 -25.55200195 136.61547852 C-25.55200195 135.95547852 -25.55200195 135.29547852 -25.55200195 134.61547852 C-24.83012695 134.55360352 -24.10825195 134.49172852 -23.36450195 134.42797852 C-19.58617814 133.33646275 -18.21013294 131.52087751 -15.55200195 128.61547852 C-14.96547852 128.08180664 -14.37895508 127.54813477 -13.7746582 126.99829102 C-1.38486517 115.56533348 7.31415276 98.74291573 8.66943359 81.85644531 C9.13748803 69.94949963 9.38337082 58.65472354 4.44799805 47.61547852 C4.02389648 46.60743164 3.59979492 45.59938477 3.1628418 44.56079102 C-4.72595884 27.28893224 -19.03599644 14.63304927 -36.55200195 7.61547852 C-54.11945544 1.37708881 -72.31266332 1.54793538 -89.55200195 8.61547852 Z " fill="#E0701F" transform="translate(161.552001953125,27.384521484375)"/>
<path d="M0 0 C15.8915013 11.3400519 27.2896893 26.92402462 31.21875 46.296875 C31.62793439 50.22524412 31.69689568 54.09944351 31.65625 58.046875 C31.64795166 59.09601074 31.63965332 60.14514648 31.63110352 61.22607422 C31.24887876 78.90090842 24.94307235 96.59878837 12.21875 109.296875 C10.12109375 110.6171875 10.12109375 110.6171875 8.21875 111.296875 C5.96875 110.421875 5.96875 110.421875 4.21875 109.296875 C5.20875 107.811875 5.20875 107.811875 6.21875 106.296875 C6.21875 104.976875 6.21875 103.656875 6.21875 102.296875 C4.29852297 100.52277692 4.29852297 100.52277692 2.21875 99.296875 C3.2396875 98.183125 3.2396875 98.183125 4.28125 97.046875 C6.4448312 94.55914865 6.4448312 94.55914865 6.15625 92.109375 C5.22565197 89.95177648 5.22565197 89.95177648 2.21875 88.296875 C3.42256448 85.80325929 4.67303722 83.61544417 6.21875 81.296875 C6.21875 80.306875 6.21875 79.316875 6.21875 78.296875 C4.23875 77.306875 4.23875 77.306875 2.21875 76.296875 C3.35179992 72.89772525 4.34393475 72.24433049 7.21875 70.296875 C6.72043276 66.60932743 6.11807357 64.69196838 3.21875 62.296875 C5.19875 60.646875 7.17875 58.996875 9.21875 57.296875 C8.66146087 53.95314025 7.86701111 51.26374501 6.21875 48.296875 C6.59128906 47.83796875 6.96382813 47.3790625 7.34765625 46.90625 C8.05728516 45.98585938 8.05728516 45.98585938 8.78125 45.046875 C9.25691406 44.44359375 9.73257813 43.8403125 10.22265625 43.21875 C11.40435403 41.35274695 11.40435403 41.35274695 11.05859375 39.25 C10.34491723 37.21447945 10.34491723 37.21447945 8.66796875 35.90234375 C6.54076867 33.54579595 6.92161192 31.71578738 7.03125 28.609375 C7.07185547 27.11857422 7.07185547 27.11857422 7.11328125 25.59765625 C7.14808594 24.83839844 7.18289062 24.07914063 7.21875 23.296875 C4.00122471 21.68811235 0.50034925 21.90096552 -3.0546875 21.67578125 C-5.77292898 21.29803136 -7.50670021 20.81671147 -9.78125 19.296875 C-10.44791667 17.296875 -11.11458333 15.296875 -11.78125 13.296875 C-14.46144729 9.85090706 -16.06199739 8.50237575 -20.28125 7.296875 C-24.2238852 7.296875 -25.7696141 7.80151954 -28.78125 10.296875 C-30.10918606 12.36388155 -30.10918606 12.36388155 -30.78125 14.296875 C-33.46875 14.609375 -33.46875 14.609375 -36.78125 14.296875 C-38.44791667 12.63020833 -40.11458333 10.96354167 -41.78125 9.296875 C-44.78125 8.46354167 -44.78125 8.46354167 -47.78125 9.296875 C-50.79966274 11.0630016 -50.79966274 11.0630016 -52.78125 14.296875 C-53.25903524 16.81418051 -53.25903524 16.81418051 -53.41796875 19.4921875 C-53.49104248 20.39211426 -53.56411621 21.29204102 -53.6394043 22.21923828 C-53.68621338 22.9048584 -53.73302246 23.59047852 -53.78125 24.296875 C-64.34870567 28.11777848 -74.79062507 31.88339317 -85.78125 34.296875 C-86.50570312 34.51601562 -87.23015625 34.73515625 -87.9765625 34.9609375 C-88.57210937 35.07179687 -89.16765625 35.18265625 -89.78125 35.296875 C-90.4 34.801875 -91.01875 34.306875 -91.65625 33.796875 C-93.78324892 31.96452568 -93.78324892 31.96452568 -96.96875 32.484375 C-97.896875 32.7525 -98.825 33.020625 -99.78125 33.296875 C-103.11756439 39.96950378 -100.98033894 50.42472205 -98.78125 57.296875 C-95.81125 57.296875 -92.84125 57.296875 -89.78125 57.296875 C-90.11125 59.606875 -90.44125 61.916875 -90.78125 64.296875 C-76.16142945 69.93433794 -59.25113966 69.59453831 -43.78125 70.296875 C-41.38774078 74.67689997 -40.89382448 78.3993537 -41.78125 83.296875 C-43.08177149 86.5962802 -44.50629619 89.7891009 -45.99633789 93.00439453 C-51.22040749 104.4045282 -53.39589076 115.79196767 -53.78125 128.296875 C-69.13244396 127.27686211 -80.20567919 120.04332577 -90.78125 109.296875 C-91.42707031 108.64976562 -92.07289062 108.00265625 -92.73828125 107.3359375 C-104.45100802 94.83215511 -110.18922262 77.92339074 -110.09375 61.046875 C-110.08883545 60.02489014 -110.0839209 59.00290527 -110.07885742 57.94995117 C-109.96599216 50.68779498 -109.31851742 44.1515894 -106.78125 37.296875 C-106.4409375 36.30945313 -106.100625 35.32203125 -105.75 34.3046875 C-99.23176587 16.99613337 -85.21913663 2.41632975 -68.41015625 -5.23828125 C-45.72762064 -14.23262774 -20.95740453 -13.02492898 0 0 Z " fill="#FBF9CD" transform="translate(138.78125,41.703125)"/>
<path d="M0 0 C-0.33 0.66 -0.66 1.32 -1 2 C-0.34 2 0.32 2 1 2 C1 5 1 5 -0.71484375 6.71875 C-1.81505859 7.60046875 -1.81505859 7.60046875 -2.9375 8.5 C-6.28891586 11.14012046 -6.28891586 11.14012046 -8 15 C-7.24074219 14.36191406 -6.48148438 13.72382812 -5.69921875 13.06640625 C-4.70535156 12.24011719 -3.71148437 11.41382813 -2.6875 10.5625 C-1.70136719 9.73878906 -0.71523438 8.91507813 0.30078125 8.06640625 C3 6 3 6 6 5 C6 4.34 6 3.68 6 3 C7.32 2.34 8.64 1.68 10 1 C10 1.66 10 2.32 10 3 C10.99 3 11.98 3 13 3 C13.495 4.485 13.495 4.485 14 6 C14.99 6.33 15.98 6.66 17 7 C16.11957031 7.53109375 15.23914063 8.0621875 14.33203125 8.609375 C13.15874318 9.32273415 11.98557231 10.0362861 10.8125 10.75 C10.23435547 11.09804688 9.65621094 11.44609375 9.06054688 11.8046875 C6.29405588 13.4927159 3.72103348 15.22566329 1.19921875 17.265625 C-1 19 -1 19 -3 19 C-3.268125 19.639375 -3.53625 20.27875 -3.8125 20.9375 C-5 23 -5 23 -8 24 C-8.70372155 25.65136253 -9.36572108 27.3207405 -10 29 C-11.05547801 30.43300415 -12.16287982 31.82885797 -13.3125 33.1875 C-25.90155916 49.1197118 -27.59651411 68.36430186 -26 88 C-23.73061899 105.61134218 -12.54216152 123.27274152 0.90234375 134.4453125 C4.7496537 137.29676382 8.81751695 139.67865423 13 142 C13.61101562 142.36996094 14.22203125 142.73992187 14.8515625 143.12109375 C30.63052456 152.05323747 51.89025659 152.28171451 69.16015625 148.3125 C79.57379147 145.09379047 89.88945463 139.24109491 98 132 C98.66 132.33 99.32 132.66 100 133 C99.979375 133.721875 99.95875 134.44375 99.9375 135.1875 C99.91169947 137.98886343 99.91169947 137.98886343 100.5625 140.625 C101 143 101 143 100 146 C100.66 146 101.32 146 102 146 C102 145.34 102 144.68 102 144 C104.95481492 141.25624329 105.77471908 141 110 141 C107.00432943 148.64236412 97.11410634 153.42116794 89.9921875 156.77734375 C86.05927116 158.38439703 82.08258315 159.81458561 78.0625 161.1875 C76.97183228 161.56285889 76.97183228 161.56285889 75.85913086 161.94580078 C65.80918799 165.24631494 56.11307593 166.32800796 45.5625 166.25 C44.52029297 166.25773438 43.47808594 166.26546875 42.40429688 166.2734375 C19.94246731 166.2177355 -1.96433499 158.45172806 -18.328125 142.75390625 C-24 136.80373832 -24 136.80373832 -24 134 C-24.66 134 -25.32 134 -26 134 C-38.50235648 116.99158587 -44.40541853 98.45009183 -44.375 77.4375 C-44.37412384 76.77492188 -44.37324768 76.11234375 -44.37234497 75.4296875 C-44.29947403 58.71122717 -41.33756419 45.5286491 -33 31 C-32.47664063 30.05769531 -31.95328125 29.11539063 -31.4140625 28.14453125 C-25.85329227 18.74547328 -14.60703972 3.01888707 -3.90625 -0.734375 C-2 -1 -2 -1 0 0 Z " fill="#E17020" transform="translate(51,26)"/>
<path d="M0 0 C1.32 0 2.64 0 4 0 C4.556875 1.093125 5.11375 2.18625 5.6875 3.3125 C7.70938498 6.7636485 9.15417237 8.52712984 13 10 C15.82895993 10.34479247 18.62956999 10.56270659 21.4765625 10.69140625 C24 11 24 11 27 13 C27.15234375 15.4609375 27.15234375 15.4609375 26.9375 18.375 C26.63971552 22.81375019 26.63971552 22.81375019 29.0625 26.375 C29.701875 26.91125 30.34125 27.4475 31 28 C31 32.38485415 28.82333471 34.81236404 26 38 C26.309375 38.556875 26.61875 39.11375 26.9375 39.6875 C28.05761821 42.12540433 28.56037364 44.36224186 29 47 C27.02 48.65 25.04 50.3 23 52 C23.680625 52.556875 24.36125 53.11375 25.0625 53.6875 C27 56 27 56 27.0625 58.4375 C25.68758997 61.75345949 23.64852989 63.6231142 21 66 C22.65 66.66 24.3 67.32 26 68 C25.49701212 72.40114397 23.91227269 74.71195019 21 78 C21.9590625 78.37125 21.9590625 78.37125 22.9375 78.75 C25 80 25 80 26 81.8125 C26 85.13230681 24.17076942 86.6318879 22 89 C23.32 89.99 24.64 90.98 26 92 C25.125 97.875 25.125 97.875 24 99 C25.32 99.66 26.64 100.32 28 101 C27.04270084 102.12588014 26.08412105 103.2506715 25.125 104.375 C24.59132812 105.00148438 24.05765625 105.62796875 23.5078125 106.2734375 C22.38567993 107.55836651 21.20628025 108.79371975 20 110 C18.68 110 17.36 110 16 110 C16 110.66 16 111.32 16 112 C14.68 112 13.36 112 12 112 C12 112.66 12 113.32 12 114 C9.03 114.99 6.06 115.98 3 117 C2.53714063 99.02681466 2.96151682 82.19093135 6.54248047 64.49316406 C7.24253257 60.67836576 7.62663727 56.85939162 8 53 C7.16082031 53.39832031 7.16082031 53.39832031 6.3046875 53.8046875 C-3.32065035 58.0447881 -13.52506159 59.41899754 -24 59 C-24.33 58.34 -24.66 57.68 -25 57 C-24.01 57 -23.02 57 -22 57 C-22 56.01 -22 55.02 -22 54 C-22.66 54 -23.32 54 -24 54 C-24 53.34 -24 52.68 -24 52 C-25.485 52.495 -25.485 52.495 -27 53 C-27.99 52.67 -28.98 52.34 -30 52 C-30 51.34 -30 50.68 -30 50 C-27.525 49.505 -27.525 49.505 -25 49 C-25 48.34 -25 47.68 -25 47 C-24.01 47 -23.02 47 -22 47 C-22 46.34 -22 45.68 -22 45 C-20.35 45 -18.7 45 -17 45 C-17 45.66 -17 46.32 -17 47 C-15.35 47 -13.7 47 -12 47 C-12.268125 45.7625 -12.53625 44.525 -12.8125 43.25 C-13.08984375 41.015625 -13.08984375 41.015625 -13 39 C-10.875 37 -10.875 37 -8 35 C-6.58085981 32.92556279 -5.34133684 30.80147423 -4.11328125 28.609375 C-3.56220703 27.81273437 -3.56220703 27.81273437 -3 27 C-2.34 27 -1.68 27 -1 27 C-0.67 27.66 -0.34 28.32 0 29 C3.37088267 26.72584713 3.37088267 26.72584713 5 23 C3.68 23 2.36 23 1 23 C1 21.68 1 20.36 1 19 C1.66 19 2.32 19 3 19 C3.33 16.69 3.66 14.38 4 12 C3.34 12.33 2.68 12.66 2 13 C2 9.7 2 6.4 2 3 C1.34 3 0.68 3 0 3 C0 2.01 0 1.02 0 0 Z M-3 31 C-2 33 -2 33 -2 33 Z " fill="#63A92B" transform="translate(120,52)"/>
<path d="M0 0 C0 0.99 0 1.98 0 3 C-0.70382813 2.92998779 -1.40765625 2.85997559 -2.1328125 2.7878418 C-10.10109448 2.05251813 -18.00032394 1.81686664 -26 1.8125 C-27.77117187 1.79413086 -27.77117187 1.79413086 -29.578125 1.77539062 C-52.85597795 1.73693602 -74.30931034 10.29802129 -90.8984375 26.7421875 C-108.4939716 44.90850624 -118.16575382 66.11986858 -118.24023438 91.61083984 C-118.24987275 93.5987554 -118.28104299 95.58652873 -118.3125 97.57421875 C-118.38172485 114.86312462 -113.00177332 133.29769469 -102.3203125 147.18359375 C-101 149 -101 149 -101 151 C-100.34 151 -99.68 151 -99 151 C-97.84375 152.46875 -97.84375 152.46875 -96.5 154.5 C-84.83412885 170.42840099 -64.07887642 178.62239746 -45.18945312 181.60742188 C-39.97643525 182.24907319 -34.80989957 182.33972439 -29.5625 182.3125 C-27.92063721 182.30730347 -27.92063721 182.30730347 -26.24560547 182.30200195 C-18.37985982 182.19605613 -11.52559601 181.36332031 -4 179 C-2.14598955 178.54103517 -0.29182401 178.08269634 1.5625 177.625 C22.42771434 171.70664687 39.65638862 158.59608424 51 140 C56.99853711 129.17999722 60.9614588 117.95733621 64 106 C64.36931641 104.61554688 64.36931641 104.61554688 64.74609375 103.203125 C67.76924858 90.44332669 65.83848609 78.29492097 62 66 C61.79101074 65.32646484 61.58202148 64.65292969 61.36669922 63.95898438 C53.84259124 40.44544245 38.09241058 22.00405001 16.17675781 10.61230469 C14.45545863 9.73309295 12.72797389 8.86601985 11 8 C10.19304687 7.59523438 9.38609375 7.19046875 8.5546875 6.7734375 C8.04164063 6.51820312 7.52859375 6.26296875 7 6 C7 5.34 7 4.68 7 4 C5.68 4 4.36 4 3 4 C3 3.34 3 2.68 3 2 C16.00958766 3.82590704 27.32134734 11.476279 37 20 C37.81855469 20.67546875 38.63710937 21.3509375 39.48046875 22.046875 C57.06866705 36.99002642 67.61277295 58.29341948 71 81 C72.9733603 111.18242093 66.76746897 136.05860573 46.6875 159.0625 C31.09594394 175.86351909 9.76852949 189.67594232 -13.77636719 191.17700195 C-44.00164764 191.79020478 -70.07481563 185.61611416 -92.6640625 164.42749023 C-110.71002603 146.74740499 -122.05394867 123.50516693 -122.38037109 98.02807617 C-122.36201216 85.75512747 -121.91403384 74.66916922 -118 63 C-117.78569336 62.35289063 -117.57138672 61.70578125 -117.35058594 61.0390625 C-109.03860981 36.55079513 -90.78460159 17.65160106 -68 6 C-46.12162743 -4.44420048 -23.37753316 -4.54563145 0 0 Z " fill="#C65315" transform="translate(126,9)"/>
<path d="M0 0 C1.38551114 1.1541642 2.76090635 2.32059988 4.125 3.5 C4.82238281 4.06589844 5.51976562 4.63179687 6.23828125 5.21484375 C19.60909537 16.31941819 28.12644445 33.34717975 30.125 50.5 C30.73197157 61.68745665 30.97984621 72.84885866 27.125 83.5 C26.77308594 84.49 26.42117187 85.48 26.05859375 86.5 C19.44601705 103.60976941 7.43598021 118.81947834 -8.875 127.5 C-10.27298828 128.31210937 -10.27298828 128.31210937 -11.69921875 129.140625 C-27.97531313 138.09356343 -49.32517149 139.30004513 -67.18579102 134.47729492 C-85.99236065 128.69454549 -102.88285675 115.44370878 -112.25 98.125 C-115.68184428 91.51783484 -118.03182469 84.71649996 -119.875 77.5 C-120.0493457 76.88890381 -120.22369141 76.27780762 -120.40332031 75.64819336 C-124.22518752 58.24208074 -120.52272406 38.59416937 -111.734375 23.40234375 C-109.0382132 19.19383909 -106.09259805 15.31901825 -102.875 11.5 C-102.40578125 10.88640625 -101.9365625 10.2728125 -101.453125 9.640625 C-97.37250411 4.45961196 -92.38659523 1.04900939 -86.875 -2.5 C-86.06804687 -3.03882813 -85.26109375 -3.57765625 -84.4296875 -4.1328125 C-78.22558638 -8.10263926 -71.95551898 -10.52580704 -64.875 -12.5 C-64.09898438 -12.726875 -63.32296875 -12.95375 -62.5234375 -13.1875 C-41.27855691 -18.4439653 -17.29575606 -13.11177418 0 0 Z M-72.875 -4.5 C-73.81730469 -4.11585937 -74.75960937 -3.73171875 -75.73046875 -3.3359375 C-82.21539728 -0.38001659 -87.5513438 3.8066647 -92.875 8.5 C-94.03708984 9.51900391 -94.03708984 9.51900391 -95.22265625 10.55859375 C-107.71823483 22.23970923 -115.39485171 38.45528211 -116.1484375 55.5546875 C-116.44950152 67.8391558 -115.63862532 78.13553849 -110.875 89.5 C-110.28138672 90.92699219 -110.28138672 90.92699219 -109.67578125 92.3828125 C-102.15091144 108.73252964 -88.07071216 120.89410299 -71.6875 127.875 C-62.87489679 131.01446036 -54.31631633 131.86213368 -45 131.8125 C-43.94296875 131.80903564 -42.8859375 131.80557129 -41.796875 131.80200195 C-34.46749039 131.69963941 -27.80066256 131.04552498 -20.875 128.5 C-20.05515625 128.21382812 -19.2353125 127.92765625 -18.390625 127.6328125 C-16.53716386 126.96173174 -14.70278808 126.23814519 -12.875 125.5 C-12.875 124.84 -12.875 124.18 -12.875 123.5 C-11.555 123.5 -10.235 123.5 -8.875 123.5 C-8.875 122.84 -8.875 122.18 -8.875 121.5 C-8.153125 121.438125 -7.43125 121.37625 -6.6875 121.3125 C-2.90917619 120.22098423 -1.53313099 118.40539899 1.125 115.5 C1.71152344 114.96632813 2.29804688 114.43265625 2.90234375 113.8828125 C15.29213679 102.44985497 23.99115472 85.62743722 25.34643555 68.7409668 C25.81448999 56.83402112 26.06037277 45.53924502 21.125 34.5 C20.70089844 33.49195313 20.27679688 32.48390625 19.83984375 31.4453125 C11.95104311 14.17345372 -2.35899449 1.51757075 -19.875 -5.5 C-37.44245349 -11.7383897 -55.63566137 -11.56754313 -72.875 -4.5 Z " fill="#BB5012" transform="translate(144.875,40.5)"/>
<path d="M0 0 C0.21603281 6.84336201 -0.61858397 12.92791343 -1.9375 19.625 C-4.64668836 34.34413813 -4.8285216 49.07546658 -5 64 C-12.82185879 66.54627082 -19.85812723 67.44372797 -28.0625 67.3125 C-29.07376953 67.31572266 -30.08503906 67.31894531 -31.12695312 67.32226562 C-37.63289592 67.27618361 -43.67651373 66.52563603 -50 65 C-50 64.67 -50 64.34 -50 64 C-48.02 64 -46.04 64 -44 64 C-43.98582031 63.27039063 -43.97164063 62.54078125 -43.95703125 61.7890625 C-43.38279407 49.21792429 -40.25624095 37.22013865 -34.6875 25.9375 C-31.58327687 19.64149874 -30.72482711 14.82551868 -33 8 C-38.94 7.67 -44.88 7.34 -51 7 C-51 6.67 -51 6.34 -51 6 C-50.25540527 5.98018066 -49.51081055 5.96036133 -48.74365234 5.93994141 C-32.68394735 5.4904584 -15.17656962 0 0 0 Z " fill="#E5C945" transform="translate(128,105)"/>
<path d="M0 0 C0 0.99 0 1.98 0 3 C-0.70382813 2.92998779 -1.40765625 2.85997559 -2.1328125 2.7878418 C-10.10109448 2.05251813 -18.00032394 1.81686664 -26 1.8125 C-27.77117187 1.79413086 -27.77117187 1.79413086 -29.578125 1.77539062 C-52.85597795 1.73693602 -74.30931034 10.29802129 -90.8984375 26.7421875 C-108.4939716 44.90850624 -118.16575382 66.11986858 -118.24023438 91.61083984 C-118.24987275 93.5987554 -118.28104299 95.58652873 -118.3125 97.57421875 C-118.38172485 114.86312462 -113.00177332 133.29769469 -102.3203125 147.18359375 C-101 149 -101 149 -101 151 C-100.34 151 -99.68 151 -99 151 C-97.87890625 152.43359375 -97.87890625 152.43359375 -96.5625 154.4375 C-93.15442884 159.2020174 -88.92558591 162.48723881 -84.29296875 166.01953125 C-82 168 -82 168 -81 171 C-77.99992729 172.70855022 -77.99992729 172.70855022 -75 174 C-75 174.66 -75 175.32 -75 176 C-73.02 176.33 -71.04 176.66 -69 177 C-69 177.99 -69 178.98 -69 180 C-87.55655446 174.60123635 -102.89204904 155.49259463 -111.94189453 139.14770508 C-123.28723782 117.64277335 -126.23391756 90.12142369 -119.2578125 66.75 C-118.63519531 64.89375 -118.63519531 64.89375 -118 63 C-117.78569336 62.35289063 -117.57138672 61.70578125 -117.35058594 61.0390625 C-109.03860981 36.55079513 -90.78460159 17.65160106 -68 6 C-46.12162743 -4.44420048 -23.37753316 -4.54563145 0 0 Z " fill="#BE5B24" transform="translate(126,9)"/>
<path d="M0 0 C0.16356156 6.69920873 -0.42397869 12.9561169 -1.5 19.5625 C-1.64308594 20.47580078 -1.78617188 21.38910156 -1.93359375 22.33007812 C-2.28296798 24.55442736 -2.63851822 26.7775921 -3 29 C-3.495 27.515 -3.495 27.515 -4 26 C-5.09957031 26.02320313 -6.19914062 26.04640625 -7.33203125 26.0703125 C-15.78629396 26.19282418 -23.72517216 26.00168622 -32 24 C-31.98839844 23.09636719 -31.97679688 22.19273438 -31.96484375 21.26171875 C-31.95582031 20.08222656 -31.94679688 18.90273437 -31.9375 17.6875 C-31.92589844 16.51574219 -31.91429688 15.34398438 -31.90234375 14.13671875 C-31.85100102 10.96940805 -31.85100102 10.96940805 -33 8 C-38.94 7.67 -44.88 7.34 -51 7 C-51 6.67 -51 6.34 -51 6 C-50.25540527 5.98018066 -49.51081055 5.96036133 -48.74365234 5.93994141 C-32.68394735 5.4904584 -15.17656962 0 0 0 Z " fill="#E0C43E" transform="translate(128,105)"/>
<path d="M0 0 C1.9375 0.75 1.9375 0.75 4 2 C4.78125 3.84375 4.78125 3.84375 5 6 C4.00390625 7.921875 4.00390625 7.921875 2.5625 9.75 C2.08941406 10.36359375 1.61632812 10.9771875 1.12890625 11.609375 C0.75636719 12.06828125 0.38382813 12.5271875 0 13 C0.309375 13.556875 0.61875 14.11375 0.9375 14.6875 C2.05761821 17.12540433 2.56037364 19.36224186 3 22 C1.02 23.65 -0.96 25.3 -3 27 C-2.319375 27.556875 -1.63875 28.11375 -0.9375 28.6875 C1 31 1 31 1.0625 33.4375 C-0.31241003 36.75345949 -2.35147011 38.6231142 -5 41 C-3.35 41.66 -1.7 42.32 0 43 C-0.50298788 47.40114397 -2.08772731 49.71195019 -5 53 C-4.360625 53.2475 -3.72125 53.495 -3.0625 53.75 C-1 55 -1 55 0 56.8125 C0 60.13230681 -1.82923058 61.6318879 -4 64 C-2.68 64.99 -1.36 65.98 0 67 C-0.875 72.875 -0.875 72.875 -2 74 C-0.68 74.66 0.64 75.32 2 76 C0.37660195 77.70884005 -1.29319053 79.37446717 -3 81 C-3.66 81 -4.32 81 -5 81 C-7.18974746 68.71959071 -7.3844466 56.63126227 -7.53173828 44.1953125 C-7.56542592 41.60658354 -7.61046808 39.01822626 -7.65625 36.4296875 C-7.6615271 35.64117401 -7.6668042 34.85266052 -7.67224121 34.04025269 C-7.74318136 30.15159283 -8.02471381 27.36422215 -10 24 C-9.651929 21.14581781 -8.9104022 18.73120659 -8 16 C-7.34 16 -6.68 16 -6 16 C-5.814375 14.39125 -5.814375 14.39125 -5.625 12.75 C-5.09075376 9.54452257 -4.59779416 7.72564886 -3 5 C-2.4740625 3.9171875 -2.4740625 3.9171875 -1.9375 2.8125 C-1 1 -1 1 0 0 Z " fill="#528A28" transform="translate(146,77)"/>
<path d="M0 0 C13.00958766 1.82590704 24.32134734 9.476279 34 18 C34.81855469 18.67546875 35.63710937 19.3509375 36.48046875 20.046875 C53.9991789 34.93098843 64.73877299 56.32890851 68 79 C68.07806517 81.23585359 68.1079186 83.47374504 68.09765625 85.7109375 C68.09282227 87.57685547 68.09282227 87.57685547 68.08789062 89.48046875 C68.07532227 91.40826172 68.07532227 91.40826172 68.0625 93.375 C68.05798828 94.68339844 68.05347656 95.99179688 68.04882812 97.33984375 C68.03707594 100.55994281 68.02064543 103.7799477 68 107 C67.67 107 67.34 107 67 107 C66.16220564 97.29056184 65.87723383 87.73944972 66 78 C65.34 78 64.68 78 64 78 C63.67 78.66 63.34 79.32 63 80 C62.78085938 79.030625 62.56171875 78.06125 62.3359375 77.0625 C56.40251663 51.61706789 45.4214111 28.96831046 23 14 C18.11069762 11.12164138 13.07051113 8.54122087 8 6 C7.19304687 5.59523438 6.38609375 5.19046875 5.5546875 4.7734375 C5.04164063 4.51820312 4.52859375 4.26296875 4 4 C4 3.34 4 2.68 4 2 C2.68 2 1.36 2 0 2 C0 1.34 0 0.68 0 0 Z " fill="#BF5623" transform="translate(129,11)"/>
<path d="M0 0 C0.33 0 0.66 0 1 0 C1 6.6 1 13.2 1 20 C-7.1001578 22.55017395 -14.09772248 23.41730876 -22.5625 23.25 C-23.64080078 23.24484375 -24.71910156 23.2396875 -25.83007812 23.234375 C-33.68912156 23.15543922 -33.68912156 23.15543922 -36 22 C-36 18.04 -36 14.08 -36 10 C-33.4940625 10.495 -33.4940625 10.495 -30.9375 11 C-20.69651444 12.61579994 -10.33661205 12.158889 0 12 C0 8.04 0 4.08 0 0 Z " fill="#E8C945" transform="translate(122,149)"/>
<path d="M0 0 C3.18251523 2.12167682 4.87267139 3.80900708 7 7 C6.625 9.1875 6.625 9.1875 6 11 C5.525625 10.505 5.05125 10.01 4.5625 9.5 C3.24076302 7.88457803 3.24076302 7.88457803 2 8 C2 6.35 2 4.7 2 3 C0.68 3 -0.64 3 -2 3 C-2 3.99 -2 4.98 -2 6 C-1.34 6 -0.68 6 0 6 C0.4726477 14.19256018 0.4726477 14.19256018 -1.5 17.5625 C-1.995 18.036875 -2.49 18.51125 -3 19 C-3.66 18.67 -4.32 18.34 -5 18 C-4.67 16.02 -4.34 14.04 -4 12 C-4.66 12 -5.32 12 -6 12 C-6 11.01 -6 10.02 -6 9 C-7.32 9.33 -8.64 9.66 -10 10 C-10 10.66 -10 11.32 -10 12 C-10.66 12 -11.32 12 -12 12 C-12 12.66 -12 13.32 -12 14 C-14.31 14.66 -16.62 15.32 -19 16 C-19.33 17.32 -19.66 18.64 -20 20 C-22.64 19.01 -25.28 18.02 -28 17 C-28.33 14.69 -28.66 12.38 -29 10 C-29.99 9.67 -30.98 9.34 -32 9 C-32.33 10.98 -32.66 12.96 -33 15 C-33.33 15 -33.66 15 -34 15 C-34.125 12.125 -34.125 12.125 -34 9 C-32 7 -32 7 -29.375 6.875 C-28.59125 6.91625 -27.8075 6.9575 -27 7 C-27.99 6.01 -28.98 5.02 -30 4 C-29.67 3.34 -29.34 2.68 -29 2 C-25.625 2.25 -25.625 2.25 -22 3 C-20.5625 5.0625 -20.5625 5.0625 -20 7 C-18.02 7 -16.04 7 -14 7 C-13.773125 6.236875 -13.54625 5.47375 -13.3125 4.6875 C-10.38144452 -1.31418504 -6.05528924 -1.62195248 0 0 Z " fill="#60A52B" transform="translate(122,49)"/>
<path d="M0 0 C5.50808397 0.59015185 10.64878069 1.56663769 16 3 C16 2.34 16 1.68 16 1 C19.72149094 -0.24049698 21.05406627 0.71730804 24.44726562 2.40234375 C25.14529297 2.76457031 25.84332031 3.12679688 26.5625 3.5 C27.63081055 4.04333984 27.63081055 4.04333984 28.72070312 4.59765625 C34.49427788 7.59678015 39.83938636 11.0302972 45 15 C44.62890625 16.921875 44.62890625 16.921875 44 19 C41.9375 20.25 41.9375 20.25 40 21 C40.66 21.66 41.32 22.32 42 23 C42 23.99 42 24.98 42 26 C37.08558588 24.56347895 32.99761642 22.45840385 28.625 19.875 C27.98433594 19.50246094 27.34367187 19.12992188 26.68359375 18.74609375 C25.11951523 17.83565998 23.55934466 16.91851809 22 16 C22.33 14.35 22.66 12.7 23 11 C16.62191253 7.55696163 10.31820949 4.97424106 3.37109375 2.89453125 C1 2 1 2 0 0 Z " fill="#E06E1D" transform="translate(115,15)"/>
<path d="M0 0 C0.495 1.98 0.495 1.98 1 4 C-0.32 4 -1.64 4 -3 4 C-3.33 4.66 -3.66 5.32 -4 6 C-3.34 6 -2.68 6 -2 6 C-2 6.66 -2 7.32 -2 8 C-2.97582031 8.55429687 -3.95164063 9.10859375 -4.95703125 9.6796875 C-6.24222019 10.41140091 -7.52737464 11.14317492 -8.8125 11.875 C-9.45509766 12.23980469 -10.09769531 12.60460938 -10.75976562 12.98046875 C-13.56768798 14.58083901 -16.30964298 16.20642866 -19 18 C-20.34262065 17.70630173 -21.67696283 17.3721042 -23 17 C-23.99 17.33 -24.98 17.66 -26 18 C-26 18.66 -26 19.32 -26 20 C-27.8984375 21.7265625 -27.8984375 21.7265625 -30.375 23.625 C-31.59316406 24.57246094 -31.59316406 24.57246094 -32.8359375 25.5390625 C-35 27 -35 27 -37 27 C-37.33 27.99 -37.66 28.98 -38 30 C-38.66 30 -39.32 30 -40 30 C-39.75 28.125 -39.75 28.125 -39 26 C-37.67532254 25.3162955 -36.34136367 24.65035814 -35 24 C-33.73195434 21.9664052 -33.73195434 21.9664052 -33 20 C-32.34 20 -31.68 20 -31 20 C-31 19.01 -31 18.02 -31 17 C-31.66 17 -32.32 17 -33 17 C-33.33 16.34 -33.66 15.68 -34 15 C-34.66 14.67 -35.32 14.34 -36 14 C-12.26490939 -0.34069193 -12.26490939 -0.34069193 0 0 Z " fill="#E16F1F" transform="translate(83,11)"/>
<path d="M0 0 C3.54520824 5.31781237 4.30053047 8.9528225 4.34375 15.359375 C4.3583728 16.18141418 4.37299561 17.00345337 4.38806152 17.85040283 C4.43447433 20.48355173 4.46863314 23.11663167 4.5 25.75 C4.54189949 29.18253501 4.5922379 32.61467773 4.65625 36.046875 C4.67131592 36.88440308 4.68638184 37.72193115 4.7019043 38.58483887 C4.87719272 45.49194168 5.6862474 52.19829013 6.77539062 59.01660156 C6.84951172 60.00112305 6.92363281 60.98564453 7 62 C6.34 62.66 5.68 63.32 5 64 C3.68 64 2.36 64 1 64 C1 64.66 1 65.32 1 66 C-0.32 66 -1.64 66 -3 66 C-3 66.66 -3 67.32 -3 68 C-5.97 68.99 -8.94 69.98 -12 71 C-12 64.4 -12 57.8 -12 51 C-11.67 51 -11.34 51 -11 51 C-10.67 55.29 -10.34 59.58 -10 64 C-9.01 64 -8.02 64 -7 64 C-7 64.66 -7 65.32 -7 66 C-3.535 65.505 -3.535 65.505 0 65 C0 64.34 0 63.68 0 63 C0.66 63 1.32 63 2 63 C1.34 61.35 0.68 59.7 0 58 C0.66 58 1.32 58 2 58 C2.33 57.34 2.66 56.68 3 56 C2.01 55.67 1.02 55.34 0 55 C-2.75628112 50.46863816 -2.04373898 45.82320363 -1.6875 40.75 C-1.57688653 38.88158332 -1.46757058 37.0130895 -1.359375 35.14453125 C-1.29943359 34.15533691 -1.23949219 33.16614258 -1.17773438 32.14697266 C-0.86332483 26.58002341 -0.65387976 21.00897439 -0.4375 15.4375 C-0.39391357 14.36145508 -0.35032715 13.28541016 -0.30541992 12.17675781 C-0.14337133 8.11222845 0 4.06851991 0 0 Z " fill="#539822" transform="translate(135,98)"/>
<path d="M0 0 C3.39581516 -0.0291544 6.79159786 -0.04685068 10.1875 -0.0625 C11.14720703 -0.07087891 12.10691406 -0.07925781 13.09570312 -0.08789062 C14.02705078 -0.09111328 14.95839844 -0.09433594 15.91796875 -0.09765625 C17.19837036 -0.10551147 17.19837036 -0.10551147 18.50463867 -0.11352539 C21.09246747 0.00420677 23.47661953 0.42892956 26 1 C25.67 3.31 25.34 5.62 25 8 C24.01 8 23.02 8 22 8 C21.71125 7.195625 21.4225 6.39125 21.125 5.5625 C20.26737432 2.8673532 20.26737432 2.8673532 18 2 C17.773125 2.94875 17.54625 3.8975 17.3125 4.875 C16 8 16 8 13.375 9.375 C12.59125 9.58125 11.8075 9.7875 11 10 C11 10.66 11 11.32 11 12 C14.96 12.33 18.92 12.66 23 13 C23 13.33 23 13.66 23 14 C12.83807434 14.42276116 -0.21330282 14.85779812 -9 9 C-8.34 6.69 -7.68 4.38 -7 2 C-7.99 1.67 -8.98 1.34 -10 1 C-8.68 1 -7.36 1 -6 1 C-6 1.66 -6 2.32 -6 3 C-0.39 3 5.22 3 11 3 C11 2.34 11 1.68 11 1 C7.37 1 3.74 1 0 1 C0 0.67 0 0.34 0 0 Z " fill="#6BAB39" transform="translate(56,97)"/>
<path d="M0 0 C-1.08102819 3.13498176 -1.97840612 3.9868559 -4.875 5.75 C-8 7 -8 7 -12 7 C-12 7.66 -12 8.32 -12 9 C-11.34 9 -10.68 9 -10 9 C-9.731875 9.804375 -9.46375 10.60875 -9.1875 11.4375 C-8.795625 12.283125 -8.40375 13.12875 -8 14 C-7.01 14.33 -6.02 14.66 -5 15 C-18.44874715 19.77676538 -18.44874715 19.77676538 -26 18 C-26 16.33333333 -26 14.66666667 -26 13 C-25.01 12.67 -24.02 12.34 -23 12 C-27.62 12 -32.24 12 -37 12 C-37 11.34 -37 10.68 -37 10 C-35.8140625 9.86464844 -34.628125 9.72929687 -33.40625 9.58984375 C-23.09067844 8.26733458 -14.38580652 5.9770649 -5.02734375 1.42578125 C-2 0 -2 0 0 0 Z " fill="#DE6D1D" transform="translate(138,171)"/>
<path d="M0 0 C0.2700558 7.8316181 -0.76892281 15.27279225 -2 23 C-3.32 23.33 -4.64 23.66 -6 24 C-5.01 19.71 -4.02 15.42 -3 11 C-10.59 11 -18.18 11 -26 11 C-23.24072656 8.24072656 -20.78845948 8.48216757 -17 8 C-16.67 7.67 -16.34 7.34 -16 7 C-27.55 7 -39.1 7 -51 7 C-51 6.67 -51 6.34 -51 6 C-50.25540527 5.98018066 -49.51081055 5.96036133 -48.74365234 5.93994141 C-32.68394735 5.4904584 -15.17656962 0 0 0 Z " fill="#E1CA48" transform="translate(128,105)"/>
<path d="M0 0 C1.65 0.33 3.3 0.66 5 1 C5.65234375 2.765625 5.65234375 2.765625 6 5 C5.00390625 6.921875 5.00390625 6.921875 3.5625 8.75 C3.08941406 9.36359375 2.61632812 9.9771875 2.12890625 10.609375 C1.75636719 11.06828125 1.38382813 11.5271875 1 12 C1.639375 12.2475 2.27875 12.495 2.9375 12.75 C5 14 5 14 6 15.8125 C6 19.13230681 4.17076942 20.6318879 2 23 C3.32 23.99 4.64 24.98 6 26 C5.125 31.875 5.125 31.875 4 33 C5.32 33.66 6.64 34.32 8 35 C6.37660195 36.70884005 4.70680947 38.37446717 3 40 C2.34 40 1.68 40 1 40 C-0.70292563 31.22689206 -1.19307621 22.72955029 -1.1875 13.8125 C-1.1884668 12.28870728 -1.1884668 12.28870728 -1.18945312 10.73413086 C-1.13519967 3.40559901 -1.13519967 3.40559901 0 0 Z " fill="#40671D" transform="translate(140,118)"/>
<path d="M0 0 C0.33 0 0.66 0 1 0 C1.72209018 5.37957186 2.21999785 10.70613495 2.5 16.125 C2.58561454 17.6198102 2.67155694 19.11460165 2.7578125 20.609375 C2.91212519 23.34872437 3.05103738 26.08731803 3.1796875 28.828125 C3.65013363 37.37142677 5.30291848 44.90875544 8 53 C7.01 53.495 7.01 53.495 6 54 C0.07334408 42.09983713 -2.25171171 31.95628793 -2.3125 18.6875 C-2.31805908 17.64891846 -2.32361816 16.61033691 -2.3293457 15.5402832 C-2.2769122 9.98098737 -1.85859722 5.24998179 0 0 Z " fill="#B94A0E" transform="translate(26,83)"/>
<path d="M0 0 C0.99 0 1.98 0 3 0 C3.67154933 1.28913487 4.33708859 2.58140204 5 3.875 C5.37125 4.59429687 5.7425 5.31359375 6.125 6.0546875 C7 8 7 8 7 10 C7.66 10 8.32 10 9 10 C10.6875 11.25 10.6875 11.25 12 13 C11.75 15 11.75 15 11 17 C10.67 17.99 10.34 18.98 10 20 C11.65 19.34 13.3 18.68 15 18 C15.66 19.65 16.32 21.3 17 23 C15.02 22.67 13.04 22.34 11 22 C11 22.99 11 23.98 11 25 C8.625 24.75 8.625 24.75 6 24 C4.6875 21.9375 4.6875 21.9375 4 20 C3.34 20 2.68 20 2 20 C1.67 19.01 1.34 18.02 1 17 C1.99 16.34 2.98 15.68 4 15 C3.67 14.01 3.34 13.02 3 12 C3.66 11.67 4.32 11.34 5 11 C4.6390625 10.45730469 4.278125 9.91460937 3.90625 9.35546875 C3.4421875 8.64003906 2.978125 7.92460937 2.5 7.1875 C1.80390625 6.12595703 1.80390625 6.12595703 1.09375 5.04296875 C0 3 0 3 0 0 Z " fill="#DF6D1E" transform="translate(23,140)"/>
<path d="M0 0 C0.66 0 1.32 0 2 0 C2.63275958 7.86429759 3.13572317 15.73633403 3.3125 23.625 C3.34988281 24.91664062 3.38726562 26.20828125 3.42578125 27.5390625 C2.92818715 31.58372649 1.70525328 33.04454988 -1 36 C-1.78946609 38.68507329 -1.78946609 38.68507329 -2 41 C-2.99 41 -3.98 41 -5 41 C-6.6085855 36.98871717 -5.29823435 33.57204008 -4.125 29.625 C-1.9968973 22.25736169 -0.85853557 15.258858 -0.4375 7.625 C-0.37272461 6.52091797 -0.37272461 6.52091797 -0.30664062 5.39453125 C-0.20156201 3.59651932 -0.10037907 1.79828042 0 0 Z " fill="#C45013" transform="translate(193,89)"/>
<path d="M0 0 C1.30747767 3.92243302 0.21676947 6.52679638 -1 10.3125 C-1.22131592 11.01439453 -1.44263184 11.71628906 -1.6706543 12.43945312 C-4.05466425 19.67682941 -7.3726596 26.30980444 -11 33 C-11.33 33 -11.66 33 -12 33 C-12.25 27.375 -12.25 27.375 -10 24 C-9.34 24 -8.68 24 -8 24 C-8 23.01 -8 22.02 -8 21 C-8.33 21.66 -8.66 22.32 -9 23 C-10.32 22.67 -11.64 22.34 -13 22 C-12.34580901 16.93001981 -10.1453591 12.58009223 -8 8 C-7.67 8.66 -7.34 9.32 -7 10 C-6.01 10 -5.02 10 -4 10 C-4.0825 9.278125 -4.165 8.55625 -4.25 7.8125 C-3.92573441 4.16451206 -2.42680413 2.65431702 0 0 Z " fill="#BE5521" transform="translate(195,120)"/>
<path d="M0 0 C3.18460839 4.77691258 4.25028652 7.46962921 4.1953125 13.296875 C4.18564453 15.10478516 4.18564453 15.10478516 4.17578125 16.94921875 C4.15902344 18.20347656 4.14226562 19.45773438 4.125 20.75 C4.11597656 22.01972656 4.10695312 23.28945312 4.09765625 24.59765625 C4.07409005 27.73196093 4.04118832 30.86588541 4 34 C3.34 34 2.68 34 2 34 C1.67 36.31 1.34 38.62 1 41 C0.34 41 -0.32 41 -1 41 C-1.06769294 32.65120438 -0.87044985 24.34012773 -0.5 16 C-0.40555846 13.81252975 -0.31177986 11.62503074 -0.21875 9.4375 C-0.17685547 8.48746094 -0.13496094 7.53742188 -0.09179688 6.55859375 C-0.01340352 4.37358755 0 2.18641204 0 0 Z " fill="#559D1E" transform="translate(135,98)"/>
<path d="M0 0 C3.18251523 2.12167682 4.87267139 3.80900708 7 7 C6.625 9.1875 6.625 9.1875 6 11 C5.525625 10.505 5.05125 10.01 4.5625 9.5 C3.24076302 7.88457803 3.24076302 7.88457803 2 8 C2 6.35 2 4.7 2 3 C0.68 3 -0.64 3 -2 3 C-2 3.99 -2 4.98 -2 6 C-1.34 6 -0.68 6 0 6 C0.4726477 14.19256018 0.4726477 14.19256018 -1.5 17.5625 C-1.995 18.036875 -2.49 18.51125 -3 19 C-3.66 18.67 -4.32 18.34 -5 18 C-4.67 16.02 -4.34 14.04 -4 12 C-4.66 12 -5.32 12 -6 12 C-6 11.01 -6 10.02 -6 9 C-7.97536745 9.34786708 -7.97536745 9.34786708 -10 10 C-10.33 10.66 -10.66 11.32 -11 12 C-10.67 9.69 -10.34 7.38 -10 5 C-9.195625 4.87625 -8.39125 4.7525 -7.5625 4.625 C-6.716875 4.41875 -5.87125 4.2125 -5 4 C-4.67 3.34 -4.34 2.68 -4 2 C-6.64 2.33 -9.28 2.66 -12 3 C-7.94947866 -1.23463595 -5.8191036 -1.28217537 0 0 Z " fill="#77A742" transform="translate(122,49)"/>
<path d="M0 0 C-0.33 1.65 -0.66 3.3 -1 5 C0.32 5 1.64 5 3 5 C3 4.34 3 3.68 3 3 C4.65 3 6.3 3 8 3 C4.51763088 5.99126579 0.63150121 7.50357133 -3.625 9.0625 C-4.33849609 9.32562988 -5.05199219 9.58875977 -5.78710938 9.85986328 C-13.89819421 12.7794868 -21.36185365 14.31993135 -30 14 C-30 13.67 -30 13.34 -30 13 C-28.50146484 12.69255859 -28.50146484 12.69255859 -26.97265625 12.37890625 C-25.03712891 11.97478516 -25.03712891 11.97478516 -23.0625 11.5625 C-21.77472656 11.29566406 -20.48695312 11.02882812 -19.16015625 10.75390625 C-16.15361121 10.32818384 -16.15361121 10.32818384 -15 9 C-12.66702567 8.95907063 -10.33294775 8.95758277 -8 9 C-8.33 6.36 -8.66 3.72 -9 1 C-5.57367167 -0.61798838 -3.61944899 -1.34053666 0 0 Z " fill="#BB5826" transform="translate(137,186)"/>
<path d="M0 0 C0 0.99 0 1.98 0 3 C0.99 2.67 1.98 2.34 3 2 C2.67 4.31 2.34 6.62 2 9 C3.98 7.35 5.96 5.7 8 4 C8.66 4.66 9.32 5.32 10 6 C9.34 6 8.68 6 8 6 C7.8453125 7.6396875 7.8453125 7.6396875 7.6875 9.3125 C7.02692273 12.85559629 6.7972908 13.93243723 4 16 C3.649375 15.54625 3.29875 15.0925 2.9375 14.625 C0.22903794 12.35338666 -2.60795328 11.83201146 -6 11 C-6 8.36 -6 5.72 -6 3 C-5.34 3 -4.68 3 -4 3 C-4 2.34 -4 1.68 -4 1 C-2 0 -2 0 0 0 Z " fill="#7CAE4D" transform="translate(116,58)"/>
<path d="M0 0 C0.66 0.66 1.32 1.32 2 2 C-0.97 1.505 -0.97 1.505 -4 1 C-4 1.66 -4 2.32 -4 3 C-3.01 3.66 -2.02 4.32 -1 5 C-1.33 5.66 -1.66 6.32 -2 7 C-3.65 7 -5.3 7 -7 7 C-7 7.33 -7 7.66 -7 8 C-5.68 8.33 -4.36 8.66 -3 9 C-1.875 14.75 -1.875 14.75 -3 17 C-3.99 17 -4.98 17 -6 17 C-6 17.99 -6 18.98 -6 20 C-6.66 20 -7.32 20 -8 20 C-8 18.68 -8 17.36 -8 16 C-8.99 15.34 -9.98 14.68 -11 14 C-10.67 12.68 -10.34 11.36 -10 10 C-10.66 10 -11.32 10 -12 10 C-11.74327938 6.2347642 -11.40674134 4.44160489 -8.8125 1.625 C-5.53879794 -0.2664723 -3.72155735 -0.49620765 0 0 Z " fill="#7AAC44" transform="translate(97,50)"/>
<path d="M0 0 C3.21049877 -0.15288089 5.68983494 -0.10573809 8.75 0.9375 C12.43433638 2.14199459 15.77942901 2.37252695 19.6328125 2.55859375 C24.19101333 3.40855529 26.83315292 6.83315292 30 10 C30.66 10.33 31.32 10.66 32 11 C32 11.66 32 12.32 32 13 C33.32 13.66 34.64 14.32 36 15 C35.34 15.33 34.68 15.66 34 16 C33.67 16.66 33.34 17.32 33 18 C32.13375 17.154375 31.2675 16.30875 30.375 15.4375 C22.65957519 8.84659055 12.84663283 4.74474203 3.01171875 2.60546875 C2.34785156 2.40566406 1.68398437 2.20585938 1 2 C0.67 1.34 0.34 0.68 0 0 Z " fill="#B34D17" transform="translate(113,31)"/>
<path d="M0 0 C0 0.33 0 0.66 0 1 C4.62 1.66 9.24 2.32 14 3 C14 3.33 14 3.66 14 4 C13.351521 4.02505615 12.70304199 4.0501123 12.03491211 4.07592773 C-0.32302002 4.55842867 -12.66654899 5.07103814 -25 6 C-25 5.01 -25 4.02 -25 3 C-16.51168642 0.43056454 -8.85406634 -0.38558031 0 0 Z " fill="#B44B10" transform="translate(98,27)"/>
<path d="M0 0 C0.33 1.32 0.66 2.64 1 4 C0.01 4.495 0.01 4.495 -1 5 C-1.66 4.67 -2.32 4.34 -3 4 C-2.938125 5.11375 -2.938125 5.11375 -2.875 6.25 C-3 9 -3 9 -4 10.875 C-5.43422946 13.92273759 -5.12761959 16.68189065 -5 20 C-8.04386724 20.08226668 -10.07175348 19.97608217 -13 19 C-12.34 17.02 -11.68 15.04 -11 13 C-11.99 12.67 -12.98 12.34 -14 12 C-13.01 12 -12.02 12 -11 12 C-10.67 10.35 -10.34 8.7 -10 7 C-9.34 7 -8.68 7 -8 7 C-8 6.34 -8 5.68 -8 5 C-6.20963542 3.99088542 -4.41927083 2.98177083 -2.62890625 1.97265625 C-1.02121854 1.1027487 -1.02121854 1.1027487 0 0 Z " fill="#66AA32" transform="translate(113,79)"/>
<path d="M0 0 C2.89645487 3.36090098 4.2270631 6.96281813 5.5625 11.125 C5.97628906 12.36507812 6.39007813 13.60515625 6.81640625 14.8828125 C9.70203983 24.55886443 10.26012463 33.53222962 10.125 43.625 C10.11597656 44.91535156 10.10695312 46.20570312 10.09765625 47.53515625 C10.0742848 50.69030249 10.04152091 53.84504926 10 57 C9.67 57 9.34 57 9 57 C8.16220564 47.29056184 7.87723383 37.73944972 8 28 C7.34 28 6.68 28 6 28 C5.67 28.66 5.34 29.32 5 30 C5.05800781 29.29617187 5.11601562 28.59234375 5.17578125 27.8671875 C5.53107261 20.0913823 4.01035736 14.22554816 1.09375 7.03125 C0 4 0 4 0 0 Z " fill="#B56236" transform="translate(187,61)"/>
<path d="M0 0 C-0.639375 0.309375 -1.27875 0.61875 -1.9375 0.9375 C-3.93610821 1.8345163 -3.93610821 1.8345163 -5 3 C-7.31 3.33 -9.62 3.66 -12 4 C-4.74 4 2.52 4 10 4 C6.41293697 7.58706303 1.6550194 7.05691921 -3.1796875 7.09765625 C-5.07814972 7.09106437 -6.97659996 7.07922033 -8.875 7.0625 C-9.84953125 7.05798828 -10.8240625 7.05347656 -11.828125 7.04882812 C-14.21881434 7.03710906 -16.6093744 7.02070219 -19 7 C-19.66 5.02 -20.32 3.04 -21 1 C-13.97252688 0.33411422 -7.05985273 -0.11766421 0 0 Z " fill="#CEB234" transform="translate(116,111)"/>
<path d="M0 0 C0.99 0 1.98 0 3 0 C2.24145567 5.82328651 -0.56582669 10.8851185 -3.02929688 16.14257812 C-5.27883007 21.0517804 -6.85010186 25.72010121 -8 31 C-8.66 31 -9.32 31 -10 31 C-11.01259981 19.86140211 -5.07667845 9.54415548 0 0 Z " fill="#CA560D" transform="translate(28,54)"/>
<path d="M0 0 C-1.04052078 3.12156235 -1.93177592 3.96071947 -4.8359375 5.6328125 C-15.51914781 10.13721243 -25.31341699 12.38955277 -37 12 C-37 11.34 -37 10.68 -37 10 C-35.8140625 9.86464844 -34.628125 9.72929687 -33.40625 9.58984375 C-23.09067844 8.26733458 -14.38580652 5.9770649 -5.02734375 1.42578125 C-2 0 -2 0 0 0 Z " fill="#C6540E" transform="translate(138,171)"/>
<path d="M0 0 C0.33 0 0.66 0 1 0 C1 2.97 1 5.94 1 9 C3.475 9.99 3.475 9.99 6 11 C5.125 16.875 5.125 16.875 4 18 C5.32 18.66 6.64 19.32 8 20 C6.37660195 21.70884005 4.70680947 23.37446717 3 25 C2.34 25 1.68 25 1 25 C0.24636948 21.64908229 -0.11979937 18.56890188 -0.09765625 15.13671875 C-0.09443359 14.25048828 -0.09121094 13.36425781 -0.08789062 12.45117188 C-0.07951172 11.53916016 -0.07113281 10.62714844 -0.0625 9.6875 C-0.05798828 8.75615234 -0.05347656 7.82480469 -0.04882812 6.86523438 C-0.03709234 4.57675627 -0.02067363 2.28841192 0 0 Z " fill="#3B6316" transform="translate(140,133)"/>
<path d="M0 0 C2.84498745 3.19358275 4.54357897 5.14759761 4.375 9.5 C4.36210937 10.2321875 4.34921875 10.964375 4.3359375 11.71875 C4 14 4 14 3.00390625 16.4296875 C1.57693352 20.08318189 1.60644423 23.59018421 1.44140625 27.4765625 C0.93317349 30.38203476 0.20278477 31.13825551 -2 33 C-3.17574711 35.09989652 -3.17574711 35.09989652 -4 37 C-5.30351971 33.08944086 -4.35817846 31.41215235 -3.125 27.5 C-0.44634077 18.43962844 -0.20221586 9.39292652 0 0 Z " fill="#B96028" transform="translate(170,93)"/>
<path d="M0 0 C0.99 0 1.98 0 3 0 C3.10957031 1.16015625 3.21914062 2.3203125 3.33203125 3.515625 C4.2343147 12.56756545 5.42339058 21.23952799 8 30 C5 29 5 29 3.4375 26.625 C-0.00155267 17.95260632 -0.29009597 9.2347216 0 0 Z " fill="#CD550F" transform="translate(11,100)"/>
<path d="M0 0 C0 2.97 0 5.94 0 9 C-0.33 9 -0.66 9 -1 9 C-1 7.02 -1 5.04 -1 3 C-2.051875 3.7115625 -2.051875 3.7115625 -3.125 4.4375 C-8.76863349 7.50469212 -14.85654567 7.13696117 -21.1171875 7.09765625 C-21.97434357 7.0962413 -22.83149963 7.09482635 -23.71463013 7.09336853 C-26.4347899 7.08780022 -29.15486538 7.07525364 -31.875 7.0625 C-33.72656131 7.0574809 -35.57812391 7.05291871 -37.4296875 7.04882812 C-41.95315715 7.03784117 -46.47656432 7.02059852 -51 7 C-51 6.67 -51 6.34 -51 6 C-50.25540527 5.98018066 -49.51081055 5.96036133 -48.74365234 5.93994141 C-32.68394735 5.4904584 -15.17656962 0 0 0 Z " fill="#BCC854" transform="translate(128,105)"/>
<path d="M0 0 C3.375 0.25 3.375 0.25 7 1 C8.4375 3.0625 8.4375 3.0625 9 5 C10.65 5 12.3 5 14 5 C14 5.33 14 5.66 14 6 C9.545 6.495 9.545 6.495 5 7 C4.67 9.31 4.34 11.62 4 14 C3.01 14 2.02 14 1 14 C0.67 12.02 0.34 10.04 0 8 C-0.99 7.67 -1.98 7.34 -3 7 C-3.33 8.98 -3.66 10.96 -4 13 C-4.33 13 -4.66 13 -5 13 C-5.125 10.125 -5.125 10.125 -5 7 C-3 5 -3 5 -0.375 4.875 C0.40875 4.91625 1.1925 4.9575 2 5 C1.01 4.01 0.02 3.02 -1 2 C-0.67 1.34 -0.34 0.68 0 0 Z " fill="#69AD31" transform="translate(93,51)"/>
<path d="M0 0 C0.99 1.32 1.98 2.64 3 4 C2.34 5.32 1.68 6.64 1 8 C-0.32 8 -1.64 8 -3 8 C-3.33 8.99 -3.66 9.98 -4 11 C-4.66 10.67 -5.32 10.34 -6 10 C-6.350625 10.495 -6.70125 10.99 -7.0625 11.5 C-9.94374289 13.73063966 -12.47009026 13.19980621 -16 13 C-11.3126338 7.82773385 -5.68271819 4.01074507 0 0 Z " fill="#C65112" transform="translate(159,170)"/>
<path d="M0 0 C1.65 0.33 3.3 0.66 5 1 C3.99667352 6.94074887 2.69087294 11.20186518 -1 16 C-1.33 15.01 -1.66 14.02 -2 13 C-2.66 13 -3.32 13 -4 13 C-5 10 -5 10 -4.00390625 7.51953125 C-3.52824219 6.62621094 -3.05257812 5.73289063 -2.5625 4.8125 C-2.08941406 3.91144531 -1.61632812 3.01039063 -1.12890625 2.08203125 C-0.75636719 1.39496094 -0.38382813 0.70789063 0 0 Z " fill="#E17524" transform="translate(170,128)"/>
<path d="M0 0 C0.99 0 1.98 0 3 0 C5.23563868 7.62938829 7.3423247 15.22167745 9 23 C9.33 23.99 9.66 24.98 10 26 C9.34 26.33 8.68 26.66 8 27 C3.75022611 18.46685716 0 9.66795839 0 0 Z " fill="#C5510F" transform="translate(24,110)"/>
<path d="M0 0 C9.41002278 -0.18451025 9.41002278 -0.18451025 14 1 C13.67 3.31 13.34 5.62 13 8 C12.01 8 11.02 8 10 8 C9.71125 7.195625 9.4225 6.39125 9.125 5.5625 C8.26737432 2.8673532 8.26737432 2.8673532 6 2 C5.71125 2.969375 5.4225 3.93875 5.125 4.9375 C4 8 4 8 2 9 C0.14223235 5.86501708 -0.20140476 3.62528568 0 0 Z " fill="#82AB58" transform="translate(68,97)"/>
<path d="M0 0 C9.91159552 0.59469573 20.07701169 3.96745115 28 10 C28 10.66 28 11.32 28 12 C18.40008807 8.93915851 9.17039851 5.16433555 0 1 C0 0.67 0 0.34 0 0 Z " fill="#CA560D" transform="translate(115,15)"/>
<path d="M0 0 C9.03056332 1.26744748 16.17817999 5.56866587 24 10 C24 10.33 24 10.66 24 11 C18.26858753 11.40886509 15.01215057 10.35753022 10.0625 7.5 C8.91910156 6.8503125 7.77570313 6.200625 6.59765625 5.53125 C5.74042969 5.0259375 4.88320312 4.520625 4 4 C4 3.34 4 2.68 4 2 C2.68 2 1.36 2 0 2 C0 1.34 0 0.68 0 0 Z " fill="#BD602B" transform="translate(129,11)"/>
<path d="M0 0 C7.92 3.96 7.92 3.96 16 8 C15.67 9.32 15.34 10.64 15 12 C15.556875 12.12375 16.11375 12.2475 16.6875 12.375 C19.22114364 13.05976855 21.57921032 13.99133763 24 15 C24 15.66 24 16.32 24 17 C22.5410574 16.52269162 21.08286504 16.04308958 19.625 15.5625 C18.81289063 15.29566406 18.00078125 15.02882812 17.1640625 14.75390625 C15 14 15 14 13 13 C13 11.68 13 10.36 13 9 C10.03 8.505 10.03 8.505 7 8 C7 7.34 7 6.68 7 6 C6.401875 5.87625 5.80375 5.7525 5.1875 5.625 C3 5 3 5 0 3 C0 2.01 0 1.02 0 0 Z " fill="#C14E0F" transform="translate(44,177)"/>
<path d="M0 0 C0.33 0 0.66 0 1 0 C1 5.94 1 11.88 1 18 C0.67 18 0.34 18 0 18 C0 16.35 0 14.7 0 13 C-0.72670898 13.16226074 -1.45341797 13.32452148 -2.20214844 13.49169922 C-4.79913229 13.96350728 -7.13258038 14.12908298 -9.765625 14.1328125 C-11.10173828 14.13474609 -11.10173828 14.13474609 -12.46484375 14.13671875 C-13.38394531 14.13285156 -14.30304688 14.12898437 -15.25 14.125 C-16.15363281 14.12886719 -17.05726562 14.13273438 -17.98828125 14.13671875 C-23.73646937 14.12844798 -29.29849268 13.73305094 -35 13 C-35.33 12.01 -35.66 11.02 -36 10 C-35.32839844 10.144375 -34.65679687 10.28875 -33.96484375 10.4375 C-22.68114385 12.53408424 -11.43440059 12.17576363 0 12 C0 8.04 0 4.08 0 0 Z " fill="#BEAE2D" transform="translate(122,149)"/>
<path d="M0 0 C7.24277937 1.75675925 14.15633938 4.22560494 20 9 C20 9.99 20 10.98 20 12 C15.08558588 10.56347895 10.99761642 8.45840385 6.625 5.875 C5.98433594 5.50246094 5.34367188 5.12992188 4.68359375 4.74609375 C3.11951523 3.83565998 1.55934466 2.91851809 0 2 C0 1.34 0 0.68 0 0 Z " fill="#CB540D" transform="translate(137,29)"/>
<path d="M0 0 C0.33 0 0.66 0 1 0 C1.33 4.29 1.66 8.58 2 13 C2.99 13 3.98 13 5 13 C5 13.66 5 14.32 5 15 C8.465 14.505 8.465 14.505 12 14 C12 13.34 12 12.68 12 12 C12.78375 11.690625 13.5675 11.38125 14.375 11.0625 C16.92330128 10.07124962 16.92330128 10.07124962 19 9 C18.34 10.32 17.68 11.64 17 13 C15.68 13 14.36 13 13 13 C13 13.66 13 14.32 13 15 C11.68 15 10.36 15 9 15 C9 15.66 9 16.32 9 17 C4.545 18.485 4.545 18.485 0 20 C0 13.4 0 6.8 0 0 Z " fill="#7D9824" transform="translate(123,149)"/>
<path d="M0 0 C1.8871875 0.0309375 1.8871875 0.0309375 3.8125 0.0625 C3.8125 0.3925 3.8125 0.7225 3.8125 1.0625 C2.99007812 1.29324219 2.16765625 1.52398437 1.3203125 1.76171875 C-8.37485327 4.59414016 -16.94445307 8.20559824 -25.1875 14.0625 C-25.5175 13.0725 -25.8475 12.0825 -26.1875 11.0625 C-25.5275 10.7325 -24.8675 10.4025 -24.1875 10.0625 C-24.1875 9.4025 -24.1875 8.7425 -24.1875 8.0625 C-22.764375 7.7221875 -22.764375 7.7221875 -21.3125 7.375 C-17.0721573 6.18078104 -13.31323609 4.21991159 -9.421875 2.18359375 C-6.15161107 0.54274454 -3.61285242 -0.05922709 0 0 Z " fill="#B35622" transform="translate(81.1875,31.9375)"/>
<path d="M0 0 C1.65 0 3.3 0 5 0 C6.04449911 3.13349732 5.93423645 3.98968256 5 7 C-1.68993219 6.46048934 -7.63460728 5.11293829 -14 3 C-14 2.67 -14 2.34 -14 2 C-9.38 2 -4.76 2 0 2 C0 1.34 0 0.68 0 0 Z " fill="#BD5824" transform="translate(82,192)"/>
<path d="M0 0 C0.33 0.99 0.66 1.98 1 3 C0.04060332 4.69036558 -0.96642853 6.35394174 -2 8 C-2.28875 8.969375 -2.5775 9.93875 -2.875 10.9375 C-4.3097404 14.8431822 -6.13479723 16.9915371 -9 20 C-9.66 20 -10.32 20 -11 20 C-11 19.34 -11 18.68 -11 18 C-11.66 17.67 -12.32 17.34 -13 17 C-12.48050781 16.443125 -11.96101562 15.88625 -11.42578125 15.3125 C-6.98961123 10.4581328 -3.30695986 5.68383725 0 0 Z " fill="#B04910" transform="translate(161,136)"/>
<path d="M0 0 C-0.3125 1.875 -0.3125 1.875 -1 4 C-1.99 4.66 -2.98 5.32 -4 6 C-4.99 7.485 -4.99 7.485 -6 9 C-6.99 8.67 -7.98 8.34 -9 8 C-9 7.01 -9 6.02 -9 5 C-11.97 4.505 -11.97 4.505 -15 4 C-10.7923604 -0.2076396 -5.6868542 -0.22747417 0 0 Z " fill="#6CA538" transform="translate(62,74)"/>
<path d="M0 0 C-0.83144531 0.74765625 -1.66289063 1.4953125 -2.51953125 2.265625 C-3.61735364 3.26023332 -4.71500067 4.25503521 -5.8125 5.25 C-6.63331055 5.98669922 -6.63331055 5.98669922 -7.47070312 6.73828125 C-9.80174206 8.85740755 -11.87041644 10.82645572 -13.76171875 13.359375 C-14.37466797 14.17148437 -14.37466797 14.17148437 -15 15 C-15.66 15 -16.32 15 -17 15 C-16.33417999 9.17407487 -13.22553117 5.96202698 -8.9375 2.25 C-4.18064516 -1.39354839 -4.18064516 -1.39354839 0 0 Z " fill="#B7551A" transform="translate(44,28)"/>
<path d="M0 0 C7.59 0 15.18 0 23 0 C23 0.33 23 0.66 23 1 C20.36 1.33 17.72 1.66 15 2 C14.67 2.99 14.34 3.98 14 5 C10.37 5 6.74 5 3 5 C3.66 4.67 4.32 4.34 5 4 C5 3.01 5 2.02 5 1 C3.35 1 1.7 1 0 1 C0 0.67 0 0.34 0 0 Z " fill="#C85E14" transform="translate(85,172)"/>
<path d="M0 0 C5.57142857 5.14285714 5.57142857 5.14285714 6 9 C6.66 9 7.32 9 8 9 C9.5078125 10.96875 9.5078125 10.96875 11.125 13.5 C11.66382813 14.3353125 12.20265625 15.170625 12.7578125 16.03125 C13.16773438 16.6809375 13.57765625 17.330625 14 18 C8.82427593 16.73202175 6.68251076 15.01604492 3.625 10.6875 C2.93664062 9.74261719 2.24828125 8.79773438 1.5390625 7.82421875 C-0.07272832 4.86654169 -0.34897594 3.30323777 0 0 Z " fill="#BA5117" transform="translate(19,151)"/>
<path d="M0 0 C2.5625 0.375 2.5625 0.375 4.4375 1.9375 C6.06020532 5.45336153 5.58397931 7.69767449 4.5625 11.375 C2.5 12.8125 2.5 12.8125 0.5625 13.375 C0.8925 11.065 1.2225 8.755 1.5625 6.375 C0.9025 6.375 0.2425 6.375 -0.4375 6.375 C-0.4375 5.385 -0.4375 4.395 -0.4375 3.375 C-2.41286745 3.72286708 -2.41286745 3.72286708 -4.4375 4.375 C-4.7675 5.035 -5.0975 5.695 -5.4375 6.375 C-4.69610999 2.66804994 -4.06777946 0.62581222 0 0 Z " fill="#E5E4CD" transform="translate(116.4375,54.625)"/>
<path d="M0 0 C0.33 0 0.66 0 1 0 C1.02690844 2.62506802 1.04679404 5.24986173 1.0625 7.875 C1.07087891 8.62136719 1.07925781 9.36773437 1.08789062 10.13671875 C1.11328125 15.7734375 1.11328125 15.7734375 0 18 C-0.18246399 19.64217588 -0.32162845 21.28928627 -0.4375 22.9375 C-0.91095531 28.71060022 -1.86902033 34.32314087 -3 40 C-3.33 40 -3.66 40 -4 40 C-4.33398256 31.10655475 -3.29856658 22.59975967 -2 13.8125 C-1.80658836 12.4655956 -1.6138756 11.11859064 -1.421875 9.77148438 C-0.95474777 6.51327191 -0.48065407 3.25623958 0 0 Z " fill="#74A624" transform="translate(128,105)"/>
<path d="M0 0 C0.66 0 1.32 0 2 0 C2.39992826 5.3490405 1.06717979 9.07020372 -1 13.875 C-1.28617188 14.56335938 -1.57234375 15.25171875 -1.8671875 15.9609375 C-2.56870553 17.64458078 -3.28305756 19.3228668 -4 21 C-4.66 21 -5.32 21 -6 21 C-5.55355616 13.41045469 -2.88499438 6.98360263 0 0 Z " fill="#CA560C" transform="translate(178,122)"/>
<path d="M0 0 C1.258125 -0.04125 2.51625 -0.0825 3.8125 -0.125 C4.52019531 -0.14820313 5.22789062 -0.17140625 5.95703125 -0.1953125 C8 0 8 0 11 2 C11.36328125 3.875 11.36328125 3.875 11.3125 6 C11.30863281 6.70125 11.30476562 7.4025 11.30078125 8.125 C11 10 11 10 9 12 C8.68546875 11.46890625 8.3709375 10.9378125 8.046875 10.390625 C5.68044412 6.48458848 3.44694458 3.06395074 0 0 Z " fill="#365717" transform="translate(136,63)"/>
<path d="M0 0 C4.73789165 1.44323469 8.98858151 3.37226733 13.375 5.625 C14.01566406 5.94984375 14.65632813 6.2746875 15.31640625 6.609375 C16.87947501 7.40257407 18.44000622 8.20077031 20 9 C20 9.66 20 10.32 20 11 C15.10099849 10.4498845 11.51048663 8.96682361 7.1875 6.625 C6.04667969 6.01914063 4.90585937 5.41328125 3.73046875 4.7890625 C1 3 1 3 0 0 Z " fill="#C8550D" transform="translate(54,173)"/>
<path d="M0 0 C0.33 0.66 0.66 1.32 1 2 C2.155 2.309375 3.31 2.61875 4.5 2.9375 C6.2325 3.4634375 6.2325 3.4634375 8 4 C8.33 4.99 8.66 5.98 9 7 C10.40105576 8.42857119 10.40105576 8.42857119 12.0625 9.6875 C13.5165625 10.8321875 13.5165625 10.8321875 15 12 C13.3515625 12.765625 13.3515625 12.765625 11 13 C8.2734375 11.234375 8.2734375 11.234375 5.375 8.75 C4.41335937 7.94046875 3.45171875 7.1309375 2.4609375 6.296875 C0 4 0 4 -2 1 C-1.34 0.67 -0.68 0.34 0 0 Z " fill="#C65110" transform="translate(47,153)"/>
<path d="M0 0 C0.99 0.99 1.98 1.98 3 3 C1.44148245 3.82011312 -0.12201716 4.63076213 -1.6875 5.4375 C-2.99267578 6.11619141 -2.99267578 6.11619141 -4.32421875 6.80859375 C-7.54140057 8.24106157 -10.47564091 9 -14 9 C-13.67 9.99 -13.34 10.98 -13 12 C-13.99 12 -14.98 12 -16 12 C-15.8671875 10.23046875 -15.8671875 10.23046875 -15 8 C-12.3828125 6.11328125 -12.3828125 6.11328125 -9.125 4.3125 C-7.52011719 3.40951172 -7.52011719 3.40951172 -5.8828125 2.48828125 C-3 1 -3 1 0 0 Z " fill="#C65211" transform="translate(71,31)"/>
<path d="M0 0 C-8.81771367 7.22366475 -21.14923034 6.63109927 -32 7 C-32.33 6.34 -32.66 5.68 -33 5 C-31.84242187 4.95101562 -30.68484375 4.90203125 -29.4921875 4.8515625 C-27.9531033 4.77648522 -26.4140419 4.70093957 -24.875 4.625 C-23.73417969 4.57859375 -23.73417969 4.57859375 -22.5703125 4.53125 C-17.04349107 4.24537993 -12.53002036 3.11074064 -7.4375 0.875 C-4.80171456 -0.07117939 -2.77832339 -0.15876134 0 0 Z " fill="#76A423" transform="translate(128,104)"/>
<path d="M0 0 C0 0.66 0 1.32 0 2 C-0.97582031 2.55429687 -1.95164062 3.10859375 -2.95703125 3.6796875 C-4.24222019 4.41140091 -5.52737464 5.14317492 -6.8125 5.875 C-7.45509766 6.23980469 -8.09769531 6.60460937 -8.75976562 6.98046875 C-11.56768798 8.58083901 -14.30964298 10.20642866 -17 12 C-17.99 12 -18.98 12 -20 12 C-18.867834 8.60350201 -18.4747525 8.39788788 -15.5078125 6.73828125 C-14.45013672 6.14370117 -14.45013672 6.14370117 -13.37109375 5.53710938 C-12.62988281 5.13298828 -11.88867188 4.72886719 -11.125 4.3125 C-10.39152344 3.89677734 -9.65804687 3.48105469 -8.90234375 3.05273438 C-3.39839901 0 -3.39839901 0 0 0 Z " fill="#CA570E" transform="translate(81,17)"/>
<path d="M0 0 C1.65 0.33 3.3 0.66 5 1 C5.33 2.65 5.66 4.3 6 6 C0.125 11 0.125 11 -1 11 C-1.125 3.375 -1.125 3.375 0 0 Z " fill="#3A5019" transform="translate(143,93)"/>
<path d="M0 0 C3 1 3 1 4.421875 3.84375 C7.01231033 10.97506609 8.70300855 16.40196183 7 24 C6.67 24 6.34 24 6 24 C5.85304687 23.12601563 5.85304687 23.12601563 5.703125 22.234375 C4.58363232 16.09646686 2.88145192 10.35038937 0.8046875 4.46875 C0 2 0 2 0 0 Z " fill="#C95213" transform="translate(185,64)"/>
<path d="M0 0 C1.32 0.33 2.64 0.66 4 1 C4.33 2.65 4.66 4.3 5 6 C0.25 10 0.25 10 -2 10 C-2.25 3.375 -2.25 3.375 0 0 Z " fill="#445C23" transform="translate(142,106)"/>
<path d="M0 0 C1.859375 0.24609375 1.859375 0.24609375 4 1 C5.265625 2.84765625 5.265625 2.84765625 6.25 5.0625 C6.75273437 6.16271484 6.75273437 6.16271484 7.265625 7.28515625 C7.50796875 7.85105469 7.7503125 8.41695312 8 9 C7.67 9.33 7.34 9.66 7 10 C6.76924918 11.34747084 6.58846937 12.70377565 6.4375 14.0625 C6.293125 15.361875 6.14875 16.66125 6 18 C2.7213307 15.4200635 2.41924256 13.03729027 1.875 9 C1.43226765 5.83096843 1.01326281 3.03978842 0 0 Z " fill="#5C972D" transform="translate(139,68)"/>
<path d="M0 0 C2.38691438 0.92396686 3.71023043 1.49290326 5 3.75 C5 7.3160763 3.15910176 9.28570064 1 12 C0.34 12 -0.32 12 -1 12 C-1.02687279 10.18757948 -1.04633715 8.37504767 -1.0625 6.5625 C-1.07410156 5.55316406 -1.08570313 4.54382813 -1.09765625 3.50390625 C-1 1 -1 1 0 0 Z " fill="#2F5610" transform="translate(146,77)"/>
<path d="M0 0 C0.99 0 1.98 0 3 0 C3.67154933 1.28913487 4.33708859 2.58140204 5 3.875 C5.37125 4.59429687 5.7425 5.31359375 6.125 6.0546875 C7 8 7 8 7 10 C7.66 10 8.32 10 9 10 C9.66 11.65 10.32 13.3 11 15 C9.234375 14.8359375 9.234375 14.8359375 7 14 C5.078125 11.6015625 5.078125 11.6015625 3.25 8.625 C2.63640625 7.64789063 2.0228125 6.67078125 1.390625 5.6640625 C0 3 0 3 0 0 Z " fill="#CA5409" transform="translate(23,140)"/>
<path d="M0 0 C0.99 0.495 0.99 0.495 2 1 C2.625 3.5625 2.625 3.5625 3 6 C4.32 6 5.64 6 7 6 C7 4.68 7 3.36 7 2 C9 3 9 3 10 5 C9.34 5 8.68 5 8 5 C7.67 6.32 7.34 7.64 7 9 C5.02 8.34 3.04 7.68 1 7 C1.33 10.96 1.66 14.92 2 19 C1.67 19 1.34 19 1 19 C-0.00926479 14.84373632 -0.10239579 10.95634906 -0.0625 6.6875 C-0.05347656 5.43324219 -0.04445312 4.17898437 -0.03515625 2.88671875 C-0.01775391 1.45779297 -0.01775391 1.45779297 0 0 Z " fill="#6DA63A" transform="translate(37,77)"/>
<path d="M0 0 C0.33 1.32 0.66 2.64 1 4 C2.32 4.33 3.64 4.66 5 5 C4.67 5.99 4.34 6.98 4 8 C2.576875 8.2165625 2.576875 8.2165625 1.125 8.4375 C-1.8934494 8.82935399 -1.8934494 8.82935399 -4 10 C-4.33 10.99 -4.66 11.98 -5 13 C-5.66 13 -6.32 13 -7 13 C-5.35821735 8.22390502 -2.73453298 4.20617096 0 0 Z " fill="#FBEEC3" transform="translate(43,58)"/>
<path d="M0 0 C0 0.99 0 1.98 0 3 C0.99 2.67 1.98 2.34 3 2 C2.67 4.31 2.34 6.62 2 9 C-2.875 8.125 -2.875 8.125 -4 7 C-4.04080783 5.00041636 -4.04254356 2.99954746 -4 1 C-2 0 -2 0 0 0 Z " fill="#543534" transform="translate(116,58)"/>
<path d="M0 0 C2.10837598 3.16256397 2.97900679 5.80800373 4.0625 9.4375 C4.57490234 11.13712891 4.57490234 11.13712891 5.09765625 12.87109375 C5.39542969 13.90363281 5.69320312 14.93617188 6 16 C6.36931641 17.13115234 6.36931641 17.13115234 6.74609375 18.28515625 C6.82988281 18.85105469 6.91367187 19.41695312 7 20 C6.34 20.66 5.68 21.32 5 22 C0.27788847 15.34611557 -0.2882952 7.92811804 0 0 Z " fill="#B75C26" transform="translate(29,114)"/>
<path d="M0 0 C2.125 0.9375 2.125 0.9375 4 2 C2.69088122 3.50295185 1.37761608 5.00229311 0.0625 6.5 C-0.66839844 7.3353125 -1.39929688 8.170625 -2.15234375 9.03125 C-2.76207031 9.6809375 -3.37179688 10.330625 -4 11 C-4.33 11 -4.66 11 -5 11 C-5.36783439 4.50159236 -5.36783439 4.50159236 -3.625 2.125 C-2 1 -2 1 0 0 Z " fill="#BC5621" transform="translate(175,159)"/>
<path d="M0 0 C0.33 0 0.66 0 1 0 C1 2.64 1 5.28 1 8 C0.34 8 -0.32 8 -1 8 C-1.33 10.31 -1.66 12.62 -2 15 C-2.66 15 -3.32 15 -4 15 C-4.05389087 13.04196493 -4.09274217 11.08351091 -4.125 9.125 C-4.14820313 8.03445312 -4.17140625 6.94390625 -4.1953125 5.8203125 C-4 3 -4 3 -2 1 C-1.67 1.66 -1.34 2.32 -1 3 C-0.67 2.01 -0.34 1.02 0 0 Z " fill="#59A028" transform="translate(138,124)"/>
<path d="M0 0 C0 0.66 0 1.32 0 2 C-0.99 2 -1.98 2 -3 2 C-3 2.66 -3 3.32 -3 4 C-7.33273814 4.92844389 -10.66726186 4.92844389 -15 4 C-15 5.65 -15 7.3 -15 9 C-16.32 9.33 -17.64 9.66 -19 10 C-18.12190264 5.346084 -18.12190264 5.346084 -16 3 C-10.90840303 1.22314907 -5.41831347 0 0 0 Z " fill="#6CA63B" transform="translate(98,97)"/>
<path d="M0 0 C0.66 0 1.32 0 2 0 C6.17306438 8.42715914 7.1299372 16.77275506 8 26 C7.34 26 6.68 26 6 26 C5.81824219 24.92621094 5.63648438 23.85242188 5.44921875 22.74609375 C5.19575817 21.30981711 4.94182672 19.87362352 4.6875 18.4375 C4.51057617 17.38079102 4.51057617 17.38079102 4.33007812 16.30273438 C3.68469285 12.71174453 2.88838091 9.49826474 1.39453125 6.16015625 C0 3 0 3 0 0 Z " fill="#CB580E" transform="translate(172,70)"/>
<path d="M0 0 C3 1 3 1 5 3 C5.66 3 6.32 3 7 3 C9.84450614 6.71973879 10.3227506 9.37390802 10 14 C5.40783094 9.93265026 2.7832093 5.43614072 0 0 Z " fill="#FBEFBC" transform="translate(36,134)"/>
<path d="M0 0 C0.33 0.66 0.66 1.32 1 2 C1.66 2.33 2.32 2.66 3 3 C3.49281314 10.39219713 3.49281314 10.39219713 1.125 13.3125 C0.42375 13.869375 -0.2775 14.42625 -1 15 C-1.99 16.485 -1.99 16.485 -3 18 C-3.66 17.67 -4.32 17.34 -5 17 C-3.86695008 13.60085025 -2.87481525 12.94745549 0 11 C-0.49831724 7.31245243 -1.10067643 5.39509338 -4 3 C-2.68 2.01 -1.36 1.02 0 0 Z " fill="#E1E9BB" transform="translate(146,101)"/>
<path d="M0 0 C-1.5885342 4.28904235 -4.43127368 6.32345526 -8 9 C-8.66 9 -9.32 9 -10 9 C-10.33 9.99 -10.66 10.98 -11 12 C-11.66 12 -12.32 12 -13 12 C-12.75 10.125 -12.75 10.125 -12 8 C-10.67532254 7.3162955 -9.34136367 6.65035814 -8 6 C-7.30062468 4.68352881 -6.63270867 3.34977849 -6 2 C-3 0 -3 0 0 0 Z " fill="#CF570D" transform="translate(56,29)"/>
<path d="M0 0 C3.465 1.485 3.465 1.485 7 3 C1.29268293 10.13414634 1.29268293 10.13414634 -2 12 C-2.99 11.67 -3.98 11.34 -5 11 C-4.67 10.01 -4.34 9.02 -4 8 C-1.9375 7.3125 -1.9375 7.3125 0 7 C0.93423645 3.98968256 1.04449911 3.13349732 0 0 Z " fill="#B85C2E" transform="translate(160,170)"/>
<path d="M0 0 C0.66 0 1.32 0 2 0 C2.02701408 2.10409639 2.04640223 4.20829178 2.0625 6.3125 C2.07410156 7.48425781 2.08570313 8.65601562 2.09765625 9.86328125 C2 13 2 13 1 16 C0.34 16 -0.32 16 -1 16 C-1.02692484 13.70839681 -1.04636124 11.41670454 -1.0625 9.125 C-1.07410156 7.84882812 -1.08570313 6.57265625 -1.09765625 5.2578125 C-1 2 -1 2 0 0 Z " fill="#CB5A0D" transform="translate(184,99)"/>
<path d="M0 0 C0.33 1.32 0.66 2.64 1 4 C-0.98 4.66 -2.96 5.32 -5 6 C-5 5.01 -5 4.02 -5 3 C-5.66 3 -6.32 3 -7 3 C-7.33 3.99 -7.66 4.98 -8 6 C-8.33 5.34 -8.66 4.68 -9 4 C-8.67 3.34 -8.34 2.68 -8 2 C-8.66 1.67 -9.32 1.34 -10 1 C-6.78548731 -0.60725635 -3.56387464 -0.05748185 0 0 Z " fill="#549226" transform="translate(124,76)"/>
<path d="M0 0 C1.9375 1.375 1.9375 1.375 2.6875 3.5625 C2.97945342 6.84697601 3.00212101 10.0793286 2.9375 13.375 C0.87164468 11.30914468 -0.27432288 9.42037166 -1.6875 6.875 C-2.13351563 6.0809375 -2.57953125 5.286875 -3.0390625 4.46875 C-4.0625 2.375 -4.0625 2.375 -4.0625 0.375 C-2.0625 -0.625 -2.0625 -0.625 0 0 Z " fill="#B15119" transform="translate(162.0625,59.625)"/>
<path d="M0 0 C1.31354934 3.94064801 0.30975532 5.3016095 -1.3125 9.0625 C-1.98732422 10.65771484 -1.98732422 10.65771484 -2.67578125 12.28515625 C-4 15 -4 15 -6 17 C-5.5547115 11.72684667 -4.91626837 6.98229776 -3 2 C-2.01 2 -1.02 2 0 2 C0 1.34 0 0.68 0 0 Z " fill="#FCF0BF" transform="translate(166,121)"/>
<path d="M0 0 C2.5 0.25 2.5 0.25 4.5 2.25 C4.625 5.875 4.625 5.875 4.5 9.25 C3.51 9.25 2.52 9.25 1.5 9.25 C1.17 7.27 0.84 5.29 0.5 3.25 C-0.49 2.92 -1.48 2.59 -2.5 2.25 C-2.83 4.23 -3.16 6.21 -3.5 8.25 C-3.83 8.25 -4.16 8.25 -4.5 8.25 C-4.625 5.375 -4.625 5.375 -4.5 2.25 C-2.5 0.25 -2.5 0.25 0 0 Z " fill="#D7D7BD" transform="translate(92.5,55.75)"/>
<path d="M0 0 C0.66 0 1.32 0 2 0 C1.84700073 5.04897583 -0.97351091 7.34544389 -4.40625 10.64453125 C-6 12 -6 12 -7 12 C-7.3125 9.8125 -7.3125 9.8125 -7 7 C-4.625 4.1875 -4.625 4.1875 -2 2 C-1.34 2 -0.68 2 0 2 C0 1.34 0 0.68 0 0 Z " fill="#B7561F" transform="translate(52,44)"/>
<path d="M0 0 C2.08666296 4.02427857 3.80627466 7.74078526 4.5 12.25 C4.7475 13.61125 4.7475 13.61125 5 15 C5.66 15.33 6.32 15.66 7 16 C7 17.32 7 18.64 7 20 C6.34 20 5.68 20 5 20 C4.67 20.66 4.34 21.32 4 22 C3.72285156 20.87980469 3.44570312 19.75960937 3.16015625 18.60546875 C2.79433333 17.13279698 2.42844447 15.66014158 2.0625 14.1875 C1.88009766 13.44951172 1.69769531 12.71152344 1.50976562 11.95117188 C0.7577385 8.92939016 -0.01485573 5.95543282 -1 3 C-0.67 2.01 -0.34 1.02 0 0 Z " fill="#AF5119" transform="translate(166,71)"/>
<path d="M0 0 C1.4655878 3.93134024 0.60032919 7.16510946 -0.25 11.1875 C-0.62898437 13.06501953 -0.62898437 13.06501953 -1.015625 14.98046875 C-1.34046875 15.97691406 -1.6653125 16.97335938 -2 18 C-2.99 18.33 -3.98 18.66 -5 19 C-4.48378772 12.16018724 -2.51409031 6.36123316 0 0 Z " fill="#BB622C" transform="translate(11,64)"/>
<path d="M0 0 C0.66 0 1.32 0 2 0 C2 1.32 2 2.64 2 4 C3.4166747 5.7511573 3.4166747 5.7511573 5 7 C4.67 7.99 4.34 8.98 4 10 C4.66 10.33 5.32 10.66 6 11 C2.7 10.34 -0.6 9.68 -4 9 C-3.34 8.01 -2.68 7.02 -2 6 C-1.34 6 -0.68 6 0 6 C0 4.02 0 2.04 0 0 Z " fill="#5C9A29" transform="translate(85,60)"/>
<path d="M0 0 C2.15305957 3.85756507 3.39253254 6.55129785 3 11 C2.01 11 1.02 11 0 11 C-0.67154933 9.71086513 -1.33708859 8.41859796 -2 7.125 C-2.37125 6.40570313 -2.7425 5.68640625 -3.125 4.9453125 C-4 3 -4 3 -4 1 C-2 0 -2 0 0 0 Z " fill="#BC4F1C" transform="translate(184,53)"/>
<path d="M0 0 C0.99 0.33 1.98 0.66 3 1 C3.33808686 3.06172613 3.67027361 5.1244203 4 7.1875 C4.185625 8.33605469 4.37125 9.48460938 4.5625 10.66796875 C4.93489477 13.50415393 5.08596021 16.14719564 5 19 C2.48768622 16.48768622 2.21338287 14.62148234 1.375 11.1875 C1.11460938 10.14980469 0.85421875 9.11210938 0.5859375 8.04296875 C0.05085782 5.26412163 -0.11460481 2.81823638 0 0 Z " fill="#B9683B" transform="translate(5,117)"/>
<path d="M0 0 C2 1 2 1 2.62109375 2.734375 C3.04706889 5.28144284 3.09646629 7.66856169 3.0625 10.25 C3.05347656 11.14203125 3.04445312 12.0340625 3.03515625 12.953125 C3.02355469 13.62859375 3.01195312 14.3040625 3 15 C2.34 15 1.68 15 1 15 C0.63355422 13.44033408 0.28239138 11.87707349 -0.0625 10.3125 C-0.25972656 9.44238281 -0.45695313 8.57226562 -0.66015625 7.67578125 C-1.02032279 4.83998724 -0.70909969 2.75210018 0 0 Z " fill="#E57526" transform="translate(174,79)"/>
<path d="M0 0 C4.30764815 1.56641751 8.06171464 3.68336156 12 6 C12 6.66 12 7.32 12 8 C14.97 8.495 14.97 8.495 18 9 C18 9.99 18 10.98 18 12 C13.3811151 10.68618385 10.03300555 8.86177157 6.1875 6 C5.23230469 5.29875 4.27710938 4.5975 3.29296875 3.875 C1 2 1 2 0 0 Z " fill="#B15B2D" transform="translate(39,177)"/>
<path d="M0 0 C4 1 4 1 6 3 C5.74739753 6.78903708 3.72150557 8.54186593 1 11 C0.67 7.37 0.34 3.74 0 0 Z " fill="#405824" transform="translate(140,130)"/>
<path d="M0 0 C0.66 0.66 1.32 1.32 2 2 C1.443125 2.3403125 0.88625 2.680625 0.3125 3.03125 C-5.5357707 6.7456922 -10.28365351 10.93667434 -15 16 C-15.66 15.67 -16.32 15.34 -17 15 C-15.29798107 13.243468 -13.58884897 11.49492913 -11.875 9.75 C-11.400625 9.25886719 -10.92625 8.76773438 -10.4375 8.26171875 C-7.1995368 4.97999929 -3.91434179 2.43920408 0 0 Z " fill="#FCECB9" transform="translate(61,42)"/>
<path d="M0 0 C0.474375 0.639375 0.94875 1.27875 1.4375 1.9375 C5.02631188 6.22656786 9.00987556 10.08660872 13 14 C12.34 14.66 11.68 15.32 11 16 C8.14116069 13.2252442 5.36491168 10.38837653 2.6875 7.4375 C2.17574219 6.87933594 1.66398437 6.32117188 1.13671875 5.74609375 C0 4 0 4 0 0 Z " fill="#B35C25" transform="translate(40,141)"/>
<path d="M0 0 C0.33 0 0.66 0 1 0 C1 2.97 1 5.94 1 9 C3.475 9.99 3.475 9.99 6 11 C6 11.99 6 12.98 6 14 C4.35 14.33 2.7 14.66 1 15 C-0.44207941 12.11584117 -0.09394887 9.58278472 -0.0625 6.375 C-0.05347656 5.18648437 -0.04445312 3.99796875 -0.03515625 2.7734375 C-0.02355469 1.85820312 -0.01195312 0.94296875 0 0 Z " fill="#335213" transform="translate(140,133)"/>
<path d="M0 0 C0.33 0 0.66 0 1 0 C1 3.3 1 6.6 1 10 C-0.65 10.33 -2.3 10.66 -4 11 C-4 6.54648201 -2.44839588 3.67259383 0 0 Z " fill="#EAF6BA" transform="translate(84,56)"/>
<path d="M0 0 C1.98 0.495 1.98 0.495 4 1 C4.33 2.98 4.66 4.96 5 7 C3.125 7.625 3.125 7.625 1 8 C0.34 7.34 -0.32 6.68 -1 6 C-0.625 2.875 -0.625 2.875 0 0 Z " fill="#402D20" transform="translate(90,58)"/>
<path d="M0 0 C2.69414604 4.04121906 2.5569631 7.25370575 2 12 C0.5 15.5625 0.5 15.5625 -1 18 C-3 15 -3 15 -2.8125 12.875 C-2.544375 12.25625 -2.27625 11.6375 -2 11 C-1.01 10.67 -0.02 10.34 1 10 C0.67 6.7 0.34 3.4 0 0 Z " fill="#FBF4AD" transform="translate(95,113)"/>
<path d="M0 0 C0.99 0.33 1.98 0.66 3 1 C4.1875 3.5625 4.1875 3.5625 5 6 C2 8 2 8 -1 8 C-1.04241723 5.66705225 -1.04092937 3.33297433 -1 1 C-0.67 0.67 -0.34 0.34 0 0 Z " fill="#DFF1CD" transform="translate(93,89)"/>
<path d="M0 0 C1.98 0 3.96 0 6 0 C5.67 1.11375 5.34 2.2275 5 3.375 C3.911357 6.69459717 3.911357 6.69459717 4 9 C2.68 9.33 1.36 9.66 0 10 C-0.66 9.01 -1.32 8.02 -2 7 C-1.01 6.67 -0.02 6.34 1 6 C1.33 4.35 1.66 2.7 2 1 C1.34 0.67 0.68 0.34 0 0 Z " fill="#659D34" transform="translate(59,78)"/>
<path d="M0 0 C3.75257718 -0.34907695 5.56588078 -0.27011863 8.8125 1.75 C10.96634616 3.96538462 11.67715014 4.98673462 12 8 C7.65829477 5.6163187 3.7935871 3.21880117 0 0 Z " fill="#B94B16" transform="translate(148,22)"/>
<path d="M0 0 C3.2542015 2.83430453 4.5206753 4.68607774 5 9 C4.67 8.34 4.34 7.68 4 7 C2.68 7.33 1.36 7.66 0 8 C-2 5 -2 5 -2 2 C-1.34 2 -0.68 2 0 2 C0 1.34 0 0.68 0 0 Z " fill="#B94F15" transform="translate(35,134)"/>
<path d="M0 0 C0.66 0 1.32 0 2 0 C3.4783226 2.95664519 3.06032783 5.74229737 3 9 C1.0625 8.3125 1.0625 8.3125 -1 7 C-1.875 4.5 -1.875 4.5 -2 2 C-1.34 1.34 -0.68 0.68 0 0 Z " fill="#E5F4D3" transform="translate(105,90)"/>
<path d="M0 0 C0 0.99 0 1.98 0 3 C-6.32837252 5.43046191 -12.23784552 6.59060025 -19 7 C-16.51742932 4.51742932 -15.17933613 4.55441297 -11.75 4.0625 C-7.25606661 3.32433749 -3.89954875 2.31865061 0 0 Z " fill="#45731A" transform="translate(101,93)"/>
<path d="M0 0 C2.97 0.99 5.94 1.98 9 3 C8.67 3.99 8.34 4.98 8 6 C6.35 6.33 4.7 6.66 3 7 C3 6.01 3 5.02 3 4 C0.525 3.01 0.525 3.01 -2 2 C-1.34 1.34 -0.68 0.68 0 0 Z " fill="#68A935" transform="translate(65,72)"/>
<path d="M0 0 C4.32046898 1.41680244 7.00461199 3.53763785 10.3125 6.625 C11.19550781 7.44226562 12.07851562 8.25953125 12.98828125 9.1015625 C13.65214844 9.72804688 14.31601563 10.35453125 15 11 C14.01 11.66 13.02 12.32 12 13 C11.54625 12.195625 11.0925 11.39125 10.625 10.5625 C9.25274335 7.91143428 9.25274335 7.91143428 7 7 C7 6.34 7 5.68 7 5 C6.21625 4.731875 5.4325 4.46375 4.625 4.1875 C2 3 2 3 0 0 Z " fill="#BE4A0A" transform="translate(138,37)"/>
<path d="M0 0 C0.99 0 1.98 0 3 0 C5.42857143 7.42857143 5.42857143 7.42857143 4 11 C1 9 1 9 0.48828125 6.8359375 C0.43027344 6.02382812 0.37226563 5.21171875 0.3125 4.375 C0.24675781 3.55773437 0.18101562 2.74046875 0.11328125 1.8984375 C0.07589844 1.27195312 0.03851563 0.64546875 0 0 Z " fill="#C5510E" transform="translate(169,77)"/>
<path d="M0 0 C-1.10815825 3.21365891 -1.98529554 3.9914224 -5 5.75 C-8 7 -8 7 -10 7 C-10 6.01 -10 5.02 -10 4 C-8.71086513 3.32845067 -7.41859796 2.66291141 -6.125 2 C-5.40570313 1.62875 -4.68640625 1.2575 -3.9453125 0.875 C-2 0 -2 0 0 0 Z " fill="#D15B0D" transform="translate(138,171)"/>
<path d="M0 0 C1.60332791 -0.08121924 3.20784026 -0.13929134 4.8125 -0.1875 C6.15248047 -0.23970703 6.15248047 -0.23970703 7.51953125 -0.29296875 C10.41647515 0.04918998 11.22555028 0.75393573 13 3 C8.02398374 4.71050559 4.57383705 3.00885647 0 1 C0 0.67 0 0.34 0 0 Z " fill="#C3500E" transform="translate(70,171)"/>
<path d="M0 0 C1.18771723 3.42943519 0.80226223 5.37784675 -0.4375 8.75 C-0.72496094 9.54921875 -1.01242188 10.3484375 -1.30859375 11.171875 C-1.53675781 11.77515625 -1.76492187 12.3784375 -2 13 C-2.99 13 -3.98 13 -5 13 C-4.54554036 11.58208592 -4.08625056 10.16571954 -3.625 8.75 C-3.24214844 7.56664062 -3.24214844 7.56664062 -2.8515625 6.359375 C-2.04826333 4.13372042 -1.10288338 2.09068328 0 0 Z " fill="#E3CD5D" transform="translate(95,127)"/>
<path d="M0 0 C0.66 0.33 1.32 0.66 2 1 C2.59355614 3.64860427 2.74209269 6.29197322 3 9 C2.01 9.33 1.02 9.66 0 10 C-0.33 10.66 -0.66 11.32 -1 12 C-0.67 8.04 -0.34 4.08 0 0 Z " fill="#BA5A28" transform="translate(193,79)"/>
<path d="M0 0 C4.85077588 1.11940982 7.777893 2.1334716 11 6 C10.67 6.66 10.34 7.32 10 8 C8.68 8 7.36 8 6 8 C5.67 6.35 5.34 4.7 5 3 C3.35 2.67 1.7 2.34 0 2 C0 1.34 0 0.68 0 0 Z " fill="#649E33" transform="translate(131,62)"/>
<path d="M0 0 C-0.639375 0.309375 -1.27875 0.61875 -1.9375 0.9375 C-3.93610821 1.8345163 -3.93610821 1.8345163 -5 3 C-10.73611111 3.27314815 -10.73611111 3.27314815 -13 3 C-13.66 2.34 -14.32 1.68 -15 1 C-9.94997778 -0.03590199 -5.12583611 -0.10251672 0 0 Z " fill="#D2B637" transform="translate(116,111)"/>
<path d="M0 0 C0.33 0 0.66 0 1 0 C1 1.65 1 3.3 1 5 C0.34 5 -0.32 5 -1 5 C-1.33 6.65 -1.66 8.3 -2 10 C-2.99 10.33 -3.98 10.66 -5 11 C-4.46939601 6.48986609 -2.69113883 3.61621781 0 0 Z " fill="#BB4A09" transform="translate(35,62)"/>
<path d="M0 0 C2.64 0 5.28 0 8 0 C8 0.66 8 1.32 8 2 C8.66 2 9.32 2 10 2 C10 2.66 10 3.32 10 4 C7.03 3.67 4.06 3.34 1 3 C0.67 2.01 0.34 1.02 0 0 Z " fill="#5AA426" transform="translate(66,106)"/>
<path d="M0 0 C0.66 0 1.32 0 2 0 C3.125 4.75 3.125 4.75 2 7 C1.34 7 0.68 7 0 7 C-0.33 7.66 -0.66 8.32 -1 9 C-1.80967438 6.08517222 -2.21845993 4.53886783 -1.0625 1.6875 C-0.711875 1.130625 -0.36125 0.57375 0 0 Z " fill="#4C8F1D" transform="translate(138,94)"/>
<path d="M0 0 C0.99 0.33 1.98 0.66 3 1 C4.66362417 1.34820041 6.32995171 1.68404492 8 2 C6 5 6 5 3 6 C0.8125 5.0625 0.8125 5.0625 -1 4 C-0.67 2.68 -0.34 1.36 0 0 Z " fill="#68A633" transform="translate(79,67)"/>
<path d="M0 0 C0.66 0 1.32 0 2 0 C1.32116957 3.11547441 0.25893098 5.85137721 -1.0625 8.75 C-1.60583984 9.94882813 -1.60583984 9.94882813 -2.16015625 11.171875 C-2.43730469 11.77515625 -2.71445313 12.3784375 -3 13 C-4.31223496 9.06329512 -3.24296256 6.87511856 -2 3 C-1.34 3 -0.68 3 0 3 C0 2.01 0 1.02 0 0 Z " fill="#BA4B0C" transform="translate(15,58)"/>
<path d="M0 0 C0.928125 0.20625 1.85625 0.4125 2.8125 0.625 C1.8225 1.12 1.8225 1.12 0.8125 1.625 C1.1425 2.945 1.4725 4.265 1.8125 5.625 C-3.9375 3.875 -3.9375 3.875 -6.1875 1.625 C-3.1875 -0.375 -3.1875 -0.375 0 0 Z " fill="#F9EAB7" transform="translate(70.1875,161.375)"/>
<path d="M0 0 C0.66 0 1.32 0 2 0 C0.77782954 4.04256383 -0.62754296 7.49288959 -3 11 C-3.33 11 -3.66 11 -4 11 C-4.25 5.375 -4.25 5.375 -2 2 C-1.34 2 -0.68 2 0 2 C0 1.34 0 0.68 0 0 Z " fill="#BD6B3D" transform="translate(187,142)"/>
<path d="M0 0 C0.99 0.33 1.98 0.66 3 1 C2.75 4.375 2.75 4.375 2 8 C0.02 8.99 0.02 8.99 -2 10 C-1.34 6.7 -0.68 3.4 0 0 Z " fill="#F0F4E1" transform="translate(119,58)"/>
<path d="M0 0 C1 3 1 3 -0.25 5.6875 C-0.8275 6.450625 -1.405 7.21375 -2 8 C-2.99 8 -3.98 8 -5 8 C-5 8.99 -5 9.98 -5 11 C-5.66 11 -6.32 11 -7 11 C-5.125 6.25 -5.125 6.25 -4 4 C-3.01 4 -2.02 4 -1 4 C-0.67 2.68 -0.34 1.36 0 0 Z " fill="#BB5925" transform="translate(20,50)"/>
<path d="M0 0 C3 1 3 1 6 3 C4.35 3 2.7 3 1 3 C1 3.66 1 4.32 1 5 C-0.65 5.33 -2.3 5.66 -4 6 C-2.25 1.125 -2.25 1.125 0 0 Z " fill="#C24C13" transform="translate(139,186)"/>
<path d="M0 0 C-1.04874998 2.62187494 -1.64931313 3.79371361 -4.125 5.25 C-4.74375 5.4975 -5.3625 5.745 -6 6 C-6 6.66 -6 7.32 -6 8 C-6.66 8 -7.32 8 -8 8 C-7.65978036 4.82461668 -6.97533396 3.97723135 -4.5625 1.75 C-2 0 -2 0 0 0 Z " fill="#C8570B" transform="translate(159,164)"/>
<path d="M0 0 C1.65 0 3.3 0 5 0 C5 0.99 5 1.98 5 3 C3 4.6875 3 4.6875 1 6 C0.34 5.67 -0.32 5.34 -1 5 C-0.67 3.35 -0.34 1.7 0 0 Z " fill="#495810" transform="translate(142,152)"/>
<path d="M0 0 C0.66 0 1.32 0 2 0 C2.12375 1.11375 2.2475 2.2275 2.375 3.375 C2.6465813 7.03103677 2.6465813 7.03103677 5 9 C2 10 2 10 -0.1875 9.0625 C-0.785625 8.711875 -1.38375 8.36125 -2 8 C-1.34 7.01 -0.68 6.02 0 5 C0.16713569 2.37468476 0.16713569 2.37468476 0 0 Z " fill="#E8EABD" transform="translate(145,143)"/>
<path d="M0 0 C1.65 0 3.3 0 5 0 C4.67 1.98 4.34 3.96 4 6 C3.01 6 2.02 6 1 6 C0.67 4.02 0.34 2.04 0 0 Z " fill="#E9F8D3" transform="translate(77,99)"/>
<path d="M0 0 C1.65 0 3.3 0 5 0 C4.625 2.9375 4.625 2.9375 4 6 C3.01 6.495 3.01 6.495 2 7 C0.5393715 4.35261084 0 3.10551666 0 0 Z " fill="#ECFAD7" transform="translate(68,99)"/>
<path d="M0 0 C-0.33 0.99 -0.66 1.98 -1 3 C-3.31 3.33 -5.62 3.66 -8 4 C-8 3.01 -8 2.02 -8 1 C-4.93251126 -0.86240388 -3.40254489 -1.2151946 0 0 Z " fill="#5FA325" transform="translate(118,51)"/>
<path d="M0 0 C-1.09445838 0.86657116 -2.20097781 1.71792724 -3.3125 2.5625 C-3.92738281 3.03816406 -4.54226562 3.51382813 -5.17578125 4.00390625 C-5.77777344 4.33261719 -6.37976563 4.66132813 -7 5 C-7.99 4.67 -8.98 4.34 -10 4 C-9.34 3.67 -8.68 3.34 -8 3 C-8 2.34 -8 1.68 -8 1 C-3.375 -1.125 -3.375 -1.125 0 0 Z " fill="#BA5E2C" transform="translate(154,184)"/>
<path d="M0 0 C1.32 0 2.64 0 4 0 C3.43628586 3.26954202 2.50037734 4.82575883 0 7 C-0.66 5.35 -1.32 3.7 -2 2 C-1.34 2 -0.68 2 0 2 C0 1.34 0 0.68 0 0 Z " fill="#BC5D27" transform="translate(179,152)"/>
<path d="M0 0 C0.33 0.99 0.66 1.98 1 3 C0.04504326 4.69287785 -0.9590934 6.35857037 -2 8 C-2.69579454 10.19130534 -2.69579454 10.19130534 -3 12 C-4.32 11.34 -5.64 10.68 -7 10 C-3.535 5.05 -3.535 5.05 0 0 Z " fill="#AA531F" transform="translate(161,136)"/>
<path d="M0 0 C1.32 0.33 2.64 0.66 4 1 C3.01 1.66 2.02 2.32 1 3 C0.7497843 6.08365871 0.7497843 6.08365871 1 9 C0.01 9.33 -0.98 9.66 -2 10 C-2.25 3.375 -2.25 3.375 0 0 Z " fill="#345A13" transform="translate(142,106)"/>
<path d="M0 0 C1.96838018 2.95257027 2.39061574 4.60485915 3 8 C3.33 8.66 3.66 9.32 4 10 C1.03 9.505 1.03 9.505 -2 9 C-1.34 7.02 -0.68 5.04 0 3 C-0.99 2.67 -1.98 2.34 -3 2 C-2.01 2 -1.02 2 0 2 C0 1.34 0 0.68 0 0 Z " fill="#73A949" transform="translate(102,89)"/>
<path d="M0 0 C2 3 2 3 2 5 C3.32 5.33 4.64 5.66 6 6 C5.67 6.99 5.34 7.98 5 9 C3.02 8.34 1.04 7.68 -1 7 C-0.67 4.69 -0.34 2.38 0 0 Z " fill="#6BA53D" transform="translate(97,60)"/>
<path d="M0 0 C0 3.61029169 -0.96092582 6.55806676 -2 10 C-3.32 9.34 -4.64 8.68 -6 8 C-2.25 2.25 -2.25 2.25 0 0 Z " fill="#C25011" transform="translate(41,54)"/>
<path d="M0 0 C-1.375 1.5 -1.375 1.5 -3 3 C-3.66 3 -4.32 3 -5 3 C-5 2.34 -5 1.68 -5 1 C-6.65 0.67 -8.3 0.34 -10 0 C-6.22996568 -2.61002376 -4.07631429 -1.66758312 0 0 Z " fill="#C45715" transform="translate(127,171)"/>
<path d="M0 0 C0.33 0.66 0.66 1.32 1 2 C-0.65 4.31 -2.3 6.62 -4 9 C-4.33 7.68 -4.66 6.36 -5 5 C-3.5399926 2.56665433 -2.54764436 1.27382218 0 0 Z " fill="#B94A09" transform="translate(163,139)"/>
<path d="M0 0 C0 4.38968456 -2.12805101 5.76905739 -5 9 C-5.66 8.67 -6.32 8.34 -7 8 C-6.34 7.34 -5.68 6.68 -5 6 C-4.35232207 3.42938689 -4.35232207 3.42938689 -4 1 C-2.68 0.67 -1.36 0.34 0 0 Z " fill="#4A8618" transform="translate(114,82)"/>
<path d="M0 0 C1.32 0.99 2.64 1.98 4 3 C3.67 4.65 3.34 6.3 3 8 C2.01 8.33 1.02 8.66 0 9 C0 6.03 0 3.06 0 0 Z " fill="#445B23" transform="translate(147,77)"/>
<path d="M0 0 C0.66 0 1.32 0 2 0 C2 0.66 2 1.32 2 2 C3.32 2.66 4.64 3.32 6 4 C5.01 4.495 5.01 4.495 4 5 C3.67 5.66 3.34 6.32 3 7 C1.68 5.68 0.36 4.36 -1 3 C-0.67 2.01 -0.34 1.02 0 0 Z " fill="#B75A25" transform="translate(143,42)"/>
<path d="M0 0 C1.32 0 2.64 0 4 0 C4.1875 2.375 4.1875 2.375 4 5 C3.01 5.66 2.02 6.32 1 7 C0.34 5.02 -0.32 3.04 -1 1 C-0.67 0.67 -0.34 0.34 0 0 Z " fill="#BC531C" transform="translate(166,166)"/>
<path d="M0 0 C0.33 0 0.66 0 1 0 C1.33 5.61 1.66 11.22 2 17 C-1 14 -1 14 -1.07421875 10.64453125 C-0.94660156 9.37996094 -0.81898437 8.11539063 -0.6875 6.8125 C-0.56761719 5.54019531 -0.44773438 4.26789063 -0.32421875 2.95703125 C-0.21722656 1.98121094 -0.11023437 1.00539063 0 0 Z " fill="#C9E39B" transform="translate(36,78)"/>
<path d="M0 0 C0.99 0 1.98 0 3 0 C3 1.65 3 3.3 3 5 C1.68 5.33 0.36 5.66 -1 6 C-1.042721 4.33388095 -1.04063832 2.66617115 -1 1 C-0.67 0.67 -0.34 0.34 0 0 Z " fill="#2E5809" transform="translate(58,79)"/>
<path d="M0 0 C0.33 1.65 0.66 3.3 1 5 C-0.32 5 -1.64 5 -3 5 C-3.33 5.66 -3.66 6.32 -4 7 C-4 5.02 -4 3.04 -4 1 C-2 0 -2 0 0 0 Z " fill="#3B2220" transform="translate(116,58)"/>
<path d="M0 0 C3.57804656 -0.19878036 5.99208089 -0.04108797 9 2 C9.33 2.99 9.66 3.98 10 5 C8.51800098 4.55090939 7.03944764 4.09043436 5.5625 3.625 C4.73878906 3.36976563 3.91507813 3.11453125 3.06640625 2.8515625 C1 2 1 2 0 0 Z " fill="#BA5D2F" transform="translate(58,189)"/>
<path d="M0 0 C2.95409701 1.37154504 5.44008376 2.98863724 8 5 C7.67 5.99 7.34 6.98 7 8 C5.8274869 7.04882866 4.66212985 6.08882991 3.5 5.125 C2.8503125 4.59132812 2.200625 4.05765625 1.53125 3.5078125 C1.0259375 3.01023438 0.520625 2.51265625 0 2 C0 1.34 0 0.68 0 0 Z " fill="#B65824" transform="translate(55,158)"/>
<path d="M0 0 C1.32 0.66 2.64 1.32 4 2 C2.35 3.98 0.7 5.96 -1 8 C-1.93065133 5.39417629 -2.14917407 4.35801776 -1.0625 1.75 C-0.711875 1.1725 -0.36125 0.595 0 0 Z " fill="#B96133" transform="translate(175,159)"/>
<path d="M0 0 C0.99 0.33 1.98 0.66 3 1 C3.6875 3.0625 3.6875 3.0625 4 5 C-0.75 4.25 -0.75 4.25 -3 2 C-2.01 1.34 -1.02 0.68 0 0 Z " fill="#DA5E15" transform="translate(36,158)"/>
<path d="M0 0 C1.48828125 1.26953125 1.48828125 1.26953125 3 3 C3.1875 6.6875 3.1875 6.6875 3 10 C2.34 9.67 1.68 9.34 1 9 C0.5859375 6.93359375 0.5859375 6.93359375 0.375 4.4375 C0.30023438 3.61121094 0.22546875 2.78492187 0.1484375 1.93359375 C0.09945312 1.29550781 0.05046875 0.65742187 0 0 Z " fill="#CB5810" transform="translate(183,75)"/>
<path d="M0 0 C0.66 1.32 1.32 2.64 2 4 C2.66 4.33 3.32 4.66 4 5 C3.505 5.433125 3.01 5.86625 2.5 6.3125 C0.66781808 7.99740483 0.66781808 7.99740483 1 11 C0.34 10.67 -0.32 10.34 -1 10 C-0.67 6.7 -0.34 3.4 0 0 Z " fill="#DCE8B3" transform="translate(147,66)"/>
<path d="M0 0 C4.46839215 -0.21278058 7.82262526 0.40861915 12 2 C11.67 2.66 11.34 3.32 11 4 C9.35232753 3.71890887 7.70686855 3.42481474 6.0625 3.125 C4.68771484 2.88136719 4.68771484 2.88136719 3.28515625 2.6328125 C2.53105469 2.42398438 1.77695313 2.21515625 1 2 C0.67 1.34 0.34 0.68 0 0 Z " fill="#B65E2C" transform="translate(113,31)"/>
<path d="M0 0 C0 0.99 0 1.98 0 3 C-1.98 3.33 -3.96 3.66 -6 4 C-6.33 3.01 -6.66 2.02 -7 1 C-4 0 -4 0 0 0 Z " fill="#D0C144" transform="translate(122,108)"/>
<path d="M0 0 C4.875 0.875 4.875 0.875 6 2 C6.04063832 3.66617115 6.042721 5.33388095 6 7 C5.5875 6.360625 5.175 5.72125 4.75 5.0625 C2.82189513 2.79009069 1.88575819 2.39803561 -1 2 C-0.67 1.34 -0.34 0.68 0 0 Z " fill="#6DA545" transform="translate(92,87)"/>
<path d="M0 0 C0.33 0.99 0.66 1.98 1 3 C-0.98 3.66 -2.96 4.32 -5 5 C-6.32 3.68 -7.64 2.36 -9 1 C-6.03 1.33 -3.06 1.66 0 2 C0 1.34 0 0.68 0 0 Z " fill="#E7F8B9" transform="translate(54,72)"/>
<path d="M0 0 C3.3 0.99 6.6 1.98 10 3 C6.41220825 3.89694794 3.65381163 4.08304117 0 4 C0 2.68 0 1.36 0 0 Z " fill="#AF5019" transform="translate(74,168)"/>
<path d="M0 0 C0.99 0.33 1.98 0.66 3 1 C3.33 3.64 3.66 6.28 4 9 C3.01 8.67 2.02 8.34 1 8 C0.67 5.36 0.34 2.72 0 0 Z " fill="#BB6129" transform="translate(5,117)"/>
<path d="M0 0 C2 2 2 2 2.125 4.625 C2.08375 5.40875 2.0425 6.1925 2 7 C1.01 7 0.02 7 -1 7 C-1.33 6.34 -1.66 5.68 -2 5 C-1.0625 2.375 -1.0625 2.375 0 0 Z " fill="#F6E7C0" transform="translate(35,71)"/>
<path d="M0 0 C2.97 0.495 2.97 0.495 6 1 C3.37801226 3.15377564 1.35595828 4.40072174 -2 5 C-1.34 3.35 -0.68 1.7 0 0 Z " fill="#E77528" transform="translate(25,51)"/>
<path d="M0 0 C3.53600465 1.91135386 5.78972846 3.62642766 8 7 C5 7 5 7 3.3125 5.625 C2 4 2 4 2 2 C1.34 2 0.68 2 0 2 C0 1.34 0 0.68 0 0 Z " fill="#BF673F" transform="translate(163,30)"/>
<path d="M0 0 C2.31 0.66 4.62 1.32 7 2 C6.67 3.32 6.34 4.64 6 6 C3.97945196 4.35830472 1.97956942 2.69088222 0 1 C0 0.67 0 0.34 0 0 Z " fill="#BE6135" transform="translate(29,168)"/>
<path d="M0 0 C2.52259061 1.97420135 2.9929808 2.96745642 3.6875 6.1875 C3.790625 7.115625 3.89375 8.04375 4 9 C0.06153846 5.67692308 0.06153846 5.67692308 -0.25 2.25 C-0.1675 1.5075 -0.085 0.765 0 0 Z " fill="#B35122" transform="translate(19,151)"/>
<path d="M0 0 C0.66 0.33 1.32 0.66 2 1 C1.38125 1.598125 0.7625 2.19625 0.125 2.8125 C-2.13676954 5.00811144 -2.13676954 5.00811144 -4 8 C-4.66 7.67 -5.32 7.34 -6 7 C-4.77065985 3.31197956 -3.06140622 2.27643027 0 0 Z " fill="#E7F3C7" transform="translate(147,111)"/>
<path d="M0 0 C0 1.65 0 3.3 0 5 C0.66 5.33 1.32 5.66 2 6 C1.01 6.33 0.02 6.66 -1 7 C-1.33 6.01 -1.66 5.02 -2 4 C-2.99 4.495 -2.99 4.495 -4 5 C-4 3.68 -4 2.36 -4 1 C-1 0 -1 0 0 0 Z " fill="#4A8021" transform="translate(142,100)"/>
<path d="M0 0 C0.99 0.33 1.98 0.66 3 1 C3 2.32 3 3.64 3 5 C1.68 5.33 0.36 5.66 -1 6 C-0.67 4.02 -0.34 2.04 0 0 Z " fill="#5F9A35" transform="translate(74,99)"/>
<path d="M0 0 C1.65 1.65 3.3 3.3 5 5 C4.01 5.66 3.02 6.32 2 7 C0 4 0 4 0 0 Z " fill="#FCECBD" transform="translate(154,57)"/>
<path d="M0 0 C4.875 3.625 4.875 3.625 6 7 C4.35 7 2.7 7 1 7 C0.67 4.69 0.34 2.38 0 0 Z " fill="#C04E08" transform="translate(157,53)"/>
<path d="M0 0 C0.33 0.99 0.66 1.98 1 3 C1.99 3 2.98 3 4 3 C3.67 3.99 3.34 4.98 3 6 C1.68 6 0.36 6 -1 6 C-0.67 4.02 -0.34 2.04 0 0 Z " fill="#6AA638" transform="translate(109,52)"/>
<path d="M0 0 C0.66 0 1.32 0 2 0 C4.04169485 2.90548882 5 4.40142046 5 8 C4.34 8 3.68 8 3 8 C0.95830515 5.09451118 0 3.59857954 0 0 Z " fill="#D2590F" transform="translate(174,52)"/>
<path d="M0 0 C3.465 1.485 3.465 1.485 7 3 C6.01 3.99 5.02 4.98 4 6 C2.62437146 4.71034824 1.29233607 3.37310707 0 2 C0 1.34 0 0.68 0 0 Z " fill="#BB5622" transform="translate(160,170)"/>
<path d="M0 0 C0.33 0.66 0.66 1.32 1 2 C1.99 2.33 2.98 2.66 4 3 C4 3.66 4 4.32 4 5 C4.66 5.33 5.32 5.66 6 6 C3.03 5.505 3.03 5.505 0 5 C0 3.35 0 1.7 0 0 Z " fill="#EDC654" transform="translate(86,166)"/>
<path d="M0 0 C0.33 0 0.66 0 1 0 C0.67 2.97 0.34 5.94 0 9 C-0.99 7.68 -1.98 6.36 -3 5 C-2.03114628 3.31503702 -1.03013277 1.64821244 0 0 Z " fill="#F0F2C6" transform="translate(150,89)"/>
<path d="M0 0 C0.99 0.33 1.98 0.66 3 1 C1.25 5.875 1.25 5.875 -1 7 C-0.67 4.69 -0.34 2.38 0 0 Z " fill="#BC5A24" transform="translate(40,57)"/>
<path d="M0 0 C0.99 0 1.98 0 3 0 C2.67 1.65 2.34 3.3 2 5 C1.01 5.33 0.02 5.66 -1 6 C-1.33 5.34 -1.66 4.68 -2 4 C-1.0625 1.875 -1.0625 1.875 0 0 Z " fill="#CF5710" transform="translate(28,54)"/>
</svg>
