<?xml version="1.0" encoding="UTF-8"?>
<svg version="1.1" xmlns="http://www.w3.org/2000/svg" width="500" height="500">
<path d="M0 0 C0 0.66 0 1.32 0 2 C1.03125 2.04125 2.0625 2.0825 3.125 2.125 C7.77431095 3.17484441 10.32548563 5.06170411 13 9 C13 9.99 13 10.98 13 12 C13.66 12 14.32 12 15 12 C20.46073339 19.2346022 24.13038492 28.0764526 28.10986328 36.19189453 C29.22146929 38.44986329 30.36069027 40.69340508 31.5 42.9375 C37.37638343 54.72905487 42.81378725 66.72296174 48.1875 78.75 C48.68644775 79.86173584 49.18539551 80.97347168 49.69946289 82.11889648 C52.65954972 88.77675429 55.36069233 95.46838611 57.81762695 102.32910156 C58.97555599 104.94478269 59.69305689 106.34437715 62 108 C64.28494496 108.6685416 64.28494496 108.6685416 66.875 108.9140625 C67.85210937 109.03483154 68.82921875 109.15560059 69.8359375 109.2800293 C70.88007813 109.39386963 71.92421875 109.50770996 73 109.625 C74.06476563 109.74979736 75.12953125 109.87459473 76.2265625 110.00317383 C85.80097304 111.0792953 95.37372492 111.67079956 105 112 C105 112.66 105 113.32 105 114 C105.60062256 113.99476318 106.20124512 113.98952637 106.82006836 113.98413086 C109.52586838 113.96341986 112.23165177 113.95035875 114.9375 113.9375 C115.88302734 113.92912109 116.82855469 113.92074219 117.80273438 113.91210938 C119.15141602 113.90727539 119.15141602 113.90727539 120.52734375 113.90234375 C121.77632446 113.89448853 121.77632446 113.89448853 123.05053711 113.88647461 C125 114 125 114 126 115 C128.32986123 115.20968751 130.66444036 115.36815389 133 115.5 C139.88888889 115.88888889 139.88888889 115.88888889 141 117 C142.99603206 117.20888708 144.99742941 117.36775477 147 117.5 C152.88888889 117.88888889 152.88888889 117.88888889 154 119 C155.49496842 119.20699563 156.9966592 119.36679259 158.5 119.5 C162.88888889 119.88888889 162.88888889 119.88888889 164 121 C165.010625 121.0825 166.02125 121.165 167.0625 121.25 C171.66103896 121.83197277 175.46424961 124.05201071 179 127 C179 127.66 179 128.32 179 129 C179.66 129 180.32 129 181 129 C183.47815887 133.33677802 183.45248478 137.10968368 183 142 C182 145.0625 182 145.0625 181 147 C180.34 147 179.68 147 179 147 C178.89558594 147.58265625 178.79117187 148.1653125 178.68359375 148.765625 C177.89706383 151.33645423 176.82434109 152.7340058 175.0625 154.75 C174.53785156 155.36359375 174.01320313 155.9771875 173.47265625 156.609375 C172 158 172 158 170 158 C170 158.66 170 159.32 170 160 C169.34 160 168.68 160 168 160 C168 160.66 168 161.32 168 162 C167.34 162 166.68 162 166 162 C166 162.66 166 163.32 166 164 C165.34 164 164.68 164 164 164 C163.731875 164.598125 163.46375 165.19625 163.1875 165.8125 C162.00082594 167.99847854 160.90400887 169.41332594 159 171 C158.34 171 157.68 171 157 171 C157 171.66 157 172.32 157 173 C155.35546875 174.62109375 155.35546875 174.62109375 153.1875 176.4375 C150.17536735 178.97339332 150.17536735 178.97339332 147.36328125 181.72265625 C146 183 146 183 144 183 C144 183.66 144 184.32 144 185 C143.34 185 142.68 185 142 185 C142 185.66 142 186.32 142 187 C141.38125 187.0825 140.7625 187.165 140.125 187.25 C137.8653367 187.77905978 137.8653367 187.77905978 137.0625 189.75 C136.711875 190.4925 136.36125 191.235 136 192 C133.5 194.75 133.5 194.75 131 197 C130.34 197 129.68 197 129 197 C129 197.66 129 198.32 129 199 C127.6015625 200.41015625 127.6015625 200.41015625 125.625 202.0625 C121.52269661 205.54981964 117.50570836 209.11269728 113.5390625 212.75390625 C111 215 111 215 108.3984375 216.96484375 C103.62876635 220.61238587 103.62876635 220.61238587 101.21875 225.9453125 C100.96820138 228.66654893 100.87463514 231.2720607 101 234 C101.66 234 102.32 234 103 234 C103.06058594 234.63808594 103.12117188 235.27617187 103.18359375 235.93359375 C103.30927734 237.17302734 103.30927734 237.17302734 103.4375 238.4375 C103.51871094 239.26121094 103.59992188 240.08492187 103.68359375 240.93359375 C103.78930815 242.98662025 103.78930815 242.98662025 105 244 C105.31923492 246.0572917 105.51161352 248.11613521 105.71875 250.1875 C105.81998043 252.0167533 105.81998043 252.0167533 107 253 C107.46922313 255.15741898 107.88147221 257.32721602 108.2734375 259.5 C108.54124719 260.9700692 108.80915756 262.44012007 109.07714844 263.91015625 C109.297276 265.12856201 109.297276 265.12856201 109.52185059 266.37158203 C110.02996043 269.16469443 110.54941719 271.95552086 111.07128906 274.74609375 C112.06447349 280.05880675 113.04352601 285.37399907 114.01660156 290.69042969 C114.42231807 292.89744934 114.83150078 295.10383461 115.24414062 297.30957031 C122.3483527 335.32274316 122.3483527 335.32274316 117 346 C113.11918248 349.61621632 109.04489413 350.78922541 104 352 C103.67 351.67 103.34 351.34 103 351 C101.65252916 350.76924918 100.29622435 350.58846937 98.9375 350.4375 C97.638125 350.293125 96.33875 350.14875 95 350 C95 349.34 95 348.68 95 348 C94.15695312 347.90460938 93.31390625 347.80921875 92.4453125 347.7109375 C88.56229534 346.90967999 85.35977755 345.43867333 81.875 343.625 C81.18543213 343.27268311 80.49586426 342.92036621 79.78540039 342.55737305 C65.84908614 335.37458459 52.23014323 327.58871565 38.59667969 319.85253906 C31.32723586 315.73261432 24.01889009 311.68849045 16.67749023 307.69824219 C11.63387485 304.94521079 6.72747023 302.06317601 1.97265625 298.828125 C-0.71707836 297.69896908 -2.20090051 298.27327342 -5 299 C-7.16347193 299.94219011 -7.16347193 299.94219011 -9.265625 301.15234375 C-10.46457397 301.81520386 -10.46457397 301.81520386 -11.68774414 302.49145508 C-12.53328857 302.9686499 -13.37883301 303.44584473 -14.25 303.9375 C-15.57149048 304.67359497 -15.57149048 304.67359497 -16.91967773 305.42456055 C-23.3886633 309.04530914 -29.78701782 312.78066408 -36.16552734 316.55786133 C-40.21327629 318.95395377 -44.26994808 321.32767737 -48.375 323.625 C-49.20773438 324.09164063 -50.04046875 324.55828125 -50.8984375 325.0390625 C-53 326 -53 326 -56 326 C-56 326.66 -56 327.32 -56 328 C-58.64738916 329.4606285 -59.89448334 330 -63 330 C-63 330.66 -63 331.32 -63 332 C-63.969375 332.4846875 -64.93875 332.969375 -65.9375 333.46875 C-66.57776123 333.7889209 -67.21802246 334.1090918 -67.87768555 334.43896484 C-69.30610386 335.15309184 -70.73465452 335.86695417 -72.16333008 336.58056641 C-75.92840227 338.46166058 -79.69124454 340.34694834 -83.44921875 342.2421875 C-84.5155957 342.77875977 -84.5155957 342.77875977 -85.60351562 343.32617188 C-86.96371537 344.01073351 -88.32312856 344.69686089 -89.68164062 345.38476562 C-97.05849878 349.09222684 -104.73027714 352.45991742 -113.1640625 350.49609375 C-117.86987336 348.58373232 -120.31063334 346.23101189 -122.75 341.875 C-127.46369643 328.0830734 -121.93085953 306.95386257 -117.96484375 293.484375 C-116.42882275 287.93728702 -115.86511274 282.2638041 -115.14453125 276.5625 C-114.54318691 272.04918445 -113.83863181 268.19604771 -112 264 C-111.59304928 261.60086894 -111.59304928 261.60086894 -111.4375 259.25 C-111.1009009 255.1009009 -111.1009009 255.1009009 -110 254 C-109.76807135 252.48530552 -109.58784762 250.96245438 -109.4375 249.4375 C-109.31181641 248.19806641 -109.31181641 248.19806641 -109.18359375 246.93359375 C-109.12300781 246.29550781 -109.06242187 245.65742188 -109 245 C-108.34 245 -107.68 245 -107 245 C-107 242.03 -107 239.06 -107 236 C-106.34 236 -105.68 236 -105 236 C-105 231.38 -105 226.76 -105 222 C-105.66 222 -106.32 222 -107 222 C-107 221.34 -107 220.68 -107 220 C-107.66 220 -108.32 220 -109 220 C-109 219.34 -109 218.68 -109 218 C-109.9590625 217.8453125 -109.9590625 217.8453125 -110.9375 217.6875 C-111.9584375 217.3471875 -111.9584375 217.3471875 -113 217 C-113.33 216.01 -113.66 215.02 -114 214 C-115.32844524 213.32364546 -116.66303624 212.65935585 -118 212 C-119.91158834 210.35406219 -121.78392905 208.66195325 -123.625 206.9375 C-127.04209753 203.58466353 -127.04209753 203.58466353 -131 201 C-131 200.34 -131 199.68 -131 199 C-131.66 199 -132.32 199 -133 199 C-133 198.34 -133 197.68 -133 197 C-133.66 197 -134.32 197 -135 197 C-135 196.34 -135 195.68 -135 195 C-135.58265625 194.7421875 -136.1653125 194.484375 -136.765625 194.21875 C-139.1802903 192.90165983 -140.81740177 191.44911616 -142.75 189.5 C-143.36359375 188.8915625 -143.9771875 188.283125 -144.609375 187.65625 C-146 186 -146 186 -146 184 C-146.87180908 183.86271484 -146.87180908 183.86271484 -147.76123047 183.72265625 C-150.55306375 182.8214756 -151.78749564 181.54080431 -153.8203125 179.4375 C-154.52027344 178.72335938 -155.22023438 178.00921875 -155.94140625 177.2734375 C-156.66199219 176.52320313 -157.38257813 175.77296875 -158.125 175 C-159.56297256 173.51876101 -161.00297862 172.03949255 -162.4453125 170.5625 C-163.07969238 169.90378906 -163.71407227 169.24507812 -164.36767578 168.56640625 C-165.93164923 166.9105859 -165.93164923 166.9105859 -168 166 C-168 165.34 -168 164.68 -168 164 C-168.66 164 -169.32 164 -170 164 C-170 163.34 -170 162.68 -170 162 C-170.66 162 -171.32 162 -172 162 C-172 161.34 -172 160.68 -172 160 C-172.66 160 -173.32 160 -174 160 C-174 159.34 -174 158.68 -174 158 C-174.66 158 -175.32 158 -176 158 C-176 157.34 -176 156.68 -176 156 C-176.66 156 -177.32 156 -178 156 C-178 155.34 -178 154.68 -178 154 C-178.66 154 -179.32 154 -180 154 C-187.71583056 141.2289701 -187.71583056 141.2289701 -186.5 134.3125 C-185.29280498 130.06171027 -183.57739914 127.70292379 -180 125 C-176.5625 123.3125 -176.5625 123.3125 -173 122 C-171.6078125 121.4121875 -171.6078125 121.4121875 -170.1875 120.8125 C-165.77137539 119.68682118 -161.53183768 119.83878838 -157 120 C-157 119.34 -157 118.68 -157 118 C-152.71 118 -148.42 118 -144 118 C-144 117.34 -144 116.68 -144 116 C-139.05 116 -134.1 116 -129 116 C-129 115.34 -129 114.68 -129 114 C-128.42967041 113.97494385 -127.85934082 113.9498877 -127.27172852 113.92407227 C-124.70173843 113.80843451 -122.13214473 113.68556376 -119.5625 113.5625 C-118.66466797 113.52318359 -117.76683594 113.48386719 -116.84179688 113.44335938 C-115.98779297 113.40146484 -115.13378906 113.35957031 -114.25390625 113.31640625 C-113.46314697 113.27974854 -112.6723877 113.24309082 -111.85766602 113.20532227 C-109.98598559 113.19436743 -109.98598559 113.19436743 -109 112 C-107.12987471 111.79441483 -105.25277191 111.65180312 -103.375 111.53515625 C-102.2003418 111.4582959 -101.02568359 111.38143555 -99.81542969 111.30224609 C-97.92679199 111.18357178 -97.92679199 111.18357178 -96 111.0625 C-85.2824095 110.34953894 -74.64517003 109.42949426 -64 108 C-63.71898437 107.11828125 -63.43796875 106.2365625 -63.1484375 105.328125 C-62.12328634 102.35727878 -60.96040298 99.590921 -59.625 96.75 C-58.02114044 93.28118747 -56.50316153 89.81421085 -55.125 86.25 C-53.26651529 81.53003884 -51.15356789 76.95223642 -48.984375 72.36767578 C-47.16227059 68.50993911 -45.38097333 64.63758752 -43.640625 60.7421875 C-38.79404385 49.90675255 -33.68983503 39.32328886 -28.01269531 28.89941406 C-26.27182674 25.63423628 -24.64000728 22.31678603 -23 19 C-22.34 19 -21.68 19 -21 19 C-20.91492188 18.45601562 -20.82984375 17.91203125 -20.7421875 17.3515625 C-19.75207693 14.21447531 -18.07140338 12.02011229 -16.125 9.375 C-15.42632812 8.41335937 -14.72765625 7.45171875 -14.0078125 6.4609375 C-10.47323705 2.12867576 -5.63741493 0 0 0 Z " fill="#9F6231" transform="translate(252,70)"/>
<path d="M0 0 C3.81313396 3.10699804 5.5556467 6.77935806 7.625 11.125 C8.60986307 13.18425914 9.63561877 15.22415466 10.6875 17.25 C11.244375 18.3225 11.80125 19.395 12.375 20.5 C12.89835937 21.5003125 13.42171875 22.500625 13.9609375 23.53125 C14.30382812 24.3459375 14.64671875 25.160625 15 26 C14.67 26.66 14.34 27.32 14 28 C12.35 27.01 10.7 26.02 9 25 C9.33 23.02 9.66 21.04 10 19 C8.68 18.67 7.36 18.34 6 18 C5.89042969 17.37351562 5.78085937 16.74703125 5.66796875 16.1015625 C5.43013672 14.87566406 5.43013672 14.87566406 5.1875 13.625 C4.96126953 12.40683594 4.96126953 12.40683594 4.73046875 11.1640625 C4.12455058 8.64179359 4.12455058 8.64179359 1 7 C0.3125 3.375 0.3125 3.375 0 0 Z " fill="#75502D" transform="translate(267,84)"/>
<path d="M0 0 C0 0.66 0 1.32 0 2 C-0.62648438 2.19335938 -1.25296875 2.38671875 -1.8984375 2.5859375 C-2.71570313 2.84632813 -3.53296875 3.10671875 -4.375 3.375 C-5.18710938 3.63023437 -5.99921875 3.88546875 -6.8359375 4.1484375 C-9.16459185 4.89854283 -9.16459185 4.89854283 -11 7 C-13.33333333 7.66666667 -15.66666667 8.33333333 -18 9 C-18.66 9.66 -19.32 10.32 -20 11 C-20.99 10.67 -21.98 10.34 -23 10 C-19.33946861 5.89576784 -16.14734006 3.89638844 -11 2 C-9.453125 1.4121875 -9.453125 1.4121875 -7.875 0.8125 C-5.08693523 0.02456865 -2.8773807 -0.16925769 0 0 Z " fill="#7E532F" transform="translate(90,190)"/>
<path d="M0 0 C0.94875 0.04125 1.8975 0.0825 2.875 0.125 C2.545 1.445 2.215 2.765 1.875 4.125 C2.535 4.455 3.195 4.785 3.875 5.125 C4.205 6.115 4.535 7.105 4.875 8.125 C6.195 8.125 7.515 8.125 8.875 8.125 C8.875 10.105 8.875 12.085 8.875 14.125 C8.215 13.795 7.555 13.465 6.875 13.125 C6.875 12.465 6.875 11.805 6.875 11.125 C6.30265625 10.86976563 5.7303125 10.61453125 5.140625 10.3515625 C2.63326267 8.99412841 0.7419544 7.40525896 -1.375 5.5 C-2.08140625 4.86835938 -2.7878125 4.23671875 -3.515625 3.5859375 C-4.04671875 3.10382813 -4.5778125 2.62171875 -5.125 2.125 C-3.125 0.125 -3.125 0.125 0 0 Z " fill="#794826" transform="translate(131.125,272.875)"/>
<path d="M0 0 C1.77499119 5.20256038 0.05096789 10.08349542 -2 15 C-3.87101717 17.22242649 -5.52827842 18.40711276 -8 20 C-8.66 19.34 -9.32 18.68 -10 18 C-9.01 17.67 -8.02 17.34 -7 17 C-6.27118911 15.02179902 -5.62486441 13.01345199 -5 11 C-3.39583081 7.30431909 -1.70225658 3.65140534 0 0 Z " fill="#784F2F" transform="translate(195,161)"/>
<path d="M0 0 C0.66 0.33 1.32 0.66 2 1 C1.67 2.32 1.34 3.64 1 5 C0.34 5 -0.32 5 -1 5 C-1.10441406 5.58265625 -1.20882813 6.1653125 -1.31640625 6.765625 C-2.10293617 9.33645423 -3.17565891 10.7340058 -4.9375 12.75 C-5.46214844 13.36359375 -5.98679687 13.9771875 -6.52734375 14.609375 C-8 16 -8 16 -10 16 C-10 15.34 -10 14.68 -10 14 C-9.34 14 -8.68 14 -8 14 C-7.731875 13.278125 -7.46375 12.55625 -7.1875 11.8125 C-5.99373856 8.98517028 -4.78515449 6.49921628 -3 4 C-2.01 4 -1.02 4 0 4 C0 2.68 0 1.36 0 0 Z " fill="#734D2E" transform="translate(432,212)"/>
<path d="M0 0 C0.99 0.33 1.98 0.66 3 1 C2.54729698 3.23031689 2.08760374 5.45921563 1.625 7.6875 C1.36976563 8.92886719 1.11453125 10.17023438 0.8515625 11.44921875 C0.12613946 14.47403318 -0.75131221 17.16059255 -2 20 C-2.33 20 -2.66 20 -3 20 C-2.51358785 13.15182898 -1.64006048 6.66957927 0 0 Z " fill="#674627" transform="translate(134,362)"/>
<path d="M0 0 C0.99 0 1.98 0 3 0 C1.46511628 12.53488372 1.46511628 12.53488372 -2 16 C-1.34 10.72 -0.68 5.44 0 0 Z " fill="#754B2A" transform="translate(138,339)"/>
<path d="M0 0 C1.32 0 2.64 0 4 0 C4 0.66 4 1.32 4 2 C4.66 2.33 5.32 2.66 6 3 C-0.75 7 -0.75 7 -3 7 C-2.67 5.35 -2.34 3.7 -2 2 C-1.34 2 -0.68 2 0 2 C0 1.34 0 0.68 0 0 Z " fill="#87562B" transform="translate(173,404)"/>
<path d="M0 0 C0.99 1.32 1.98 2.64 3 4 C3.33 2.68 3.66 1.36 4 0 C4.12375 0.639375 4.2475 1.27875 4.375 1.9375 C4.684375 2.9584375 4.684375 2.9584375 5 4 C5.66 4.33 6.32 4.66 7 5 C6.67 6.32 6.34 7.64 6 9 C2.2047869 7.50902342 0.38957269 5.24299151 -2 2 C-1.34 2 -0.68 2 0 2 C0 1.34 0 0.68 0 0 Z " fill="#744A26" transform="translate(99,245)"/>
<path d="M0 0 C1.27847309 3.61233001 0.71332411 6.04606751 -0.3125 9.6875 C-0.57675781 10.66074219 -0.84101563 11.63398438 -1.11328125 12.63671875 C-2 15 -2 15 -4 16 C-3.76110725 14.36187831 -3.52191546 12.72379969 -3.28125 11.0859375 C-3.08857247 9.65691246 -2.92322382 8.2240122 -2.78125 6.7890625 C-2.58542105 4.85175465 -2.29857541 2.92415265 -2 1 C-1.34 0.67 -0.68 0.34 0 0 Z " fill="#6B4827" transform="translate(371,401)"/>
<path d="M0 0 C-1.30986273 1.16962686 -2.6229626 2.33562944 -3.9375 3.5 C-4.66839844 4.1496875 -5.39929688 4.799375 -6.15234375 5.46875 C-8 7 -8 7 -9 7 C-9 4.69 -9 2.38 -9 0 C-5.5657338 -0.85856655 -3.38317487 -0.97591583 0 0 Z " fill="#7E512B" transform="translate(372,277)"/>
<path d="M0 0 C0.66 0 1.32 0 2 0 C2 0.66 2 1.32 2 2 C3.0725 2.061875 4.145 2.12375 5.25 2.1875 C9 3 9 3 11.4375 5.5625 C11.953125 6.366875 12.46875 7.17125 13 8 C11.35 7.67 9.7 7.34 8 7 C8 6.34 8 5.68 8 5 C5.69 4.67 3.38 4.34 1 4 C0.67 2.68 0.34 1.36 0 0 Z " fill="#71482A" transform="translate(250,70)"/>
<path d="M0 0 C0.33 0 0.66 0 1 0 C1.33 1.65 1.66 3.3 2 5 C2.66 4.67 3.32 4.34 4 4 C4 6.97 4 9.94 4 13 C3.01 12.67 2.02 12.34 1 12 C-0.61729417 8.32433144 -0.06546005 3.92760325 0 0 Z " fill="#654026" transform="translate(128,399)"/>
<path d="M0 0 C3.41943506 0.42269769 6.72174346 0.91991217 10 2 C11.625 4.625 11.625 4.625 12 7 C7.69235185 5.43358249 3.93828536 3.31663844 0 1 C0 0.67 0 0.34 0 0 Z " fill="#7A5031" transform="translate(300,394)"/>
<path d="M0 0 C-0.33 1.32 -0.66 2.64 -1 4 C-0.34 4.33 0.32 4.66 1 5 C-1.8125 5.25 -1.8125 5.25 -5 5 C-6.875 3 -6.875 3 -8 1 C-5.29120665 -0.35439668 -2.99066732 -0.06501451 0 0 Z " fill="#8A532D" transform="translate(134,273)"/>
<path d="M0 0 C3.63 0.33 7.26 0.66 11 1 C11.33 1.99 11.66 2.98 12 4 C9.5332355 4.88336837 8.36140628 5.1312406 5.859375 4.22265625 C5.16328125 3.83980469 4.4671875 3.45695312 3.75 3.0625 C3.04359375 2.68222656 2.3371875 2.30195313 1.609375 1.91015625 C1.07828125 1.60980469 0.5471875 1.30945313 0 1 C0 0.67 0 0.34 0 0 Z " fill="#764D2E" transform="translate(330,411)"/>
<path d="M0 0 C0.33 0 0.66 0 1 0 C1.53160457 2.41474617 2.05054766 4.83108107 2.5625 7.25 C2.71396484 7.93191406 2.86542969 8.61382812 3.02148438 9.31640625 C3.75233495 12.81769038 4.32203546 15.60298173 3 19 C2.67 16.36 2.34 13.72 2 11 C1.34 11 0.68 11 0 11 C-1.05404945 7.01803543 -0.84098656 4.01804691 0 0 Z " fill="#603B1E" transform="translate(366,367)"/>
<path d="M0 0 C0.66 0.66 1.32 1.32 2 2 C1.67 2.66 1.34 3.32 1 4 C3.475 4.99 3.475 4.99 6 6 C5.67 6.66 5.34 7.32 5 8 C1.22454612 6.90931332 -1.47043472 6.0916909 -4 3 C-3.01 2.67 -2.02 2.34 -1 2 C-0.67 1.34 -0.34 0.68 0 0 Z " fill="#7B512E" transform="translate(320,400)"/>
<path d="M0 0 C0.33 0.66 0.66 1.32 1 2 C-1.64 4.31 -4.28 6.62 -7 9 C-7.66 8.67 -8.32 8.34 -9 8 C-9 7.34 -9 6.68 -9 6 C-3.80769231 1.26923077 -3.80769231 1.26923077 0 0 Z " fill="#694527" transform="translate(380,267)"/>
<path d="M0 0 C1.32 0.33 2.64 0.66 4 1 C4 1.99 4 2.98 4 4 C4.66 4 5.32 4 6 4 C6 4.66 6 5.32 6 6 C6.99 6.33 7.98 6.66 9 7 C9 7.99 9 8.98 9 10 C8.34 10 7.68 10 7 10 C7 9.34 7 8.68 7 8 C6.34 8 5.68 8 5 8 C5 7.34 5 6.68 5 6 C4.34 6 3.68 6 3 6 C3 5.34 3 4.68 3 4 C2.34 4 1.68 4 1 4 C0.67 2.68 0.34 1.36 0 0 Z " fill="#6A4729" transform="translate(71,220)"/>
<path d="M0 0 C-5.25546752 3.0031243 -10.25922507 1.76543666 -16 1 C-16 0.67 -16 0.34 -16 0 C-10.31302429 -0.91397824 -5.68697571 -0.91397824 0 0 Z " fill="#694023" transform="translate(363,419)"/>
<path d="M0 0 C1.67110042 2.96178773 2.32682752 5.37071192 2.625 8.75 C2.69976562 9.54921875 2.77453125 10.3484375 2.8515625 11.171875 C2.90054688 11.77515625 2.94953125 12.3784375 3 13 C2.01 13.495 2.01 13.495 1 14 C0.63495397 12.41913952 0.28339494 10.83516093 -0.0625 9.25 C-0.25972656 8.36828125 -0.45695312 7.4865625 -0.66015625 6.578125 C-0.99825872 4.01320972 -0.81158635 2.42908361 0 0 Z " fill="#764E2E" transform="translate(66,202)"/>
<path d="M0 0 C2.97 0.495 2.97 0.495 6 1 C6 2.65 6 4.3 6 6 C3.08482708 4.92598892 1.22189824 4.22189824 -1 2 C-0.67 1.34 -0.34 0.68 0 0 Z " fill="#885429" transform="translate(290,386)"/>
<path d="M0 0 C0.66 0 1.32 0 2 0 C3.06775224 1.96466413 4.06553465 3.96855359 5 6 C4.67 6.66 4.34 7.32 4 8 C2.35 7.01 0.7 6.02 -1 5 C-0.67 3.35 -0.34 1.7 0 0 Z " fill="#81542C" transform="translate(277,104)"/>
<path d="M0 0 C0.66 0.33 1.32 0.66 2 1 C1.67 5.29 1.34 9.58 1 14 C-1.37247875 9.25504251 -1.25100218 7.18737832 -1 2 C-0.67 1.34 -0.34 0.68 0 0 Z " fill="#774F2E" transform="translate(352,290)"/>
<path d="M0 0 C3.63 0 7.26 0 11 0 C8 3 8 3 5.95703125 3.07421875 C2.97851562 2.53710938 2.97851562 2.53710938 0 2 C0 1.34 0 0.68 0 0 Z " fill="#9B673C" transform="translate(109,187)"/>
<path d="M0 0 C1.98 0 3.96 0 6 0 C6 0.66 6 1.32 6 2 C6.99 2 7.98 2 9 2 C9 2.99 9 3.98 9 5 C5.22454612 3.90931332 2.52956528 3.0916909 0 0 Z " fill="#754F2E" transform="translate(273,379)"/>
<path d="M0 0 C0.66 0 1.32 0 2 0 C1.979375 1.051875 1.95875 2.10375 1.9375 3.1875 C1.98896802 6.32704904 2.26517187 8.96883396 3 12 C2.01 12.33 1.02 12.66 0 13 C0 8.71 0 4.42 0 0 Z " fill="#724B2B" transform="translate(147,293)"/>
<path d="M0 0 C1.32 0 2.64 0 4 0 C2.70700306 2.88437779 1.34058637 4.87219421 -1 7 C-1.99 6.67 -2.98 6.34 -4 6 C-3.01 5.67 -2.02 5.34 -1 5 C-0.67 3.35 -0.34 1.7 0 0 Z " fill="#6C4728" transform="translate(412,234)"/>
<path d="M0 0 C2.475 0.495 2.475 0.495 5 1 C5.1875 3.875 5.1875 3.875 5 7 C4.01 7.66 3.02 8.32 2 9 C2.33 7.02 2.66 5.04 3 3 C2.34 3 1.68 3 1 3 C0.67 2.01 0.34 1.02 0 0 Z " fill="#97653E" transform="translate(146,290)"/>
<path d="M0 0 C3.48331435 3.01887244 4.79157144 5.56909529 6 10 C3.5625 8.9375 3.5625 8.9375 1 7 C0.1875 3.3125 0.1875 3.3125 0 0 Z " fill="#6A4226" transform="translate(267,84)"/>
<path d="M0 0 C0.78375 0.04125 1.5675 0.0825 2.375 0.125 C2.705 1.445 3.035 2.765 3.375 4.125 C0.5 4.25 0.5 4.25 -2.625 4.125 C-3.285 3.465 -3.945 2.805 -4.625 2.125 C-2.625 0.125 -2.625 0.125 0 0 Z " fill="#88552F" transform="translate(249.625,363.875)"/>
<path d="M0 0 C1.32 0.33 2.64 0.66 4 1 C0.535 3.97 0.535 3.97 -3 7 C-3.66 6.34 -4.32 5.68 -5 5 C-3.68 4.67 -2.36 4.34 -1 4 C-0.67 2.68 -0.34 1.36 0 0 Z " fill="#603E24" transform="translate(359,284)"/>
<path d="M0 0 C-1.65 1.32 -3.3 2.64 -5 4 C-5.99 3.34 -6.98 2.68 -8 2 C-6.14210462 -1.71579076 -3.44525918 -1.06921837 0 0 Z " fill="#96653C" transform="translate(248,74)"/>
<path d="M0 0 C1.98 0 3.96 0 6 0 C0.85714286 4.42857143 0.85714286 4.42857143 -3 5 C-2.67 4.01 -2.34 3.02 -2 2 C-1.34 2 -0.68 2 0 2 C0 1.34 0 0.68 0 0 Z " fill="#6B482A" transform="translate(223,378)"/>
<path d="M0 0 C1.98 0 3.96 0 6 0 C6.33 0.66 6.66 1.32 7 2 C6.34 2 5.68 2 5 2 C5 2.66 5 3.32 5 4 C4.01 4.33 3.02 4.66 2 5 C1.34 3.35 0.68 1.7 0 0 Z " fill="#7D4F2C" transform="translate(417,192)"/>
<path d="M0 0 C0 0.66 0 1.32 0 2 C-1.96466413 3.06775224 -3.96855359 4.06553465 -6 5 C-6.66 4.67 -7.32 4.34 -8 4 C-5.52914451 0.29371676 -4.37054922 0 0 0 Z " fill="#704925" transform="translate(168,411)"/>
<path d="M0 0 C1.2065625 0.0309375 1.2065625 0.0309375 2.4375 0.0625 C2.4375 0.7225 2.4375 1.3825 2.4375 2.0625 C-0.77701269 3.66975635 -3.99862536 3.11998185 -7.5625 3.0625 C-6.923125 2.753125 -6.28375 2.44375 -5.625 2.125 C-1.57454819 0.03840361 -1.57454819 0.03840361 0 0 Z " fill="#74492D" transform="translate(87.5625,189.9375)"/>
<path d="M0 0 C2.64850992 2.64850992 4.33103223 5.66206447 6 9 C4.35 8.67 2.7 8.34 1 8 C0.67 5.36 0.34 2.72 0 0 Z " fill="#603D22" transform="translate(308,170)"/>
<path d="M0 0 C2.8670615 2.8670615 4 4.91591468 4 9 C3.01 9 2.02 9 1 9 C0.67 6.03 0.34 3.06 0 0 Z " fill="#764C2D" transform="translate(284,116)"/>
<path d="M0 0 C2.31 0 4.62 0 7 0 C7 1.32 7 2.64 7 4 C4.97954558 3.39816251 2.97888961 2.72693904 1 2 C0.67 1.34 0.34 0.68 0 0 Z " fill="#6D492B" transform="translate(282,384)"/>
<path d="M0 0 C0.66 0.99 1.32 1.98 2 3 C1.34 4.32 0.68 5.64 0 7 C-1.32 6.01 -2.64 5.02 -4 4 C-3.67 3.34 -3.34 2.68 -3 2 C-2.34 2 -1.68 2 -1 2 C-0.67 1.34 -0.34 0.68 0 0 Z " fill="#724927" transform="translate(125,267)"/>
</svg>
