<?xml version="1.0" encoding="UTF-8"?>
<svg version="1.1" xmlns="http://www.w3.org/2000/svg" width="1024" height="1024">
<path d="M0 0 C337.92 0 675.84 0 1024 0 C1024 337.92 1024 675.84 1024 1024 C686.08 1024 348.16 1024 0 1024 C0 686.08 0 348.16 0 0 Z " fill="#FCFCFC" transform="translate(0,0)"/>
<path d="M0 0 C1.76079391 0.00515121 1.76079391 0.00515121 3.55715942 0.01040649 C30.93311476 0.1044066 57.05856989 2.12150128 84 7.25 C85.19302734 7.47703613 86.38605469 7.70407227 87.61523438 7.93798828 C148.09424483 19.68672521 207.61023186 43.644026 256 82.25 C257.52560547 83.45462891 257.52560547 83.45462891 259.08203125 84.68359375 C276.49001333 98.65480683 293.35401471 114.56389898 307 132.25 C308.43559748 133.95993243 309.87318199 135.66819811 311.3125 137.375 C349.83684505 184.64577347 373.25306229 242.81909943 380 303.25 C380.08732895 303.9989151 380.1746579 304.7478302 380.26463318 305.5194397 C380.95520025 311.81260529 381.17453734 318.03517997 381.203125 324.36328125 C381.21357849 325.92308716 381.21357849 325.92308716 381.22424316 327.5144043 C381.24158145 330.86381097 381.24796602 334.21305027 381.25 337.5625 C381.25100708 338.70560638 381.25201416 339.84871277 381.25305176 341.02645874 C381.24255126 358.63594558 380.66565787 375.81735167 378 393.25 C377.86609863 394.18231445 377.73219727 395.11462891 377.59423828 396.07519531 C369.67863337 450.01644475 346.7552384 499.73932457 313 542.25 C312.26136719 543.18328125 311.52273438 544.1165625 310.76171875 545.078125 C305.55628468 551.55024551 300.02531572 557.68090829 294.37304688 563.75927734 C292.15590942 566.16643263 289.99082103 568.6202413 287.8125 571.0625 C284.44289685 574.77065041 281.00567255 578.17023505 277.171875 581.390625 C275.01791344 583.23466403 272.94738082 585.1533268 270.87988281 587.09326172 C247.64491001 608.8129102 220.26697761 626.51590364 192.52001953 641.85644531 C190.89789004 642.75347255 189.27880525 643.65603943 187.66357422 644.56542969 C143.86470923 669.17450909 94.4628613 680.39140166 45 686.25 C43.91879883 686.38132324 42.83759766 686.51264648 41.72363281 686.64794922 C9.4513914 690.39674494 -24.72727347 689.95004218 -56.703125 684.23095703 C-72.49908034 681.51782875 -83.3995654 683.71858515 -96.57421875 692.80859375 C-101.27107656 696.13858985 -105.9308745 699.52053184 -110.58959961 702.90356445 C-126.08415568 714.13755774 -141.79311474 725.06628125 -158 735.25 C-159.23314941 736.0248877 -159.23314941 736.0248877 -160.49121094 736.81542969 C-172.20843738 744.15776013 -183.98066682 751.41082208 -196 758.25 C-197.02722168 758.8375708 -197.02722168 758.8375708 -198.07519531 759.43701172 C-217.90170846 770.67574346 -236.71727722 778.42930361 -259.6875 772.625 C-269.43815001 769.35189448 -278.25981324 763.56536528 -283.0625 754.171875 C-289.1931769 738.72728511 -285.36004934 722.71922991 -279.1171875 707.953125 C-276.65088579 702.3494872 -273.92171144 696.87143551 -271.22967529 691.37384033 C-251.94553219 653.51413104 -251.94553219 653.51413104 -243.625 612.4375 C-243.57601562 611.27605469 -243.52703125 610.11460937 -243.4765625 608.91796875 C-244.64362917 600.7397926 -250.75298357 595.08152376 -256.4609375 589.53125 C-257.16973053 588.82907349 -257.87852356 588.12689697 -258.60879517 587.40344238 C-260.85712787 585.17832789 -263.11541315 582.96367993 -265.375 580.75 C-267.62568297 578.53461996 -269.87411282 576.31702041 -272.11978149 574.09655762 C-273.51116102 572.72187756 -274.90562643 571.35031072 -276.30380249 569.98254395 C-280.76545974 565.58849285 -284.92882617 561.0063818 -289 556.25 C-289.845625 555.28578125 -290.69125 554.3215625 -291.5625 553.328125 C-303.45383847 539.53112331 -314.70964551 524.94028159 -324 509.25 C-324.37898438 508.6101416 -324.75796875 507.9702832 -325.1484375 507.31103516 C-337.25897635 486.62714507 -347.23908556 464.91983008 -355 442.25 C-355.29100586 441.40695312 -355.58201172 440.56390625 -355.88183594 439.6953125 C-362.10177456 421.35052297 -365.18026858 402.21647164 -367.75 383.0625 C-367.92341919 381.77508911 -367.92341919 381.77508911 -368.1003418 380.46166992 C-369.77264975 367.1098718 -370.21076175 353.69569197 -370.1875 340.25 C-370.18609512 339.18150818 -370.18609512 339.18150818 -370.18466187 338.09143066 C-369.9866656 267.90906896 -346.46129338 198.50418638 -303 143.25 C-302.48324707 142.5890332 -301.96649414 141.92806641 -301.43408203 141.24707031 C-288.15308667 124.33209376 -273.43490963 108.16097708 -257 94.25 C-256.0925 93.45335937 -255.185 92.65671875 -254.25 91.8359375 C-200.67885915 45.11791791 -131.42189658 16.92651477 -61.9375 4.9375 C-61.22885803 4.81421326 -60.52021606 4.69092651 -59.7901001 4.56390381 C-39.80451201 1.12280377 -20.28310099 -0.09681885 0 0 Z " fill="#FDBA1D" transform="translate(506,123.75)"/>
<path d="M0 0 C0.63099609 0.34643555 1.26199219 0.69287109 1.91210938 1.04980469 C33.71685697 18.76774002 58.42240945 46.84331151 69 82 C70.88125326 88.94743529 72.50108001 95.96082636 74 103 C74.18030762 103.75643799 74.36061523 104.51287598 74.54638672 105.29223633 C75.13558592 108.80935601 75.20066167 112.28742535 75.23828125 115.84375 C75.25304001 116.97997803 75.25304001 116.97997803 75.26809692 118.13916016 C75.43595394 134.42981865 75.55177832 150.21555542 71 166 C70.75330566 166.86963379 70.50661133 167.73926758 70.25244141 168.63525391 C64.24323833 189.24508667 54.91945159 207.57348021 41 224 C40.32324219 224.80050781 39.64648438 225.60101563 38.94921875 226.42578125 C28.3535834 238.57105248 16.41505593 248.1264312 3.28417969 257.37988281 C-0.40776775 259.99849795 -4.05387456 262.67624976 -7.6875 265.375 C-8.32212158 265.83841797 -8.95674316 266.30183594 -9.6105957 266.77929688 C-25.52682976 278.6314069 -29.72690664 291.57251199 -33.45898438 310.40283203 C-35.86231609 321.94012571 -40.09775267 331.144598 -50 338 C-63.40988309 345.14166188 -79.13208199 345.497303 -93.95507812 345.39111328 C-96.62942139 345.37497332 -99.30226348 345.39108904 -101.9765625 345.41015625 C-118.8310161 345.43175367 -134.07036412 343.69542973 -146.9375 331.6875 C-158.58080806 319.27490195 -158.47804908 300.75944445 -158.20703125 284.66796875 C-157.17427935 253.97052743 -142.71769656 226.921802 -122 205 C-121.27683594 204.21238281 -120.55367187 203.42476562 -119.80859375 202.61328125 C-112.88130571 195.33435423 -105.00848349 189.51213342 -96.98876953 183.50146484 C-81.58315693 171.8706623 -67.075635 158.7629848 -63 139 C-62.24721019 130.61797504 -63.37089912 123.05938019 -68.5625 116.25 C-74.32106814 110.05953925 -82.16749567 107.33689459 -90.41796875 106.76171875 C-102.2103529 106.52953709 -111.17182747 108.80241122 -120 117 C-126.2408056 123.76087273 -127.79609753 131.72941786 -129.375 140.5625 C-131.34510911 150.67572676 -135.45593249 157.1305971 -144 163 C-164.78497975 175.78785506 -206.7667025 165.80319442 -229.45703125 161.31640625 C-239.14065285 158.97167161 -246.28350107 154.23357803 -252 146 C-261.65390946 126.51536955 -255.66808299 100.44215719 -249.390625 80.796875 C-236.68950185 43.45823285 -207.24749686 11.4843856 -172 -6 C-117.28945783 -31.04832961 -52.82016013 -29.04286063 0 0 Z " fill="#FB8801" transform="translate(604,247)"/>
<path d="M0 0 C1.76079391 0.00515121 1.76079391 0.00515121 3.55715942 0.01040649 C30.93311476 0.1044066 57.05856989 2.12150128 84 7.25 C85.19302734 7.47703613 86.38605469 7.70407227 87.61523438 7.93798828 C148.09424483 19.68672521 207.61023186 43.644026 256 82.25 C257.52560547 83.45462891 257.52560547 83.45462891 259.08203125 84.68359375 C276.49001333 98.65480683 293.35401471 114.56389898 307 132.25 C308.43559748 133.95993243 309.87318199 135.66819811 311.3125 137.375 C349.83684505 184.64577347 373.25306229 242.81909943 380 303.25 C380.08732895 303.9989151 380.1746579 304.7478302 380.26463318 305.5194397 C380.95520025 311.81260529 381.17453734 318.03517997 381.203125 324.36328125 C381.21357849 325.92308716 381.21357849 325.92308716 381.22424316 327.5144043 C381.24158145 330.86381097 381.24796602 334.21305027 381.25 337.5625 C381.25100708 338.70560638 381.25201416 339.84871277 381.25305176 341.02645874 C381.24255126 358.63594558 380.66565787 375.81735167 378 393.25 C377.86609863 394.18231445 377.73219727 395.11462891 377.59423828 396.07519531 C369.67863337 450.01644475 346.7552384 499.73932457 313 542.25 C312.26136719 543.18328125 311.52273438 544.1165625 310.76171875 545.078125 C305.55628468 551.55024551 300.02531572 557.68090829 294.37304688 563.75927734 C292.15590942 566.16643263 289.99082103 568.6202413 287.8125 571.0625 C284.44289685 574.77065041 281.00567255 578.17023505 277.171875 581.390625 C275.01791344 583.23466403 272.94738082 585.1533268 270.87988281 587.09326172 C247.64491001 608.8129102 220.26697761 626.51590364 192.52001953 641.85644531 C190.89789004 642.75347255 189.27880525 643.65603943 187.66357422 644.56542969 C143.86470923 669.17450909 94.4628613 680.39140166 45 686.25 C43.91879883 686.38132324 42.83759766 686.51264648 41.72363281 686.64794922 C9.4513914 690.39674494 -24.72727347 689.95004218 -56.703125 684.23095703 C-72.49908034 681.51782875 -83.3995654 683.71858515 -96.57421875 692.80859375 C-101.27107656 696.13858985 -105.9308745 699.52053184 -110.58959961 702.90356445 C-126.08415568 714.13755774 -141.79311474 725.06628125 -158 735.25 C-159.23314941 736.0248877 -159.23314941 736.0248877 -160.49121094 736.81542969 C-172.20843738 744.15776013 -183.98066682 751.41082208 -196 758.25 C-197.02722168 758.8375708 -197.02722168 758.8375708 -198.07519531 759.43701172 C-217.90170846 770.67574346 -236.71727722 778.42930361 -259.6875 772.625 C-269.43815001 769.35189448 -278.25981324 763.56536528 -283.0625 754.171875 C-289.1931769 738.72728511 -285.36004934 722.71922991 -279.1171875 707.953125 C-276.65088579 702.3494872 -273.92171144 696.87143551 -271.22967529 691.37384033 C-251.94553219 653.51413104 -251.94553219 653.51413104 -243.625 612.4375 C-243.57601562 611.27605469 -243.52703125 610.11460937 -243.4765625 608.91796875 C-244.64362917 600.7397926 -250.75298357 595.08152376 -256.4609375 589.53125 C-257.16973053 588.82907349 -257.87852356 588.12689697 -258.60879517 587.40344238 C-260.85712787 585.17832789 -263.11541315 582.96367993 -265.375 580.75 C-267.62568297 578.53461996 -269.87411282 576.31702041 -272.11978149 574.09655762 C-273.51116102 572.72187756 -274.90562643 571.35031072 -276.30380249 569.98254395 C-280.76545974 565.58849285 -284.92882617 561.0063818 -289 556.25 C-289.845625 555.28578125 -290.69125 554.3215625 -291.5625 553.328125 C-303.45383847 539.53112331 -314.70964551 524.94028159 -324 509.25 C-324.37898438 508.6101416 -324.75796875 507.9702832 -325.1484375 507.31103516 C-337.25897635 486.62714507 -347.23908556 464.91983008 -355 442.25 C-355.29100586 441.40695312 -355.58201172 440.56390625 -355.88183594 439.6953125 C-362.10177456 421.35052297 -365.18026858 402.21647164 -367.75 383.0625 C-367.92341919 381.77508911 -367.92341919 381.77508911 -368.1003418 380.46166992 C-369.77264975 367.1098718 -370.21076175 353.69569197 -370.1875 340.25 C-370.18609512 339.18150818 -370.18609512 339.18150818 -370.18466187 338.09143066 C-369.9866656 267.90906896 -346.46129338 198.50418638 -303 143.25 C-302.48324707 142.5890332 -301.96649414 141.92806641 -301.43408203 141.24707031 C-288.15308667 124.33209376 -273.43490963 108.16097708 -257 94.25 C-256.0925 93.45335937 -255.185 92.65671875 -254.25 91.8359375 C-200.67885915 45.11791791 -131.42189658 16.92651477 -61.9375 4.9375 C-61.22885803 4.81421326 -60.52021606 4.69092651 -59.7901001 4.56390381 C-39.80451201 1.12280377 -20.28310099 -0.09681885 0 0 Z M-36.55224609 28.98095703 C-38.92496195 29.24175225 -41.29711404 29.45407944 -43.67578125 29.65234375 C-55.00255733 30.65397283 -65.96875169 32.95114965 -77.02783203 35.55126953 C-78.97771927 36.00967082 -80.92918937 36.46140121 -82.88232422 36.90576172 C-136.57840143 49.14645315 -188.58201804 72.77685618 -231 108.25 C-231.97839844 109.05566406 -232.95679688 109.86132812 -233.96484375 110.69140625 C-293.09743399 159.72021033 -333.08601192 230.39289002 -341.59375 307.12890625 C-342.35194069 316.20302263 -342.19775633 325.3388015 -342.1875 334.4375 C-342.18689575 335.4204303 -342.1862915 336.4033606 -342.18566895 337.41607666 C-342.07150333 405.72470872 -320.80103733 469.66691339 -278 523.25 C-277.57058105 523.79124512 -277.14116211 524.33249023 -276.69873047 524.89013672 C-272.10693948 530.66389908 -267.31300625 536.22370389 -262.3359375 541.66796875 C-261.07968895 543.05656456 -259.82970632 544.45166198 -258.62158203 545.88232422 C-254.9248401 550.23283445 -251.01046071 554.29483039 -246.9453125 558.296875 C-246.39563812 558.83870926 -245.84596375 559.38054352 -245.27963257 559.938797 C-242.99238016 562.18963971 -240.70271834 564.43784254 -238.40283203 566.67578125 C-216.74972559 587.77906559 -216.74972559 587.77906559 -215.734375 599.2512207 C-215.77251055 606.84674886 -216.49919719 613.99519469 -218 621.4375 C-218.21930176 622.54609375 -218.43860352 623.6546875 -218.66455078 624.796875 C-221.23916013 637.21660846 -224.90875206 649.2542222 -229 661.25 C-229.39711182 662.42224121 -229.39711182 662.42224121 -229.80224609 663.61816406 C-234.10577512 676.04932042 -239.92492328 687.87580056 -245.58227539 699.73291016 C-253.55538839 714.79741953 -253.55538839 714.79741953 -256.5625 731.1875 C-256.56378906 732.41339844 -256.56507813 733.63929688 -256.56640625 734.90234375 C-255.90897398 738.78799518 -254.73959571 740.46943837 -252 743.25 C-245.25074677 746.62462662 -233.93951405 744.62717431 -227.0625 742.5625 C-201.47305365 732.96645762 -177.97116634 717.12760547 -155.73779297 701.47021484 C-154.04132825 700.27901919 -152.33710483 699.10007404 -150.62890625 697.92578125 C-147.41094928 695.71222861 -144.20305446 693.4850552 -141 691.25 C-139.42605469 690.15171875 -139.42605469 690.15171875 -137.8203125 689.03125 C-131.49546057 684.57966125 -125.31456072 679.97313501 -119.19116211 675.24755859 C-87.64643726 650.93247411 -87.64643726 650.93247411 -73 652.25 C-70.56657064 652.78265065 -68.14922734 653.39242291 -65.75 654.0625 C-44.82435345 659.4043404 -22.87678445 659.72715441 -1.40649414 659.58618164 C2.46033339 659.56235933 6.32647565 659.56568639 10.19335938 659.57226562 C30.67208372 659.55082339 50.56897839 657.97431112 70.75 654.5625 C71.51759644 654.43405701 72.28519287 654.30561401 73.0760498 654.17327881 C87.02588356 651.8152313 100.51155395 648.54662217 114 644.25 C115.48234131 643.79004639 115.48234131 643.79004639 116.99462891 643.32080078 C154.76975754 631.55837574 190.08586136 614.65705752 222 591.25 C222.55623047 590.8468457 223.11246094 590.44369141 223.68554688 590.02832031 C231.18266767 584.59313941 238.2751414 578.76108959 245.28515625 572.72216797 C247.07872866 571.18241261 248.88206331 569.65472735 250.6875 568.12890625 C258.64434312 561.38974411 266.14028455 554.56470199 272.9453125 546.640625 C274.4875053 544.84628661 276.04791375 543.06757791 277.6171875 541.296875 C327.84094681 484.28865193 356.67671856 411.42847305 355 335.25 C354.97897217 333.9211377 354.97897217 333.9211377 354.95751953 332.56542969 C353.53009961 253.13024659 318.30290481 179.74894563 262.28515625 124.44140625 C258.9573016 121.25007897 255.51473676 118.23257591 252 115.25 C250.65421875 114.07050781 250.65421875 114.07050781 249.28125 112.8671875 C220.53315886 87.8321388 186.64952681 67.79287635 151 54.25 C150.06833008 53.89244629 149.13666016 53.53489258 148.17675781 53.16650391 C121.69477176 43.08446416 94.4016941 35.65754521 66.4375 31.0625 C65.50615234 30.9075708 64.57480469 30.7526416 63.61523438 30.59301758 C45.69009983 27.79107134 27.87087238 26.905424 9.75 27 C8.7239566 27.00243713 7.69791321 27.00487427 6.64077759 27.00738525 C-7.82559581 27.04762708 -22.16323927 27.36093025 -36.55224609 28.98095703 Z " fill="#632200" transform="translate(506,123.75)"/>
<path d="M0 0 C0.63099609 0.34643555 1.26199219 0.69287109 1.91210938 1.04980469 C33.71685697 18.76774002 58.42240945 46.84331151 69 82 C70.88125326 88.94743529 72.50108001 95.96082636 74 103 C74.18030762 103.75643799 74.36061523 104.51287598 74.54638672 105.29223633 C75.13558592 108.80935601 75.20066167 112.28742535 75.23828125 115.84375 C75.25304001 116.97997803 75.25304001 116.97997803 75.26809692 118.13916016 C75.43595394 134.42981865 75.55177832 150.21555542 71 166 C70.75330566 166.86963379 70.50661133 167.73926758 70.25244141 168.63525391 C64.24323833 189.24508667 54.91945159 207.57348021 41 224 C40.32324219 224.80050781 39.64648438 225.60101563 38.94921875 226.42578125 C28.3535834 238.57105248 16.41505593 248.1264312 3.28417969 257.37988281 C-0.40776775 259.99849795 -4.05387456 262.67624976 -7.6875 265.375 C-8.32212158 265.83841797 -8.95674316 266.30183594 -9.6105957 266.77929688 C-25.52682976 278.6314069 -29.72690664 291.57251199 -33.45898438 310.40283203 C-35.86231609 321.94012571 -40.09775267 331.144598 -50 338 C-63.40988309 345.14166188 -79.13208199 345.497303 -93.95507812 345.39111328 C-96.62942139 345.37497332 -99.30226348 345.39108904 -101.9765625 345.41015625 C-118.8310161 345.43175367 -134.07036412 343.69542973 -146.9375 331.6875 C-158.58080806 319.27490195 -158.47804908 300.75944445 -158.20703125 284.66796875 C-157.17427935 253.97052743 -142.71769656 226.921802 -122 205 C-121.27683594 204.21238281 -120.55367187 203.42476562 -119.80859375 202.61328125 C-112.88130571 195.33435423 -105.00848349 189.51213342 -96.98876953 183.50146484 C-81.58315693 171.8706623 -67.075635 158.7629848 -63 139 C-62.24721019 130.61797504 -63.37089912 123.05938019 -68.5625 116.25 C-74.32106814 110.05953925 -82.16749567 107.33689459 -90.41796875 106.76171875 C-102.2103529 106.52953709 -111.17182747 108.80241122 -120 117 C-126.2408056 123.76087273 -127.79609753 131.72941786 -129.375 140.5625 C-131.34510911 150.67572676 -135.45593249 157.1305971 -144 163 C-164.78497975 175.78785506 -206.7667025 165.80319442 -229.45703125 161.31640625 C-239.14065285 158.97167161 -246.28350107 154.23357803 -252 146 C-261.65390946 126.51536955 -255.66808299 100.44215719 -249.390625 80.796875 C-236.68950185 43.45823285 -207.24749686 11.4843856 -172 -6 C-117.28945783 -31.04832961 -52.82016013 -29.04286063 0 0 Z M-203 51 C-206.32404827 55.11876326 -209.19121135 59.51856192 -212 64 C-212.68835938 65.07765625 -213.37671875 66.1553125 -214.0859375 67.265625 C-223.89895185 83.43266013 -234.80288984 108.67796412 -231 128 C-228.62322549 132.14116579 -225.95285904 133.91749814 -221.42675781 135.40527344 C-216.47418032 136.6190037 -211.43966996 137.1094479 -206.375 137.625 C-205.21218506 137.74979736 -204.04937012 137.87459473 -202.85131836 138.00317383 C-199.56876903 138.3494188 -196.28509448 138.67891661 -193 139 C-191.87924072 139.11239014 -191.87924072 139.11239014 -190.73583984 139.22705078 C-186.82508892 139.60786916 -182.92606226 139.84882659 -179 140 C-178.22479004 140.03254883 -177.44958008 140.06509766 -176.65087891 140.09863281 C-174.05894252 140.19618145 -171.4681966 140.25911998 -168.875 140.3125 C-168.05588135 140.34239014 -167.2367627 140.37228027 -166.39282227 140.40307617 C-162.92188275 140.43678165 -160.67478506 140.39970629 -157.65234375 138.609375 C-155.14549172 134.65056376 -154.00908614 130.40837292 -152.6875 125.9375 C-150.11863063 117.77842056 -147.3133731 110.80738277 -142 104 C-141.25556641 102.95392578 -141.25556641 102.95392578 -140.49609375 101.88671875 C-132.28816353 91.2925231 -117.62470871 83.74182663 -104.6328125 81.390625 C-86.01475151 79.38868296 -69.09658337 82.39550887 -54 94 C-43.612147 102.82777251 -37.11367869 114.41774161 -35.8046875 128.03125 C-34.81300729 147.86485419 -45.5369326 169.27559254 -58 184 C-58.98419922 185.18529297 -58.98419922 185.18529297 -59.98828125 186.39453125 C-68.34022318 196.09011283 -77.98930063 203.69237539 -88.5 210.875 C-111.36049937 226.66060422 -125.36216204 249.50150307 -130.53271484 276.81396484 C-131.32181182 282.1941715 -131.22592477 287.57103639 -131.25 293 C-131.270625 294.16273438 -131.29125 295.32546875 -131.3125 296.5234375 C-131.45784772 304.73615552 -131.45784772 304.73615552 -128 312 C-119.81022179 320.07835266 -106.20071773 319.28769443 -95.4375 319.3125 C-78.30436398 319.5224062 -78.30436398 319.5224062 -62.55078125 313.70703125 C-58.27807924 309.0038303 -57.4775047 302.92382305 -56.625 296.875 C-52.33653272 270.12077907 -36.99260966 253.48514297 -16 238 C-13.76323242 236.39912146 -11.51818365 234.8102684 -9.27319336 233.22094727 C-0.93864056 227.30304017 6.76390106 221.23609894 14 214 C14.93199219 213.06800781 15.86398437 212.13601563 16.82421875 211.17578125 C38.43120957 188.92028082 49.70453711 159.27219614 50.25 128.4375 C49.88430228 107.85086964 45.02814755 88.91858755 35 71 C34.40960937 69.90816406 33.81921875 68.81632812 33.2109375 67.69140625 C17.65360049 39.80896435 -8.95975036 21.42752515 -39 12 C-39.67224609 11.78746582 -40.34449219 11.57493164 -41.03710938 11.35595703 C-97.86803233 -6.33546249 -162.64689006 4.98329569 -203 51 Z " fill="#652200" transform="translate(604,247)"/>
<path d="M0 0 C1.0916748 0.00902344 2.18334961 0.01804687 3.30810547 0.02734375 C22.07199137 0.42510609 39.05336573 5.77203214 52.734375 19.11328125 C66.53432246 34.09680084 70.81863176 53.30114204 70.01855469 73.17236328 C68.94280326 90.14654985 60.69109785 106.17823104 48.46484375 117.7109375 C32.68166085 131.16791436 11.6733025 134.50320242 -8.45556641 133.6640625 C-25.24260119 132.23929862 -41.5597803 122.73253268 -52.875 110.625 C-66.27835905 94.47789451 -69.94144755 73.80553477 -68.125 53.4375 C-65.49178026 37.90416333 -55.81635258 22.95469283 -43.4609375 13.37109375 C-30.3384925 4.61649427 -15.74510144 -0.15708285 0 0 Z " fill="#5E1F00" transform="translate(508.125,598.5625)"/>
<path d="M0 0 C8.87992958 6.34280684 17.25786391 14.2926041 19.1875 25.5625 C20.03915977 37.9604324 19.46913518 48.98046479 11.0625 58.875 C1.41738359 68.70985641 -9.24350848 74.42700668 -23.125 74.9375 C-35.64483818 74.7833148 -47.72008347 70.22989539 -56.8125 61.5625 C-65.56252959 51.71670243 -67.60549213 41.4921378 -67.15234375 28.6875 C-66.49775689 18.47501314 -61.92392177 10.76249819 -54.8125 3.5625 C-39.75250056 -9.2633237 -16.83384517 -10.39737496 0 0 Z " fill="#F88200" transform="translate(532.8125,631.4375)"/>
<path d="M0 0 C0.76701233 0.00054382 1.53402466 0.00108765 2.32427979 0.00164795 C40.04781409 0.12401571 77.83849304 10.69133344 106.25 36.375 C106.7342041 36.81005859 107.2184082 37.24511719 107.71728516 37.69335938 C115.58815754 44.85926437 121.66954955 52.63857976 127.22509766 61.70507812 C128.12171295 63.16597584 129.04867096 64.60816239 129.98046875 66.046875 C133.13736678 71.17572895 133.54410191 74.39492777 133.25 80.375 C134.14797113 83.74321272 134.14797113 83.74321272 135.25 86.375 C134.26 86.375 133.27 86.375 132.25 86.375 C130.48363972 83.84513578 128.88875326 81.332352 127.3125 78.6875 C122.1113869 70.29583238 116.18013431 63.36504901 109.25 56.375 C108.60289062 55.67890625 107.95578125 54.9828125 107.2890625 54.265625 C102.80694018 49.50994592 97.69001486 45.96214876 92.25 42.375 C91.70891602 42.01083984 91.16783203 41.64667969 90.61035156 41.27148438 C88.85075135 40.08780758 87.08296375 38.91735475 85.3125 37.75 C84.23097656 37.03585937 83.14945313 36.32171875 82.03515625 35.5859375 C51.65674555 17.03135879 7.57955359 13.21350706 -26.7578125 21.05859375 C-48.2720742 26.53166735 -68.04898966 35.5971363 -84.75 50.375 C-85.57757813 51.10203125 -86.40515625 51.8290625 -87.2578125 52.578125 C-100.31914346 64.86578827 -113.41218404 84.68340034 -118.25 102.125 C-119.39879917 105.75972523 -120.60313677 108.0402305 -123.75 110.375 C-124.41 110.375 -125.07 110.375 -125.75 110.375 C-126.08 111.365 -126.41 112.355 -126.75 113.375 C-128.73 113.045 -130.71 112.715 -132.75 112.375 C-133.08 114.025 -133.41 115.675 -133.75 117.375 C-134.08 117.375 -134.41 117.375 -134.75 117.375 C-136.55893747 93.65781989 -123.6693045 67.55317695 -109.3125 49.4375 C-107.81845583 47.72623664 -106.29636528 46.03913482 -104.75 44.375 C-104.31107422 43.89514648 -103.87214844 43.41529297 -103.41992188 42.92089844 C-76.97514392 14.25093402 -38.55312367 -0.10315287 0 0 Z " fill="#FDAC1A" transform="translate(508.75,250.625)"/>
<path d="M0 0 C5.31725736 3.8465266 10.54862782 8.11200423 14.203125 13.59375 C13.828125 16.28125 13.828125 16.28125 13.203125 18.59375 C11.4296875 19.29296875 11.4296875 19.29296875 9.203125 19.59375 C7.4140625 18.30078125 7.4140625 18.30078125 5.578125 16.40625 C-3.92605315 7.57212522 -15.53642675 7.40696891 -27.859375 7.53125 C-28.72498047 7.53576172 -29.59058594 7.54027344 -30.48242188 7.54492188 C-32.58727039 7.55655087 -34.69208258 7.57447927 -36.796875 7.59375 C-36.796875 8.25375 -36.796875 8.91375 -36.796875 9.59375 C-37.828125 9.84125 -38.859375 10.08875 -39.921875 10.34375 C-47.029979 12.39306224 -52.75539936 17.1156804 -56.484375 23.46875 C-59.0016045 29.46215357 -60.05836679 35.01260344 -60.453125 41.45703125 C-60.796875 43.59375 -60.796875 43.59375 -62.796875 45.59375 C-66.01689207 43.14679259 -66.74640321 41.94742363 -67.328125 37.87109375 C-67.34549092 36.4245459 -67.33369214 34.97743351 -67.296875 33.53125 C-67.28333984 32.77191162 -67.26980469 32.01257324 -67.25585938 31.23022461 C-66.84380896 19.94315761 -62.73534976 11.63110256 -54.796875 3.59375 C-39.68674142 -9.27477036 -16.91838889 -10.27635474 0 0 Z " fill="#FCA516" transform="translate(532.796875,631.40625)"/>
<path d="M0 0 C-5.44238367 3.8254436 -10.87448582 7.06490669 -16.93359375 9.82421875 C-19.30249538 10.96748531 -19.30249538 10.96748531 -21 14 C-23.42578125 15.02734375 -23.42578125 15.02734375 -26.3125 15.9375 C-31.15780659 17.59493777 -35.58582124 19.17164249 -38 24 C-39.97888961 24.72693904 -41.97954558 25.39816251 -44 26 C-44 26.99 -44 27.98 -44 29 C-45.32 29 -46.64 29 -48 29 C-48.99 30.485 -48.99 30.485 -50 32 C-50.66 32 -51.32 32 -52 32 C-55.95970825 34.44289891 -55.95970825 34.44289891 -59.46484375 37.4765625 C-61.58985974 39.58535699 -64.00458275 41.14234401 -66.4765625 42.81640625 C-68.15050308 43.94105943 -68.15050308 43.94105943 -69 46 C-69.66 46 -70.32 46 -71 46 C-71 46.66 -71 47.32 -71 48 C-73 49.33333333 -75 50.66666667 -77 52 C-78.0260734 53.31337396 -79.02727325 54.64664105 -80 56 C-80.86625 56.680625 -81.7325 57.36125 -82.625 58.0625 C-85.24684741 59.84853309 -85.24684741 59.84853309 -86 63 C-87.59375 64.02734375 -87.59375 64.02734375 -89.5 64.9375 C-91.40333248 65.90708859 -91.40333248 65.90708859 -93 67 C-93.65213292 69.02463255 -93.65213292 69.02463255 -94 71 C-95.65071396 72.02611949 -97.31970006 73.02308143 -99 74 C-100.3927289 75.61736259 -101.71937515 77.2925002 -103 79 C-104.01549725 80.17131428 -105.03666743 81.33772665 -106.0625 82.5 C-107.88709795 84.59966296 -109.26706189 86.45499433 -110.6875 88.875 C-112 91 -112 91 -115 92 C-114.67 93.32 -114.34 94.64 -114 96 C-115.32 96 -116.64 96 -118 96 C-118.28875 96.94875 -118.5775 97.8975 -118.875 98.875 C-120 102 -120 102 -122 104 C-123.00897086 105.32655779 -124.00778004 106.66086695 -125 108 C-126.78922461 110.2634289 -128.58171906 112.52413748 -130.37890625 114.78125 C-131.86196012 116.81106831 -132.95032218 118.72492736 -134 121 C-135 123 -136 125 -137 127 C-137.66 127 -138.32 127 -139 127 C-139.08378906 127.66 -139.16757813 128.32 -139.25390625 129 C-140.2472208 132.9940606 -142.04225856 136.36381997 -143.9375 140 C-148.00090319 147.47995299 -148.00090319 147.47995299 -150.4375 155.5625 C-151 158 -151 158 -152.40625 159.84765625 C-154.09678077 162.13070148 -155.04463287 164.22936963 -156.0625 166.875 C-156.39894531 167.74640625 -156.73539063 168.6178125 -157.08203125 169.515625 C-158.11976227 172.32412258 -159.09835757 175.14479896 -160 178 C-160.66 177.67 -161.32 177.34 -162 177 C-161.46875472 170.78527348 -159.45071049 165.7385132 -156.9375 160.0625 C-156.53337891 159.13735596 -156.12925781 158.21221191 -155.71289062 157.2590332 C-152.08184367 149.02738156 -148.21036438 140.95018269 -144 133 C-143.6709668 132.37383789 -143.34193359 131.74767578 -143.00292969 131.10253906 C-132.13428514 110.59387935 -118.76722343 91.31867805 -103.05078125 74.234375 C-101.13614309 72.14833114 -99.28177042 70.02317954 -97.4375 67.875 C-92.15393382 61.82446454 -86.45837227 56.24777237 -80.359375 51.0234375 C-78.56338525 49.48316814 -76.78528118 47.92201654 -75.015625 46.3515625 C-56.53413215 30.0461296 -35.8472262 16.99818865 -14.5625 4.6875 C-13.57290283 4.10548828 -12.58330566 3.52347656 -11.5637207 2.92382812 C-10.63648193 2.39595703 -9.70924316 1.86808594 -8.75390625 1.32421875 C-7.93220947 0.85072998 -7.1105127 0.37724121 -6.26391602 -0.1105957 C-3.67432898 -1.12794344 -2.56114168 -0.97047992 0 0 Z " fill="#FBD83B" transform="translate(342,192)"/>
<path d="M0 0 C0.33 0 0.66 0 1 0 C1 4.29 1 8.58 1 13 C1.66 13 2.32 13 3 13 C3.23268915 19.28260706 2.40454548 24.88019467 1 31 C0.505 30.01 0.505 30.01 0 29 C-3.2234444 30.65063471 -3.2234444 30.65063471 -3.5625 33.5 C-3.706875 34.325 -3.85125 35.15 -4 36 C-4.66 36.66 -5.32 37.32 -6 38 C-6.67784992 40.33010909 -7.34416793 42.66359824 -8 45 C-8.66 45.99 -9.32 46.98 -10 48 C-10.99 48 -11.98 48 -13 48 C-13.103125 48.5775 -13.20625 49.155 -13.3125 49.75 C-14 52 -14 52 -15.3984375 53.859375 C-16.99902315 55.99869435 -18.12311978 58.11306512 -19.3125 60.5 C-21.64545635 64.82554217 -23.8287462 66.53516821 -28 69 C-28.495 70.485 -28.495 70.485 -29 72 C-30.33333333 72.66666667 -31.66666667 73.33333333 -33 74 C-34.68816933 75.64488294 -36.35353315 77.31337542 -38 79 C-39.36125 80.0828125 -39.36125 80.0828125 -40.75 81.1875 C-43.07487388 82.80309077 -43.07487388 82.80309077 -44 85 C-45.485 85.495 -45.485 85.495 -47 86 C-47.99 86.99 -47.99 86.99 -49 88 C-51 89.33333333 -53 90.66666667 -55 92 C-57.84971979 94.18699425 -60.52505118 96.39479072 -63 99 C-61.05365416 91.39155717 -55.95564875 87.82169169 -49.875 83.25 C-48.7230245 82.37492589 -47.57199927 81.49859955 -46.421875 80.62109375 C-45.84888672 80.18394043 -45.27589844 79.74678711 -44.68554688 79.29638672 C-22.75524661 62.42936841 -5.29063976 40.32428001 -1.2578125 12.21875 C-0.73835578 8.15293026 -0.33869826 4.08459994 0 0 Z " fill="#FA9A0E" transform="translate(569,372)"/>
<path d="M0 0 C3.02276758 -0.00218443 6.04516763 -0.02041781 9.06787109 -0.03930664 C22.08956524 -0.07542069 34.8546615 0.70233292 47.79052734 2.18530273 C48.12052734 3.17530273 48.45052734 4.16530273 48.79052734 5.18530273 C45.60383271 6.12256586 44.04847158 6.27311354 40.85302734 5.18530273 C37.37034943 4.04810178 35.31047029 4.34722108 31.79052734 5.18530273 C31.79052734 4.19530273 31.79052734 3.20530273 31.79052734 2.18530273 C29.68603796 2.32640259 27.58193964 2.47334448 25.47802734 2.62280273 C24.30626953 2.70401367 23.13451172 2.78522461 21.92724609 2.86889648 C18.76461776 3.07203984 18.76461776 3.07203984 15.79052734 4.18530273 C14.42927734 3.72124023 14.42927734 3.72124023 13.04052734 3.24780273 C7.90654526 1.56938552 3.14188545 2.13899853 -2.14697266 2.68530273 C-7.74534221 3.24669912 -13.28400397 3.24605342 -18.90258789 3.14819336 C-22.68026511 3.02706224 -22.68026511 3.02706224 -26.20947266 4.18530273 C-28.97212274 4.25546528 -31.72023897 4.18237516 -34.48291016 4.12280273 C-36.94179673 4.1791669 -38.85559854 4.55195101 -41.20947266 5.18530273 C-42.75634766 5.15436523 -42.75634766 5.15436523 -44.33447266 5.12280273 C-47.34186377 4.85664619 -47.34186377 4.85664619 -49.20947266 7.18530273 C-51.20902012 7.2278463 -53.20988902 7.22611056 -55.20947266 7.18530273 C-56.19947266 7.51530273 -57.18947266 7.84530273 -58.20947266 8.18530273 C-58.89009766 7.99967773 -59.57072266 7.81405273 -60.27197266 7.62280273 C-60.91134766 7.47842773 -61.55072266 7.33405273 -62.20947266 7.18530273 C-62.86947266 7.84530273 -63.52947266 8.50530273 -64.20947266 9.18530273 C-70.37017254 10.592704 -76.93003838 10.30328793 -83.20947266 10.18530273 C-83.20947266 9.52530273 -83.20947266 8.86530273 -83.20947266 8.18530273 C-72.20307626 5.73805658 -61.22687842 3.79042234 -50.02197266 2.49780273 C-49.00377441 2.37880615 -47.98557617 2.25980957 -46.93652344 2.13720703 C-31.30079607 0.4195804 -15.71799569 -0.00126493 0 0 Z " fill="#FCD93A" transform="translate(512.20947265625,150.814697265625)"/>
<path d="M0 0 C0.66 0.33 1.32 0.66 2 1 C1.54753906 1.42667969 1.09507812 1.85335937 0.62890625 2.29296875 C-1.24112014 4.13668012 -1.24112014 4.13668012 -3.0625 7.3125 C-6.31039043 12.02394599 -11.03782353 14.36956471 -16 17 C-16 16.34 -16 15.68 -16 15 C-19.82946843 16.45255699 -21.12050295 18.42895561 -23 22 C-24.32 21.67 -25.64 21.34 -27 21 C-27.05425226 18.60385874 -27.09379027 16.20896147 -27.125 13.8125 C-27.14175781 13.13896484 -27.15851563 12.46542969 -27.17578125 11.77148438 C-27.21538674 7.71192193 -26.80020002 4.65001185 -25 1 C-24.01 1.33 -23.02 1.66 -22 2 C-22 2.99 -22 3.98 -22 5 C-13.56369825 7.10907544 -7.51776439 3.7588822 0 0 Z " fill="#F3950A" transform="translate(277,841)"/>
<path d="M0 0 C0.66 0.33 1.32 0.66 2 1 C0.59099426 5.48320008 -1.67434824 7.75546169 -5 11 C-6.03013277 12.64821244 -7.03114628 14.31503702 -8 16 C-9.89715648 18.50914244 -11.73385899 20.75805363 -14.0625 22.875 C-16.10991302 25.12054976 -17.12148446 27.27043505 -18.2109375 30.08984375 C-19.04140488 32.10023261 -20.06046498 33.91701499 -21.125 35.8125 C-23.11623551 39.70480187 -23.44929913 43.14837408 -23.72265625 47.46875 C-24.16787762 51.53217885 -25.56799542 55.19429217 -27 59 C-28.0013988 62.00419641 -28.51421457 64.87709365 -29 68 C-29.33 68 -29.66 68 -30 68 C-31.55223762 46.23417915 -22.12242036 24.32522423 -8 8 C-5.41701465 5.23650652 -2.77475897 2.57062139 0 0 Z " fill="#F89910" transform="translate(504,467)"/>
<path d="M0 0 C0.66 0 1.32 0 2 0 C2.125 4.75 2.125 4.75 1 7 C1 7.9075 1 8.815 1 9.75 C1 13 1 13 0.53125 15.66015625 C-0.22582178 20.41968841 -0.38481295 25.17684887 -0.60546875 29.98632812 C-0.7698662 33.1977472 -0.97768534 35.93305603 -2 39 C-2.14889747 40.84466442 -2.2479101 42.69357275 -2.31640625 44.54296875 C-2.35830078 45.61611328 -2.40019531 46.68925781 -2.44335938 47.79492188 C-2.48267578 48.91447266 -2.52199219 50.03402344 -2.5625 51.1875 C-2.60568359 52.31865234 -2.64886719 53.44980469 -2.69335938 54.61523438 C-2.79949099 57.41003354 -2.90154385 60.20492162 -3 63 C-3.33 63 -3.66 63 -4 63 C-4.70835777 18.36619521 -4.70835777 18.36619521 -1 1 C-0.67 0.67 -0.34 0.34 0 0 Z " fill="#FACF33" transform="translate(168,411)"/>
<path d="M0 0 C1.32 0.33 2.64 0.66 4 1 C3.01 1.495 3.01 1.495 2 2 C2 2.66 2 3.32 2 4 C2.66386719 3.98839844 3.32773437 3.97679687 4.01171875 3.96484375 C12.78207381 3.87521968 12.78207381 3.87521968 17 5 C17 4.34 17 3.68 17 3 C17.66 3 18.32 3 19 3 C19 3.99 19 4.98 19 6 C20.7325 5.7525 20.7325 5.7525 22.5 5.5 C27.10659924 4.99305367 31.68267949 4.85451289 36.3125 4.8125 C37.35277344 4.79316406 37.35277344 4.79316406 38.4140625 4.7734375 C42.21375301 4.76605946 44.70107107 5.16988098 48 7 C42.38477814 7.05037116 36.76969477 7.08616562 31.15429688 7.10986328 C29.25388288 7.11976793 27.35348346 7.13329528 25.453125 7.15087891 C12.16428371 7.27053479 -0.80427213 6.59073262 -14 5 C-12.6550293 3.50463867 -12.6550293 3.50463867 -11 2 C-8.51953125 1.92578125 -8.51953125 1.92578125 -5.8125 2.3125 C-4.91144531 2.43238281 -4.01039063 2.55226563 -3.08203125 2.67578125 C-2.39496094 2.78277344 -1.70789063 2.88976562 -1 3 C-0.67 2.01 -0.34 1.02 0 0 Z " fill="#F29209" transform="translate(472,776)"/>
<path d="M0 0 C4.36216256 0.48703757 7.09268585 3.34465807 10.25 6.125 C10.82919189 6.62563965 11.40838379 7.1262793 12.00512695 7.64208984 C13.6756436 9.0884872 15.33831896 10.54347125 17 12 C17.75152344 12.6496875 18.50304687 13.299375 19.27734375 13.96875 C21.19667752 15.6329576 23.10026762 17.31346404 25 19 C25.77730469 19.68449219 26.55460938 20.36898437 27.35546875 21.07421875 C33.46354417 26.5004625 39.27838528 32.16882244 45 38 C42 38 42 38 40.28125 36.46875 C39.09375 35.15625 37.90625 33.84375 36.71875 32.53125 C35.01032314 30.66739698 35.01032314 30.66739698 32 31 C32 29.68 32 28.36 32 27 C31.34 27 30.68 27 30 27 C30 26.34 30 25.68 30 25 C29.34 25 28.68 25 28 25 C28 24.34 28 23.68 28 23 C26.02 22.34 24.04 21.68 22 21 C22 20.01 22 19.02 22 18 C21.34 18 20.68 18 20 18 C18.31126121 16.35570171 16.64694485 14.68615782 15 13 C13.00080396 11.36429415 11.18373237 10.09186619 8.875 8.9375 C5.09775953 7.04887977 2.64451281 3.20125235 0 0 Z " fill="#FBCD26" transform="translate(738,225)"/>
<path d="M0 0 C1.25683594 0.01353516 1.25683594 0.01353516 2.5390625 0.02734375 C3.14492188 0.03894531 3.75078125 0.05054688 4.375 0.0625 C3.715 0.7225 3.055 1.3825 2.375 2.0625 C1.385 1.7325 0.395 1.4025 -0.625 1.0625 C-0.625 2.3825 -0.625 3.7025 -0.625 5.0625 C0.035 5.3925 0.695 5.7225 1.375 6.0625 C0.055 6.0625 -1.265 6.0625 -2.625 6.0625 C-2.625 4.7425 -2.625 3.4225 -2.625 2.0625 C-3.12 2.2275 -3.615 2.3925 -4.125 2.5625 C-6.9033047 3.11816094 -9.49934638 3.01260355 -12.3203125 2.9609375 C-14.84546079 3.07221522 -17.09925843 3.56347077 -19.5625 4.125 C-24.69218309 5.14371171 -29.49737242 5.10420273 -34.6875 4.8125 C-35.43829834 4.77390869 -36.18909668 4.73531738 -36.96264648 4.69555664 C-42.36839884 4.31910116 -42.36839884 4.31910116 -44.625 2.0625 C-43.38580811 2.02491577 -43.38580811 2.02491577 -42.12158203 1.98657227 C-39.00902127 1.89051633 -35.89657829 1.79134978 -32.78417969 1.69018555 C-30.7936935 1.62640016 -28.8030969 1.56609073 -26.8125 1.50585938 C-20.3992511 1.29532343 -14.05403717 0.97790199 -7.67626953 0.26977539 C-5.11038864 0.01049988 -2.57760818 -0.03682297 0 0 Z " fill="#F5980B" transform="translate(543.625,759.9375)"/>
<path d="M0 0 C0.495 0.99 0.495 0.99 1 2 C0.04738281 2.04898437 -0.90523437 2.09796875 -1.88671875 2.1484375 C-3.14097656 2.22320312 -4.39523437 2.29796875 -5.6875 2.375 C-7.54955078 2.47941406 -7.54955078 2.47941406 -9.44921875 2.5859375 C-14.13931947 3.13285794 -17.09482763 4.39655175 -21 7 C-21 6.34 -21 5.68 -21 5 C-21.99 5 -22.98 5 -24 5 C-24 5.66 -24 6.32 -24 7 C-28.38461538 10 -28.38461538 10 -31 10 C-30.67 10.99 -30.34 11.98 -30 13 C-31.32 13.33 -32.64 13.66 -34 14 C-33.44431971 10.46800475 -32.41585517 9.11274588 -29.5625 7 C-19.91397492 0.28353555 -11.52327589 -0.55311724 0 0 Z " fill="#F8BE25" transform="translate(517,353)"/>
<path d="M0 0 C0.99 0.33 1.98 0.66 3 1 C6.18950233 8.88982155 5.76239329 17.0581193 3 25 C-0.93846154 21.67692308 -0.93846154 21.67692308 -1.25 18.25 C-1.1675 17.5075 -1.085 16.765 -1 16 C-0.01 16 0.98 16 2 16 C1.76603516 14.96939453 1.76603516 14.96939453 1.52734375 13.91796875 C1.33269531 13.01691406 1.13804687 12.11585938 0.9375 11.1875 C0.74027344 10.29417969 0.54304687 9.40085937 0.33984375 8.48046875 C0 6 0 6 1 3 C0.34 2.67 -0.32 2.34 -1 2 C-0.67 1.34 -0.34 0.68 0 0 Z " fill="#F9A313" transform="translate(537,368)"/>
<path d="M0 0 C6.57150859 0.87253284 11.8234217 3.46700619 17.75 6.3125 C18.80316406 6.79912109 19.85632813 7.28574219 20.94140625 7.78710938 C21.94558594 8.26599609 22.94976563 8.74488281 23.984375 9.23828125 C24.89928711 9.67180908 25.81419922 10.10533691 26.75683594 10.55200195 C29.22283773 12.14384529 29.98135042 13.28855188 31 16 C29.68 16.33 28.36 16.66 27 17 C26.773125 16.360625 26.54625 15.72125 26.3125 15.0625 C25.15983399 12.72567164 25.15983399 12.72567164 22.4375 12.375 C21.633125 12.25125 20.82875 12.1275 20 12 C19.67 11.34 19.34 10.68 19 10 C17.23554397 9.26433104 15.43714533 8.60880473 13.625 8 C10.3328428 6.88813688 7.91120337 5.94080225 5 4 C3.34416775 3.30686092 1.67889021 2.63525576 0 2 C0 1.34 0 0.68 0 0 Z " fill="#FCD83B" transform="translate(665,183)"/>
<path d="M0 0 C7.45625371 0.60829758 14.30680971 2.68033636 21.4375 4.875 C22.63310547 5.22691406 23.82871094 5.57882813 25.06054688 5.94140625 C26.19427734 6.28816406 27.32800781 6.63492188 28.49609375 6.9921875 C30.04574829 7.46180908 30.04574829 7.46180908 31.62670898 7.94091797 C32.80148804 8.46516357 32.80148804 8.46516357 34 9 C34.495 10.485 34.495 10.485 35 12 C30.31226722 12.31961814 28.64290662 11.78575212 25 9 C22.35355441 8.15702023 19.72000336 7.58933406 17 7 C17 6.34 17 5.68 17 5 C16.03578125 4.95101562 15.0715625 4.90203125 14.078125 4.8515625 C12.81484375 4.77679688 11.5515625 4.70203125 10.25 4.625 C8.99703125 4.55539063 7.7440625 4.48578125 6.453125 4.4140625 C3.39001879 4.04676696 1.58025734 3.60288714 -1 2 C-0.67 1.34 -0.34 0.68 0 0 Z " fill="#FCE042" transform="translate(610,164)"/>
<path d="M0 0 C0.66 0.66 1.32 1.32 2 2 C-12.8568707 18.25714425 -12.8568707 18.25714425 -21 25 C-21.66 24.67 -22.32 24.34 -23 24 C-23 23.34 -23 22.68 -23 22 C-22.34 22 -21.68 22 -21 22 C-20.67 21.01 -20.34 20.02 -20 19 C-17.99878825 16.63493157 -17.03200339 16.0106678 -14 15 C-12.99357052 13.67151309 -11.99307821 12.33849671 -11 11 C-10.34 11 -9.68 11 -9 11 C-9 10.34 -9 9.68 -9 9 C-7.625 7.5 -7.625 7.5 -6 6 C-5.34 5.34 -4.68 4.68 -4 4 C-2.66666667 2.66666667 -1.33333333 1.33333333 0 0 Z " fill="#EF950B" transform="translate(777,668)"/>
<path d="M0 0 C-4.57189927 3.88517366 -9.55649488 7.00432519 -14.625 10.1875 C-15.91277344 11.00637695 -15.91277344 11.00637695 -17.2265625 11.84179688 C-18.0515625 12.36193359 -18.8765625 12.88207031 -19.7265625 13.41796875 C-20.47502441 13.89000732 -21.22348633 14.3620459 -21.99462891 14.84838867 C-24 16 -24 16 -27 17 C-26.34 15.02 -25.68 13.04 -25 11 C-24.071875 10.896875 -23.14375 10.79375 -22.1875 10.6875 C-18.81595898 9.96030488 -18.1739955 9.47044943 -16 7 C-15.319375 6.67 -14.63875 6.34 -13.9375 6 C-11.66757845 5.02674942 -11.66757845 5.02674942 -10 2 C-9.67 2 -9.34 2 -9 2 C-9 1.34 -9 0.68 -9 0 C-5.62182575 -0.84454356 -3.32534757 -1.10844919 0 0 Z " fill="#EF8D07" transform="translate(339,832)"/>
<path d="M0 0 C0.763125 0.185625 1.52625 0.37125 2.3125 0.5625 C5.08967375 1.22819173 5.08967375 1.22819173 8 0 C10.73812607 0.45548177 13.3201176 1.25314753 16 2 C15.67 2.99 15.34 3.98 15 5 C13.7625 4.7525 13.7625 4.7525 12.5 4.5 C3.08663847 3.15523407 -2.41363293 5.09172258 -11 9 C-12.6628853 9.67604341 -14.32832297 10.34599838 -16 11 C-15.67 9.35 -15.34 7.7 -15 6 C-14.44699219 5.86464844 -13.89398438 5.72929688 -13.32421875 5.58984375 C-10.80825278 4.9513381 -8.30881419 4.27415235 -5.8125 3.5625 C-4.93207031 3.31628906 -4.05164063 3.07007813 -3.14453125 2.81640625 C-0.82274182 2.20947748 -0.82274182 2.20947748 0 0 Z " fill="#F39207" transform="translate(424,772)"/>
<path d="M0 0 C-0.33 0.99 -0.66 1.98 -1 3 C-1.94875 2.79375 -2.8975 2.5875 -3.875 2.375 C-4.90625 2.25125 -5.9375 2.1275 -7 2 C-7.66 2.66 -8.32 3.32 -9 4 C-15.16069988 5.40740127 -21.72056573 5.1179852 -28 5 C-28 4.34 -28 3.68 -28 3 C-24.79363027 2.32364936 -21.58463311 1.66067552 -18.375 1 C-17.47136719 0.80921875 -16.56773437 0.6184375 -15.63671875 0.421875 C-3.93814767 -1.96907383 -3.93814767 -1.96907383 0 0 Z " fill="#F8CC36" transform="translate(457,156)"/>
<path d="M0 0 C0.99 0.33 1.98 0.66 3 1 C-1.44753224 4.4865237 -6.32074537 6.94809858 -11.3125 9.5625 C-12.69985352 10.3040332 -12.69985352 10.3040332 -14.11523438 11.06054688 C-19.02231515 13.63789776 -23.59562533 15.74022163 -29 17 C-29.33 16.34 -29.66 15.68 -30 15 C-28.68 15 -27.36 15 -26 15 C-25.67 14.01 -25.34 13.02 -25 12 C-22.68925595 11.25881795 -20.35188447 10.59793673 -18 10 C-15.36351117 8.85989672 -14.04952253 8.04952253 -12 6 C-10.68 6 -9.36 6 -8 6 C-8 5.34 -8 4.68 -8 4 C-6.02 3.67 -4.04 3.34 -2 3 C-2 2.34 -2 1.68 -2 1 C-1.34 0.67 -0.68 0.34 0 0 Z " fill="#F08906" transform="translate(309,848)"/>
<path d="M0 0 C0 0.66 0 1.32 0 2 C-0.556875 2.17015625 -1.11375 2.3403125 -1.6875 2.515625 C-5.66625898 3.77914981 -9.42188579 5.1238108 -13.125 7.0625 C-17.14945505 9.16326554 -21.38494579 11 -26 11 C-25 8 -25 8 -23.12988281 6.92504883 C-21.9286377 6.44588013 -21.9286377 6.44588013 -20.703125 5.95703125 C-19.8265625 5.60576172 -18.95 5.25449219 -18.046875 4.89257812 C-16.66242188 4.35793945 -16.66242188 4.35793945 -15.25 3.8125 C-14.3425 3.44447266 -13.435 3.07644531 -12.5 2.69726562 C-8.11943742 0.97129835 -4.7633485 -0.22271987 0 0 Z " fill="#FAD73C" transform="translate(385,173)"/>
<path d="M0 0 C0.89102417 0.32701904 0.89102417 0.32701904 1.80004883 0.66064453 C1.32567383 1.09376953 0.85129883 1.52689453 0.36254883 1.97314453 C-1.43682074 3.68374066 -1.43682074 3.68374066 -2.19995117 6.66064453 C-3.79370117 7.68798828 -3.79370117 7.68798828 -5.69995117 8.59814453 C-7.60658431 9.5665812 -7.60658431 9.5665812 -9.19995117 10.66064453 C-9.56157146 11.98658558 -9.89723156 13.3200291 -10.19995117 14.66064453 C-13.26245117 16.41064453 -13.26245117 16.41064453 -16.19995117 17.66064453 C-15.91997873 12.16488925 -12.59727013 9.42698692 -8.88745117 5.78564453 C-8.01443359 4.87685547 -8.01443359 4.87685547 -7.1237793 3.94970703 C-6.5546582 3.38251953 -5.98553711 2.81533203 -5.39916992 2.23095703 C-4.88185303 1.71291504 -4.36453613 1.19487305 -3.83154297 0.66113281 C-2.19995117 -0.33935547 -2.19995117 -0.33935547 0 0 Z " fill="#FACB33" transform="translate(258.199951171875,248.33935546875)"/>
<path d="M0 0 C0.66 0 1.32 0 2 0 C1.31980355 8.29839665 -0.02864043 16.58360562 -4 24 C-4.556875 25.11375 -4.556875 25.11375 -5.125 26.25 C-5.41375 26.8275 -5.7025 27.405 -6 28 C-6.2891447 21.58691888 -5.2893764 16.22311966 -3.5625 10.0625 C-3.33240234 9.20076172 -3.10230469 8.33902344 -2.86523438 7.45117188 C-1.15295252 1.15295252 -1.15295252 1.15295252 0 0 Z " fill="#FAD638" transform="translate(175,382)"/>
<path d="M0 0 C0.5775 0.165 1.155 0.33 1.75 0.5 C4.26664369 1.14462031 4.26664369 1.14462031 8 1 C5.43742011 2.7083866 3.3011165 3.78008785 0.47265625 4.91015625 C-0.40197266 5.26013672 -1.27660156 5.61011719 -2.17773438 5.97070312 C-3.08845703 6.33099609 -3.99917969 6.69128906 -4.9375 7.0625 C-5.84435547 7.42666016 -6.75121094 7.79082031 -7.68554688 8.16601562 C-15.06910462 11.10531271 -15.06910462 11.10531271 -19 12 C-19 11.01 -19 10.02 -19 9 C-17.71802734 8.58427734 -17.71802734 8.58427734 -16.41015625 8.16015625 C-15.30542969 7.79792969 -14.20070313 7.43570313 -13.0625 7.0625 C-11.40927734 6.52302734 -11.40927734 6.52302734 -9.72265625 5.97265625 C-7.11876525 5.26143332 -7.11876525 5.26143332 -6 4 C-4.33382885 3.95936168 -2.66611905 3.957279 -1 4 C-0.67 2.68 -0.34 1.36 0 0 Z " fill="#F49609" transform="translate(656,750)"/>
<path d="M0 0 C1.98 0 3.96 0 6 0 C1.93226011 4.32448087 -2.53656263 7.79990263 -7.3125 11.3125 C-8.42334961 12.13717773 -8.42334961 12.13717773 -9.55664062 12.97851562 C-11.36839676 14.32272179 -13.182859 15.66308744 -15 17 C-15.33 16.01 -15.66 15.02 -16 14 C-14.47005208 12.76302083 -12.94010417 11.52604167 -11.41015625 10.2890625 C-9.86733563 9.0333609 -9.86733563 9.0333609 -9 7 C-6.93359375 6.1484375 -6.93359375 6.1484375 -4.4375 5.375 C-3.61121094 5.11460937 -2.78492188 4.85421875 -1.93359375 4.5859375 C-1.29550781 4.39257812 -0.65742188 4.19921875 0 4 C0 2.68 0 1.36 0 0 Z " fill="#EF8F08" transform="translate(394,788)"/>
<path d="M0 0 C0.66 0.66 1.32 1.32 2 2 C0.87616282 5.06292796 -0.24927677 8.12526477 -1.375 11.1875 C-1.69210937 12.05181641 -2.00921875 12.91613281 -2.3359375 13.80664062 C-3.83904037 17.89320154 -5.34815448 21.97049805 -7 26 C-7.66 25.67 -8.32 25.34 -9 25 C-8.71758359 23.53984709 -8.42373386 22.08190207 -8.125 20.625 C-7.96257813 19.81289063 -7.80015625 19.00078125 -7.6328125 18.1640625 C-7 16 -7 16 -5 14 C-4.3574765 11.93125966 -4.3574765 11.93125966 -4 10 C-4.66 9.67 -5.32 9.34 -6 9 C-6 8.34 -6 7.68 -6 7 C-4.68 7 -3.36 7 -2 7 C-1.855625 6.21625 -1.71125 5.4325 -1.5625 4.625 C-1 2 -1 2 0 0 Z " fill="#F49C0D" transform="translate(844,556)"/>
<path d="M0 0 C0.33 0.66 0.66 1.32 1 2 C-6.64343712 3.79704634 -14.28835349 5.52033871 -22 7 C-22.33 6.01 -22.66 5.02 -23 4 C-20.29352533 3.32488828 -17.58522815 2.65972659 -14.875 2 C-14.11445313 1.80921875 -13.35390625 1.6184375 -12.5703125 1.421875 C-8.28411166 0.3872748 -4.44599099 -0.2272711 0 0 Z " fill="#FBD83D" transform="translate(428,161)"/>
<path d="M0 0 C20.53191489 -0.19148936 20.53191489 -0.19148936 30 1 C30.33 1.99 30.66 2.98 31 4 C27.81330537 4.93726313 26.25794423 5.0878108 23.0625 4 C19.57982209 2.86279905 17.51994294 3.16191835 14 4 C14 3.01 14 2.02 14 1 C9.38 1 4.76 1 0 1 C0 0.67 0 0.34 0 0 Z " fill="#FADA3F" transform="translate(530,152)"/>
<path d="M0 0 C3.58237455 4.67266246 4.11073636 7.02023637 4 13 C3.67 12.34 3.34 11.68 3 11 C2.401875 10.9175 1.80375 10.835 1.1875 10.75 C-2.20803549 9.5858164 -3.22274002 6.98325782 -5 4 C-4.01 3.67 -3.02 3.34 -2 3 C-1.34 2.01 -0.68 1.02 0 0 Z " fill="#F9940B" transform="translate(547,647)"/>
<path d="M0 0 C5.17935061 1.46828943 9.34373412 3.81491263 13.875 6.625 C14.90753906 7.25535156 14.90753906 7.25535156 15.9609375 7.8984375 C17.64391658 8.92692472 19.32242532 9.962721 21 11 C20.67 12.32 20.34 13.64 20 15 C18 13.625 18 13.625 16 12 C16 11.34 16 10.68 16 10 C15.37351562 9.90203125 14.74703125 9.8040625 14.1015625 9.703125 C13.28429687 9.55359375 12.46703125 9.4040625 11.625 9.25 C10.81289063 9.11078125 10.00078125 8.9715625 9.1640625 8.828125 C7 8 7 8 5.875 6 C5.58625 5.34 5.2975 4.68 5 4 C2.46229997 2.71745356 2.46229997 2.71745356 0 2 C0 1.34 0 0.68 0 0 Z " fill="#FCD738" transform="translate(697,198)"/>
<path d="M0 0 C7.7587915 -0.31525564 15.42360494 0.21602326 23 2 C23.66 2.66 24.32 3.32 25 4 C19.92327799 4.84612033 15.15130782 5.26193091 10 5 C9.34 4.34 8.68 3.68 8 3 C6.03309626 2.32707499 6.03309626 2.32707499 3.875 1.875 C2.59625 1.58625 1.3175 1.2975 0 1 C0 0.67 0 0.34 0 0 Z " fill="#FCD73C" transform="translate(562,155)"/>
<path d="M0 0 C6.96291506 3.27192536 13.5346082 7.67402828 18 14 C18.66 14.33 19.32 14.66 20 15 C20 15.66 20 16.32 20 17 C20.598125 17.2475 21.19625 17.495 21.8125 17.75 C24.28647521 19.16370012 25.43370255 20.65055383 27 23 C26.67 23.66 26.34 24.32 26 25 C25.56768066 24.55720703 25.13536133 24.11441406 24.68994141 23.65820312 C13.69833331 12.37053124 13.69833331 12.37053124 1.625 2.28515625 C1.08875 1.86105469 0.5525 1.43695313 0 1 C0 0.67 0 0.34 0 0 Z " fill="#FBCE24" transform="translate(621,257)"/>
<path d="M0 0 C0.33 0 0.66 0 1 0 C1.27554763 2.77045173 1.52123257 5.53813416 1.75 8.3125 C1.87181641 9.49102539 1.87181641 9.49102539 1.99609375 10.69335938 C2.1622725 12.86291526 2.27712123 14.8408592 2 17 C0.015625 19.04296875 0.015625 19.04296875 -2 20 C-2.50615298 18.73160474 -3.00469099 17.46016898 -3.5 16.1875 C-3.7784375 15.47980469 -4.056875 14.77210938 -4.34375 14.04296875 C-5 12 -5 12 -5 9 C-3.68 9.33 -2.36 9.66 -1 10 C-0.67 6.7 -0.34 3.4 0 0 Z " fill="#F88E08" transform="translate(472,665)"/>
<path d="M0 0 C0.33 0 0.66 0 1 0 C1.19517554 1.93674185 1.38087873 3.87444009 1.5625 5.8125 C1.66691406 6.89144531 1.77132812 7.97039062 1.87890625 9.08203125 C2 12 2 12 1 15 C0.85110253 16.84466442 0.7520899 18.69357275 0.68359375 20.54296875 C0.64169922 21.61611328 0.59980469 22.68925781 0.55664062 23.79492188 C0.51732422 24.91447266 0.47800781 26.03402344 0.4375 27.1875 C0.39431641 28.31865234 0.35113281 29.44980469 0.30664062 30.61523438 C0.20050901 33.41003354 0.09845615 36.20492162 0 39 C-0.33 39 -0.66 39 -1 39 C-1.02467917 33.76725612 -1.04285003 28.53454597 -1.05493164 23.30175781 C-1.05996711 21.52082733 -1.06679581 19.739901 -1.07543945 17.95898438 C-1.08753942 15.40233335 -1.09323609 12.84573688 -1.09765625 10.2890625 C-1.10281754 9.49005524 -1.10797882 8.69104797 -1.11329651 7.86782837 C-1.11387171 2.22774341 -1.11387171 2.22774341 0 0 Z " fill="#FCE035" transform="translate(165,435)"/>
<path d="M0 0 C3 3 3 3 3.34057617 5.4519043 C3.32486572 6.39976807 3.30915527 7.34763184 3.29296875 8.32421875 C3.28330078 9.35224609 3.27363281 10.38027344 3.26367188 11.43945312 C3.23853516 12.51130859 3.21339844 13.58316406 3.1875 14.6875 C3.16719727 16.31268555 3.16719727 16.31268555 3.14648438 17.97070312 C3.11110643 20.64763405 3.06174189 23.32356838 3 26 C2.67 26 2.34 26 2 26 C2 23.69 2 21.38 2 19 C1.34 19 0.68 19 0 19 C0 12.73 0 6.46 0 0 Z " fill="#E6870A" transform="translate(858,456)"/>
<path d="M0 0 C0.33 0.66 0.66 1.32 1 2 C1.66 2.33 2.32 2.66 3 3 C-15.215091 4.62169332 -15.215091 4.62169332 -21 4 C-21.66 3.34 -22.32 2.68 -23 2 C-17.06602754 1.2217741 -11.36701001 0.92610803 -5.3828125 1.0625 C-2.85002025 1.11180903 -2.85002025 1.11180903 0 0 Z " fill="#EF8B06" transform="translate(548,779)"/>
<path d="M0 0 C2.97 0.495 2.97 0.495 6 1 C6 1.66 6 2.32 6 3 C6.556875 2.855625 7.11375 2.71125 7.6875 2.5625 C12.94136317 1.28453328 17.59708529 0.80353037 23 1 C23.33 1.66 23.66 2.32 24 3 C20.06911004 4.25911319 16.08724355 4.2569668 12 4.3125 C11.2884375 4.34150391 10.576875 4.37050781 9.84375 4.40039062 C6.19580849 4.44462872 4.38163572 4.3082901 1.5 1.98046875 C1.005 1.32691406 0.51 0.67335938 0 0 Z " fill="#F18A05" transform="translate(252,864)"/>
<path d="M0 0 C8.25 0.33 16.5 0.66 25 1 C24.34 1.66 23.68 2.32 23 3 C21.68 3 20.36 3 19 3 C18.67 3.66 18.34 4.32 18 5 C17.67 4.67 17.34 4.34 17 4 C15.38118522 3.76501076 13.75400554 3.58623529 12.125 3.4375 C11.24070312 3.35371094 10.35640625 3.26992188 9.4453125 3.18359375 C6.91010247 2.96256542 6.91010247 2.96256542 4 3 C1.8125 2 1.8125 2 0 1 C0 0.67 0 0.34 0 0 Z " fill="#F4960A" transform="translate(456,761)"/>
<path d="M0 0 C1.98 0 3.96 0 6 0 C1.43369266 4.87072783 -3.74976539 8.89156398 -9 13 C-9.33 12.01 -9.66 11.02 -10 10 C-9.44570313 9.61328125 -8.89140625 9.2265625 -8.3203125 8.828125 C-7.59585938 8.30734375 -6.87140625 7.7865625 -6.125 7.25 C-5.40570312 6.73953125 -4.68640625 6.2290625 -3.9453125 5.703125 C-1.91429435 3.92496453 -1.02144988 2.47298393 0 0 Z " fill="#F2960B" transform="translate(745,696)"/>
<path d="M0 0 C-1.11776237 3.35328711 -1.48392095 3.58311383 -4.37890625 5.26171875 C-5.05244141 5.65810547 -5.72597656 6.05449219 -6.41992188 6.46289062 C-7.12697266 6.86701172 -7.83402344 7.27113281 -8.5625 7.6875 C-9.27341797 8.10322266 -9.98433594 8.51894531 -10.71679688 8.94726562 C-12.47322511 9.97283111 -14.23602691 10.98746671 -16 12 C-16.33 10.68 -16.66 9.36 -17 8 C-15.68 7.01 -14.36 6.02 -13 5 C-13 5.66 -13 6.32 -13 7 C-12.21625 6.505 -11.4325 6.01 -10.625 5.5 C-8 4 -8 4 -6 4 C-6 3.34 -6 2.68 -6 2 C-2.25 0 -2.25 0 0 0 Z " fill="#F2960A" transform="translate(712,724)"/>
<path d="M0 0 C0.66 0 1.32 0 2 0 C1.67 1.32 1.34 2.64 1 4 C2.32 4.33 3.64 4.66 5 5 C5 5.33 5 5.66 5 6 C2.77149723 6.33774332 0.54216533 6.6700187 -1.6875 7 C-3.54955078 7.2784375 -3.54955078 7.2784375 -5.44921875 7.5625 C-8.35886371 7.92100411 -11.07700022 8.08942256 -14 8 C-14 7.34 -14 6.68 -14 6 C-11.02148438 5.70703125 -11.02148438 5.70703125 -8.04296875 5.4140625 C-5.70011858 5.07334609 -5.70011858 5.07334609 -3 3 C-2.34 3.33 -1.68 3.66 -1 4 C-0.67 2.68 -0.34 1.36 0 0 Z " fill="#F59308" transform="translate(568,773)"/>
<path d="M0 0 C0.66 0.33 1.32 0.66 2 1 C1.03644647 11.55808656 1.03644647 11.55808656 0 16 C-0.99 16.33 -1.98 16.66 -3 17 C-2.54775239 11.08507728 -1.8417395 5.64800112 0 0 Z " fill="#F19509" transform="translate(856,505)"/>
<path d="M0 0 C2.1165563 3.17483445 2.22929149 3.66699005 1.9765625 7.23046875 C1.925 8.03291016 1.8734375 8.83535156 1.8203125 9.66210938 C1.72363281 10.91217773 1.72363281 10.91217773 1.625 12.1875 C1.56828125 13.03248047 1.5115625 13.87746094 1.453125 14.74804688 C1.31179176 16.83271217 1.1571675 18.91646866 1 21 C0.01 20.67 -0.98 20.34 -2 20 C-2.08226668 16.95613276 -1.97608217 14.92824652 -1 12 C-0.77674186 9.94106379 -0.59294241 7.87766347 -0.4375 5.8125 C-0.35371094 4.72582031 -0.26992188 3.63914062 -0.18359375 2.51953125 C-0.12300781 1.68808594 -0.06242188 0.85664063 0 0 Z " fill="#F2970C" transform="translate(858,483)"/>
<path d="M0 0 C0.66 0.33 1.32 0.66 2 1 C1.67 1.66 1.34 2.32 1 3 C2.98 2.67 4.96 2.34 7 2 C7 2.66 7 3.32 7 4 C0.565 5.98 0.565 5.98 -6 8 C-6.33 7.34 -6.66 6.68 -7 6 C-6.34 6 -5.68 6 -5 6 C-5 5.34 -5 4.68 -5 4 C-3.37373596 2.61767557 -1.7074998 1.28062485 0 0 Z " fill="#F4960A" transform="translate(628,759)"/>
<path d="M0 0 C5.23115393 -0.21544006 9.43785303 0.47629807 14.4375 2 C15.67371094 2.37125 16.90992188 2.7425 18.18359375 3.125 C19.11300781 3.41375 20.04242187 3.7025 21 4 C18 6 18 6 15.29296875 5.609375 C14.26816406 5.32578125 13.24335937 5.0421875 12.1875 4.75 C11.12402344 4.45996094 10.06054688 4.16992188 8.96484375 3.87109375 C5.94909466 2.98504362 2.95688097 2.06776257 0 1 C0 0.67 0 0.34 0 0 Z " fill="#FCE546" transform="translate(588,159)"/>
<path d="M0 0 C2.25 0.25 2.25 0.25 4 1 C0.28249221 5.20240011 -4.31660979 7.99782679 -9 11 C-9.33 10.01 -9.66 9.02 -10 8 C-9.34 8 -8.68 8 -8 8 C-8 7.01 -8 6.02 -8 5 C-7.13375 4.87625 -7.13375 4.87625 -6.25 4.75 C-3.80951346 4.13404608 -3.80951346 4.13404608 -2 1.875 C-1.34 1.25625 -0.68 0.6375 0 0 Z " fill="#EF8C07" transform="translate(374,804)"/>
<path d="M0 0 C-1.45746236 3.34314819 -3.30984087 5.6078211 -5.875 8.1875 C-6.55304687 8.88230469 -7.23109375 9.57710938 -7.9296875 10.29296875 C-10.03086032 12.0254452 -11.34102145 12.60055703 -14 13 C-11.27514907 8.34504633 -5.8950728 0 0 0 Z " fill="#5C1A00" transform="translate(577,494)"/>
<path d="M0 0 C0 0.66 0 1.32 0 2 C-2.05762909 2.70194375 -4.12136031 3.38601697 -6.1875 4.0625 C-7.91033203 4.63677734 -7.91033203 4.63677734 -9.66796875 5.22265625 C-12.97454508 5.99406151 -14.79082314 5.96093996 -18 5 C-17.67 4.01 -17.34 3.02 -17 2 C-16.01 2.33 -15.02 2.66 -14 3 C-11.07379511 2.46202903 -11.07379511 2.46202903 -7.9375 1.5625 C-2.15695067 0 -2.15695067 0 0 0 Z " fill="#F3970A" transform="translate(620,766)"/>
<path d="M0 0 C-0.66 1.32 -1.32 2.64 -2 4 C-2.33 3.34 -2.66 2.68 -3 2 C-3.99 2 -4.98 2 -6 2 C-6 2.66 -6 3.32 -6 4 C-10.38461538 7 -10.38461538 7 -13 7 C-12.67 7.99 -12.34 8.98 -12 10 C-13.32 10.33 -14.64 10.66 -16 11 C-15.62342801 8.3292356 -15.21955159 7.20604073 -13.22265625 5.33203125 C-12.50980469 4.83058594 -11.79695313 4.32914062 -11.0625 3.8125 C-10.35222656 3.30332031 -9.64195312 2.79414063 -8.91015625 2.26953125 C-5.71472734 0.14577993 -3.8176401 -0.10046421 0 0 Z " fill="#FCCF2B" transform="translate(499,356)"/>
<path d="M0 0 C0.33 0 0.66 0 1 0 C1 3.96 1 7.92 1 12 C1.33 12 1.66 12 2 12 C2 13.98 2 15.96 2 18 C0 16.5625 0 16.5625 -2 14 C-2.79679428 9.03393333 -2.32295739 4.50072994 0 0 Z " fill="#FCCE24" transform="translate(346,366)"/>
<path d="M0 0 C0.33 1.32 0.66 2.64 1 4 C-0.32 4 -1.64 4 -3 4 C-3.33 4.99 -3.66 5.98 -4 7 C-7.63 7.33 -11.26 7.66 -15 8 C-12.01737882 6.01158588 -9.02359325 4.46328268 -5.8125 2.875 C-4.72582031 2.33617187 -3.63914062 1.79734375 -2.51953125 1.2421875 C-1.68808594 0.83226562 -0.85664062 0.42234375 0 0 Z " fill="#F7B018" transform="translate(550,720)"/>
<path d="M0 0 C0.33 0.99 0.66 1.98 1 3 C0.21753906 3.77085937 -0.56492187 4.54171875 -1.37109375 5.3359375 C-2.39336057 6.34882573 -3.41548881 7.36185384 -4.4375 8.375 C-5.2119043 9.13683594 -5.2119043 9.13683594 -6.00195312 9.9140625 C-8.857133 12.68568936 -8.857133 12.68568936 -11 16 C-11.99 16 -12.98 16 -14 16 C-12.86314577 12.58943731 -11.84668031 11.80065835 -9.125 9.5625 C-6.89360158 7.72221385 -5.0837276 6.1139737 -3.3671875 3.77734375 C-2.69042969 2.89755859 -2.69042969 2.89755859 -2 2 C-1.34 2 -0.68 2 0 2 C0 1.34 0 0.68 0 0 Z " fill="#FEC92B" transform="translate(276,258)"/>
<path d="M0 0 C0 0.66 0 1.32 0 2 C-0.99 2.495 -0.99 2.495 -2 3 C-2 3.99 -2 4.98 -2 6 C-3.98 6 -5.96 6 -8 6 C-8 4.35 -8 2.7 -8 1 C-5.07175348 0.02391783 -3.04386724 -0.08226668 0 0 Z " fill="#FAD43F" transform="translate(394,170)"/>
<path d="M0 0 C0.68835938 0.59748047 0.68835938 0.59748047 1.390625 1.20703125 C7.07054698 6.35988124 7.07054698 6.35988124 13.6875 10.0625 C16 11 16 11 17 13 C10.61328498 12.60083031 6.04064373 7.83657935 1.5 3.75 C0 2 0 2 0 0 Z " fill="#561200" transform="translate(455,574)"/>
<path d="M0 0 C0.66 0.33 1.32 0.66 2 1 C1.01 1.66 0.02 2.32 -1 3 C-0.67 2.01 -0.34 1.02 0 0 Z M-4 4 C-3.34 4.33 -2.68 4.66 -2 5 C-5.32307692 9.8 -5.32307692 9.8 -8.75 10.8125 C-9.4925 10.874375 -10.235 10.93625 -11 11 C-8.66666667 8.66666667 -6.33333333 6.33333333 -4 4 Z M-13 11 C-12.34 11.33 -11.68 11.66 -11 12 C-11.99 12 -12.98 12 -14 12 C-13.67 11.67 -13.34 11.34 -13 11 Z " fill="#F5980B" transform="translate(742,679)"/>
<path d="M0 0 C0.66 0.66 1.32 1.32 2 2 C0.35 4.64 -1.3 7.28 -3 10 C-3.99 9.67 -4.98 9.34 -6 9 C-6 8.34 -6 7.68 -6 7 C-5.34 7 -4.68 7 -4 7 C-4.33 6.01 -4.66 5.02 -5 4 C-4.34 3.34 -3.68 2.68 -3 2 C-2.01 2 -1.02 2 0 2 C0 1.34 0 0.68 0 0 Z " fill="#F59B0E" transform="translate(814,619)"/>
<path d="M0 0 C-0.7115625 0.6496875 -0.7115625 0.6496875 -1.4375 1.3125 C-3.23686957 3.02309613 -3.23686957 3.02309613 -4 6 C-6.0625 6.6875 -6.0625 6.6875 -8 7 C-8.33 5.02 -8.66 3.04 -9 1 C-5.92677456 0.08941469 -3.19902639 -0.08886184 0 0 Z " fill="#FBD43E" transform="translate(404,167)"/>
<path d="M0 0 C5.94 0.33 11.88 0.66 18 1 C18 1.33 18 1.66 18 2 C15.77100213 2.16890918 13.54179338 2.33503687 11.3125 2.5 C9.45044922 2.63921875 9.45044922 2.63921875 7.55078125 2.78125 C4.68500671 2.95779937 1.86900043 3.04388528 -1 3 C-0.67 2.01 -0.34 1.02 0 0 Z " fill="#6F2D0B" transform="translate(471,125)"/>
<path d="M0 0 C2.01822917 0.06510417 4.03645833 0.13020833 6.0546875 0.1953125 C6.3846875 0.8553125 6.7146875 1.5153125 7.0546875 2.1953125 C2.9350498 3.48774786 -0.61362933 4.45783875 -4.9453125 4.1953125 C-3.69748927 1.69966605 -2.88847304 0.29000733 0 0 Z " fill="#F1940A" transform="translate(594.9453125,770.8046875)"/>
<path d="M0 0 C0.33 0.99 0.66 1.98 1 3 C-1.31 4.65 -3.62 6.3 -6 8 C-6.99 7.34 -7.98 6.68 -9 6 C-9 5.34 -9 4.68 -9 4 C-7.02 4 -5.04 4 -3 4 C-3 3.34 -3 2.68 -3 2 C-2.01 1.34 -1.02 0.68 0 0 Z " fill="#EF7600" transform="translate(606,468)"/>
<path d="M0 0 C1.65 0 3.3 0 5 0 C5 0.99 5 1.98 5 3 C2.5 5.1875 2.5 5.1875 0 7 C-0.66 6.67 -1.32 6.34 -2 6 C-1.34 4.02 -0.68 2.04 0 0 Z " fill="#FAAD14" transform="translate(520,413)"/>
<path d="M0 0 C6.27 0 12.54 0 19 0 C19.33 0.99 19.66 1.98 20 3 C18.02 3.33 16.04 3.66 14 4 C14 3.01 14 2.02 14 1 C9.38 1 4.76 1 0 1 C0 0.67 0 0.34 0 0 Z " fill="#FEE546" transform="translate(530,152)"/>
<path d="M0 0 C0.33 0.66 0.66 1.32 1 2 C0.0625 4.125 0.0625 4.125 -1 6 C-0.34 6 0.32 6 1 6 C1 6.66 1 7.32 1 8 C-0.62626404 9.38232443 -2.2925002 10.71937515 -4 12 C-5 9 -5 9 -4.00390625 6.73828125 C-3.52824219 5.93777344 -3.05257812 5.13726563 -2.5625 4.3125 C-2.08941406 3.50425781 -1.61632812 2.69601562 -1.12890625 1.86328125 C-0.75636719 1.24839844 -0.38382813 0.63351562 0 0 Z " fill="#4F1704" transform="translate(244,797)"/>
<path d="M0 0 C0.66 0 1.32 0 2 0 C2.93402724 5.41735797 3.20808081 8.80451575 1 14 C0.67 14 0.34 14 0 14 C0 9.38 0 4.76 0 0 Z " fill="#FDD831" transform="translate(165,475)"/>
<path d="M0 0 C-2.36797991 2.61724095 -4.89600354 4.32861729 -8 6 C-8.66 6 -9.32 6 -10 6 C-10 4.68 -10 3.36 -10 2 C-6.49223216 0.39644899 -3.85645121 -0.22036864 0 0 Z " fill="#FAD33C" transform="translate(358,184)"/>
<path d="M0 0 C1.65 0 3.3 0 5 0 C1.72291137 3.67033927 -1.71522208 5.69281189 -6 8 C-5.75 6.125 -5.75 6.125 -5 4 C-3 2.875 -3 2.875 -1 2 C-0.67 1.34 -0.34 0.68 0 0 Z " fill="#F18F07" transform="translate(354,818)"/>
<path d="M0 0 C-3.62535821 3.17218843 -7.51150278 4.42902597 -12 6 C-12 5.01 -12 4.02 -12 3 C-10.68 3 -9.36 3 -8 3 C-8 2.34 -8 1.68 -8 1 C-3.375 -1.125 -3.375 -1.125 0 0 Z " fill="#F3960A" transform="translate(677,745)"/>
<path d="M0 0 C0.66 0.33 1.32 0.66 2 1 C2 4.33333333 2 7.66666667 2 11 C1.34 11 0.68 11 0 11 C0.33 12.65 0.66 14.3 1 16 C0.34 16 -0.32 16 -1 16 C-0.67 10.72 -0.34 5.44 0 0 Z " fill="#F8A10F" transform="translate(838,493)"/>
<path d="M0 0 C0.144375 0.598125 0.28875 1.19625 0.4375 1.8125 C0.8872439 3.56150404 1.42892341 5.28677023 2 7 C1.34 7 0.68 7 0 7 C-0.33 8.65 -0.66 10.3 -1 12 C-1.33 12 -1.66 12 -2 12 C-2 8.37 -2 4.74 -2 1 C-1.34 0.67 -0.68 0.34 0 0 Z " fill="#FB9E0B" transform="translate(376,356)"/>
<path d="M0 0 C3.96 0 7.92 0 12 0 C12.33 0.66 12.66 1.32 13 2 C9.88450128 3.55774936 6.3955612 3.56480622 3 3 C2.01 2.01 1.02 1.02 0 0 Z " fill="#FAC833" transform="translate(475,152)"/>
<path d="M0 0 C0.66 0.33 1.32 0.66 2 1 C-1.60957611 4.2910841 -4.12637153 5.54663921 -9 6 C-7.73295613 3.46591226 -6.56876843 3.06790028 -4.0625 1.8125 C-3.35222656 1.44769531 -2.64195312 1.08289063 -1.91015625 0.70703125 C-1.27980469 0.47371094 -0.64945312 0.24039063 0 0 Z M-11 6 C-10.34 6 -9.68 6 -9 6 C-9.33 6.66 -9.66 7.32 -10 8 C-10.33 7.34 -10.66 6.68 -11 6 Z " fill="#EF8C07" transform="translate(297,831)"/>
<path d="M0 0 C0.33 0.66 0.66 1.32 1 2 C-1 4 -3 6 -5 8 C-5.99 7.01 -6.98 6.02 -8 5 C-4.04 2.525 -4.04 2.525 0 0 Z " fill="#F2940A" transform="translate(343,802)"/>
<path d="M0 0 C1.32 0.66 2.64 1.32 4 2 C-1.445 4.475 -1.445 4.475 -7 7 C-7.33 6.01 -7.66 5.02 -8 4 C-5.09399739 2.74335022 -3.20395416 2 0 2 C0 1.34 0 0.68 0 0 Z " fill="#F5990C" transform="translate(685,738)"/>
<path d="M0 0 C0.99 0.495 0.99 0.495 2 1 C2 3.64 2 6.28 2 9 C2.99 9.33 3.98 9.66 5 10 C4.01 10.99 3.02 11.98 2 13 C0.24252386 8.49646738 -0.19294408 4.82360189 0 0 Z " fill="#FBCD28" transform="translate(170,520)"/>
<path d="M0 0 C1.65 0.33 3.3 0.66 5 1 C3.35 2.65 1.7 4.3 0 6 C-0.99 5.34 -1.98 4.68 -3 4 C-2.01 2.68 -1.02 1.36 0 0 Z " fill="#EE7500" transform="translate(590,478)"/>
<path d="M0 0 C3.49734228 0.38859359 6.65788261 0.88596087 10 2 C10 2.66 10 3.32 10 4 C8.54077307 3.88590407 7.08259402 3.75834456 5.625 3.625 C4.40683594 3.52058594 4.40683594 3.52058594 3.1640625 3.4140625 C1 3 1 3 -1 1 C-0.67 0.67 -0.34 0.34 0 0 Z " fill="#FACC2B" transform="translate(519,355)"/>
<path d="M0 0 C0 0.99 0 1.98 0 3 C-0.99 3.495 -0.99 3.495 -2 4 C-1.34 2.68 -0.68 1.36 0 0 Z M-3 4 C-3 7 -3 7 -3 7 Z M-5 7 C-4.34 7.66 -3.68 8.32 -3 9 C-4.98 9.99 -4.98 9.99 -7 11 C-6.34 9.68 -5.68 8.36 -5 7 Z M-9 12 C-9 15 -9 15 -9 15 Z " fill="#F5990B" transform="translate(788,627)"/>
<path d="M0 0 C0.33 0 0.66 0 1 0 C1 2.97 1 5.94 1 9 C1.66 9 2.32 9 3 9 C2.67 11.31 2.34 13.62 2 16 C-0.14336161 12.5233662 -0.21277626 9.78770805 -0.125 5.75 C-0.10695312 4.67234375 -0.08890625 3.5946875 -0.0703125 2.484375 C-0.04710937 1.66453125 -0.02390625 0.8446875 0 0 Z " fill="#FDD42D" transform="translate(167,498)"/>
<path d="M0 0 C0.99 0 1.98 0 3 0 C3.08131463 1.43655854 3.13933559 2.8744483 3.1875 4.3125 C3.23970703 5.51326172 3.23970703 5.51326172 3.29296875 6.73828125 C3 9 3 9 0 12 C0 8.04 0 4.08 0 0 Z " fill="#6F3516" transform="translate(884,479)"/>
<path d="M0 0 C1.32 0.66 2.64 1.32 4 2 C2.35 3.98 0.7 5.96 -1 8 C-1.66 7.67 -2.32 7.34 -3 7 C-2.67 6.01 -2.34 5.02 -2 4 C-1.34 4 -0.68 4 0 4 C0 2.68 0 1.36 0 0 Z " fill="#F37801" transform="translate(617,455)"/>
<path d="M0 0 C2.92188322 2.6296949 4.97298548 5.64494149 7 9 C7 9.99 7 10.98 7 12 C1.33064516 6.62903226 1.33064516 6.62903226 0 3 C0 2.01 0 1.02 0 0 Z " fill="#F8C923" transform="translate(349,388)"/>
<path d="M0 0 C4.56454251 0.54339792 7.9728176 1.79463821 12 4 C11.67 4.66 11.34 5.32 11 6 C9.68 5.67 8.36 5.34 7 5 C7 4.34 7 3.68 7 3 C6.21625 3.020625 5.4325 3.04125 4.625 3.0625 C2 3 2 3 0 2 C0 1.34 0 0.68 0 0 Z " fill="#FDE341" transform="translate(646,175)"/>
<path d="M0 0 C1.69752187 0.25245197 3.38471545 0.57645775 5.0625 0.9375 C5.98160156 1.13214844 6.90070313 1.32679688 7.84765625 1.52734375 C8.91306641 1.76130859 8.91306641 1.76130859 10 2 C9.67 2.99 9.34 3.98 9 5 C4.78087253 4.5205537 2.20336822 3.83374881 -1 1 C-0.67 0.67 -0.34 0.34 0 0 Z " fill="#EF8C06" transform="translate(430,772)"/>
<path d="M0 0 C-3.53834904 2.12300942 -6.90823045 2.69690596 -11 3 C-11.66 2.34 -12.32 1.68 -13 1 C-8.20862412 -0.6290678 -4.94367454 -1.20577428 0 0 Z " fill="#F2AB18" transform="translate(537,729)"/>
<path d="M0 0 C0.66 0 1.32 0 2 0 C3.17571451 3.67410785 3.07366746 7.16929183 3 11 C2.01 10.67 1.02 10.34 0 10 C0 6.7 0 3.4 0 0 Z " fill="#6B2B11" transform="translate(137,486)"/>
<path d="M0 0 C2.475 0.495 2.475 0.495 5 1 C5.77321882 3.98241547 6.41196203 6.97580475 7 10 C6.401875 9.236875 5.80375 8.47375 5.1875 7.6875 C3.15995888 5.08664741 3.15995888 5.08664741 1.25 3.3125 C0 2 0 2 0 0 Z " fill="#F38203" transform="translate(555,344)"/>
<path d="M0 0 C0 0.66 0 1.32 0 2 C-2.64 2.33 -5.28 2.66 -8 3 C-8 2.01 -8 1.02 -8 0 C-4.71303767 -0.79953138 -3.28976808 -1.09658936 0 0 Z " fill="#F3EFEB" transform="translate(604,802)"/>
<path d="M0 0 C-0.66 1.65 -1.32 3.3 -2 5 C-2.99 4.67 -3.98 4.34 -5 4 C-5.33 4.66 -5.66 5.32 -6 6 C-6.99 5.67 -7.98 5.34 -9 5 C-7.87926138 4.16094435 -6.75325453 3.32892169 -5.625 2.5 C-4.99851562 2.0359375 -4.37203125 1.571875 -3.7265625 1.09375 C-2 0 -2 0 0 0 Z " fill="#571800" transform="translate(722,720)"/>
<path d="M0 0 C1.32 0.33 2.64 0.66 4 1 C1.51047079 3.66735273 -0.63408134 5.55746343 -4 7 C-3.67 5.68 -3.34 4.36 -3 3 C-2.34 3 -1.68 3 -1 3 C-0.67 2.01 -0.34 1.02 0 0 Z " fill="#F1950B" transform="translate(731,708)"/>
<path d="M0 0 C0.8125 1.6875 0.8125 1.6875 1 4 C-1.4375 6.75 -1.4375 6.75 -4 9 C-4.33 8.34 -4.66 7.68 -5 7 C-4.0625 4.375 -4.0625 4.375 -3 2 C-2.34 2 -1.68 2 -1 2 C-0.67 1.34 -0.34 0.68 0 0 Z " fill="#F1960A" transform="translate(795,646)"/>
<path d="M0 0 C0.33 0 0.66 0 1 0 C1 3.63 1 7.26 1 11 C0.01 11.495 0.01 11.495 -1 12 C-1.92470553 7.28400182 -2.22923777 4.32734391 0 0 Z " fill="#EE930C" transform="translate(859,437)"/>
<path d="M0 0 C0.66 0.99 1.32 1.98 2 3 C0.1875 6 0.1875 6 -2 9 C-2.99 9 -3.98 9 -5 9 C-3.84607545 5.53822635 -2.06206835 2.99332502 0 0 Z " fill="#F7A212" transform="translate(534,399)"/>
<path d="M0 0 C0.66 0.33 1.32 0.66 2 1 C1.67 2.32 1.34 3.64 1 5 C-1.31 4.67 -3.62 4.34 -6 4 C-4.03617993 2.49440461 -2.21736634 1.10868317 0 0 Z " fill="#F3950A" transform="translate(677,723)"/>
<path d="M0 0 C0.99 1.32 1.98 2.64 3 4 C1.35 5.65 -0.3 7.3 -2 9 C-1.125 1.125 -1.125 1.125 0 0 Z " fill="#FBD337" transform="translate(178,372)"/>
<path d="M0 0 C1.37562854 1.28965176 2.70766393 2.62689293 4 4 C4 4.66 4 5.32 4 6 C3.34 6 2.68 6 2 6 C2 7.98 2 9.96 2 12 C1.67 12 1.34 12 1 12 C0.01751476 7.9472484 -0.08159574 4.16138263 0 0 Z " fill="#511300" transform="translate(857,413)"/>
<path d="M0 0 C0.33 0 0.66 0 1 0 C1.36923077 5.41538462 1.36923077 5.41538462 -0.5 8.375 C-0.995 8.91125 -1.49 9.4475 -2 10 C-2.6875 8.375 -2.6875 8.375 -3 6 C-1.5625 2.75 -1.5625 2.75 0 0 Z " fill="#F6C732" transform="translate(197,326)"/>
<path d="M0 0 C0 3.39593478 -0.52165948 4.06619881 -2.5 6.6875 C-2.9640625 7.31011719 -3.428125 7.93273437 -3.90625 8.57421875 C-4.2671875 9.04472656 -4.628125 9.51523437 -5 10 C-5.66 9.01 -6.32 8.02 -7 7 C-4.66666667 4.66666667 -2.33333333 2.33333333 0 0 Z " fill="#FACF27" transform="translate(375,287)"/>
<path d="M0 0 C4.16138263 -0.08159574 7.9472484 0.01751476 12 1 C9.34271875 2.73745313 8.10399645 3.00831972 4.875 2.75 C2 2 2 2 0 0 Z " fill="#F9D339" transform="translate(588,159)"/>
<path d="M0 0 C1.11375 0.1546875 1.11375 0.1546875 2.25 0.3125 C0.08312509 2.58771866 -2.20620509 4.47044162 -4.75 6.3125 C-5.41 5.9825 -6.07 5.6525 -6.75 5.3125 C-3.42692308 0.38942308 -3.42692308 0.38942308 0 0 Z M-8.75 6.3125 C-6.75 7.3125 -6.75 7.3125 -6.75 7.3125 Z " fill="#F4990C" transform="translate(331.75,808.6875)"/>
<path d="M0 0 C0.99 0.33 1.98 0.66 3 1 C-1.625 5 -1.625 5 -5 5 C-5 4.01 -5 3.02 -5 2 C-3.35 2 -1.7 2 0 2 C0 1.34 0 0.68 0 0 Z " fill="#EE8C06" transform="translate(405,782)"/>
<path d="M0 0 C0.66 0.66 1.32 1.32 2 2 C0.02 4.97 0.02 4.97 -2 8 C-2.99 7.67 -3.98 7.34 -5 7 C-5 6.34 -5 5.68 -5 5 C-4.01 4.67 -3.02 4.34 -2 4 C-0.79117904 1.99983534 -0.79117904 1.99983534 0 0 Z " fill="#F4980B" transform="translate(806,631)"/>
<path d="M0 0 C0.66 0 1.32 0 2 0 C2.33 2.64 2.66 5.28 3 8 C2.01 8 1.02 8 0 8 C0 5.36 0 2.72 0 0 Z " fill="#F39E0E" transform="translate(853,405)"/>
<path d="M0 0 C3.68754757 0.49831724 5.60490662 1.10067643 8 4 C7.67 4.99 7.34 5.98 7 7 C4.66666667 4.66666667 2.33333333 2.33333333 0 0 Z " fill="#FCC324" transform="translate(529,360)"/>
<path d="M0 0 C3.26954202 0.56371414 4.82575883 1.49962266 7 4 C4 5 4 5 1 4 C0.3125 1.9375 0.3125 1.9375 0 0 Z " fill="#FCD332" transform="translate(727,217)"/>
<path d="M0 0 C5.53846154 0.61538462 5.53846154 0.61538462 7.875 2.5625 C8.431875 3.2740625 8.431875 3.2740625 9 4 C2.25 3.125 2.25 3.125 0 2 C0 1.34 0 0.68 0 0 Z " fill="#FCE041" transform="translate(665,183)"/>
<path d="M0 0 C0 0.66 0 1.32 0 2 C-1.98 2.99 -3.96 3.98 -6 5 C-6.33 4.01 -6.66 3.02 -7 2 C-2.25 0 -2.25 0 0 0 Z " fill="#F19108" transform="translate(321,818)"/>
<path d="M0 0 C-0.99 1.485 -0.99 1.485 -2 3 C-5.125 3.1875 -5.125 3.1875 -8 3 C-8 2.34 -8 1.68 -8 1 C-5.07175348 0.02391783 -3.04386724 -0.08226668 0 0 Z " fill="#F5F2EE" transform="translate(556,809)"/>
<path d="M0 0 C0.99 0.33 1.98 0.66 3 1 C1.68 2.65 0.36 4.3 -1 6 C-2.32 5.34 -3.64 4.68 -5 4 C-2.6875 1.9375 -2.6875 1.9375 0 0 Z " fill="#F29209" transform="translate(355,793)"/>
<path d="M0 0 C0.66 0.33 1.32 0.66 2 1 C0.29374499 3.78388975 -0.47626739 4.85384206 -3.6875 5.75 C-4.8321875 5.87375 -4.8321875 5.87375 -6 6 C-4 4 -2 2 0 0 Z " fill="#531601" transform="translate(399,789)"/>
<path d="M0 0 C0.99 1.32 1.98 2.64 3 4 C2.01 4.495 2.01 4.495 1 5 C-0.13350534 7.01669827 -0.13350534 7.01669827 -1 9 C-2.0326802 6.21176345 -2.04509293 5.1322726 -1.0625 2.25 C-0.711875 1.5075 -0.36125 0.765 0 0 Z " fill="#4D1706" transform="translate(259,757)"/>
<path d="M0 0 C0.66 0.99 1.32 1.98 2 3 C-0.31 4.32 -2.62 5.64 -5 7 C-3.75023244 3.34683329 -3.32901247 2.21934164 0 0 Z " fill="#F4970B" transform="translate(725,713)"/>
<path d="M0 0 C0 3 0 3 -2.5 5.6875 C-3.325 6.450625 -4.15 7.21375 -5 8 C-5.66 7.67 -6.32 7.34 -7 7 C-4.69 4.69 -2.38 2.38 0 0 Z " fill="#FDCC23" transform="translate(563,576)"/>
<path d="M0 0 C0.66 0 1.32 0 2 0 C1.34 2.64 0.68 5.28 0 8 C-0.66 8 -1.32 8 -2 8 C-2.20086443 4.28400809 -2.1519437 3.22791555 0 0 Z " fill="#F69D0B" transform="translate(847,547)"/>
<path d="M0 0 C1 2 1 2 0.75 4.0625 C0.5025 4.701875 0.255 5.34125 0 6 C-0.99 6.33 -1.98 6.66 -3 7 C-3.625 5.125 -3.625 5.125 -4 3 C-2 1 -2 1 0 0 Z " fill="#F69D14" transform="translate(388,322)"/>
<path d="M0 0 C0 0.33 0 0.66 0 1 C-1.60320974 1.19551338 -3.20762986 1.38111983 -4.8125 1.5625 C-5.70582031 1.66691406 -6.59914063 1.77132812 -7.51953125 1.87890625 C-10 2 -10 2 -13 1 C-8.23947038 -0.97387813 -5.03511899 -1.0070238 0 0 Z " fill="#762500" transform="translate(414,163)"/>
<path d="M0 0 C1.60379341 -0.05416188 3.20811406 -0.09286638 4.8125 -0.125 C5.70582031 -0.14820313 6.59914063 -0.17140625 7.51953125 -0.1953125 C10 0 10 0 13 2 C8.15507803 3.51403812 4.7408989 2.36602172 0 1 C0 0.67 0 0.34 0 0 Z " fill="#FDE841" transform="translate(562,155)"/>
<path d="M0 0 C-3.28463659 2.18975773 -6.20696275 2.99806563 -10 4 C-10.33 3.34 -10.66 2.68 -11 2 C-7.17679443 0.57741188 -4.08718695 -0.24042276 0 0 Z " fill="#F79C0D" transform="translate(606,750)"/>
<path d="M0 0 C-1.8125 2 -1.8125 2 -4 4 C-4.99 4 -5.98 4 -7 4 C-7.33 3.01 -7.66 2.02 -8 1 C-2.25 -1.125 -2.25 -1.125 0 0 Z " fill="#F4960A" transform="translate(615,748)"/>
<path d="M0 0 C0.66 0.66 1.32 1.32 2 2 C0.02 2.99 -1.96 3.98 -4 5 C-4 3.68 -4 2.36 -4 1 C-2.125 0.375 -2.125 0.375 0 0 Z " fill="#F29309" transform="translate(718,719)"/>
<path d="M0 0 C3.36720387 1.39332574 4.9859524 2.9789286 7 6 C6.67 6.66 6.34 7.32 6 8 C4.99403703 7.0479279 3.99538437 6.08812654 3 5.125 C2.443125 4.59132813 1.88625 4.05765625 1.3125 3.5078125 C0 2 0 2 0 0 Z " fill="#FCD526" transform="translate(641,274)"/>
<path d="M0 0 C0 0.66 0 1.32 0 2 C-1.96147874 3.38938077 -3.96166576 4.7260411 -6 6 C-6.66 5.67 -7.32 5.34 -8 5 C-5.81209839 1.71814759 -4.05191042 0 0 0 Z " fill="#F7C925" transform="translate(410,254)"/>
<path d="M0 0 C0.66 0.33 1.32 0.66 2 1 C0.02 2.98 -1.96 4.96 -4 7 C-4.99 6.67 -5.98 6.34 -7 6 C-4.69 4.02 -2.38 2.04 0 0 Z " fill="#FEC82B" transform="translate(300,239)"/>
<path d="M0 0 C3.37503669 1.1858237 5.64722731 2.27573689 8 5 C5.6875 5.3125 5.6875 5.3125 3 5 C1.1875 2.5 1.1875 2.5 0 0 Z " fill="#F9D231" transform="translate(719,211)"/>
</svg>
