<?xml version="1.0" encoding="UTF-8"?>
<svg version="1.1" xmlns="http://www.w3.org/2000/svg" width="198" height="206">
<path d="M0 0 C19.37359953 16.25019312 32.46942336 39.46933504 34.73583984 64.90356445 C36.15440757 91.24918214 30.28544676 116.45349949 12.73583984 136.90356445 C11.71876953 138.11979492 11.71876953 138.11979492 10.68115234 139.3605957 C-4.12093847 156.50678986 -24.63678795 168.75552552 -47.26416016 171.90356445 C-75.73407715 173.84683769 -103.00413507 169.23286382 -125.31982422 150.14526367 C-132.9054722 143.20955546 -140.03996552 135.80453405 -145.26416016 126.90356445 C-145.92802734 125.79883789 -146.59189453 124.69411133 -147.27587891 123.5559082 C-159.70569521 102.07082137 -162.61023159 76.66909273 -157.23681641 52.5012207 C-153.09130578 37.16782598 -146.69458929 23.92208525 -136.26416016 11.90356445 C-135.59900391 11.08243164 -134.93384766 10.26129883 -134.24853516 9.4152832 C-100.96580626 -30.21581805 -38.82210668 -31.40981079 0 0 Z M-84.26416016 59.90356445 C-84.14238328 61.81822812 -84.14238328 61.81822812 -83.26416016 63.90356445 C-81.01416016 65.82023112 -81.01416016 65.82023112 -78.26416016 66.90356445 C-76.01087604 66.69713247 -76.01087604 66.69713247 -74.26416016 65.90356445 C-74.26416016 65.24356445 -74.26416016 64.58356445 -74.26416016 63.90356445 C-75.35728516 63.61481445 -76.45041016 63.32606445 -77.57666016 63.02856445 C-81.26416016 61.90356445 -81.26416016 61.90356445 -84.26416016 59.90356445 Z M-42.26416016 59.90356445 C-42.59416016 60.89356445 -42.92416016 61.88356445 -43.26416016 62.90356445 C-47.71916016 63.39856445 -47.71916016 63.39856445 -52.26416016 63.90356445 C-51.93416016 64.56356445 -51.60416016 65.22356445 -51.26416016 65.90356445 C-45.79365799 66.29949706 -45.79365799 66.29949706 -40.76416016 64.59106445 C-38.93197824 62.90615962 -38.93197824 62.90615962 -39.26416016 59.90356445 C-40.25416016 59.90356445 -41.24416016 59.90356445 -42.26416016 59.90356445 Z " fill="#8E4C29" transform="translate(162.26416015625,27.096435546875)"/>
<path d="M0 0 C19.37359953 16.25019312 32.46942336 39.46933504 34.73583984 64.90356445 C36.15440757 91.24918214 30.28544676 116.45349949 12.73583984 136.90356445 C11.71876953 138.11979492 11.71876953 138.11979492 10.68115234 139.3605957 C-4.12093847 156.50678986 -24.63678795 168.75552552 -47.26416016 171.90356445 C-75.73407715 173.84683769 -103.00413507 169.23286382 -125.31982422 150.14526367 C-132.9054722 143.20955546 -140.03996552 135.80453405 -145.26416016 126.90356445 C-145.92802734 125.79883789 -146.59189453 124.69411133 -147.27587891 123.5559082 C-159.70569521 102.07082137 -162.61023159 76.66909273 -157.23681641 52.5012207 C-153.09130578 37.16782598 -146.69458929 23.92208525 -136.26416016 11.90356445 C-135.59900391 11.08243164 -134.93384766 10.26129883 -134.24853516 9.4152832 C-100.96580626 -30.21581805 -38.82210668 -31.40981079 0 0 Z M-118.45166016 28.46606445 C-131.33381425 44.56875708 -135.9781763 62.48898537 -134.26416016 82.90356445 C-131.75434075 102.08695078 -121.61938929 118.91739295 -106.40869141 130.7668457 C-88.32143678 143.05719139 -69.18181405 146.02841443 -47.60791016 143.4699707 C-31.33240526 139.94798645 -14.895488 129.02804096 -5.00244141 115.6184082 C6.48563138 97.67636195 11.47748139 77.36291441 6.85302734 56.22387695 C2.31751798 39.224645 -8.80782788 22.86977211 -24.04736328 13.84790039 C-56.62949134 -4.43189984 -93.12135878 0.0128492 -118.45166016 28.46606445 Z " fill="#E0701F" transform="translate(162.26416015625,27.096435546875)"/>
<path d="M0 0 C13.08611596 11.04672126 23.24414873 28.12298627 25.12866211 45.24804688 C25.28426173 48.19373442 25.33122958 51.11283181 25.3125 54.0625 C25.30750488 55.10760742 25.30250977 56.15271484 25.29736328 57.22949219 C25.09336131 66.37159451 23.37443783 73.99784992 19.8125 82.375 C19.14347656 83.98568359 19.14347656 83.98568359 18.4609375 85.62890625 C11.34827212 101.18537829 -0.9389478 112.03541591 -15.96875 119.73046875 C-18.77592937 120.54593459 -20.42024553 120.26882771 -23.1875 119.375 C-26 116.8125 -26 116.8125 -28.1875 114.375 C-27.60742188 114.0346875 -27.02734375 113.694375 -26.4296875 113.34375 C-21.28258651 110.15016919 -17.82753195 107.14081614 -14.57421875 102.01171875 C-12.86804848 99.99795722 -11.72041275 99.88562712 -9.1875 99.375 C-8.5275 98.715 -7.8675 98.055 -7.1875 97.375 C-6.6925 101.335 -6.6925 101.335 -6.1875 105.375 C-5.5275 105.375 -4.8675 105.375 -4.1875 105.375 C-3.1975 103.065 -2.2075 100.755 -1.1875 98.375 C-0.5275 99.035 0.1325 99.695 0.8125 100.375 C4.91986184 89.76431524 5.59613245 78.58122561 1.234375 67.9296875 C-1.23791438 63.48771703 -4.57913727 59.9220556 -8.1875 56.375 C-7.6925 55.385 -7.1975 54.395 -6.6875 53.375 C-3.86189273 45.67624395 -3.6923181 36.47340038 -6.5 28.77734375 C-7.95645416 25.89594525 -9.53007215 23.14350137 -11.1875 20.375 C-11.5175 19.385 -11.8475 18.395 -12.1875 17.375 C-11.2284375 16.7871875 -11.2284375 16.7871875 -10.25 16.1875 C-7.68388953 13.93243322 -7.66167464 12.69422247 -7.1875 9.375 C-6.55312656 7.6957762 -5.89460678 6.02491582 -5.1875 4.375 C-6.8375 5.035 -8.4875 5.695 -10.1875 6.375 C-9.8575 4.395 -9.5275 2.415 -9.1875 0.375 C-9.69539063 0.83390625 -10.20328125 1.2928125 -10.7265625 1.765625 C-21.45684775 11.33044856 -21.45684775 11.33044856 -25.16015625 11.42578125 C-27.96674957 11.10577715 -30.65223774 10.50573662 -33.39453125 9.8359375 C-37.21168722 9.2059733 -40.94976156 9.18629264 -44.8125 9.1875 C-45.61284668 9.18322998 -46.41319336 9.17895996 -47.23779297 9.17456055 C-51.78969726 9.19891457 -55.87074378 9.58953779 -60.3125 10.6875 C-64.19166569 11.53105517 -66.08125305 11.37785932 -69.5 9.3125 C-70.75689043 8.3691843 -71.98734129 7.38951325 -73.1875 6.375 C-73.78949219 5.89546875 -74.39148438 5.4159375 -75.01171875 4.921875 C-76.43002482 3.77136099 -77.81308919 2.57760946 -79.1875 1.375 C-79.1875 3.025 -79.1875 4.675 -79.1875 6.375 C-80.5075 5.715 -81.8275 5.055 -83.1875 4.375 C-82.53164811 7.98492379 -82.53164811 7.98492379 -81.1875 11.375 C-82.1775 11.87 -82.1775 11.87 -83.1875 12.375 C-81.94203595 16.11139216 -80.55345047 16.56256513 -77.1875 18.375 C-77.59742188 19.02726562 -78.00734375 19.67953125 -78.4296875 20.3515625 C-83.89501299 29.21637274 -86.1613517 35.85740161 -85.1875 46.375 C-84.60627325 48.32607835 -83.98243592 50.2650752 -83.3125 52.1875 C-81.89240057 56.80447443 -81.89240057 56.80447443 -83.18359375 59.30078125 C-84.24954082 60.45710787 -85.35070485 61.58172095 -86.48046875 62.67578125 C-92.05760717 68.22739501 -92.57154661 74.87701603 -92.625 82.375 C-92.5648511 88.899819 -91.86649883 94.34725264 -89.1875 100.375 C-88.1975 99.88 -88.1975 99.88 -87.1875 99.375 C-86.1975 102.84 -86.1975 102.84 -85.1875 106.375 C-84.1975 106.045 -83.2075 105.715 -82.1875 105.375 C-82.1875 102.735 -82.1875 100.095 -82.1875 97.375 C-81.775 97.82875 -81.3625 98.2825 -80.9375 98.75 C-79.29558943 100.44719104 -79.29558943 100.44719104 -77.2890625 101.234375 C-74.81922961 102.5748791 -73.56738079 104.0666976 -71.8125 106.25 C-68.87211431 109.74289877 -66.11518648 112.07586645 -62.1875 114.375 C-63.01070163 115.58417163 -63.87269206 116.76699254 -64.75 117.9375 C-65.22566406 118.59878906 -65.70132813 119.26007813 -66.19140625 119.94140625 C-68.1875 121.375 -68.1875 121.375 -71.48046875 121.3046875 C-85.39315879 117.81551971 -97.97398108 106.78410571 -105.6328125 94.984375 C-116.06567684 77.47393937 -120.39379553 58.35920593 -116.1875 38.125 C-110.20296967 18.48133332 -97.6076494 1.99595545 -79.49780273 -7.86987305 C-53.0155552 -21.59269192 -23.62001076 -17.42159178 0 0 Z " fill="#FCF7CD" transform="translate(145.1875,45.625)"/>
<path d="M0 0 C-0.33 0.99 -0.66 1.98 -1 3 C-2.32 3 -3.64 3 -5 3 C-4.505 4.98 -4.505 4.98 -4 7 C-5.010625 7.495 -6.02125 7.99 -7.0625 8.5 C-11.68216759 11.10209848 -14.7280009 14.90254216 -18 19 C-17.24074219 18.41089844 -16.48148438 17.82179688 -15.69921875 17.21484375 C-14.70535156 16.46332031 -13.71148437 15.71179688 -12.6875 14.9375 C-11.70136719 14.18339844 -10.71523438 13.42929687 -9.69921875 12.65234375 C-8.80847656 12.10707031 -7.91773438 11.56179687 -7 11 C-6.01 11.33 -5.02 11.66 -4 12 C-2.36436136 10.96346336 -2.36436136 10.96346336 -0.8125 9.375 C2.77764362 6.11331633 6.56964434 3.04712986 11 1 C11.99 1.495 11.99 1.495 13 2 C12.67 2.66 12.34 3.32 12 4 C12.495 5.485 12.495 5.485 13 7 C10.725306 9.55263088 8.56797307 10.84144815 5.4375 12.1875 C4.65246094 12.53167969 3.86742187 12.87585937 3.05859375 13.23046875 C1 14 1 14 -1 14 C-1 14.66 -1 15.32 -1 16 C-2.609375 17.3671875 -2.609375 17.3671875 -4.75 18.875 C-7.17434491 20.62258431 -9.25332587 22.25332587 -11.375 24.375 C-11.91125 24.91125 -12.4475 25.4475 -13 26 C-13.66 26 -14.32 26 -15 26 C-15.26554687 26.59296875 -15.53109375 27.1859375 -15.8046875 27.796875 C-17.03104515 30.05722047 -18.31076459 31.4442029 -20.125 33.25 C-32.26558674 46.93667399 -36.9929836 65.75982606 -36.3203125 83.671875 C-34.97526613 105.56032748 -24.5650511 123.52293081 -8.7109375 138.10546875 C-3.02622284 142.78760646 3.33926035 145.92321164 10 149 C10 149.66 10 150.32 10 151 C10.66 151 11.32 151 12 151 C12 151.66 12 152.32 12 153 C10.72125 153.144375 9.4425 153.28875 8.125 153.4375 C5.74307106 153.70642746 4.15547309 153.92226346 2 155 C-0.3828125 154.00390625 -0.3828125 154.00390625 -3.125 152.5625 C-4.49011719 151.85287109 -4.49011719 151.85287109 -5.8828125 151.12890625 C-6.58148438 150.75636719 -7.28015625 150.38382813 -8 150 C-5.4837822 152.60608273 -2.94865641 154.89381685 0 157 C-0.66 157 -1.32 157 -2 157 C-2 157.66 -2 158.32 -2 159 C-5.9270658 160.2217538 -7.94820025 160.43593369 -11.80859375 158.8359375 C-15.99374271 156.579403 -19.72650487 154.47409929 -23 151 C-24.84340951 149.44869392 -26.70541209 147.92292557 -28.57421875 146.40234375 C-29.27998047 145.70818359 -29.27998047 145.70818359 -30 145 C-30 144.34 -30 143.68 -30 143 C-30.66 143 -31.32 143 -32 143 C-32 142.34 -32 141.68 -32 141 C-32.66 141 -33.32 141 -34 141 C-47.01625398 124.72968253 -54.61917691 103.68112597 -54.3125 82.9375 C-54.31572266 81.84373047 -54.31894531 80.74996094 -54.32226562 79.62304688 C-54.2633126 70.61395341 -53.08999848 62.01771232 -50.5 53.375 C-50.2628125 52.55773437 -50.025625 51.74046875 -49.78125 50.8984375 C-49 49 -49 49 -47 48 C-46.7525 46.865625 -46.505 45.73125 -46.25 44.5625 C-44.96715404 39.01665825 -42.12699026 34.69746528 -39 30 C-38.4225 29.12214844 -37.845 28.24429688 -37.25 27.33984375 C-29.61594168 16.28636347 -14.82965903 -3.29752667 0 0 Z " fill="#E0701F" transform="translate(60,21)"/>
<path d="M0 0 C0.98097656 0.28875 1.96195313 0.5775 2.97265625 0.875 C16.82782609 4.76462601 29.07735413 5.21832128 43 1 C44.33134241 0.65880169 45.66395159 0.32227866 47 0 C51.45319016 10.00142707 56.18218366 21.88187258 56 33 C54.24860039 37.52179537 51.79038881 40.05329839 48 43 C47.30519531 43.56074219 46.61039063 44.12148437 45.89453125 44.69921875 C44 46.125 44 46.125 41 48 C43.31 49.65 45.62 51.3 48 53 C40.99890145 58.82179841 31.3972818 58.35922865 22.6875 58.3125 C21.68581787 58.31121094 20.68413574 58.30992187 19.65209961 58.30859375 C12.07943765 58.21062125 5.24100099 57.33491011 -2 55 C-1.01 54.505 -1.01 54.505 0 54 C0.309375 53.38125 0.61875 52.7625 0.9375 52.125 C2.02905268 49.94189465 3.20711515 48.62989532 5 47 C4.154375 46.505 3.30875 46.01 2.4375 45.5 C-0.27988897 43.65814208 -2.59312392 41.61088198 -4.875 39.25 C-5.47054687 38.63640625 -6.06609375 38.0228125 -6.6796875 37.390625 C-9.77462157 31.78677988 -7.82397704 25.05440521 -6.25 19.1875 C-6.07243164 18.50042969 -5.89486328 17.81335938 -5.71191406 17.10546875 C-4.16353605 11.27115861 -2.23394018 5.60861577 0 0 Z " fill="#C18B5A" transform="translate(77,113)"/>
<path d="M0 0 C19.37359953 16.25019312 32.46942336 39.46933504 34.73583984 64.90356445 C36.15440757 91.24918214 30.28544676 116.45349949 12.73583984 136.90356445 C11.71876953 138.11979492 11.71876953 138.11979492 10.68115234 139.3605957 C-4.12093847 156.50678986 -24.63678795 168.75552552 -47.26416016 171.90356445 C-75.73407715 173.84683769 -103.00413507 169.23286382 -125.31982422 150.14526367 C-132.9054722 143.20955546 -140.03996552 135.80453405 -145.26416016 126.90356445 C-145.92802734 125.79883789 -146.59189453 124.69411133 -147.27587891 123.5559082 C-159.70569521 102.07082137 -162.61023159 76.66909273 -157.23681641 52.5012207 C-153.09130578 37.16782598 -146.69458929 23.92208525 -136.26416016 11.90356445 C-135.59900391 11.08243164 -134.93384766 10.26129883 -134.24853516 9.4152832 C-100.96580626 -30.21581805 -38.82210668 -31.40981079 0 0 Z M-135.26416016 14.90356445 C-140.67792498 21.64230422 -147.4232626 30.36191169 -148.74072266 39.04418945 C-149.32834924 42.25420932 -149.98454574 42.75702397 -152.26416016 44.90356445 C-153.23961463 47.34999998 -153.23961463 47.34999998 -153.88916016 50.09106445 C-154.12892578 50.99211914 -154.36869141 51.89317383 -154.61572266 52.8215332 C-158.05615775 69.17396265 -158.52330212 88.27502788 -152.26416016 103.90356445 C-151.79824052 105.17483086 -151.33481184 106.44701225 -150.87353516 107.7199707 C-148.07316339 115.25297074 -144.69580145 122.18098994 -140.26416016 128.90356445 C-139.86970703 129.54422852 -139.47525391 130.18489258 -139.06884766 130.8449707 C-138.19582897 132.23856719 -137.23965659 133.57967643 -136.26416016 134.90356445 C-135.60416016 134.90356445 -134.94416016 134.90356445 -134.26416016 134.90356445 C-134.26416016 135.56356445 -134.26416016 136.22356445 -134.26416016 136.90356445 C-133.60416016 136.90356445 -132.94416016 136.90356445 -132.26416016 136.90356445 C-132.03728516 137.48106445 -131.81041016 138.05856445 -131.57666016 138.65356445 C-129.90932466 141.51185387 -127.91181632 142.93321568 -125.26416016 144.90356445 C-124.17941406 145.83168945 -124.17941406 145.83168945 -123.07275391 146.77856445 C-119.76243731 149.28317117 -116.35686606 151.08334103 -112.63916016 152.90356445 C-111.92912842 153.25314209 -111.21909668 153.60271973 -110.48754883 153.96289062 C-96.3949161 160.79785738 -82.48789093 164.44141092 -66.76416016 164.27856445 C-65.08386719 164.2959668 -65.08386719 164.2959668 -63.36962891 164.3137207 C-55.30594072 164.28581867 -48.03254891 163.0091861 -40.26416016 160.90356445 C-39.51231445 160.71020508 -38.76046875 160.5168457 -37.98583984 160.31762695 C-21.23567243 155.88645387 -8.20741379 148.44873273 3.73583984 135.90356445 C4.64333984 134.95481445 5.55083984 134.00606445 6.48583984 133.02856445 C13.26876434 125.41845404 17.68230733 117.16700532 21.73583984 107.90356445 C22.14576172 106.96899414 22.55568359 106.03442383 22.97802734 105.0715332 C31.17030664 84.40031685 32.87944502 62.72307888 24.73583984 41.90356445 C24.40583984 40.99219727 24.07583984 40.08083008 23.73583984 39.1418457 C23.09809529 37.3849821 22.42373489 35.64140456 21.73583984 33.90356445 C21.07583984 33.90356445 20.41583984 33.90356445 19.73583984 33.90356445 C19.62626953 33.09532227 19.51669922 32.28708008 19.40380859 31.4543457 C19.24525391 30.38571289 19.08669922 29.31708008 18.92333984 28.21606445 C18.77251953 27.16032227 18.62169922 26.10458008 18.46630859 25.0168457 C17.70086308 21.75449237 16.7062349 19.60141587 14.73583984 16.90356445 C13.82833984 16.47043945 12.92083984 16.03731445 11.98583984 15.59106445 C8.83527262 13.95519301 7.81952955 13.00383084 5.67333984 10.34106445 C2.54119364 6.56714219 -0.89088354 3.62158617 -4.76416016 0.65356445 C-5.2979126 0.24162842 -5.83166504 -0.17030762 -6.3815918 -0.59472656 C-47.02408389 -31.17418966 -102.05893368 -21.52644882 -135.26416016 14.90356445 Z " fill="#BF5B27" transform="translate(162.26416015625,27.096435546875)"/>
<path d="M0 0 C6.33589774 2.43688375 10.82271819 5.9798871 14 12 C14.61875 11.20335938 14.61875 11.20335938 15.25 10.390625 C20.20763407 4.32637619 24.61907894 0.62584587 32.5 -0.5 C38.08591078 0.29798725 42.26477185 2.31166991 46.3125 6.25 C50.5856685 13.213682 52.17294844 19.81213662 51 28 C49.0251422 34.63056123 45.67323652 39.47870153 39.66015625 42.9921875 C34.45749802 44.96323863 29.4282847 45.07742187 24 44 C21.60129633 42.62546194 19.70010053 41.11494764 17.63671875 39.28515625 C15.99378188 37.73919399 15.99378188 37.73919399 13.3125 37.875 C10.51951831 39.23374785 8.37072545 41.00359962 6 43 C0.55581746 44.81472751 -5.22589276 45.1751135 -10.58203125 42.90625 C-16.21279667 39.39519229 -19.5939105 35.57460625 -21.5703125 29.14453125 C-23.1084483 21.46783531 -22.74908605 14.57424191 -18.50390625 7.91015625 C-13.26789195 1.25973809 -8.29249556 -0.78442526 0 0 Z M-8 24 C-7.87822312 25.91466367 -7.87822312 25.91466367 -7 28 C-4.75 29.91666667 -4.75 29.91666667 -2 31 C0.25328412 30.79356801 0.25328412 30.79356801 2 30 C2 29.34 2 28.68 2 28 C0.906875 27.71125 -0.18625 27.4225 -1.3125 27.125 C-5 26 -5 26 -8 24 Z M34 24 C33.67 24.99 33.34 25.98 33 27 C28.545 27.495 28.545 27.495 24 28 C24.33 28.66 24.66 29.32 25 30 C30.47050216 30.39593261 30.47050216 30.39593261 35.5 28.6875 C37.33218192 27.00259517 37.33218192 27.00259517 37 24 C36.01 24 35.02 24 34 24 Z " fill="#CA9865" transform="translate(86,63)"/>
<path d="M0 0 C2.875 2.6875 2.875 2.6875 5 5 C6.3921875 6.3303125 6.3921875 6.3303125 7.8125 7.6875 C10 10 10 10 10 12 C10.66 12 11.32 12 12 12 C24.53033651 28.90074085 28.86935574 48.26087714 27 69 C24.18091705 86.44841494 14.90413557 105.7150219 0.625 116.3125 C-1.2376419 117.56031442 -3.11273674 118.78974669 -5 120 C-6.36511719 120.94166016 -6.36511719 120.94166016 -7.7578125 121.90234375 C-16.60119616 127.86091992 -27.03114124 133.16212524 -38 131.5625 C-38.66 131.376875 -39.32 131.19125 -40 131 C-37.5193467 127.98007425 -35.46928455 127.46644092 -31.6875 126.75 C-15.51311956 122.93510401 0.09151074 112.73855431 9.328125 98.8046875 C19.92380353 81.02969407 24.62525032 61.92730909 20.1171875 41.3203125 C17.105179 30.03351197 11.3624818 19.93805797 3.28515625 11.5234375 C2 10 2 10 2 8 C1.42121094 7.73703125 0.84242188 7.4740625 0.24609375 7.203125 C-2.11313426 5.93939939 -3.90297172 4.48383984 -5.9375 2.75 C-20.8834284 -8.99671823 -39.43763735 -12.7020465 -58 -11 C-77.19819431 -8.44052094 -93.9808058 1.61980761 -105.86328125 16.8515625 C-117.29971769 33.7030575 -121.82226536 52.12567881 -118.34375 72.3515625 C-114.81846122 89.31067611 -105.82287125 104.59543412 -91.921875 115.0859375 C-76.22648021 125.36768008 -60.40572054 128.24412318 -42 130 C-41.67 130.99 -41.34 131.98 -41 133 C-43.07981613 135.07981613 -47.39436803 134.24079478 -50.25 134.25 C-71.01089036 134.18470776 -88.22443598 126.31193786 -103 112 C-103.83144531 111.20851562 -104.66289063 110.41703125 -105.51953125 109.6015625 C-119.42211874 95.34371298 -125.33384483 75.99580696 -125.38061523 56.39697266 C-125.04687966 39.66323632 -119.02167018 21.64667018 -107 9.625 C-106.01 8.75875 -105.02 7.8925 -104 7 C-103.67 6.34 -103.34 5.68 -103 5 C-102.34 5 -101.68 5 -101 5 C-100.67 4.01 -100.34 3.02 -100 2 C-98.00390625 0.17578125 -98.00390625 0.17578125 -95.5625 -1.6875 C-94.75941406 -2.31011719 -93.95632812 -2.93273438 -93.12890625 -3.57421875 C-91 -5 -91 -5 -89 -5 C-89 -5.66 -89 -6.32 -89 -7 C-59.94364443 -21.07274901 -25.66356915 -21.91131445 0 0 Z " fill="#BB5013" transform="translate(148,42)"/>
<path d="M0 0 C1.98 0.33 3.96 0.66 6 1 C4.375 7.75 4.375 7.75 1 10 C0.01 10 -0.98 10 -2 10 C-1.67 10.66 -1.34 11.32 -1 12 C-0.36766812 16.5166563 -0.78167234 19.19558554 -3.4375 22.8125 C-4.60480453 24.22526576 -5.79426789 25.61988514 -7 27 C-7.99773437 28.19496094 -7.99773437 28.19496094 -9.015625 29.4140625 C-23.79793667 46.5891944 -44.37001798 58.85159797 -67 62 C-92.62013024 63.74875513 -113.58272145 60.18743726 -135.75 47.0625 C-136.44230713 46.66788574 -137.13461426 46.27327148 -137.84790039 45.86669922 C-141.33118291 43.71031913 -143.29107218 42.20725227 -144.453125 38.18359375 C-144.63359375 37.13300781 -144.8140625 36.08242187 -145 35 C-144.01 35.33 -143.02 35.66 -142 36 C-142 36.66 -142 37.32 -142 38 C-141.00806641 38.37511719 -141.00806641 38.37511719 -139.99609375 38.7578125 C-137.70275592 39.70863575 -135.50777315 40.70824887 -133.28515625 41.8046875 C-118.03037748 49.31181099 -104.04457124 53.1751741 -86.9375 53.25 C-85.78572266 53.270625 -84.63394531 53.29125 -83.44726562 53.3125 C-75.23239088 53.34935866 -67.91032317 52.1674859 -60 50 C-59.24871826 49.80647949 -58.49743652 49.61295898 -57.72338867 49.41357422 C-35.36582101 43.50968789 -18.77338749 31.26364924 -6 12 C-3.80787909 8.07702611 -1.82074824 4.10778566 0 0 Z " fill="#C35318" transform="translate(182,137)"/>
<path d="M0 0 C0.86625 0.45375 1.7325 0.9075 2.625 1.375 C5.92193591 3.06975098 5.92193591 3.06975098 9.3125 4 C10.6428125 4.495 10.6428125 4.495 12 5 C12.33 5.99 12.66 6.98 13 8 C12.01 8 11.02 8 10 8 C10 9.32 10 10.64 10 12 C12.31 12.33 14.62 12.66 17 13 C17.48919922 12.29423828 17.48919922 12.29423828 17.98828125 11.57421875 C18.42527344 10.95160156 18.86226562 10.32898438 19.3125 9.6875 C19.74175781 9.07261719 20.17101562 8.45773438 20.61328125 7.82421875 C21.97259928 6.03604546 23.30606501 4.47594871 25 3 C25.66 3 26.32 3 27 3 C26.96744792 5.05078125 26.93489583 7.1015625 26.90234375 9.15234375 C26.79438816 11.01732141 26.79438816 11.01732141 28 12 C29.99958364 12.04080783 32.00045254 12.04254356 34 12 C32.50867052 16.72254335 32.50867052 16.72254335 29.9375 18.125 C28.9784375 18.558125 28.9784375 18.558125 28 19 C27.505 20.485 27.505 20.485 27 22 C27.66 21.71125 28.32 21.4225 29 21.125 C33.76307884 20.92653838 36.50528163 24.00824358 40 27 C32.99890145 32.82179841 23.3972818 32.35922865 14.6875 32.3125 C13.68581787 32.31121094 12.68413574 32.30992187 11.65209961 32.30859375 C4.07943765 32.21062125 -2.75899901 31.33491011 -10 29 C-9.34 28.67 -8.68 28.34 -8 28 C-7.690625 27.38125 -7.38125 26.7625 -7.0625 26.125 C-5.97094732 23.94189465 -4.79288485 22.62989532 -3 21 C-3.845625 20.505 -4.69125 20.01 -5.5625 19.5 C-9.74263084 16.68664225 -13.21940544 13.20716046 -16 9 C-16.4375 5.5 -16.4375 5.5 -16 3 C-14.35 2.67 -12.7 2.34 -11 2 C-11 2.66 -11 3.32 -11 4 C-10.34 4 -9.68 4 -9 4 C-8.34 3.34 -7.68 2.68 -7 2 C-5.00577205 1.63371323 -3.00546689 1.29868656 -1 1 C-0.67 0.67 -0.34 0.34 0 0 Z " fill="#C38D5B" transform="translate(85,139)"/>
<path d="M0 0 C7.69068838 7.23829495 13.36974969 14.53328458 14.28125 25.33203125 C14.47373418 32.7346521 13.67560152 39.0880294 11 46 C10.01 46 9.02 46 8 46 C7.01 47.98 6.02 49.96 5 52 C3.515 51.505 3.515 51.505 2 51 C1.67 49.02 1.34 47.04 1 45 C-0.32 45.66 -1.64 46.32 -3 47 C-3.15855469 46.25878906 -3.31710938 45.51757812 -3.48046875 44.75390625 C-5.12288162 37.34036307 -7.07754022 30.08941058 -9.28588867 22.82641602 C-10.37151317 19.23790597 -11.35060405 15.69434143 -12 12 C-10.6078125 11.1028125 -10.6078125 11.1028125 -9.1875 10.1875 C-6.11550825 8.22220454 -6.11550825 8.22220454 -4.25 6.25 C-3.63125 5.63125 -3.63125 5.63125 -3 5 C-2.34 5 -1.68 5 -1 5 C-0.67 3.35 -0.34 1.7 0 0 Z " fill="#7A4122" transform="translate(136,100)"/>
<path d="M0 0 C2 3 2 3 2 5 C2.53625 5.2475 3.0725 5.495 3.625 5.75 C6.56424252 7.29696975 9.25754408 9.13014369 12 11 C11.35116458 15.71681476 10.07182233 20.06576036 8.5625 24.5625 C6.24733656 31.66620007 4.85327552 38.56249398 4 46 C0.125 45.125 0.125 45.125 -1 44 C-1 45.98 -1 47.96 -1 50 C-2.98 50.495 -2.98 50.495 -5 51 C-5.6496875 49.8553125 -5.6496875 49.8553125 -6.3125 48.6875 C-7.7874169 46.05562387 -7.7874169 46.05562387 -9.5625 44.625 C-14.44387753 39.10692105 -13.62225644 29.4285742 -13.44140625 22.53515625 C-12.89456248 14.32221419 -9.26734309 7.65426113 -3.125 2.25 C-2.09375 1.5075 -1.0625 0.765 0 0 Z " fill="#7A4221" transform="translate(65,101)"/>
<path d="M0 0 C0.99 0 1.98 0 3 0 C3.1546875 0.9590625 3.1546875 0.9590625 3.3125 1.9375 C3.6528125 2.9584375 3.6528125 2.9584375 4 4 C4.99 4.33 5.98 4.66 7 5 C8.38971011 7.77942022 7.58597169 9.07038614 6.6875 12 C6.42324219 12.886875 6.15898438 13.77375 5.88671875 14.6875 C5 17 5 17 3 19 C3 18.34 3 17.68 3 17 C0.03191735 17.70840561 0.03191735 17.70840561 -1.3125 19.5 C-3.68067968 21.60504861 -5.91481553 21.65720173 -9 22 C-7.02 22.33 -5.04 22.66 -3 23 C-3 23.33 -3 23.66 -3 24 C-4.918125 24.2165625 -4.918125 24.2165625 -6.875 24.4375 C-9.25692894 24.70642746 -10.84452691 24.92226346 -13 26 C-13.99 23.03 -14.98 20.06 -16 17 C-18.64 17 -21.28 17 -24 17 C-24.144375 17.61875 -24.28875 18.2375 -24.4375 18.875 C-25 21 -25 21 -26 23 C-26.66 23 -27.32 23 -28 23 C-28.33 23.66 -28.66 24.32 -29 25 C-29 24.34 -29 23.68 -29 23 C-30.65 23.33 -32.3 23.66 -34 24 C-33.34 23.67 -32.68 23.34 -32 23 C-32 22.34 -32 21.68 -32 21 C-33.11375 20.87625 -34.2275 20.7525 -35.375 20.625 C-39 20 -39 20 -41 18 C-41.66 18.66 -42.32 19.32 -43 20 C-45.10306598 16.58251778 -45.40603518 13.97914475 -45 10 C-43.72311154 7.19084539 -42.68900183 5.49893236 -40.1875 3.6875 C-36.23406631 2.44499227 -33.19249264 2.48893173 -29.375 4.125 C-26.50554177 6.39036176 -24.87127725 8.88120458 -23 12 C-22.34 11.67 -21.68 11.34 -21 11 C-20.67 10.01 -20.34 9.02 -20 8 C-19.01 8 -18.02 8 -17 8 C-16.34 6.68 -15.68 5.36 -15 4 C-14.34 4 -13.68 4 -13 4 C-12.57074219 3.49855469 -12.14148438 2.99710937 -11.69921875 2.48046875 C-10 1 -10 1 -7.51953125 0.92578125 C-6.62621094 1.05339844 -5.73289063 1.18101563 -4.8125 1.3125 C-3.91144531 1.43238281 -3.01039062 1.55226563 -2.08203125 1.67578125 C-1.39496094 1.78277344 -0.70789063 1.88976562 0 2 C0 1.34 0 0.68 0 0 Z " fill="#C99F6F" transform="translate(120,70)"/>
<path d="M0 0 C5.63779026 1.23089221 11.18826141 1.8274254 16.9375 2.25 C16.9375 3.57 16.9375 4.89 16.9375 6.25 C17.5975 6.58 18.2575 6.91 18.9375 7.25 C18.9375 6.59 18.9375 5.93 18.9375 5.25 C22.25 3.625 22.25 3.625 25.9375 2.25 C26.9275 2.91 27.9175 3.57 28.9375 4.25 C26.3125 9.125 26.3125 9.125 22.9375 10.25 C10.81881316 11.11957309 -1.43223406 11.0002585 -13.0625 7.25 C-12.4025 6.92 -11.7425 6.59 -11.0625 6.25 C-10.77375 5.63125 -10.485 5.0125 -10.1875 4.375 C-7.70995542 -0.30480643 -4.99046108 -1.20535437 0 0 Z " fill="#EEA32C" transform="translate(88.0625,160.75)"/>
<path d="M0 0 C2 0 2 0 3.625 1.5 C4.07875 1.995 4.5325 2.49 5 3 C5.99 2.01 6.98 1.02 8 0 C8.22174933 1.45635371 8.42698698 2.91522956 8.625 4.375 C8.74101563 5.18710938 8.85703125 5.99921875 8.9765625 6.8359375 C8.98429687 7.55007812 8.99203125 8.26421875 9 9 C8.34 9.66 7.68 10.32 7 11 C7.33 11.66 7.66 12.32 8 13 C11.60992379 12.34414811 11.60992379 12.34414811 15 11 C15.66 12.32 16.32 13.64 17 15 C17.99 14.67 18.98 14.34 20 14 C19.67 13.01 19.34 12.02 19 11 C19.66 11 20.32 11 21 11 C21.99 12.485 21.99 12.485 23 14 C25.96175123 13.38722388 27.38058783 12.74627478 30 11 C28.55107263 15.18579017 26.51228683 18.37131795 23.8125 21.875 C23.07644531 22.86242187 22.34039062 23.84984375 21.58203125 24.8671875 C19 27 19 27 15.19921875 26.8203125 C14.14347656 26.54960937 13.08773437 26.27890625 12 26 C10.7922442 22.37673261 11.45688872 21.35853631 13 18 C12.113125 17.71125 11.22625 17.4225 10.3125 17.125 C7 16 7 16 4.3125 14.75 C3.549375 14.5025 2.78625 14.255 2 14 C1.01 14.66 0.02 15.32 -1 16 C-2.32 16 -3.64 16 -5 16 C-5.33 14.68 -5.66 13.36 -6 12 C-3.525 12.495 -3.525 12.495 -1 13 C-0.34 12.01 0.32 11.02 1 10 C1.66 10 2.32 10 3 10 C3 5.63615522 2.54861745 5.18577181 0 2 C0 1.34 0 0.68 0 0 Z " fill="#BF8957" transform="translate(83,126)"/>
<path d="M0 0 C0.44988281 0.36351562 0.89976563 0.72703125 1.36328125 1.1015625 C6.90273999 5.43099919 12.76634203 8.76858171 19 12 C18.01 12.33 17.02 12.66 16 13 C16 13.66 16 14.32 16 15 C16.99 15.33 17.98 15.66 19 16 C13.06682122 18.10396411 7.17222879 19.75971762 1 21 C1.33 20.01 1.66 19.02 2 18 C0.02 16.68 -1.96 15.36 -4 14 C-3.34 12.68 -2.68 11.36 -2 10 C-2.66 9.34 -3.32 8.68 -4 8 C-4.125 5.375 -4.125 5.375 -4 3 C-2.68 3.33 -1.36 3.66 0 4 C0 2.68 0 1.36 0 0 Z " fill="#773F21" transform="translate(65,46)"/>
<path d="M0 0 C0.66 0 1.32 0 2 0 C1.67 1.98 1.34 3.96 1 6 C2.65 5.34 4.3 4.68 6 4 C4.24015748 13.97244094 4.24015748 13.97244094 0.8125 16.8125 C-6.41733878 19.86509859 -12.58726233 18.62195526 -20 17 C-19.01 16.67 -18.02 16.34 -17 16 C-16.67 15.34 -16.34 14.68 -16 14 C-15.34 13.67 -14.68 13.34 -14 13 C-14.99 12.34 -15.98 11.68 -17 11 C-16.13375 10.7525 -15.2675 10.505 -14.375 10.25 C-9.46133305 8.43012335 -5.94819464 5.94819464 -2.25 2.25 C-1.5075 1.5075 -0.765 0.765 0 0 Z " fill="#753B1D" transform="translate(134,46)"/>
<path d="M0 0 C2.60018816 3.90028225 2.15085514 7.47434569 2 12 C3.32 12.33 4.64 12.66 6 13 C6 13.99 6 14.98 6 16 C4.68 16 3.36 16 2 16 C1.67 16.66 1.34 17.32 1 18 C0.608125 17.484375 0.21625 16.96875 -0.1875 16.4375 C-1.94444163 14.70142979 -1.94444163 14.70142979 -4.5 15.25 C-6.34276141 15.80282842 -8.17482878 16.39160959 -10 17 C-10 16.34 -10 15.68 -10 15 C-12.475 14.01 -12.475 14.01 -15 13 C-15 12.01 -15 11.02 -15 10 C-14.01 9.67 -13.02 9.34 -12 9 C-12 8.34 -12 7.68 -12 7 C-11.34 7 -10.68 7 -10 7 C-9.34 5.02 -8.68 3.04 -8 1 C-5.36 0.67 -2.72 0.34 0 0 Z " fill="#D19C68" transform="translate(104,86)"/>
<path d="M0 0 C0.99 0.33 1.98 0.66 3 1 C3.10957031 2.12277344 3.21914062 3.24554688 3.33203125 4.40234375 C4.1558091 12.33718458 5.15377462 19.49631492 8 27 C8 27.99 8 28.98 8 30 C6.68 30 5.36 30 4 30 C3.34 32.64 2.68 35.28 2 38 C-2.47785461 31.28321808 -5.50372766 21.05964252 -5 13 C-3.02 13.99 -3.02 13.99 -1 15 C-0.67 10.05 -0.34 5.1 0 0 Z " fill="#DC6D20" transform="translate(11,99)"/>
<path d="M0 0 C0.66 0 1.32 0 2 0 C2.433125 0.9075 2.86625 1.815 3.3125 2.75 C4.84980836 5.92774872 4.84980836 5.92774872 6.6875 8.25 C8 10 8 10 8 12 C9.32 12.66 10.64 13.32 12 14 C12 16 12 18 12 20 C13.32 20 14.64 20 16 20 C16 20.99 16 21.98 16 23 C14.68 22.67 13.36 22.34 12 22 C11.731875 22.639375 11.46375 23.27875 11.1875 23.9375 C10 26 10 26 7 27 C7 26.34 7 25.68 7 25 C6.34 25 5.68 25 5 25 C5 24.34 5 23.68 5 23 C4.34 23 3.68 23 3 23 C1.67578125 21.609375 1.67578125 21.609375 0.3125 19.75 C-0.14511719 19.14671875 -0.60273438 18.5434375 -1.07421875 17.921875 C-2 16 -2 16 -1.64453125 13.765625 C-1.32548828 12.89164063 -1.32548828 12.89164063 -1 12 C-0.34 12.33 0.32 12.66 1 13 C0.67 8.71 0.34 4.42 0 0 Z " fill="#DD6F1D" transform="translate(23,139)"/>
<path d="M0 0 C-0.95118577 2.38042865 -1.51611871 3.72243293 -3.77734375 5.01953125 C-4.49019531 5.28121094 -5.20304687 5.54289062 -5.9375 5.8125 C-12.81643083 8.62204711 -19.92790863 12.47444351 -25 18 C-25.99 17.67 -26.98 17.34 -28 17 C-30.29105272 18.43512912 -30.29105272 18.43512912 -32.5625 20.4375 C-36.80821918 24 -36.80821918 24 -39 24 C-37.50493025 20.41183261 -35.45521549 18.3149694 -32.5625 15.75 C-31.78003906 15.04359375 -30.99757813 14.3371875 -30.19140625 13.609375 C-28 12 -28 12 -25 12 C-25.33 10.68 -25.66 9.36 -26 8 C-24.68 8 -23.36 8 -22 8 C-21.67 7.34 -21.34 6.68 -21 6 C-20.67 6.66 -20.34 7.32 -20 8 C-15.04640245 6.11726735 -10.43610489 3.68864319 -5.7421875 1.2421875 C-3 0 -3 0 0 0 Z M-23 1 C-22.01 1.33 -21.02 1.66 -20 2 C-19.01 1.67 -18.02 1.34 -17 1 C-17 2.98 -17 4.96 -17 7 C-19.97 6.01 -22.94 5.02 -26 4 C-25.01 3.01 -24.02 2.02 -23 1 Z " fill="#DE6E1A" transform="translate(81,16)"/>
<path d="M0 0 C1.65 0 3.3 0 5 0 C5.33 1.32 5.66 2.64 6 4 C7.32 3.34 8.64 2.68 10 2 C6.85730481 11.00168974 -1.13386483 17.92454764 -9 23 C-9.66 23 -10.32 23 -11 23 C-11 20.36 -11 17.72 -11 15 C-10.01 15 -9.02 15 -8 15 C-7.01 12.69 -6.02 10.38 -5 8 C-4.34 8.66 -3.68 9.32 -3 10 C-2.01 6.7 -1.02 3.4 0 0 Z " fill="#F9F1CF" transform="translate(149,136)"/>
<path d="M0 0 C-0.33 1.98 -0.66 3.96 -1 6 C0.65 5.67 2.3 5.34 4 5 C3.52 11.36 3.52 11.36 1.375 14 C-2.04776185 15.44116288 -4.44605372 14.85557966 -8 14 C-10.41486943 11.58513057 -10.2961925 10.87292211 -10.3125 7.5625 C-10.32925781 6.78003906 -10.34601563 5.99757813 -10.36328125 5.19140625 C-9.38084284 -0.73491577 -5.13421166 -0.29061575 0 0 Z " fill="#542D1B" transform="translate(89,76)"/>
<path d="M0 0 C-0.33 1.98 -0.66 3.96 -1 6 C0.65 5.67 2.3 5.34 4 5 C3.40140845 11.34507042 3.40140845 11.34507042 1.8125 13.9375 C-0.95588471 15.56034621 -2.85545467 15.44922076 -6 15 C-8.375 13.4375 -8.375 13.4375 -10 11 C-10.56783945 7.02512383 -10.62340519 4.93510779 -8.375 1.5625 C-5.397402 -0.39644605 -3.49644963 -0.31785906 0 0 Z " fill="#5C3622" transform="translate(117,76)"/>
<path d="M0 0 C2.47555146 1.92542891 3.36131106 2.76077355 4.25 5.75 C5.02628032 12.73652291 5.02628032 12.73652291 2 16.6875 C-0.43045561 18.51034171 -1.78285617 19.42031735 -4.75 19.75 C-4.09 19.42 -3.43 19.09 -2.75 18.75 C-2.75 17.76 -2.75 16.77 -2.75 15.75 C-2.110625 15.13125 -1.47125 14.5125 -0.8125 13.875 C1.52990815 11.46160978 1.88515416 10.0336126 2.25 6.75 C0.6 7.41 -1.05 8.07 -2.75 8.75 C-3.375 6.9375 -3.375 6.9375 -3.75 4.75 C-3.09 3.76 -2.43 2.77 -1.75 1.75 C-6.76535052 2.07960216 -6.76535052 2.07960216 -10.75 4.75 C-11.43177998 7.40719837 -11.43177998 7.40719837 -11.875 10.375 C-12.04257813 11.37789062 -12.21015625 12.38078125 -12.3828125 13.4140625 C-12.50398438 14.18492188 -12.62515625 14.95578125 -12.75 15.75 C-14.78640906 13.24489362 -15.70710726 12.08599313 -16.125 8.8125 C-15.69784142 5.32403822 -14.90059932 3.51505626 -12.75 0.75 C-8.70831417 -2.17673801 -4.4400365 -2.01819841 0 0 Z " fill="#F6EDE1" transform="translate(90.75,74.25)"/>
<path d="M0 0 C0.99 0 1.98 0 3 0 C3.33773437 0.92683594 3.67546875 1.85367188 4.0234375 2.80859375 C4.46945313 4.00613281 4.91546875 5.20367187 5.375 6.4375 C6.03628906 8.22994141 6.03628906 8.22994141 6.7109375 10.05859375 C7.67085236 13.10196898 7.67085236 13.10196898 10 14 C9.67 18.29 9.34 22.58 9 27 C9.66 27 10.32 27 11 27 C11 34.59 11 42.18 11 50 C10.01 50 9.02 50 8 50 C7.02667191 45.50204444 7.00945652 41.37647459 7.16650391 36.81689453 C7.50925524 25.7666717 5.86177998 17.32148468 2 7 C1.289853 4.67639903 0.64143756 2.34394472 0 0 Z " fill="#CA5313" transform="translate(184,62)"/>
<path d="M0 0 C0 0.99 0 1.98 0 3 C-9.9 3 -19.8 3 -30 3 C-30 3.66 -30 4.32 -30 5 C-32.97 5 -35.94 5 -39 5 C-39 4.01 -39 3.02 -39 2 C-27.30079961 -2.74291908 -12.25839512 -1.96134322 0 0 Z " fill="#C24F11" transform="translate(115,26)"/>
<path d="M0 0 C2.22014714 4.00004005 2.39867301 7.69224721 2.5625 12.1875 C2.3322347 16.97680804 2.3322347 16.97680804 4 21 C3.94962418 27.34735393 3.01739944 34.33915234 0 40 C-1.485 40.495 -1.485 40.495 -3 41 C-4.20882096 43.00016466 -4.20882096 43.00016466 -5 45 C-5.66 44.34 -6.32 43.68 -7 43 C-6.47599609 41.44539063 -6.47599609 41.44539063 -5.94140625 39.859375 C-5.48169068 38.48961023 -5.0220597 37.11981707 -4.5625 35.75 C-4.33240234 35.06808594 -4.10230469 34.38617188 -3.86523438 33.68359375 C-2.09557848 28.40027325 -0.89099558 23.92959568 -0.68359375 18.359375 C-0.64169922 17.28945312 -0.59980469 16.21953125 -0.55664062 15.1171875 C-0.51732422 14.00601563 -0.47800781 12.89484375 -0.4375 11.75 C-0.39431641 10.62335938 -0.35113281 9.49671875 -0.30664062 8.3359375 C-0.20067985 5.55741046 -0.09860858 2.77879609 0 0 Z " fill="#B7541A" transform="translate(170,88)"/>
<path d="M0 0 C1.0625 1.875 1.0625 1.875 2 4 C1.67 4.66 1.34 5.32 1 6 C0.34 5.67 -0.32 5.34 -1 5 C-1 6.32 -1 7.64 -1 9 C-2.875 10.625 -2.875 10.625 -5 12 C-5.66 12.66 -6.32 13.32 -7 14 C-6.67 14.99 -6.34 15.98 -6 17 C-6.721875 16.731875 -7.44375 16.46375 -8.1875 16.1875 C-9.5796875 16.0946875 -9.5796875 16.0946875 -11 16 C-13.56249975 18.31232422 -13.56249975 18.31232422 -16 21 C-18.8125 22.3125 -18.8125 22.3125 -21 23 C-21 23.66 -21 24.32 -21 25 C-20.34 25 -19.68 25 -19 25 C-19 26.32 -19 27.64 -19 29 C-21.64 29.66 -24.28 30.32 -27 31 C-27 30.34 -27 29.68 -27 29 C-27.99 29.66 -28.98 30.32 -30 31 C-30.99 29.68 -31.98 28.36 -33 27 C-32.14019531 26.63390625 -31.28039062 26.2678125 -30.39453125 25.890625 C-17.66346133 20.05960061 -7.85047602 11.66356437 0 0 Z " fill="#C64F10" transform="translate(172,154)"/>
<path d="M0 0 C0.33 1.32 0.66 2.64 1 4 C-0.98 4.99 -0.98 4.99 -3 6 C-3 8.97 -3 11.94 -3 15 C-3.70125 14.690625 -4.4025 14.38125 -5.125 14.0625 C-10.8612659 11.93740671 -10.8612659 11.93740671 -16.6875 13.0625 C-19.22525591 14.91772938 -19.22525591 14.91772938 -20.5 18.125 C-22 21 -22 21 -24.6875 21.875 C-25.450625 21.91625 -26.21375 21.9575 -27 22 C-21.68985056 14.17013259 -10.44193092 0 0 0 Z " fill="#FBF0C7" transform="translate(69,37)"/>
<path d="M0 0 C3.3 0 6.6 0 10 0 C10 1.32 10 2.64 10 4 C10.66 4.33 11.32 4.66 12 5 C12 4.34 12 3.68 12 3 C15.3125 1.375 15.3125 1.375 19 0 C19.99 0.66 20.98 1.32 22 2 C19.375 6.875 19.375 6.875 16 8 C13.26134713 8.07051114 10.54972412 8.09357765 7.8125 8.0625 C7.06291016 8.05798828 6.31332031 8.05347656 5.54101562 8.04882812 C3.69397617 8.03706354 1.84697787 8.01912865 0 8 C0.185625 7.05125 0.37125 6.1025 0.5625 5.125 C1.28686632 2.10131207 1.28686632 2.10131207 0 0 Z " fill="#F4A82A" transform="translate(95,163)"/>
<path d="M0 0 C1.02222656 0.09990234 2.04445313 0.19980469 3.09765625 0.30273438 C5.60754773 0.54903214 8.11649887 0.80248409 10.625 1.0625 C10.955 2.0525 11.285 3.0425 11.625 4.0625 C9.75224428 5.93525572 7.08314489 5.22877089 4.59155273 5.25268555 C-10.08123413 5.23671003 -10.08123413 5.23671003 -16.375 3.0625 C-16.705 2.0725 -17.035 1.0825 -17.375 0.0625 C-11.49092292 -1.37337547 -5.94314592 -0.61732032 0 0 Z " fill="#B84E10" transform="translate(95.375,170.9375)"/>
<path d="M0 0 C2.43119623 1.87015094 3.64069173 3.28138345 5 6 C5.16796875 7.875 5.16796875 7.875 5.1875 10 C5.20167969 10.70125 5.21585938 11.4025 5.23046875 12.125 C5 14 5 14 3 16 C3 15.34 3 14.68 3 14 C2.01 13.67 1.02 13.34 0 13 C0.33 11.35 0.66 9.7 1 8 C-0.65 8.66 -2.3 9.32 -4 10 C-4.625 8.1875 -4.625 8.1875 -5 6 C-4.34 5.01 -3.68 4.02 -3 3 C-8.61735276 3.90428836 -8.61735276 3.90428836 -13 7.125 C-13.33 7.74375 -13.66 8.3625 -14 9 C-13.72253508 5.67042093 -13.18903896 4.21195277 -10.9375 1.6875 C-6.83485682 -0.66933757 -4.70041265 -0.5968778 0 0 Z " fill="#F7F0E7" transform="translate(120,73)"/>
<path d="M0 0 C2 0 2 0 3.625 1.5 C4.07875 1.995 4.5325 2.49 5 3 C5.99 2.01 6.98 1.02 8 0 C8.22174933 1.45635371 8.42698698 2.91522956 8.625 4.375 C8.74101563 5.18710938 8.85703125 5.99921875 8.9765625 6.8359375 C8.98429687 7.55007812 8.99203125 8.26421875 9 9 C8.34 9.66 7.68 10.32 7 11 C7.33 11.66 7.66 12.32 8 13 C11.60992379 12.34414811 11.60992379 12.34414811 15 11 C14.3125 13.4375 14.3125 13.4375 13 16 C10.75 17 10.75 17 8 17 C4.6875 15.5625 4.6875 15.5625 2 14 C1.01 14.66 0.02 15.32 -1 16 C-2.32 16 -3.64 16 -5 16 C-5.33 14.68 -5.66 13.36 -6 12 C-3.525 12.495 -3.525 12.495 -1 13 C-0.34 12.01 0.32 11.02 1 10 C1.66 10 2.32 10 3 10 C3 5.63615522 2.54861745 5.18577181 0 2 C0 1.34 0 0.68 0 0 Z " fill="#B6804F" transform="translate(83,126)"/>
<path d="M0 0 C0.99 0 1.98 0 3 0 C2.06803397 4.10053809 0.3663477 7.75363746 -1.375 11.5625 C-3.97020605 17.30987112 -6.00322406 22.85830961 -7.296875 29.05859375 C-7.52890625 29.69925781 -7.7609375 30.33992188 -8 31 C-8.99 31.33 -9.98 31.66 -11 32 C-10.40287982 20.45567657 -6.06735224 9.75940062 0 0 Z " fill="#CA570F" transform="translate(28,52)"/>
<path d="M0 0 C3.11647321 2.54984172 3.84188155 5.21681307 5 9 C5.61680413 11.31984841 5.61680413 11.31984841 7 13 C10.05908413 13.81584568 10.05908413 13.81584568 13 14 C13 14.33 13 14.66 13 15 C11.72125 15.144375 10.4425 15.28875 9.125 15.4375 C6.74307106 15.70642746 5.15547309 15.92226346 3 17 C1.515 12.545 1.515 12.545 0 8 C-2.64 8 -5.28 8 -8 8 C-8.144375 8.61875 -8.28875 9.2375 -8.4375 9.875 C-9 12 -9 12 -10 14 C-10.66 14 -11.32 14 -12 14 C-12.33 14.66 -12.66 15.32 -13 16 C-13.33 15.01 -13.66 14.02 -14 13 C-13.0409375 12.2265625 -13.0409375 12.2265625 -12.0625 11.4375 C-9.44208319 8.34064377 -9.30610183 5.97932377 -9 2 C-8.01 3.485 -8.01 3.485 -7 5 C-4.43717258 5.72965366 -4.43717258 5.72965366 -2 6 C-1.34 4.02 -0.68 2.04 0 0 Z " fill="#D0A77F" transform="translate(104,79)"/>
<path d="M0 0 C2.64 0.99 5.28 1.98 8 3 C8.33 2.34 8.66 1.68 9 1 C10.32 1.99 11.64 2.98 13 4 C12.01 4 11.02 4 10 4 C10 4.66 10 5.32 10 6 C10.99 6.33 11.98 6.66 13 7 C7.06682122 9.10396411 1.17222879 10.75971762 -5 12 C-4.67 10.68 -4.34 9.36 -4 8 C-2.68 7.67 -1.36 7.34 0 7 C0 6.01 0 5.02 0 4 C-0.66 3.34 -1.32 2.68 -2 2 C-1.34 2 -0.68 2 0 2 C0 1.34 0 0.68 0 0 Z " fill="#7E401F" transform="translate(71,55)"/>
<path d="M0 0 C0.66 0 1.32 0 2 0 C1.67 1.98 1.34 3.96 1 6 C2.65 5.34 4.3 4.68 6 4 C5.625 6.4375 5.625 6.4375 5 9 C4.01 9.495 4.01 9.495 3 10 C2.34 9.67 1.68 9.34 1 9 C0.67 10.32 0.34 11.64 0 13 C-0.99 12.67 -1.98 12.34 -3 12 C-3 11.34 -3 10.68 -3 10 C-3.94875 10.20625 -4.8975 10.4125 -5.875 10.625 C-6.90625 10.74875 -7.9375 10.8725 -9 11 C-9.66 10.34 -10.32 9.68 -11 9 C-9.6696875 8.1646875 -9.6696875 8.1646875 -8.3125 7.3125 C-5.94901127 5.75360318 -4.29875982 4.29875982 -2.25 2.25 C-1.5075 1.5075 -0.765 0.765 0 0 Z " fill="#794729" transform="translate(134,46)"/>
<path d="M0 0 C1.921875 1.19140625 1.921875 1.19140625 3.75 2.5625 C4.67039062 3.24505859 4.67039062 3.24505859 5.609375 3.94140625 C6.06828125 4.29074219 6.5271875 4.64007813 7 5 C3.57653445 8.14958831 0.55737263 8.56179109 -4 9 C-3.34 7.35 -2.68 5.7 -2 4 C-5.76624671 2.74458443 -7.37188934 3.62938042 -11 5 C-11 5.66 -11 6.32 -11 7 C-11.99 6.67 -12.98 6.34 -14 6 C-14 5.34 -14 4.68 -14 4 C-12.42466914 3.13116294 -10.83935491 2.28040932 -9.25 1.4375 C-8.36828125 0.96183594 -7.4865625 0.48617187 -6.578125 -0.00390625 C-3.70986493 -1.11209764 -2.78253811 -1.18599985 0 0 Z " fill="#F1AB38" transform="translate(118,161)"/>
<path d="M0 0 C0.99 0.33 1.98 0.66 3 1 C3.16435547 2.68416016 3.16435547 2.68416016 3.33203125 4.40234375 C4.1558091 12.33718458 5.15377462 19.49631492 8 27 C8 27.99 8 28.98 8 30 C6.68 29.67 5.36 29.34 4 29 C0.85061178 18.96132505 -0.58621957 10.56823621 0 0 Z " fill="#CB570F" transform="translate(11,99)"/>
<path d="M0 0 C2.97 0.495 2.97 0.495 6 1 C4.375 7.75 4.375 7.75 1 10 C0.01 10 -0.98 10 -2 10 C-1.67 10.66 -1.34 11.32 -1 12 C-0.960008 13.99960012 -0.95653201 16.00047242 -1 18 C-2.98 17.01 -4.96 16.02 -7 15 C-3.535 7.575 -3.535 7.575 0 0 Z " fill="#CA5112" transform="translate(182,137)"/>
<path d="M0 0 C0.99 0 1.98 0 3 0 C3 0.66 3 1.32 3 2 C-8.29469923 8.49918447 -19.92986064 11.68790207 -33 11 C-33 10.34 -33 9.68 -33 9 C-31.86304687 8.84144531 -30.72609375 8.68289062 -29.5546875 8.51953125 C-13.74380594 6.82546605 -13.74380594 6.82546605 0 0 Z " fill="#C9540D" transform="translate(134,171)"/>
<path d="M0 0 C0.33 0 0.66 0 1 0 C1.21914063 1.01578125 1.43828125 2.0315625 1.6640625 3.078125 C3.53189717 11.31426217 5.76202625 18.34219677 9.92578125 25.7421875 C10.28027344 26.48726562 10.63476562 27.23234375 11 28 C10.67 28.66 10.34 29.32 10 30 C8.68 28.02 7.36 26.04 6 24 C5.01 24.33 4.02 24.66 3 25 C-1.03356644 19.19166432 0.091291 13.76605015 1 7 C0.34 7 -0.32 7 -1 7 C-0.67 4.69 -0.34 2.38 0 0 Z " fill="#BA521A" transform="translate(28,110)"/>
<path d="M0 0 C3.0625 0.1875 3.0625 0.1875 5.0625 2.1875 C4.70950993 5.62915321 4.01668308 7.25622538 2.0625 10.1875 C-0.4375 10.5 -0.4375 10.5 -2.9375 10.1875 C-3.5975 9.5275 -4.2575 8.8675 -4.9375 8.1875 C-4.24305556 0.27083333 -4.24305556 0.27083333 0 0 Z " fill="#F7A517" transform="translate(100.9375,87.8125)"/>
<path d="M0 0 C6.52679001 0.38786252 12.02283898 1.35116178 18 4 C19.23556641 4.53753906 19.23556641 4.53753906 20.49609375 5.0859375 C22.67101315 6.04276632 24.8381183 7.01414191 27 8 C27 8.66 27 9.32 27 10 C27.66 10 28.32 10 29 10 C29 10.66 29 11.32 29 12 C27.37276701 11.54965877 25.74826336 11.08944646 24.125 10.625 C23.22007812 10.36976562 22.31515625 10.11453125 21.3828125 9.8515625 C19 9 19 9 17 7 C15.17548792 6.26903744 15.17548792 6.26903744 13.0859375 5.7109375 C12.32539062 5.49179687 11.56484375 5.27265625 10.78125 5.046875 C9.9871875 4.82515625 9.193125 4.6034375 8.375 4.375 C7.57320313 4.14554688 6.77140625 3.91609375 5.9453125 3.6796875 C3.96520363 3.11394211 1.98280967 2.55620571 0 2 C0 1.34 0 0.68 0 0 Z " fill="#CB570D" transform="translate(114,14)"/>
<path d="M0 0 C11.68459143 -0.42981467 22.5311063 0.76993734 34 3 C34 3.33 34 3.66 34 4 C30.23487702 4.89818596 26.90422547 5.0571181 23.04296875 4.87890625 C21.37524414 4.80639648 21.37524414 4.80639648 19.67382812 4.73242188 C18.52333984 4.67634766 17.37285156 4.62027344 16.1875 4.5625 C15.01767578 4.51029297 13.84785156 4.45808594 12.64257812 4.40429688 C9.76142726 4.27493908 6.88065085 4.13998535 4 4 C4 3.67 4 3.34 4 3 C6.64 2.67 9.28 2.34 12 2 C8.04 1.67 4.08 1.34 0 1 C0 0.67 0 0.34 0 0 Z " fill="#C76E3B" transform="translate(92,5)"/>
<path d="M0 0 C0.89783203 -0.01224609 1.79566406 -0.02449219 2.72070312 -0.03710938 C3.58759766 -0.03904297 4.45449219 -0.04097656 5.34765625 -0.04296875 C6.13277588 -0.04707764 6.91789551 -0.05118652 7.72680664 -0.05541992 C10.18225115 0.21439425 11.80972319 0.96335365 13.9375 2.1875 C10.2504484 2.5259185 6.56279741 2.85731608 2.875 3.1875 C1.83666016 3.28289063 0.79832031 3.37828125 -0.27148438 3.4765625 C-5.55827606 3.94649954 -10.75484381 4.30795745 -16.0625 4.1875 C-15.7325 3.1975 -15.4025 2.2075 -15.0625 1.1875 C-10.07961825 -0.11283449 -5.11154042 0.00368532 0 0 Z " fill="#B8551B" transform="translate(94.0625,5.8125)"/>
<path d="M0 0 C0.66 0 1.32 0 2 0 C2 0.99 2 1.98 2 3 C3.98 3.33 5.96 3.66 8 4 C8 4.66 8 5.32 8 6 C8.99 6 9.98 6 11 6 C11 6.66 11 7.32 11 8 C9.70255859 7.566875 9.70255859 7.566875 8.37890625 7.125 C-4.39241436 3.36027089 -16.77076337 3.58856441 -30 4 C-30 3.34 -30 2.68 -30 2 C-20.1 2 -10.2 2 0 2 C0 1.34 0 0.68 0 0 Z " fill="#AC4E1B" transform="translate(115,27)"/>
<path d="M0 0 C2.74409005 2.66338152 5.25662817 5.3107264 7.625 8.3125 C12.40471268 14.00322842 18.86590919 17.91060613 25 22 C24.67 22.66 24.34 23.32 24 24 C20.66135596 23.42437172 19.30897368 22.40936384 17 20 C16.01 19.67 15.02 19.34 14 19 C14 18.01 14 17.02 14 16 C13.113125 15.79375 12.22625 15.5875 11.3125 15.375 C5.3209908 12.88795844 2.49815799 7.78520798 0 2 C0 1.34 0 0.68 0 0 Z " fill="#AF5620" transform="translate(39,140)"/>
<path d="M0 0 C5.19228855 0.57229633 9.3103703 3.0982161 13.8125 5.5625 C14.60076172 5.98724609 15.38902344 6.41199219 16.20117188 6.84960938 C18.1373378 7.89396554 20.07005367 8.9442077 22 10 C22 10.66 22 11.32 22 12 C17.10518149 11.43694572 13.10720365 9.88918023 8.75 7.6875 C8.12609375 7.39166016 7.5021875 7.09582031 6.859375 6.79101562 C4.10412825 5.41636127 2.25314858 4.39710945 0.578125 1.76953125 C0.38734375 1.18558594 0.1965625 0.60164062 0 0 Z " fill="#C9570D" transform="translate(52,171)"/>
<path d="M0 0 C0.99 0.33 1.98 0.66 3 1 C2.08995371 6.46027776 0.07359599 11.45262477 -1.84375 16.625 C-3.75617774 22.20722151 -4.24377529 27.46573026 -4.5625 33.3125 C-4.60568359 34.05306641 -4.64886719 34.79363281 -4.69335938 35.55664062 C-4.79870432 37.37091464 -4.89978316 39.1854355 -5 41 C-5.33 41 -5.66 41 -6 41 C-6.05841253 37.45840343 -6.09373452 33.91693207 -6.125 30.375 C-6.14175781 29.37597656 -6.15851562 28.37695312 -6.17578125 27.34765625 C-6.21933614 20.77086808 -5.5644121 15.94109474 -2.4375 10.0625 C-0.84544301 6.67072642 -0.37102924 3.71029243 0 0 Z " fill="#AE531B" transform="translate(33,65)"/>
<path d="M0 0 C1.8125 0.125 1.8125 0.125 4 1 C7.66205361 6.15400138 7.68461969 11.88814707 8 18 C7.34 18.33 6.68 18.66 6 19 C5.15841464 17.73461631 4.32700252 16.46246221 3.5 15.1875 C2.80390625 14.12595703 2.80390625 14.12595703 2.09375 13.04296875 C1 11 1 11 1 8 C1.99 7.67 2.98 7.34 4 7 C3.01 5.824375 3.01 5.824375 2 4.625 C0 2 0 2 0 0 Z " fill="#D66418" transform="translate(173,43)"/>
<path d="M0 0 C6.15234375 0.5859375 6.15234375 0.5859375 8 1 C8.33 1.66 8.66 2.32 9 3 C12.3 2.67 15.6 2.34 19 2 C19 2.66 19 3.32 19 4 C18.01 4 17.02 4 16 4 C16 4.66 16 5.32 16 6 C16.66 6 17.32 6 18 6 C18 6.66 18 7.32 18 8 C20.475 8.495 20.475 8.495 23 9 C20.04000054 10.26224416 18.84953932 9.95068333 15.72265625 8.92578125 C14.51480469 8.39339844 13.30695312 7.86101562 12.0625 7.3125 C10.85722656 6.79300781 9.65195312 6.27351562 8.41015625 5.73828125 C5.21362294 4.10889142 2.696598 2.34864987 0 0 Z " fill="#BA5828" transform="translate(50,185)"/>
<path d="M0 0 C0.391875 0.495 0.78375 0.99 1.1875 1.5 C2.93681178 3.21045864 2.93681178 3.21045864 5.5 3.375 C8.37824511 2.94326323 9.22510401 2.24197388 11 0 C11 1.32 11 2.64 11 4 C12.32 4.33 13.64 4.66 15 5 C15 5.99 15 6.98 15 8 C13.68 8 12.36 8 11 8 C10.67 8.66 10.34 9.32 10 10 C9.5875 9.505 9.175 9.01 8.75 8.5 C6.87797662 6.56613908 6.87797662 6.56613908 3 7 C2.67 6.01 2.34 5.02 2 4 C1.34 4 0.68 4 0 4 C0 2.68 0 1.36 0 0 Z " fill="#C9965E" transform="translate(95,94)"/>
<path d="M0 0 C-0.97112247 2.45847319 -1.55895712 3.74470755 -3.8828125 5.08984375 C-4.62273437 5.36957031 -5.36265625 5.64929688 -6.125 5.9375 C-10.20080085 7.59020762 -13.72356197 9.60044964 -17.37109375 12.046875 C-19 13 -19 13 -21 13 C-19.53823655 9.24001957 -17.71674575 7.9072419 -14.25 5.9375 C-13.35667969 5.42832031 -12.46335937 4.91914063 -11.54296875 4.39453125 C-3.52941176 0 -3.52941176 0 0 0 Z " fill="#CC5809" transform="translate(81,16)"/>
<path d="M0 0 C0.66 0.33 1.32 0.66 2 1 C1.67 2.65 1.34 4.3 1 6 C3.97 6.495 3.97 6.495 7 7 C7 6.34 7 5.68 7 5 C10.465 4.505 10.465 4.505 14 4 C11.1237651 6.3223428 8.36219578 7.86565842 4.9375 9.25 C4.08027344 9.60578125 3.22304687 9.9615625 2.33984375 10.328125 C0 11 0 11 -3 10 C-3.99 9.34 -4.98 8.68 -6 8 C-5.01 7.67 -4.02 7.34 -3 7 C-2.16666667 5.08333333 -2.16666667 5.08333333 -2 3 C-2.33 2.34 -2.66 1.68 -3 1 C-2.01 0.67 -1.02 0.34 0 0 Z " fill="#C2581F" transform="translate(131,184)"/>
<path d="M0 0 C5.43533241 0.49160331 9.2029005 1.87793327 13.9375 4.5625 C15.08089844 5.20316406 16.22429687 5.84382813 17.40234375 6.50390625 C18.25957031 6.99761719 19.11679688 7.49132813 20 8 C20 8.99 20 9.98 20 11 C15.68405294 10.0531189 12.17909206 8.14111514 8.3125 6.0625 C7.62349609 5.70220703 6.93449219 5.34191406 6.22460938 4.97070312 C1.12356954 2.24713908 1.12356954 2.24713908 0 0 Z " fill="#CC560D" transform="translate(137,29)"/>
<path d="M0 0 C3.3 0 6.6 0 10 0 C9.814375 0.94875 9.62875 1.8975 9.4375 2.875 C8.71313368 5.89868793 8.71313368 5.89868793 10 8 C6.7 8 3.4 8 0 8 C0.185625 7.05125 0.37125 6.1025 0.5625 5.125 C1.28686632 2.10131207 1.28686632 2.10131207 0 0 Z " fill="#FEF0BB" transform="translate(95,163)"/>
<path d="M0 0 C0.99 0 1.98 0 3 0 C1.7374482 6.5231843 0.26344972 13.14669516 -3 19 C-3.99 19.33 -4.98 19.66 -6 20 C-4.22089072 13.24947898 -2.29561809 6.59379663 0 0 Z " fill="#CC5910" transform="translate(177,121)"/>
<path d="M0 0 C2 2 2 2 2.1171875 4.09375 C1.99730469 5.28484375 1.99730469 5.28484375 1.875 6.5 C1.81054688 7.2940625 1.74609375 8.088125 1.6796875 8.90625 C1 11 1 11 -1.0546875 12.28125 C-1.69664062 12.5184375 -2.33859375 12.755625 -3 13 C-4.58886437 9.82227126 -4.54346362 6.45134689 -4 3 C-2 1 -2 1 0 0 Z " fill="#713B1D" transform="translate(136,134)"/>
<path d="M0 0 C0.99 0.99 1.98 1.98 3 3 C2.38125 3.2475 1.7625 3.495 1.125 3.75 C-1.46275992 5.27221172 -2.05592658 6.16777975 -3 9 C-3.21439986 12.4303977 -3.37006434 15.8031832 -2 19 C-0.13355094 20.18330183 -0.13355094 20.18330183 2 21 C2.99 21.66 3.98 22.32 5 23 C3.35 23.33 1.7 23.66 0 24 C0 23.01 0 22.02 0 21 C-1.32 20.67 -2.64 20.34 -4 20 C-6.82869955 7.56053812 -6.82869955 7.56053812 -4.796875 3.734375 C-3.125 2.125 -3.125 2.125 0 0 Z " fill="#C9A57C" transform="translate(79,71)"/>
<path d="M0 0 C0.66 0 1.32 0 2 0 C1.52 6.36 1.52 6.36 -0.625 9 C-4.10758616 10.46635207 -6.40815902 9.99773361 -10 9 C-11.4375 6.9375 -11.4375 6.9375 -12 5 C-9.625 4.875 -9.625 4.875 -7 5 C-6.34 5.66 -5.68 6.32 -5 7 C-2.21366246 5.60683123 -2.06507306 3.84019484 -1 1 C-0.67 0.67 -0.34 0.34 0 0 Z " fill="#5C3F32" transform="translate(91,81)"/>
<path d="M0 0 C2.86855713 0.08436933 4.55682315 0.58692181 6.66796875 2.5546875 C11 7.51440024 11 7.51440024 11 10 C11.66 10 12.32 10 13 10 C13.66 11.65 14.32 13.3 15 15 C13.68 15 12.36 15 11 15 C10.896875 14.360625 10.79375 13.72125 10.6875 13.0625 C10.460625 12.381875 10.23375 11.70125 10 11 C9.01 10.67 8.02 10.34 7 10 C5.3125 8.5625 5.3125 8.5625 4 7 C4 6.34 4 5.68 4 5 C3.34 5 2.68 5 2 5 C2 4.01 2 3.02 2 2 C1.34 2 0.68 2 0 2 C0 1.34 0 0.68 0 0 Z " fill="#C14F11" transform="translate(147,44)"/>
<path d="M0 0 C0.99 0 1.98 0 3 0 C3.103125 0.639375 3.20625 1.27875 3.3125 1.9375 C3.6528125 2.9584375 3.6528125 2.9584375 4 4 C4.99 4.33 5.98 4.66 7 5 C8.27351308 7.54702616 7.80191925 8.4282945 7.0625 11.125 C6.86785156 11.84945312 6.67320313 12.57390625 6.47265625 13.3203125 C6.31667969 13.87460938 6.16070312 14.42890625 6 15 C5.67 15 5.34 15 5 15 C4.34 11.7 3.68 8.4 3 5 C0.32356043 4.10785348 -1.25384378 3.86459789 -4 3.875 C-4.680625 3.87242188 -5.36125 3.86984375 -6.0625 3.8671875 C-8.21874781 3.93368874 -8.21874781 3.93368874 -11 5 C-10.34 3.68 -9.68 2.36 -9 1 C-6.03 1.33 -3.06 1.66 0 2 C0 1.34 0 0.68 0 0 Z " fill="#CAA47F" transform="translate(120,70)"/>
<path d="M0 0 C5.94 0 11.88 0 18 0 C18 0.99 18 1.98 18 3 C12.06 3 6.12 3 0 3 C0 2.01 0 1.02 0 0 Z " fill="#C9520F" transform="translate(88,173)"/>
<path d="M0 0 C0.99 0.33 1.98 0.66 3 1 C3.90153078 3.53272861 4.5881045 5.89444062 5.1875 8.5 C5.3618457 9.22380859 5.53619141 9.94761719 5.71582031 10.69335938 C6.90708462 15.90135243 7.38225193 20.64847301 7 26 C6.34 25.67 5.68 25.34 5 25 C4.79412561 22.94125606 4.59363066 20.8818541 4.41796875 18.8203125 C3.75218768 14.32784585 2.2682185 10.1206863 0.83984375 5.8203125 C0 3 0 3 0 0 Z " fill="#CE5910" transform="translate(172,69)"/>
<path d="M0 0 C0.33 0.66 0.66 1.32 1 2 C0.01 2.495 0.01 2.495 -1 3 C2.73437848 3.87867729 6.16774573 4.08912219 10 4 C10 4.99 10 5.98 10 7 C7.36118498 8.28171015 5.45409914 9.01135248 2.5 8.9375 C-0.84301714 7.68386857 -2.64177115 5.62774071 -5 3 C-3.35 2.01 -1.7 1.02 0 0 Z " fill="#FBEDBE" transform="translate(122,157)"/>
<path d="M0 0 C0.66 0 1.32 0 2 0 C5.27427197 0 7.84319701 0.15818587 11 1 C7.9191706 3.34729859 5.75009081 4.89498729 1.875 5.4375 C-1.31277912 4.95240318 -2.69700013 4.21770358 -5 2 C-5.33 1.34 -5.66 0.68 -6 0 C-3.48314464 -1.25842768 -2.63419763 -0.74086808 0 0 Z " fill="#C04D11" transform="translate(142,183)"/>
<path d="M0 0 C2.5 2 2.5 2 4 4 C3.67 4.66 3.34 5.32 3 6 C1.35 5.01 -0.3 4.02 -2 3 C-2.33 3.66 -2.66 4.32 -3 5 C-3 4.34 -3 3.68 -3 3 C-8.61735276 3.90428836 -8.61735276 3.90428836 -13 7.125 C-13.33 7.74375 -13.66 8.3625 -14 9 C-13.72253508 5.67042093 -13.18903896 4.21195277 -10.9375 1.6875 C-6.83485682 -0.66933757 -4.70041265 -0.5968778 0 0 Z " fill="#FAF4E0" transform="translate(120,73)"/>
<path d="M0 0 C1.32 0 2.64 0 4 0 C4.33 0.99 4.66 1.98 5 3 C3.13758747 5.4832167 2.18111649 5.96917166 -0.9375 6.5 C-4 6 -4 6 -6.375 3.5 C-7.179375 2.2625 -7.179375 2.2625 -8 1 C-2.25 0.875 -2.25 0.875 0 2 C0 1.34 0 0.68 0 0 Z " fill="#683F23" transform="translate(115,85)"/>
<path d="M0 0 C0.33 0 0.66 0 1 0 C2 6.625 2 6.625 2 10 C2.1496644 11.39775858 2.31720487 12.7936871 2.5 14.1875 C2.665 15.445625 2.83 16.70375 3 18 C2.34 17.34 1.68 16.68 1 16 C0.34 16.99 -0.32 17.98 -1 19 C-2.77368347 17.22631653 -2.1727488 14.71104575 -2.1875 12.3125 C-2.16074231 7.82256034 -1.84929766 4.16091973 0 0 Z " fill="#8F5B35" transform="translate(61,74)"/>
<path d="M0 0 C3.68553148 0.72510457 6.17803585 1.31139207 8.4375 4.4375 C8.125 7.125 8.125 7.125 7.4375 9.4375 C6.1175 9.1075 4.7975 8.7775 3.4375 8.4375 C4.0975 7.1175 4.7575 5.7975 5.4375 4.4375 C0.47676578 3.11463754 -4.47361512 3.34856803 -9.5625 3.4375 C-6.9022286 -0.86960607 -4.63882848 -0.76700206 0 0 Z " fill="#E5A032" transform="translate(88.5625,160.5625)"/>
<path d="M0 0 C0.66 0 1.32 0 2 0 C2.6496875 1.36125 2.6496875 1.36125 3.3125 2.75 C4.84980836 5.92774872 4.84980836 5.92774872 6.6875 8.25 C8 10 8 10 8 12 C9.32 12.66 10.64 13.32 12 14 C12 14.66 12 15.32 12 16 C6.97122681 15.17275593 4.85835408 11.96806802 2 8 C0.47498702 4.94997404 0 3.41022524 0 0 Z " fill="#C75009" transform="translate(23,139)"/>
<path d="M0 0 C0.99 0.33 1.98 0.66 3 1 C3 1.66 3 2.32 3 3 C3.66 3.2475 4.32 3.495 5 3.75 C8.76360907 5.31817045 12.3711424 7.14505046 16 9 C15.34 9.66 14.68 10.32 14 11 C10.58089553 10.65808955 8.68154214 9.0111566 6 7 C4.948125 6.8453125 4.948125 6.8453125 3.875 6.6875 C3.25625 6.460625 2.6375 6.23375 2 6 C0.75 2.9375 0.75 2.9375 0 0 Z " fill="#C85010" transform="translate(37,172)"/>
<path d="M0 0 C0.33 0.66 0.66 1.32 1 2 C0.01 2.495 0.01 2.495 -1 3 C-1 3.66 -1 4.32 -1 5 C-0.34 5.66 0.32 6.32 1 7 C-1.8125 7.3125 -1.8125 7.3125 -5 7 C-6.75 4.625 -6.75 4.625 -8 2 C-8.66 1.34 -9.32 0.68 -10 0 C-6.33291043 -0.94296589 -3.64653273 -1.11421833 0 0 Z " fill="#F7AC35" transform="translate(94,164)"/>
<path d="M0 0 C2.20914 3.31371 2.22481553 4.3446021 2.125 8.1875 C2.10695312 9.08855469 2.08890625 9.98960938 2.0703125 10.91796875 C2.03550781 11.94857422 2.03550781 11.94857422 2 13 C1.01 13.33 0.02 13.66 -1 14 C-2.66710346 15.49985609 -2.66710346 15.49985609 -4 17 C-3.71561048 15.10306139 -3.42216208 13.20747973 -3.125 11.3125 C-2.96257812 10.25675781 -2.80015625 9.20101562 -2.6328125 8.11328125 C-2.04106931 5.20205086 -1.1968194 2.71044393 0 0 Z " fill="#8A4923" transform="translate(139,79)"/>
<path d="M0 0 C2.79872437 2.52788007 4.45773019 4.20411134 5 8 C4.01 8.66 3.02 9.32 2 10 C0.76302083 8.50260417 -0.47395833 7.00520833 -1.7109375 5.5078125 C-2.75250992 4.28948839 -3.86660097 3.13339903 -5 2 C-3.35 1.34 -1.7 0.68 0 0 Z " fill="#924E2A" transform="translate(132,63)"/>
<path d="M0 0 C1.41750563 0.11509661 2.83401169 0.24253658 4.25 0.375 C5.03890625 0.44460937 5.8278125 0.51421875 6.640625 0.5859375 C9.085877 1.01507113 10.84836903 1.78600638 13 3 C12.67 4.32 12.34 5.64 12 7 C7.24518354 6.42365861 4.02951788 4.44931479 0 2 C0 1.34 0 0.68 0 0 Z " fill="#E57527" transform="translate(133,31)"/>
<path d="M0 0 C0.66 0 1.32 0 2 0 C2.6875 2.3125 2.6875 2.3125 3 5 C1.60880801 7.05017766 0.46268458 7.80854431 -1.8125 8.75 C-4.68283834 9.07803867 -7.18382581 8.57603563 -10 8 C-9 6 -9 6 -7.1875 5.375 C-5 5 -5 5 -1 5 C-1.33 4.01 -1.66 3.02 -2 2 C-1.34 2 -0.68 2 0 2 C0 1.34 0 0.68 0 0 Z " fill="#633016" transform="translate(135,55)"/>
<path d="M0 0 C2.97 1.65 5.94 3.3 9 5 C8.34 5.66 7.68 6.32 7 7 C6.01 7 5.02 7 4 7 C4 8.65 4 10.3 4 12 C3.01 12.33 2.02 12.66 1 13 C1 10.36 1 7.72 1 5 C0.34 5 -0.32 5 -1 5 C-0.67 3.35 -0.34 1.7 0 0 Z " fill="#F7E9C1" transform="translate(134,39)"/>
<path d="M0 0 C0.66 0 1.32 0 2 0 C0.45454854 5.47932789 -2.15543212 10.11429181 -5 15 C-5.33 15 -5.66 15 -6 15 C-6.33 12.36 -6.66 9.72 -7 7 C-5.02 6.34 -3.04 5.68 -1 5 C-0.67 3.35 -0.34 1.7 0 0 Z " fill="#BC5526" transform="translate(187,140)"/>
<path d="M0 0 C0.99 0.33 1.98 0.66 3 1 C3 1.66 3 2.32 3 3 C2.34 3 1.68 3 1 3 C1.33 3.66 1.66 4.32 2 5 C2.039992 6.99960012 2.04346799 9.00047242 2 11 C0.02 10.01 -1.96 9.02 -4 8 C-2.68 5.36 -1.36 2.72 0 0 Z " fill="#C14B0D" transform="translate(179,144)"/>
<path d="M0 0 C1.65 0 3.3 0 5 0 C5 0.66 5 1.32 5 2 C5.928125 1.95875 6.85625 1.9175 7.8125 1.875 C11 2 11 2 14 4 C14 4.99 14 5.98 14 7 C14.66 7 15.32 7 16 7 C16.33 7.99 16.66 8.98 17 10 C14.12947516 8.58430934 11.30485336 7.10420878 8.5 5.5625 C7.7471875 5.15128906 6.994375 4.74007813 6.21875 4.31640625 C4.01796053 3.01065616 2.01677762 1.57216982 0 0 Z " fill="#C1561D" transform="translate(140,17)"/>
<path d="M0 0 C0.66 0 1.32 0 2 0 C2 4.62 2 9.24 2 14 C1.01 14.33 0.02 14.66 -1 15 C-1.18451025 4.44191344 -1.18451025 4.44191344 0 0 Z " fill="#C9550A" transform="translate(183,99)"/>
<path d="M0 0 C0.66 0 1.32 0 2 0 C2.61042815 7.20305214 2.61042815 7.20305214 -0.25 10.9375 C-2.68045561 12.76034171 -4.03285617 13.67031735 -7 14 C-6.34 13.67 -5.68 13.34 -5 13 C-5 12.01 -5 11.02 -5 10 C-4.360625 9.401875 -3.72125 8.80375 -3.0625 8.1875 C-0.52665181 5.49796404 -0.32883058 3.61713638 0 0 Z " fill="#FCF4E6" transform="translate(93,80)"/>
<path d="M0 0 C0.99 0.33 1.98 0.66 3 1 C-0.49205938 4.59476701 -4.04033675 7.92026191 -8 11 C-8.66 11 -9.32 11 -10 11 C-8.56285993 7.64170896 -6.79022601 5.60029302 -4.0625 3.1875 C-3.02802734 2.24970703 -3.02802734 2.24970703 -1.97265625 1.29296875 C-1.32167969 0.86628906 -0.67070313 0.43960937 0 0 Z " fill="#CD540B" transform="translate(52,29)"/>
<path d="M0 0 C1.70884005 1.62339805 3.37446717 3.29319053 5 5 C5 5.66 5 6.32 5 7 C7.97 7.495 7.97 7.495 11 8 C11 8.33 11 8.66 11 9 C9.72125 9.144375 8.4425 9.28875 7.125 9.4375 C4.74307106 9.70642746 3.15547309 9.92226346 1 11 C0.30710631 7.27569643 -0.11144596 3.78916254 0 0 Z " fill="#E1C19F" transform="translate(106,85)"/>
<path d="M0 0 C0.33 0 0.66 0 1 0 C2.32 5.94 3.64 11.88 5 18 C4.01 17.67 3.02 17.34 2 17 C1.34 17.33 0.68 17.66 0 18 C0.33 14.37 0.66 10.74 1 7 C0.34 7 -0.32 7 -1 7 C-0.67 4.69 -0.34 2.38 0 0 Z " fill="#B15C27" transform="translate(28,110)"/>
<path d="M0 0 C1.11375 0.2475 1.11375 0.2475 2.25 0.5 C5.19006578 1.11925696 5.19006578 1.11925696 9 1 C8.67 2.65 8.34 4.3 8 6 C5.36 5.34 2.72 4.68 0 4 C0 2.68 0 1.36 0 0 Z " fill="#683419" transform="translate(63,58)"/>
<path d="M0 0 C0.66 0 1.32 0 2 0 C0.62815653 4.06498881 -1.22068459 6.67396561 -4.125 9.8125 C-4.84945312 10.60269531 -5.57390625 11.39289063 -6.3203125 12.20703125 C-6.87460938 12.79871094 -7.42890625 13.39039063 -8 14 C-8.33 13.01 -8.66 12.02 -9 11 C-7.19921875 8.30078125 -7.19921875 8.30078125 -4.6875 5.3125 C-3.86636719 4.31863281 -3.04523438 3.32476562 -2.19921875 2.30078125 C-1.47347656 1.54152344 -0.74773437 0.78226563 0 0 Z " fill="#F7E1B4" transform="translate(157,138)"/>
<path d="M0 0 C3.59634744 3.49359465 6.83451967 7.11098131 10 11 C9.34 11.66 8.68 12.32 8 13 C7.938125 12.071875 7.938125 12.071875 7.875 11.125 C7.58625 10.42375 7.2975 9.7225 7 9 C4.00384054 7.6954344 4.00384054 7.6954344 1 7 C0 2.25 0 2.25 0 0 Z " fill="#C66C3B" transform="translate(170,35)"/>
<path d="M0 0 C5.63470383 -0.5497272 8.38987758 1.04952165 13 4 C12.01 5.485 12.01 5.485 11 7 C10.34 6.67 9.68 6.34 9 6 C8.030625 5.54625 7.06125 5.0925 6.0625 4.625 C3.46952017 3.24913315 1.8776911 2.19063961 0 0 Z " fill="#CA5716" transform="translate(129,33)"/>
<path d="M0 0 C0.33 1.32 0.66 2.64 1 4 C-1.97 6.475 -1.97 6.475 -5 9 C-5.99 8.34 -6.98 7.68 -8 7 C-5.36 4.69 -2.72 2.38 0 0 Z " fill="#C06637" transform="translate(37,28)"/>
<path d="M0 0 C0.66 0.33 1.32 0.66 2 1 C-0.29598016 4.68996811 -2.22792744 7.73675646 -6 10 C-6.66 10 -7.32 10 -8 10 C-8 9.01 -8 8.02 -8 7 C-7.01 7 -6.02 7 -5 7 C-4.731875 6.030625 -4.46375 5.06125 -4.1875 4.0625 C-3.795625 3.051875 -3.40375 2.04125 -3 1 C-2.01 0.67 -1.02 0.34 0 0 Z " fill="#C14E0B" transform="translate(156,147)"/>
<path d="M0 0 C0.33 0 0.66 0 1 0 C1 2.64 1 5.28 1 8 C-1.97 7.505 -1.97 7.505 -5 7 C-5.33 6.01 -5.66 5.02 -6 4 C-4.7934375 3.566875 -4.7934375 3.566875 -3.5625 3.125 C-0.8673532 2.26737432 -0.8673532 2.26737432 0 0 Z " fill="#F4EDC5" transform="translate(137,143)"/>
<path d="M0 0 C0.99 0.33 1.98 0.66 3 1 C3.33 2.98 3.66 4.96 4 7 C4.99 7 5.98 7 7 7 C7.33 9.64 7.66 12.28 8 15 C4.57228865 11.0826156 0 5.47848189 0 0 Z " fill="#B96334" transform="translate(10,139)"/>
<path d="M0 0 C2.24973447 -0.054138 4.49984383 -0.09285491 6.75 -0.125 C8.00296875 -0.14820313 9.2559375 -0.17140625 10.546875 -0.1953125 C13.73960816 -0.01472805 15.41031936 0.20230907 18 2 C18.33 2.66 18.66 3.32 19 4 C16.69 4 14.38 4 12 4 C11.67 3.01 11.34 2.02 11 1 C7.37 1 3.74 1 0 1 C0 0.67 0 0.34 0 0 Z " fill="#C86E35" transform="translate(95,171)"/>
<path d="M0 0 C0.598125 0.350625 1.19625 0.70125 1.8125 1.0625 C1.8125 2.3825 1.8125 3.7025 1.8125 5.0625 C-0.8275 4.7325 -3.4675 4.4025 -6.1875 4.0625 C-5.875 2.125 -5.875 2.125 -5.1875 0.0625 C-2.1875 -0.9375 -2.1875 -0.9375 0 0 Z " fill="#FCF8D8" transform="translate(61.1875,151.9375)"/>
<path d="M0 0 C0.391875 0.515625 0.78375 1.03125 1.1875 1.5625 C2.952472 3.30408494 2.952472 3.30408494 5.5625 2.75 C7.97602515 2.080487 7.97602515 2.080487 10 1 C9.3125 3.4375 9.3125 3.4375 8 6 C5.375 6.8125 5.375 6.8125 3 7 C0 3.375 0 3.375 0 0 Z " fill="#A36B3A" transform="translate(88,136)"/>
<path d="M0 0 C0.66 0 1.32 0 2 0 C1.56179109 4.55737263 1.14958831 7.57653445 -2 11 C-3.14947895 7.44706507 -3.0868937 6.20023331 -1.5625 2.6875 C-1.046875 1.800625 -0.53125 0.91375 0 0 Z " fill="#B95623" transform="translate(13,58)"/>
<path d="M0 0 C0.99 0.33 1.98 0.66 3 1 C2.67 5.29 2.34 9.58 2 14 C1.01 14 0.02 14 -1 14 C-1.07427838 10.65747276 -1.06546953 8.1964086 0 5 C0.03874921 3.33378384 0.0450286 1.66605828 0 0 Z " fill="#8E4B26" transform="translate(62,74)"/>
<path d="M0 0 C1.5 1.375 1.5 1.375 3 3 C3 3.66 3 4.32 3 5 C2.01 5.495 2.01 5.495 1 6 C0.01 7.485 0.01 7.485 -1 9 C-4 5.25 -4 5.25 -4 3 C-2 1.375 -2 1.375 0 0 Z " fill="#F7EBC6" transform="translate(137,60)"/>
<path d="M0 0 C0.66 0.33 1.32 0.66 2 1 C-0.14144306 4.21216459 -1.76447436 5.05868462 -5 7 C-5.99 8.485 -5.99 8.485 -7 10 C-8.32 9.67 -9.64 9.34 -11 9 C-9.8803014 7.99406757 -8.7540588 6.9954151 -7.625 6 C-6.99851562 5.443125 -6.37203125 4.88625 -5.7265625 4.3125 C-4 3 -4 3 -2 3 C-2 2.34 -2 1.68 -2 1 C-1.34 0.67 -0.68 0.34 0 0 Z " fill="#C34D0C" transform="translate(61,34)"/>
<path d="M0 0 C2.4375 0.8125 2.4375 0.8125 5 2 C5.33 2.99 5.66 3.98 6 5 C7.98 5 9.96 5 12 5 C12 5.33 12 5.66 12 6 C6.60550707 6.27429625 3.48074195 6.36055646 -1 3 C-0.67 2.01 -0.34 1.02 0 0 Z " fill="#C18648" transform="translate(82,156)"/>
<path d="M0 0 C2 3 2 3 3 6 C2.071875 6.12375 2.071875 6.12375 1.125 6.25 C-1.18437567 6.81258459 -1.18437567 6.81258459 -2.25 9.0625 C-2.4975 9.701875 -2.745 10.34125 -3 11 C-3.66 10.01 -4.32 9.02 -5 8 C-4.34 8 -3.68 8 -3 8 C-2.690625 7.05125 -2.38125 6.1025 -2.0625 5.125 C-1 2 -1 2 0 0 Z " fill="#F7EAC6" transform="translate(57,145)"/>
<path d="M0 0 C0.66 0 1.32 0 2 0 C2.66 0.99 3.32 1.98 4 3 C6.96175123 2.38722388 8.38058783 1.74627478 11 0 C9.125 4.875 9.125 4.875 8 6 C5.625 6.3125 5.625 6.3125 3 6 C1.02389614 3.95575462 0 2.8823175 0 0 Z " fill="#A56F3E" transform="translate(102,137)"/>
<path d="M0 0 C0.66 0.33 1.32 0.66 2 1 C1.21625 1.721875 0.4325 2.44375 -0.375 3.1875 C-3.11363935 5.75394045 -3.11363935 5.75394045 -4 8.75 C-4.33 9.4925 -4.66 10.235 -5 11 C-7.625 11.8125 -7.625 11.8125 -10 12 C-3.84965831 3.55353075 -3.84965831 3.55353075 0 0 Z " fill="#F6E4B6" transform="translate(52,47)"/>
<path d="M0 0 C0.33 0.99 0.66 1.98 1 3 C1.639375 3.144375 2.27875 3.28875 2.9375 3.4375 C3.618125 3.623125 4.29875 3.80875 5 4 C6.125 6 6.125 6 7 8 C7.66 8.33 8.32 8.66 9 9 C8.67 10.32 8.34 11.64 8 13 C6.99406757 11.8803014 5.9954151 10.7540588 5 9.625 C4.1646875 8.68527344 4.1646875 8.68527344 3.3125 7.7265625 C2 6 2 6 2 4 C0.68 3.34 -0.64 2.68 -2 2 C-1.34 1.34 -0.68 0.68 0 0 Z " fill="#B65A29" transform="translate(148,46)"/>
<path d="M0 0 C4.63766855 -0.42160623 7.9033589 0.87289789 12 3 C12.33 3.99 12.66 4.98 13 6 C9.51038791 6 7.88519705 5.09620626 4.8125 3.5 C3.91144531 3.0359375 3.01039063 2.571875 2.08203125 2.09375 C1.39496094 1.7328125 0.70789063 1.371875 0 1 C0 0.67 0 0.34 0 0 Z " fill="#B65D29" transform="translate(127,35)"/>
<path d="M0 0 C1.65 0 3.3 0 5 0 C2.48972295 2.5999298 0.0136316 4.99091227 -3 7 C-3.66 7 -4.32 7 -5 7 C-4.67 5.35 -4.34 3.7 -4 2 C-2.68 2 -1.36 2 0 2 C0 1.34 0 0.68 0 0 Z " fill="#BB612F" transform="translate(158,176)"/>
<path d="M0 0 C2.475 0.495 2.475 0.495 5 1 C5.33 1.99 5.66 2.98 6 4 C7.65 4.33 9.3 4.66 11 5 C11 5.33 11 5.66 11 6 C7.14521782 6.35858439 5.42240542 6.2754818 2.125 4.125 C1.42375 3.42375 0.7225 2.7225 0 2 C0 1.34 0 0.68 0 0 Z " fill="#C34F0E" transform="translate(53,159)"/>
<path d="M0 0 C0.99 0.99 1.98 1.98 3 3 C2.67 3.99 2.34 4.98 2 6 C1.5982661 11.14943278 1.5982661 11.14943278 3 16 C2.01 15.67 1.02 15.34 0 15 C-0.19517554 13.06325815 -0.38087873 11.12555991 -0.5625 9.1875 C-0.66691406 8.10855469 -0.77132812 7.02960938 -0.87890625 5.91796875 C-1 3 -1 3 0 0 Z " fill="#7F4A2E" transform="translate(138,136)"/>
<path d="M0 0 C0.99 0.33 1.98 0.66 3 1 C4.01953125 3.65234375 4.01953125 3.65234375 4.8125 6.9375 C5.08707031 8.01902344 5.36164063 9.10054687 5.64453125 10.21484375 C5.76183594 11.13394531 5.87914062 12.05304688 6 13 C5.34 13.66 4.68 14.32 4 15 C3.3299166 12.87607494 2.66403203 10.75082476 2 8.625 C1.62875 7.44164063 1.2575 6.25828125 0.875 5.0390625 C0 2 0 2 0 0 Z " fill="#B25C26" transform="translate(165,73)"/>
<path d="M0 0 C0.66 0.33 1.32 0.66 2 1 C-0.475 6.94 -0.475 6.94 -3 13 C-3.66 12.01 -4.32 11.02 -5 10 C-3.33333333 6.66666667 -1.66666667 3.33333333 0 0 Z " fill="#FAE8B4" transform="translate(165,122)"/>
<path d="M0 0 C0.33 1.98 0.66 3.96 1 6 C0.01 5.34 -0.98 4.68 -2 4 C-2.33 4.66 -2.66 5.32 -3 6 C-4.32 5.34 -5.64 4.68 -7 4 C-3.17391304 0 -3.17391304 0 0 0 Z " fill="#C89060" transform="translate(124,113)"/>
<path d="M0 0 C2.875 -0.125 2.875 -0.125 6 0 C6.66 0.66 7.32 1.32 8 2 C7.625 4.625 7.625 4.625 7 7 C6.67 5.68 6.34 4.36 6 3 C3.69 2.67 1.38 2.34 -1 2 C-0.67 1.34 -0.34 0.68 0 0 Z " fill="#ECA635" transform="translate(98,88)"/>
<path d="M0 0 C0.99 0 1.98 0 3 0 C1.18690997 3.77727089 -0.9073259 7.37269822 -3 11 C-3.33 11 -3.66 11 -4 11 C-4 9.35 -4 7.7 -4 6 C-3.34 6 -2.68 6 -2 6 C-2 4.68 -2 3.36 -2 2 C-1.34 2 -0.68 2 0 2 C0 1.34 0 0.68 0 0 Z " fill="#AD5620" transform="translate(41,55)"/>
<path d="M0 0 C0 1.98 0 3.96 0 6 C-4.75 4.125 -4.75 4.125 -7 3 C-7 2.34 -7 1.68 -7 1 C-3.375 -1.125 -3.375 -1.125 0 0 Z " fill="#EDDFC4" transform="translate(66,46)"/>
<path d="M0 0 C-0.33 0.66 -0.66 1.32 -1 2 C0.32 1.67 1.64 1.34 3 1 C2.67 1.99 2.34 2.98 2 4 C-4.75 3.25 -4.75 3.25 -7 1 C-3.375 -1.125 -3.375 -1.125 0 0 Z " fill="#FAE9B9" transform="translate(75,163)"/>
<path d="M0 0 C1.2065625 0.0309375 1.2065625 0.0309375 2.4375 0.0625 C2.4375 1.0525 2.4375 2.0425 2.4375 3.0625 C1.1175 2.7325 -0.2025 2.4025 -1.5625 2.0625 C-1.830625 2.701875 -2.09875 3.34125 -2.375 4 C-3.5625 6.0625 -3.5625 6.0625 -6.5625 7.0625 C-6.5625 6.4025 -6.5625 5.7425 -6.5625 5.0625 C-7.2225 4.7325 -7.8825 4.4025 -8.5625 4.0625 C-7.758125 3.588125 -6.95375 3.11375 -6.125 2.625 C-1.89583333 0.04623984 -1.89583333 0.04623984 0 0 Z " fill="#D96816" transform="translate(36.5625,158.9375)"/>
<path d="M0 0 C2.31 0.66 4.62 1.32 7 2 C7 1.34 7 0.68 7 0 C7.66 0 8.32 0 9 0 C8.3125 1.9375 8.3125 1.9375 7 4 C4.5 4.875 4.5 4.875 2 5 C1.34 4.34 0.68 3.68 0 3 C0 2.01 0 1.02 0 0 Z " fill="#9F6535" transform="translate(96,148)"/>
<path d="M0 0 C0 0.99 0 1.98 0 3 C-1.98 3 -3.96 3 -6 3 C-6.99 4.98 -7.98 6.96 -9 9 C-9.66 9 -10.32 9 -11 9 C-10.690625 8.236875 -10.38125 7.47375 -10.0625 6.6875 C-9.32106407 4.81210323 -8.63771783 2.91315348 -8 1 C-5.36 0.67 -2.72 0.34 0 0 Z " fill="#DBA058" transform="translate(104,86)"/>
<path d="M0 0 C0.66 0 1.32 0 2 0 C2.98248524 4.0527516 3.08159574 7.83861737 3 12 C2.67 11.01 2.34 10.02 2 9 C1.34 9 0.68 9 0 9 C0 6.03 0 3.06 0 0 Z " fill="#C2693A" transform="translate(193,80)"/>
<path d="M0 0 C-0.33 0.99 -0.66 1.98 -1 3 C-4.47325181 4.1577506 -7.36067448 4.06866652 -11 4 C-3.77464789 -1.88732394 -3.77464789 -1.88732394 0 0 Z " fill="#BD6738" transform="translate(65,13)"/>
<path d="M0 0 C0.66 0 1.32 0 2 0 C2.33 0.66 2.66 1.32 3 2 C5.16874252 1.49396008 6.99967627 1.00016187 9 0 C8.125 3.875 8.125 3.875 7 5 C5.33382885 5.04063832 3.66611905 5.042721 2 5 C1.34 3.35 0.68 1.7 0 0 Z " fill="#A66C3C" transform="translate(81,147)"/>
<path d="M0 0 C0.66 0 1.32 0 2 0 C1.55090939 1.48199902 1.09043436 2.96055236 0.625 4.4375 C0.36976563 5.26121094 0.11453125 6.08492187 -0.1484375 6.93359375 C-1 9 -1 9 -3 10 C-3.75 8.375 -3.75 8.375 -4 6 C-2.1875 2.75 -2.1875 2.75 0 0 Z " fill="#BE4A09" transform="translate(167,128)"/>
<path d="M0 0 C0.33 0 0.66 0 1 0 C1.06058594 0.65226562 1.12117188 1.30453125 1.18359375 1.9765625 C1.63519991 6.68716217 2.14195039 11.34201638 3 16 C2.34 16 1.68 16 1 16 C-0.50156874 12.99686252 -0.09281204 10.20932478 -0.0625 6.875 C-0.05347656 5.59367188 -0.04445312 4.31234375 -0.03515625 2.9921875 C-0.02355469 2.00476563 -0.01195312 1.01734375 0 0 Z " fill="#643617" transform="translate(52,123)"/>
<path d="M0 0 C0.66 0 1.32 0 2 0 C2.33 1.32 2.66 2.64 3 4 C3.99 3.67 4.98 3.34 6 3 C6.33 2.34 6.66 1.68 7 1 C7.66 1 8.32 1 9 1 C8.34 2.65 7.68 4.3 7 6 C4.625 5.8125 4.625 5.8125 2 5 C0.6875 2.4375 0.6875 2.4375 0 0 Z " fill="#A36D3B" transform="translate(96,126)"/>
<path d="M0 0 C0.391875 0.474375 0.78375 0.94875 1.1875 1.4375 C3.40808374 3.35179633 5.13375709 3.61266988 8 4 C7.34 5.32 6.68 6.64 6 8 C4.68 7.67 3.36 7.34 2 7 C2 6.01 2 5.02 2 4 C1.34 4 0.68 4 0 4 C0 2.68 0 1.36 0 0 Z " fill="#E38B31" transform="translate(95,94)"/>
<path d="M0 0 C0 0.99 0 1.98 0 3 C-2.31 3 -4.62 3 -7 3 C-7 3.66 -7 4.32 -7 5 C-8.32 4.34 -9.64 3.68 -11 3 C-4.5 0 -4.5 0 0 0 Z " fill="#C4520E" transform="translate(74,30)"/>
<path d="M0 0 C1.65 0 3.3 0 5 0 C5 0.66 5 1.32 5 2 C6.3921875 2.185625 6.3921875 2.185625 7.8125 2.375 C11 3 11 3 14 5 C8.94468132 4.22225866 3.98283716 3.14051606 -1 2 C-0.67 1.34 -0.34 0.68 0 0 Z " fill="#BF4C0D" transform="translate(121,9)"/>
<path d="M0 0 C4.455 0.99 4.455 0.99 9 2 C9 2.33 9 2.66 9 3 C7.02 3 5.04 3 3 3 C3 3.66 3 4.32 3 5 C2.01 5 1.02 5 0 5 C0 3.35 0 1.7 0 0 Z " fill="#B34B05" transform="translate(75,168)"/>
<path d="M0 0 C0.33 0.99 0.66 1.98 1 3 C1.99 3.33 2.98 3.66 4 4 C3.67 5.65 3.34 7.3 3 9 C2.01 8.67 1.02 8.34 0 8 C0 5.36 0 2.72 0 0 Z " fill="#71341B" transform="translate(139,142)"/>
<path d="M0 0 C0.99 0.99 1.98 1.98 3 3 C2.34 4.98 1.68 6.96 1 9 C0.34 9 -0.32 9 -1 9 C-0.67 6.03 -0.34 3.06 0 0 Z " fill="#CF5C11" transform="translate(18,75)"/>
<path d="M0 0 C0.66 0 1.32 0 2 0 C2.99 3.63 3.98 7.26 5 11 C4.01 11.495 4.01 11.495 3 12 C2.49166409 10.75336669 1.99368855 9.50250613 1.5 8.25 C1.2215625 7.55390625 0.943125 6.8578125 0.65625 6.140625 C0 4 0 4 0 0 Z " fill="#BB6339" transform="translate(188,64)"/>
<path d="M0 0 C1.32 0.66 2.64 1.32 4 2 C1.36 3.65 -1.28 5.3 -4 7 C-3.6875 4.625 -3.6875 4.625 -3 2 C-2.01 1.34 -1.02 0.68 0 0 Z " fill="#BF5520" transform="translate(42,24)"/>
<path d="M0 0 C0.33 0.99 0.66 1.98 1 3 C0.01 4.485 0.01 4.485 -1 6 C-1.63292383 8.11280345 -1.63292383 8.11280345 -2 10 C-2.66 10 -3.32 10 -4 10 C-4 7.36 -4 4.72 -4 2 C-3.01 2 -2.02 2 -1 2 C-0.67 1.34 -0.34 0.68 0 0 Z " fill="#F2E5BF" transform="translate(142,149)"/>
<path d="M0 0 C2.97 0 5.94 0 9 0 C8.67 0.99 8.34 1.98 8 3 C5.125 3.1875 5.125 3.1875 2 3 C1.34 2.01 0.68 1.02 0 0 Z " fill="#5F3F2E" transform="translate(109,88)"/>
<path d="M0 0 C3.81538462 2.46153846 3.81538462 2.46153846 4.75 5.1875 C4.8325 5.785625 4.915 6.38375 5 7 C3.68 7.33 2.36 7.66 1 8 C0.67 5.36 0.34 2.72 0 0 Z " fill="#6A3418" transform="translate(65,46)"/>
<path d="M0 0 C1.8125 0.125 1.8125 0.125 4 1 C5.75 4.0625 5.75 4.0625 7 7 C6.34 7.66 5.68 8.32 5 9 C4.16094435 7.87926138 3.32892169 6.75325453 2.5 5.625 C2.0359375 4.99851562 1.571875 4.37203125 1.09375 3.7265625 C0 2 0 2 0 0 Z " fill="#CB5315" transform="translate(173,43)"/>
<path d="M0 0 C-3.75 3 -3.75 3 -6 3 C-6 3.66 -6 4.32 -6 5 C-6.99 4.67 -7.98 4.34 -9 4 C-9 3.34 -9 2.68 -9 2 C-5.5647952 -0.29013653 -4.014669 -0.17842973 0 0 Z " fill="#F1A021" transform="translate(113,163)"/>
<path d="M0 0 C0.33 0.66 0.66 1.32 1 2 C0.01 3.485 0.01 3.485 -1 5 C-3.625 5.1875 -3.625 5.1875 -6 5 C-6.66 3.68 -7.32 2.36 -8 1 C-7.34 1 -6.68 1 -6 1 C-6 1.66 -6 2.32 -6 3 C-2.75016865 1.91215032 -2.75016865 1.91215032 0 0 Z " fill="#A66C3A" transform="translate(119,147)"/>
<path d="M0 0 C0.66 1.32 1.32 2.64 2 4 C2.66 3.01 3.32 2.02 4 1 C3.67 3.97 3.34 6.94 3 10 C0.64551835 7.44931155 0.01672076 6.28982642 -0.1875 2.75 C-0.125625 1.8425 -0.06375 0.935 0 0 Z " fill="#E8D9C7" transform="translate(75,80)"/>
<path d="M0 0 C2.475 0.99 2.475 0.99 5 2 C3.68 3.32 2.36 4.64 1 6 C0.34 5.01 -0.32 4.02 -1 3 C-0.67 2.01 -0.34 1.02 0 0 Z " fill="#F3E5C5" transform="translate(63,62)"/>
<path d="M0 0 C1.98 0.99 1.98 0.99 4 2 C4 3.65 4 5.3 4 7 C2.68 6.34 1.36 5.68 0 5 C0 3.35 0 1.7 0 0 Z " fill="#6D4126" transform="translate(61,49)"/>
<path d="M0 0 C2.31 0.33 4.62 0.66 7 1 C7 1.99 7 2.98 7 4 C4.69 3.67 2.38 3.34 0 3 C0 2.01 0 1.02 0 0 Z " fill="#F3A934" transform="translate(78,166)"/>
<path d="M0 0 C2.7839183 1.39195915 2.97898997 3.15575779 4 6 C3.01 6 2.02 6 1 6 C-1.1875 3.5 -1.1875 3.5 -3 1 C-2.01 0.67 -1.02 0.34 0 0 Z " fill="#F3DDB6" transform="translate(48,146)"/>
<path d="M0 0 C1.1446875 0.556875 1.1446875 0.556875 2.3125 1.125 C3.6428125 1.558125 3.6428125 1.558125 5 2 C5.99 1.34 6.98 0.68 8 0 C7.34 1.65 6.68 3.3 6 5 C4.35 4.67 2.7 4.34 1 4 C0.67 2.68 0.34 1.36 0 0 Z " fill="#A26A39" transform="translate(117,137)"/>
<path d="M0 0 C1.98 0.495 1.98 0.495 4 1 C3.67 2.98 3.34 4.96 3 7 C1.68 5.68 0.36 4.36 -1 3 C-0.67 2.01 -0.34 1.02 0 0 Z " fill="#F9E9B8" transform="translate(40,137)"/>
<path d="M0 0 C2 0 2 0 3.625 1.5 C4.07875 1.995 4.5325 2.49 5 3 C5.99 2.01 6.98 1.02 8 0 C7.67 1.65 7.34 3.3 7 5 C5.35 5 3.7 5 2 5 C1.34 3.35 0.68 1.7 0 0 Z " fill="#9A6231" transform="translate(83,126)"/>
<path d="M0 0 C2.31 1.65 4.62 3.3 7 5 C5.68 5.33 4.36 5.66 3 6 C3 6.66 3 7.32 3 8 C2.34 8 1.68 8 1 8 C1 6.68 1 5.36 1 4 C0.67 2.68 0.34 1.36 0 0 Z " fill="#FBECBE" transform="translate(143,45)"/>
<path d="M0 0 C1.11375 0.598125 2.2275 1.19625 3.375 1.8125 C4.00148437 2.14894531 4.62796875 2.48539063 5.2734375 2.83203125 C7 4 7 4 9 7 C8.01 7 7.02 7 6 7 C6 6.34 6 5.68 6 5 C4.68 4.67 3.36 4.34 2 4 C2 3.34 2 2.68 2 2 C1.34 2 0.68 2 0 2 C0 1.34 0 0.68 0 0 Z " fill="#BA633B" transform="translate(154,22)"/>
<path d="M0 0 C-5.75 4 -5.75 4 -8 4 C-8 3.01 -8 2.02 -8 1 C-4.93251126 -0.86240388 -3.40254489 -1.2151946 0 0 Z " fill="#B45C2E" transform="translate(153,184)"/>
<path d="M0 0 C-1.38877354 3.35620271 -2.91677965 5.07298728 -6 7 C-6.66 7 -7.32 7 -8 7 C-8 6.34 -8 5.68 -8 5 C-2.52380952 0 -2.52380952 0 0 0 Z " fill="#CB5608" transform="translate(159,163)"/>
<path d="M0 0 C0.66 0 1.32 0 2 0 C0.84414715 3.91211733 -0.35534962 6.8745041 -3 10 C-3 8.35 -3 6.7 -3 5 C-2.34 5 -1.68 5 -1 5 C-0.67 3.35 -0.34 1.7 0 0 Z " fill="#B7663E" transform="translate(187,140)"/>
<path d="M0 0 C-0.3125 1.9375 -0.3125 1.9375 -1 4 C-1.99 4.33 -2.98 4.66 -4 5 C-4.99 4.01 -5.98 3.02 -7 2 C-4.35261084 0.5393715 -3.10551666 0 0 0 Z " fill="#76482B" transform="translate(62,143)"/>
<path d="M0 0 C0.61875 0.495 1.2375 0.99 1.875 1.5 C3.83880904 3.19222773 3.83880904 3.19222773 6 3 C6 2.34 6 1.68 6 1 C6.66 1.33 7.32 1.66 8 2 C7.01 3.32 6.02 4.64 5 6 C2.525 5.01 2.525 5.01 0 4 C0 2.68 0 1.36 0 0 Z " fill="#9E6634" transform="translate(110,126)"/>
<path d="M0 0 C0.33 0 0.66 0 1 0 C1.33 2.64 1.66 5.28 2 8 C1.01 8.66 0.02 9.32 -1 10 C-2.31223496 6.06329512 -1.24296256 3.87511856 0 0 Z " fill="#B35C24" transform="translate(168,116)"/>
<path d="M0 0 C3.96 0.33 7.92 0.66 12 1 C12 1.33 12 1.66 12 2 C9.36 2 6.72 2 4 2 C4 2.66 4 3.32 4 4 C3.01 4 2.02 4 1 4 C0.67 2.68 0.34 1.36 0 0 Z " fill="#955932" transform="translate(109,106)"/>
<path d="M0 0 C0.185625 0.9590625 0.185625 0.9590625 0.375 1.9375 C0.684375 2.9584375 0.684375 2.9584375 1 4 C1.66 4.33 2.32 4.66 3 5 C2.360625 5.12375 1.72125 5.2475 1.0625 5.375 C0.0415625 5.684375 0.0415625 5.684375 -1 6 C-1.33 6.66 -1.66 7.32 -2 8 C-1.125 1.125 -1.125 1.125 0 0 Z " fill="#D08D4B" transform="translate(105,94)"/>
<path d="M0 0 C0.66 0.99 1.32 1.98 2 3 C1.67 3.99 1.34 4.98 1 6 C-0.32 6 -1.64 6 -3 6 C-3 4.68 -3 3.36 -3 2 C-2.01 2 -1.02 2 0 2 C0 1.34 0 0.68 0 0 Z " fill="#D19B6A" transform="translate(103,76)"/>
<path d="M0 0 C0.99 0.495 0.99 0.495 2 1 C2.59355614 3.64860427 2.74209269 6.29197322 3 9 C2.34 9 1.68 9 1 9 C0.67 6.03 0.34 3.06 0 0 Z " fill="#CF5910" transform="translate(183,74)"/>
<path d="M0 0 C2.475 0.99 2.475 0.99 5 2 C4.67 2.66 4.34 3.32 4 4 C2.02 4 0.04 4 -2 4 C-2 3.34 -2 2.68 -2 2 C-1.34 2 -0.68 2 0 2 C0 1.34 0 0.68 0 0 Z " fill="#FBFBF7" transform="translate(118,76)"/>
<path d="M0 0 C0.66 0.99 1.32 1.98 2 3 C1.34 3 0.68 3 0 3 C-0.33 3.99 -0.66 4.98 -1 6 C-2.32 4.68 -3.64 3.36 -5 2 C-3.35 1.34 -1.7 0.68 0 0 Z " fill="#884924" transform="translate(132,63)"/>
<path d="M0 0 C-3.1254959 2.64465038 -6.08788267 3.84414715 -10 5 C-10 4.34 -10 3.68 -10 3 C-9.01 3 -8.02 3 -7 3 C-7 2.34 -7 1.68 -7 1 C-4.53721199 -0.231394 -2.7204945 -0.07159196 0 0 Z " fill="#B6623D" transform="translate(145,188)"/>
<path d="M0 0 C0.78375 0.66 1.5675 1.32 2.375 2 C4.71512812 4.20201441 4.71512812 4.20201441 7 4 C7 4.66 7 5.32 7 6 C4.625 6.125 4.625 6.125 2 6 C1.34 5.34 0.68 4.68 0 4 C0 2.68 0 1.36 0 0 Z " fill="#F0B95B" transform="translate(103,165)"/>
<path d="M0 0 C1.65 0.33 3.3 0.66 5 1 C3.68 2.32 2.36 3.64 1 5 C0.01 4.34 -0.98 3.68 -2 3 C-1.34 3 -0.68 3 0 3 C0 2.01 0 1.02 0 0 Z " fill="#C44F11" transform="translate(135,162)"/>
<path d="M0 0 C2.475 0.495 2.475 0.495 5 1 C5 4 5 4 4 8 C2.68 5.36 1.36 2.72 0 0 Z " fill="#F8E9B6" transform="translate(34,130)"/>
<path d="M0 0 C0.66 0.33 1.32 0.66 2 1 C1.34 2.65 0.68 4.3 0 6 C-0.99 5.67 -1.98 5.34 -3 5 C-3 4.01 -3 3.02 -3 2 C-2.01 2 -1.02 2 0 2 C0 1.34 0 0.68 0 0 Z " fill="#FAF5E9" transform="translate(90,77)"/>
<path d="M0 0 C0.93423645 3.01031744 1.04449911 3.86650268 0 7 C-1.32 6.67 -2.64 6.34 -4 6 C-2.68 4.02 -1.36 2.04 0 0 Z " fill="#BB6739" transform="translate(21,45)"/>
<path d="M0 0 C-1.36983503 3.16115776 -1.9890638 3.9927092 -5 6 C-5.33 5.01 -5.66 4.02 -6 3 C-3.375 0 -3.375 0 0 0 Z " fill="#B9551A" transform="translate(32,36)"/>
<path d="M0 0 C3.82097239 0.53069061 6.06171403 1.49701566 9 4 C8.67 4.66 8.34 5.32 8 6 C6.66402348 5.19185349 5.331275 4.37836819 4 3.5625 C3.2575 3.11003906 2.515 2.65757812 1.75 2.19140625 C1.1725 1.79824219 0.595 1.40507812 0 1 C0 0.67 0 0.34 0 0 Z " fill="#B66237" transform="translate(39,178)"/>
<path d="M0 0 C0.99 0 1.98 0 3 0 C2.67 1.98 2.34 3.96 2 6 C1.34 6 0.68 6 0 6 C-0.38218767 4.34385343 -0.71395102 2.67542976 -1 1 C-0.67 0.67 -0.34 0.34 0 0 Z " fill="#FCF9DE" transform="translate(100,164)"/>
<path d="M0 0 C1.65 0.33 3.3 0.66 5 1 C5 2.32 5 3.64 5 5 C2.525 4.01 2.525 4.01 0 3 C0 2.01 0 1.02 0 0 Z " fill="#F8E9BC" transform="translate(56,155)"/>
<path d="M0 0 C0.66 0 1.32 0 2 0 C1.67 1.98 1.34 3.96 1 6 C-0.32 5.67 -1.64 5.34 -3 5 C-1.125 1.125 -1.125 1.125 0 0 Z " fill="#603D2D" transform="translate(82,76)"/>
<path d="M0 0 C1.1446875 0.3403125 1.1446875 0.3403125 2.3125 0.6875 C1.714375 0.955625 1.11625 1.22375 0.5 1.5 C-1.68466585 2.68596146 -3.01985279 3.8682485 -4.6875 5.6875 C-5.3475 6.3475 -6.0075 7.0075 -6.6875 7.6875 C-6.32553085 5.00892828 -5.94762724 3.07769086 -4.4375 0.8125 C-2.6875 -0.3125 -2.6875 -0.3125 0 0 Z " fill="#EFD8C0" transform="translate(112.6875,74.3125)"/>
<path d="M0 0 C0.8971875 0.5259375 0.8971875 0.5259375 1.8125 1.0625 C0.8225 1.5575 0.8225 1.5575 -0.1875 2.0625 C-1.1775 1.7325 -2.1675 1.4025 -3.1875 1.0625 C-3.1875 1.7225 -3.1875 2.3825 -3.1875 3.0625 C-4.5075 3.3925 -5.8275 3.7225 -7.1875 4.0625 C-6.375 2.125 -6.375 2.125 -5.1875 0.0625 C-2.1875 -0.9375 -2.1875 -0.9375 0 0 Z " fill="#C5591C" transform="translate(44.1875,53.9375)"/>
<path d="M0 0 C1.32 0 2.64 0 4 0 C4 0.66 4 1.32 4 2 C4.99 2 5.98 2 7 2 C7 2.66 7 3.32 7 4 C2.545 3.01 2.545 3.01 -2 2 C-1.34 1.34 -0.68 0.68 0 0 Z " fill="#B46130" transform="translate(119,31)"/>
</svg>
