<?xml version="1.0" encoding="UTF-8"?>
<svg version="1.1" xmlns="http://www.w3.org/2000/svg" width="229" height="220">
<path d="M0 0 C14.01916638 10.40579765 30.08773572 24.22418865 34.7265625 41.74609375 C35.77612382 50.45192873 34.9169075 57.56313354 29.7265625 64.74609375 C27.51524063 67.20139685 25.23796182 69.49493601 22.8125 71.73828125 C19.44709725 74.97763896 17.54360347 77.32909671 16.9140625 81.99609375 C15.19054454 90.54362183 8.58941726 96.76204334 1.7265625 101.74609375 C0.4910009 102.31993198 -0.75964743 102.86243136 -2.0234375 103.37109375 C-6.73074983 105.55208788 -9.76183503 109.24243662 -13.13647461 113.05004883 C-18.46583645 119.05372127 -24.14403698 124.67416877 -29.86669922 130.30126953 C-33.23442316 133.63174813 -36.51981792 136.96858679 -39.59765625 140.5703125 C-44.81104445 146.63230494 -50.61554926 152.14394483 -56.30322266 157.75537109 C-61.63475087 163.0218598 -66.9195146 168.27479679 -71.75585938 174.00976562 C-72.25666016 174.58275391 -72.75746094 175.15574219 -73.2734375 175.74609375 C-73.84835938 176.44822998 -74.42328125 177.15036621 -75.015625 177.8737793 C-78.07621372 180.41180427 -80.50572517 180.64864734 -84.4296875 181.234375 C-85.16215698 181.34920731 -85.89462646 181.46403961 -86.64929199 181.58235168 C-88.28836416 181.83916808 -89.92845642 182.0895303 -91.56933594 182.33453369 C-95.49998583 182.9327725 -99.41908826 183.5967317 -103.34033203 184.25338745 C-107.69923768 184.97980275 -112.06140694 185.68543052 -116.42382812 186.39038086 C-118.6717076 186.754924 -120.91910095 187.12247652 -123.16601562 187.49291992 C-126.46116439 188.03598982 -129.75770385 188.56976003 -133.0546875 189.1015625 C-134.04859497 189.26714157 -135.04250244 189.43272064 -136.06652832 189.60331726 C-141.8741158 190.52764809 -147.3926799 191.17432873 -153.2734375 190.74609375 C-156.23857028 188.36254684 -156.84928834 186.5088531 -157.2734375 182.74609375 C-157.25783587 180.98531431 -157.17472295 179.22436496 -157.0390625 177.46875 C-156.96107422 176.41582764 -156.88308594 175.36290527 -156.80273438 174.27807617 C-156.71056641 173.13314697 -156.61839844 171.98821777 -156.5234375 170.80859375 C-156.43126953 169.60887939 -156.33910156 168.40916504 -156.24414062 167.1730957 C-156.03857802 164.50934698 -155.83025677 161.8459211 -155.61914062 159.18261719 C-155.30674211 155.21372587 -155.01497591 151.24351054 -154.72698975 147.27278137 C-154.47707375 143.83992661 -154.22051299 140.40758622 -153.96276855 136.97531128 C-153.83723307 135.29003182 -153.7139172 133.60458545 -153.59289551 131.91897583 C-153.42052652 129.53133416 -153.23868257 127.1445828 -153.0546875 124.7578125 C-153.00572327 124.05153717 -152.95675903 123.34526184 -152.90631104 122.61758423 C-152.39066136 116.15372048 -151.67822395 110.44097661 -146.82421875 105.84375 C-145.79844727 104.84891602 -145.79844727 104.84891602 -144.75195312 103.83398438 C-143.67977539 102.83141602 -143.67977539 102.83141602 -142.5859375 101.80859375 C-141.18370976 100.468745 -139.78395567 99.12630253 -138.38671875 97.78125 C-137.3505542 96.78472412 -137.3505542 96.78472412 -136.29345703 95.76806641 C-133.70374102 93.17584644 -131.33058055 90.43001034 -128.94604492 87.65014648 C-126.36026882 84.7065663 -123.57446773 81.98287823 -120.7734375 79.24609375 C-116.62956902 75.15406044 -112.65046448 71.01236997 -108.87890625 66.5703125 C-106.46441062 63.82683449 -103.84132951 61.30526573 -101.23828125 58.7421875 C-99.35113006 56.82502198 -97.58658375 54.85034053 -95.8359375 52.80859375 C-93.22940752 49.77261261 -90.49671869 46.93171172 -87.6484375 44.12109375 C-81.22126206 37.82906414 -81.22126206 37.82906414 -76.7109375 30.12109375 C-74.68641596 25.78643353 -71.61863668 22.7127922 -68.2734375 19.37109375 C-67.48924438 18.58484619 -67.48924438 18.58484619 -66.68920898 17.78271484 C-62.82558939 14.02745536 -60.11836697 12.15986984 -54.89453125 10.98828125 C-50.4227745 9.45428055 -48.41864238 7.31846949 -45.3359375 3.87109375 C-32.64354364 -9.55985329 -15.29068587 -10.52831235 0 0 Z " fill="#7C3B0D" transform="translate(176.2734375,14.25390625)"/>
<path d="M0 0 C14.01916638 10.40579765 30.08773572 24.22418865 34.7265625 41.74609375 C35.77612382 50.45192873 34.9169075 57.56313354 29.7265625 64.74609375 C27.51524063 67.20139685 25.23796182 69.49493601 22.8125 71.73828125 C19.44709725 74.97763896 17.54360347 77.32909671 16.9140625 81.99609375 C15.22568009 90.36937239 8.64715221 97.03907501 1.7265625 101.74609375 C-0.2520442 102.47380246 -2.2500956 103.15403632 -4.2734375 103.74609375 C-4.61375 103.00746094 -4.9540625 102.26882812 -5.3046875 101.5078125 C-9.97597748 91.73040502 -15.49688697 83.32324555 -23.2734375 75.74609375 C-24.34747718 74.33815573 -25.40864525 72.92035907 -26.4609375 71.49609375 C-32.10626213 64.1203544 -39.21966716 58.27501405 -46.77734375 52.9375 C-48.2734375 51.74609375 -48.2734375 51.74609375 -49.2734375 49.74609375 C-52.39668294 51.13238619 -54.51534457 52.74120946 -56.91796875 55.16015625 C-57.93407227 56.17916016 -57.93407227 56.17916016 -58.97070312 57.21875 C-59.66873047 57.92902344 -60.36675781 58.63929687 -61.0859375 59.37109375 C-61.77236328 60.05816406 -62.45878906 60.74523437 -63.16601562 61.453125 C-67.15885236 65.4799594 -70.9541301 69.62353524 -74.65893555 73.91552734 C-76.92281469 76.48237534 -79.32438652 78.85466749 -81.7734375 81.24609375 C-85.58213084 84.99759169 -89.19310626 88.85199144 -92.6640625 92.91796875 C-94.84201203 95.39195025 -97.18872624 97.67173136 -99.5390625 99.98046875 C-101.28546169 101.75833459 -102.90562989 103.6009477 -104.5234375 105.49609375 C-108.01968269 109.56706418 -111.79022487 113.32195302 -115.62988281 117.06542969 C-118.29298784 119.64469886 -118.29298784 119.64469886 -120.2734375 122.74609375 C-120.9334375 122.74609375 -121.5934375 122.74609375 -122.2734375 122.74609375 C-123.21408689 121.30152505 -124.15358851 119.85618978 -125.0859375 118.40625 C-129.15342389 112.71979699 -133.7332264 110.98647861 -140.2734375 109.74609375 C-140.2734375 109.08609375 -140.2734375 108.42609375 -140.2734375 107.74609375 C-138.78271484 106.29418945 -138.78271484 106.29418945 -136.734375 104.609375 C-132.46587026 100.97842299 -128.67905741 97.06227073 -124.8984375 92.93359375 C-120.59897206 88.28760422 -116.28067292 83.691303 -111.7734375 79.24609375 C-108.35547699 75.8731805 -105.17018053 72.39004972 -102.05078125 68.7421875 C-100.04074973 66.48476749 -97.92510797 64.36873662 -95.7734375 62.24609375 C-93.0490221 59.55830915 -90.44083438 56.84792512 -87.9609375 53.93359375 C-83.06987279 48.21962479 -77.62741591 43.02094932 -72.2734375 37.74609375 C-73.7584375 37.25109375 -73.7584375 37.25109375 -75.2734375 36.74609375 C-75.2734375 36.08609375 -75.2734375 35.42609375 -75.2734375 34.74609375 C-76.7584375 35.24109375 -76.7584375 35.24109375 -78.2734375 35.74609375 C-76.4628103 26.03454785 -69.62704379 19.89075449 -62.2734375 13.74609375 C-59.74579087 12.13941144 -57.86486244 11.65445958 -54.89453125 10.98828125 C-50.4227745 9.45428055 -48.41864238 7.31846949 -45.3359375 3.87109375 C-32.64354364 -9.55985329 -15.29068587 -10.52831235 0 0 Z " fill="#565556" transform="translate(176.2734375,14.25390625)"/>
<path d="M0 0 C2.92181548 1.16067152 5.00085982 3.01819921 7.40356445 5.03100586 C8.33040039 5.79928711 9.25723633 6.56756836 10.2121582 7.35913086 C14.92301305 11.5020103 19.0171545 15.92948792 22.96606445 20.78100586 C21.54306172 25.26994641 19.3339423 27.7522961 15.9855957 31.01928711 C15.24897957 31.74597847 15.24897957 31.74597847 14.4974823 32.48735046 C12.93149518 34.03005003 11.35571987 35.56223309 9.77856445 37.09350586 C7.71871287 39.10652076 5.66326228 41.12394729 3.6105957 43.14428711 C3.11206085 43.63414093 2.613526 44.12399475 2.09988403 44.62869263 C-1.23367148 47.92651633 -4.3510684 51.34378516 -7.390625 54.91064453 C-11.05620193 59.08268209 -15.11041348 62.89433287 -19.07299805 66.78100586 C-23.01570555 70.67804493 -26.73825546 74.67935366 -30.35522461 78.87963867 C-32.90944419 81.77263782 -35.646522 84.46352683 -38.40893555 87.15600586 C-42.17419781 90.61769608 -42.17419781 90.61769608 -45.03393555 94.78100586 C-45.69393555 94.78100586 -46.35393555 94.78100586 -47.03393555 94.78100586 C-47.28143555 93.91475586 -47.52893555 93.04850586 -47.78393555 92.15600586 C-50.82216652 83.95278224 -56.18905577 78.25212575 -64.0300293 74.56225586 C-66.66107416 73.53650737 -69.23077079 73.06132234 -72.03393555 72.78100586 C-70.92018555 71.69819336 -70.92018555 71.69819336 -69.78393555 70.59350586 C-67.07043355 67.91141126 -67.07043355 67.91141126 -65.03393555 65.28100586 C-62.87336673 62.58029483 -60.49190223 60.20376932 -58.03393555 57.78100586 C-55.40611146 55.17967482 -52.7821126 52.57452194 -50.15893555 49.96850586 C-49.47702148 49.2949707 -48.79510742 48.62143555 -48.0925293 47.92749023 C-44.15296776 44.00668852 -40.42924556 39.97930089 -36.80200195 35.76953125 C-33.74227119 32.32828476 -30.44607211 29.12817925 -27.15893555 25.90600586 C-25.82592365 24.59843312 -24.49507939 23.28864571 -23.16674805 21.97631836 C-22.58812012 21.40929199 -22.00949219 20.84226562 -21.41333008 20.25805664 C-19.9302062 18.8099042 -19.9302062 18.8099042 -19.03393555 16.78100586 C-18.37393555 16.78100586 -17.71393555 16.78100586 -17.03393555 16.78100586 C-16.76371582 16.18843994 -16.49349609 15.59587402 -16.21508789 14.98535156 C-14.30511325 11.42082882 -11.48607627 8.8236689 -8.65893555 5.96850586 C-8.08143555 5.35813477 -7.50393555 4.74776367 -6.90893555 4.11889648 C-6.06202148 3.26134766 -6.06202148 3.26134766 -5.19799805 2.38647461 C-4.6870459 1.86206787 -4.17609375 1.33766113 -3.6496582 0.79736328 C-2.03393555 -0.21899414 -2.03393555 -0.21899414 0 0 Z " fill="#D57F2B" transform="translate(129.033935546875,66.218994140625)"/>
<path d="M0 0 C9.92957059 0.62735849 9.92957059 0.62735849 14 4 C16.80333268 7.5820362 18.46608326 10.46170772 19 15 C19.99 14.938125 20.98 14.87625 22 14.8125 C28.06388901 14.8125 34.20180959 17.36893699 39 21 C43.45739738 25.9756994 45.83685461 31.1660833 46.125 37.9375 C46.08375 38.618125 46.0425 39.29875 46 40 C46.825 40.04125 47.65 40.0825 48.5 40.125 C53.53205417 41.38301354 58.34000261 44.27396614 61.10058594 48.80737305 C62.122519 51.29868163 62.20380075 53.07077434 62.125 55.75 C62.10695313 56.54921875 62.08890625 57.3484375 62.0703125 58.171875 C62.04710938 58.77515625 62.02390625 59.3784375 62 60 C56.39564905 60.85921955 50.79058636 61.71357698 45.18481445 62.56347656 C43.27868742 62.85316251 41.37276013 63.14416601 39.46704102 63.43652344 C36.72463863 63.8570013 33.98154815 64.27270468 31.23828125 64.6875 C30.38913651 64.81874268 29.53999176 64.94998535 28.66511536 65.08520508 C24.74106341 65.67409058 20.98206332 66.16990137 17 66 C16.505 64.845 16.01 63.69 15.5 62.5 C11.23436447 54.05853179 4.81356073 49.10106766 -4 46 C-4.26593991 36.78074967 -3.86341682 27.69167812 -3.125 18.5 C-3.04652832 17.47390625 -2.96805664 16.4478125 -2.88720703 15.390625 C-2.4286386 10.01102758 -1.71312403 5.1249761 0 0 Z " fill="#F5D195" transform="translate(32,129)"/>
<path d="M0 0 C5.38583777 0.80491641 7.8186796 4.92296804 11 9 C12.8125 11.75 12.8125 11.75 14 14 C14.5878125 15.051875 14.5878125 15.051875 15.1875 16.125 C16 18 16 18 16 21 C14.34808509 22.35156675 12.67705908 23.679762 11 25 C9.92936952 26.18054049 8.88329315 27.38357134 7.85546875 28.6015625 C3.90171276 33.18011469 -0.32456587 37.43645249 -4.625 41.6875 C-5.73101562 42.78674805 -5.73101562 42.78674805 -6.859375 43.90820312 C-9.79081547 46.82125643 -12.72639022 49.72999562 -15.66796875 52.6328125 C-18.4144552 55.42070327 -21.05151244 58.29565007 -23.6875 61.1875 C-28.2464643 66.16431643 -32.93821634 70.96875375 -37.7421875 75.7109375 C-40.46652516 78.47298226 -43.01605365 81.35304594 -45.52734375 84.30859375 C-46.96424735 85.95893661 -48.36539029 87.54354939 -50 89 C-50.66 89 -51.32 89 -52 89 C-52 89.66 -52 90.32 -52 91 C-52.66 91 -53.32 91 -54 91 C-54.17015625 90.40832031 -54.3403125 89.81664062 -54.515625 89.20703125 C-56.5327678 82.62985819 -58.63429134 78.23855664 -64.75 74.6875 C-65.8225 74.130625 -66.895 73.57375 -68 73 C-67.44719183 69.32262389 -66.18062192 67.97653445 -63.3125 65.6875 C-59.84900364 62.81472564 -57.00537994 59.8168935 -54.2265625 56.28515625 C-53.61941406 55.64900391 -53.61941406 55.64900391 -53 55 C-52.34 55 -51.68 55 -51 55 C-50.773125 54.4225 -50.54625 53.845 -50.3125 53.25 C-48.65273655 50.40469122 -46.57933333 49.06346666 -44 47 C-42.95803502 45.85216692 -41.93951596 44.68286762 -40.9375 43.5 C-37.29497338 39.22642162 -33.35302781 35.31611822 -29.35571289 31.37988281 C-26.55268321 28.60397206 -23.88956141 25.79589379 -21.375 22.75 C-20.59125 21.8425 -19.8075 20.935 -19 20 C-18.34 20 -17.68 20 -17 20 C-16.5968457 19.10680054 -16.5968457 19.10680054 -16.18554688 18.19555664 C-14.99645396 15.99343296 -13.820257 14.60232843 -12.03125 12.87109375 C-11.46019531 12.31099609 -10.88914063 11.75089844 -10.30078125 11.17382812 C-9.70652344 10.60083984 -9.11226562 10.02785156 -8.5 9.4375 C-7.32065437 8.29269053 -6.14348348 7.14563543 -4.96875 5.99609375 C-4.18661133 5.24090454 -4.18661133 5.24090454 -3.38867188 4.47045898 C-1.7743892 2.84358092 -1.7743892 2.84358092 0 0 Z " fill="#B76019" transform="translate(153,92)"/>
<path d="M0 0 C13.70869292 7.70212089 25.48856638 19.32661671 33.875 32.5625 C34.41253906 33.40167969 34.95007813 34.24085937 35.50390625 35.10546875 C38.24307738 40.01412585 38.49782939 45.03946882 37.875 50.5625 C35.76838074 57.89296566 30.01759471 63.20013629 24.875 68.5625 C20.95922473 67.25724158 20.76067294 65.91413532 18.875 62.3125 C14.71236252 54.94043404 9.57440526 48.7945782 3.875 42.5625 C2.55822266 41.12003906 2.55822266 41.12003906 1.21484375 39.6484375 C-9.63425317 28.30402098 -22.63730252 20.3830977 -36.125 12.5625 C-33.25405846 6.2074061 -27.86208615 1.0534126 -21.4765625 -1.76953125 C-14.01174664 -3.88993575 -6.99678741 -3.26213855 0 0 Z " fill="#F19799" transform="translate(167.125,16.4375)"/>
<path d="M0 0 C7.244298 2.13766171 13.46718285 5.22684019 20 9 C20 13 20 13 18.55053711 14.88769531 C17.8828833 15.52803711 17.21522949 16.16837891 16.52734375 16.828125 C15.79193359 17.54613281 15.05652344 18.26414062 14.29882812 19.00390625 C13.1299707 20.11572266 13.1299707 20.11572266 11.9375 21.25 C6.93980311 26.07211371 2.10972622 30.9084029 -2.41186523 36.18261719 C-4.65882195 38.75392323 -7.05657034 41.11406281 -9.5 43.5 C-13.30869334 47.25149794 -16.91966876 51.10589769 -20.390625 55.171875 C-22.56857453 57.6458565 -24.91528874 59.92563761 -27.265625 62.234375 C-29.01202419 64.01224084 -30.63219239 65.85485395 -32.25 67.75 C-35.74624519 71.82097043 -39.51678737 75.57585927 -43.35644531 79.31933594 C-46.01955034 81.89860511 -46.01955034 81.89860511 -48 85 C-48.66 85 -49.32 85 -50 85 C-50.94064939 83.5554313 -51.88015101 82.11009603 -52.8125 80.66015625 C-56.87998639 74.97370324 -61.4597889 73.24038486 -68 72 C-68 71.34 -68 70.68 -68 70 C-66.50927734 68.5480957 -66.50927734 68.5480957 -64.4609375 66.86328125 C-60.19243276 63.23232924 -56.40561991 59.31617698 -52.625 55.1875 C-48.32553456 50.54151047 -44.00723542 45.94520925 -39.5 41.5 C-36.08203949 38.12708675 -32.89674303 34.64395597 -29.77734375 30.99609375 C-27.76731223 28.73867374 -25.65167047 26.62264287 -23.5 24.5 C-20.7755846 21.8122154 -18.16739688 19.10183137 -15.6875 16.1875 C-10.79643529 10.47353104 -5.35397841 5.27485557 0 0 Z " fill="#E0933F" transform="translate(104,52)"/>
<path d="M0 0 C1.98437852 0.86115501 3.88317777 1.80912722 5.79101562 2.82861328 C6.48420898 3.18914795 7.17740234 3.54968262 7.89160156 3.92114258 C29.60589579 15.54664934 48.64451616 35.08645715 59.04101562 57.39111328 C59.73178065 61.12124443 59.7938426 63.29478328 57.61132812 66.47314453 C55.82823131 68.53556767 53.98089374 70.47615866 52.04101562 72.39111328 C51.23664063 73.21611328 50.43226563 74.04111328 49.60351562 74.89111328 C49.08789062 75.38611328 48.57226562 75.88111328 48.04101562 76.39111328 C45.04101562 75.39111328 45.04101562 75.39111328 43.71679688 73.27392578 C43.26691406 72.36384766 42.81703125 71.45376953 42.35351562 70.51611328 C34.19577734 55.07397122 21.63166898 41.32696159 8.04101562 30.39111328 C7.23921875 29.74013672 6.43742187 29.08916016 5.61132812 28.41845703 C-2.57245134 22.116704 -12.12212374 16.67006683 -21.95898438 13.39111328 C-20.45458371 9.96703467 -18.45307085 7.47736754 -15.95898438 4.70361328 C-15.25773437 3.91599609 -14.55648437 3.12837891 -13.83398438 2.31689453 C-10.0425331 -1.57724188 -5.0070267 -1.55627176 0 0 Z " fill="#B4B9BC" transform="translate(127.958984375,33.60888671875)"/>
<path d="M0 0 C0.33 0 0.66 0 1 0 C1.33 1.65 1.66 3.3 2 5 C2.66 4.67 3.32 4.34 4 4 C4.11813543 14.72407184 3.87157852 25.30759925 3 36 C3.76570313 36.13148438 4.53140625 36.26296875 5.3203125 36.3984375 C12.70804106 38.05690718 18.70568856 44.74355795 22.9375 50.75 C24 53 24 53 24 56 C24.8657666 55.85377197 25.7315332 55.70754395 26.62353516 55.55688477 C29.90672131 55.00560514 33.19079338 54.46029465 36.47558594 53.91870117 C37.88384662 53.68532403 39.29174185 53.44972834 40.69921875 53.21166992 C50.13623546 51.61748817 59.43043439 50.49510712 69 50 C69 48.02 69 46.04 69 44 C69.66 44.99 70.32 45.98 71 47 C75.455 46.505 75.455 46.505 80 46 C80.33 45.01 80.66 44.02 81 43 C81.99 43 82.98 43 84 43 C81.60743791 48.16654712 78.71513713 51.75629672 74 55 C70.69555664 55.89355469 70.69555664 55.89355469 66.78515625 56.484375 C65.69279663 56.65704643 65.69279663 56.65704643 64.57836914 56.83320618 C62.94948003 57.09039533 61.31961686 57.34146636 59.68899536 57.58743286 C56.81303495 58.02868567 53.94367573 58.50193662 51.07397461 58.98217773 C45.66856345 59.88672779 40.25999079 60.76999047 34.84960938 61.64428711 C32.6017299 62.00883025 30.35433655 62.37638277 28.10742188 62.74682617 C24.81227311 63.28989607 21.51573365 63.82366628 18.21875 64.35546875 C17.22484253 64.52104782 16.23093506 64.68662689 15.20690918 64.85722351 C9.3993217 65.78155434 3.8807576 66.42823498 -2 66 C-4.96809594 63.60747104 -5.5894839 61.77627 -6 58 C-5.96201102 55.93404966 -5.85439514 53.86876042 -5.6953125 51.80859375 C-5.60636719 50.61556641 -5.51742188 49.42253906 -5.42578125 48.19335938 C-5.32652344 46.95392578 -5.22726563 45.71449219 -5.125 44.4375 C-5.03347656 43.22513672 -4.94195313 42.01277344 -4.84765625 40.76367188 C-4.66365583 38.34704659 -4.47393256 35.93084982 -4.27832031 33.51513672 C-4.09585422 31.210622 -3.9280093 28.9048926 -3.77636719 26.59814453 C-3.70321289 25.5461084 -3.63005859 24.49407227 -3.5546875 23.41015625 C-3.49522949 22.48468994 -3.43577148 21.55922363 -3.37451172 20.60571289 C-2.97325265 17.81390188 -2.0844212 15.59299532 -1 13 C-0.71878758 10.73703593 -0.51295111 8.46369338 -0.375 6.1875 C-0.26285156 4.44533203 -0.26285156 4.44533203 -0.1484375 2.66796875 C-0.09945313 1.78753906 -0.05046875 0.90710938 0 0 Z " fill="#6A3B1A" transform="translate(25,139)"/>
<path d="M0 0 C14.01916638 10.40579765 30.08773572 24.22418865 34.7265625 41.74609375 C35.77570396 50.44844609 34.92004962 57.56791018 29.7265625 64.74609375 C27.45011998 67.26602672 25.1071275 69.62504011 22.6171875 71.93359375 C20.65275492 73.61356943 20.65275492 73.61356943 19.7265625 75.74609375 C19.0665625 75.74609375 18.4065625 75.74609375 17.7265625 75.74609375 C16.1015625 73.74609375 16.1015625 73.74609375 14.7265625 71.74609375 C15.32984375 71.04484375 15.933125 70.34359375 16.5546875 69.62109375 C25.68599198 59.1126966 25.68599198 59.1126966 28.04296875 45.8984375 C25.87746517 31.16766624 10.70686411 17.52697715 -0.2734375 8.74609375 C-9.61093186 2.3895196 -16.85529168 -0.30959856 -28.2734375 0.74609375 C-35.17353975 2.40591216 -39.33238417 7.64806728 -43.87890625 12.796875 C-46.2734375 14.74609375 -46.2734375 14.74609375 -49.07421875 14.5390625 C-49.79996094 14.27738281 -50.52570313 14.01570313 -51.2734375 13.74609375 C-50.66081411 6.56406204 -44.40665806 2.19397111 -39.2734375 -2.25390625 C-27.09581533 -10.43351511 -11.57681355 -7.97114728 0 0 Z " fill="#74361E" transform="translate(176.2734375,14.25390625)"/>
<path d="M0 0 C0 0.66 0 1.32 0 2 C1.32 2.33 2.64 2.66 4 3 C3.49138428 3.50337891 2.98276855 4.00675781 2.45874023 4.52539062 C0.11559272 6.84751978 -2.22346602 9.1737277 -4.5625 11.5 C-5.36236328 12.29148437 -6.16222656 13.08296875 -6.98632812 13.8984375 C-11.32924258 18.22362577 -15.49743198 22.62290435 -19.49194336 27.27148438 C-21.3961486 29.45406056 -23.4216235 31.48366459 -25.5 33.5 C-28.20383393 36.16754086 -30.79255535 38.85459492 -33.25 41.75 C-37.00789048 46.14005898 -41.11975642 50.14669368 -45.22583008 54.20629883 C-48.81568843 57.77118064 -52.22222464 61.42781171 -55.5078125 65.27734375 C-57.87725833 68.01275111 -60.34922251 70.53416048 -63 73 C-63.66 73 -64.32 73 -65 73 C-65 73.66 -65 74.32 -65 75 C-64.13375 74.9175 -63.2675 74.835 -62.375 74.75 C-58.24011993 75.05628741 -56.25357303 76.52108722 -53 79 C-53.33 79.66 -53.66 80.32 -54 81 C-53.34 81.33 -52.68 81.66 -52 82 C-52 82.66 -52 83.32 -52 84 C-52.66 84 -53.32 84 -54 84 C-54.33 84.66 -54.66 85.32 -55 86 C-55.391875 85.54625 -55.78375 85.0925 -56.1875 84.625 C-60.29399708 80.94331296 -63.45706503 81 -69 81 C-69.66 86.28 -70.32 91.56 -71 97 C-71.66 96.34 -72.32 95.68 -73 95 C-73.99 95.495 -73.99 95.495 -75 96 C-75.68931344 98.34907875 -75.68931344 98.34907875 -76.125 101.0625 C-76.29257813 101.98160156 -76.46015625 102.90070313 -76.6328125 103.84765625 C-76.75398438 104.55792969 -76.87515625 105.26820313 -77 106 C-77.33 106 -77.66 106 -78 106 C-79.0510288 79.49071798 -79.0510288 79.49071798 -73 72.5 C-71.69399067 71.30282478 -70.35777172 70.13813218 -69 69 C-67.32261555 67.34412048 -65.65653523 65.67673688 -64 64 C-63.14019531 63.15050781 -62.28039062 62.30101562 -61.39453125 61.42578125 C-59.39739109 59.40257727 -57.52509316 57.35339764 -55.6875 55.1875 C-51.95257632 50.81382453 -47.85603325 46.82944145 -43.76953125 42.7890625 C-40.21587021 39.26007966 -36.84815639 35.64338419 -33.60546875 31.82421875 C-31.19097312 29.08074074 -28.56789201 26.55917198 -25.96484375 23.99609375 C-24.07769256 22.07892823 -22.31314625 20.10424678 -20.5625 18.0625 C-16.61154881 13.46815997 -12.31802624 9.24619216 -8 5 C-7.29230469 4.27296875 -6.58460937 3.5459375 -5.85546875 2.796875 C-3.81722748 0.82299925 -2.8519202 0 0 0 Z " fill="#743E1A" transform="translate(101,49)"/>
<path d="M0 0 C0.33 0 0.66 0 1 0 C1 1.65 1 3.3 1 5 C1.825 5.04125 2.65 5.0825 3.5 5.125 C8.53205417 6.38301354 13.34000261 9.27396614 16.10058594 13.80737305 C17.122519 16.29868163 17.20380075 18.07077434 17.125 20.75 C17.10695312 21.54921875 17.08890625 22.3484375 17.0703125 23.171875 C17.04710937 23.77515625 17.02390625 24.3784375 17 25 C11.39564905 25.85921955 5.79058636 26.71357698 0.18481445 27.56347656 C-1.72131258 27.85316251 -3.62723987 28.14416601 -5.53295898 28.43652344 C-8.27536137 28.8570013 -11.01845185 29.27270468 -13.76171875 29.6875 C-14.61086349 29.81874268 -15.46000824 29.94998535 -16.33488464 30.08520508 C-20.25893659 30.67409058 -24.01793668 31.16990137 -28 31 C-29.66666667 27.66666667 -31.33333333 24.33333333 -33 21 C-29.7 20.34 -26.4 19.68 -23 19 C-23 18.34 -23 17.68 -23 17 C-9.3667426 9.51708428 -9.3667426 9.51708428 -3 7 C-3.33 6.34 -3.66 5.68 -4 5 C-3.01 4.67 -2.02 4.34 -1 4 C-0.26676204 1.98491642 -0.26676204 1.98491642 0 0 Z " fill="#E8B974" transform="translate(77,164)"/>
<path d="M0 0 C9.92957059 0.62735849 9.92957059 0.62735849 14 4 C17.36521927 8.09283425 18.50464541 10.70122324 18 16 C17.34 16 16.68 16 16 16 C14.41678933 21.47774766 14.41678933 21.47774766 13 27 C12.34 27 11.68 27 11 27 C10.9175 28.175625 10.835 29.35125 10.75 30.5625 C10.3685979 33.7371116 9.65981873 35.95721847 8 38.6875 C6.20132494 41.66655556 5.4118311 43.60239344 5 47 C5.66 47.33 6.32 47.66 7 48 C2.73566065 48.19834137 -0.10336348 47.68610848 -4 46 C-4.26593991 36.78074967 -3.86341682 27.69167812 -3.125 18.5 C-3.04652832 17.47390625 -2.96805664 16.4478125 -2.88720703 15.390625 C-2.4286386 10.01102758 -1.71312403 5.1249761 0 0 Z " fill="#F5DBAD" transform="translate(32,129)"/>
<path d="M0 0 C7.13950916 6.50955247 13.91204222 15.52160311 14.4375 25.4375 C14.0101096 35.16885072 7.43204303 41.29308333 1 48 C-2.97797695 46.67400768 -3.33424213 45.07112768 -5.3125 41.4375 C-8.1995453 36.2961023 -11.31117768 31.59413769 -15 27 C-13.35 26.67 -11.7 26.34 -10 26 C-10 25.34 -10 24.68 -10 24 C-8.57421875 22.73828125 -8.57421875 22.73828125 -6.6875 21.3125 C-3.01251152 18.21777286 -1.31749954 15.72749836 0 11 C0.21897843 7.31718102 0.1798494 3.68358219 0 0 Z " fill="#E07778" transform="translate(191,37)"/>
<path d="M0 0 C2.0877268 0.9443643 4.09941825 1.97232134 6.11572266 3.06054688 C6.80085938 3.40859375 7.48599609 3.75664063 8.19189453 4.11523438 C12.10775686 6.1504275 15.6654849 8.29489023 18.92822266 11.31054688 C18.92822266 11.97054687 18.92822266 12.63054688 18.92822266 13.31054688 C18.04134766 13.68179688 17.15447266 14.05304687 16.24072266 14.43554688 C10.91894263 17.44787519 7.80498039 21.50965933 5.92822266 27.31054688 C2.51820058 26.05703702 -0.254169 24.61829129 -3.19677734 22.49804688 C-9.03201145 18.50345708 -15.36705538 15.5454542 -22.07177734 13.31054688 C-20.56737667 9.88646827 -18.56586382 7.39680114 -16.07177734 4.62304688 C-15.37052734 3.83542969 -14.66927734 3.0478125 -13.94677734 2.23632812 C-10.11431031 -1.69993489 -5.02507457 -1.67226144 0 0 Z " fill="#BFC3C5" transform="translate(128.07177734375,33.689453125)"/>
<path d="M0 0 C3.82267864 3.56872446 6.52914841 7.10755557 9.25 11.625 C9.93578125 12.75164062 10.6215625 13.87828125 11.328125 15.0390625 C13.87491248 19.54949454 14.67663892 22.84062821 14 28 C11.97414888 30.98312142 9.5609122 33.47199032 7 36 C6.195625 36.825 5.39125 37.65 4.5625 38.5 C4.046875 38.995 3.53125 39.49 3 40 C0 39 0 39 -1.32421875 36.8828125 C-1.77410156 35.97273438 -2.22398437 35.06265625 -2.6875 34.125 C-5.47325928 28.77046268 -8.7360923 24.03036888 -12.36328125 19.21484375 C-14 17 -14 17 -15 15 C-13.948125 14.608125 -12.89625 14.21625 -11.8125 13.8125 C-6.63346943 11.56302208 -3.43697792 8.36653057 -1.1875 3.1875 C-0.795625 2.135625 -0.40375 1.08375 0 0 Z " fill="#929698" transform="translate(173,70)"/>
<path d="M0 0 C1.5625 1.25 1.5625 1.25 3 3 C2.59413211 6.11257861 1.56988549 7.82381124 -0.5625 10.07421875 C-1.10382568 10.65099365 -1.64515137 11.22776855 -2.20288086 11.82202148 C-3.09245483 12.74543335 -3.09245483 12.74543335 -4 13.6875 C-4.92147827 14.66021851 -4.92147827 14.66021851 -5.86157227 15.65258789 C-11.48093641 21.54706016 -17.24067435 27.3043685 -23.04882812 33.01245117 C-26.30622281 36.22815432 -29.45902608 39.47105416 -32.4453125 42.94140625 C-36.38800463 47.51963681 -40.64328862 51.75362474 -44.9375 56 C-46.10635742 57.16208984 -46.10635742 57.16208984 -47.29882812 58.34765625 C-49.1969242 60.23410757 -51.09733149 62.11816245 -53 64 C-53.66 63.67 -54.32 63.34 -55 63 C-54.43137108 59.70195229 -53.49977286 58.19980011 -51 56 C-50.34 55.34 -49.68 54.68 -49 54 C-50.65 54.66 -52.3 55.32 -54 56 C-50.65847228 51.9730307 -47.22623536 48.17579562 -43.5 44.5 C-40.31591044 41.35864989 -37.31627997 38.16434219 -34.484375 34.703125 C-30.90055592 30.59116416 -26.85862811 26.86448883 -22.98828125 23.0234375 C-21.57886924 21.62091989 -20.16946474 20.21839465 -18.76049805 18.81542969 C-17.79067565 17.85067633 -16.81996361 16.88681652 -15.84838867 15.92382812 C-14.43433389 14.52189993 -13.02375814 13.11646535 -11.61328125 11.7109375 C-10.35704956 10.46256104 -10.35704956 10.46256104 -9.07543945 9.18896484 C-6.86541181 6.98223158 -6.86541181 6.98223158 -5 4 C-4.34 4 -3.68 4 -3 4 C-2.67 3.01 -2.34 2.02 -2 1 C-1.34 0.67 -0.68 0.34 0 0 Z " fill="#65310F" transform="translate(169,112)"/>
<path d="M0 0 C0.33 1.32 0.66 2.64 1 4 C1.70125 4.0825 2.4025 4.165 3.125 4.25 C10.68048789 6.22099684 16.46229628 12.58996063 21 18.6875 C22 21 22 21 22.0625 23.1875 C20.38584133 26.04768243 18.13612883 26.14794673 15 27 C12.4035491 27.30437498 9.79705902 27.53128499 7.1875 27.6875 C6.50751953 27.73455078 5.82753906 27.78160156 5.12695312 27.83007812 C3.42018395 27.93387964 1.7097031 27.97259416 0 28 C-1.67030581 26.32969419 -1.13004336 24.30199205 -1.1328125 22.01171875 C-1.13410156 20.99529297 -1.13539062 19.97886719 -1.13671875 18.93164062 C-1.13091797 17.32579102 -1.13091797 17.32579102 -1.125 15.6875 C-1.12886719 14.62853516 -1.13273437 13.56957031 -1.13671875 12.47851562 C-1.13542969 11.45822266 -1.13414063 10.43792969 -1.1328125 9.38671875 C-1.13168457 8.45045654 -1.13055664 7.51419434 -1.12939453 6.54956055 C-1.01099063 4.21655694 -0.66004442 2.23281163 0 0 Z " fill="#524F4B" transform="translate(27,171)"/>
<path d="M0 0 C0.99 0.33 1.98 0.66 3 1 C1.68692751 3.91346593 0.28818412 5.9450979 -2.00390625 8.1640625 C-2.57947266 8.72867188 -3.15503906 9.29328125 -3.74804688 9.875 C-4.34681641 10.4525 -4.94558594 11.03 -5.5625 11.625 C-6.75349384 12.78160151 -7.94240005 13.94035778 -9.12890625 15.1015625 C-9.65556885 15.61025879 -10.18223145 16.11895508 -10.72485352 16.64306641 C-12.1164217 17.99400105 -12.1164217 17.99400105 -13 20 C-13.66 20 -14.32 20 -15 20 C-15.2678833 20.59458008 -15.5357666 21.18916016 -15.81176758 21.80175781 C-17.01210673 24.02239757 -18.20702998 25.4243607 -20.01171875 27.171875 C-20.90213867 28.04585937 -20.90213867 28.04585937 -21.81054688 28.9375 C-22.42994141 29.535625 -23.04933594 30.13375 -23.6875 30.75 C-27.40972045 34.36427206 -31.04107965 37.98613043 -34.42578125 41.921875 C-38.89840949 47.11120226 -43.79902887 51.84734678 -48.68359375 56.64453125 C-52.78358569 60.70003865 -56.68086603 64.82688843 -60.37695312 69.25585938 C-62.13025776 71.13997614 -63.83135109 72.61180881 -66 74 C-66.99 74 -67.98 74 -69 74 C-67.64768813 70.97022571 -66.14519457 68.91527387 -63.76953125 66.609375 C-62.81723633 65.67448242 -62.81723633 65.67448242 -61.84570312 64.72070312 C-61.17474609 64.07037109 -60.50378906 63.42003906 -59.8125 62.75 C-55.18205567 58.19826011 -50.66200201 53.65094116 -46.46875 48.6875 C-44.34872223 46.25172341 -42.0368685 44.0273664 -39.734375 41.765625 C-37.98797581 39.98775916 -36.36780761 38.14514605 -34.75 36.25 C-31.8172034 32.84161476 -28.69926326 29.65601536 -25.5 26.5 C-22.425944 23.467165 -19.4200072 20.4206055 -16.625 17.125 C-11.46603093 11.06606335 -5.66073493 5.58412348 0 0 Z " fill="#86400C" transform="translate(125,63)"/>
<path d="M0 0 C0.66 0.66 1.32 1.32 2 2 C0.35 2.66 -1.3 3.32 -3 4 C-3.0928125 5.8253125 -3.0928125 5.8253125 -3.1875 7.6875 C-3.61746493 11.15178886 -4.03154444 12.04006996 -6.3125 14.9375 C-8.8320126 16.87107944 -10.0124887 17.40249774 -13 18 C-13.474375 18.495 -13.94875 18.99 -14.4375 19.5 C-16.5150281 21.49442697 -18.17495888 21.71025219 -21 22 C-21.66 21.67 -22.32 21.34 -23 21 C-23.33 21.66 -23.66 22.32 -24 23 C-24.19335938 22.31292969 -24.38671875 21.62585938 -24.5859375 20.91796875 C-24.84632812 20.01691406 -25.10671875 19.11585938 -25.375 18.1875 C-25.63023438 17.29417969 -25.88546875 16.40085938 -26.1484375 15.48046875 C-26.95266661 12.79532104 -26.95266661 12.79532104 -29 10 C-29 9.01 -29 8.02 -29 7 C-29.66 6.67 -30.32 6.34 -31 6 C-27.07682012 6.81169239 -24.70522845 7.96928149 -22.375 11.375 C-21.18440753 13.64794926 -20.46362424 15.49642909 -20 18 C-19.34 18 -18.68 18 -18 18 C-18 17.34 -18 16.68 -18 16 C-16.42578125 14.484375 -16.42578125 14.484375 -14.3125 12.75 C-11.71405013 10.55412687 -9.40501518 8.43271176 -7.3125 5.75 C-5.04377544 3.05205728 -3.10982775 1.59933999 0 0 Z " fill="#6D330F" transform="translate(119,165)"/>
<path d="M0 0 C2.21919552 1.14539123 4.07216907 2.33452595 5.9375 4 C5.9375 4.66 5.9375 5.32 5.9375 6 C4.6071875 6.556875 4.6071875 6.556875 3.25 7.125 C-2.07178003 10.13732832 -5.18574226 14.19911245 -7.0625 20 C-9.5 19.3125 -9.5 19.3125 -12.0625 18 C-12.875 15.375 -12.875 15.375 -13.0625 13 C-12.0725 13 -11.0825 13 -10.0625 13 C-10.0625 11.68 -10.0625 10.36 -10.0625 9 C-9.4025 9 -8.7425 9 -8.0625 9 C-8.000625 8.443125 -7.93875 7.88625 -7.875 7.3125 C-6.60438013 3.69612037 -4.11560114 0 0 0 Z " fill="#DDE0DE" transform="translate(141.0625,41)"/>
<path d="M0 0 C4.35430174 0.54232278 6.89086678 2.06691269 10.375 4.6875 C11.32761719 5.40292969 12.28023437 6.11835938 13.26171875 6.85546875 C16.60515903 9.47394052 19.82615636 12.17880566 23 15 C22.01 16.485 22.01 16.485 21 18 C20.34 16.35 19.68 14.7 19 13 C18.01 14.485 18.01 14.485 17 16 C13.44105337 16 12.48934929 15.19645488 9.625 13.1875 C7.12750385 11.44940512 4.75323299 9.86874095 2.0625 8.4375 C-0.52948877 6.63096237 -1.11367888 4.98126196 -2 2 C-1.34 2 -0.68 2 0 2 C0 1.34 0 0.68 0 0 Z " fill="#734328" transform="translate(166,10)"/>
<path d="M0 0 C0.33 1.32 0.66 2.64 1 4 C1.7425 4.103125 2.485 4.20625 3.25 4.3125 C6.17014018 5.04253504 7.73187554 6.06789398 10 8 C9.8125 10.25 9.8125 10.25 9 13 C7.36739286 14.37482707 5.69774938 15.70647667 4 17 C2.95650161 18.63978318 1.94392019 20.30094366 1 22 C0.67 22 0.34 22 0 22 C-0.19502282 19.08365878 -0.38129328 16.16720455 -0.5625 13.25 C-0.61857422 12.425 -0.67464844 11.6 -0.73242188 10.75 C-0.78076172 9.95078125 -0.82910156 9.1515625 -0.87890625 8.328125 C-0.9260376 7.5949707 -0.97316895 6.86181641 -1.02172852 6.10644531 C-0.99913793 3.91642774 -0.61487456 2.09512813 0 0 Z " fill="#595C58" transform="translate(27,171)"/>
<path d="M0 0 C0.33 1.32 0.66 2.64 1 4 C3.31 4 5.62 4 8 4 C8 4.66 8 5.32 8 6 C7.35933594 6.0515625 6.71867187 6.103125 6.05859375 6.15625 C-0.67499773 7.03934396 -3.67959221 8.95836595 -7.8203125 14.3203125 C-8.20960937 14.87460937 -8.59890625 15.42890625 -9 16 C-9.33 15.34 -9.66 14.68 -10 14 C-10.33 14.66 -10.66 15.32 -11 16 C-11.66 16 -12.32 16 -13 16 C-13.33 15.34 -13.66 14.68 -14 14 C-14.99 14 -15.98 14 -17 14 C-14.87801168 11.85111324 -12.75260401 9.70581417 -10.625 7.5625 C-10.02171875 6.95083984 -9.4184375 6.33917969 -8.796875 5.70898438 C-8.21679688 5.12568359 -7.63671875 4.54238281 -7.0390625 3.94140625 C-6.23782959 3.13231812 -6.23782959 3.13231812 -5.42041016 2.30688477 C-3.58611274 0.61919242 -2.51372314 0 0 0 Z " fill="#5E6062" transform="translate(118,27)"/>
<path d="M0 0 C0.99 0 1.98 0 3 0 C0.46539336 5.6521728 -3.72403163 10.74944321 -9.609375 12.99609375 C-13.74115553 13.88234845 -16.92092646 14.26301589 -21 13 C-20.01 12.34 -19.02 11.68 -18 11 C-17.34 10.34 -16.68 9.68 -16 9 C-16.33 8.34 -16.66 7.68 -17 7 C-15.35 7 -13.7 7 -12 7 C-12 5.02 -12 3.04 -12 1 C-11.34 1.99 -10.68 2.98 -10 4 C-5.545 3.505 -5.545 3.505 -1 3 C-0.67 2.01 -0.34 1.02 0 0 Z " fill="#784625" transform="translate(106,182)"/>
<path d="M0 0 C1.32 0.33 2.64 0.66 4 1 C-3.26 8.26 -10.52 15.52 -18 23 C-18.66 22.67 -19.32 22.34 -20 22 C-19.43137108 18.70195229 -18.49977286 17.19980011 -16 15 C-15.34 14.34 -14.68 13.68 -14 13 C-15.65 13.66 -17.3 14.32 -19 15 C-18.07347299 13.82460004 -17.13336613 12.65989423 -16.1875 11.5 C-15.66542969 10.8503125 -15.14335938 10.200625 -14.60546875 9.53125 C-13 8 -13 8 -10 8 C-8.66018514 8.3062434 -7.32488113 8.63451555 -6 9 C-6 8.34 -6 7.68 -6 7 C-5.34 7 -4.68 7 -4 7 C-4 6.34 -4 5.68 -4 5 C-3.34 5 -2.68 5 -2 5 C-2 4.34 -2 3.68 -2 3 C-1.34 3 -0.68 3 0 3 C0 2.01 0 1.02 0 0 Z " fill="#743E1B" transform="translate(134,153)"/>
<path d="M0 0 C5.0697449 0.05091566 7.62525527 0.81932079 11.3125 4.3125 C11.3125 5.6325 11.3125 6.9525 11.3125 8.3125 C0.30888657 8.89964933 0.30888657 8.89964933 -4.6875 5.3125 C-5.625 3.1875 -5.625 3.1875 -5.6875 1.3125 C-4.05640633 -0.31859367 -2.24562778 0.06377717 0 0 Z " fill="#F5D0CC" transform="translate(155.6875,17.6875)"/>
<path d="M0 0 C0.33 0 0.66 0 1 0 C1 1.65 1 3.3 1 5 C0.34 4.67 -0.32 4.34 -1 4 C-1 4.99 -1 5.98 -1 7 C-2.32 7.33 -3.64 7.66 -5 8 C-5.1546875 8.804375 -5.1546875 8.804375 -5.3125 9.625 C-7.14033904 15.93935304 -10.30963845 20.62562805 -16 24 C-18.9375 23.875 -18.9375 23.875 -21 23 C-17.96997286 19.37874805 -14.93217419 15.87118461 -11.5625 12.5625 C-8.32721144 9.38485578 -5.34083836 6.0371172 -2.3828125 2.6015625 C-1.61429517 1.71147181 -0.83152881 0.83152881 0 0 Z " fill="#6F3F20" transform="translate(50,99)"/>
<path d="M0 0 C0.66 0 1.32 0 2 0 C2.66 1.32 3.32 2.64 4 4 C5.32 4 6.64 4 8 4 C10.75 6.3125 10.75 6.3125 13 9 C13 9.99 13 10.98 13 12 C12.34 12 11.68 12 11 12 C11.33 12.99 11.66 13.98 12 15 C9 15 9 15 6.08203125 12.375 C4.98449244 11.25750594 3.89492105 10.13214357 2.8125 9 C2.25369141 8.42765625 1.69488281 7.8553125 1.11914062 7.265625 C-0.26073093 5.85037212 -1.63126734 4.42602845 -3 3 C-2 2 -1 1 0 0 Z " fill="#652810" transform="translate(183,23)"/>
<path d="M0 0 C1.5625 1.25 1.5625 1.25 3 3 C2.61007363 6.44711026 1.19517284 8.21045001 -1.16015625 10.671875 C-1.78857422 11.33574219 -2.41699219 11.99960938 -3.06445312 12.68359375 C-3.72380859 13.36550781 -4.38316406 14.04742187 -5.0625 14.75 C-5.72572266 15.44738281 -6.38894531 16.14476562 -7.07226562 16.86328125 C-8.70843485 18.58184749 -10.35108255 20.29367649 -12 22 C-12.66 21.67 -13.32 21.34 -14 21 C-14 20.34 -14 19.68 -14 19 C-13.34 19 -12.68 19 -12 19 C-12 18.34 -12 17.68 -12 17 C-11 16 -10 15 -9 14 C-8.67 13.01 -8.34 12.02 -8 11 C-7.54625 10.5875 -7.0925 10.175 -6.625 9.75 C-4.26708871 7.21071092 -3.34808438 4.16506767 -2 1 C-1.34 0.67 -0.68 0.34 0 0 Z " fill="#6F3B1B" transform="translate(169,112)"/>
<path d="M0 0 C9.24836167 6.98765104 16.93873975 16.97135678 22.09765625 27.328125 C23.34553013 29.64020301 24.65796273 30.82898137 27 32 C27.625 34.0625 27.625 34.0625 28 36 C26.515 36.495 26.515 36.495 25 37 C24.34 35.02 23.68 33.04 23 31 C21.02 31.33 19.04 31.66 17 32 C17.33 31.34 17.66 30.68 18 30 C18.66 30 19.32 30 20 30 C17.97200179 25.73053009 15.65915242 21.78542509 13.0859375 17.83203125 C12 16 12 16 11 13 C10.34 13 9.68 13 9 13 C8.9175 12.38125 8.835 11.7625 8.75 11.125 C7.75421115 8.30359826 6.63677734 8.28072042 4 7 C0 2.55555556 0 2.55555556 0 0 Z " fill="#664D4A" transform="translate(167,55)"/>
<path d="M0 0 C3.38822061 0.3566548 6.0349862 1.36413032 9 3 C9.66 3.33 10.32 3.66 11 4 C11.99 4.66 12.98 5.32 14 6 C14.33 5.34 14.66 4.68 15 4 C16.65 5.32 18.3 6.64 20 8 C19.01 8.495 19.01 8.495 18 9 C18.99 9.66 19.98 10.32 21 11 C20.34 12.32 19.68 13.64 19 15 C18.40574219 14.56429687 17.81148437 14.12859375 17.19921875 13.6796875 C11.04262163 9.25612939 4.72625358 5.49100233 -2 2 C-1.34 1.34 -0.68 0.68 0 0 Z " fill="#535B5F" transform="translate(131,33)"/>
<path d="M0 0 C0.66 0 1.32 0 2 0 C2.797837 6.69613196 3.12910853 13.25766581 3 20 C2.34 20 1.68 20 1 20 C0.67 20.99 0.34 21.98 0 23 C-0.66 23.66 -1.32 24.32 -2 25 C-2.26213592 4.52427184 -2.26213592 4.52427184 0 0 Z " fill="#7A4822" transform="translate(22,167)"/>
<path d="M0 0 C1.051875 -0.00386719 1.051875 -0.00386719 2.125 -0.0078125 C4 0.125 4 0.125 6 1.125 C6 1.785 6 2.445 6 3.125 C4.89591797 3.23714844 4.89591797 3.23714844 3.76953125 3.3515625 C-2.94093019 4.12706274 -2.94093019 4.12706274 -8.1875 8 C-10.33447873 11.09958971 -10.33447873 11.09958971 -10 15.125 C-12.97 14.63 -12.97 14.63 -16 14.125 C-14.49559933 10.70092139 -12.49408648 8.21125426 -10 5.4375 C-9.29875 4.64988281 -8.5975 3.86226562 -7.875 3.05078125 C-5.22551509 0.32953945 -3.68198844 -0.01353672 0 0 Z " fill="#C3C7C8" transform="translate(122,32.875)"/>
<path d="M0 0 C0.33 1.32 0.66 2.64 1 4 C0.01 4 -0.98 4 -2 4 C-2.33 5.65 -2.66 7.3 -3 9 C-2.01 9.66 -1.02 10.32 0 11 C-2.31 13.31 -4.62 15.62 -7 18 C-7 17.01 -7 16.02 -7 15 C-7.61875 15.309375 -8.2375 15.61875 -8.875 15.9375 C-10.25 16.625 -11.625 17.3125 -13 18 C-13.66 17.34 -14.32 16.68 -15 16 C-14.25234375 15.26394531 -13.5046875 14.52789062 -12.734375 13.76953125 C-11.73944821 12.78399056 -10.74466412 11.79830579 -9.75 10.8125 C-9.25886719 10.32974609 -8.76773438 9.84699219 -8.26171875 9.34960938 C-5.27813023 6.38591145 -2.56677663 3.342921 0 0 Z " fill="#7E4723" transform="translate(66,82)"/>
<path d="M0 0 C0.33 0.99 0.66 1.98 1 3 C1.33 2.34 1.66 1.68 2 1 C2.66 1 3.32 1 4 1 C3.49396008 3.16874252 3.00016187 4.99967627 2 7 C2.639375 7.103125 3.27875 7.20625 3.9375 7.3125 C4.618125 7.539375 5.29875 7.76625 6 8 C6.33 8.99 6.66 9.98 7 11 C3.7 11 0.4 11 -3 11 C-3 10.34 -3 9.68 -3 9 C-3.99 9.33 -4.98 9.66 -6 10 C-4.52307692 3.47692308 -4.52307692 3.47692308 -1.875 1.0625 C-1.25625 0.711875 -0.6375 0.36125 0 0 Z " fill="#4E5154" transform="translate(104,40)"/>
<path d="M0 0 C4.67024563 0.51561098 6.53642898 3.52222271 9.390625 6.9375 C11.15463023 9.19816689 12.6612229 11.46336971 14 14 C14.391875 14.70125 14.78375 15.4025 15.1875 16.125 C16 18 16 18 16 21 C13.625 23.0625 13.625 23.0625 11 25 C10.34 25.66 9.68 26.32 9 27 C9.144375 26.443125 9.28875 25.88625 9.4375 25.3125 C10.02769128 22.88615805 10.523429 20.45093655 11 18 C10.34 18 9.68 18 9 18 C8.92652344 17.04287109 8.92652344 17.04287109 8.8515625 16.06640625 C8.77679688 15.24011719 8.70203125 14.41382812 8.625 13.5625 C8.55539063 12.73878906 8.48578125 11.91507813 8.4140625 11.06640625 C8.20910156 10.04353516 8.20910156 10.04353516 8 9 C7.34 8.67 6.68 8.34 6 8 C6 7.01 6 6.02 6 5 C5.34 5 4.68 5 4 5 C3.67 4.34 3.34 3.68 3 3 C0.98330173 1.86649466 0.98330173 1.86649466 -1 1 C-0.67 0.67 -0.34 0.34 0 0 Z " fill="#A9632A" transform="translate(153,92)"/>
<path d="M0 0 C0.70189453 0.00451172 1.40378906 0.00902344 2.12695312 0.01367188 C3.85550538 0.02543073 5.58401365 0.04336546 7.3125 0.0625 C7.3125 0.3925 7.3125 0.7225 7.3125 1.0625 C5.3325 1.0625 3.3525 1.0625 1.3125 1.0625 C1.3125 1.7225 1.3125 2.3825 1.3125 3.0625 C5.53128192 3.25872241 8.48260894 2.86480168 12.3125 1.0625 C11.9825 2.0525 11.6525 3.0425 11.3125 4.0625 C11.9725 4.7225 12.6325 5.3825 13.3125 6.0625 C9.5625 7.1875 9.5625 7.1875 7.3125 6.0625 C4.76634991 5.83077173 2.23853775 5.64355471 -0.3125 5.5 C-1.01890625 5.45681641 -1.7253125 5.41363281 -2.453125 5.36914062 C-4.19768537 5.26305249 -5.94256697 5.16227111 -7.6875 5.0625 C-7.3575 4.4025 -7.0275 3.7425 -6.6875 3.0625 C-7.3475 3.0625 -8.0075 3.0625 -8.6875 3.0625 C-9.3475 3.0625 -10.0075 3.0625 -10.6875 3.0625 C-10.6875 2.4025 -10.6875 1.7425 -10.6875 1.0625 C-7.06882441 -0.1437252 -3.76243749 -0.04566918 0 0 Z " fill="#612610" transform="translate(153.6875,8.9375)"/>
<path d="M0 0 C0 0.66 0 1.32 0 2 C0.66 2 1.32 2 2 2 C2 2.99 2 3.98 2 5 C2.99 5 3.98 5 5 5 C4.8125 6.8125 4.8125 6.8125 4 9 C0.79480075 11.40389944 -2.05372236 12.43624605 -6 13 C-6.33 11.68 -6.66 10.36 -7 9 C-4.36 9 -1.72 9 1 9 C1 7.68 1 6.36 1 5 C0.38125 4.690625 -0.2375 4.38125 -0.875 4.0625 C-2.25 3.375 -3.625 2.6875 -5 2 C-6.70363822 1.77377919 -8.41328701 1.59111527 -10.125 1.4375 C-11.03507813 1.35371094 -11.94515625 1.26992188 -12.8828125 1.18359375 C-13.58148438 1.12300781 -14.28015625 1.06242187 -15 1 C-15 0.67 -15 0.34 -15 0 C-9.62374766 -0.84888195 -5.34629602 -1.0024305 0 0 Z " fill="#F0A3A4" transform="translate(166,17)"/>
<path d="M0 0 C0.33 0 0.66 0 1 0 C1 6.93 1 13.86 1 21 C-0.65 20.67 -2.3 20.34 -4 20 C-4.2236337 18.58566794 -4.42826476 17.16832382 -4.625 15.75 C-4.74101562 14.96109375 -4.85703125 14.1721875 -4.9765625 13.359375 C-5.00379537 10.61793285 -4.54471799 9.25229848 -3 7 C-2.01 6.67 -1.02 6.34 0 6 C0 4.02 0 2.04 0 0 Z " fill="#622E0A" transform="translate(25,181)"/>
<path d="M0 0 C0 0.99 0 1.98 0 3 C-1.32 3 -2.64 3 -4 3 C-4 3.99 -4 4.98 -4 6 C-4.66 6 -5.32 6 -6 6 C-6 6.66 -6 7.32 -6 8 C-6.66 8 -7.32 8 -8 8 C-8 8.66 -8 9.32 -8 10 C-8.66 10 -9.32 10 -10 10 C-10 10.66 -10 11.32 -10 12 C-11.98 12.33 -13.96 12.66 -16 13 C-15.42856724 9.26047681 -13.89210549 7.45957185 -11.25 4.8125 C-10.23679687 3.77029297 -10.23679687 3.77029297 -9.203125 2.70703125 C-6.23940598 0.41067449 -3.6888999 0 0 0 Z " fill="#672F0E" transform="translate(138,150)"/>
<path d="M0 0 C1.87056317 5.6116895 0.95474121 9.20550716 -1.2734375 14.578125 C-2.50508485 18.68361617 -2.52649991 22.8819521 -2.69140625 27.14453125 C-3 30 -3 30 -5 33 C-5.27206312 26.13796349 -4.87410086 19.38585407 -4.1875 12.5625 C-4.11740723 11.78148926 -4.04731445 11.00047852 -3.97509766 10.19580078 C-3.51860472 5.98895874 -3.07396974 3.15818809 0 0 Z " fill="#755136" transform="translate(28,122)"/>
<path d="M0 0 C0.99 0.33 1.98 0.66 3 1 C0.03776042 3.96223958 -2.92447917 6.92447917 -5.88671875 9.88671875 C-6.41225342 10.41289795 -6.93778809 10.93907715 -7.47924805 11.48120117 C-8.85652678 12.85671105 -10.24038835 14.22562182 -11.625 15.59375 C-13.93736686 17.93654273 -16.13732147 20.34238201 -18.3125 22.8125 C-19.00988281 23.60269531 -19.70726562 24.39289063 -20.42578125 25.20703125 C-20.94527344 25.79871094 -21.46476562 26.39039063 -22 27 C-22.33 26.01 -22.66 25.02 -23 24 C-21.63671875 21.9921875 -21.63671875 21.9921875 -19.6875 19.875 C-19.05199219 19.17117187 -18.41648438 18.46734375 -17.76171875 17.7421875 C-16 16 -16 16 -14 15 C-13.67 14.01 -13.34 13.02 -13 12 C-11.66666667 11.66666667 -10.33333333 11.33333333 -9 11 C-8.67 10.01 -8.34 9.02 -8 8 C-6.37660195 6.29115995 -4.70680947 4.62553283 -3 3 C-2.401875 2.401875 -1.80375 1.80375 -1.1875 1.1875 C-0.795625 0.795625 -0.40375 0.40375 0 0 Z " fill="#AE5F21" transform="translate(149,129)"/>
<path d="M0 0 C0 3.61029169 -0.96092582 6.55806676 -2 10 C-2.99 10 -3.98 10 -5 10 C-5.0825 10.61875 -5.165 11.2375 -5.25 11.875 C-6 14 -6 14 -7.75 15.25 C-10.28737029 16.0957901 -12.34234296 16.14764761 -15 16 C-11.83569856 12.11242966 -8.59418129 8.50432676 -5 5 C-3.6078125 3.6078125 -3.6078125 3.6078125 -2.1875 2.1875 C-1.1046875 1.1046875 -1.1046875 1.1046875 0 0 Z " fill="#79370E" transform="translate(146,135)"/>
<path d="M0 0 C1.50433594 0.01353516 1.50433594 0.01353516 3.0390625 0.02734375 C3.80992188 0.03894531 4.58078125 0.05054688 5.375 0.0625 C5.045 0.7225 4.715 1.3825 4.375 2.0625 C6.85 2.5575 6.85 2.5575 9.375 3.0625 C9.375 3.3925 9.375 3.7225 9.375 4.0625 C1.73899015 5.83791538 -5.8062896 6.59680878 -13.625 7.0625 C-13.625 6.4025 -13.625 5.7425 -13.625 5.0625 C-10.985 5.0625 -8.345 5.0625 -5.625 5.0625 C-5.625 4.4025 -5.625 3.7425 -5.625 3.0625 C-6.285 2.4025 -6.945 1.7425 -7.625 1.0625 C-4.98041621 -0.25979189 -2.94738699 -0.03427194 0 0 Z " fill="#673311" transform="translate(85.625,189.9375)"/>
<path d="M0 0 C4.2829452 0.5479083 6.85135641 2.02432804 10.3125 4.5625 C11.19550781 5.20316406 12.07851562 5.84382812 12.98828125 6.50390625 C13.65214844 6.99761719 14.31601563 7.49132812 15 8 C13.68 8.99 12.36 9.98 11 11 C10.34 9.68 9.68 8.36 9 7 C8.01 7 7.02 7 6 7 C5.34 7.66 4.68 8.32 4 9 C1.00675737 7.9024777 0.15389099 7.32317108 -1.25 4.375 C-1.4975 3.59125 -1.745 2.8075 -2 2 C-1.34 2 -0.68 2 0 2 C0 1.34 0 0.68 0 0 Z " fill="#764029" transform="translate(166,10)"/>
<path d="M0 0 C0 4.68133325 -2.35014791 7.20573634 -5.25 10.75 C-8.5462876 13.44696258 -10.80632522 13.75331325 -15 14 C-14.67 13.01 -14.34 12.02 -14 11 C-13.01 10.67 -12.02 10.34 -11 10 C-10.67 9.01 -10.34 8.02 -10 7 C-7.71722361 3.57583541 -7.63338448 3.854914 -4 3 C-1.7927642 1.51199628 -1.7927642 1.51199628 0 0 Z " fill="#622F0F" transform="translate(59,95)"/>
<path d="M0 0 C0.66 0.33 1.32 0.66 2 1 C0.83184255 5.96466917 -0.35242821 9.2384416 -4 13 C-4.66 13 -5.32 13 -6 13 C-7.625 11 -7.625 11 -9 9 C-7.87895467 7.68412059 -6.75303035 6.37239647 -5.625 5.0625 C-4.99851563 4.33160156 -4.37203125 3.60070312 -3.7265625 2.84765625 C-2 1 -2 1 0 0 Z " fill="#692E1B" transform="translate(200,77)"/>
<path d="M0 0 C1.59036701 3.18073402 0.78365299 5.62426403 0 9 C-1.75 10.0625 -1.75 10.0625 -4 11 C-5.81538306 12.90305781 -7.37585898 14.92470869 -9 17 C-10.32 16.01 -11.64 15.02 -13 14 C-12.31292969 13.32453125 -11.62585938 12.6490625 -10.91796875 11.953125 C-10.01691406 11.06109375 -9.11585937 10.1690625 -8.1875 9.25 C-6.84751953 7.92742187 -6.84751953 7.92742187 -5.48046875 6.578125 C-3.44787848 4.46551149 -1.68226182 2.39205335 0 0 Z " fill="#78482B" transform="translate(80,67)"/>
<path d="M0 0 C0.99 0.33 1.98 0.66 3 1 C1.56792733 6.25093312 -1.85239942 9.66818007 -6 13 C-9.4375 14.4375 -9.4375 14.4375 -12 15 C-10.4744094 11.34858644 -8.27519091 9.09881888 -5.4375 6.375 C-2.30957946 3.48929319 -2.30957946 3.48929319 0 0 Z " fill="#7D3B09" transform="translate(151,89)"/>
<path d="M0 0 C0.99 0 1.98 0 3 0 C3 0.66 3 1.32 3 2 C6.3 2.33 9.6 2.66 13 3 C13 2.34 13 1.68 13 1 C15.31 1.66 17.62 2.32 20 3 C20 3.33 20 3.66 20 4 C6.3667426 6.48063781 6.3667426 6.48063781 0 5 C-0.33 4.01 -0.66 3.02 -1 2 C-0.67 1.34 -0.34 0.68 0 0 Z " fill="#733F1D" transform="translate(49,195)"/>
<path d="M0 0 C3.51973101 3.25901019 6.52760275 6.8860931 9 11 C9 11.66 9 12.32 9 13 C2.52928723 12.51164432 2.52928723 12.51164432 0.125 10.1875 C-0.94649838 8.10403092 -1.58922322 6.30034998 -2 4 C-1.01 4 -0.02 4 1 4 C0.67 2.68 0.34 1.36 0 0 Z " fill="#5D5B5A" transform="translate(160,88)"/>
<path d="M0 0 C0.66 0.33 1.32 0.66 2 1 C1.34 6.28 0.68 11.56 0 17 C-0.66 16.34 -1.32 15.68 -2 15 C-2.99 15.495 -2.99 15.495 -4 16 C-4.05437607 14.41705218 -4.09296271 12.83355744 -4.125 11.25 C-4.14820312 10.36828125 -4.17140625 9.4865625 -4.1953125 8.578125 C-3.99139502 5.8864142 -3.36551721 4.30095026 -2 2 C-1.34 2 -0.68 2 0 2 C0 1.34 0 0.68 0 0 Z " fill="#733E1E" transform="translate(30,129)"/>
<path d="M0 0 C0.66 0 1.32 0 2 0 C2.33 1.32 2.66 2.64 3 4 C3.66 4 4.32 4 5 4 C5.33 2.68 5.66 1.36 6 0 C6.66 0.66 7.32 1.32 8 2 C8.99 1.34 9.98 0.68 11 0 C11.99 0.33 12.98 0.66 14 1 C12.88121617 2.17262904 11.75476949 3.33795138 10.625 4.5 C9.99851562 5.1496875 9.37203125 5.799375 8.7265625 6.46875 C7 8 7 8 5 8 C5 8.66 5 9.32 5 10 C4.34 10 3.68 10 3 10 C2.01 6.7 1.02 3.4 0 0 Z " fill="#A2551A" transform="translate(96,173)"/>
<path d="M0 0 C4.38493576 4.05330197 5.8661656 8.56309857 6.1875 14.4140625 C6.1875 17.61498661 6.13162611 20.80197294 6 24 C5.34 24 4.68 24 4 24 C3.92652344 22.89591797 3.92652344 22.89591797 3.8515625 21.76953125 C3.77679688 20.79371094 3.70203125 19.81789063 3.625 18.8125 C3.55539063 17.84957031 3.48578125 16.88664062 3.4140625 15.89453125 C2.99548915 12.96846662 2.12886761 10.71633769 1 8 C0.50686503 5.33427985 0.27476368 2.70184283 0 0 Z " fill="#744C39" transform="translate(205,45)"/>
<path d="M0 0 C1.65 0.33 3.3 0.66 5 1 C4.46515599 6.34844008 2.53309233 10.35796103 0 15 C-0.33 15 -0.66 15 -1 15 C-0.67 10.05 -0.34 5.1 0 0 Z " fill="#868E8B" transform="translate(28,178)"/>
<path d="M0 0 C0.86625 0.4640625 0.86625 0.4640625 1.75 0.9375 C3.88892889 2.06344185 3.88892889 2.06344185 5.93359375 2.36328125 C9.7197275 3.52989713 11.99140822 6.69868133 14 10 C13.875 12.9375 13.875 12.9375 13 15 C11.62437146 13.71034824 10.29233607 12.37310707 9 11 C9 10.34 9 9.68 9 9 C8.236875 8.773125 7.47375 8.54625 6.6875 8.3125 C2.84059518 6.43377904 1.84709886 3.69419772 0 0 Z " fill="#7A431C" transform="translate(62,141)"/>
<path d="M0 0 C1.12664062 0.07863281 2.25328125 0.15726562 3.4140625 0.23828125 C6.375 0.6875 6.375 0.6875 9.375 2.6875 C6.28940696 4.95631841 4.95290624 5.74201946 1.0625 5.375 C0.175625 5.148125 -0.71125 4.92125 -1.625 4.6875 C-1.625 4.0275 -1.625 3.3675 -1.625 2.6875 C-5.915 2.6875 -10.205 2.6875 -14.625 2.6875 C-9.76947266 -0.54951822 -5.7225099 -0.44069904 0 0 Z " fill="#7F5744" transform="translate(156.625,7.3125)"/>
<path d="M0 0 C1.32 0.33 2.64 0.66 4 1 C-2 7 -8 13 -14 19 C-14.33 17.68 -14.66 16.36 -15 15 C-14.01 14.67 -13.02 14.34 -12 14 C-11.67 13.01 -11.34 12.02 -11 11 C-10.01 11 -9.02 11 -8 11 C-7.67 10.01 -7.34 9.02 -7 8 C-5.625 5.8125 -5.625 5.8125 -4 4 C-3.01 4 -2.02 4 -1 4 C-0.67 2.68 -0.34 1.36 0 0 Z " fill="#6B452B" transform="translate(152,134)"/>
<path d="M0 0 C2.69092562 2.69092562 2.82364553 5.09880861 3.54296875 8.75390625 C3.98007284 11.10728002 3.98007284 11.10728002 4.875 13.75 C5.06230945 17.12157005 3.11473839 18.51497667 1 21 C0.63917123 18.35491639 0.28604648 15.70920453 -0.0625 13.0625 C-0.16626953 12.30775391 -0.27003906 11.55300781 -0.37695312 10.77539062 C-0.62665638 8.85525872 -0.81790281 6.92771856 -1 5 C-0.67 4.67 -0.34 4.34 0 4 C0 2.68 0 1.36 0 0 Z " fill="#652613" transform="translate(204,45)"/>
<path d="M0 0 C0.33 1.32 0.66 2.64 1 4 C3.31 4 5.62 4 8 4 C8 4.66 8 5.32 8 6 C6.84371094 6.09087891 6.84371094 6.09087891 5.6640625 6.18359375 C4.66117188 6.26738281 3.65828125 6.35117187 2.625 6.4375 C1.12839844 6.55931641 1.12839844 6.55931641 -0.3984375 6.68359375 C-2.97927613 6.84965626 -2.97927613 6.84965626 -5 8 C-5 7.34 -5 6.68 -5 6 C-6.32 6.99 -7.64 7.98 -9 9 C-9.66 8.67 -10.32 8.34 -11 8 C-9.87811441 6.85111717 -8.75238316 5.70598863 -7.625 4.5625 C-6.99851562 3.92441406 -6.37203125 3.28632813 -5.7265625 2.62890625 C-3.74785826 0.76211967 -2.74097805 0 0 0 Z " fill="#616366" transform="translate(118,27)"/>
<path d="M0 0 C0.99 0 1.98 0 3 0 C1.41332422 3.90285767 -1.13350481 6.33520982 -4.125 9.25 C-5.03507812 10.14203125 -5.94515625 11.0340625 -6.8828125 11.953125 C-7.58148438 12.62859375 -8.28015625 13.3040625 -9 14 C-9.58203125 12.109375 -9.58203125 12.109375 -10 10 C-8.6875 8.25 -8.6875 8.25 -7 7 C-6.34 7 -5.68 7 -5 7 C-4.67 5.68 -4.34 4.36 -4 3 C-3.01 3 -2.02 3 -1 3 C-0.67 2.01 -0.34 1.02 0 0 Z " fill="#7D3C10" transform="translate(100,52)"/>
<path d="M0 0 C2.9375 0.8125 2.9375 0.8125 6 2 C6.33 2.99 6.66 3.98 7 5 C6.01 5.495 6.01 5.495 5 6 C5.99 7.485 5.99 7.485 7 9 C3 7.66666667 -1 6.33333333 -5 5 C-5 4.34 -5 3.68 -5 3 C-3.35 2.67 -1.7 2.34 0 2 C0 1.34 0 0.68 0 0 Z " fill="#60584C" transform="translate(110,48)"/>
<path d="M0 0 C2.2561806 0.98262602 4.34730262 2.01308918 6.5 3.1875 C7.6653125 3.79980469 8.830625 4.41210938 10.03125 5.04296875 C12.89095815 6.92811846 13.92921271 7.82286141 15 11 C12.59000357 10.06277917 10.23751367 9.12235553 7.9375 7.9375 C5.97191503 6.9864105 4.1296091 6.45634481 2 6 C2 5.01 2 4.02 2 3 C0.68 3 -0.64 3 -2 3 C-2 2.34 -2 1.68 -2 1 C-1.34 0.67 -0.68 0.34 0 0 Z " fill="#5A4E4D" transform="translate(130,28)"/>
<path d="M0 0 C1.32 0.33 2.64 0.66 4 1 C4.33 2.65 4.66 4.3 5 6 C2.03 8.475 2.03 8.475 -1 11 C-2.20898633 6.61742454 -2.2184264 4.02089784 0 0 Z " fill="#D98E38" transform="translate(69,112)"/>
<path d="M0 0 C-1.58667578 3.90285767 -4.13350481 6.33520982 -7.125 9.25 C-8.03507812 10.14203125 -8.94515625 11.0340625 -9.8828125 11.953125 C-10.58148438 12.62859375 -11.28015625 13.3040625 -12 14 C-12.33 13.01 -12.66 12.02 -13 11 C-12.360625 10.79375 -11.72125 10.5875 -11.0625 10.375 C-10.381875 9.92125 -9.70125 9.4675 -9 9 C-8.65977214 7.00116131 -8.32670903 5.00109278 -8 3 C-5.15391088 0.05576987 -4.24544645 0 0 0 Z " fill="#7F3E0F" transform="translate(50,108)"/>
<path d="M0 0 C0 3.14668286 -0.52735129 4.31458176 -2 7 C-2.33 7.66 -2.66 8.32 -3 9 C-3.99 9 -4.98 9 -6 9 C-6.33 9.66 -6.66 10.32 -7 11 C-8.125 5.375 -8.125 5.375 -7 2 C-4.90006779 1.25486277 -3.22568901 1 -1 1 C-0.67 0.67 -0.34 0.34 0 0 Z " fill="#622F0D" transform="translate(36,120)"/>
<path d="M0 0 C0.93423645 3.01031744 1.04449911 3.86650268 0 7 C-0.99 7 -1.98 7 -3 7 C-3.33 8.98 -3.66 10.96 -4 13 C-4.99 13 -5.98 13 -7 13 C-7 13.66 -7 14.32 -7 15 C-7.66 14.67 -8.32 14.34 -9 14 C-9 10.47164676 -8.48171796 10.06883544 -6.1875 7.5625 C-3.99535987 5.11642402 -1.92175381 2.66910252 0 0 Z " fill="#723412" transform="translate(164,116)"/>
<path d="M0 0 C2.93200474 2.85276137 5.64315404 5.65079784 8 9 C7.67 9.66 7.34 10.32 7 11 C5.02 11 3.04 11 1 11 C0.67 7.37 0.34 3.74 0 0 Z " fill="#DE847E" transform="translate(191,37)"/>
<path d="M0 0 C0.99 0.33 1.98 0.66 3 1 C-3.15034169 8.48291572 -3.15034169 8.48291572 -7 11 C-7.75 9.25 -7.75 9.25 -8 7 C-5.68212991 3.99535358 -3.7726764 2.53895377 0 2 C0 1.34 0 0.68 0 0 Z " fill="#734422" transform="translate(122,165)"/>
<path d="M0 0 C0.33 0.99 0.66 1.98 1 3 C-0.32 4.32 -1.64 5.64 -3 7 C-2.360625 7.103125 -1.72125 7.20625 -1.0625 7.3125 C-0.381875 7.539375 0.29875 7.76625 1 8 C1.33 8.99 1.66 9.98 2 11 C0.3125 11.6875 0.3125 11.6875 -2 12 C-4.75 10.5625 -4.75 10.5625 -7 9 C-5.44499019 5.18315774 -2.96404505 2.80804268 0 0 Z " fill="#E58D8E" transform="translate(138,20)"/>
<path d="M0 0 C0.66 0 1.32 0 2 0 C2.66 1.32 3.32 2.64 4 4 C4.66 3.67 5.32 3.34 6 3 C6.33 5.64 6.66 8.28 7 11 C3.78956118 9.61811547 1.95063635 8.07578097 -0.25 5.375 C-0.77078125 4.74335938 -1.2915625 4.11171875 -1.828125 3.4609375 C-2.21484375 2.97882812 -2.6015625 2.49671875 -3 2 C-2.01 1.67 -1.02 1.34 0 1 C0 0.67 0 0.34 0 0 Z " fill="#602411" transform="translate(183,23)"/>
<path d="M0 0 C0.66 0.33 1.32 0.66 2 1 C2.625 3.0625 2.625 3.0625 3 5 C0.75 7.0625 0.75 7.0625 -2 9 C-4.3125 8.75 -4.3125 8.75 -6 8 C-6 5 -6 5 -4.6875 3.61328125 C-3.125 2.40885417 -1.5625 1.20442708 0 0 Z " fill="#602D18" transform="translate(131,20)"/>
<path d="M0 0 C5.5967892 0.37944334 8.97923602 0.73555335 13 5 C13.8125 7.25 13.8125 7.25 14 9 C9.02790438 7.23570801 4.56561939 4.6060834 0 2 C0 1.34 0 0.68 0 0 Z " fill="#4D5050" transform="translate(129,63)"/>
<path d="M0 0 C0.89589844 -0.01417969 1.79179687 -0.02835938 2.71484375 -0.04296875 C5.0625 0.1875 5.0625 0.1875 7.0625 2.1875 C3.73715243 3.29594919 1.44067425 3.03204356 -1.9375 2.1875 C-1.2775 3.8375 -0.6175 5.4875 0.0625 7.1875 C-2.375 6.4375 -2.375 6.4375 -4.9375 5.1875 C-5.8125 3.125 -5.8125 3.125 -5.9375 1.1875 C-4.27188601 -0.47811399 -2.27787295 0.01634055 0 0 Z " fill="#FCC3C3" transform="translate(155.9375,17.8125)"/>
<path d="M0 0 C1.32 0.66 2.64 1.32 4 2 C3.67 2.66 3.34 3.32 3 4 C3.66 4.33 4.32 4.66 5 5 C5 5.66 5 6.32 5 7 C4.34 7 3.68 7 3 7 C2.67 7.66 2.34 8.32 2 9 C1.608125 8.54625 1.21625 8.0925 0.8125 7.625 C-1.30832487 5.72357081 -3.33042235 4.93795972 -6 4 C-6 3.34 -6 2.68 -6 2 C-4.7934375 1.7834375 -4.7934375 1.7834375 -3.5625 1.5625 C-1.07896294 1.25864751 -1.07896294 1.25864751 0 0 Z " fill="#79431B" transform="translate(44,126)"/>
<path d="M0 0 C0.33 0 0.66 0 1 0 C1 1.65 1 3.3 1 5 C4.63 5.66 8.26 6.32 12 7 C12 7.66 12 8.32 12 9 C10.56344146 9.08131463 9.1255517 9.13933559 7.6875 9.1875 C6.48673828 9.23970703 6.48673828 9.23970703 5.26171875 9.29296875 C3 9 3 9 1.25390625 7.65234375 C-0.38493582 5.49274812 -0.71873791 3.67198982 -1 1 C-0.67 0.67 -0.34 0.34 0 0 Z " fill="#70492C" transform="translate(20,196)"/>
<path d="M0 0 C-0.57468925 3.87915244 -2.37884447 6.14756605 -5 9 C-5.99 9.33 -6.98 9.66 -8 10 C-8.33 9.34 -8.66 8.68 -9 8 C-4.8974359 0 -4.8974359 0 0 0 Z " fill="#7D3806" transform="translate(117,74)"/>
<path d="M0 0 C4.8299908 -0.32915493 7.62695363 0.48162328 11.8125 2.875 C12.76769531 3.40867188 13.72289063 3.94234375 14.70703125 4.4921875 C17 6 17 6 18 8 C15.525 7.505 15.525 7.505 13 7 C13 6.34 13 5.68 13 5 C9.846632 4.29925156 7.27275026 4 4 4 C3.34 3.67 2.68 3.34 2 3 C2 2.34 2 1.68 2 1 C1.34 0.67 0.68 0.34 0 0 Z " fill="#823D09" transform="translate(57,139)"/>
<path d="M0 0 C0.26218749 3.14624993 0.24754367 4.61837017 -1.5 7.3125 C-2.2425 8.1478125 -2.2425 8.1478125 -3 9 C-4.98 8.01 -6.96 7.02 -9 6 C-8.01 5.67 -7.02 5.34 -6 5 C-5.26676204 2.98491642 -5.26676204 2.98491642 -5 1 C-1.125 0 -1.125 0 0 0 Z " fill="#AFB5B5" transform="translate(130,48)"/>
<path d="M0 0 C1.65 1.65 3.3 3.3 5 5 C3.68 5.99 2.36 6.98 1 8 C0.01 7.01 -0.98 6.02 -2 5 C-3.32 6.32 -4.64 7.64 -6 9 C-6.66 8.67 -7.32 8.34 -8 8 C-5.36 5.36 -2.72 2.72 0 0 Z " fill="#78412B" transform="translate(133,16)"/>
<path d="M0 0 C0.33 0.66 0.66 1.32 1 2 C0.01 2 -0.98 2 -2 2 C-2 3.65 -2 5.3 -2 7 C-2.99 7 -3.98 7 -5 7 C-5 7.99 -5 8.98 -5 10 C-5.66 10 -6.32 10 -7 10 C-7 8.35 -7 6.7 -7 5 C-7.66 5 -8.32 5 -9 5 C-9.33 4.01 -9.66 3.02 -10 2 C-8.9171875 2.3403125 -8.9171875 2.3403125 -7.8125 2.6875 C-4.24415308 3.08398299 -2.86128901 2.04377787 0 0 Z " fill="#4A4D4F" transform="translate(181,106)"/>
<path d="M0 0 C5.02692063 0.45699278 8.14896261 2.99241748 12 6 C11.67 7.32 11.34 8.64 11 10 C9.16375669 8.52444734 7.3310715 7.04446569 5.5 5.5625 C4.4790625 4.73878906 3.458125 3.91507812 2.40625 3.06640625 C1.6121875 2.38449219 0.818125 1.70257813 0 1 C0 0.67 0 0.34 0 0 Z " fill="#605748" transform="translate(130,66)"/>
<path d="M0 0 C6.51819877 1.89536276 12.17814801 4.5178994 18 8 C15 9 15 9 12 8 C10.66893378 7.65772583 9.33599921 7.32248257 8 7 C8 6.34 8 5.68 8 5 C4.62902617 3.50178941 2.79557881 3 -1 3 C-0.67 2.01 -0.34 1.02 0 0 Z " fill="#D29553" transform="translate(104,52)"/>
<path d="M0 0 C3.65316671 1.24976756 4.78065836 1.67098753 7 5 C7.66 5 8.32 5 9 5 C8.34 6.32 7.68 7.64 7 9 C3.535 7.02 3.535 7.02 0 5 C0 3.35 0 1.7 0 0 Z " fill="#703116" transform="translate(171,15)"/>
<path d="M0 0 C0.99 0 1.98 0 3 0 C1.59155282 3.21524305 -0.10344786 5.32183868 -2.625 7.75 C-3.57246094 8.67039063 -3.57246094 8.67039063 -4.5390625 9.609375 C-5.02117187 10.06828125 -5.50328125 10.5271875 -6 11 C-6.61328125 9.140625 -6.61328125 9.140625 -7 7 C-5.1875 4.75 -5.1875 4.75 -3 3 C-2.34 3 -1.68 3 -1 3 C-0.67 2.01 -0.34 1.02 0 0 Z " fill="#794E30" transform="translate(106,182)"/>
<path d="M0 0 C1.32 0.66 2.64 1.32 4 2 C4 2.66 4 3.32 4 4 C5.65 3.67 7.3 3.34 9 3 C8.21654285 4.17219543 7.42297164 5.33763668 6.625 6.5 C6.18414062 7.1496875 5.74328125 7.799375 5.2890625 8.46875 C4.65097656 9.22671875 4.65097656 9.22671875 4 10 C3.34 10 2.68 10 2 10 C1 7 0 4 -1 1 C-0.67 0.67 -0.34 0.34 0 0 Z " fill="#C4782E" transform="translate(80,151)"/>
<path d="M0 0 C0.33 0.99 0.66 1.98 1 3 C-2.83314543 8.63697858 -2.83314543 8.63697858 -6.8125 9.875 C-7.8953125 9.936875 -7.8953125 9.936875 -9 10 C-7.61811547 6.78956118 -6.07578097 4.95063635 -3.375 2.75 C-2.74335937 2.22921875 -2.11171875 1.7084375 -1.4609375 1.171875 C-0.73777344 0.59179688 -0.73777344 0.59179688 0 0 Z " fill="#783807" transform="translate(130,113)"/>
<path d="M0 0 C3.41129257 0.78722136 6.68726009 1.87225875 10 3 C10.99 3.33 11.98 3.66 13 4 C12.34 5.32 11.68 6.64 11 8 C10.45730469 7.72285156 9.91460937 7.44570312 9.35546875 7.16015625 C8.64003906 6.79792969 7.92460938 6.43570313 7.1875 6.0625 C6.47980469 5.70285156 5.77210937 5.34320313 5.04296875 4.97265625 C2.88189715 3.89269484 2.88189715 3.89269484 0 3 C0 2.01 0 1.02 0 0 Z " fill="#794114" transform="translate(78,166)"/>
<path d="M0 0 C0.33 0.99 0.66 1.98 1 3 C-0.09463822 4.17561146 -1.20107186 5.3402489 -2.3125 6.5 C-2.92738281 7.1496875 -3.54226562 7.799375 -4.17578125 8.46875 C-6 10 -6 10 -9 10 C-7.61811547 6.78956118 -6.07578097 4.95063635 -3.375 2.75 C-2.74335937 2.22921875 -2.11171875 1.7084375 -1.4609375 1.171875 C-0.73777344 0.59179688 -0.73777344 0.59179688 0 0 Z " fill="#773508" transform="translate(76,116)"/>
<path d="M0 0 C0.89674777 2.51089376 1.13172674 3.64535109 0.1875 6.1875 C-1 8 -1 8 -3 9 C-3 9.66 -3 10.32 -3 11 C-4.32 10.67 -5.64 10.34 -7 10 C-6.34 8.35 -5.68 6.7 -5 5 C-4.01 5 -3.02 5 -2 5 C-2 3.68 -2 2.36 -2 1 C-1.34 0.67 -0.68 0.34 0 0 Z " fill="#653113" transform="translate(69,81)"/>
<path d="M0 0 C0.99 0.33 1.98 0.66 3 1 C1.44396229 4.81936528 -0.95604931 7.26044438 -4 10 C-4.66 10 -5.32 10 -6 10 C-5.34 8.02 -4.68 6.04 -4 4 C-3.01 4 -2.02 4 -1 4 C-0.67 2.68 -0.34 1.36 0 0 Z " fill="#DA904A" transform="translate(122,61)"/>
<path d="M0 0 C1.32 0 2.64 0 4 0 C6 3 6 3 5.625 5.1875 C5.41875 5.785625 5.2125 6.38375 5 7 C4.67 6.67 4.34 6.34 4 6 C3.34 6.66 2.68 7.32 2 8 C1.01 5.69 0.02 3.38 -1 1 C-0.67 0.67 -0.34 0.34 0 0 Z " fill="#4F514F" transform="translate(186,86)"/>
<path d="M0 0 C4.875 4.625 4.875 4.625 6 8 C4.35 9.65 2.7 11.3 1 13 C1.32552083 10.98177083 1.65104167 8.96354167 1.9765625 6.9453125 C1.98429688 6.30335937 1.99203125 5.66140625 2 5 C1.34 4.34 0.68 3.68 0 3 C0 2.01 0 1.02 0 0 Z " fill="#C37B35" transform="translate(146,81)"/>
<path d="M0 0 C0.33 0.99 0.66 1.98 1 3 C1.33 2.34 1.66 1.68 2 1 C2.66 1 3.32 1 4 1 C3.67 3.31 3.34 5.62 3 8 C1.68 8 0.36 8 -1 8 C-1 7.01 -1 6.02 -1 5 C-1.66 5 -2.32 5 -3 5 C-3 4.01 -3 3.02 -3 2 C-2.01 1.34 -1.02 0.68 0 0 Z " fill="#484C4E" transform="translate(104,40)"/>
<path d="M0 0 C1.2077558 3.62326739 0.54311128 4.64146369 -1 8 C-1.66 8 -2.32 8 -3 8 C-3 8.66 -3 9.32 -3 10 C-4.98 10 -6.96 10 -9 10 C-8.2575 9.278125 -7.515 8.55625 -6.75 7.8125 C-4.30709485 5.31407427 -2.1318953 2.76356798 0 0 Z " fill="#C4772F" transform="translate(66,129)"/>
<path d="M0 0 C1 2 1 2 1 6 C0.34 6 -0.32 6 -1 6 C-1.33 6.66 -1.66 7.32 -2 8 C-4.0625 9.125 -4.0625 9.125 -6 10 C-6.33 9.01 -6.66 8.02 -7 7 C-4.69 4.69 -2.38 2.38 0 0 Z " fill="#CA7B2D" transform="translate(100,94)"/>
<path d="M0 0 C0.33 0.99 0.66 1.98 1 3 C-1.31 4.32 -3.62 5.64 -6 7 C-6 7.99 -6 8.98 -6 10 C-6.99 9.67 -7.98 9.34 -9 9 C-8.82701599 6.66471585 -8.29774631 5.30822418 -6.66796875 3.62109375 C-2.42788462 0 -2.42788462 0 0 0 Z " fill="#AB5C1A" transform="translate(94,156)"/>
<path d="M0 0 C1 2 1 2 0.375 4.4375 C-1.27706844 7.51635481 -2.91798591 8.45899296 -6 10 C-6.66 9.34 -7.32 8.68 -8 8 C-5.36 5.36 -2.72 2.72 0 0 Z " fill="#7A4B31" transform="translate(59,90)"/>
<path d="M0 0 C1.65 0 3.3 0 5 0 C2.47605975 4.5746417 -1.28150063 5.52056552 -6 7 C-5.34 5.02 -4.68 3.04 -4 1 C-2.68 1.33 -1.36 1.66 0 2 C0 1.34 0 0.68 0 0 Z " fill="#6A320F" transform="translate(85,66)"/>
<path d="M0 0 C1.65 1.65 3.3 3.3 5 5 C4.01 5.495 4.01 5.495 3 6 C3 5.34 3 4.68 3 4 C2.34 4 1.68 4 1 4 C1.66 5.32 2.32 6.64 3 8 C1.68 8.33 0.36 8.66 -1 9 C-2 4.25 -2 4.25 -2 2 C-1.34 2 -0.68 2 0 2 C0 1.34 0 0.68 0 0 Z " fill="#7F4C30" transform="translate(196,33)"/>
<path d="M0 0 C0 3.66184524 -0.919642 5.02806 -3 8 C-5.1875 9.8125 -5.1875 9.8125 -7 11 C-6.85969405 7.98342209 -6.70648535 5.76158727 -4.59765625 3.48828125 C-3.11095765 2.26743934 -1.55865102 1.12753478 0 0 Z " fill="#74320F" transform="translate(59,95)"/>
<path d="M0 0 C1.12894876 0.93274109 2.25300876 1.87140122 3.375 2.8125 C4.00148437 3.33457031 4.62796875 3.85664062 5.2734375 4.39453125 C7 6 7 6 9 9 C6.61435923 8.42415568 4.33317216 7.77772405 2 7 C2 6.34 2 5.68 2 5 C1.01 5 0.02 5 -1 5 C-0.67 3.35 -0.34 1.7 0 0 Z " fill="#5C605F" transform="translate(146,73)"/>
<path d="M0 0 C-1.5830577 4.2742558 -4.50568404 6.26531794 -8 9 C-8.33 8.01 -8.66 7.02 -9 6 C-8.34 6 -7.68 6 -7 6 C-7 5.34 -7 4.68 -7 4 C-3.58823529 0 -3.58823529 0 0 0 Z " fill="#7D543F" transform="translate(164,125)"/>
<path d="M0 0 C2 1.8125 2 1.8125 4 4 C4 4.99 4 5.98 4 7 C3.01 7.33 2.02 7.66 1 8 C-0.98 4.535 -0.98 4.535 -3 1 C-2.01 0.67 -1.02 0.34 0 0 Z " fill="#515257" transform="translate(183,78)"/>
<path d="M0 0 C0.66 1.32 1.32 2.64 2 4 C0.35 5.65 -1.3 7.3 -3 9 C-3.66 8.01 -4.32 7.02 -5 6 C-3.35 4.02 -1.7 2.04 0 0 Z " fill="#89410D" transform="translate(108,80)"/>
<path d="M0 0 C0.66 0.33 1.32 0.66 2 1 C1.67 2.65 1.34 4.3 1 6 C-0.32 5.67 -1.64 5.34 -3 5 C-3.33 5.99 -3.66 6.98 -4 8 C-4.66 7.67 -5.32 7.34 -6 7 C-4.19587357 3.73539027 -3.16605307 2.11070205 0 0 Z " fill="#6A2812" transform="translate(200,77)"/>
<path d="M0 0 C0.33 1.32 0.66 2.64 1 4 C2.32 4.33 3.64 4.66 5 5 C4.01 5.66 3.02 6.32 2 7 C1.42251197 8.96361864 1.42251197 8.96361864 1.3125 11.125 C1.209375 12.40375 1.10625 13.6825 1 15 C0.67 15 0.34 15 0 15 C-0.19601608 13.25093341 -0.38147403 11.50068154 -0.5625 9.75 C-0.66691406 8.77546875 -0.77132813 7.8009375 -0.87890625 6.796875 C-0.98974468 4.2368648 -0.77738092 2.41851841 0 0 Z " fill="#685C49" transform="translate(27,171)"/>
<path d="M0 0 C1.32 0.66 2.64 1.32 4 2 C2.35 3.65 0.7 5.3 -1 7 C-1.99 6.67 -2.98 6.34 -4 6 C-4 4 -4 4 -2 1.875 C-1.34 1.25625 -0.68 0.6375 0 0 Z " fill="#7B4426" transform="translate(165,119)"/>
<path d="M0 0 C0.99 0.33 1.98 0.66 3 1 C3 1.66 3 2.32 3 3 C4.65 3.33 6.3 3.66 8 4 C8.33 5.98 8.66 7.96 9 10 C3.97529326 7.62722182 2.43969017 4.78902145 0 0 Z " fill="#6A5543" transform="translate(150,85)"/>
<path d="M0 0 C1.98 0.99 1.98 0.99 4 2 C4 2.66 4 3.32 4 4 C4.99 4.33 5.98 4.66 7 5 C7.6875 7.0625 7.6875 7.0625 8 9 C4.63704165 7.55873214 2.37072898 5.79407345 0 3 C0 2.01 0 1.02 0 0 Z " fill="#E8A0A4" transform="translate(170,55)"/>
<path d="M0 0 C3.85714286 3.85714286 3.85714286 3.85714286 5 7 C4.625 9.25 4.625 9.25 4 11 C3.34 11 2.68 11 2 11 C1.34 7.37 0.68 3.74 0 0 Z " fill="#7E5A45" transform="translate(205,45)"/>
<path d="M0 0 C1.32 0.33 2.64 0.66 4 1 C1.03 3.97 -1.94 6.94 -5 10 C-5.33 9.01 -5.66 8.02 -6 7 C-5.34 7 -4.68 7 -4 7 C-4 6.34 -4 5.68 -4 5 C-3.34 5 -2.68 5 -2 5 C-2 4.34 -2 3.68 -2 3 C-1.34 3 -0.68 3 0 3 C0 2.01 0 1.02 0 0 Z " fill="#795A46" transform="translate(134,153)"/>
<path d="M0 0 C0.99 0.33 1.98 0.66 3 1 C-0.12621626 4.39417765 -2.56541027 6.6062718 -7 8 C-6.02133662 6.85373678 -5.04205413 5.70800212 -4.0625 4.5625 C-3.51722656 3.92441406 -2.97195312 3.28632813 -2.41015625 2.62890625 C-1.63204305 1.73008851 -0.84063472 0.84063472 0 0 Z " fill="#6F3009" transform="translate(154,127)"/>
<path d="M0 0 C0.33 0.99 0.66 1.98 1 3 C-0.33333333 4.33333333 -1.66666667 5.66666667 -3 7 C-3.804375 7.86625 -3.804375 7.86625 -4.625 8.75 C-6 10 -6 10 -8 10 C-6.34908222 5.70761377 -3.26245434 3.1206085 0 0 Z " fill="#D48339" transform="translate(87,108)"/>
<path d="M0 0 C0.144375 0.61875 0.28875 1.2375 0.4375 1.875 C0.93152225 4.03258322 0.93152225 4.03258322 2 6 C1.2575 6.12375 0.515 6.2475 -0.25 6.375 C-2.80141485 6.95486701 -4.7267573 7.73708739 -7 9 C-5.44499019 5.18315774 -2.96404505 2.80804268 0 0 Z M-9 9 C-7 10 -7 10 -7 10 Z " fill="#C97A30" transform="translate(119,74)"/>
<path d="M0 0 C1.66666667 1.66666667 3.33333333 3.33333333 5 5 C4.67 5.99 4.34 6.98 4 8 C4.66 8.33 5.32 8.66 6 9 C6.33 9.99 6.66 10.98 7 12 C4 11 4 11 2.61328125 8.71484375 C2.18402344 7.79832031 1.75476563 6.88179688 1.3125 5.9375 C0.87550781 5.01839844 0.43851563 4.09929687 -0.01171875 3.15234375 C-0.50091797 2.08693359 -0.50091797 2.08693359 -1 1 C-0.67 0.67 -0.34 0.34 0 0 Z " fill="#CD797B" transform="translate(185,73)"/>
<path d="M0 0 C1.65 1.65 3.3 3.3 5 5 C3 7 3 7 0 8 C-1.125 2.25 -1.125 2.25 0 0 Z " fill="#898E91" transform="translate(173,70)"/>
<path d="M0 0 C0.66 0 1.32 0 2 0 C2 0.66 2 1.32 2 2 C2.66 2 3.32 2 4 2 C3.67 3.98 3.34 5.96 3 8 C1.68 7.34 0.36 6.68 -1 6 C-0.67 5.01 -0.34 4.02 0 3 C0 2.01 0 1.02 0 0 Z " fill="#6C2D13" transform="translate(197,37)"/>
<path d="M0 0 C7.75 -0.125 7.75 -0.125 10 1 C10 1.66 10 2.32 10 3 C8.72125 3.061875 7.4425 3.12375 6.125 3.1875 C5.40570313 3.22230469 4.68640625 3.25710937 3.9453125 3.29296875 C3.30335937 3.19628906 2.66140625 3.09960938 2 3 C1.34 2.01 0.68 1.02 0 0 Z " fill="#C8CCCF" transform="translate(118,33)"/>
<path d="M0 0 C1.13199353 0.9080162 2.25532363 1.82683826 3.375 2.75 C4.00148438 3.26046875 4.62796875 3.7709375 5.2734375 4.296875 C7.08312318 6.08199481 8.00117455 7.67949644 9 10 C8.01 9.67 7.02 9.34 6 9 C6 8.34 6 7.68 6 7 C5.38125 6.71125 4.7625 6.4225 4.125 6.125 C2 5 2 5 0 3 C0 2.01 0 1.02 0 0 Z " fill="#524B38" transform="translate(38,180)"/>
<path d="M0 0 C2.3125 -0.25 2.3125 -0.25 5 0 C6.97610386 2.04424538 8 3.1176825 8 6 C8.66 6.33 9.32 6.66 10 7 C6.433255 7 5.89456323 6.36308045 3.3125 4.0625 C2.68988281 3.51722656 2.06726562 2.97195312 1.42578125 2.41015625 C0.95527344 1.94480469 0.48476563 1.47945312 0 1 C0 0.67 0 0.34 0 0 Z " fill="#DCC696" transform="translate(35,177)"/>
<path d="M0 0 C0.66 0.99 1.32 1.98 2 3 C0.71480435 5.86697492 -0.57129254 7.97607712 -3 10 C-3.66 10 -4.32 10 -5 10 C-3.33333333 6.66666667 -1.66666667 3.33333333 0 0 Z " fill="#5E3317" transform="translate(113,172)"/>
<path d="M0 0 C1.32 0.33 2.64 0.66 4 1 C4 2.65 4 4.3 4 6 C4.66 6.33 5.32 6.66 6 7 C4.68 7.33 3.36 7.66 2 8 C0.74335022 5.09399739 0 3.20395416 0 0 Z " fill="#635856" transform="translate(170,110)"/>
<path d="M0 0 C2.31 1.98 4.62 3.96 7 6 C5.68 6.33 4.36 6.66 3 7 C0.75 5.0625 0.75 5.0625 -1 3 C-0.67 2.01 -0.34 1.02 0 0 Z " fill="#6F4533" transform="translate(189,26)"/>
<path d="M0 0 C2.0625 1.75 2.0625 1.75 4 4 C3.75 6.25 3.75 6.25 3 8 C2.01 7.67 1.02 7.34 0 7 C-0.38133299 5.0085944 -0.71325582 3.00720923 -1 1 C-0.67 0.67 -0.34 0.34 0 0 Z " fill="#515355" transform="translate(169,102)"/>
<path d="M0 0 C0.33 0 0.66 0 1 0 C1 1.65 1 3.3 1 5 C0.34 4.67 -0.32 4.34 -1 4 C-1 4.99 -1 5.98 -1 7 C-2.98 7.33 -4.96 7.66 -7 8 C-6.02133662 6.85373678 -5.04205413 5.70800212 -4.0625 4.5625 C-3.51722656 3.92441406 -2.97195312 3.28632812 -2.41015625 2.62890625 C-1.63204305 1.73008851 -0.84063472 0.84063472 0 0 Z " fill="#8B654E" transform="translate(50,99)"/>
<path d="M0 0 C4.42761914 1.39153744 6.9556255 3.52071486 10 7 C10 7.66 10 8.32 10 9 C6.78956118 7.61811547 4.95063635 6.07578097 2.75 3.375 C2.22921875 2.74335937 1.7084375 2.11171875 1.171875 1.4609375 C0.78515625 0.97882813 0.3984375 0.49671875 0 0 Z " fill="#BCBFC1" transform="translate(142,68)"/>
<path d="M0 0 C1.32 0.99 2.64 1.98 4 3 C2.35 4.32 0.7 5.64 -1 7 C-1.99 6.34 -2.98 5.68 -4 5 C-3.525625 4.54625 -3.05125 4.0925 -2.5625 3.625 C-0.90972192 2.06741796 -0.90972192 2.06741796 0 0 Z " fill="#B8BBBD" transform="translate(136,38)"/>
<path d="M0 0 C0.99 0 1.98 0 3 0 C3 0.99 3 1.98 3 3 C-1.455 4.485 -1.455 4.485 -6 6 C-4 4 -2 2 0 0 Z " fill="#79503C" transform="translate(140,10)"/>
<path d="M0 0 C1 4 1 4 0 7 C-1.98 7.33 -3.96 7.66 -6 8 C-4.02 5.36 -2.04 2.72 0 0 Z " fill="#7D3708" transform="translate(164,116)"/>
<path d="M0 0 C0.99 0.33 1.98 0.66 3 1 C0.69 3.31 -1.62 5.62 -4 8 C-4.66 7.34 -5.32 6.68 -6 6 C-4.71034824 4.62437146 -3.37310707 3.29233607 -2 2 C-1.34 2 -0.68 2 0 2 C0 1.34 0 0.68 0 0 Z " fill="#D68537" transform="translate(135,103)"/>
<path d="M0 0 C0.33 0.66 0.66 1.32 1 2 C0.07038578 3.15224028 -0.8690125 4.29659176 -1.8125 5.4375 C-2.59560547 6.39462891 -2.59560547 6.39462891 -3.39453125 7.37109375 C-5 9 -5 9 -8 10 C-6.34908222 5.70761377 -3.26245434 3.1206085 0 0 Z " fill="#E29C4E" transform="translate(67,91)"/>
<path d="M0 0 C1.32 0 2.64 0 4 0 C4 0.66 4 1.32 4 2 C5.32 2 6.64 2 8 2 C8.33 3.65 8.66 5.3 9 7 C7 7 7 7 5.0625 5.1875 C4.381875 4.465625 3.70125 3.74375 3 3 C2.4225 2.4225 1.845 1.845 1.25 1.25 C0.8375 0.8375 0.425 0.425 0 0 Z " fill="#655A4A" transform="translate(121,59)"/>
<path d="M0 0 C2 2 2 2 2.125 4.625 C2.08375 5.40875 2.0425 6.1925 2 7 C2.99 7.33 3.98 7.66 5 8 C3.68 8 2.36 8 1 8 C1 7.34 1 6.68 1 6 C0.01 6.33 -0.98 6.66 -2 7 C-1.34 4.69 -0.68 2.38 0 0 Z " fill="#5D5A56" transform="translate(100,43)"/>
<path d="M0 0 C1.98 0.99 3.96 1.98 6 3 C2.98968256 3.93423645 2.13349732 4.04449911 -1 3 C-1 3.66 -1 4.32 -1 5 C-1.99 4.67 -2.98 4.34 -4 4 C-3.67 3.34 -3.34 2.68 -3 2 C-2.01 2 -1.02 2 0 2 C0 1.34 0 0.68 0 0 Z " fill="#64595A" transform="translate(145,37)"/>
<path d="M0 0 C4 0 4 0 6 1 C3.03 3.475 3.03 3.475 0 6 C0 5.34 0 4.68 0 4 C-0.66 3.34 -1.32 2.68 -2 2 C-1.34 1.34 -0.68 0.68 0 0 Z " fill="#4E5255" transform="translate(111,33)"/>
<path d="M0 0 C0.33 0 0.66 0 1 0 C1 1.65 1 3.3 1 5 C2.32 5.33 3.64 5.66 5 6 C4.34 6.66 3.68 7.32 3 8 C0.69 7.34 -1.62 6.68 -4 6 C-3.01 5.34 -2.02 4.68 -1 4 C-0.27617533 1.94074861 -0.27617533 1.94074861 0 0 Z " fill="#EBBC80" transform="translate(77,164)"/>
<path d="M0 0 C1.32 0.99 2.64 1.98 4 3 C4.33 2.34 4.66 1.68 5 1 C6 2 6 2 6.0625 4.5625 C6.041875 5.366875 6.02125 6.17125 6 7 C5.01 6.34 4.02 5.68 3 5 C2.01 4.67 1.02 4.34 0 4 C0 2.68 0 1.36 0 0 Z " fill="#6B3009" transform="translate(75,153)"/>
<path d="M0 0 C0.66 0.33 1.32 0.66 2 1 C-1.96 4.465 -1.96 4.465 -6 8 C-6.66 7.67 -7.32 7.34 -8 7 C-5.36 4.69 -2.72 2.38 0 0 Z " fill="#AD5E20" transform="translate(110,138)"/>
<path d="M0 0 C1.32 0.33 2.64 0.66 4 1 C1.525 4.465 1.525 4.465 -1 8 C-1.33 6.68 -1.66 5.36 -2 4 C-1.34 4 -0.68 4 0 4 C0 2.68 0 1.36 0 0 Z " fill="#5F3622" transform="translate(197,82)"/>
<path d="M0 0 C0.99 0 1.98 0 3 0 C3 0.66 3 1.32 3 2 C3.99 2 4.98 2 6 2 C6.33 3.65 6.66 5.3 7 7 C5.82780457 6.21654285 4.66236332 5.42297164 3.5 4.625 C2.8503125 4.18414062 2.200625 3.74328125 1.53125 3.2890625 C1.0259375 2.86367187 0.520625 2.43828125 0 2 C0 1.34 0 0.68 0 0 Z " fill="#6B5B4C" transform="translate(142,76)"/>
<path d="M0 0 C0.66 0 1.32 0 2 0 C1.60196439 2.88575819 1.20990931 3.82189513 -1.0625 5.75 C-1.701875 6.1625 -2.34125 6.575 -3 7 C-2.25 2.25 -2.25 2.25 0 0 Z " fill="#753708" transform="translate(93,59)"/>
<path d="M0 0 C2.97 0.495 2.97 0.495 6 1 C5.67 1.99 5.34 2.98 5 4 C3.35 4 1.7 4 0 4 C0 2.68 0 1.36 0 0 Z " fill="#485254" transform="translate(126,30)"/>
<path d="M0 0 C0.66 0.33 1.32 0.66 2 1 C1.67 1.66 1.34 2.32 1 3 C1.66 3 2.32 3 3 3 C2.67 3.99 2.34 4.98 2 6 C-0.475 5.01 -0.475 5.01 -3 4 C-3 3.34 -3 2.68 -3 2 C-2.01 1.34 -1.02 0.68 0 0 Z " fill="#682F15" transform="translate(137,14)"/>
<path d="M0 0 C0.33 0 0.66 0 1 0 C1 1.65 1 3.3 1 5 C2.65 5.33 4.3 5.66 6 6 C3 8 3 8 1 8 C0.34 5.69 -0.32 3.38 -1 1 C-0.67 0.67 -0.34 0.34 0 0 Z " fill="#7B5338" transform="translate(20,196)"/>
<path d="M0 0 C3.26954202 0.56371414 4.82575883 1.49962266 7 4 C4.69 3.67 2.38 3.34 0 3 C0 2.01 0 1.02 0 0 Z " fill="#6A4126" transform="translate(37,199)"/>
<path d="M0 0 C0.33 0.66 0.66 1.32 1 2 C0.34 1.67 -0.32 1.34 -1 1 C-0.67 0.67 -0.34 0.34 0 0 Z M-3 2 C-2.01 2.495 -2.01 2.495 -1 3 C-1.99 3.495 -1.99 3.495 -3 4 C-3 3.34 -3 2.68 -3 2 Z M-5 4 C-4.34 4.33 -3.68 4.66 -3 5 C-3.66 6.32 -4.32 7.64 -5 9 C-5.99 7.68 -6.98 6.36 -8 5 C-7.01 4.67 -6.02 4.34 -5 4 Z " fill="#D78489" transform="translate(184,59)"/>
<path d="M0 0 C2.4375 0.8125 2.4375 0.8125 5 2 C5.33 2.99 5.66 3.98 6 5 C4.68 5 3.36 5 2 5 C0.25 3 0.25 3 -1 1 C-0.67 0.67 -0.34 0.34 0 0 Z " fill="#4E504E" transform="translate(119,53)"/>
<path d="M0 0 C1.65 0 3.3 0 5 0 C5.33 0.99 5.66 1.98 6 3 C5.01 3.66 4.02 4.32 3 5 C2.01 4.34 1.02 3.68 0 3 C0 2.01 0 1.02 0 0 Z " fill="#555C5F" transform="translate(137,36)"/>
<path d="M0 0 C2.31 0.66 4.62 1.32 7 2 C7 2.33 7 2.66 7 3 C3.7 3.33 0.4 3.66 -3 4 C-2.67 3.34 -2.34 2.68 -2 2 C-1.34 2 -0.68 2 0 2 C0 1.34 0 0.68 0 0 Z " fill="#785039" transform="translate(62,196)"/>
<path d="M0 0 C0.99 0.33 1.98 0.66 3 1 C0.03 3.475 0.03 3.475 -3 6 C-2.625 3.5625 -2.625 3.5625 -2 1 C-1.34 0.67 -0.68 0.34 0 0 Z " fill="#9F561E" transform="translate(107,173)"/>
<path d="M0 0 C1.32 0 2.64 0 4 0 C3.34 1.32 2.68 2.64 2 4 C1.01 4 0.02 4 -1 4 C-0.67 2.68 -0.34 1.36 0 0 Z " fill="#6C3D1E" transform="translate(115,171)"/>
<path d="M0 0 C1.65 0 3.3 0 5 0 C5.33 1.65 5.66 3.3 6 5 C3.69 4.01 1.38 3.02 -1 2 C-0.67 1.34 -0.34 0.68 0 0 Z " fill="#C97832" transform="translate(64,138)"/>
<path d="M0 0 C0.66 0.33 1.32 0.66 2 1 C1.67 2.65 1.34 4.3 1 6 C0.34 6 -0.32 6 -1 6 C-1.66 4.35 -2.32 2.7 -3 1 C-2.01 0.67 -1.02 0.34 0 0 Z " fill="#D28C41" transform="translate(55,131)"/>
<path d="M0 0 C0.66 1.32 1.32 2.64 2 4 C1.195625 4.12375 0.39125 4.2475 -0.4375 4.375 C-1.7059375 4.684375 -1.7059375 4.684375 -3 5 C-3.33 5.66 -3.66 6.32 -4 7 C-4 4 -4 4 -2 1.8125 C-1.34 1.214375 -0.68 0.61625 0 0 Z " fill="#8C450C" transform="translate(114,128)"/>
<path d="M0 0 C0.33 0.66 0.66 1.32 1 2 C-0.61594832 4.04119788 -2.2856382 6.04072937 -4 8 C-4.66 8 -5.32 8 -6 8 C-4.55746343 4.63408134 -2.66735273 2.48952921 0 0 Z " fill="#D68735" transform="translate(126,67)"/>
<path d="M0 0 C1.32 1.32 2.64 2.64 4 4 C3.34 5.32 2.68 6.64 2 8 C0.23537317 4.91190305 0 3.76687864 0 0 Z " fill="#7C4D3C" transform="translate(201,39)"/>
<path d="M0 0 C2.88437779 1.29299694 4.87219421 2.65941363 7 5 C6.34 5 5.68 5 5 5 C4.34 5.66 3.68 6.32 3 7 C0 2.25 0 2.25 0 0 Z " fill="#875C47" transform="translate(174,14)"/>
</svg>
