<?xml version="1.0" encoding="UTF-8"?>
<svg version="1.1" xmlns="http://www.w3.org/2000/svg" width="500" height="500">
<path d="M0 0 C5.15482743 5.64739982 8.98966185 11.99050399 12.26171875 18.8671875 C13.45348516 21.30361857 14.68866047 23.69035275 15.97265625 26.078125 C21.32278537 36.0319514 26.21002242 46.0888329 30.75 56.4375 C32.04282537 59.37628214 33.40632006 62.25633211 34.86328125 65.1171875 C36.5289082 68.40153956 37.91466056 71.71935041 39.1953125 75.17578125 C43.45555402 86.54746734 43.45555402 86.54746734 48.5703125 97.55078125 C49.7578125 99.92578125 49.7578125 99.92578125 49.7578125 101.92578125 C63.29564759 103.59519708 76.82740234 105.056539 90.41967773 106.18444824 C106.62679265 107.53212808 122.6795049 109.44207914 138.7578125 111.92578125 C139.82620361 112.09005615 140.89459473 112.25433105 141.99536133 112.42358398 C147.34400367 113.27653051 152.51650798 114.23714969 157.6953125 115.86328125 C158.73558594 116.18167969 159.77585937 116.50007813 160.84765625 116.828125 C163.76021325 117.92668677 166.21422102 119.13168265 168.7578125 120.92578125 C168.7578125 121.58578125 168.7578125 122.24578125 168.7578125 122.92578125 C169.4178125 122.92578125 170.0778125 122.92578125 170.7578125 122.92578125 C173.21557988 127.29077612 173.42848407 131.00482964 172.7578125 135.92578125 C171.20974664 140.26494123 168.88039678 144.51932567 165.7578125 147.92578125 C165.0978125 147.92578125 164.4378125 147.92578125 163.7578125 147.92578125 C163.7578125 148.58578125 163.7578125 149.24578125 163.7578125 149.92578125 C163.0978125 149.92578125 162.4378125 149.92578125 161.7578125 149.92578125 C161.7578125 150.58578125 161.7578125 151.24578125 161.7578125 151.92578125 C161.0978125 151.92578125 160.4378125 151.92578125 159.7578125 151.92578125 C159.7578125 152.58578125 159.7578125 153.24578125 159.7578125 153.92578125 C159.0978125 153.92578125 158.4378125 153.92578125 157.7578125 153.92578125 C157.7578125 154.58578125 157.7578125 155.24578125 157.7578125 155.92578125 C157.0978125 155.92578125 156.4378125 155.92578125 155.7578125 155.92578125 C155.53867187 156.48136719 155.31953125 157.03695312 155.09375 157.609375 C153.31576833 160.69224964 151.03893711 162.62147205 148.3828125 164.98828125 C147.30435783 165.95405908 146.22624329 166.92021683 145.1484375 167.88671875 C144.59220703 168.38268555 144.03597656 168.87865234 143.46289062 169.38964844 C141.74531246 170.93704274 140.05329753 172.50826082 138.3671875 174.08984375 C137.82497559 174.59636475 137.28276367 175.10288574 136.72412109 175.62475586 C135.67714346 176.60410882 134.63310623 177.58661633 133.59228516 178.57250977 C129.98182518 181.92578125 129.98182518 181.92578125 127.7578125 181.92578125 C127.4896875 182.52390625 127.2215625 183.12203125 126.9453125 183.73828125 C125.75863844 185.92425979 124.66182137 187.33910719 122.7578125 188.92578125 C122.0978125 188.92578125 121.4378125 188.92578125 120.7578125 188.92578125 C120.7578125 189.58578125 120.7578125 190.24578125 120.7578125 190.92578125 C119.28712836 192.23441496 117.75179932 193.47046685 116.1953125 194.67578125 C111.20028808 198.66531374 106.4809664 202.86346253 101.8203125 207.23828125 C101.182146 207.83672852 100.54397949 208.43517578 99.88647461 209.05175781 C98.69131126 210.17806987 97.50118948 211.30976534 96.31713867 212.44775391 C95.01706569 213.68004478 93.66994551 214.86245906 92.3125 216.03125 C90.55238002 217.82814714 90.55238002 217.82814714 90.48046875 220.30078125 C91.09008036 225.00950538 91.8623215 229.57614696 93.078125 234.16796875 C95.174593 242.40685355 96.86993428 250.72299517 98.5703125 259.05078125 C98.74289581 259.89472443 98.91547913 260.7386676 99.09329224 261.60818481 C101.44189288 273.12561852 103.72029695 284.65558257 105.80844116 296.22332764 C106.06109545 297.62086835 106.31652752 299.01791053 106.57510376 300.41436768 C111.87547312 329.17623245 111.87547312 329.17623245 106.7578125 337.92578125 C103.12846681 341.74817725 99.66647391 344.09659026 94.3828125 344.48828125 C80.7840662 344.34551226 67.08183851 336.06684832 55.921875 328.90625 C52.93916041 327.03929161 49.9293588 325.44448242 46.7578125 323.92578125 C46.7578125 323.26578125 46.7578125 322.60578125 46.7578125 321.92578125 C46.18973877 321.81041016 45.62166504 321.69503906 45.03637695 321.57617188 C42.51892042 320.85759219 40.56791079 319.82692922 38.30078125 318.51953125 C37.01373291 317.78114014 37.01373291 317.78114014 35.70068359 317.02783203 C34.79141113 316.49915527 33.88213867 315.97047852 32.9453125 315.42578125 C32.00768066 314.88550293 31.07004883 314.34522461 30.10400391 313.78857422 C23.96878982 310.24245612 17.88074285 306.62310095 11.81933594 302.95263672 C7.2977433 300.22330768 2.72198512 297.62407829 -1.9453125 295.15234375 C-3.84805444 294.13625367 -5.70811344 293.04069389 -7.5546875 291.92578125 C-10.19580081 290.69073137 -10.19580081 290.69073137 -12.9296875 291.36328125 C-16.98665283 293.27694414 -20.87122273 295.43883343 -24.75390625 297.68359375 C-27.2421875 298.92578125 -27.2421875 298.92578125 -30.2421875 298.92578125 C-30.2421875 299.58578125 -30.2421875 300.24578125 -30.2421875 300.92578125 C-31.22445312 301.45365234 -31.22445312 301.45365234 -32.2265625 301.9921875 C-38.31002509 305.28310017 -44.30331803 308.69815126 -50.265625 312.203125 C-53.10839721 313.84835144 -55.97656884 315.42897569 -58.8671875 316.98828125 C-62.38097036 318.88612672 -65.82874809 320.85295133 -69.2421875 322.92578125 C-79.01559103 328.83884357 -89.15428578 334.07348397 -99.43261719 339.04785156 C-100.97147318 339.7944417 -102.50227758 340.55759112 -104.03125 341.32421875 C-110.59998579 344.34112998 -117.07840834 344.76058478 -124.2421875 343.92578125 C-127.69581936 342.52422175 -129.39257981 341.20463125 -131.2421875 337.92578125 C-135.64486992 324.71773398 -131.90842836 309.43723612 -129.4921875 296.05078125 C-129.22241515 294.52213959 -128.95313548 292.99341091 -128.68432617 291.46459961 C-127.8860366 286.94875273 -127.06804336 282.43666026 -126.2421875 277.92578125 C-126.05985565 276.92837921 -126.05985565 276.92837921 -125.87384033 275.91082764 C-125.1145593 271.76733005 -124.34013545 267.6268935 -123.5546875 263.48828125 C-123.36487305 262.48490723 -123.17505859 261.4815332 -122.97949219 260.44775391 C-121.82152256 254.481693 -120.43389644 248.60570481 -118.93139648 242.7175293 C-118.01672211 239.01249865 -117.29924557 235.30584819 -116.6171875 231.55078125 C-116.49601562 230.89207031 -116.37484375 230.23335937 -116.25 229.5546875 C-115.90705156 227.6796542 -115.57435958 225.8027536 -115.2421875 223.92578125 C-115.02820313 222.84039062 -114.81421875 221.755 -114.59375 220.63671875 C-114.03033076 217.83533786 -114.03033076 217.83533786 -115.2421875 214.92578125 C-117.15885417 213.75911458 -117.15885417 213.75911458 -119.2421875 212.92578125 C-119.9021875 212.59578125 -120.5621875 212.26578125 -121.2421875 211.92578125 C-121.2421875 211.26578125 -121.2421875 210.60578125 -121.2421875 209.92578125 C-121.83370605 209.65717285 -122.42522461 209.38856445 -123.03466797 209.11181641 C-125.25151165 207.92077166 -126.75884557 206.69088091 -128.5625 204.94921875 C-129.17601318 204.36430664 -129.78952637 203.77939453 -130.42163086 203.17675781 C-131.06366455 202.55768555 -131.70569824 201.93861328 -132.3671875 201.30078125 C-137.5758345 196.33919725 -142.81764207 191.6904819 -148.58203125 187.37890625 C-149.12988281 186.899375 -149.67773438 186.41984375 -150.2421875 185.92578125 C-150.2421875 185.26578125 -150.2421875 184.60578125 -150.2421875 183.92578125 C-150.9021875 183.92578125 -151.5621875 183.92578125 -152.2421875 183.92578125 C-152.2421875 183.26578125 -152.2421875 182.60578125 -152.2421875 181.92578125 C-152.9021875 181.92578125 -153.5621875 181.92578125 -154.2421875 181.92578125 C-154.2421875 181.26578125 -154.2421875 180.60578125 -154.2421875 179.92578125 C-154.82105713 179.66909668 -155.39992676 179.41241211 -155.99633789 179.14794922 C-158.45284713 177.81114247 -160.16222951 176.3081379 -162.17578125 174.37109375 C-162.90732422 173.67371094 -163.63886719 172.97632813 -164.39257812 172.2578125 C-165.14732422 171.52949219 -165.90207031 170.80117187 -166.6796875 170.05078125 C-168.17671804 168.61414593 -169.67537315 167.17920122 -171.17578125 165.74609375 C-172.22741455 164.7411084 -172.22741455 164.7411084 -173.30029297 163.71582031 C-174.89213033 162.24846407 -176.57445857 160.87985415 -178.27734375 159.54296875 C-178.92574219 159.00929687 -179.57414062 158.475625 -180.2421875 157.92578125 C-180.2421875 157.26578125 -180.2421875 156.60578125 -180.2421875 155.92578125 C-180.9021875 155.92578125 -181.5621875 155.92578125 -182.2421875 155.92578125 C-182.2421875 155.26578125 -182.2421875 154.60578125 -182.2421875 153.92578125 C-182.9021875 153.92578125 -183.5621875 153.92578125 -184.2421875 153.92578125 C-184.2421875 153.26578125 -184.2421875 152.60578125 -184.2421875 151.92578125 C-184.9021875 151.92578125 -185.5621875 151.92578125 -186.2421875 151.92578125 C-188.1171875 149.6953125 -188.1171875 149.6953125 -190.2421875 146.73828125 C-190.9434375 145.77535156 -191.6446875 144.81242188 -192.3671875 143.8203125 C-195.95952227 138.2746457 -197.18862565 133.47005478 -196.2421875 126.92578125 C-193.68115088 121.98663921 -190.81866808 118.94017406 -185.6328125 116.8984375 C-165.26338538 110.99535725 -144.19019368 109.18528527 -123.14941406 107.2890625 C-116.88229707 106.70636629 -110.62476074 106.03993668 -104.3671875 105.36328125 C-102.64048828 105.17693115 -102.64048828 105.17693115 -100.87890625 104.98681641 C-91.99350765 104.02061961 -83.11477355 103.0031667 -74.2421875 101.92578125 C-73.94957031 101.00925781 -73.65695313 100.09273438 -73.35546875 99.1484375 C-72.27938813 96.03346729 -70.88380958 93.24293254 -69.375 90.3203125 C-67.55274915 86.46845123 -66.13774146 82.46754999 -64.68359375 78.46484375 C-63.17383745 74.75796242 -61.42550307 71.24959694 -59.61401367 67.68359375 C-57.67645007 63.78846678 -55.89164055 59.8288362 -54.09448242 55.86743164 C-46.44582132 39.01914147 -38.52286208 22.34679312 -28.2421875 6.92578125 C-27.75363281 6.075 -27.26507813 5.22421875 -26.76171875 4.34765625 C-23.95373058 -0.12780047 -20.31173953 -3.42748374 -15.2421875 -5.01171875 C-8.73273822 -5.14733228 -4.76061136 -4.47241292 0 0 Z M-13.2421875 15.92578125 C-20.84576092 29.02484929 -28.00992747 42.16137996 -34.31494141 55.93359375 C-35.59987863 58.69428036 -36.97933236 61.40313892 -38.3671875 64.11328125 C-40.96641612 69.25445521 -43.27562232 74.49371028 -45.5625 79.77832031 C-59.81901912 112.67194097 -59.81901912 112.67194097 -70.2421875 117.92578125 C-73.19049033 118.54349247 -76.01131766 119.00332609 -78.9921875 119.36328125 C-80.38026611 119.54322632 -80.38026611 119.54322632 -81.79638672 119.72680664 C-92.85706574 121.10135954 -103.96386032 122.07010472 -115.05914307 123.11737061 C-148.87469285 123.67955811 -148.87469285 123.67955811 -178.2421875 133.92578125 C-177.74847656 134.40789062 -177.25476563 134.89 -176.74609375 135.38671875 C-175.78509766 136.33417969 -175.78509766 136.33417969 -174.8046875 137.30078125 C-174.16660156 137.92726563 -173.52851563 138.55375 -172.87109375 139.19921875 C-171.2421875 140.92578125 -171.2421875 140.92578125 -170.2421875 142.92578125 C-169.5821875 142.92578125 -168.9221875 142.92578125 -168.2421875 142.92578125 C-168.2421875 143.58578125 -168.2421875 144.24578125 -168.2421875 144.92578125 C-167.5821875 144.92578125 -166.9221875 144.92578125 -166.2421875 144.92578125 C-165.94248047 145.73208984 -165.94248047 145.73208984 -165.63671875 146.5546875 C-163.63520563 149.95782045 -160.86234299 152.25611472 -157.9296875 154.86328125 C-156.78685219 155.89222131 -155.64491317 156.92215779 -154.50390625 157.953125 C-153.9526709 158.44796387 -153.40143555 158.94280273 -152.83349609 159.45263672 C-151.31608367 160.85737231 -149.8807647 162.31325302 -148.44921875 163.8046875 C-146.51202756 166.15675798 -146.51202756 166.15675798 -144.2421875 165.92578125 C-144.2421875 166.58578125 -144.2421875 167.24578125 -144.2421875 167.92578125 C-142.55696021 169.63062591 -142.55696021 169.63062591 -140.4296875 171.36328125 C-136.39023788 174.76995734 -136.39023788 174.76995734 -134.60546875 176.6484375 C-133.31030864 178.15369206 -133.31030864 178.15369206 -131.2421875 177.92578125 C-131.2421875 178.58578125 -131.2421875 179.24578125 -131.2421875 179.92578125 C-129.56258912 181.70249822 -129.56258912 181.70249822 -127.4296875 183.48828125 C-126.72199219 184.10832031 -126.01429688 184.72835937 -125.28515625 185.3671875 C-123.22945282 187.11002879 -123.22945282 187.11002879 -120.2421875 187.92578125 C-120.2421875 188.58578125 -120.2421875 189.24578125 -120.2421875 189.92578125 C-119.5821875 189.92578125 -118.9221875 189.92578125 -118.2421875 189.92578125 C-118.2421875 190.58578125 -118.2421875 191.24578125 -118.2421875 191.92578125 C-117.5821875 191.92578125 -116.9221875 191.92578125 -116.2421875 191.92578125 C-116.2421875 192.58578125 -116.2421875 193.24578125 -116.2421875 193.92578125 C-113.18660327 196.95096034 -113.18660327 196.95096034 -109.2421875 197.92578125 C-109.2421875 198.58578125 -109.2421875 199.24578125 -109.2421875 199.92578125 C-106.60534003 202.3239843 -106.60534003 202.3239843 -103.2421875 202.92578125 C-103.2421875 203.58578125 -103.2421875 204.24578125 -103.2421875 204.92578125 C-102.6234375 205.50328125 -102.0046875 206.08078125 -101.3671875 206.67578125 C-97.5386934 210.72948088 -96.98956543 215.02602716 -97.0501709 220.47601318 C-97.45338453 225.62025523 -98.76914068 230.60861464 -99.9453125 235.62109375 C-100.22437439 236.84496796 -100.50343628 238.06884216 -100.79095459 239.32980347 C-101.53311228 242.58108842 -102.2820952 245.83062322 -103.03533936 249.0793457 C-107.18045277 266.96674226 -111.17150736 284.81967781 -114.2421875 302.92578125 C-114.47543812 304.27210788 -114.70897417 305.61838511 -114.94287109 306.96459961 C-116.0335687 313.34057544 -116.50493023 319.4593908 -116.2421875 325.92578125 C-114.22285612 327.22818105 -114.22285612 327.22818105 -111.859375 326.1484375 C-110.95445312 325.76558594 -110.04953125 325.38273437 -109.1171875 324.98828125 C-108.20710938 324.60800781 -107.29703125 324.22773438 -106.359375 323.8359375 C-105.31136719 323.38541016 -105.31136719 323.38541016 -104.2421875 322.92578125 C-104.2421875 322.26578125 -104.2421875 321.60578125 -104.2421875 320.92578125 C-102.9221875 320.92578125 -101.6021875 320.92578125 -100.2421875 320.92578125 C-100.2421875 320.26578125 -100.2421875 319.60578125 -100.2421875 318.92578125 C-99.65518066 318.79453857 -99.06817383 318.6632959 -98.46337891 318.52807617 C-94.96864746 317.58045005 -91.8339077 315.8680361 -88.6171875 314.23828125 C-87.90224121 313.87814941 -87.18729492 313.51801758 -86.45068359 313.14697266 C-80.88844093 310.3162221 -75.53328991 307.23611199 -70.2421875 303.92578125 C-64.27560465 300.27900581 -58.24813758 296.81208953 -52.09375 293.4921875 C-49.11142087 291.85394917 -46.17549328 290.15014059 -43.2421875 288.42578125 C-38.45878572 285.61894057 -33.64797979 282.88373784 -28.75 280.28125 C-27.21950451 279.45401957 -25.70742076 278.58973134 -24.234375 277.6640625 C-18.19367565 274.06239029 -12.10194092 273.72792843 -5.2421875 274.92578125 C0.40716748 277.06353507 5.53776294 279.90732192 10.7578125 282.92578125 C11.51932617 283.35922852 12.28083984 283.79267578 13.06542969 284.23925781 C17.09140368 286.53152707 21.09945529 288.85220616 25.09375 291.19921875 C29.32685628 293.68405736 33.59575855 296.09805952 37.8828125 298.48828125 C43.42481167 301.58564763 48.9162875 304.75962645 54.3828125 307.98828125 C56.50219583 309.23793352 58.62167112 310.48742958 60.74121094 311.73681641 C62.04694138 312.5066599 63.35230421 313.27712738 64.65722656 314.04833984 C77.53004252 322.64945152 77.53004252 322.64945152 91.7578125 326.92578125 C93.43975812 303.42526334 85.8106758 278.97129762 80.70605469 256.23925781 C79.77309309 252.08401258 78.85008735 247.92663738 77.93151855 243.76818848 C77.3951435 241.35623099 76.84669638 238.94723109 76.29785156 236.53808594 C74.00609871 226.29075075 72.23075828 217.06606212 75.7578125 206.92578125 C76.4178125 206.92578125 77.0778125 206.92578125 77.7578125 206.92578125 C77.7578125 206.26578125 77.7578125 205.60578125 77.7578125 204.92578125 C78.4178125 204.92578125 79.0778125 204.92578125 79.7578125 204.92578125 C79.7578125 204.26578125 79.7578125 203.60578125 79.7578125 202.92578125 C81.7578125 201.92578125 83.7578125 200.92578125 85.7578125 199.92578125 C85.7578125 199.26578125 85.7578125 198.60578125 85.7578125 197.92578125 C86.4178125 197.92578125 87.0778125 197.92578125 87.7578125 197.92578125 C87.7578125 197.26578125 87.7578125 196.60578125 87.7578125 195.92578125 C88.4178125 195.92578125 89.0778125 195.92578125 89.7578125 195.92578125 C89.7578125 195.26578125 89.7578125 194.60578125 89.7578125 193.92578125 C90.2940625 193.70792969 90.8303125 193.49007812 91.3828125 193.265625 C94.59481698 191.45358958 97.10169686 189.01109519 99.7578125 186.48828125 C100.91257288 185.4073517 102.06752542 184.32662741 103.22265625 183.24609375 C103.80772949 182.69598633 104.39280273 182.14587891 104.99560547 181.57910156 C107.75497913 178.99022952 110.53543299 176.42465588 113.3203125 173.86328125 C114.27035156 172.98542969 115.22039062 172.10757813 116.19921875 171.203125 C118.7578125 168.92578125 118.7578125 168.92578125 121.09765625 167.2421875 C121.91943359 166.59056641 121.91943359 166.59056641 122.7578125 165.92578125 C122.7578125 165.26578125 122.7578125 164.60578125 122.7578125 163.92578125 C123.3353125 163.65765625 123.9128125 163.38953125 124.5078125 163.11328125 C126.81331293 161.89648936 128.77837442 160.62244246 130.7578125 158.92578125 C130.7578125 158.26578125 130.7578125 157.60578125 130.7578125 156.92578125 C131.4178125 156.92578125 132.0778125 156.92578125 132.7578125 156.92578125 C132.7578125 156.26578125 132.7578125 155.60578125 132.7578125 154.92578125 C133.4178125 154.92578125 134.0778125 154.92578125 134.7578125 154.92578125 C134.7578125 154.26578125 134.7578125 153.60578125 134.7578125 152.92578125 C135.4178125 152.92578125 136.0778125 152.92578125 136.7578125 152.92578125 C136.7578125 152.26578125 136.7578125 151.60578125 136.7578125 150.92578125 C137.4178125 150.92578125 138.0778125 150.92578125 138.7578125 150.92578125 C138.7578125 150.26578125 138.7578125 149.60578125 138.7578125 148.92578125 C139.4178125 148.92578125 140.0778125 148.92578125 140.7578125 148.92578125 C142.42447917 147.59244792 142.42447917 147.59244792 143.7578125 145.92578125 C143.7578125 145.26578125 143.7578125 144.60578125 143.7578125 143.92578125 C144.4178125 143.92578125 145.0778125 143.92578125 145.7578125 143.92578125 C145.7578125 143.26578125 145.7578125 142.60578125 145.7578125 141.92578125 C146.4178125 141.92578125 147.0778125 141.92578125 147.7578125 141.92578125 C149.33973068 140.44151892 149.33973068 140.44151892 150.8828125 138.55078125 C151.69105469 137.61105469 151.69105469 137.61105469 152.515625 136.65234375 C153.95248397 135.00969697 153.95248397 135.00969697 153.7578125 132.92578125 C147.62642536 130.2278768 141.17230785 129.53322745 134.59765625 128.52734375 C133.54741933 128.36434217 133.54741933 128.36434217 132.4759655 128.19804764 C115.08739002 125.51439277 97.61197961 123.78885832 80.10565186 122.08526611 C75.7393425 121.65988849 71.37402266 121.22618669 67.00968742 120.78099442 C65.01373865 120.58069356 63.01658793 120.39248423 61.01942444 120.2046814 C45.10248698 118.58631777 45.10248698 118.58631777 39.0078125 113.73828125 C33.82608194 107.26111804 30.45414174 100.31952109 27.3203125 92.67578125 C24.46570567 85.85374473 21.49501932 79.20558142 18.09765625 72.63671875 C16.16014775 68.71651204 14.5426704 64.68135017 12.93359375 60.6171875 C11.8315865 57.91969866 11.8315865 57.91969866 10.30078125 55.578125 C8.72908731 52.87640302 7.7440625 50.15441178 6.68652344 47.22314453 C4.80884085 42.57829881 2.30030585 38.24387423 -0.1171875 33.86328125 C-0.63410156 32.90873047 -1.15101563 31.95417969 -1.68359375 30.97070312 C-4.57156836 25.70033133 -7.49385797 20.63404883 -11.2421875 15.92578125 C-11.9021875 15.92578125 -12.5621875 15.92578125 -13.2421875 15.92578125 Z " fill="#A96B3B" transform="translate(262.2421875,76.07421875)"/>
<path d="M0 0 C2.96175123 0.61277612 4.38058783 1.25372522 7 3 C6.67 3.66 6.34 4.32 6 5 C3.4375 5.625 3.4375 5.625 1 6 C2.299375 5.979375 3.59875 5.95875 4.9375 5.9375 C6.29165633 5.91600546 7.64756083 5.92851801 9 6 C10 7 10 7 10.0625 9.5625 C10.041875 10.366875 10.02125 11.17125 10 12 C12.31 11.34 14.62 10.68 17 10 C16 12 15 14 14 16 C13.34 16 12.68 16 12 16 C12 16.66 12 17.32 12 18 C11.34 18 10.68 18 10 18 C10 18.66 10 19.32 10 20 C9.34 20 8.68 20 8 20 C8 20.66 8 21.32 8 22 C7.34 22 6.68 22 6 22 C6 22.66 6 23.32 6 24 C5.34 24 4.68 24 4 24 C3.78085937 24.55558594 3.56171875 25.11117187 3.3359375 25.68359375 C1.55795583 28.76646839 -0.71887539 30.6956908 -3.375 33.0625 C-4.45345467 34.02827783 -5.53156921 34.99443558 -6.609375 35.9609375 C-7.16560547 36.4569043 -7.72183594 36.95287109 -8.29492188 37.46386719 C-10.01250004 39.01126149 -11.70451497 40.58247957 -13.390625 42.1640625 C-13.93283691 42.6705835 -14.47504883 43.17710449 -15.03369141 43.69897461 C-16.08066904 44.67832757 -17.12470627 45.66083508 -18.16552734 46.64672852 C-21.77598732 50 -21.77598732 50 -24 50 C-24.4021875 50.8971875 -24.4021875 50.8971875 -24.8125 51.8125 C-25.98493467 53.97224808 -27.19369282 55.35790256 -29 57 C-29.66 56.67 -30.32 56.34 -31 56 C-30.01 53.36 -29.02 50.72 -28 48 C-29.32 47.67 -30.64 47.34 -32 47 C-32 46.01 -32 45.02 -32 44 C-31.34 44 -30.68 44 -30 44 C-30.33 42.68 -30.66 41.36 -31 40 C-32.94999129 40.19471111 -32.94999129 40.19471111 -35 41 C-35.433125 41.928125 -35.433125 41.928125 -35.875 42.875 C-37 45 -37 45 -39.625 46.25 C-44.28490697 48.66624806 -47.4405582 52.19663706 -51 56 C-51.66 55.67 -52.32 55.34 -53 55 C-47.72198623 49.62464581 -42.42129157 44.36256317 -36.6875 39.47265625 C-35.27139667 38.23684386 -33.93664801 36.90866507 -32.625 35.5625 C-31 34 -31 34 -29 34 C-29 33.34 -29 32.68 -29 32 C-23.52380952 27 -23.52380952 27 -21 27 C-21 26.34 -21 25.68 -21 25 C-20.34 25 -19.68 25 -19 25 C-19 24.34 -19 23.68 -19 23 C-18.34 23 -17.68 23 -17 23 C-17 22.34 -17 21.68 -17 21 C-16.34 21 -15.68 21 -15 21 C-15 20.34 -15 19.68 -15 19 C-14.34 19 -13.68 19 -13 19 C-13 18.34 -13 17.68 -13 17 C-12.34 17 -11.68 17 -11 17 C-10.505 15.515 -10.505 15.515 -10 14 C-9.34 14 -8.68 14 -8 14 C-8 13.34 -8 12.68 -8 12 C-7.34 12 -6.68 12 -6 12 C-6 11.34 -6 10.68 -6 10 C-5.34 10 -4.68 10 -4 10 C-3.7525 9.443125 -3.505 8.88625 -3.25 8.3125 C-1.78393985 5.60028873 0.02989471 3.36412635 2 1 C1.34 0.67 0.68 0.34 0 0 Z " fill="#AB6F40" transform="translate(414,208)"/>
<path d="M0 0 C0.66 0.99 1.32 1.98 2 3 C2.33 2.01 2.66 1.02 3 0 C3.66 0 4.32 0 5 0 C5 0.66 5 1.32 5 2 C5.99 2.33 6.98 2.66 8 3 C8 5.31 8 7.62 8 10 C5 11 5 11 3 11 C3 12.65 3 14.3 3 16 C1.35 16 -0.3 16 -2 16 C-2 16.66 -2 17.32 -2 18 C-3.98 18.66 -5.96 19.32 -8 20 C-8 19.34 -8 18.68 -8 18 C-9.32 18.33 -10.64 18.66 -12 19 C-12 19.99 -12 20.98 -12 22 C-13.12983882 25.38951646 -13.55534188 25.69416637 -16.5625 27.3125 C-19.80441203 28.84291613 -21.86671935 29.21996844 -25.375 28.4375 C-29 27 -29 27 -31 24 C-29 20 -29 20 -27 16 C-26.01 16 -25.02 16 -24 16 C-23.855625 15.38125 -23.71125 14.7625 -23.5625 14.125 C-23 12 -23 12 -22 10 C-19.45623535 8.59168739 -16.92151582 7.27562155 -14.3125 6 C-13.60416016 5.64421875 -12.89582031 5.2884375 -12.16601562 4.921875 C-8.18315863 2.95067339 -4.26698217 1.29017414 0 0 Z M4 7 C5 9 5 9 5 9 Z " fill="#A56430" transform="translate(184,385)"/>
<path d="M0 0 C0 0.66 0 1.32 0 2 C-0.66 2.33 -1.32 2.66 -2 3 C-2.08304117 6.65381163 -1.89694794 9.41220825 -1 13 C2.3 12.67 5.6 12.34 9 12 C5.5215529 14.60883533 2.17834379 16.67232687 -1.625 18.75 C-2.77226562 19.38421875 -3.91953125 20.0184375 -5.1015625 20.671875 C-6.53628906 21.32929688 -6.53628906 21.32929688 -8 22 C-8.66 21.67 -9.32 21.34 -10 21 C-10 19.68 -10 18.36 -10 17 C-10.66 16.67 -11.32 16.34 -12 16 C-12.33 15.01 -12.66 14.02 -13 13 C-13.99 12.67 -14.98 12.34 -16 12 C-16 11.01 -16 10.02 -16 9 C-16.99 9.33 -17.98 9.66 -19 10 C-19 10.99 -19 11.98 -19 13 C-19.928125 13.37125 -20.85625 13.7425 -21.8125 14.125 C-25.5260303 16.30942959 -26.42687504 18.06718759 -28 22 C-28.53625 21.67 -29.0725 21.34 -29.625 21 C-32.5391061 19.77300796 -34.86867708 19.85766714 -38 20 C-35.21151738 16.98507448 -32.57267949 15.02021876 -28.9375 13.125 C-27.97070312 12.61324219 -27.00390625 12.10148437 -26.0078125 11.57421875 C-24.51894531 10.79498047 -24.51894531 10.79498047 -23 10 C-21.10161209 8.98392517 -19.20570239 7.96320436 -17.3125 6.9375 C-16.41015625 6.45023437 -15.5078125 5.96296875 -14.578125 5.4609375 C-11.52095269 3.72853986 -8.62328288 1.81169223 -5.75390625 -0.21484375 C-3.47895286 -1.23325273 -2.30081976 -0.81413622 0 0 Z " fill="#B0784D" transform="translate(243,353)"/>
<path d="M0 0 C1.15371094 -0.01417969 2.30742187 -0.02835937 3.49609375 -0.04296875 C6.5625 0.1875 6.5625 0.1875 9.5625 2.1875 C10.75 4.8125 10.75 4.8125 11.5625 7.1875 C10.9025 7.1875 10.2425 7.1875 9.5625 7.1875 C9.50964844 7.80109375 9.45679688 8.4146875 9.40234375 9.046875 C8.5625 11.1875 8.5625 11.1875 6.12890625 12.453125 C5.13761719 12.77796875 4.14632812 13.1028125 3.125 13.4375 C2.13628906 13.77265625 1.14757812 14.1078125 0.12890625 14.453125 C-2.4375 15.1875 -2.4375 15.1875 -4.4375 15.1875 C-4.7675 15.8475 -5.0975 16.5075 -5.4375 17.1875 C-8.4375 16.1875 -8.4375 16.1875 -9.625 13.9375 C-10.43688294 11.18958853 -10.60010121 9.03302111 -10.4375 6.1875 C-9.4475 5.8575 -8.4575 5.5275 -7.4375 5.1875 C-7.7675 3.8675 -8.0975 2.5475 -8.4375 1.1875 C-5.60362485 -0.22943757 -3.15720627 0.0175987 0 0 Z " fill="#A86A39" transform="translate(250.4375,349.8125)"/>
<path d="M0 0 C0.66 0.99 1.32 1.98 2 3 C2.33 2.01 2.66 1.02 3 0 C3.66 0 4.32 0 5 0 C5 0.66 5 1.32 5 2 C5.99 2.33 6.98 2.66 8 3 C8 5.31 8 7.62 8 10 C5 11 5 11 3 11 C3 12.65 3 14.3 3 16 C1.35 16 -0.3 16 -2 16 C-2 16.66 -2 17.32 -2 18 C-7.75 16.25 -7.75 16.25 -10 14 C-10.125 11.375 -10.125 11.375 -10 9 C-10.7425 9.37125 -11.485 9.7425 -12.25 10.125 C-15 11 -15 11 -17.171875 10.0546875 C-17.77515625 9.70664062 -18.3784375 9.35859375 -19 9 C-16.58618654 7.68200981 -14.16922404 6.37049082 -11.75 5.0625 C-11.06808594 4.68931641 -10.38617188 4.31613281 -9.68359375 3.93164062 C-9.01972656 3.57392578 -8.35585937 3.21621094 -7.671875 2.84765625 C-7.0644043 2.51773682 -6.45693359 2.18781738 -5.83105469 1.84790039 C-3.90935018 0.95802309 -2.06548422 0.44858489 0 0 Z M4 7 C5 9 5 9 5 9 Z " fill="#A66734" transform="translate(184,385)"/>
<path d="M0 0 C1.55945072 3.11890143 0.64552918 5.65498518 0 9 C-0.99 10.485 -0.99 10.485 -2 12 C-1.34 12 -0.68 12 0 12 C-0.2687841 15.94216678 -0.55344809 17.56489814 -3.4375 20.375 C-6 22 -6 22 -8 22 C-8 23.65 -8 25.3 -8 27 C-8.99 27 -9.98 27 -11 27 C-11 26.34 -11 25.68 -11 25 C-12.65 25 -14.3 25 -16 25 C-12.25 23 -12.25 23 -10 23 C-9.7525 22.175 -9.505 21.35 -9.25 20.5 C-8.07534375 17.21096249 -6.6785351 14.26335582 -5.0859375 11.16796875 C-3.25260635 7.50790117 -1.63311959 3.75270033 0 0 Z " fill="#BC8D67" transform="translate(198,155)"/>
<path d="M0 0 C0 0.66 0 1.32 0 2 C-0.99 2.33 -1.98 2.66 -3 3 C-3 3.99 -3 4.98 -3 6 C-3.928125 6.37125 -4.85625 6.7425 -5.8125 7.125 C-9.5260303 9.30942959 -10.42687504 11.06718759 -12 15 C-12.53625 14.67 -13.0725 14.34 -13.625 14 C-16.5391061 12.77300796 -18.86867708 12.85766714 -22 13 C-19.12037726 9.86290511 -16.33282095 7.89848524 -12.5625 5.9375 C-9.74505214 4.46020119 -6.98384174 2.99000831 -4.27734375 1.31640625 C-2 0 -2 0 0 0 Z " fill="#B78A67" transform="translate(227,360)"/>
<path d="M0 0 C2.4375 0.6875 2.4375 0.6875 5 2 C5.8125 4.625 5.8125 4.625 6 7 C5.01 7 4.02 7 3 7 C3.495 7.928125 3.99 8.85625 4.5 9.8125 C6 13 6 13 6 16 C3.39417629 16.93065133 2.35801776 17.14917407 -0.25 16.0625 C-0.8275 15.711875 -1.405 15.36125 -2 15 C-1.39301257 10.87248551 0.03810791 7.6678852 2 4 C1.01 3.67 0.02 3.34 -1 3 C-0.67 2.01 -0.34 1.02 0 0 Z " fill="#A4622E" transform="translate(297,374)"/>
<path d="M0 0 C1.98 0 3.96 0 6 0 C1.87266505 3.19228551 -2.52241154 5.69687638 -7.0625 8.25 C-7.87783203 8.72179687 -8.69316406 9.19359375 -9.53320312 9.6796875 C-10.31759766 10.12054688 -11.10199219 10.56140625 -11.91015625 11.015625 C-12.62308838 11.42071289 -13.33602051 11.82580078 -14.07055664 12.24316406 C-16 13 -16 13 -19 12 C-16.36 10.68 -13.72 9.36 -11 8 C-11 6.68 -11 5.36 -11 4 C-10.34 3.01 -9.68 2.02 -9 1 C-8.38125 1.165 -7.7625 1.33 -7.125 1.5 C-5.03936614 2.07634644 -5.03936614 2.07634644 -3 2 C-2.01 2 -1.02 2 0 2 C0 1.34 0 0.68 0 0 Z " fill="#C09978" transform="translate(182,401)"/>
<path d="M0 0 C0 0.66 0 1.32 0 2 C-1.69588264 3.54091405 -3.45821672 5.00923297 -5.25 6.4375 C-6.22453125 7.21996094 -7.1990625 8.00242187 -8.203125 8.80859375 C-10.44910335 10.5683617 -12.70709843 12.30216098 -15 14 C-15 12.68 -15 11.36 -15 10 C-15.66 9.67 -16.32 9.34 -17 9 C-15.02 9 -13.04 9 -11 9 C-11.185625 8.360625 -11.37125 7.72125 -11.5625 7.0625 C-11.706875 6.381875 -11.85125 5.70125 -12 5 C-11.67 4.67 -11.34 4.34 -11 4 C-10.67 3.01 -10.34 2.02 -10 1 C-3.375 0 -3.375 0 0 0 Z " fill="#A26739" transform="translate(383,265)"/>
<path d="M0 0 C0.99 0 1.98 0 3 0 C3 0.99 3 1.98 3 3 C4.32 3.33 5.64 3.66 7 4 C7 4.99 7 5.98 7 7 C8.32 7.66 9.64 8.32 11 9 C10.25 10.9375 10.25 10.9375 9 13 C6.875 13.75 6.875 13.75 5 14 C4 11 4 11 4 9 C2.74504313 6.82671802 2.74504313 6.82671802 1 5 C0.01 5 -0.98 5 -2 5 C-1.67 4.34 -1.34 3.68 -1 3 C-0.67 2.01 -0.34 1.02 0 0 Z " fill="#A3612E" transform="translate(224,362)"/>
<path d="M0 0 C0.33 0.99 0.66 1.98 1 3 C3.64 3 6.28 3 9 3 C9 3.33 9 3.66 9 4 C4.62561293 4.50546083 0.25040173 5.00340532 -4.125 5.5 C-5.3625 5.64308594 -6.6 5.78617188 -7.875 5.93359375 C-9.07382813 6.06894531 -10.27265625 6.20429688 -11.5078125 6.34375 C-13.15740967 6.53227539 -13.15740967 6.53227539 -14.84033203 6.72460938 C-17.91231845 6.99235784 -20.91822819 7.04872366 -24 7 C-23.38125 6.71125 -22.7625 6.4225 -22.125 6.125 C-19.86674235 5.06279958 -19.86674235 5.06279958 -18 3 C-12.99472983 2.40937812 -7.9141272 2.99197391 -3 4 C-3 3.34 -3 2.68 -3 2 C-2.01 1.34 -1.02 0.68 0 0 Z " fill="#C9AB8E" transform="translate(138,196)"/>
<path d="M0 0 C1.32 0.33 2.64 0.66 4 1 C3.21995808 4.90020959 1.56084255 8.35803405 0 12 C-0.37308631 13.32276056 -0.73046415 14.65232077 -1 16 C-1.66 16 -2.32 16 -3 16 C-3.96070434 13.11788698 -4.10581883 11.30149956 -4.0625 8.3125 C-4.05347656 7.50425781 -4.04445313 6.69601562 -4.03515625 5.86328125 C-4.02355469 5.24839844 -4.01195312 4.63351562 -4 4 C-3.01 4.495 -3.01 4.495 -2 5 C-1.34 3.35 -0.68 1.7 0 0 Z " fill="#A16230" transform="translate(340,287)"/>
<path d="M0 0 C1.32 0.66 2.64 1.32 4 2 C4 2.66 4 3.32 4 4 C4.58523437 4.25652344 5.17046875 4.51304687 5.7734375 4.77734375 C8.19234608 6.10562162 9.73198872 7.56524801 11.625 9.5625 C14.04521959 12.14015389 14.04521959 12.14015389 17 14 C17 14.66 17 15.32 17 16 C13.87709365 15.51421457 11.00419641 15.0013988 8 14 C7.67 13.01 7.34 12.02 7 11 C7.66 10.67 8.32 10.34 9 10 C5.80009492 7.25722422 2.99500618 5.3697164 -1 4 C-0.67 2.68 -0.34 1.36 0 0 Z " fill="#C8A688" transform="translate(114,240)"/>
<path d="M0 0 C0.66 0.33 1.32 0.66 2 1 C1.60167969 1.45890625 1.20335937 1.9178125 0.79296875 2.390625 C-0.00173828 3.31101563 -0.00173828 3.31101563 -0.8125 4.25 C-1.36421875 4.88808594 -1.9159375 5.52617187 -2.484375 6.18359375 C-4.07726644 8.03045149 -4.07726644 8.03045149 -5.5625 10.3125 C-7 12 -7 12 -9.3203125 12.84765625 C-12.38263889 14.16454588 -14.0249364 15.7211196 -16.3125 18.125 C-17.00988281 18.84945313 -17.70726562 19.57390625 -18.42578125 20.3203125 C-18.94527344 20.87460937 -19.46476562 21.42890625 -20 22 C-20.66 21.67 -21.32 21.34 -22 21 C-16.72305334 15.62573261 -11.41779833 10.37267954 -5.6953125 5.47265625 C-3.69997138 3.73937606 -1.83007366 1.90632672 0 0 Z " fill="#D0B297" transform="translate(383,242)"/>
<path d="M0 0 C0.66 0 1.32 0 2 0 C2 0.66 2 1.32 2 2 C2.99 2.33 3.98 2.66 5 3 C5 5.31 5 7.62 5 10 C4.01 10.33 3.02 10.66 2 11 C-1.60654039 8.59563974 -1.85452932 7.05320393 -3 3 C-2.34 3 -1.68 3 -1 3 C-0.67 2.01 -0.34 1.02 0 0 Z M1 7 C2 9 2 9 2 9 Z " fill="#A5632C" transform="translate(187,385)"/>
<path d="M0 0 C0.66 1.32 1.32 2.64 2 4 C-4.75 8 -4.75 8 -7 8 C-7.33 5.69 -7.66 3.38 -8 1 C-7.4225 1.20625 -6.845 1.4125 -6.25 1.625 C-3.48032433 2.08661261 -2.35438733 1.42944945 0 0 Z " fill="#AF7B51" transform="translate(194,393)"/>
<path d="M0 0 C0 1.32 0 2.64 0 4 C1.8871875 4.061875 1.8871875 4.061875 3.8125 4.125 C6.01953125 4.37890625 6.01953125 4.37890625 8 5 C10 8.0625 10 8.0625 11 11 C6.95698825 9.51481201 3.38853744 7.57122002 -0.3125 5.375 C-1.91544922 4.42753906 -1.91544922 4.42753906 -3.55078125 3.4609375 C-4.35902344 2.97882813 -5.16726563 2.49671875 -6 2 C-2.25 0 -2.25 0 0 0 Z " fill="#C09877" transform="translate(271,372)"/>
<path d="M0 0 C2.62751411 1.21379728 4.52722928 1.19685745 7.40625 1.12109375 C8.74429687 1.09402344 8.74429687 1.09402344 10.109375 1.06640625 C10.78484375 1.04320312 11.4603125 1.02 12.15625 0.99609375 C12.48625 1.98609375 12.81625 2.97609375 13.15625 3.99609375 C3.45210386 3.28557823 -6.18792508 2.17447049 -15.84375 0.99609375 C-15.84375 0.66609375 -15.84375 0.33609375 -15.84375 -0.00390625 C-3.20805789 -1.74676033 -3.20805789 -1.74676033 0 0 Z " fill="#D8BEA6" transform="translate(377.84375,200.00390625)"/>
<path d="M0 0 C1.77734375 1.58984375 1.77734375 1.58984375 3.0625 3.0625 C3.0625 3.7225 3.0625 4.3825 3.0625 5.0625 C-0.72361227 4.52162682 -2.49150767 2.94527668 -4.9375 0.0625 C-4.9375 -0.5975 -4.9375 -1.2575 -4.9375 -1.9375 C-11.3725 -1.4425 -11.3725 -1.4425 -17.9375 -0.9375 C-17.6075 -1.5975 -17.2775 -2.2575 -16.9375 -2.9375 C-10.47741326 -4.62942748 -5.20418947 -4.30185017 0 0 Z " fill="#C6A38B" transform="translate(260.9375,74.9375)"/>
<path d="M0 0 C0 0.33 0 0.66 0 1 C-3.74760669 1.70100082 -7.49836085 2.38343987 -11.25 3.0625 C-12.31347656 3.26166016 -13.37695312 3.46082031 -14.47265625 3.66601562 C-16.00986328 3.94155273 -16.00986328 3.94155273 -17.578125 4.22265625 C-18.52075195 4.39547119 -19.46337891 4.56828613 -20.43457031 4.74633789 C-22.95177234 4.99523139 -24.61780887 4.78671127 -27 4 C-26.01 4 -25.02 4 -24 4 C-24 3.34 -24 2.68 -24 2 C-21.65793552 0.82896776 -20.34841031 0.92929496 -17.75 1 C-11.76123314 1.07653376 -6.01786907 -0.12035738 0 0 Z " fill="#D3B69C" transform="translate(113,203)"/>
<path d="M0 0 C0.93065133 2.60582371 1.14917407 3.64198224 0.0625 6.25 C-0.288125 6.8275 -0.63875 7.405 -1 8 C-1.66 8 -2.32 8 -3 8 C-3 9.65 -3 11.3 -3 13 C-3.99 13 -4.98 13 -6 13 C-6 12.34 -6 11.68 -6 11 C-7.65 11 -9.3 11 -11 11 C-7.25 9 -7.25 9 -5 9 C-4.731875 8.030625 -4.46375 7.06125 -4.1875 6.0625 C-3.795625 5.051875 -3.40375 4.04125 -3 3 C-2.01 2.67 -1.02 2.34 0 2 C0 1.34 0 0.68 0 0 Z " fill="#B38863" transform="translate(193,169)"/>
<path d="M0 0 C0 0.66 0 1.32 0 2 C-1.78614318 3.03046722 -3.57910018 4.04913236 -5.375 5.0625 C-6.87160156 5.91521484 -6.87160156 5.91521484 -8.3984375 6.78515625 C-9.25695312 7.18605469 -10.11546875 7.58695312 -11 8 C-11.66 7.67 -12.32 7.34 -13 7 C-13 6.34 -13 5.68 -13 5 C-11.02 4.67 -9.04 4.34 -7 4 C-7.33 2.68 -7.66 1.36 -8 0 C-5.13822943 -1.43088528 -3.06624227 -0.59991697 0 0 Z " fill="#BD8F6B" transform="translate(232,375)"/>
<path d="M0 0 C0.66 0.33 1.32 0.66 2 1 C3.19150921 5.36886712 3.021829 7.95634201 1 12 C-0.5625 10.4375 -0.5625 10.4375 -2 8 C-1.56363636 1.56363636 -1.56363636 1.56363636 0 0 Z " fill="#AE794F" transform="translate(291,162)"/>
<path d="M0 0 C2.25 -0.375 2.25 -0.375 5 0 C7.375 2.8125 7.375 2.8125 9 6 C8.67 6.99 8.34 7.98 8 9 C8 8.34 8 7.68 8 7 C6.68 6.34 5.36 5.68 4 5 C4 4.34 4 3.68 4 3 C3.01 3 2.02 3 1 3 C1 3.66 1 4.32 1 5 C0.34 5 -0.32 5 -1 5 C-0.67 3.35 -0.34 1.7 0 0 Z " fill="#BA9070" transform="translate(156,281)"/>
<path d="M0 0 C0.66 0 1.32 0 2 0 C2.1875 3.3125 2.1875 3.3125 2 7 C1.02149805 8.02104551 0.02019573 9.0206121 -1 10 C-1.73041853 13.61023099 -1.73041853 13.61023099 -2 17 C-2.33 17 -2.66 17 -3 17 C-3.3540919 10.48208608 -3.03901852 5.82478551 0 0 Z " fill="#CDAD92" transform="translate(338,283)"/>
<path d="M0 0 C1.98 0.495 1.98 0.495 4 1 C4 1.66 4 2.32 4 3 C4.66 3 5.32 3 6 3 C6.99 5.31 7.98 7.62 9 10 C5.05860922 8.33248852 2.2107188 5.77289351 -1 3 C-0.67 2.01 -0.34 1.02 0 0 Z " fill="#C09979" transform="translate(113,259)"/>
<path d="M0 0 C1.32 0.33 2.64 0.66 4 1 C4.061875 1.86625 4.061875 1.86625 4.125 2.75 C5.44065958 6.13312465 7.96552364 7.19222685 11 9 C8.61118335 9.8531488 7.37691245 10.12563748 4.9375 9.3125 C2.65381454 7.76548727 1.39884339 6.37803376 0 4 C0 2.68 0 1.36 0 0 Z " fill="#C19D7E" transform="translate(131,410)"/>
<path d="M0 0 C0.33 0.66 0.66 1.32 1 2 C-0.109375 4.3125 -0.109375 4.3125 -1.75 7 C-2.28109375 7.886875 -2.8121875 8.77375 -3.359375 9.6875 C-5 12 -5 12 -8 14 C-7.34 12.02 -6.68 10.04 -6 8 C-7.32 8.33 -8.64 8.66 -10 9 C-8.6875 7.5 -8.6875 7.5 -7 6 C-6.01 6 -5.02 6 -4 6 C-3.67 5.01 -3.34 4.02 -3 3 C-2.34 3 -1.68 3 -1 3 C-0.67 2.01 -0.34 1.02 0 0 Z " fill="#CBAA8B" transform="translate(206,177)"/>
<path d="M0 0 C0.763125 0.309375 1.52625 0.61875 2.3125 0.9375 C4.18789677 1.67893593 6.08684652 2.36228217 8 3 C8.33 3.99 8.66 4.98 9 6 C8.34 6.66 7.68 7.32 7 8 C5.35 6.35 3.7 4.7 2 3 C1.34 4.65 0.68 6.3 0 8 C-0.33 8 -0.66 8 -1 8 C-0.67 5.36 -0.34 2.72 0 0 Z " fill="#C4A284" transform="translate(247,89)"/>
<path d="M0 0 C3 2 3 2 4 4 C4.99 4.33 5.98 4.66 7 5 C7 6.32 7 7.64 7 9 C7.99 9 8.98 9 10 9 C10 9.66 10 10.32 10 11 C10.66 11.33 11.32 11.66 12 12 C10.68 12.33 9.36 12.66 8 13 C6.66094733 11.2126038 5.32890934 9.41995047 4 7.625 C3.2575 6.62726563 2.515 5.62953125 1.75 4.6015625 C0 2 0 2 0 0 Z " fill="#C9AA8E" transform="translate(68,215)"/>
<path d="M0 0 C-0.66 1.65 -1.32 3.3 -2 5 C-3.65 5 -5.3 5 -7 5 C-7 4.34 -7 3.68 -7 3 C-7.66 3 -8.32 3 -9 3 C-9 2.34 -9 1.68 -9 1 C-6.04335481 -0.4783226 -3.25770263 -0.06032783 0 0 Z " fill="#9C632F" transform="translate(362,194)"/>
<path d="M0 0 C3.01969936 1.50984968 3.40521919 3.81075302 4.6875 6.875 C5.14511719 7.94492188 5.60273438 9.01484375 6.07421875 10.1171875 C7 13 7 13 6 16 C5.896875 15.360625 5.79375 14.72125 5.6875 14.0625 C5.460625 13.381875 5.23375 12.70125 5 12 C4.01 11.67 3.02 11.34 2 11 C0.60955102 7.12137916 0 4.13537997 0 0 Z " fill="#CDAC91" transform="translate(299,149)"/>
<path d="M0 0 C3.59391114 1.33488128 6.75490696 2.96022723 10 5 C8 7 8 7 6 8 C5.67 7.01 5.34 6.02 5 5 C4.01 5.33 3.02 5.66 2 6 C1.34 4.02 0.68 2.04 0 0 Z M-1 6 C-0.01 6.33 0.98 6.66 2 7 C1.01 7.66 0.02 8.32 -1 9 C-1 8.01 -1 7.02 -1 6 Z " fill="#C39974" transform="translate(301,375)"/>
<path d="M0 0 C2.48620049 1.06551449 4.03717151 2.03837059 5.9375 4 C7.88864226 6.15545512 7.88864226 6.15545512 10.625 7 C13 8 13 8 14.3125 10.125 C14.6528125 11.053125 14.6528125 11.053125 15 12 C10.6811346 12 8.78127223 9.38440717 5.8125 6.5625 C5.25369141 6.04623047 4.69488281 5.52996094 4.11914062 4.99804688 C2.72081232 3.69191604 1.357217 2.34880015 0 1 C0 0.67 0 0.34 0 0 Z " fill="#D1AF91" transform="translate(89,239)"/>
<path d="M0 0 C0.99 0.33 1.98 0.66 3 1 C2.03644647 10.41002278 2.03644647 10.41002278 1 15 C0.34 14.34 -0.32 13.68 -1 13 C-0.9765625 9.9609375 -0.9765625 9.9609375 -0.625 6.375 C-0.51414063 5.18648438 -0.40328125 3.99796875 -0.2890625 2.7734375 C-0.19367188 1.85820312 -0.09828125 0.94296875 0 0 Z " fill="#C39C7A" transform="translate(156,324)"/>
<path d="M0 0 C0.66 0.33 1.32 0.66 2 1 C0.59419724 2.65512248 -0.82506266 4.29882206 -2.25 5.9375 C-3.03890625 6.85402344 -3.8278125 7.77054687 -4.640625 8.71484375 C-6.91251033 10.91526249 -7.92319022 11.66832555 -11 12 C-11 11.34 -11 10.68 -11 10 C-10.34 10 -9.68 10 -9 10 C-9 9.34 -9 8.68 -9 8 C-8.34 8 -7.68 8 -7 8 C-7 7.34 -7 6.68 -7 6 C-5.46875 4.4921875 -5.46875 4.4921875 -3.5 2.875 C-2.8503125 2.33617187 -2.200625 1.79734375 -1.53125 1.2421875 C-0.77328125 0.62730469 -0.77328125 0.62730469 0 0 Z " fill="#C7AA91" transform="translate(359,264)"/>
<path d="M0 0 C4.12751449 0.60698743 7.3321148 2.03810791 11 4 C10.67 4.66 10.34 5.32 10 6 C7.36 6 4.72 6 2 6 C2 4.35 2 2.7 2 1 C1.34 0.67 0.68 0.34 0 0 Z " fill="#BC9371" transform="translate(418,192)"/>
<path d="M0 0 C1.65 0 3.3 0 5 0 C4.01 0.495 4.01 0.495 3 1 C3 1.66 3 2.32 3 3 C2.34 3 1.68 3 1 3 C0.7525 3.61875 0.505 4.2375 0.25 4.875 C-1.20628639 7.35068687 -2.37812506 7.95125002 -5 9 C-5 5 -5 5 -3 3 C-2.01 3 -1.02 3 0 3 C0 2.01 0 1.02 0 0 Z " fill="#BD9576" transform="translate(417,229)"/>
<path d="M0 0 C4.10801767 1.18676066 5.89448334 1.89448334 9 5 C6.03 5.66 3.06 6.32 0 7 C0 4.66666667 0 2.33333333 0 0 Z " fill="#B98A65" transform="translate(260,352)"/>
<path d="M0 0 C0.66 0 1.32 0 2 0 C3.125 4.75 3.125 4.75 2 7 C2.66 7 3.32 7 4 7 C3.67 9.31 3.34 11.62 3 14 C2.67 14 2.34 14 2 14 C-0.29612756 4.58997722 -0.29612756 4.58997722 0 0 Z " fill="#C6A486" transform="translate(341,323)"/>
<path d="M0 0 C-0.1875 1.875 -0.1875 1.875 -1 4 C-3.3125 5.375 -3.3125 5.375 -6 6 C-8.3125 5.125 -8.3125 5.125 -10 4 C-3.375 0 -3.375 0 0 0 Z " fill="#BA8F6E" transform="translate(175,390)"/>
<path d="M0 0 C2.97 0.495 2.97 0.495 6 1 C3.14723863 3.93200474 0.34920216 6.64315404 -3 9 C-3 7.68 -3 6.36 -3 5 C-3.66 4.67 -4.32 4.34 -5 4 C-3.02 4 -1.04 4 1 4 C0.67 2.68 0.34 1.36 0 0 Z " fill="#BF9474" transform="translate(371,270)"/>
<path d="M0 0 C3 1 3 1 4.203125 2.77734375 C4.54859375 3.49019531 4.8940625 4.20304687 5.25 4.9375 C5.78367187 6.00291016 5.78367187 6.00291016 6.328125 7.08984375 C6.54984375 7.72019531 6.7715625 8.35054687 7 9 C6.67 9.66 6.34 10.32 6 11 C5.01524786 9.90081184 4.03739527 8.7954398 3.0625 7.6875 C2.51722656 7.07261719 1.97195313 6.45773438 1.41015625 5.82421875 C0 4 0 4 -1 1 C-0.67 0.67 -0.34 0.34 0 0 Z " fill="#CBAA90" transform="translate(280,110)"/>
<path d="M0 0 C0.33 0.66 0.66 1.32 1 2 C-0.61594832 4.04119788 -2.2856382 6.04072937 -4 8 C-4.66 8 -5.32 8 -6 8 C-6 7.01 -6 6.02 -6 5 C-5.34 5 -4.68 5 -4 5 C-4.33 4.01 -4.66 3.02 -5 2 C-3.35 1.34 -1.7 0.68 0 0 Z " fill="#BA9372" transform="translate(369,410)"/>
<path d="M0 0 C1.1446875 0.495 1.1446875 0.495 2.3125 1 C4.99069135 2.17436686 4.99069135 2.17436686 8 2 C8.99 4.31 9.98 6.62 11 9 C9 8 7 7 5 6 C5 5.34 5 4.68 5 4 C4.360625 3.71125 3.72125 3.4225 3.0625 3.125 C1 2 1 2 0 0 Z " fill="#CDAC8F" transform="translate(136,282)"/>
<path d="M0 0 C0.66 0.33 1.32 0.66 2 1 C1.3125 3.4375 1.3125 3.4375 0 6 C-2.625 6.8125 -2.625 6.8125 -5 7 C-5.33 6.34 -5.66 5.68 -6 5 C-5.34 5 -4.68 5 -4 5 C-4 4.34 -4 3.68 -4 3 C-2 1.375 -2 1.375 0 0 Z " fill="#BE9779" transform="translate(346,276)"/>
<path d="M0 0 C2.49361571 1.20381448 4.68143083 2.45428722 7 4 C7 4.66 7 5.32 7 6 C7.99 6.33 8.98 6.66 10 7 C9.34 7.66 8.68 8.32 8 9 C6.66079162 7.88200014 5.32877444 6.75538103 4 5.625 C2.88625 4.68527344 2.88625 4.68527344 1.75 3.7265625 C1.1725 3.15679687 0.595 2.58703125 0 2 C0 1.34 0 0.68 0 0 Z " fill="#B99171" transform="translate(146,270)"/>
<path d="M0 0 C2.96175123 0.61277612 4.38058783 1.25372522 7 3 C6.67 3.66 6.34 4.32 6 5 C5.2575 5.12375 4.515 5.2475 3.75 5.375 C0.35760726 6.14599835 -1.42466207 7.71898641 -4 10 C-2.47291037 6.56404834 -0.40072955 3.88087546 2 1 C1.34 0.67 0.68 0.34 0 0 Z " fill="#D9BB9F" transform="translate(414,208)"/>
<path d="M0 0 C1.17539996 0.92652701 2.34010577 1.86663387 3.5 2.8125 C4.1496875 3.33457031 4.799375 3.85664063 5.46875 4.39453125 C7 6 7 6 7 9 C6.236875 8.319375 5.47375 7.63875 4.6875 6.9375 C3.800625 6.298125 2.91375 5.65875 2 5 C1.01 5.33 0.02 5.66 -1 6 C-1.33 5.34 -1.66 4.68 -2 4 C-1.0625 1.875 -1.0625 1.875 0 0 Z " fill="#C9A485" transform="translate(84,210)"/>
<path d="M0 0 C0 0.66 0 1.32 0 2 C1.65 2 3.3 2 5 2 C5 2.33 5 2.66 5 3 C-0.94 2.67 -6.88 2.34 -13 2 C-13 1.67 -13 1.34 -13 1 C-8.62426048 0.40667939 -4.42471556 -0.13827236 0 0 Z " fill="#D9C1A9" transform="translate(355,197)"/>
<path d="M0 0 C2.97 0.495 2.97 0.495 6 1 C6 1.66 6 2.32 6 3 C5.21625 3.28875 4.4325 3.5775 3.625 3.875 C0.90328368 4.84912254 0.90328368 4.84912254 -1 7 C-1.66 6.34 -2.32 5.68 -3 5 C-2.01 3.35 -1.02 1.7 0 0 Z " fill="#A16230" transform="translate(219,376)"/>
<path d="M0 0 C-1.44253657 3.36591866 -3.33264727 5.51047079 -6 8 C-6.66 7.67 -7.32 7.34 -8 7 C-6.4365884 2.43002763 -5.27390657 0 0 0 Z " fill="#C19C7C" transform="translate(363,282)"/>
<path d="M0 0 C0.99 0.33 1.98 0.66 3 1 C2.34 2.98 1.68 4.96 1 7 C-0.32 6.67 -1.64 6.34 -3 6 C-1.125 1.125 -1.125 1.125 0 0 Z " fill="#B88969" transform="translate(70,197)"/>
<path d="M0 0 C0.66 0 1.32 0 2 0 C2 0.66 2 1.32 2 2 C1.34 2 0.68 2 0 2 C0.33 3.65 0.66 5.3 1 7 C-0.65 8.32 -2.3 9.64 -4 11 C-3.5247412 9.35303396 -3.04468109 7.70745272 -2.5625 6.0625 C-2.29566406 5.14597656 -2.02882812 4.22945312 -1.75390625 3.28515625 C-1 1 -1 1 0 0 Z " fill="#9C6336" transform="translate(201,151)"/>
<path d="M0 0 C0.45375 0.495 0.9075 0.99 1.375 1.5 C2.87635519 3.22609337 2.87635519 3.22609337 5 3 C5.33 5.31 5.66 7.62 6 10 C5.01 10 4.02 10 3 10 C0 3.375 0 3.375 0 0 Z " fill="#CBAE94" transform="translate(278,143)"/>
<path d="M0 0 C2.97 0.495 2.97 0.495 6 1 C5.25 5.75 5.25 5.75 3 8 C2.67 7.01 2.34 6.02 2 5 C1.34 4.34 0.68 3.68 0 3 C0 2.01 0 1.02 0 0 Z " fill="#A06434" transform="translate(225,121)"/>
<path d="M0 0 C0.28571429 7.42857143 0.28571429 7.42857143 -2 11 C-3.1577506 7.52674819 -3.06866652 4.63932552 -3 1 C-1 0 -1 0 0 0 Z " fill="#C19778" transform="translate(150,368)"/>
<path d="M0 0 C0.66 0.99 1.32 1.98 2 3 C-3.28 2.67 -8.56 2.34 -14 2 C-14 1.67 -14 1.34 -14 1 C-3.99295775 -0.38028169 -3.99295775 -0.38028169 0 0 Z " fill="#CDAD8F" transform="translate(177,180)"/>
<path d="M0 0 C2.64752004 2.57784846 4.94432065 4.91648098 7 8 C6.67 8.99 6.34 9.98 6 11 C1.9957657 7.50912907 0.37328935 5.35048061 0 0 Z " fill="#D1B39B" transform="translate(264,80)"/>
<path d="M0 0 C0.33 0 0.66 0 1 0 C1.33895656 1.72807318 1.67091525 3.45751974 2 5.1875 C2.185625 6.15042969 2.37125 7.11335938 2.5625 8.10546875 C2.96877612 10.7934206 3.07933572 13.28771019 3 16 C2.67 15.34 2.34 14.68 2 14 C1.34 14 0.68 14 0 14 C0 9.38 0 4.76 0 0 Z " fill="#E2CDB7" transform="translate(367,372)"/>
<path d="M0 0 C0.33 0 0.66 0 1 0 C1 2.31 1 4.62 1 7 C-0.32 7 -1.64 7 -3 7 C-2.25 2.25 -2.25 2.25 0 0 Z " fill="#A45F2C" transform="translate(413,215)"/>
<path d="M0 0 C4.95 0.33 9.9 0.66 15 1 C15 1.33 15 1.66 15 2 C11.37 2.33 7.74 2.66 4 3 C4 2.34 4 1.68 4 1 C2.68 0.67 1.36 0.34 0 0 Z " fill="#D2B89E" transform="translate(323,180)"/>
<path d="M0 0 C0.99 0.33 1.98 0.66 3 1 C1.68 3.64 0.36 6.28 -1 9 C-1.66 8.67 -2.32 8.34 -3 8 C-1.125 2.25 -1.125 2.25 0 0 Z " fill="#AB7C58" transform="translate(222,104)"/>
<path d="M0 0 C1 2 1 2 0.3125 5.0625 C-1 8 -1 8 -3.125 8.875 C-3.74375 8.91625 -4.3625 8.9575 -5 9 C-3.7508258 5.54074837 -2.32472205 2.85306797 0 0 Z " fill="#C6A07F" transform="translate(234,83)"/>
<path d="M0 0 C1.33333333 2.66666667 2.66666667 5.33333333 4 8 C1.525 9.485 1.525 9.485 -1 11 C-0.67 7.37 -0.34 3.74 0 0 Z " fill="#985E31" transform="translate(355,396)"/>
<path d="M0 0 C1.98 0.99 1.98 0.99 4 2 C3.67 2.99 3.34 3.98 3 5 C3.66 5.33 4.32 5.66 5 6 C3.68 6.33 2.36 6.66 1 7 C0.67 4.69 0.34 2.38 0 0 Z " fill="#AB7448" transform="translate(186,394)"/>
<path d="M0 0 C0.66 0.33 1.32 0.66 2 1 C1.67 4.63 1.34 8.26 1 12 C-1.49388574 7.01222852 -0.88836125 5.33016752 0 0 Z " fill="#BC8B67" transform="translate(151,352)"/>
<path d="M0 0 C1.32 0 2.64 0 4 0 C4 0.99 4 1.98 4 3 C2 4.6875 2 4.6875 0 6 C-0.66 4.68 -1.32 3.36 -2 2 C-1.34 2 -0.68 2 0 2 C0 1.34 0 0.68 0 0 Z " fill="#9E6030" transform="translate(83,227)"/>
<path d="M0 0 C1.98 0.66 3.96 1.32 6 2 C6 2.99 6 3.98 6 5 C3.03 4.505 3.03 4.505 0 4 C0 2.68 0 1.36 0 0 Z " fill="#BB906C" transform="translate(314,383)"/>
<path d="M0 0 C0 0.66 0 1.32 0 2 C-1.96147874 3.38938077 -3.96166576 4.7260411 -6 6 C-6.33 4.35 -6.66 2.7 -7 1 C-4.50935112 0.31292445 -2.62113708 0 0 0 Z " fill="#C09E7E" transform="translate(383,265)"/>
<path d="M0 0 C2.03833424 1.2739589 4.03852126 2.61061923 6 4 C6 4.66 6 5.32 6 6 C6.66 6 7.32 6 8 6 C7.67 6.66 7.34 7.32 7 8 C3.83282717 6.41641358 2.26731682 5.54736301 0.6875 2.3125 C0.460625 1.549375 0.23375 0.78625 0 0 Z " fill="#C9AA91" transform="translate(136,260)"/>
<path d="M0 0 C0.99 0 1.98 0 3 0 C1.25 5.75 1.25 5.75 -1 8 C-1.625 5.125 -1.625 5.125 -2 2 C-1.34 1.34 -0.68 0.68 0 0 Z " fill="#C29876" transform="translate(210,164)"/>
<path d="M0 0 C0.99 0.495 0.99 0.495 2 1 C2 1.66 2 2.32 2 3 C2.99 3.33 3.98 3.66 5 4 C5.6875 6.0625 5.6875 6.0625 6 8 C5.01 8 4.02 8 3 8 C3 7.34 3 6.68 3 6 C2.34 6 1.68 6 1 6 C0.67 4.02 0.34 2.04 0 0 Z " fill="#A97D5A" transform="translate(268,88)"/>
<path d="M0 0 C2.02045442 0.60183749 4.02111039 1.27306096 6 2 C6.33 2.66 6.66 3.32 7 4 C5.35 4.66 3.7 5.32 2 6 C0 3 0 3 0 0 Z " fill="#BF9672" transform="translate(290,369)"/>
<path d="M0 0 C0.33 0.99 0.66 1.98 1 3 C3.64 3 6.28 3 9 3 C9 3.33 9 3.66 9 4 C5.04 4 1.08 4 -3 4 C-3 3.34 -3 2.68 -3 2 C-2.01 1.34 -1.02 0.68 0 0 Z " fill="#CCA684" transform="translate(138,196)"/>
<path d="M0 0 C0.99 0.33 1.98 0.66 3 1 C2.67 2.65 2.34 4.3 2 6 C0.68 5.34 -0.64 4.68 -2 4 C-1.34 2.68 -0.68 1.36 0 0 Z " fill="#A56431" transform="translate(298,155)"/>
<path d="M0 0 C1.32 0 2.64 0 4 0 C3.67 1.98 3.34 3.96 3 6 C2.01 5.67 1.02 5.34 0 5 C0 3.35 0 1.7 0 0 Z " fill="#AF805B" transform="translate(272,128)"/>
<path d="M0 0 C1.32 0 2.64 0 4 0 C4.33 0.66 4.66 1.32 5 2 C5.66 2.33 6.32 2.66 7 3 C7 3.66 7 4.32 7 5 C4.0625 4.1875 4.0625 4.1875 1 3 C0.67 2.01 0.34 1.02 0 0 Z " fill="#C39E7F" transform="translate(322,405)"/>
<path d="M0 0 C-1.6875 2.0625 -1.6875 2.0625 -4 4 C-6.75 3.75 -6.75 3.75 -9 3 C-5.93488101 -0.06511899 -4.25015687 -1.41671896 0 0 Z " fill="#D0B39B" transform="translate(157,400)"/>
<path d="M0 0 C1.65 0 3.3 0 5 0 C5.28875 0.639375 5.5775 1.27875 5.875 1.9375 C6.82823451 4.15206079 6.82823451 4.15206079 9 5 C5.12867972 4.42647107 2.91827204 2.51295648 0 0 Z " fill="#CEB096" transform="translate(293,389)"/>
<path d="M0 0 C3.45925163 1.2491742 6.14693203 2.67527795 9 5 C6 6 6 6 3.375 4.75 C1 3 1 3 0 0 Z " fill="#CFB398" transform="translate(278,362)"/>
<path d="M0 0 C2.9375 0.75 2.9375 0.75 6 2 C6.875 4.125 6.875 4.125 7 6 C6.34 6 5.68 6 5 6 C5 5.34 5 4.68 5 4 C4.360625 3.71125 3.72125 3.4225 3.0625 3.125 C1 2 1 2 0 0 Z " fill="#C1987A" transform="translate(103,252)"/>
<path d="M0 0 C1.32 0.66 2.64 1.32 4 2 C3.67 3.32 3.34 4.64 3 6 C1.68 5.34 0.36 4.68 -1 4 C-0.67 2.68 -0.34 1.36 0 0 Z " fill="#B88C68" transform="translate(114,240)"/>
<path d="M0 0 C0.144375 0.61875 0.28875 1.2375 0.4375 1.875 C0.93152225 4.03258322 0.93152225 4.03258322 2 6 C0.35 6.33 -1.3 6.66 -3 7 C-1.125 1.125 -1.125 1.125 0 0 Z " fill="#BA8F6E" transform="translate(228,93)"/>
<path d="M0 0 C0.66 0 1.32 0 2 0 C2.33 1.98 2.66 3.96 3 6 C1.68 5.34 0.36 4.68 -1 4 C-0.67 2.68 -0.34 1.36 0 0 Z " fill="#A16334" transform="translate(229,93)"/>
</svg>
